0
SECTION
2
HEADER
9
$INSUNITS
70
4
9
$ACADVER
1
AC1014
9
$HANDSEED
5
FFFF
0
ENDSEC
0
SECTION
2
TABLES
0
TABLE
2
VPORT
5
8
100
AcDbSymbolTable
0
ENDTAB
0
TABLE
2
LTYPE
5
5
100
AcDbSymbolTable
0
LTYPE
5
14
100
AcDbSymbolTableRecord
100
AcDbLinetypeTableRecord
2
BYBLOCK
70
0
0
LTYPE
5
15
100
AcDbSymbolTableRecord
100
AcDbLinetypeTableRecord
2
BYLAYER
70
0
0
ENDTAB
0
TABLE
2
LAYER
5
2
100
AcDbSymbolTable
70
2
0
LAYER
5
50
100
AcDbSymbolTableRecord
100
AcDbLayerTableRecord
2
0
70
0
6
CONTINUOUS
0
ENDTAB
0
TABLE
2
STYLE
5
3
100
AcDbSymbolTable
70
1
0
STYLE
5
11
100
AcDbSymbolTableRecord
100
AcDbTextStyleTableRecord
2
STANDARD
70
0
0
ENDTAB
0
TABLE
2
VIEW
5
6
100
AcDbSymbolTable
70
0
0
ENDTAB
0
TABLE
2
UCS
5
7
100
AcDbSymbolTable
70
0
0
ENDTAB
0
TABLE
2
APPID
5
9
100
AcDbSymbolTable
70
2
0
APPID
5
12
100
AcDbSymbolTableRecord
100
AcDbRegAppTableRecord
2
ACAD
70
0
0
ENDTAB
0
TABLE
2
DIMSTYLE
5
A
100
AcDbSymbolTable
70
1
0
ENDTAB
0
TABLE
2
BLOCK_RECORD
5
1
100
AcDbSymbolTable
70
1
0
BLOCK_RECORD
5
1F
100
AcDbSymbolTableRecord
100
AcDbBlockTableRecord
2
*MODEL_SPACE
0
BLOCK_RECORD
5
1B
100
AcDbSymbolTableRecord
100
AcDbBlockTableRecord
2
*PAPER_SPACE
0
ENDTAB
0
ENDSEC
0
SECTION
2
BLOCKS
0
BLOCK
5
20
100
AcDbEntity
100
AcDbBlockBegin
2
*MODEL_SPACE
0
ENDBLK
5
21
100
AcDbEntity
100
AcDbBlockEnd
0
BLOCK
5
1C
100
AcDbEntity
100
AcDbBlockBegin
2
*PAPER_SPACE
0
ENDBLK
5
1D
100
AcDbEntity
100
AcDbBlockEnd
0
ENDSEC
0
SECTION
2
ENTITIES
0
ARC
5
100
100
AcDbEntity
8
0
100
AcDbCircle
10
2.6978419498391304e-13
20
3.0975222387041867e-13
30
0
40
8.5492000000004129
100
AcDbArc
50
224.9375776897943
51
233.24424049202395
0
ARC
5
101
100
AcDbEntity
8
0
100
AcDbCircle
10
-5.4150878063330774
20
-7.2501617009348731
30
0
40
0.50000000000000044
100
AcDbArc
50
-33.531782773549857
51
53.244240492024161
0
LINE
5
102
100
AcDbEntity
8
0
100
AcDbLine
10
-4.9982980430384458
20
-7.5263614352084698
30
0
11
-5.7173768669461698
21
-8.611462742763683
31
0
0
SPLINE
5
103
100
AcDbEntity
8
0
100
AcDbSpline
70
1064
71
5
72
81
73
75
74
0
42
0.000000001
43
0.0000000001
44
0.0000000001
40
0
40
0
40
0
40
0
40
0
40
0
40
0.014285714285714285
40
0.028571428571428571
40
0.042857142857142858
40
0.057142857142857141
40
0.071428571428571425
40
0.085714285714285715
40
0.10000000000000001
40
0.1142857142857143
40
0.12857142857142859
40
0.14285714285714288
40
0.15714285714285717
40
0.17142857142857146
40
0.18571428571428575
40
0.20000000000000004
40
0.21428571428571433
40
0.22857142857142862
40
0.24285714285714291
40
0.25714285714285717
40
0.27142857142857146
40
0.28571428571428575
40
0.30000000000000004
40
0.31428571428571433
40
0.32857142857142863
40
0.34285714285714292
40
0.35714285714285721
40
0.3714285714285715
40
0.38571428571428579
40
0.40000000000000008
40
0.41428571428571437
40
0.42857142857142866
40
0.44285714285714295
40
0.45714285714285724
40
0.47142857142857153
40
0.48571428571428582
40
0.50000000000000011
40
0.51428571428571435
40
0.52857142857142858
40
0.54285714285714282
40
0.55714285714285705
40
0.57142857142857129
40
0.58571428571428552
40
0.59999999999999976
40
0.61428571428571399
40
0.62857142857142823
40
0.64285714285714246
40
0.6571428571428567
40
0.67142857142857093
40
0.68571428571428517
40
0.6999999999999994
40
0.71428571428571364
40
0.72857142857142787
40
0.74285714285714211
40
0.75714285714285634
40
0.77142857142857058
40
0.78571428571428481
40
0.79999999999999905
40
0.81428571428571328
40
0.82857142857142752
40
0.84285714285714175
40
0.85714285714285599
40
0.87142857142857022
40
0.88571428571428445
40
0.89999999999999869
40
0.91428571428571292
40
0.92857142857142716
40
0.94285714285714139
40
0.95714285714285563
40
0.97142857142856986
40
0.9857142857142841
40
1
40
1
40
1
40
1
40
1
40
1
10
-5.7173768669461698
20
-8.611462742763683
30
0
10
-5.7217737217215543
20
-8.6180976660951387
30
0
10
-5.7303361327990787
20
-8.6314853521147477
30
0
10
-5.7424858648285149
20
-8.6519203944294318
30
0
10
-5.7573680198956945
20
-8.67984207039515
30
0
10
-5.774181569296517
20
-8.7156826042922617
30
0
10
-5.7897207953490915
20
-8.75222390625283
30
0
10
-5.8044908873462777
20
-8.7892300049286085
30
0
10
-5.81885850882691
20
-8.8265244142636075
30
0
10
-5.8329541935521512
20
-8.8640341113154992
30
0
10
-5.8467543283661332
20
-8.9017542237696912
30
0
10
-5.8601436326175715
20
-8.9397213613231212
30
0
10
-5.8729814732642849
20
-8.9779851730055675
30
0
10
-5.8851748779581667
20
-9.0165771447099505
30
0
10
-5.896721807757519
20
-9.0554919290929661
30
0
10
-5.9076732720202561
20
-9.0947029733433062
30
0
10
-5.9181100668017903
20
-9.1341719536199335
30
0
10
-5.9281156744394536
20
-9.1738598626403043
30
0
10
-5.9377462314401805
20
-9.2137392649281242
30
0
10
-5.9470178050417308
20
-9.2537994731630757
30
0
10
-5.9559230010090332
20
-9.2940396981039761
30
0
10
-5.964441017937876
20
-9.3344648861501369
30
0
10
-5.9725494023528931
20
-9.37508086104868
30
0
10
-5.9802373240237809
20
-9.4158888376337675
30
0
10
-5.9875096080630721
20
-9.4568837432548865
30
0
10
-5.9943798100733865
20
-9.4980570517464766
30
0
10
-6.0008660370448101
20
-9.5393984863594774
30
0
10
-6.0069860662646377
20
-9.5808980127439423
30
0
10
-6.0127517676274174
20
-9.6225481165907798
30
0
10
-6.0181679468179103
20
-9.6643442694675787
30
0
10
-6.0232352733325598
20
-9.7062837201263115
30
0
10
-6.0279521242050045
20
-9.7483647302516712
30
0
10
-6.0323166946756102
20
-9.7905857012563118
30
0
10
-6.0363294339556131
20
-9.8329441668238271
30
0
10
-6.0399934477479666
20
-9.8754366233245747
30
0
10
-6.0433132879012579
20
-9.9180590246697342
30
0
10
-6.0462941868902256
20
-9.9608070940806464
30
0
10
-6.0489411868429794
20
-10.003676679330928
30
0
10
-6.0512581326690817
20
-10.046664164260971
30
0
10
-6.05324753475794
20
-10.089766521554502
30
0
10
-6.0549110893440812
20
-10.132981094377104
30
0
10
-6.056250019472432
20
-10.176305451980365
30
0
10
-6.057265459138959
20
-10.219737228090951
30
0
10
-6.0579589013634401
20
-10.263273931962464
30
0
10
-6.0583322744604509
20
-10.306912917378742
30
0
10
-6.0583877224583187
20
-10.350651476929176
30
0
10
-6.0581274688546172
20
-10.394486901657785
30
0
10
-6.0575536614122294
20
-10.438416547904264
30
0
10
-6.0566681957131641
20
-10.482437915929424
30
0
10
-6.0554726796634295
20
-10.526548659429178
30
0
10
-6.0539685298660642
20
-10.570746531522108
30
0
10
-6.0521570352466973
20
-10.615029346130282
30
0
10
-6.0500394301236273
20
-10.659394937094319
30
0
10
-6.0476169802099209
20
-10.703841106463548
30
0
10
-6.0448910090953163
20
-10.748365619199944
30
0
10
-6.0418628530527538
20
-10.792966251168822
30
0
10
-6.0385338358752456
20
-10.837640824994118
30
0
10
-6.0349052397468395
20
-10.882387245147967
30
0
10
-6.0309782752031165
20
-10.927203545443845
30
0
10
-6.0267540703407292
20
-10.972087887362751
30
0
10
-6.0222336927809605
20
-11.017038479389459
30
0
10
-6.0174181664312201
20
-11.062053510819121
30
0
10
-6.0123084909881621
20
-11.107131086852942
30
0
10
-6.006905665895161
20
-11.152269144453355
30
0
10
-6.0012107034172892
20
-11.197465433692173
30
0
10
-5.9952246079134621
20
-11.242717677609107
30
0
10
-5.9889483636141092
20
-11.288023700371658
30
0
10
-5.9823829203603918
20
-11.333381563343458
30
0
10
-5.9755291841182032
20
-11.378789707833914
30
0
10
-5.9683880022393785
20
-11.42424706493199
30
0
10
-5.9609601129361289
20
-11.469752951538016
30
0
10
-5.9547889028781444
20
-11.506196183491877
30
0
10
-5.9500319130573871
20
-11.533550205441294
30
0
10
-5.9468034578194908
20
-11.551795816016675
30
0
10
-5.9451749480274145
20
-11.560921020288449
30
0
0
ARC
5
104
100
AcDbEntity
8
0
100
AcDbCircle
10
2.6978419498391304e-13
20
3.0975222387041867e-13
30
0
40
13.0000000000004
100
AcDbArc
50
242.78561916645936
51
248.12347174263036
0
SPLINE
5
105
100
AcDbEntity
8
0
100
AcDbSpline
70
1064
71
5
72
81
73
75
74
0
42
0.000000001
43
0.0000000001
44
0.0000000001
40
0
40
0
40
0
40
0
40
0
40
0
40
0.014285714285714285
40
0.028571428571428571
40
0.042857142857142858
40
0.057142857142857141
40
0.071428571428571425
40
0.085714285714285715
40
0.10000000000000001
40
0.1142857142857143
40
0.12857142857142859
40
0.14285714285714288
40
0.15714285714285717
40
0.17142857142857146
40
0.18571428571428575
40
0.20000000000000004
40
0.21428571428571433
40
0.22857142857142862
40
0.24285714285714291
40
0.25714285714285717
40
0.27142857142857146
40
0.28571428571428575
40
0.30000000000000004
40
0.31428571428571433
40
0.32857142857142863
40
0.34285714285714292
40
0.35714285714285721
40
0.3714285714285715
40
0.38571428571428579
40
0.40000000000000008
40
0.41428571428571437
40
0.42857142857142866
40
0.44285714285714295
40
0.45714285714285724
40
0.47142857142857153
40
0.48571428571428582
40
0.50000000000000011
40
0.51428571428571435
40
0.52857142857142858
40
0.54285714285714282
40
0.55714285714285705
40
0.57142857142857129
40
0.58571428571428552
40
0.59999999999999976
40
0.61428571428571399
40
0.62857142857142823
40
0.64285714285714246
40
0.6571428571428567
40
0.67142857142857093
40
0.68571428571428517
40
0.6999999999999994
40
0.71428571428571364
40
0.72857142857142787
40
0.74285714285714211
40
0.75714285714285634
40
0.77142857142857058
40
0.78571428571428481
40
0.79999999999999905
40
0.81428571428571328
40
0.82857142857142752
40
0.84285714285714175
40
0.85714285714285599
40
0.87142857142857022
40
0.88571428571428445
40
0.89999999999999869
40
0.91428571428571292
40
0.92857142857142716
40
0.94285714285714139
40
0.95714285714285563
40
0.97142857142856986
40
0.9857142857142841
40
1
40
1
40
1
40
1
40
1
40
1
10
-2.7640236910810345
20
-9.9602139456861565
30
0
10
-2.7661587040193951
20
-9.9678818175736588
30
0
10
-2.7706692552277348
20
-9.9831199259935737
30
0
10
-2.7781566473249324
20
-10.005684187611735
30
0
10
-2.7895127030613014
20
-10.035216179185122
30
0
10
-2.8055886379978237
20
-10.071393570321032
30
0
10
-2.8230286824231428
20
-10.107066797617275
30
0
10
-2.8413236724601587
20
-10.142463129296592
30
0
10
-2.8601001152930228
20
-10.177744097384236
30
0
10
-2.8792173424295129
20
-10.212960532857039
30
0
10
-2.898687134948537
20
-10.248091399394985
30
0
10
-2.9186126533848773
20
-10.283073547947952
30
0
10
-2.9391235150288764
20
-10.317833208354244
30
0
10
-2.9603043992708287
20
-10.352320735676305
30
0
10
-2.9821526000811618
20
-10.386531087219646
30
0
10
-3.0046146461584722
20
-10.420485424891304
30
0
10
-3.0276086641120568
20
-10.454219713497094
30
0
10
-3.0510505049000445
20
-10.487771500440248
30
0
10
-3.0748826725787684
20
-10.521165244445843
30
0
10
-3.0990865684073379
20
-10.554406089615551
30
0
10
-3.1236664381112691
20
-10.587487930916302
30
0
10
-3.148639641952566
20
-10.620398286898403
30
0
10
-3.1740252851249928
20
-10.653124002100716
30
0
10
-3.1998313780315208
20
-10.68565768712849
30
0
10
-3.2260509272419444
20
-10.717999666678832
30
0
10
-3.2526686120783941
20
-10.750154601941613
30
0
10
-3.2796648083353208
20
-10.782129447427451
30
0
10
-3.3070202909096205
20
-10.813931067211886
30
0
10
-3.3347216077375395
20
-10.845563511136698
30
0
10
-3.3627621894039592
20
-10.877027445603529
30
0
10
-3.3911395182274253
20
-10.908321574899729
30
0
10
-3.4198533432938238
20
-10.939443534114723
30
0
10
-3.4489036383376681
20
-10.970390912450105
30
0
10
-3.4782882452705821
20
-11.0011624343033
30
0
10
-3.5080024824230427
20
-11.031758152418515
30
0
10
-3.5380403111382397
20
-11.062178857228693
30
0
10
-3.5683950727002687
20
-11.092425702479972
30
0
10
-3.5990603271740991
20
-11.122499779628512
30
0
10
-3.6300308237683465
20
-11.15240162638214
30
0
10
-3.6613026306345771
20
-11.182131157496027
30
0
10
-3.6928726290739222
20
-11.211687915042161
30
0
10
-3.7247381811252045
20
-11.241071231534532
30
0
10
-3.7568967558689295
20
-11.270280414410616
30
0
10
-3.789345493204539
20
-11.299314960927465
30
0
10
-3.8220811304778013
20
-11.328174595504938
30
0
10
-3.8551002175243285
20
-11.35685916551463
30
0
10
-3.8883992509705454
20
-11.38536857737499
30
0
10
-3.9219748263857204
20
-11.413702723027569
30
0
10
-3.9558238132508006
20
-11.441861398076629
30
0
10
-3.9899433853929627
20
-11.469844281194028
30
0
10
-4.0243309170548249
20
-11.4976509715825
30
0
10
-4.0589839120421374
20
-11.525281011770442
30
0
10
-4.0938999249742833
20
-11.552733916060658
30
0
10
-4.1290764658851895
20
-11.580009201663668
30
0
10
-4.1645109788788748
20
-11.607106405243215
30
0
10
-4.2002009079938194
20
-11.634025080188534
30
0
10
-4.2361437407789211
20
-11.660764801077539
30
0
10
-4.2723370538879104
20
-11.687325164641367
30
0
10
-4.3087785686439339
20
-11.713705798163417
30
0
10
-4.3454661568408364
20
-11.739906350228345
30
0
10
-4.3823977653984922
20
-11.765926454497517
30
0
10
-4.419571355360727
20
-11.791765699029009
30
0
10
-4.4569848400720726
20
-11.817423598513809
30
0
10
-4.4946360058965436
20
-11.842899557278537
30
0
10
-4.53252248955922
20
-11.868192866952455
30
0
10
-4.5706419125331212
20
-11.893302795487507
30
0
10
-4.6089919858998982
20
-11.918228661848158
30
0
10
-4.6475706225222604
20
-11.942969914339614
30
0
10
-4.686376051138966
20
-11.967526216919959
30
0
10
-4.7254069090235093
20
-11.99189750998711
30
0
10
-4.7646621964974205
20
-12.016083904109482
30
0
10
-4.7962454366825442
20
-12.03528525635955
30
0
10
-4.8200333929730848
20
-12.049603238217458
30
0
10
-4.8359366939658592
20
-12.059111668478268
30
0
10
-4.8438995103278257
20
-12.063856660862891
30
0
0
LINE
5
106
100
AcDbEntity
8
0
100
AcDbLine
10
-2.7640236910810345
20
-9.9602139456861565
30
0
11
-2.4148553261536581
21
-8.7061801919201383
31
0
0
ARC
5
107
100
AcDbEntity
8
0
100
AcDbCircle
10
-1.9331782442476237
20
-8.8402965174233668
30
0
40
0.50000000000000022
100
AcDbArc
50
77.664850417066816
51
164.4408736826409
0
ARC
5
108
100
AcDbEntity
8
0
100
AcDbCircle
10
2.6978419498391304e-13
20
3.0975222387041867e-13
30
0
40
8.5492000000003632
100
AcDbArc
50
257.66485041706551
51
265.9715132192951
0
ARC
5
109
100
AcDbEntity
8
0
100
AcDbCircle
10
-0.63572839899006184
20
-9.0268416427185407
30
0
40
0.5
100
AcDbArc
50
-0.80451004627714406
51
85.971513219297577
0
LINE
5
110
100
AcDbEntity
8
0
100
AcDbLine
10
-0.13577768805188545
20
-9.0338620866085044
30
0
11
-0.1540552311095611
21
-10.335470758241543
31
0
0
SPLINE
5
111
100
AcDbEntity
8
0
100
AcDbSpline
70
1064
71
5
72
81
73
75
74
0
42
0.000000001
43
0.0000000001
44
0.0000000001
40
0
40
0
40
0
40
0
40
0
40
0
40
0.014285714285714285
40
0.028571428571428571
40
0.042857142857142858
40
0.057142857142857141
40
0.071428571428571425
40
0.085714285714285715
40
0.10000000000000001
40
0.1142857142857143
40
0.12857142857142859
40
0.14285714285714288
40
0.15714285714285717
40
0.17142857142857146
40
0.18571428571428575
40
0.20000000000000004
40
0.21428571428571433
40
0.22857142857142862
40
0.24285714285714291
40
0.25714285714285717
40
0.27142857142857146
40
0.28571428571428575
40
0.30000000000000004
40
0.31428571428571433
40
0.32857142857142863
40
0.34285714285714292
40
0.35714285714285721
40
0.3714285714285715
40
0.38571428571428579
40
0.40000000000000008
40
0.41428571428571437
40
0.42857142857142866
40
0.44285714285714295
40
0.45714285714285724
40
0.47142857142857153
40
0.48571428571428582
40
0.50000000000000011
40
0.51428571428571435
40
0.52857142857142858
40
0.54285714285714282
40
0.55714285714285705
40
0.57142857142857129
40
0.58571428571428552
40
0.59999999999999976
40
0.61428571428571399
40
0.62857142857142823
40
0.64285714285714246
40
0.6571428571428567
40
0.67142857142857093
40
0.68571428571428517
40
0.6999999999999994
40
0.71428571428571364
40
0.72857142857142787
40
0.74285714285714211
40
0.75714285714285634
40
0.77142857142857058
40
0.78571428571428481
40
0.79999999999999905
40
0.81428571428571328
40
0.82857142857142752
40
0.84285714285714175
40
0.85714285714285599
40
0.87142857142857022
40
0.88571428571428445
40
0.89999999999999869
40
0.91428571428571292
40
0.92857142857142716
40
0.94285714285714139
40
0.95714285714285563
40
0.97142857142856986
40
0.9857142857142841
40
1
40
1
40
1
40
1
40
1
40
1
10
-0.1540552311095611
20
-10.335470758241543
30
0
10
-0.15416699034902587
20
-10.343429530094191
30
0
10
-0.15413221940406563
20
-10.359321157178965
30
0
10
-0.15330520641503032
20
-10.383080849776007
30
0
10
-0.15072927422260046
20
-10.414615958805754
30
0
10
-0.14549687651129545
20
-10.453857025657648
30
0
10
-0.13881358596263299
20
-10.492998664901918
30
0
10
-0.13123197059659031
20
-10.53211549076047
30
0
10
-0.12315590297615614
20
-10.571257266990571
30
0
10
-0.11473467427229433
20
-10.610433134663353
30
0
10
-0.10595105400635046
20
-10.64962622869106
30
0
10
-0.096688269226689605
20
-10.688805021685031
30
0
10
-0.086801169597696959
20
-10.727935249104078
30
0
10
-0.0761945192441843
20
-10.766993133920579
30
0
10
-0.064869493891301366
20
-10.805973075327977
30
0
10
-0.052883360875211338
20
-10.844880313420919
30
0
10
-0.040324809595716771
20
-10.883726289778181
30
0
10
-0.027285158793146358
20
-10.922523323344617
30
0
10
-0.013826466240613178
20
-10.961278683615866
30
0
10
3.1973439765242695e-05
20
-10.999992066450517
30
0
10
0.014295953978363252
20
-11.038658810271336
30
0
10
0.028985648855331669
20
-11.077271830166042
30
0
10
0.044123095691548098
20
-11.115823886117202
30
0
10
0.059718062245456283
20
-11.154310144843782
30
0
10
0.075763746892167083
20
-11.192728947613402
30
0
10
0.092244136339970917
20
-11.231080450471243
30
0
10
0.10913844198947531
20
-11.269365797443768
30
0
10
0.12642628365578223
20
-11.307586158225782
30
0
10
0.14409361320595948
20
-11.3457416287277
30
0
10
0.16213393958532135
20
-11.383830997539091
30
0
10
0.18054521214063979
20
-11.421852312119945
30
0
10
0.19932785639388995
20
-11.459803232664502
30
0
10
0.21848252634392051
20
-11.497681438628788
30
0
10
0.23800751069887299
20
-11.535485098077347
30
0
10
0.25789830256997409
20
-11.573212942639142
30
0
10
0.27814888521775161
20
-11.610864029442801
30
0
10
0.29875254460323269
20
-11.648437589522594
30
0
10
0.31970279415526853
20
-11.685932855783662
30
0
10
0.34099444428662057
20
-11.723348864834012
30
0
10
0.36262374643258571
20
-11.760684427152118
30
0
10
0.38458783723674339
20
-11.797938224720257
30
0
10
0.40688437364641977
20
-11.835108873890746
30
0
10
0.42951112237955225
20
-11.872194997112297
30
0
10
0.45246548082880911
20
-11.909195306223134
30
0
10
0.47574439614027547
20
-11.946108617610133
30
0
10
0.49934460090585675
20
-11.982933812803772
30
0
10
0.52326276002819117
20
-12.019669814998819
30
0
10
0.54749563742349616
20
-12.05631556137498
30
0
10
0.57204028696567222
20
-12.092869973846836
30
0
10
0.59689408749034989
20
-12.129331947877404
30
0
10
0.6220546325194104
20
-12.165700359143178
30
0
10
0.64751965585665583
20
-12.201974065444185
30
0
10
0.67328694801327726
20
-12.23815191181404
30
0
10
0.69935425590183742
20
-12.274232733515124
30
0
10
0.72571925769501133
20
-12.310215365900444
30
0
10
0.75237962679047199
20
-12.346098660352531
30
0
10
0.77933307236429372
20
-12.381881500842615
30
0
10
0.80657738284672265
20
-12.417562817701512
30
0
10
0.83411047686973283
20
-12.453141611332805
30
0
10
0.86193041143961213
20
-12.488616944970989
30
0
10
0.89003531984993023
20
-12.523987888697185
30
0
10
0.91842336179401352
20
-12.559253472815694
30
0
10
0.94709267186794843
20
-12.594412643797146
30
0
10
0.97604129392414984
20
-12.629464206443782
30
0
10
1.0052671599880334
20
-12.66440681526738
30
0
10
1.0347681941214439
20
-12.699239097764481
30
0
10
1.0645423919931947
20
-12.733959755623456
30
0
10
1.0945879064401001
20
-12.768567671482508
30
0
10
1.1249031326233963
20
-12.803062023889812
30
0
10
1.1554867798084214
20
-12.837442371733168
30
0
10
1.1863378576599846
20
-12.871708539460228
30
0
10
1.2112321086373656
20
-12.899030129038756
30
0
10
1.2300226439171509
20
-12.919469973775524
30
0
10
1.2426029151080682
20
-12.933073723451788
30
0
10
1.2489063626208448
20
-12.939869894918004
30
0
0
ARC
5
112
100
AcDbEntity
8
0
100
AcDbCircle
10
2.6978419498391304e-13
20
3.0975222387041867e-13
30
0
40
13.000000000000288
100
AcDbArc
50
275.51289189373119
51
280.85074446990245
0
SPLINE
5
113
100
AcDbEntity
8
0
100
AcDbSpline
70
1064
71
5
72
81
73
75
74
0
42
0.000000001
43
0.0000000001
44
0.0000000001
40
0
40
0
40
0
40
0
40
0
40
0
40
0.014285714285714285
40
0.028571428571428571
40
0.042857142857142858
40
0.057142857142857141
40
0.071428571428571425
40
0.085714285714285715
40
0.10000000000000001
40
0.1142857142857143
40
0.12857142857142859
40
0.14285714285714288
40
0.15714285714285717
40
0.17142857142857146
40
0.18571428571428575
40
0.20000000000000004
40
0.21428571428571433
40
0.22857142857142862
40
0.24285714285714291
40
0.25714285714285717
40
0.27142857142857146
40
0.28571428571428575
40
0.30000000000000004
40
0.31428571428571433
40
0.32857142857142863
40
0.34285714285714292
40
0.35714285714285721
40
0.3714285714285715
40
0.38571428571428579
40
0.40000000000000008
40
0.41428571428571437
40
0.42857142857142866
40
0.44285714285714295
40
0.45714285714285724
40
0.47142857142857153
40
0.48571428571428582
40
0.50000000000000011
40
0.51428571428571435
40
0.52857142857142858
40
0.54285714285714282
40
0.55714285714285705
40
0.57142857142857129
40
0.58571428571428552
40
0.59999999999999976
40
0.61428571428571399
40
0.62857142857142823
40
0.64285714285714246
40
0.6571428571428567
40
0.67142857142857093
40
0.68571428571428517
40
0.6999999999999994
40
0.71428571428571364
40
0.72857142857142787
40
0.74285714285714211
40
0.75714285714285634
40
0.77142857142857058
40
0.78571428571428481
40
0.79999999999999905
40
0.81428571428571328
40
0.82857142857142752
40
0.84285714285714175
40
0.85714285714285599
40
0.87142857142857022
40
0.88571428571428445
40
0.89999999999999869
40
0.91428571428571292
40
0.92857142857142716
40
0.94285714285714139
40
0.95714285714285563
40
0.97142857142856986
40
0.9857142857142841
40
1
40
1
40
1
40
1
40
1
40
1
10
3.0596535146774002
20
-9.8734091973755671
30
0
10
3.0620029920257674
20
-9.8810140968305014
30
0
10
3.0664468182793558
20
-9.8962717974648697
30
0
10
3.0723471840724197
20
-9.9193020520509165
30
0
10
3.0787600621304998
20
-9.9502854915499483
30
0
10
3.0847950993887152
20
-9.9894111562570931
30
0
10
3.0894100031699026
20
-10.028850184622112
30
0
10
3.0931559798621877
20
-10.068518492065559
30
0
10
3.0964345624225675
20
-10.108350042513061
30
0
10
3.0993915700179455
20
-10.148311546574833
30
0
10
3.102005718680827
20
-10.188391676704477
30
0
10
3.1041560832927919
20
-10.228593081336335
30
0
10
3.1056937396899009
20
-10.268923777459072
30
0
10
3.1065206109562911
20
-10.309387782228365
30
0
10
3.1066362472624292
20
-10.349979390469633
30
0
10
3.106097072520245
20
-10.390687495943819
30
0
10
3.1049914070509255
20
-10.431498090074005
30
0
10
3.1034103411920078
20
-10.47239726533901
30
0
10
3.1014154669943439
20
-10.513374513073742
30
0
10
3.0990252118257473
20
-10.554424105533421
30
0
10
3.0962327033245609
20
-10.595543202249925
30
0
10
3.0930165891278727
20
-10.636730688825843
30
0
10
3.0893536845446743
20
-10.677985827230591
30
0
10
3.085233255786747
20
-10.719306731860545
30
0
10
3.0806613616464649
20
-10.760689894934465
30
0
10
3.0756534107277176
20
-10.802130954710989
30
0
10
3.0702296718550541
20
-10.843625152050221
30
0
10
3.064410029213791
20
-10.885167867504489
30
0
10
3.0582079889098566
20
-10.926755235282767
30
0
10
3.0516294377708562
20
-10.968384264303818
30
0
10
3.0446757932900632
20
-11.010052503383449
30
0
10
3.0373459879826736
20
-11.051757827377866
30
0
10
3.0296387405685992
20
-11.093498193994197
30
0
10
3.0215551769044935
20
-11.135271363376614
30
0
10
3.0130992639770549
20
-11.177074848794724
30
0
10
3.0042765091679668
20
-11.218906050458672
30
0
10
2.9950931379077659
20
-11.260762338987876
30
0
10
2.9855551579002979
20
-11.302641150881936
30
0
10
2.9756672770991646
20
-11.344540099697319
30
0
10
2.9654327570989181
20
-11.386456988003768
30
0
10
2.954853973941423
20
-11.428389744471804
30
0
10
2.9439327859506568
20
-11.470336381386987
30
0
10
2.9326709478440192
20
-11.512294947810259
30
0
10
2.9210705938878476
20
-11.554263474520237
30
0
10
2.9091343198116713
20
-11.5962399657601
30
0
10
2.896864945561322
20
-11.638222427830968
30
0
10
2.884265367768192
20
-11.68020888794028
30
0
10
2.8713383920008533
20
-11.722197414609267
30
0
10
2.8580865413148375
20
-11.764186143402913
30
0
10
2.8445120195149109
20
-11.806173276058402
30
0
10
2.8306168188413832
20
-11.848157055811999
30
0
10
2.8164027918986645
20
-11.890135748269596
30
0
10
2.8018717332841101
20
-11.932107622764143
30
0
10
2.7870254766747768
20
-11.974070926969986
30
0
10
2.7718659217286934
20
-12.016023889282172
30
0
10
2.7563949772015111
20
-12.057964752130692
30
0
10
2.7406145267010489
20
-12.099891799294099
30
0
10
2.7245263908523132
20
-12.141803381361118
30
0
10
2.7081322850944458
20
-12.183697952836884
30
0
10
2.6914338097989186
20
-12.225574067496881
30
0
10
2.6744324940690154
20
-12.267430307178515
30
0
10
2.6571298304712081
20
-12.309265222991261
30
0
10
2.6395273120339215
20
-12.351077278536085
30
0
10
2.621626478940899
20
-12.392864775918671
30
0
10
2.6034289363313867
20
-12.434625841536757
30
0
10
2.5849362893745487
20
-12.476358573623553
30
0
10
2.5661500954354217
20
-12.518061161772824
30
0
10
2.5470718120569069
20
-12.559732013477767
30
0
10
2.5277027476407987
20
-12.601369888425804
30
0
10
2.5080440163622693
20
-12.6429739997309
30
0
10
2.4880965189821618
20
-12.684543899942142
30
0
10
2.4719080413748999
20
-12.717772294149231
30
0
10
2.4596372245226221
20
-12.742678087104725
30
0
10
2.4513991618876974
20
-12.759275061302287
30
0
10
2.4472657510535494
20
-12.767571826456287
30
0
0
LINE
5
114
100
AcDbEntity
8
0
100
AcDbLine
10
3.0596535146774002
20
-9.8734091973755671
30
0
11
2.6754108014724705
21
-8.6296742014863863
31
0
0
ARC
5
115
100
AcDbEntity
8
0
100
AcDbCircle
10
3.1531321081639412
20
-8.4820857428150092
30
0
40
0.50000000000000067
100
AcDbArc
50
110.39212314433958
51
197.16814640991362
0
ARC
5
116
100
AcDbEntity
8
0
100
AcDbCircle
10
2.6978419498391304e-13
20
3.0975222387041867e-13
30
0
40
8.549200000000198
100
AcDbArc
50
290.39212314433712
51
298.69878594656694
0
ARC
5
117
100
AcDbEntity
8
0
100
AcDbCircle
10
4.3454702831900835
20
-7.9375631435543195
30
0
40
0.50000000000000022
100
AcDbArc
50
31.922762680995461
51
118.69878594656956
0
LINE
5
118
100
AcDbEntity
8
0
100
AcDbLine
10
4.7698511235318559
20
-7.6731753557296711
30
0
11
5.4581778521020921
21
-8.7780398349244475
31
0
0
SPLINE
5
119
100
AcDbEntity
8
0
100
AcDbSpline
70
1064
71
5
72
81
73
75
74
0
42
0.000000001
43
0.0000000001
44
0.0000000001
40
0
40
0
40
0
40
0
40
0
40
0
40
0.014285714285714285
40
0.028571428571428571
40
0.042857142857142858
40
0.057142857142857141
40
0.071428571428571425
40
0.085714285714285715
40
0.10000000000000001
40
0.1142857142857143
40
0.12857142857142859
40
0.14285714285714288
40
0.15714285714285717
40
0.17142857142857146
40
0.18571428571428575
40
0.20000000000000004
40
0.21428571428571433
40
0.22857142857142862
40
0.24285714285714291
40
0.25714285714285717
40
0.27142857142857146
40
0.28571428571428575
40
0.30000000000000004
40
0.31428571428571433
40
0.32857142857142863
40
0.34285714285714292
40
0.35714285714285721
40
0.3714285714285715
40
0.38571428571428579
40
0.40000000000000008
40
0.41428571428571437
40
0.42857142857142866
40
0.44285714285714295
40
0.45714285714285724
40
0.47142857142857153
40
0.48571428571428582
40
0.50000000000000011
40
0.51428571428571435
40
0.52857142857142858
40
0.54285714285714282
40
0.55714285714285705
40
0.57142857142857129
40
0.58571428571428552
40
0.59999999999999976
40
0.61428571428571399
40
0.62857142857142823
40
0.64285714285714246
40
0.6571428571428567
40
0.67142857142857093
40
0.68571428571428517
40
0.6999999999999994
40
0.71428571428571364
40
0.72857142857142787
40
0.74285714285714211
40
0.75714285714285634
40
0.77142857142857058
40
0.78571428571428481
40
0.79999999999999905
40
0.81428571428571328
40
0.82857142857142752
40
0.84285714285714175
40
0.85714285714285599
40
0.87142857142857022
40
0.88571428571428445
40
0.89999999999999869
40
0.91428571428571292
40
0.92857142857142716
40
0.94285714285714139
40
0.95714285714285563
40
0.97142857142856986
40
0.9857142857142841
40
1
40
1
40
1
40
1
40
1
40
1
10
5.4581778521020921
20
-8.7780398349244475
30
0
10
5.4623866711674243
20
-8.7847956014690656
30
0
10
5.4710075846055233
20
-8.7981456903044606
30
0
10
5.4845487718324044
20
-8.8176864986622689
30
0
10
5.5037649510140163
20
-8.8428228664555348
30
0
10
5.5293820465344643
20
-8.8730057048008604
30
0
10
5.5561659561570398
20
-8.9023204874303836
30
0
10
5.5836921695767261
20
-8.9311287246479019
30
0
10
5.6116478318915046
20
-8.9596906303826245
30
0
10
5.6399122934125545
20
-8.9880946074936414
30
0
10
5.6684909313860814
20
-9.016317152666236
30
0
10
5.697464936477008
20
-9.0442686111492847
30
0
10
5.7269378921084098
20
-9.0718416835803612
30
0
10
5.7569770609650872
20
-9.0989648790495696
30
0
10
5.7875784259394703
20
-9.125634121503607
30
0
10
5.818696643691748
20
-9.1518847802500485
30
0
10
5.8502632897355147
20
-9.1777744296670676
30
0
10
5.8822082019822721
20
-9.2033628037489628
30
0
10
5.914483104297215
20
-9.2286895689498127
30
0
10
5.9470716005800561
20
-9.2537649008698466
30
0
10
5.9799760445880201
20
-9.2785817456136321
30
0
10
6.0132095769397864
20
-9.3031232363668774
30
0
10
6.0467868226128276
20
-9.3273713680019732
30
0
10
6.0807133856994326
20
-9.3513167936552666
30
0
10
6.1149826475302049
20
-9.3749617951483213
30
0
10
6.1495812212313172
20
-9.3983151611938158
30
0
10
6.1844922368274924
20
-9.4213890933734312
30
0
10
6.2196991818009328
20
-9.4441955940568647
30
0
10
6.2551902899632719
20
-9.466742338923174
30
0
10
6.2909594457538951
20
-9.4890318181981606
30
0
10
6.3270038684307037
20
-9.511063497967486
30
0
10
6.3633226509710639
20
-9.5328351798067352
30
0
10
6.3999150889730272
20
-9.5543445579716231
30
0
10
6.436778752387184
20
-9.5755910165341991
30
0
10
6.4739091640442856
20
-9.5965759250808844
30
0
10
6.5113007525862407
20
-9.6173017433127512
30
0
10
6.5489474540697827
20
-9.6377714542181767
30
0
10
6.5868433969212266
20
-9.6579879193810356
30
0
10
6.624983694532939
20
-9.6779531340470921
30
0
10
6.6633645503077314
20
-9.6976681241542479
30
0
10
6.7019828428627175
20
-9.7171333289627935
30
0
10
6.7408358530401458
20
-9.7363488512241432
30
0
10
6.7799209573231343
20
-9.7553147394718405
30
0
10
6.8192352698262386
20
-9.7740313171110031
30
0
10
6.8587755824157455
20
-9.7924992389203407
30
0
10
6.8985385416827825
20
-9.810719330477605
30
0
10
6.9385207598000456
20
-9.8286924890063503
30
0
10
6.9787189397965887
20
-9.8464195699642314
30
0
10
7.0191300203764406
20
-9.8639012592041055
30
0
10
7.059751199318038
20
-9.8811380446387798
30
0
10
7.1005798443079833
20
-9.8981302814674308
30
0
10
7.1416134313807902
20
-9.9148782340084587
30
0
10
7.1828494773742211
20
-9.9313821251821484
30
0
10
7.2242854571658155
20
-9.9476421932599006
30
0
10
7.2659187878544262
20
-9.9636587137529364
30
0
10
7.3077468911881427
20
-9.9794319782389387
30
0
10
7.3497672366325357
20
-9.9949622863676808
30
0
10
7.3919773853899162
20
-10.010249933941061
30
0
10
7.4343750460794524
20
-10.02529520531758
30
0
10
7.4769580776971516
20
-10.040098362901642
30
0
10
7.5197244071175371
20
-10.05465963361341
30
0
10
7.5626719619190368
20
-10.068979196637848
30
0
10
7.6057986032430396
20
-10.083057174203148
30
0
10
7.6491020393007867
20
-10.096893618418207
30
0
10
7.6925798029755015
20
-10.110488515417771
30
0
10
7.7362294058454832
20
-10.123841832915359
30
0
10
7.7800484598397803
20
-10.136953562324976
30
0
10
7.8240348069344421
20
-10.149823762313879
30
0
10
7.8681866529428026
20
-10.162452609474158
30
0
10
7.9125026735465065
20
-10.174840430542462
30
0
10
7.9569819407118114
20
-10.18698761325038
30
0
10
7.9926954838176423
20
-10.196513148807524
30
0
10
8.0195537023727024
20
-10.203549310048761
30
0
10
8.0374916423014735
20
-10.208192104423199
30
0
10
8.0464687274876727
20
-10.210501506662782
30
0
0
ARC
5
120
100
AcDbEntity
8
0
100
AcDbCircle
10
2.6978419498391304e-13
20
3.0975222387041867e-13
30
0
40
13.000000000000076
100
AcDbArc
50
308.24016462100343
51
313.57801719717486
0
SPLINE
5
121
100
AcDbEntity
8
0
100
AcDbSpline
70
1064
71
5
72
81
73
75
74
0
42
0.000000001
43
0.0000000001
44
0.0000000001
40
0
40
0
40
0
40
0
40
0
40
0
40
0.014285714285714285
40
0.028571428571428571
40
0.042857142857142858
40
0.057142857142857141
40
0.071428571428571425
40
0.085714285714285715
40
0.10000000000000001
40
0.1142857142857143
40
0.12857142857142859
40
0.14285714285714288
40
0.15714285714285717
40
0.17142857142857146
40
0.18571428571428575
40
0.20000000000000004
40
0.21428571428571433
40
0.22857142857142862
40
0.24285714285714291
40
0.25714285714285717
40
0.27142857142857146
40
0.28571428571428575
40
0.30000000000000004
40
0.31428571428571433
40
0.32857142857142863
40
0.34285714285714292
40
0.35714285714285721
40
0.3714285714285715
40
0.38571428571428579
40
0.40000000000000008
40
0.41428571428571437
40
0.42857142857142866
40
0.44285714285714295
40
0.45714285714285724
40
0.47142857142857153
40
0.48571428571428582
40
0.50000000000000011
40
0.51428571428571435
40
0.52857142857142858
40
0.54285714285714282
40
0.55714285714285705
40
0.57142857142857129
40
0.58571428571428552
40
0.59999999999999976
40
0.61428571428571399
40
0.62857142857142823
40
0.64285714285714246
40
0.6571428571428567
40
0.67142857142857093
40
0.68571428571428517
40
0.6999999999999994
40
0.71428571428571364
40
0.72857142857142787
40
0.74285714285714211
40
0.75714285714285634
40
0.77142857142857058
40
0.78571428571428481
40
0.79999999999999905
40
0.81428571428571328
40
0.82857142857142752
40
0.84285714285714175
40
0.85714285714285599
40
0.87142857142857022
40
0.88571428571428445
40
0.89999999999999869
40
0.91428571428571292
40
0.92857142857142716
40
0.94285714285714139
40
0.95714285714285563
40
0.97142857142856986
40
0.9857142857142841
40
1
40
1
40
1
40
1
40
1
40
1
10
7.9119123480044475
20
-6.6518667910739904
30
0
10
7.918000373182049
20
-6.6569942162530618
30
0
10
7.9299876934606273
20
-6.6674272969562356
30
0
10
7.947402492694648
20
-6.683611601403098
30
0
10
7.9695482610749675
20
-6.7062094657053573
30
0
10
7.9957781888399735
20
-6.7358612818879537
30
0
10
8.0209828414844928
20
-6.7665444984787175
30
0
10
8.0455804637740851
20
-6.7978903743558625
30
0
10
8.0698731449301437
20
-6.8296262713324278
30
0
10
8.0939655582390753
20
-6.8616453487980529
30
0
10
8.1178336743540882
20
-6.8939495843959007
30
0
10
8.1413771964438109
20
-6.9266065831855874
30
0
10
8.1644751758405079
20
-6.9597036039688787
30
0
10
8.1870472768305547
20
-6.9932970505761549
30
0
10
8.2090900365430119
20
-7.027382366705341
30
0
10
8.2306449173069716
20
-7.0619197041237314
30
0
10
8.2517786452961666
20
-7.0968495284958539
30
0
10
8.2725603316052467
20
-7.1321108929158408
30
0
10
8.293036109351295
20
-7.1676616577553265
30
0
10
8.3132183839699643
20
-7.2034870419415897
30
0
10
8.3330998383897263
20
-7.2395883714000071
30
0
10
8.3526619073711199
20
-7.2759762525987632
30
0
10
8.3718846877014688
20
-7.3126625992573207
30
0
10
8.3907581301092229
20
-7.349651628229001
30
0
10
8.4092854351251649
20
-7.3869371129499886
30
0
10
8.4274772071563309
20
-7.4245070535697479
30
0
10
8.4453479244376943
20
-7.4623464882911517
30
0
10
8.4629118171484379
20
-7.5004407807853282
30
0
10
8.4801781573434667
20
-7.5387793769897646
30
0
10
8.4971502802366956
20
-7.5773565779875192
30
0
10
8.5138280530891226
20
-7.6161695553565032
30
0
10
8.5302094289359083
20
-7.6552170984378538
30
0
10
8.5462922257487648
20
-7.6944981818577896
30
0
10
8.5620761797010907
20
-7.7340103126456183
30
0
10
8.5775632836065103
20
-7.7737492541156836
30
0
10
8.5927567650168086
20
-7.8137098416702511
30
0
10
8.6076604395469491
20
-7.8538864976117564
30
0
10
8.6222779752660692
20
-7.8942738173765203
30
0
10
8.6366120425479806
20
-7.9348672480486044
30
0
10
8.6506641972001361
20
-7.9756631776808913
30
0
10
8.6644353182308826
20
-8.0166585791749316
30
0
10
8.677925894322275
20
-8.0578507756731312
30
0
10
8.6911363468792366
20
-8.0992371772692646
30
0
10
8.704067406719405
20
-8.14081497347739
30
0
10
8.7167201785218182
20
-8.1825810820027005
30
0
10
8.7290959567008759
20
-8.2245323010611475
30
0
10
8.7411961114857881
20
-8.2666654049968553
30
0
10
8.7530219588347702
20
-8.3089772521415988
30
0
10
8.7645746132875253
20
-8.3514649099660314
30
0
10
8.7758549565883257
20
-8.3941256742083947
30
0
10
8.7868637149381801
20
-8.4369569898985581
30
0
10
8.7976015091628543
20
-8.4799563963777942
30
0
10
8.8080689133044583
20
-8.5231214674837457
30
0
10
8.8182665225715233
20
-8.5664497377056072
30
0
10
8.8281949772561283
20
-8.6099386896417798
30
0
10
8.8378549328916165
20
-8.6535858127790721
30
0
10
8.8472470462103558
20
-8.6973886449848514
30
0
10
8.8563719570805119
20
-8.7413448143818755
30
0
10
8.8652302730637054
20
-8.7854520933806981
30
0
10
8.8738225585900956
20
-8.8297084001137005
30
0
10
8.8821493333066339
20
-8.8741117148509403
30
0
10
8.8902110695107783
20
-8.9186600117657875
30
0
10
8.8980081925779348
20
-8.9633511911650139
30
0
10
8.9055410802421555
20
-9.0081829920028369
30
0
10
8.9128100698866337
20
-9.0531529703009355
30
0
10
8.9198154836928563
20
-9.0982586583713125
30
0
10
8.9265576530201489
20
-9.1434976912282178
30
0
10
8.9330369430574521
20
-9.1888679411624974
30
0
10
8.9392537839387867
20
-9.2343676573813909
30
0
10
8.9452086875452448
20
-9.2799955755456693
30
0
10
8.9509021697348423
20
-9.325750832247591
30
0
10
8.9552481819634338
20
-9.3624564880315635
30
0
10
8.9583904021985674
20
-9.3900426787971973
30
0
10
8.9604331046007104
20
-9.4084587748924005
30
0
10
8.9614414280289392
20
-9.4176731485015281
30
0
0
LINE
5
122
100
AcDbEntity
8
0
100
AcDbLine
10
7.9119123480044475
20
-6.6518667910739904
30
0
11
6.9162529031804993
21
-5.8133076264449102
31
0
0
ARC
5
123
100
AcDbEntity
8
0
100
AcDbCircle
10
7.2383452952003235
20
-5.4308726764168727
30
0
40
0.49999999999999989
100
AcDbArc
50
143.1193958716122
51
229.8954191371862
0
ARC
5
124
100
AcDbEntity
8
0
100
AcDbCircle
10
2.6978419498391304e-13
20
3.0975222387041867e-13
30
0
40
8.5491999999999706
100
AcDbArc
50
323.11939587160953
51
331.42605867383963
0
ARC
5
125
100
AcDbEntity
8
0
100
AcDbCircle
10
7.9470128540832015
20
-4.3281644304527518
30
0
40
0.50000000000000022
100
AcDbArc
50
64.650035408268366
51
151.4260586738427
0
LINE
5
126
100
AcDbEntity
8
0
100
AcDbLine
10
8.1610859055517864
20
-3.8763096654729763
30
0
11
9.337478032913145
21
-4.4336432866845152
31
0
0
SPLINE
5
127
100
AcDbEntity
8
0
100
AcDbSpline
70
1064
71
5
72
81
73
75
74
0
42
0.000000001
43
0.0000000001
44
0.0000000001
40
0
40
0
40
0
40
0
40
0
40
0
40
0.014285714285714285
40
0.028571428571428571
40
0.042857142857142858
40
0.057142857142857141
40
0.071428571428571425
40
0.085714285714285715
40
0.10000000000000001
40
0.1142857142857143
40
0.12857142857142859
40
0.14285714285714288
40
0.15714285714285717
40
0.17142857142857146
40
0.18571428571428575
40
0.20000000000000004
40
0.21428571428571433
40
0.22857142857142862
40
0.24285714285714291
40
0.25714285714285717
40
0.27142857142857146
40
0.28571428571428575
40
0.30000000000000004
40
0.31428571428571433
40
0.32857142857142863
40
0.34285714285714292
40
0.35714285714285721
40
0.3714285714285715
40
0.38571428571428579
40
0.40000000000000008
40
0.41428571428571437
40
0.42857142857142866
40
0.44285714285714295
40
0.45714285714285724
40
0.47142857142857153
40
0.48571428571428582
40
0.50000000000000011
40
0.51428571428571435
40
0.52857142857142858
40
0.54285714285714282
40
0.55714285714285705
40
0.57142857142857129
40
0.58571428571428552
40
0.59999999999999976
40
0.61428571428571399
40
0.62857142857142823
40
0.64285714285714246
40
0.6571428571428567
40
0.67142857142857093
40
0.68571428571428517
40
0.6999999999999994
40
0.71428571428571364
40
0.72857142857142787
40
0.74285714285714211
40
0.75714285714285634
40
0.77142857142857058
40
0.78571428571428481
40
0.79999999999999905
40
0.81428571428571328
40
0.82857142857142752
40
0.84285714285714175
40
0.85714285714285599
40
0.87142857142857022
40
0.88571428571428445
40
0.89999999999999869
40
0.91428571428571292
40
0.92857142857142716
40
0.94285714285714139
40
0.95714285714285563
40
0.97142857142856986
40
0.9857142857142841
40
1
40
1
40
1
40
1
40
1
40
1
10
9.337478032913145
20
-4.4336432866845152
30
0
10
9.3446711599681258
20
-4.4370511397771555
30
0
10
9.3591411367952322
20
-4.4436211314851537
30
0
10
9.3810972669928834
20
-4.4527389870188747
30
0
10
9.4108526920485449
20
-4.4634959944063857
30
0
10
9.4487212385521442
20
-4.4750377663322496
30
0
10
9.487102065189525
20
-4.4852184559905091
30
0
10
9.5258334983930339
20
-4.4945716927997079
30
0
10
9.5647930301424875
20
-4.5034855247770587
30
0
10
9.6039269576549327
20
-4.5120995492864768
30
0
10
9.6432270977064523
20
-4.5203910869226345
30
0
10
9.6827132812128163
20
-4.52824082032196
30
0
10
9.7224146376796092
20
-4.5355024820902212
30
0
10
9.7623491011740811
20
-4.5420795652940011
30
0
10
9.8025110886095117
20
-4.5479708127513856
30
0
10
9.8428815768324487
20
-4.5532304934776215
30
0
10
9.883434130560854
20
-4.5579440351920155
30
0
10
9.9241420203254176
20
-4.5621996218171823
30
0
10
9.9649860789613385
20
-4.5660567229467333
30
0
10
10.005958014536152
20
-4.5695327632413729
30
0
10
10.047055993532645
20
-4.5726205360494161
30
0
10
10.088281951654441
20
-4.5752987477489313
30
0
10
10.129638457908596
20
-4.5775443446029316
30
0
10
10.171125173461542
20
-4.5793464337283094
30
0
10
10.21273776398014
20
-4.5807105130383512
30
0
10
10.254469719246298
20
-4.5816512135590575
30
0
10
10.296313444006806
20
-4.5821879205113438
30
0
10
10.338261536018701
20
-4.582339658272244
30
0
10
10.380308246719842
20
-4.5821192453155781
30
0
10
10.422449777690986
20
-4.5815320828742898
30
0
10
10.464683500967118
20
-4.5805792251737341
30
0
10
10.507007464954278
20
-4.5792593131550676
30
0
10
10.549419830492361
20
-4.5775707879312062
30
0
10
10.591918220297927
20
-4.5755144451344858
30
0
10
10.634499608390851
20
-4.5730938574747668
30
0
10
10.677160637661254
20
-4.5703141062878547
30
0
10
10.719897819520714
20
-4.5671809794385085
30
0
10
10.76270776157617
20
-4.5637000586566661
30
0
10
10.805587431662989
20
-4.5598756643494234
30
0
10
10.848534190544276
20
-4.5557107121860714
30
0
10
10.891545649827702
20
-4.5512072592428758
30
0
10
10.934619577563801
20
-4.5463668620474955
30
0
10
10.977753792948947
20
-4.5411909798092607
30
0
10
11.02094604306782
20
-4.5356814448213321
30
0
10
11.0641939830667
20
-4.5298405423666468
30
0
10
11.107495238219551
20
-4.5236707799551192
30
0
10
11.150847443580368
20
-4.5171747439769563
30
0
10
11.194248288056013
20
-4.5103549365660003
30
0
10
11.237695567120486
20
-4.5032135897599455
30
0
10
11.281187187180585
20
-4.4957526290125225
30
0
10
11.324721125828525
20
-4.4879737762723604
30
0
10
11.368295402670746
20
-4.4798786184570112
30
0
10
11.411908049258058
20
-4.4714686855978147
30
0
10
11.455557070141495
20
-4.4627455433256982
30
0
10
11.499240441398966
20
-4.4537108198372364
30
0
10
11.542956151705738
20
-4.4443661543314095
30
0
10
11.586702234243681
20
-4.4347131669998481
30
0
10
11.6304767972882
20
-4.4247534252005218
30
0
10
11.674278066942893
20
-4.4144884069650212
30
0
10
11.718104383947118
20
-4.4039194905561416
30
0
10
11.761954126959042
20
-4.3930479876875159
30
0
10
11.805825649421402
20
-4.3818751695348208
30
0
10
11.849717218093387
20
-4.3704022952772252
30
0
10
11.893626933171806
20
-4.3586306477860672
30
0
10
11.937552711689827
20
-4.346561549221188
30
0
10
11.981492442798519
20
-4.3341963177638112
30
0
10
12.025444112882813
20
-4.3215362372795703
30
0
10
12.069405938215354
20
-4.3085825238383348
30
0
10
12.113376504903158
20
-4.2953362960093706
30
0
10
12.157354875505908
20
-4.281798544641596
30
0
10
12.201340478935451
20
-4.2679700976485009
30
0
10
12.236534516573469
20
-4.2566752889490864
30
0
10
12.262933123783675
20
-4.2480738352158367
30
0
10
12.280533563266342
20
-4.2422816198789821
30
0
10
12.289334125008402
20
-4.2393710339983235
30
0
0
ARC
5
128
100
AcDbEntity
8
0
100
AcDbCircle
10
2.6978419498391304e-13
20
3.0975222387041867e-13
30
0
40
12.999999999999847
100
AcDbArc
50
340.96743734827629
51
346.30528992444755
0
SPLINE
5
129
100
AcDbEntity
8
0
100
AcDbSpline
70
1064
71
5
72
81
73
75
74
0
42
0.000000001
43
0.0000000001
44
0.0000000001
40
0
40
0
40
0
40
0
40
0
40
0
40
0.014285714285714285
40
0.028571428571428571
40
0.042857142857142858
40
0.057142857142857141
40
0.071428571428571425
40
0.085714285714285715
40
0.10000000000000001
40
0.1142857142857143
40
0.12857142857142859
40
0.14285714285714288
40
0.15714285714285717
40
0.17142857142857146
40
0.18571428571428575
40
0.20000000000000004
40
0.21428571428571433
40
0.22857142857142862
40
0.24285714285714291
40
0.25714285714285717
40
0.27142857142857146
40
0.28571428571428575
40
0.30000000000000004
40
0.31428571428571433
40
0.32857142857142863
40
0.34285714285714292
40
0.35714285714285721
40
0.3714285714285715
40
0.38571428571428579
40
0.40000000000000008
40
0.41428571428571437
40
0.42857142857142866
40
0.44285714285714295
40
0.45714285714285724
40
0.47142857142857153
40
0.48571428571428582
40
0.50000000000000011
40
0.51428571428571435
40
0.52857142857142858
40
0.54285714285714282
40
0.55714285714285705
40
0.57142857142857129
40
0.58571428571428552
40
0.59999999999999976
40
0.61428571428571399
40
0.62857142857142823
40
0.64285714285714246
40
0.6571428571428567
40
0.67142857142857093
40
0.68571428571428517
40
0.6999999999999994
40
0.71428571428571364
40
0.72857142857142787
40
0.74285714285714211
40
0.75714285714285634
40
0.77142857142857058
40
0.78571428571428481
40
0.79999999999999905
40
0.81428571428571328
40
0.82857142857142752
40
0.84285714285714175
40
0.85714285714285599
40
0.87142857142857022
40
0.88571428571428445
40
0.89999999999999869
40
0.91428571428571292
40
0.92857142857142716
40
0.94285714285714139
40
0.95714285714285563
40
0.97142857142856986
40
0.9857142857142841
40
1
40
1
40
1
40
1
40
1
40
1
10
10.252194913741373
20
-1.3184036784512445
30
0
10
10.260088581770251
20
-1.319425708088757
30
0
10
10.275813506583727
20
-1.3217217394541023
30
0
10
10.299213663548997
20
-1.3259216914527341
30
0
10
10.330061197265326
20
-1.3329593183111321
30
0
10
10.368158198803544
20
-1.3437230438409287
30
0
10
10.405950301184326
20
-1.3559087441871145
30
0
10
10.443589997792772
20
-1.3689800943863417
30
0
10
10.481184022921347
20
-1.3825444148370434
30
0
10
10.518762670947105
20
-1.3964552348471768
30
0
10
10.556306796291784
20
-1.4107272093617309
30
0
10
10.593768573946353
20
-1.4254714359368468
30
0
10
10.631093431086709
20
-1.4408267111343753
30
0
10
10.668244279222916
20
-1.4568839176417732
30
0
10
10.705215741879687
20
-1.4736410946231981
30
0
10
10.742021155806739
20
-1.4910423033846176
30
0
10
10.778684467941668
20
-1.5090013855628746
30
0
10
10.815230867851994
20
-1.5274297050793892
30
0
10
10.851676382782314
20
-1.5462668703767957
30
0
10
10.888023457597962
20
-1.5654937399405724
30
0
10
10.924266653636041
20
-1.5851153851176631
30
0
10
10.960396087112896
20
-1.6051507657631336
30
0
10
10.99640145542358
20
-1.6256206648247449
30
0
10
11.032276584385931
20
-1.6465340627916367
30
0
10
11.068020800123215
20
-1.6678839912074221
30
0
10
11.10363653602132
20
-1.6896546219801576
30
0
10
11.13912788298833
20
-1.7118255409203593
30
0
10
11.174498899215955
20
-1.7343767417489508
30
0
10
11.209751678896154
20
-1.7572943329722146
30
0
10
11.244885946722302
20
-1.7805717172033619
30
0
10
11.279900061866817
20
-1.8042065867864414
30
0
10
11.314791647781695
20
-1.8281990299231512
30
0
10
11.349558314469013
20
-1.8525493637077339
30
0
10
11.384198492181994
20
-1.8772556335552153
30
0
10
11.418711566856947
20
-1.9023131979424337
30
0
10
11.453097461490874
20
-1.9277159671870623
30
0
10
11.487356370452368
20
-1.9534571861541297
30
0
10
11.521488457589829
20
-1.9795303251274494
30
0
10
11.555493507872459
20
-2.0059301102373204
30
0
10
11.589370877362734
20
-2.0326526617874614
30
0
10
11.623119668956555
20
-2.0596949579928121
30
0
10
11.656738846540943
20
-2.0870544827359998
30
0
10
11.690227364415266
20
-2.1147288294205646
30
0
10
11.723584317919023
20
-2.14271523860543
30
0
10
11.756808969952973
20
-2.1710105200646219
30
0
10
11.789900678432657
20
-2.1996112804727401
30
0
10
11.822858852147011
20
-2.2285140654335418
30
0
10
11.855682899636458
20
-2.2577155205468138
30
0
10
11.888372173066388
20
-2.2872125762462194
30
0
10
11.920925952173004
20
-2.3170024808550616
30
0
10
11.953343466554333
20
-2.347082692381782
30
0
10
11.985623908149696
20
-2.377450805144786
30
0
10
12.017766448191642
20
-2.4081044677758214
30
0
10
12.049770254445679
20
-2.4390412843611879
30
0
10
12.081634504549715
20
-2.4702587909598641
30
0
10
12.113358392687594
20
-2.5017545211856729
30
0
10
12.144941140208338
20
-2.533526048704517
30
0
10
12.176382003069648
20
-2.5655710322274383
30
0
10
12.207680288059112
20
-2.597887269314334
30
0
10
12.238835344462977
20
-2.6304727034327335
30
0
10
12.269846517487634
20
-2.6633253545353339
30
0
10
12.300713109210422
20
-2.6964432630450408
30
0
10
12.331434342300039
20
-2.7298244326122023
30
0
10
12.362009312112949
20
-2.7634667569056202
30
0
10
12.392436981159527
20
-2.7973679975167691
30
0
10
12.422716286343221
20
-2.8315259043099452
30
0
10
12.45284622781341
20
-2.8659383085861516
30
0
10
12.482825962460161
20
-2.900603222966498
30
0
10
12.512654905585215
20
-2.935518942042382
30
0
10
12.542332804256951
20
-2.9706841254401479
30
0
10
12.571859625649278
20
-3.0060977679210845
30
0
10
12.595360299538598
20
-3.0346268989202994
30
0
10
12.612917924138356
20
-3.0561350668426952
30
0
10
12.624592847997935
20
-3.0705233044472289
30
0
10
12.630422770124547
20
-3.0777297879962391
30
0
0
LINE
5
130
100
AcDbEntity
8
0
100
AcDbLine
10
10.252194913741373
20
-1.3184036784512445
30
0
11
8.9612335760365447
21
-1.1512569548760725
31
0
0
ARC
5
131
100
AcDbEntity
8
0
100
AcDbCircle
10
9.0254349947145194
20
-0.65539590796904368
30
0
40
0.49999999999999989
100
AcDbArc
50
175.846668598885
51
262.62269186445889
0
ARC
5
132
100
AcDbEntity
8
0
100
AcDbCircle
10
2.6978419498391304e-13
20
3.0975222387041867e-13
30
0
40
8.5491999999997539
100
AcDbArc
50
-4.1533314011172182
51
4.1533314011129958
0
ARC
5
133
100
AcDbEntity
8
0
100
AcDbCircle
10
9.0254349947145194
20
0.65539590796904368
30
0
40
0.50000000000000022
100
AcDbArc
50
97.377308135541114
51
184.15333140111466
0
LINE
5
134
100
AcDbEntity
8
0
100
AcDbLine
10
8.9612335760365447
20
1.1512569548760736
30
0
11
10.25219491374137
21
1.3184036784512474
31
0
0
SPLINE
5
135
100
AcDbEntity
8
0
100
AcDbSpline
70
1064
71
5
72
81
73
75
74
0
42
0.000000001
43
0.0000000001
44
0.0000000001
40
0
40
0
40
0
40
0
40
0
40
0
40
0.014285714285714285
40
0.028571428571428571
40
0.042857142857142858
40
0.057142857142857141
40
0.071428571428571425
40
0.085714285714285715
40
0.10000000000000001
40
0.1142857142857143
40
0.12857142857142859
40
0.14285714285714288
40
0.15714285714285717
40
0.17142857142857146
40
0.18571428571428575
40
0.20000000000000004
40
0.21428571428571433
40
0.22857142857142862
40
0.24285714285714291
40
0.25714285714285717
40
0.27142857142857146
40
0.28571428571428575
40
0.30000000000000004
40
0.31428571428571433
40
0.32857142857142863
40
0.34285714285714292
40
0.35714285714285721
40
0.3714285714285715
40
0.38571428571428579
40
0.40000000000000008
40
0.41428571428571437
40
0.42857142857142866
40
0.44285714285714295
40
0.45714285714285724
40
0.47142857142857153
40
0.48571428571428582
40
0.50000000000000011
40
0.51428571428571435
40
0.52857142857142858
40
0.54285714285714282
40
0.55714285714285705
40
0.57142857142857129
40
0.58571428571428552
40
0.59999999999999976
40
0.61428571428571399
40
0.62857142857142823
40
0.64285714285714246
40
0.6571428571428567
40
0.67142857142857093
40
0.68571428571428517
40
0.6999999999999994
40
0.71428571428571364
40
0.72857142857142787
40
0.74285714285714211
40
0.75714285714285634
40
0.77142857142857058
40
0.78571428571428481
40
0.79999999999999905
40
0.81428571428571328
40
0.82857142857142752
40
0.84285714285714175
40
0.85714285714285599
40
0.87142857142857022
40
0.88571428571428445
40
0.89999999999999869
40
0.91428571428571292
40
0.92857142857142716
40
0.94285714285714139
40
0.95714285714285563
40
0.97142857142856986
40
0.9857142857142841
40
1
40
1
40
1
40
1
40
1
40
1
10
10.25219491374137
20
1.3184036784512474
30
0
10
10.260088581770251
20
1.3194257080887597
30
0
10
10.275813506583727
20
1.321721739454105
30
0
10
10.299213663548993
20
1.325921691452737
30
0
10
10.330061197265323
20
1.332959318311135
30
0
10
10.368158198803544
20
1.3437230438409316
30
0
10
10.405950301184326
20
1.3559087441871174
30
0
10
10.443589997792772
20
1.3689800943863446
30
0
10
10.481184022921346
20
1.382544414837046
30
0
10
10.518762670947105
20
1.3964552348471795
30
0
10
10.556306796291782
20
1.4107272093617338
30
0
10
10.593768573946353
20
1.4254714359368501
30
0
10
10.631093431086711
20
1.4408267111343787
30
0
10
10.668244279222918
20
1.4568839176417758
30
0
10
10.705215741879686
20
1.473641094623201
30
0
10
10.742021155806739
20
1.491042303384621
30
0
10
10.77868446794167
20
1.5090013855628772
30
0
10
10.815230867851993
20
1.5274297050793919
30
0
10
10.851676382782312
20
1.5462668703767983
30
0
10
10.88802345759796
20
1.5654937399405753
30
0
10
10.924266653636039
20
1.5851153851176658
30
0
10
10.960396087112896
20
1.6051507657631365
30
0
10
10.996401455423584
20
1.6256206648247482
30
0
10
11.032276584385929
20
1.6465340627916394
30
0
10
11.068020800123213
20
1.667883991207425
30
0
10
11.103636536021318
20
1.6896546219801609
30
0
10
11.13912788298833
20
1.7118255409203624
30
0
10
11.174498899215955
20
1.7343767417489542
30
0
10
11.209751678896154
20
1.7572943329722179
30
0
10
11.244885946722301
20
1.7805717172033648
30
0
10
11.279900061866815
20
1.804206586786445
30
0
10
11.314791647781695
20
1.8281990299231545
30
0
10
11.349558314469011
20
1.8525493637077366
30
0
10
11.384198492181994
20
1.8772556335552189
30
0
10
11.418711566856947
20
1.902313197942437
30
0
10
11.453097461490874
20
1.9277159671870656
30
0
10
11.487356370452368
20
1.953457186154133
30
0
10
11.521488457589825
20
1.9795303251274521
30
0
10
11.555493507872455
20
2.0059301102373235
30
0
10
11.589370877362732
20
2.0326526617874645
30
0
10
11.623119668956557
20
2.0596949579928152
30
0
10
11.656738846540943
20
2.0870544827360034
30
0
10
11.690227364415264
20
2.1147288294205682
30
0
10
11.723584317919023
20
2.1427152386054336
30
0
10
11.756808969952973
20
2.1710105200646255
30
0
10
11.789900678432657
20
2.1996112804727432
30
0
10
11.822858852147009
20
2.2285140654335454
30
0
10
11.855682899636456
20
2.2577155205468169
30
0
10
11.888372173066388
20
2.287212576246223
30
0
10
11.920925952173004
20
2.3170024808550647
30
0
10
11.953343466554333
20
2.3470826923817851
30
0
10
11.985623908149696
20
2.3774508051447896
30
0
10
12.017766448191642
20
2.408104467775825
30
0
10
12.049770254445678
20
2.4390412843611911
30
0
10
12.081634504549715
20
2.4702587909598677
30
0
10
12.113358392687593
20
2.501754521185676
30
0
10
12.144941140208337
20
2.5335260487045201
30
0
10
12.176382003069648
20
2.5655710322274414
30
0
10
12.207680288059111
20
2.5978872693143371
30
0
10
12.238835344462977
20
2.6304727034327371
30
0
10
12.269846517487633
20
2.6633253545353375
30
0
10
12.30071310921042
20
2.6964432630450439
30
0
10
12.331434342300039
20
2.7298244326122063
30
0
10
12.362009312112949
20
2.7634667569056237
30
0
10
12.392436981159525
20
2.7973679975167731
30
0
10
12.422716286343219
20
2.8315259043099483
30
0
10
12.45284622781341
20
2.8659383085861552
30
0
10
12.482825962460161
20
2.900603222966502
30
0
10
12.512654905585215
20
2.9355189420423855
30
0
10
12.542332804256947
20
2.970684125440151
30
0
10
12.571859625649278
20
3.0060977679210876
30
0
10
12.595360299538596
20
3.0346268989203029
30
0
10
12.612917924138356
20
3.0561350668426988
30
0
10
12.624592847997933
20
3.0705233044472333
30
0
10
12.630422770124545
20
3.0777297879962422
30
0
0
ARC
5
136
100
AcDbEntity
8
0
100
AcDbCircle
10
2.6978419498391304e-13
20
3.0975222387041867e-13
30
0
40
12.999999999999661
100
AcDbArc
50
13.694710075549642
51
19.032562651721086
0
SPLINE
5
137
100
AcDbEntity
8
0
100
AcDbSpline
70
1064
71
5
72
81
73
75
74
0
42
0.000000001
43
0.0000000001
44
0.0000000001
40
0
40
0
40
0
40
0
40
0
40
0
40
0.014285714285714285
40
0.028571428571428571
40
0.042857142857142858
40
0.057142857142857141
40
0.071428571428571425
40
0.085714285714285715
40
0.10000000000000001
40
0.1142857142857143
40
0.12857142857142859
40
0.14285714285714288
40
0.15714285714285717
40
0.17142857142857146
40
0.18571428571428575
40
0.20000000000000004
40
0.21428571428571433
40
0.22857142857142862
40
0.24285714285714291
40
0.25714285714285717
40
0.27142857142857146
40
0.28571428571428575
40
0.30000000000000004
40
0.31428571428571433
40
0.32857142857142863
40
0.34285714285714292
40
0.35714285714285721
40
0.3714285714285715
40
0.38571428571428579
40
0.40000000000000008
40
0.41428571428571437
40
0.42857142857142866
40
0.44285714285714295
40
0.45714285714285724
40
0.47142857142857153
40
0.48571428571428582
40
0.50000000000000011
40
0.51428571428571435
40
0.52857142857142858
40
0.54285714285714282
40
0.55714285714285705
40
0.57142857142857129
40
0.58571428571428552
40
0.59999999999999976
40
0.61428571428571399
40
0.62857142857142823
40
0.64285714285714246
40
0.6571428571428567
40
0.67142857142857093
40
0.68571428571428517
40
0.6999999999999994
40
0.71428571428571364
40
0.72857142857142787
40
0.74285714285714211
40
0.75714285714285634
40
0.77142857142857058
40
0.78571428571428481
40
0.79999999999999905
40
0.81428571428571328
40
0.82857142857142752
40
0.84285714285714175
40
0.85714285714285599
40
0.87142857142857022
40
0.88571428571428445
40
0.89999999999999869
40
0.91428571428571292
40
0.92857142857142716
40
0.94285714285714139
40
0.95714285714285563
40
0.97142857142856986
40
0.9857142857142841
40
1
40
1
40
1
40
1
40
1
40
1
10
9.337478032913145
20
4.4336432866845179
30
0
10
9.344671159968124
20
4.4370511397771581
30
0
10
9.3591411367952304
20
4.4436211314851572
30
0
10
9.3810972669928798
20
4.4527389870188774
30
0
10
9.4108526920485431
20
4.4634959944063883
30
0
10
9.4487212385521424
20
4.4750377663322523
30
0
10
9.4871020651895233
20
4.4852184559905117
30
0
10
9.5258334983930322
20
4.4945716927997106
30
0
10
9.5647930301424839
20
4.5034855247770622
30
0
10
9.6039269576549291
20
4.5120995492864804
30
0
10
9.6432270977064505
20
4.5203910869226371
30
0
10
9.6827132812128145
20
4.5282408203219635
30
0
10
9.7224146376796092
20
4.5355024820902248
30
0
10
9.7623491011740811
20
4.5420795652940038
30
0
10
9.8025110886095099
20
4.5479708127513883
30
0
10
9.8428815768324469
20
4.5532304934776242
30
0
10
9.883434130560854
20
4.5579440351920191
30
0
10
9.9241420203254158
20
4.5621996218171859
30
0
10
9.9649860789613349
20
4.5660567229467359
30
0
10
10.00595801453615
20
4.5695327632413747
30
0
10
10.047055993532643
20
4.5726205360494188
30
0
10
10.088281951654441
20
4.575298747748934
30
0
10
10.129638457908595
20
4.5775443446029351
30
0
10
10.17112517346154
20
4.579346433728313
30
0
10
10.212737763980137
20
4.5807105130383539
30
0
10
10.254469719246295
20
4.5816512135590601
30
0
10
10.296313444006802
20
4.5821879205113474
30
0
10
10.338261536018695
20
4.5823396582722475
30
0
10
10.380308246719842
20
4.5821192453155817
30
0
10
10.422449777690982
20
4.5815320828742925
30
0
10
10.464683500967116
20
4.5805792251737367
30
0
10
10.507007464954278
20
4.5792593131550703
30
0
10
10.54941983049236
20
4.5775707879312098
30
0
10
10.591918220297927
20
4.5755144451344893
30
0
10
10.634499608390851
20
4.5730938574747704
30
0
10
10.677160637661254
20
4.5703141062878583
30
0
10
10.71989781952071
20
4.5671809794385121
30
0
10
10.762707761576166
20
4.5637000586566687
30
0
10
10.805587431662985
20
4.5598756643494269
30
0
10
10.848534190544274
20
4.5557107121860749
30
0
10
10.891545649827698
20
4.5512072592428794
30
0
10
10.934619577563801
20
4.5463668620474991
30
0
10
10.977753792948945
20
4.5411909798092642
30
0
10
11.020946043067816
20
4.5356814448213356
30
0
10
11.0641939830667
20
4.5298405423666495
30
0
10
11.107495238219551
20
4.5236707799551219
30
0
10
11.150847443580364
20
4.517174743976959
30
0
10
11.194248288056009
20
4.5103549365660029
30
0
10
11.237695567120486
20
4.503213589759949
30
0
10
11.281187187180581
20
4.495752629012526
30
0
10
11.324721125828525
20
4.4879737762723639
30
0
10
11.368295402670746
20
4.4798786184570147
30
0
10
11.411908049258052
20
4.4714686855978183
30
0
10
11.455557070141493
20
4.4627455433257008
30
0
10
11.49924044139896
20
4.4537108198372399
30
0
10
11.542956151705736
20
4.444366154331413
30
0
10
11.586702234243679
20
4.4347131669998516
30
0
10
11.6304767972882
20
4.4247534252005245
30
0
10
11.674278066942891
20
4.4144884069650256
30
0
10
11.718104383947114
20
4.4039194905561452
30
0
10
11.76195412695904
20
4.3930479876875195
30
0
10
11.805825649421401
20
4.3818751695348244
30
0
10
11.849717218093387
20
4.3704022952772288
30
0
10
11.893626933171806
20
4.3586306477860717
30
0
10
11.937552711689825
20
4.3465615492211915
30
0
10
11.981492442798515
20
4.3341963177638139
30
0
10
12.025444112882813
20
4.3215362372795738
30
0
10
12.06940593821535
20
4.3085825238383384
30
0
10
12.113376504903158
20
4.2953362960093742
30
0
10
12.157354875505906
20
4.2817985446415987
30
0
10
12.201340478935451
20
4.2679700976485044
30
0
10
12.236534516573467
20
4.25667528894909
30
0
10
12.262933123783675
20
4.2480738352158411
30
0
10
12.28053356326634
20
4.2422816198789857
30
0
10
12.2893341250084
20
4.2393710339983262
30
0
0
LINE
5
138
100
AcDbEntity
8
0
100
AcDbLine
10
9.337478032913145
20
4.4336432866845179
30
0
11
8.1610859055517864
21
3.8763096654729789
31
0
0
ARC
5
139
100
AcDbEntity
8
0
100
AcDbCircle
10
7.9470128540831997
20
4.3281644304527553
30
0
40
0.49999999999999978
100
AcDbArc
50
208.57394132615761
51
295.3499645917318
0
ARC
5
140
100
AcDbEntity
8
0
100
AcDbCircle
10
2.6978419498391304e-13
20
3.0975222387041867e-13
30
0
40
8.5491999999996171
100
AcDbArc
50
28.573941326156756
51
36.880604128387091
0
ARC
5
141
100
AcDbEntity
8
0
100
AcDbCircle
10
7.2383452952003235
20
5.4308726764168727
30
0
40
0.49999999999999956
100
AcDbArc
50
130.1045808628138
51
216.88060412838905
0
LINE
5
142
100
AcDbEntity
8
0
100
AcDbLine
10
6.9162529031804993
20
5.8133076264449102
30
0
11
7.9119123480044458
21
6.6518667910739921
31
0
0
SPLINE
5
143
100
AcDbEntity
8
0
100
AcDbSpline
70
1064
71
5
72
81
73
75
74
0
42
0.000000001
43
0.0000000001
44
0.0000000001
40
0
40
0
40
0
40
0
40
0
40
0
40
0.014285714285714285
40
0.028571428571428571
40
0.042857142857142858
40
0.057142857142857141
40
0.071428571428571425
40
0.085714285714285715
40
0.10000000000000001
40
0.1142857142857143
40
0.12857142857142859
40
0.14285714285714288
40
0.15714285714285717
40
0.17142857142857146
40
0.18571428571428575
40
0.20000000000000004
40
0.21428571428571433
40
0.22857142857142862
40
0.24285714285714291
40
0.25714285714285717
40
0.27142857142857146
40
0.28571428571428575
40
0.30000000000000004
40
0.31428571428571433
40
0.32857142857142863
40
0.34285714285714292
40
0.35714285714285721
40
0.3714285714285715
40
0.38571428571428579
40
0.40000000000000008
40
0.41428571428571437
40
0.42857142857142866
40
0.44285714285714295
40
0.45714285714285724
40
0.47142857142857153
40
0.48571428571428582
40
0.50000000000000011
40
0.51428571428571435
40
0.52857142857142858
40
0.54285714285714282
40
0.55714285714285705
40
0.57142857142857129
40
0.58571428571428552
40
0.59999999999999976
40
0.61428571428571399
40
0.62857142857142823
40
0.64285714285714246
40
0.6571428571428567
40
0.67142857142857093
40
0.68571428571428517
40
0.6999999999999994
40
0.71428571428571364
40
0.72857142857142787
40
0.74285714285714211
40
0.75714285714285634
40
0.77142857142857058
40
0.78571428571428481
40
0.79999999999999905
40
0.81428571428571328
40
0.82857142857142752
40
0.84285714285714175
40
0.85714285714285599
40
0.87142857142857022
40
0.88571428571428445
40
0.89999999999999869
40
0.91428571428571292
40
0.92857142857142716
40
0.94285714285714139
40
0.95714285714285563
40
0.97142857142856986
40
0.9857142857142841
40
1
40
1
40
1
40
1
40
1
40
1
10
7.9119123480044458
20
6.6518667910739921
30
0
10
7.9180003731820481
20
6.6569942162530635
30
0
10
7.9299876934606264
20
6.6674272969562374
30
0
10
7.9474024926946472
20
6.6836116014030997
30
0
10
7.9695482610749675
20
6.7062094657053608
30
0
10
7.9957781888399726
20
6.7358612818879573
30
0
10
8.0209828414844928
20
6.7665444984787202
30
0
10
8.0455804637740851
20
6.7978903743558652
30
0
10
8.0698731449301437
20
6.8296262713324296
30
0
10
8.0939655582390753
20
6.8616453487980555
30
0
10
8.1178336743540882
20
6.8939495843959033
30
0
10
8.1413771964438091
20
6.9266065831855892
30
0
10
8.1644751758405079
20
6.9597036039688813
30
0
10
8.1870472768305529
20
6.9932970505761567
30
0
10
8.2090900365430119
20
7.0273823667053437
30
0
10
8.2306449173069698
20
7.0619197041237332
30
0
10
8.2517786452961666
20
7.0968495284958566
30
0
10
8.272560331605245
20
7.1321108929158425
30
0
10
8.2930361093512932
20
7.1676616577553283
30
0
10
8.3132183839699643
20
7.2034870419415924
30
0
10
8.3330998383897246
20
7.2395883714000098
30
0
10
8.3526619073711181
20
7.2759762525987659
30
0
10
8.371884687701467
20
7.3126625992573224
30
0
10
8.3907581301092229
20
7.3496516282290036
30
0
10
8.4092854351251649
20
7.3869371129499903
30
0
10
8.4274772071563291
20
7.4245070535697515
30
0
10
8.4453479244376926
20
7.4623464882911534
30
0
10
8.4629118171484361
20
7.5004407807853299
30
0
10
8.4801781573434649
20
7.5387793769897673
30
0
10
8.4971502802366938
20
7.5773565779875227
30
0
10
8.5138280530891208
20
7.6161695553565067
30
0
10
8.5302094289359083
20
7.6552170984378574
30
0
10
8.5462922257487648
20
7.6944981818577931
30
0
10
8.5620761797010889
20
7.734010312645621
30
0
10
8.5775632836065085
20
7.7737492541156863
30
0
10
8.5927567650168069
20
7.8137098416702528
30
0
10
8.6076604395469474
20
7.8538864976117582
30
0
10
8.6222779752660674
20
7.8942738173765221
30
0
10
8.6366120425479806
20
7.9348672480486071
30
0
10
8.6506641972001326
20
7.9756631776808939
30
0
10
8.6644353182308826
20
8.0166585791749352
30
0
10
8.677925894322275
20
8.057850775673133
30
0
10
8.6911363468792366
20
8.0992371772692664
30
0
10
8.7040674067194033
20
8.1408149734773954
30
0
10
8.7167201785218165
20
8.1825810820027041
30
0
10
8.7290959567008741
20
8.2245323010611511
30
0
10
8.7411961114857881
20
8.2666654049968571
30
0
10
8.7530219588347684
20
8.3089772521416023
30
0
10
8.7645746132875253
20
8.351464909966035
30
0
10
8.7758549565883239
20
8.3941256742083983
30
0
10
8.7868637149381783
20
8.4369569898985599
30
0
10
8.7976015091628526
20
8.4799563963777977
30
0
10
8.8080689133044565
20
8.5231214674837492
30
0
10
8.8182665225715233
20
8.5664497377056108
30
0
10
8.8281949772561248
20
8.6099386896417833
30
0
10
8.8378549328916147
20
8.6535858127790739
30
0
10
8.8472470462103558
20
8.697388644984855
30
0
10
8.8563719570805102
20
8.741344814381879
30
0
10
8.8652302730637054
20
8.7854520933806999
30
0
10
8.8738225585900956
20
8.8297084001137041
30
0
10
8.8821493333066321
20
8.8741117148509439
30
0
10
8.8902110695107766
20
8.9186600117657893
30
0
10
8.8980081925779348
20
8.9633511911650174
30
0
10
8.9055410802421537
20
9.0081829920028387
30
0
10
8.9128100698866337
20
9.053152970300939
30
0
10
8.9198154836928545
20
9.0982586583713143
30
0
10
8.9265576530201489
20
9.1434976912282213
30
0
10
8.9330369430574503
20
9.1888679411625009
30
0
10
8.9392537839387849
20
9.2343676573813926
30
0
10
8.9452086875452448
20
9.2799955755456711
30
0
10
8.9509021697348423
20
9.3257508322475928
30
0
10
8.9552481819634302
20
9.3624564880315653
30
0
10
8.9583904021985656
20
9.3900426787971991
30
0
10
8.9604331046007104
20
9.4084587748924022
30
0
10
8.9614414280289374
20
9.4176731485015317
30
0
0
ARC
5
144
100
AcDbEntity
8
0
100
AcDbCircle
10
2.6978419498391304e-13
20
3.0975222387041867e-13
30
0
40
12.999999999999595
100
AcDbArc
50
46.421982802823351
51
51.759835378994808
0
SPLINE
5
145
100
AcDbEntity
8
0
100
AcDbSpline
70
1064
71
5
72
81
73
75
74
0
42
0.000000001
43
0.0000000001
44
0.0000000001
40
0
40
0
40
0
40
0
40
0
40
0
40
0.014285714285714285
40
0.028571428571428571
40
0.042857142857142858
40
0.057142857142857141
40
0.071428571428571425
40
0.085714285714285715
40
0.10000000000000001
40
0.1142857142857143
40
0.12857142857142859
40
0.14285714285714288
40
0.15714285714285717
40
0.17142857142857146
40
0.18571428571428575
40
0.20000000000000004
40
0.21428571428571433
40
0.22857142857142862
40
0.24285714285714291
40
0.25714285714285717
40
0.27142857142857146
40
0.28571428571428575
40
0.30000000000000004
40
0.31428571428571433
40
0.32857142857142863
40
0.34285714285714292
40
0.35714285714285721
40
0.3714285714285715
40
0.38571428571428579
40
0.40000000000000008
40
0.41428571428571437
40
0.42857142857142866
40
0.44285714285714295
40
0.45714285714285724
40
0.47142857142857153
40
0.48571428571428582
40
0.50000000000000011
40
0.51428571428571435
40
0.52857142857142858
40
0.54285714285714282
40
0.55714285714285705
40
0.57142857142857129
40
0.58571428571428552
40
0.59999999999999976
40
0.61428571428571399
40
0.62857142857142823
40
0.64285714285714246
40
0.6571428571428567
40
0.67142857142857093
40
0.68571428571428517
40
0.6999999999999994
40
0.71428571428571364
40
0.72857142857142787
40
0.74285714285714211
40
0.75714285714285634
40
0.77142857142857058
40
0.78571428571428481
40
0.79999999999999905
40
0.81428571428571328
40
0.82857142857142752
40
0.84285714285714175
40
0.85714285714285599
40
0.87142857142857022
40
0.88571428571428445
40
0.89999999999999869
40
0.91428571428571292
40
0.92857142857142716
40
0.94285714285714139
40
0.95714285714285563
40
0.97142857142856986
40
0.9857142857142841
40
1
40
1
40
1
40
1
40
1
40
1
10
5.4581778521020912
20
8.7780398349244493
30
0
10
5.4623866711674225
20
8.7847956014690673
30
0
10
5.4710075846055215
20
8.7981456903044624
30
0
10
5.4845487718324035
20
8.8176864986622707
30
0
10
5.5037649510140145
20
8.8428228664555366
30
0
10
5.5293820465344634
20
8.8730057048008639
30
0
10
5.556165956157038
20
8.9023204874303872
30
0
10
5.5836921695767234
20
8.9311287246479036
30
0
10
5.6116478318915028
20
8.9596906303826263
30
0
10
5.6399122934125518
20
8.9880946074936432
30
0
10
5.6684909313860787
20
9.0163171526662396
30
0
10
5.6974649364770071
20
9.0442686111492883
30
0
10
5.7269378921084089
20
9.071841683580363
30
0
10
5.7569770609650863
20
9.0989648790495714
30
0
10
5.7875784259394685
20
9.1256341215036088
30
0
10
5.8186966436917462
20
9.1518847802500503
30
0
10
5.8502632897355138
20
9.1777744296670694
30
0
10
5.8822082019822712
20
9.2033628037489663
30
0
10
5.9144831042972132
20
9.2286895689498145
30
0
10
5.9470716005800552
20
9.2537649008698502
30
0
10
5.9799760445880192
20
9.2785817456136339
30
0
10
6.0132095769397855
20
9.3031232363668792
30
0
10
6.0467868226128267
20
9.327371368001975
30
0
10
6.08071338569943
20
9.3513167936552684
30
0
10
6.1149826475302032
20
9.3749617951483231
30
0
10
6.1495812212313163
20
9.3983151611938194
30
0
10
6.1844922368274888
20
9.421389093373433
30
0
10
6.219699181800932
20
9.4441955940568665
30
0
10
6.2551902899632701
20
9.4667423389231757
30
0
10
6.2909594457538942
20
9.4890318181981641
30
0
10
6.3270038684307028
20
9.5110634979674895
30
0
10
6.363322650971063
20
9.5328351798067388
30
0
10
6.3999150889730245
20
9.5543445579716266
30
0
10
6.4367787523871831
20
9.5755910165342009
30
0
10
6.4739091640442847
20
9.5965759250808862
30
0
10
6.5113007525862399
20
9.6173017433127548
30
0
10
6.548947454069781
20
9.6377714542181785
30
0
10
6.5868433969212257
20
9.6579879193810374
30
0
10
6.6249836945329381
20
9.6779531340470939
30
0
10
6.6633645503077288
20
9.6976681241542515
30
0
10
6.7019828428627148
20
9.7171333289627952
30
0
10
6.7408358530401449
20
9.736348851224145
30
0
10
6.7799209573231334
20
9.7553147394718422
30
0
10
6.8192352698262368
20
9.7740313171110049
30
0
10
6.8587755824157446
20
9.7924992389203442
30
0
10
6.8985385416827816
20
9.8107193304776068
30
0
10
6.9385207598000438
20
9.8286924890063538
30
0
10
6.9787189397965879
20
9.846419569964235
30
0
10
7.0191300203764397
20
9.8639012592041091
30
0
10
7.0597511993180371
20
9.8811380446387833
30
0
10
7.1005798443079815
20
9.8981302814674326
30
0
10
7.1416134313807875
20
9.9148782340084622
30
0
10
7.1828494773742202
20
9.9313821251821519
30
0
10
7.2242854571658128
20
9.9476421932599042
30
0
10
7.2659187878544245
20
9.9636587137529382
30
0
10
7.3077468911881418
20
9.9794319782389422
30
0
10
7.349767236632534
20
9.9949622863676844
30
0
10
7.3919773853899127
20
10.010249933941067
30
0
10
7.4343750460794507
20
10.025295205317581
30
0
10
7.4769580776971498
20
10.040098362901645
30
0
10
7.5197244071175362
20
10.054659633613415
30
0
10
7.562671961919035
20
10.068979196637851
30
0
10
7.6057986032430369
20
10.083057174203152
30
0
10
7.6491020393007849
20
10.096893618418211
30
0
10
7.6925798029754988
20
10.110488515417774
30
0
10
7.7362294058454806
20
10.12384183291536
30
0
10
7.7800484598397794
20
10.136953562324978
30
0
10
7.8240348069344412
20
10.149823762313883
30
0
10
7.8681866529428
20
10.16245260947416
30
0
10
7.9125026735465056
20
10.174840430542464
30
0
10
7.9569819407118096
20
10.186987613250382
30
0
10
7.9926954838176396
20
10.196513148807526
30
0
10
8.0195537023727006
20
10.203549310048762
30
0
10
8.0374916423014717
20
10.208192104423201
30
0
10
8.0464687274876727
20
10.210501506662784
30
0
0
LINE
5
146
100
AcDbEntity
8
0
100
AcDbLine
10
5.4581778521020912
20
8.7780398349244493
30
0
11
4.7698511235318533
21
7.6731753557296711
31
0
0
ARC
5
147
100
AcDbEntity
8
0
100
AcDbCircle
10
4.3454702831900835
20
7.9375631435543195
30
0
40
0.49999999999999967
100
AcDbArc
50
241.30121405343053
51
328.07723731900438
0
ARC
5
148
100
AcDbEntity
8
0
100
AcDbCircle
10
2.6978419498391304e-13
20
3.0975222387041867e-13
30
0
40
8.5491999999996011
100
AcDbArc
50
61.301214053430996
51
69.607876855661445
0
ARC
5
149
100
AcDbEntity
8
0
100
AcDbCircle
10
3.1531321081639412
20
8.4820857428150092
30
0
40
0.49999999999999994
100
AcDbArc
50
162.83185359008641
51
249.60787685566081
0
LINE
5
150
100
AcDbEntity
8
0
100
AcDbLine
10
2.6754108014724691
20
8.6296742014863863
30
0
11
3.0596535146773993
21
9.8734091973755671
31
0
0
SPLINE
5
151
100
AcDbEntity
8
0
100
AcDbSpline
70
1064
71
5
72
81
73
75
74
0
42
0.000000001
43
0.0000000001
44
0.0000000001
40
0
40
0
40
0
40
0
40
0
40
0
40
0.014285714285714285
40
0.028571428571428571
40
0.042857142857142858
40
0.057142857142857141
40
0.071428571428571425
40
0.085714285714285715
40
0.10000000000000001
40
0.1142857142857143
40
0.12857142857142859
40
0.14285714285714288
40
0.15714285714285717
40
0.17142857142857146
40
0.18571428571428575
40
0.20000000000000004
40
0.21428571428571433
40
0.22857142857142862
40
0.24285714285714291
40
0.25714285714285717
40
0.27142857142857146
40
0.28571428571428575
40
0.30000000000000004
40
0.31428571428571433
40
0.32857142857142863
40
0.34285714285714292
40
0.35714285714285721
40
0.3714285714285715
40
0.38571428571428579
40
0.40000000000000008
40
0.41428571428571437
40
0.42857142857142866
40
0.44285714285714295
40
0.45714285714285724
40
0.47142857142857153
40
0.48571428571428582
40
0.50000000000000011
40
0.51428571428571435
40
0.52857142857142858
40
0.54285714285714282
40
0.55714285714285705
40
0.57142857142857129
40
0.58571428571428552
40
0.59999999999999976
40
0.61428571428571399
40
0.62857142857142823
40
0.64285714285714246
40
0.6571428571428567
40
0.67142857142857093
40
0.68571428571428517
40
0.6999999999999994
40
0.71428571428571364
40
0.72857142857142787
40
0.74285714285714211
40
0.75714285714285634
40
0.77142857142857058
40
0.78571428571428481
40
0.79999999999999905
40
0.81428571428571328
40
0.82857142857142752
40
0.84285714285714175
40
0.85714285714285599
40
0.87142857142857022
40
0.88571428571428445
40
0.89999999999999869
40
0.91428571428571292
40
0.92857142857142716
40
0.94285714285714139
40
0.95714285714285563
40
0.97142857142856986
40
0.9857142857142841
40
1
40
1
40
1
40
1
40
1
40
1
10
3.0596535146773993
20
9.8734091973755671
30
0
10
3.062002992025767
20
9.8810140968305014
30
0
10
3.0664468182793558
20
9.8962717974648697
30
0
10
3.0723471840724192
20
9.9193020520509165
30
0
10
3.0787600621304998
20
9.9502854915499483
30
0
10
3.0847950993887152
20
9.9894111562570931
30
0
10
3.0894100031699026
20
10.028850184622112
30
0
10
3.0931559798621877
20
10.068518492065559
30
0
10
3.0964345624225671
20
10.108350042513061
30
0
10
3.0993915700179455
20
10.148311546574833
30
0
10
3.1020057186808265
20
10.188391676704477
30
0
10
3.1041560832927919
20
10.228593081336335
30
0
10
3.1056937396899009
20
10.268923777459072
30
0
10
3.1065206109562906
20
10.309387782228365
30
0
10
3.1066362472624287
20
10.349979390469633
30
0
10
3.1060970725202446
20
10.390687495943819
30
0
10
3.1049914070509255
20
10.431498090074005
30
0
10
3.1034103411920073
20
10.47239726533901
30
0
10
3.1014154669943439
20
10.513374513073742
30
0
10
3.0990252118257464
20
10.554424105533421
30
0
10
3.0962327033245609
20
10.595543202249925
30
0
10
3.0930165891278727
20
10.636730688825843
30
0
10
3.0893536845446743
20
10.677985827230591
30
0
10
3.085233255786747
20
10.719306731860545
30
0
10
3.0806613616464649
20
10.760689894934465
30
0
10
3.0756534107277176
20
10.802130954710991
30
0
10
3.0702296718550537
20
10.843625152050221
30
0
10
3.064410029213791
20
10.885167867504489
30
0
10
3.0582079889098566
20
10.926755235282767
30
0
10
3.0516294377708562
20
10.968384264303818
30
0
10
3.0446757932900628
20
11.010052503383449
30
0
10
3.0373459879826736
20
11.051757827377866
30
0
10
3.0296387405685987
20
11.093498193994197
30
0
10
3.0215551769044935
20
11.135271363376614
30
0
10
3.0130992639770549
20
11.177074848794724
30
0
10
3.0042765091679668
20
11.218906050458672
30
0
10
2.995093137907765
20
11.260762338987876
30
0
10
2.9855551579002979
20
11.302641150881936
30
0
10
2.9756672770991646
20
11.344540099697319
30
0
10
2.9654327570989181
20
11.386456988003768
30
0
10
2.9548539739414226
20
11.428389744471804
30
0
10
2.9439327859506568
20
11.470336381386987
30
0
10
2.9326709478440192
20
11.512294947810259
30
0
10
2.9210705938878476
20
11.554263474520237
30
0
10
2.9091343198116713
20
11.5962399657601
30
0
10
2.8968649455613216
20
11.638222427830968
30
0
10
2.884265367768192
20
11.68020888794028
30
0
10
2.8713383920008533
20
11.722197414609267
30
0
10
2.8580865413148371
20
11.764186143402913
30
0
10
2.8445120195149105
20
11.806173276058402
30
0
10
2.8306168188413827
20
11.848157055811999
30
0
10
2.8164027918986645
20
11.890135748269596
30
0
10
2.8018717332841097
20
11.932107622764143
30
0
10
2.7870254766747764
20
11.974070926969986
30
0
10
2.7718659217286934
20
12.016023889282174
30
0
10
2.7563949772015106
20
12.057964752130692
30
0
10
2.7406145267010489
20
12.099891799294099
30
0
10
2.7245263908523132
20
12.141803381361118
30
0
10
2.7081322850944449
20
12.183697952836884
30
0
10
2.6914338097989181
20
12.225574067496881
30
0
10
2.6744324940690154
20
12.267430307178515
30
0
10
2.6571298304712077
20
12.309265222991261
30
0
10
2.6395273120339207
20
12.351077278536085
30
0
10
2.6216264789408985
20
12.392864775918671
30
0
10
2.6034289363313858
20
12.434625841536757
30
0
10
2.5849362893745482
20
12.476358573623553
30
0
10
2.5661500954354208
20
12.518061161772824
30
0
10
2.5470718120569065
20
12.559732013477767
30
0
10
2.5277027476407983
20
12.601369888425804
30
0
10
2.5080440163622688
20
12.6429739997309
30
0
10
2.4880965189821613
20
12.684543899942142
30
0
10
2.4719080413748995
20
12.717772294149231
30
0
10
2.4596372245226217
20
12.742678087104725
30
0
10
2.4513991618876969
20
12.759275061302287
30
0
10
2.4472657510535489
20
12.767571826456287
30
0
0
ARC
5
152
100
AcDbEntity
8
0
100
AcDbCircle
10
2.6978419498391304e-13
20
3.0975222387041867e-13
30
0
40
12.999999999999645
100
AcDbArc
50
79.149255530097065
51
84.487108106268479
0
SPLINE
5
153
100
AcDbEntity
8
0
100
AcDbSpline
70
1064
71
5
72
81
73
75
74
0
42
0.000000001
43
0.0000000001
44
0.0000000001
40
0
40
0
40
0
40
0
40
0
40
0
40
0.014285714285714285
40
0.028571428571428571
40
0.042857142857142858
40
0.057142857142857141
40
0.071428571428571425
40
0.085714285714285715
40
0.10000000000000001
40
0.1142857142857143
40
0.12857142857142859
40
0.14285714285714288
40
0.15714285714285717
40
0.17142857142857146
40
0.18571428571428575
40
0.20000000000000004
40
0.21428571428571433
40
0.22857142857142862
40
0.24285714285714291
40
0.25714285714285717
40
0.27142857142857146
40
0.28571428571428575
40
0.30000000000000004
40
0.31428571428571433
40
0.32857142857142863
40
0.34285714285714292
40
0.35714285714285721
40
0.3714285714285715
40
0.38571428571428579
40
0.40000000000000008
40
0.41428571428571437
40
0.42857142857142866
40
0.44285714285714295
40
0.45714285714285724
40
0.47142857142857153
40
0.48571428571428582
40
0.50000000000000011
40
0.51428571428571435
40
0.52857142857142858
40
0.54285714285714282
40
0.55714285714285705
40
0.57142857142857129
40
0.58571428571428552
40
0.59999999999999976
40
0.61428571428571399
40
0.62857142857142823
40
0.64285714285714246
40
0.6571428571428567
40
0.67142857142857093
40
0.68571428571428517
40
0.6999999999999994
40
0.71428571428571364
40
0.72857142857142787
40
0.74285714285714211
40
0.75714285714285634
40
0.77142857142857058
40
0.78571428571428481
40
0.79999999999999905
40
0.81428571428571328
40
0.82857142857142752
40
0.84285714285714175
40
0.85714285714285599
40
0.87142857142857022
40
0.88571428571428445
40
0.89999999999999869
40
0.91428571428571292
40
0.92857142857142716
40
0.94285714285714139
40
0.95714285714285563
40
0.97142857142856986
40
0.9857142857142841
40
1
40
1
40
1
40
1
40
1
40
1
10
-0.15405523110956137
20
10.335470758241543
30
0
10
-0.15416699034902615
20
10.343429530094191
30
0
10
-0.15413221940406591
20
10.359321157178965
30
0
10
-0.15330520641503059
20
10.383080849776007
30
0
10
-0.15072927422260074
20
10.414615958805754
30
0
10
-0.14549687651129573
20
10.453857025657648
30
0
10
-0.13881358596263327
20
10.492998664901918
30
0
10
-0.13123197059659059
20
10.53211549076047
30
0
10
-0.12315590297615642
20
10.571257266990571
30
0
10
-0.11473467427229461
20
10.610433134663353
30
0
10
-0.10595105400635074
20
10.64962622869106
30
0
10
-0.096688269226689882
20
10.688805021685031
30
0
10
-0.086801169597697236
20
10.727935249104078
30
0
10
-0.076194519244184578
20
10.766993133920579
30
0
10
-0.064869493891301644
20
10.805973075327977
30
0
10
-0.052883360875211616
20
10.844880313420919
30
0
10
-0.040324809595717048
20
10.883726289778181
30
0
10
-0.027285158793146636
20
10.922523323344617
30
0
10
-0.013826466240613455
20
10.961278683615866
30
0
10
3.1973439764965139e-05
20
10.999992066450517
30
0
10
0.014295953978362974
20
11.038658810271336
30
0
10
0.028985648855331392
20
11.077271830166042
30
0
10
0.04412309569154782
20
11.115823886117202
30
0
10
0.059718062245456005
20
11.154310144843782
30
0
10
0.075763746892166806
20
11.192728947613402
30
0
10
0.092244136339970639
20
11.231080450471239
30
0
10
0.10913844198947503
20
11.269365797443768
30
0
10
0.12642628365578196
20
11.307586158225782
30
0
10
0.1440936132059592
20
11.3457416287277
30
0
10
0.16213393958532107
20
11.383830997539091
30
0
10
0.18054521214063951
20
11.421852312119945
30
0
10
0.19932785639388967
20
11.459803232664502
30
0
10
0.21848252634392024
20
11.497681438628788
30
0
10
0.23800751069887272
20
11.535485098077347
30
0
10
0.25789830256997354
20
11.573212942639142
30
0
10
0.27814888521775133
20
11.610864029442801
30
0
10
0.29875254460323214
20
11.648437589522594
30
0
10
0.31970279415526798
20
11.685932855783662
30
0
10
0.34099444428662029
20
11.723348864834012
30
0
10
0.36262374643258544
20
11.760684427152118
30
0
10
0.38458783723674311
20
11.797938224720257
30
0
10
0.40688437364641949
20
11.835108873890746
30
0
10
0.42951112237955197
20
11.872194997112297
30
0
10
0.45246548082880877
20
11.909195306223134
30
0
10
0.47574439614027519
20
11.946108617610133
30
0
10
0.49934460090585653
20
11.982933812803772
30
0
10
0.52326276002819083
20
12.019669814998819
30
0
10
0.54749563742349583
20
12.05631556137498
30
0
10
0.572040286965672
20
12.092869973846836
30
0
10
0.59689408749034933
20
12.129331947877404
30
0
10
0.62205463251941007
20
12.165700359143178
30
0
10
0.6475196558566555
20
12.201974065444185
30
0
10
0.67328694801327693
20
12.23815191181404
30
0
10
0.6993542559018372
20
12.274232733515124
30
0
10
0.72571925769501111
20
12.31021536590044
30
0
10
0.75237962679047166
20
12.346098660352531
30
0
10
0.77933307236429339
20
12.381881500842615
30
0
10
0.80657738284672242
20
12.417562817701512
30
0
10
0.83411047686973261
20
12.453141611332805
30
0
10
0.86193041143961191
20
12.488616944970989
30
0
10
0.89003531984993001
20
12.523987888697185
30
0
10
0.91842336179401318
20
12.559253472815694
30
0
10
0.94709267186794788
20
12.594412643797146
30
0
10
0.97604129392414962
20
12.629464206443782
30
0
10
1.0052671599880327
20
12.66440681526738
30
0
10
1.0347681941214437
20
12.699239097764481
30
0
10
1.0645423919931942
20
12.733959755623456
30
0
10
1.0945879064400996
20
12.768567671482508
30
0
10
1.124903132623396
20
12.803062023889812
30
0
10
1.155486779808421
20
12.837442371733168
30
0
10
1.1863378576599843
20
12.871708539460228
30
0
10
1.2112321086373652
20
12.899030129038756
30
0
10
1.2300226439171507
20
12.919469973775524
30
0
10
1.2426029151080675
20
12.933073723451788
30
0
10
1.2489063626208441
20
12.939869894918004
30
0
0
LINE
5
154
100
AcDbEntity
8
0
100
AcDbLine
10
-0.15405523110956137
20
10.335470758241543
30
0
11
-0.13577768805188534
21
9.0338620866085044
31
0
0
ARC
5
155
100
AcDbEntity
8
0
100
AcDbCircle
10
-0.63572839899006184
20
9.0268416427185407
30
0
40
0.50000000000000033
100
AcDbArc
50
-85.97151321929681
51
0.80451004627713674
0
ARC
5
156
100
AcDbEntity
8
0
100
AcDbCircle
10
2.6978419498391304e-13
20
3.0975222387041867e-13
30
0
40
8.549199999999713
100
AcDbArc
50
94.028486780705123
51
102.33514958293547
0
ARC
5
157
100
AcDbEntity
8
0
100
AcDbCircle
10
-1.9331782442476291
20
8.840296517423365
30
0
40
0.50000000000000022
100
AcDbArc
50
195.5591263173593
51
282.33514958293256
0
LINE
5
158
100
AcDbEntity
8
0
100
AcDbLine
10
-2.4148553261536629
20
8.7061801919201347
30
0
11
-2.764023691081039
21
9.9602139456861529
31
0
0
SPLINE
5
159
100
AcDbEntity
8
0
100
AcDbSpline
70
1064
71
5
72
81
73
75
74
0
42
0.000000001
43
0.0000000001
44
0.0000000001
40
0
40
0
40
0
40
0
40
0
40
0
40
0.014285714285714285
40
0.028571428571428571
40
0.042857142857142858
40
0.057142857142857141
40
0.071428571428571425
40
0.085714285714285715
40
0.10000000000000001
40
0.1142857142857143
40
0.12857142857142859
40
0.14285714285714288
40
0.15714285714285717
40
0.17142857142857146
40
0.18571428571428575
40
0.20000000000000004
40
0.21428571428571433
40
0.22857142857142862
40
0.24285714285714291
40
0.25714285714285717
40
0.27142857142857146
40
0.28571428571428575
40
0.30000000000000004
40
0.31428571428571433
40
0.32857142857142863
40
0.34285714285714292
40
0.35714285714285721
40
0.3714285714285715
40
0.38571428571428579
40
0.40000000000000008
40
0.41428571428571437
40
0.42857142857142866
40
0.44285714285714295
40
0.45714285714285724
40
0.47142857142857153
40
0.48571428571428582
40
0.50000000000000011
40
0.51428571428571435
40
0.52857142857142858
40
0.54285714285714282
40
0.55714285714285705
40
0.57142857142857129
40
0.58571428571428552
40
0.59999999999999976
40
0.61428571428571399
40
0.62857142857142823
40
0.64285714285714246
40
0.6571428571428567
40
0.67142857142857093
40
0.68571428571428517
40
0.6999999999999994
40
0.71428571428571364
40
0.72857142857142787
40
0.74285714285714211
40
0.75714285714285634
40
0.77142857142857058
40
0.78571428571428481
40
0.79999999999999905
40
0.81428571428571328
40
0.82857142857142752
40
0.84285714285714175
40
0.85714285714285599
40
0.87142857142857022
40
0.88571428571428445
40
0.89999999999999869
40
0.91428571428571292
40
0.92857142857142716
40
0.94285714285714139
40
0.95714285714285563
40
0.97142857142856986
40
0.9857142857142841
40
1
40
1
40
1
40
1
40
1
40
1
10
-2.764023691081039
20
9.9602139456861529
30
0
10
-2.7661587040194
20
9.9678818175736552
30
0
10
-2.7706692552277392
20
9.9831199259935719
30
0
10
-2.7781566473249382
20
10.005684187611731
30
0
10
-2.7895127030613063
20
10.03521617918512
30
0
10
-2.8055886379978285
20
10.071393570321028
30
0
10
-2.8230286824231481
20
10.107066797617271
30
0
10
-2.841323672460164
20
10.142463129296591
30
0
10
-2.8601001152930277
20
10.177744097384235
30
0
10
-2.8792173424295187
20
10.212960532857034
30
0
10
-2.8986871349485419
20
10.248091399394983
30
0
10
-2.9186126533848822
20
10.28307354794795
30
0
10
-2.9391235150288821
20
10.317833208354239
30
0
10
-2.960304399270834
20
10.352320735676299
30
0
10
-2.9821526000811671
20
10.386531087219641
30
0
10
-3.0046146461584766
20
10.420485424891302
30
0
10
-3.0276086641120625
20
10.454219713497093
30
0
10
-3.0510505049000498
20
10.487771500440246
30
0
10
-3.0748826725787737
20
10.521165244445839
30
0
10
-3.0990865684073432
20
10.554406089615549
30
0
10
-3.1236664381112735
20
10.5874879309163
30
0
10
-3.1486396419525708
20
10.6203982868984
30
0
10
-3.1740252851249973
20
10.653124002100714
30
0
10
-3.1998313780315262
20
10.685657687128487
30
0
10
-3.2260509272419502
20
10.717999666678828
30
0
10
-3.2526686120783994
20
10.75015460194161
30
0
10
-3.2796648083353261
20
10.782129447427449
30
0
10
-3.3070202909096258
20
10.813931067211882
30
0
10
-3.3347216077375452
20
10.845563511136696
30
0
10
-3.362762189403965
20
10.877027445603524
30
0
10
-3.3911395182274306
20
10.908321574899727
30
0
10
-3.4198533432938296
20
10.939443534114721
30
0
10
-3.4489036383376739
20
10.970390912450101
30
0
10
-3.4782882452705879
20
11.001162434303296
30
0
10
-3.5080024824230485
20
11.031758152418513
30
0
10
-3.5380403111382455
20
11.062178857228687
30
0
10
-3.5683950727002745
20
11.092425702479968
30
0
10
-3.5990603271741044
20
11.122499779628507
30
0
10
-3.6300308237683518
20
11.152401626382137
30
0
10
-3.6613026306345824
20
11.182131157496025
30
0
10
-3.6928726290739275
20
11.211687915042159
30
0
10
-3.7247381811252103
20
11.24107123153453
30
0
10
-3.7568967558689352
20
11.270280414410612
30
0
10
-3.7893454932045452
20
11.299314960927463
30
0
10
-3.8220811304778071
20
11.328174595504933
30
0
10
-3.8551002175243343
20
11.356859165514628
30
0
10
-3.8883992509705507
20
11.385368577374987
30
0
10
-3.9219748263857257
20
11.413702723027566
30
0
10
-3.9558238132508059
20
11.441861398076625
30
0
10
-3.9899433853929689
20
11.469844281194025
30
0
10
-4.0243309170548294
20
11.497650971582496
30
0
10
-4.0589839120421436
20
11.525281011770439
30
0
10
-4.0938999249742896
20
11.552733916060653
30
0
10
-4.1290764658851948
20
11.580009201663666
30
0
10
-4.164510978878881
20
11.607106405243213
30
0
10
-4.2002009079938247
20
11.634025080188531
30
0
10
-4.2361437407789273
20
11.660764801077537
30
0
10
-4.2723370538879166
20
11.687325164641361
30
0
10
-4.3087785686439402
20
11.713705798163412
30
0
10
-4.3454661568408426
20
11.739906350228342
30
0
10
-4.3823977653984976
20
11.765926454497514
30
0
10
-4.4195713553607323
20
11.791765699029003
30
0
10
-4.456984840072078
20
11.817423598513805
30
0
10
-4.4946360058965498
20
11.842899557278532
30
0
10
-4.5325224895592262
20
11.868192866952452
30
0
10
-4.5706419125331266
20
11.893302795487504
30
0
10
-4.6089919858999036
20
11.918228661848154
30
0
10
-4.6475706225222666
20
11.942969914339612
30
0
10
-4.6863760511389723
20
11.967526216919955
30
0
10
-4.7254069090235156
20
11.991897509987107
30
0
10
-4.7646621964974258
20
12.016083904109479
30
0
10
-4.7962454366825495
20
12.035285256359547
30
0
10
-4.8200333929730901
20
12.049603238217452
30
0
10
-4.8359366939658655
20
12.059111668478264
30
0
10
-4.8438995103278311
20
12.063856660862886
30
0
0
ARC
5
160
100
AcDbEntity
8
0
100
AcDbCircle
10
2.6978419498391304e-13
20
3.0975222387041867e-13
30
0
40
12.999999999999815
100
AcDbArc
50
111.8765282573705
51
117.21438083354187
0
SPLINE
5
161
100
AcDbEntity
8
0
100
AcDbSpline
70
1064
71
5
72
81
73
75
74
0
42
0.000000001
43
0.0000000001
44
0.0000000001
40
0
40
0
40
0
40
0
40
0
40
0
40
0.014285714285714285
40
0.028571428571428571
40
0.042857142857142858
40
0.057142857142857141
40
0.071428571428571425
40
0.085714285714285715
40
0.10000000000000001
40
0.1142857142857143
40
0.12857142857142859
40
0.14285714285714288
40
0.15714285714285717
40
0.17142857142857146
40
0.18571428571428575
40
0.20000000000000004
40
0.21428571428571433
40
0.22857142857142862
40
0.24285714285714291
40
0.25714285714285717
40
0.27142857142857146
40
0.28571428571428575
40
0.30000000000000004
40
0.31428571428571433
40
0.32857142857142863
40
0.34285714285714292
40
0.35714285714285721
40
0.3714285714285715
40
0.38571428571428579
40
0.40000000000000008
40
0.41428571428571437
40
0.42857142857142866
40
0.44285714285714295
40
0.45714285714285724
40
0.47142857142857153
40
0.48571428571428582
40
0.50000000000000011
40
0.51428571428571435
40
0.52857142857142858
40
0.54285714285714282
40
0.55714285714285705
40
0.57142857142857129
40
0.58571428571428552
40
0.59999999999999976
40
0.61428571428571399
40
0.62857142857142823
40
0.64285714285714246
40
0.6571428571428567
40
0.67142857142857093
40
0.68571428571428517
40
0.6999999999999994
40
0.71428571428571364
40
0.72857142857142787
40
0.74285714285714211
40
0.75714285714285634
40
0.77142857142857058
40
0.78571428571428481
40
0.79999999999999905
40
0.81428571428571328
40
0.82857142857142752
40
0.84285714285714175
40
0.85714285714285599
40
0.87142857142857022
40
0.88571428571428445
40
0.89999999999999869
40
0.91428571428571292
40
0.92857142857142716
40
0.94285714285714139
40
0.95714285714285563
40
0.97142857142856986
40
0.9857142857142841
40
1
40
1
40
1
40
1
40
1
40
1
10
-5.7173768669461742
20
8.6114627427636812
30
0
10
-5.7217737217215578
20
8.6180976660951334
30
0
10
-5.7303361327990832
20
8.6314853521147441
30
0
10
-5.7424858648285193
20
8.6519203944294265
30
0
10
-5.757368019895698
20
8.6798420703951447
30
0
10
-5.7741815692965215
20
8.7156826042922546
30
0
10
-5.7897207953490959
20
8.7522239062528246
30
0
10
-5.8044908873462813
20
8.789230004928605
30
0
10
-5.8188585088269136
20
8.8265244142636039
30
0
10
-5.8329541935521556
20
8.8640341113154939
30
0
10
-5.8467543283661358
20
8.9017542237696858
30
0
10
-5.860143632617576
20
8.9397213613231195
30
0
10
-5.8729814732642893
20
8.9779851730055622
30
0
10
-5.8851748779581703
20
9.0165771447099452
30
0
10
-5.8967218077575234
20
9.0554919290929607
30
0
10
-5.9076732720202605
20
9.0947029733433027
30
0
10
-5.9181100668017947
20
9.13417195361993
30
0
10
-5.9281156744394581
20
9.1738598626403007
30
0
10
-5.937746231440185
20
9.2137392649281207
30
0
10
-5.9470178050417344
20
9.2537994731630722
30
0
10
-5.9559230010090385
20
9.2940396981039726
30
0
10
-5.9644410179378795
20
9.3344648861501334
30
0
10
-5.9725494023528984
20
9.3750808610486764
30
0
10
-5.9802373240237845
20
9.4158888376337639
30
0
10
-5.9875096080630765
20
9.4568837432548829
30
0
10
-5.9943798100733918
20
9.4980570517464731
30
0
10
-6.0008660370448137
20
9.5393984863594721
30
0
10
-6.0069860662646413
20
9.5808980127439369
30
0
10
-6.0127517676274227
20
9.6225481165907762
30
0
10
-6.0181679468179148
20
9.6643442694675734
30
0
10
-6.0232352733325643
20
9.7062837201263079
30
0
10
-6.0279521242050098
20
9.7483647302516694
30
0
10
-6.0323166946756146
20
9.7905857012563065
30
0
10
-6.0363294339556175
20
9.8329441668238218
30
0
10
-6.039993447747972
20
9.8754366233245712
30
0
10
-6.0433132879012614
20
9.9180590246697307
30
0
10
-6.0462941868902309
20
9.960807094080641
30
0
10
-6.0489411868429857
20
10.003676679330924
30
0
10
-6.0512581326690862
20
10.046664164260966
30
0
10
-6.0532475347579435
20
10.0897665215545
30
0
10
-6.0549110893440865
20
10.132981094377103
30
0
10
-6.0562500194724365
20
10.176305451980364
30
0
10
-6.0572654591389643
20
10.219737228090946
30
0
10
-6.0579589013634454
20
10.263273931962457
30
0
10
-6.0583322744604562
20
10.306912917378739
30
0
10
-6.0583877224583222
20
10.350651476929169
30
0
10
-6.0581274688546216
20
10.39448690165778
30
0
10
-6.0575536614122347
20
10.438416547904259
30
0
10
-6.0566681957131694
20
10.482437915929419
30
0
10
-6.0554726796634339
20
10.526548659429174
30
0
10
-6.0539685298660668
20
10.570746531522104
30
0
10
-6.0521570352467009
20
10.615029346130278
30
0
10
-6.0500394301236327
20
10.659394937094316
30
0
10
-6.0476169802099271
20
10.703841106463546
30
0
10
-6.0448910090953225
20
10.748365619199937
30
0
10
-6.0418628530527592
20
10.792966251168819
30
0
10
-6.0385338358752509
20
10.837640824994111
30
0
10
-6.0349052397468448
20
10.882387245147962
30
0
10
-6.03097827520312
20
10.92720354544384
30
0
10
-6.0267540703407345
20
10.972087887362747
30
0
10
-6.022233692780965
20
11.017038479389454
30
0
10
-6.0174181664312245
20
11.062053510819116
30
0
10
-6.0123084909881674
20
11.107131086852938
30
0
10
-6.0069056658951672
20
11.152269144453351
30
0
10
-6.0012107034172955
20
11.19746543369217
30
0
10
-5.9952246079134675
20
11.242717677609102
30
0
10
-5.9889483636141154
20
11.288023700371655
30
0
10
-5.9823829203603971
20
11.333381563343456
30
0
10
-5.9755291841182085
20
11.37878970783391
30
0
10
-5.9683880022393847
20
11.424247064931984
30
0
10
-5.9609601129361343
20
11.469752951538013
30
0
10
-5.9547889028781489
20
11.506196183491873
30
0
10
-5.9500319130573924
20
11.533550205441291
30
0
10
-5.9468034578194962
20
11.55179581601667
30
0
10
-5.9451749480274181
20
11.560921020288443
30
0
0
LINE
5
162
100
AcDbEntity
8
0
100
AcDbLine
10
-5.7173768669461742
20
8.6114627427636812
30
0
11
-4.9982980430384503
21
7.5263614352084671
31
0
0
ARC
5
163
100
AcDbEntity
8
0
100
AcDbCircle
10
-5.4150878063330818
20
7.2501617009348696
30
0
40
0.50000000000000067
100
AcDbArc
50
-53.244240492024197
51
33.531782773549942
0
ARC
5
164
100
AcDbEntity
8
0
100
AcDbCircle
10
2.6978419498391304e-13
20
3.0975222387041867e-13
30
0
40
8.5491999999999138
100
AcDbArc
50
126.75575950797861
51
135.06242231020869
0
ARC
5
165
100
AcDbEntity
8
0
100
AcDbCircle
10
-6.4057181632953402
20
6.3917756103001775
30
0
40
0.49999999999999933
100
AcDbArc
50
228.28639904463219
51
315.06242231020605
0
LINE
5
166
100
AcDbEntity
8
0
100
AcDbLine
10
-6.7384219502783962
20
6.0185354863489433
30
0
11
-7.7101429045794125
21
6.8847211417501857
31
0
0
SPLINE
5
167
100
AcDbEntity
8
0
100
AcDbSpline
70
1064
71
5
72
81
73
75
74
0
42
0.000000001
43
0.0000000001
44
0.0000000001
40
0
40
0
40
0
40
0
40
0
40
0
40
0.014285714285714285
40
0.028571428571428571
40
0.042857142857142858
40
0.057142857142857141
40
0.071428571428571425
40
0.085714285714285715
40
0.10000000000000001
40
0.1142857142857143
40
0.12857142857142859
40
0.14285714285714288
40
0.15714285714285717
40
0.17142857142857146
40
0.18571428571428575
40
0.20000000000000004
40
0.21428571428571433
40
0.22857142857142862
40
0.24285714285714291
40
0.25714285714285717
40
0.27142857142857146
40
0.28571428571428575
40
0.30000000000000004
40
0.31428571428571433
40
0.32857142857142863
40
0.34285714285714292
40
0.35714285714285721
40
0.3714285714285715
40
0.38571428571428579
40
0.40000000000000008
40
0.41428571428571437
40
0.42857142857142866
40
0.44285714285714295
40
0.45714285714285724
40
0.47142857142857153
40
0.48571428571428582
40
0.50000000000000011
40
0.51428571428571435
40
0.52857142857142858
40
0.54285714285714282
40
0.55714285714285705
40
0.57142857142857129
40
0.58571428571428552
40
0.59999999999999976
40
0.61428571428571399
40
0.62857142857142823
40
0.64285714285714246
40
0.6571428571428567
40
0.67142857142857093
40
0.68571428571428517
40
0.6999999999999994
40
0.71428571428571364
40
0.72857142857142787
40
0.74285714285714211
40
0.75714285714285634
40
0.77142857142857058
40
0.78571428571428481
40
0.79999999999999905
40
0.81428571428571328
40
0.82857142857142752
40
0.84285714285714175
40
0.85714285714285599
40
0.87142857142857022
40
0.88571428571428445
40
0.89999999999999869
40
0.91428571428571292
40
0.92857142857142716
40
0.94285714285714139
40
0.95714285714285563
40
0.97142857142856986
40
0.9857142857142841
40
1
40
1
40
1
40
1
40
1
40
1
10
-7.7101429045794125
20
6.8847211417501857
30
0
10
-7.7160845562818512
20
6.8900174909245679
30
0
10
-7.7281174168135038
20
6.9003980153740354
30
0
10
-7.7466153727134879
20
6.9153322903919996
30
0
10
-7.7721348947860633
20
6.9340366353782725
30
0
10
-7.8052178061621058
20
6.9557796868745259
30
0
10
-7.8391757079143591
20
6.9763611154904135
30
0
10
-7.873703134610146
20
6.9962473861959493
30
0
10
-7.9085732149048233
20
7.015776313839317
30
0
10
-7.9436950922332192
20
7.0350667112879748
30
0
10
-7.9790673043763398
20
7.0540945123312691
30
0
10
-8.0147424945444321
20
7.0727508198118274
30
0
10
-8.0507898205803947
20
7.0909034979227012
30
0
10
-8.0872536792408454
20
7.1084650015499946
30
0
10
-8.1241290677823788
20
7.1254325514991947
30
0
10
-8.1613824442745013
20
7.141852859067459
30
0
10
-8.1989643764800579
20
7.1578004438716132
30
0
10
-8.2368243733790596
20
7.1733523872040585
30
0
10
-8.2749272896908987
20
7.1885603497076609
30
0
10
-8.3132602602704271
20
7.2034387141146023
30
0
10
-8.3518235562191645
20
7.2179800491317367
30
0
10
-8.3906250339376847
20
7.2321644690291649
30
0
10
-8.4296736533584795
20
7.2459705776811614
30
0
10
-8.4689721582529227
20
7.2593878279824731
30
0
10
-8.5085148409176643
20
7.2724202740195114
30
0
10
-8.5482913328078158
20
7.28508012001853
30
0
10
-8.5882888848834398
20
7.2973838261326858
30
0
10
-8.6284950349580374
20
7.3093475606652323
30
0
10
-8.6689006559452313
20
7.3209820032946222
30
0
10
-8.7095005815852637
20
7.3322912663275481
30
0
10
-8.7502919933545762
20
7.3432756209025287
30
0
10
-8.7912734016035952
20
7.3539332131845967
30
0
10
-8.8324434808603645
20
7.3642620292812673
30
0
10
-8.8737997259825985
20
7.374262162838038
30
0
10
-8.9153382270149422
20
7.3839361893277964
30
0
10
-8.9570543312563284
20
7.3932880384493957
30
0
10
-8.9989430608007375
20
7.402322280769468
30
0
10
-9.0409995881158238
20
7.4110433161710985
30
0
10
-9.0832197866615836
20
7.4194544357950445
30
0
10
-9.1256003026697989
20
7.4275576936465448
30
0
10
-9.1681382649494498
20
7.4353543905879462
30
0
10
-9.2108310934361999
20
7.4428453912837691
30
0
10
-9.2536762845575105
20
7.4500314814317328
30
0
10
-9.2966711604403258
20
7.4569137843846578
30
0
10
-9.339812827375372
20
7.4634938322338273
30
0
10
-9.3830983003825246
20
7.4697733618797511
30
0
10
-9.4265245816423811
20
7.4757541886633749
30
0
10
-9.4700887487447556
20
7.4814380622543597
30
0
10
-9.5137880576247493
20
7.4868265031904437
30
0
10
-9.5576199570313882
20
7.4919207690975851
30
0
10
-9.6015820213496301
20
7.49672194239528
30
0
10
-9.64567190331943
20
7.5012309877784293
30
0
10
-9.6898872831679697
20
7.5054488187251227
30
0
10
-9.734225805186794
20
7.5093763752643028
30
0
10
-9.7786850687208915
20
7.5130146494343943
30
0
10
-9.8232626821025928
20
7.5163646473796426
30
0
10
-9.8679563017229874
20
7.5194273695458289
30
0
10
-9.9127636709098539
20
7.5222037868415113
30
0
10
-9.9576826712124351
20
7.5246948176632422
30
0
10
-10.002711322280307
20
7.5269013169767449
30
0
10
-10.047847698894937
20
7.5288240865772584
30
0
10
-10.093089863064627
20
7.530463882260122
30
0
10
-10.138435797005226
20
7.5318214238885357
30
0
10
-10.183883316442303
20
7.5328974071321237
30
0
10
-10.229430050288347
20
7.533692513754394
30
0
10
-10.275073601824067
20
7.5342074138460999
30
0
10
-10.320811677293214
20
7.5344427719663765
30
0
10
-10.366642222615445
20
7.5343992523916477
30
0
10
-10.412563566033
20
7.534077530041583
30
0
10
-10.458574528924078
20
7.5334782915212948
30
0
10
-10.504674330083432
20
7.5326021703138393
30
0
10
-10.541624877244153
20
7.5316801869377636
30
0
10
-10.569377464928378
20
7.5308644996242249
30
0
10
-10.58789681858115
20
7.5302655265238343
30
0
10
-10.597160902538583
20
7.5299522445834723
30
0
0
ARC
5
168
100
AcDbEntity
8
0
100
AcDbCircle
10
2.6978419498391304e-13
20
3.0975222387041867e-13
30
0
40
13.000000000000041
100
AcDbArc
50
144.60380098464339
51
149.94165356081481
0
SPLINE
5
169
100
AcDbEntity
8
0
100
AcDbSpline
70
1064
71
5
72
81
73
75
74
0
42
0.000000001
43
0.0000000001
44
0.0000000001
40
0
40
0
40
0
40
0
40
0
40
0
40
0.014285714285714285
40
0.028571428571428571
40
0.042857142857142858
40
0.057142857142857141
40
0.071428571428571425
40
0.085714285714285715
40
0.10000000000000001
40
0.1142857142857143
40
0.12857142857142859
40
0.14285714285714288
40
0.15714285714285717
40
0.17142857142857146
40
0.18571428571428575
40
0.20000000000000004
40
0.21428571428571433
40
0.22857142857142862
40
0.24285714285714291
40
0.25714285714285717
40
0.27142857142857146
40
0.28571428571428575
40
0.30000000000000004
40
0.31428571428571433
40
0.32857142857142863
40
0.34285714285714292
40
0.35714285714285721
40
0.3714285714285715
40
0.38571428571428579
40
0.40000000000000008
40
0.41428571428571437
40
0.42857142857142866
40
0.44285714285714295
40
0.45714285714285724
40
0.47142857142857153
40
0.48571428571428582
40
0.50000000000000011
40
0.51428571428571435
40
0.52857142857142858
40
0.54285714285714282
40
0.55714285714285705
40
0.57142857142857129
40
0.58571428571428552
40
0.59999999999999976
40
0.61428571428571399
40
0.62857142857142823
40
0.64285714285714246
40
0.6571428571428567
40
0.67142857142857093
40
0.68571428571428517
40
0.6999999999999994
40
0.71428571428571364
40
0.72857142857142787
40
0.74285714285714211
40
0.75714285714285634
40
0.77142857142857058
40
0.78571428571428481
40
0.79999999999999905
40
0.81428571428571328
40
0.82857142857142752
40
0.84285714285714175
40
0.85714285714285599
40
0.87142857142857022
40
0.88571428571428445
40
0.89999999999999869
40
0.91428571428571292
40
0.92857142857142716
40
0.94285714285714139
40
0.95714285714285563
40
0.97142857142856986
40
0.9857142857142841
40
1
40
1
40
1
40
1
40
1
40
1
10
-9.4654717445819188
20
4.153376152146536
30
0
10
-9.4727577245687282
20
4.1565806856791889
30
0
10
-9.4871988126507283
20
4.1632139349152766
30
0
10
-9.5084678356251935
20
4.1738363453997973
30
0
10
-9.5360830988704368
20
4.189279653467505
30
0
10
-9.5696044122474895
20
4.2103405381346137
30
0
10
-9.6024325604245337
20
4.2326798976275013
30
0
10
-9.6348649599363245
20
4.2558260942635471
30
0
10
-9.6671146522146838
20
4.2794324252492855
30
0
10
-9.6992519700641147
20
4.3033668878971651
30
0
10
-9.7312544146616737
20
4.3276381495912162
30
0
10
-9.7630447984486874
20
4.3523393337938678
30
0
10
-9.7945316556736213
20
4.3775882398897084
30
0
10
-9.8256537955790701
20
4.4034616201436734
30
0
10
-9.8564066119060705
20
4.4299560784194245
30
0
10
-9.8868186609235647
20
4.4570216993296814
30
0
10
-9.916937193165861
20
4.484582561162334
30
0
10
-9.946811349515043
20
4.512560714944037
30
0
10
-9.9764735222675647
20
4.5409027307964358
30
0
10
-10.005931450042358
20
4.5695909313690004
30
0
10
-10.035178485717051
20
4.5986286503350895
30
0
10
-10.064199804262229
20
4.6280312949587774
30
0
10
-10.092979665167821
20
4.6578159037531783
30
0
10
-10.121509614253252
20
4.6879893539663939
30
0
10
-10.149790968179575
20
4.7185447695604683
30
0
10
-10.177830521052263
20
4.7494676491564247
30
0
10
-10.205637949410676
20
4.7807395580248873
30
0
10
-10.233222783481404
20
4.8123424436063802
30
0
10
-10.260590946312957
20
4.8442635671123409
30
0
10
-10.287744032449218
20
4.8764965208336637
30
0
10
-10.314681117669451
20
4.9090386283161278
30
0
10
-10.341399896843267
20
4.9418893046376979
30
0
10
-10.367897987448671
20
4.9750481807078435
30
0
10
-10.394174433994889
20
5.0085129388672458
30
0
10
-10.420229954960309
20
5.0422789526053089
30
0
10
-10.446066192122869
20
5.076340357220376
30
0
10
-10.471685235119315
20
5.1106907259678689
30
0
10
-10.497089080794668
20
5.1453238397924137
30
0
10
-10.522279008649193
20
5.1802345778719152
30
0
10
-10.547255493866105
20
5.2154190362468844
30
0
10
-10.572018527015562
20
5.2508740627923558
30
0
10
-10.596567822826614
20
5.2865969514046327
30
0
10
-10.620903055973432
20
5.3225850983634073
30
0
10
-10.645024135865009
20
5.3588356011320393
30
0
10
-10.668931254050324
20
5.3953451910462702
30
0
10
-10.692624750464093
20
5.4321104313381232
30
0
10
-10.716105031059337
20
5.4691278409752719
30
0
10
-10.739372473378497
20
5.5063940348008611
30
0
10
-10.762427320625591
20
5.543905885071462
30
0
10
-10.785269656949479
20
5.5816605486508495
30
0
10
-10.807899459316655
20
5.6196553694686715
30
0
10
-10.830316630157409
20
5.6578878116333371
30
0
10
-10.852521036732183
20
5.6963553855327609
30
0
10
-10.874512555524717
20
5.7350555578370273
30
0
10
-10.896291091656778
20
5.7739857327258672
30
0
10
-10.917856566814701
20
5.8131433166944246
30
0
10
-10.939208917465653
20
5.8525257623208518
30
0
10
-10.960348089323604
20
5.8921306135339044
30
0
10
-10.981274037755194
20
5.9319555618072739
30
0
10
-11.001986717797301
20
5.9719984505852572
30
0
10
-11.022486059023846
20
6.0122571955496982
30
0
10
-11.042771943859609
20
6.0527297198726124
30
0
10
-11.062844188897357
20
6.0934138890709981
30
0
10
-11.082702519560048
20
6.1343074272673341
30
0
10
-11.102346571016229
20
6.1754078944297621
30
0
10
-11.121775957168721
20
6.2167128320599776
30
0
10
-11.140990329660987
20
6.2582198776160585
30
0
10
-11.159989439444306
20
6.2999268866904057
30
0
10
-11.178773205973936
20
6.3418320582269132
30
0
10
-11.197341764190657
20
6.3839340348874032
30
0
10
-11.215695365806546
20
6.4262318429042189
30
0
10
-11.230206512257679
20
6.460226248583627
30
0
10
-11.240993378552758
20
6.4858097390510396
30
0
10
-11.248141750994741
20
6.5029043580851731
30
0
10
-11.251705219275847
20
6.511461407281832
30
0
0
LINE
5
170
100
AcDbEntity
8
0
100
AcDbLine
10
-9.4654717445819188
20
4.153376152146536
30
0
11
-8.2738940856466652
21
3.6292942068584608
31
0
0
ARC
5
171
100
AcDbEntity
8
0
100
AcDbCircle
10
-8.4751950963474503
20
3.1716066462990296
30
0
40
0.49999999999999989
100
AcDbArc
50
-20.516967764751385
51
66.259055500822527
0
ARC
5
172
100
AcDbEntity
8
0
100
AcDbCircle
10
2.6978419498391304e-13
20
3.0975222387041867e-13
30
0
40
8.5492000000001465
100
AcDbArc
50
159.48303223525122
51
167.78969503748107
0
ARC
5
173
100
AcDbEntity
8
0
100
AcDbCircle
10
-8.8444878261385078
20
1.9139111090350429
30
0
40
0.49999999999999994
100
AcDbArc
50
261.01367177190468
51
347.78969503747874
0
LINE
5
174
100
AcDbEntity
8
0
100
AcDbLine
10
-8.9225872166040947
20
1.4200482888016266
30
0
11
-10.208346223140349
21
1.6233780204235781
31
0
0
SPLINE
5
175
100
AcDbEntity
8
0
100
AcDbSpline
70
1064
71
5
72
81
73
75
74
0
42
0.000000001
43
0.0000000001
44
0.0000000001
40
0
40
0
40
0
40
0
40
0
40
0
40
0.014285714285714285
40
0.028571428571428571
40
0.042857142857142858
40
0.057142857142857141
40
0.071428571428571425
40
0.085714285714285715
40
0.10000000000000001
40
0.1142857142857143
40
0.12857142857142859
40
0.14285714285714288
40
0.15714285714285717
40
0.17142857142857146
40
0.18571428571428575
40
0.20000000000000004
40
0.21428571428571433
40
0.22857142857142862
40
0.24285714285714291
40
0.25714285714285717
40
0.27142857142857146
40
0.28571428571428575
40
0.30000000000000004
40
0.31428571428571433
40
0.32857142857142863
40
0.34285714285714292
40
0.35714285714285721
40
0.3714285714285715
40
0.38571428571428579
40
0.40000000000000008
40
0.41428571428571437
40
0.42857142857142866
40
0.44285714285714295
40
0.45714285714285724
40
0.47142857142857153
40
0.48571428571428582
40
0.50000000000000011
40
0.51428571428571435
40
0.52857142857142858
40
0.54285714285714282
40
0.55714285714285705
40
0.57142857142857129
40
0.58571428571428552
40
0.59999999999999976
40
0.61428571428571399
40
0.62857142857142823
40
0.64285714285714246
40
0.6571428571428567
40
0.67142857142857093
40
0.68571428571428517
40
0.6999999999999994
40
0.71428571428571364
40
0.72857142857142787
40
0.74285714285714211
40
0.75714285714285634
40
0.77142857142857058
40
0.78571428571428481
40
0.79999999999999905
40
0.81428571428571328
40
0.82857142857142752
40
0.84285714285714175
40
0.85714285714285599
40
0.87142857142857022
40
0.88571428571428445
40
0.89999999999999869
40
0.91428571428571292
40
0.92857142857142716
40
0.94285714285714139
40
0.95714285714285563
40
0.97142857142856986
40
0.9857142857142841
40
1
40
1
40
1
40
1
40
1
40
1
10
-10.208346223140349
20
1.6233780204235781
30
0
10
-10.216208081173049
20
1.6246212934441924
30
0
10
-10.231942902829342
20
1.6268484907557854
30
0
10
-10.255578452234179
20
1.6294112523758952
30
0
10
-10.287159172697248
20
1.6313494534004958
30
0
10
-10.326745469903598
20
1.6317549000360956
30
0
10
-10.366439835111512
20
1.6307100718075087
30
0
10
-10.406237484449296
20
1.6287725310999299
30
0
10
-10.446130198092442
20
1.62634912175706
30
0
10
-10.486105777720304
20
1.6235889162910615
30
0
10
-10.526149982060186
20
1.6204724594524733
30
0
10
-10.566248223150511
20
1.6168796800547165
30
0
10
-10.606387242260254
20
1.6126620288306648
30
0
10
-10.646557057855823
20
1.6077218554451811
30
0
10
-10.686751958815666
20
1.6020595265783482
30
0
10
-10.726968981906133
20
1.5957324724106428
30
0
10
-10.76720683042964
20
1.5888301079180893
30
0
10
-10.807464701930179
20
1.5814445755165556
30
0
10
-10.847740960168466
20
1.5736383358776009
30
0
10
-10.888032558187779
20
1.5654304439480737
30
0
10
-10.928335706392826
20
1.5568145015578116
30
0
10
-10.968646262971083
20
1.5477695322754579
30
0
10
-11.008960197878501
20
1.5382726924294303
30
0
10
-11.049274117126844
20
1.5283136258353731
30
0
10
-11.089585410895088
20
1.5178988288252107
30
0
10
-11.129891954711082
20
1.5070441739059772
30
0
10
-11.17019192243059
20
1.4957704008910393
30
0
10
-11.210483571439884
20
1.4840978489893248
30
0
10
-11.250764997415391
20
1.4720404369935043
30
0
10
-11.291034077503694
20
1.4596044174870062
30
0
10
-11.331288587200438
20
1.44679154237495
30
0
10
-11.371526271073808
20
1.4336010574774827
30
0
10
-11.411744925273359
20
1.4200319852046797
30
0
10
-11.451942492967868
20
1.4060857587183175
30
0
10
-11.492117077299348
20
1.3917666585255226
30
0
10
-11.532266888722191
20
1.3770805059394466
30
0
10
-11.572390210590251
20
1.3620338372245933
30
0
10
-11.612485360481275
20
1.3466329637591894
30
0
10
-11.652550646253935
20
1.3308828852029824
30
0
10
-11.692584357017946
20
1.314787142679128
30
0
10
-11.732584780672994
20
1.2983483828257283
30
0
10
-11.772550214203779
20
1.2815687279329635
30
0
10
-11.812478976251313
20
1.2644501925053149
30
0
10
-11.852369421375816
20
1.2469951693347898
30
0
10
-11.892219943545221
20
1.2292065117559419
30
0
10
-11.932028970673766
20
1.2110872947445539
30
0
10
-11.971794962282701
20
1.1926406662061426
30
0
10
-12.011516405826963
20
1.1738696780307252
30
0
10
-12.051191814917035
20
1.1547770929295333
30
0
10
-12.090819723227943
20
1.135365348195261
30
0
10
-12.130398675402629
20
1.1156366658036312
30
0
10
-12.169927218353722
20
1.0955931263322276
30
0
10
-12.209403894427687
20
1.0752367524115949
30
0
10
-12.248827230094486
20
1.054569608436543
30
0
10
-12.288195742131062
20
1.0335938268549938
30
0
10
-12.327507962501194
20
1.0123115471225088
30
0
10
-12.366762460517432
20
0.99072487791827468
30
0
10
-12.40595786265909
20
0.9688358560716569
30
0
10
-12.445092883294649
20
0.94664639950795371
30
0
10
-12.484166318676685
20
0.92415829812837114
30
0
10
-12.523176982691542
20
0.90137326729770595
30
0
10
-12.562123653610664
20
0.87829299058887567
30
0
10
-12.601005023153441
20
0.85491916448580962
30
0
10
-12.639819629898676
20
0.83125355513095611
30
0
10
-12.678565847749809
20
0.80729801796696099
30
0
10
-12.717242022736686
20
0.78305441247431395
30
0
10
-12.755846584516545
20
0.75852453781399176
30
0
10
-12.794378164221996
20
0.73371006333055799
30
0
10
-12.832835720370035
20
0.70861246062304806
30
0
10
-12.871218632647658
20
0.68323294451149552
30
0
10
-12.90952658634999
20
0.65757247026720189
30
0
10
-12.94011290284287
20
0.63681987447246224
30
0
10
-12.963018871421452
20
0.62112949294615483
30
0
10
-12.978274513800969
20
0.61061328621179611
30
0
10
-12.985898584154272
20
0.60534119474897041
30
0
0
ARC
5
176
100
AcDbEntity
8
0
100
AcDbCircle
10
2.6978419498391304e-13
20
3.0975222387041867e-13
30
0
40
13.000000000000256
100
AcDbArc
50
177.33107371191579
51
182.66892628808682
0
SPLINE
5
177
100
AcDbEntity
8
0
100
AcDbSpline
70
1064
71
5
72
81
73
75
74
0
42
0.000000001
43
0.0000000001
44
0.0000000001
40
0
40
0
40
0
40
0
40
0
40
0
40
0.014285714285714285
40
0.028571428571428571
40
0.042857142857142858
40
0.057142857142857141
40
0.071428571428571425
40
0.085714285714285715
40
0.10000000000000001
40
0.1142857142857143
40
0.12857142857142859
40
0.14285714285714288
40
0.15714285714285717
40
0.17142857142857146
40
0.18571428571428575
40
0.20000000000000004
40
0.21428571428571433
40
0.22857142857142862
40
0.24285714285714291
40
0.25714285714285717
40
0.27142857142857146
40
0.28571428571428575
40
0.30000000000000004
40
0.31428571428571433
40
0.32857142857142863
40
0.34285714285714292
40
0.35714285714285721
40
0.3714285714285715
40
0.38571428571428579
40
0.40000000000000008
40
0.41428571428571437
40
0.42857142857142866
40
0.44285714285714295
40
0.45714285714285724
40
0.47142857142857153
40
0.48571428571428582
40
0.50000000000000011
40
0.51428571428571435
40
0.52857142857142858
40
0.54285714285714282
40
0.55714285714285705
40
0.57142857142857129
40
0.58571428571428552
40
0.59999999999999976
40
0.61428571428571399
40
0.62857142857142823
40
0.64285714285714246
40
0.6571428571428567
40
0.67142857142857093
40
0.68571428571428517
40
0.6999999999999994
40
0.71428571428571364
40
0.72857142857142787
40
0.74285714285714211
40
0.75714285714285634
40
0.77142857142857058
40
0.78571428571428481
40
0.79999999999999905
40
0.81428571428571328
40
0.82857142857142752
40
0.84285714285714175
40
0.85714285714285599
40
0.87142857142857022
40
0.88571428571428445
40
0.89999999999999869
40
0.91428571428571292
40
0.92857142857142716
40
0.94285714285714139
40
0.95714285714285563
40
0.97142857142856986
40
0.9857142857142841
40
1
40
1
40
1
40
1
40
1
40
1
10
-10.208346223140349
20
-1.6233780204235781
30
0
10
-10.216208081173049
20
-1.6246212934441924
30
0
10
-10.231942902829342
20
-1.6268484907557854
30
0
10
-10.255578452234179
20
-1.6294112523758952
30
0
10
-10.287159172697248
20
-1.6313494534004958
30
0
10
-10.326745469903598
20
-1.6317549000360956
30
0
10
-10.366439835111512
20
-1.6307100718075087
30
0
10
-10.406237484449296
20
-1.6287725310999299
30
0
10
-10.446130198092442
20
-1.62634912175706
30
0
10
-10.486105777720304
20
-1.6235889162910615
30
0
10
-10.526149982060186
20
-1.6204724594524733
30
0
10
-10.566248223150511
20
-1.6168796800547165
30
0
10
-10.606387242260254
20
-1.6126620288306648
30
0
10
-10.646557057855823
20
-1.6077218554451811
30
0
10
-10.686751958815666
20
-1.6020595265783482
30
0
10
-10.726968981906133
20
-1.5957324724106428
30
0
10
-10.76720683042964
20
-1.5888301079180893
30
0
10
-10.807464701930179
20
-1.5814445755165556
30
0
10
-10.847740960168466
20
-1.5736383358776009
30
0
10
-10.888032558187779
20
-1.5654304439480737
30
0
10
-10.928335706392826
20
-1.5568145015578116
30
0
10
-10.968646262971083
20
-1.5477695322754579
30
0
10
-11.008960197878501
20
-1.5382726924294303
30
0
10
-11.049274117126844
20
-1.5283136258353731
30
0
10
-11.089585410895088
20
-1.5178988288252107
30
0
10
-11.129891954711082
20
-1.5070441739059772
30
0
10
-11.17019192243059
20
-1.4957704008910393
30
0
10
-11.210483571439884
20
-1.4840978489893248
30
0
10
-11.250764997415391
20
-1.4720404369935043
30
0
10
-11.291034077503694
20
-1.4596044174870062
30
0
10
-11.331288587200438
20
-1.44679154237495
30
0
10
-11.371526271073808
20
-1.4336010574774827
30
0
10
-11.411744925273359
20
-1.4200319852046797
30
0
10
-11.451942492967868
20
-1.4060857587183175
30
0
10
-11.492117077299348
20
-1.3917666585255226
30
0
10
-11.532266888722191
20
-1.3770805059394466
30
0
10
-11.572390210590251
20
-1.3620338372245933
30
0
10
-11.612485360481275
20
-1.3466329637591894
30
0
10
-11.652550646253935
20
-1.3308828852029824
30
0
10
-11.692584357017946
20
-1.314787142679128
30
0
10
-11.732584780672994
20
-1.2983483828257283
30
0
10
-11.772550214203779
20
-1.2815687279329635
30
0
10
-11.812478976251313
20
-1.2644501925053149
30
0
10
-11.852369421375816
20
-1.2469951693347898
30
0
10
-11.892219943545221
20
-1.2292065117559419
30
0
10
-11.932028970673766
20
-1.2110872947445539
30
0
10
-11.971794962282701
20
-1.1926406662061426
30
0
10
-12.011516405826963
20
-1.1738696780307252
30
0
10
-12.051191814917035
20
-1.1547770929295333
30
0
10
-12.090819723227943
20
-1.135365348195261
30
0
10
-12.130398675402629
20
-1.1156366658036312
30
0
10
-12.169927218353722
20
-1.0955931263322276
30
0
10
-12.209403894427687
20
-1.0752367524115949
30
0
10
-12.248827230094486
20
-1.054569608436543
30
0
10
-12.288195742131062
20
-1.0335938268549938
30
0
10
-12.327507962501194
20
-1.0123115471225088
30
0
10
-12.366762460517432
20
-0.99072487791827468
30
0
10
-12.40595786265909
20
-0.9688358560716569
30
0
10
-12.445092883294649
20
-0.94664639950795371
30
0
10
-12.484166318676685
20
-0.92415829812837114
30
0
10
-12.523176982691542
20
-0.90137326729770595
30
0
10
-12.562123653610664
20
-0.87829299058887567
30
0
10
-12.601005023153441
20
-0.85491916448580962
30
0
10
-12.639819629898676
20
-0.83125355513095611
30
0
10
-12.678565847749809
20
-0.80729801796696099
30
0
10
-12.717242022736686
20
-0.78305441247431395
30
0
10
-12.755846584516545
20
-0.75852453781399176
30
0
10
-12.794378164221996
20
-0.73371006333055799
30
0
10
-12.832835720370035
20
-0.70861246062304806
30
0
10
-12.871218632647658
20
-0.68323294451149552
30
0
10
-12.90952658634999
20
-0.65757247026720189
30
0
10
-12.94011290284287
20
-0.63681987447246224
30
0
10
-12.963018871421452
20
-0.62112949294615483
30
0
10
-12.978274513800969
20
-0.61061328621179611
30
0
10
-12.985898584154272
20
-0.60534119474897041
30
0
0
LINE
5
178
100
AcDbEntity
8
0
100
AcDbLine
10
-10.208346223140349
20
-1.6233780204235781
30
0
11
-8.9225872166040947
21
-1.420048288801627
31
0
0
ARC
5
179
100
AcDbEntity
8
0
100
AcDbCircle
10
-8.8444878261385078
20
-1.9139111090350438
30
0
40
0.49999999999999989
100
AcDbArc
50
12.210304962521343
51
98.986328228095317
0
ARC
5
180
100
AcDbEntity
8
0
100
AcDbCircle
10
2.6978419498391304e-13
20
3.0975222387041867e-13
30
0
40
8.5492000000003312
100
AcDbArc
50
192.21030496252297
51
200.51696776475259
0
ARC
5
181
100
AcDbEntity
8
0
100
AcDbCircle
10
-8.4751950963474503
20
-3.1716066462990291
30
0
40
0.5
100
AcDbArc
50
-66.259055500822512
51
20.516967764752756
0
LINE
5
182
100
AcDbEntity
8
0
100
AcDbLine
10
-8.2738940856466652
20
-3.6292942068584599
30
0
11
-9.4654717445819188
21
-4.153376152146536
31
0
0
SPLINE
5
183
100
AcDbEntity
8
0
100
AcDbSpline
70
1064
71
5
72
81
73
75
74
0
42
0.000000001
43
0.0000000001
44
0.0000000001
40
0
40
0
40
0
40
0
40
0
40
0
40
0.014285714285714285
40
0.028571428571428571
40
0.042857142857142858
40
0.057142857142857141
40
0.071428571428571425
40
0.085714285714285715
40
0.10000000000000001
40
0.1142857142857143
40
0.12857142857142859
40
0.14285714285714288
40
0.15714285714285717
40
0.17142857142857146
40
0.18571428571428575
40
0.20000000000000004
40
0.21428571428571433
40
0.22857142857142862
40
0.24285714285714291
40
0.25714285714285717
40
0.27142857142857146
40
0.28571428571428575
40
0.30000000000000004
40
0.31428571428571433
40
0.32857142857142863
40
0.34285714285714292
40
0.35714285714285721
40
0.3714285714285715
40
0.38571428571428579
40
0.40000000000000008
40
0.41428571428571437
40
0.42857142857142866
40
0.44285714285714295
40
0.45714285714285724
40
0.47142857142857153
40
0.48571428571428582
40
0.50000000000000011
40
0.51428571428571435
40
0.52857142857142858
40
0.54285714285714282
40
0.55714285714285705
40
0.57142857142857129
40
0.58571428571428552
40
0.59999999999999976
40
0.61428571428571399
40
0.62857142857142823
40
0.64285714285714246
40
0.6571428571428567
40
0.67142857142857093
40
0.68571428571428517
40
0.6999999999999994
40
0.71428571428571364
40
0.72857142857142787
40
0.74285714285714211
40
0.75714285714285634
40
0.77142857142857058
40
0.78571428571428481
40
0.79999999999999905
40
0.81428571428571328
40
0.82857142857142752
40
0.84285714285714175
40
0.85714285714285599
40
0.87142857142857022
40
0.88571428571428445
40
0.89999999999999869
40
0.91428571428571292
40
0.92857142857142716
40
0.94285714285714139
40
0.95714285714285563
40
0.97142857142856986
40
0.9857142857142841
40
1
40
1
40
1
40
1
40
1
40
1
10
-9.4654717445819188
20
-4.153376152146536
30
0
10
-9.4727577245687282
20
-4.1565806856791889
30
0
10
-9.4871988126507283
20
-4.1632139349152766
30
0
10
-9.5084678356251935
20
-4.1738363453997973
30
0
10
-9.5360830988704368
20
-4.189279653467505
30
0
10
-9.5696044122474895
20
-4.2103405381346137
30
0
10
-9.6024325604245337
20
-4.2326798976275013
30
0
10
-9.6348649599363245
20
-4.2558260942635471
30
0
10
-9.6671146522146838
20
-4.2794324252492855
30
0
10
-9.6992519700641147
20
-4.3033668878971651
30
0
10
-9.7312544146616737
20
-4.3276381495912162
30
0
10
-9.7630447984486874
20
-4.3523393337938678
30
0
10
-9.7945316556736213
20
-4.3775882398897084
30
0
10
-9.8256537955790701
20
-4.4034616201436734
30
0
10
-9.8564066119060705
20
-4.4299560784194245
30
0
10
-9.8868186609235647
20
-4.4570216993296814
30
0
10
-9.916937193165861
20
-4.484582561162334
30
0
10
-9.946811349515043
20
-4.512560714944037
30
0
10
-9.9764735222675647
20
-4.5409027307964358
30
0
10
-10.005931450042358
20
-4.5695909313690004
30
0
10
-10.035178485717051
20
-4.5986286503350895
30
0
10
-10.064199804262229
20
-4.6280312949587774
30
0
10
-10.092979665167821
20
-4.6578159037531783
30
0
10
-10.121509614253252
20
-4.6879893539663939
30
0
10
-10.149790968179575
20
-4.7185447695604683
30
0
10
-10.177830521052263
20
-4.7494676491564247
30
0
10
-10.205637949410676
20
-4.7807395580248873
30
0
10
-10.233222783481404
20
-4.8123424436063802
30
0
10
-10.260590946312957
20
-4.8442635671123409
30
0
10
-10.287744032449218
20
-4.8764965208336637
30
0
10
-10.314681117669451
20
-4.9090386283161278
30
0
10
-10.341399896843267
20
-4.9418893046376979
30
0
10
-10.367897987448671
20
-4.9750481807078435
30
0
10
-10.394174433994889
20
-5.0085129388672458
30
0
10
-10.420229954960309
20
-5.0422789526053089
30
0
10
-10.446066192122869
20
-5.076340357220376
30
0
10
-10.471685235119315
20
-5.1106907259678689
30
0
10
-10.497089080794668
20
-5.1453238397924137
30
0
10
-10.522279008649193
20
-5.1802345778719152
30
0
10
-10.547255493866105
20
-5.2154190362468844
30
0
10
-10.572018527015562
20
-5.2508740627923558
30
0
10
-10.596567822826614
20
-5.2865969514046327
30
0
10
-10.620903055973432
20
-5.3225850983634073
30
0
10
-10.645024135865009
20
-5.3588356011320393
30
0
10
-10.668931254050324
20
-5.3953451910462702
30
0
10
-10.692624750464093
20
-5.4321104313381232
30
0
10
-10.716105031059337
20
-5.4691278409752719
30
0
10
-10.739372473378497
20
-5.5063940348008611
30
0
10
-10.762427320625591
20
-5.543905885071462
30
0
10
-10.785269656949479
20
-5.5816605486508495
30
0
10
-10.807899459316655
20
-5.6196553694686715
30
0
10
-10.830316630157409
20
-5.6578878116333371
30
0
10
-10.852521036732183
20
-5.6963553855327609
30
0
10
-10.874512555524717
20
-5.7350555578370273
30
0
10
-10.896291091656778
20
-5.7739857327258672
30
0
10
-10.917856566814701
20
-5.8131433166944246
30
0
10
-10.939208917465653
20
-5.8525257623208518
30
0
10
-10.960348089323604
20
-5.8921306135339044
30
0
10
-10.981274037755194
20
-5.9319555618072739
30
0
10
-11.001986717797301
20
-5.9719984505852572
30
0
10
-11.022486059023846
20
-6.0122571955496982
30
0
10
-11.042771943859609
20
-6.0527297198726124
30
0
10
-11.062844188897357
20
-6.0934138890709981
30
0
10
-11.082702519560048
20
-6.1343074272673341
30
0
10
-11.102346571016229
20
-6.1754078944297621
30
0
10
-11.121775957168721
20
-6.2167128320599776
30
0
10
-11.140990329660987
20
-6.2582198776160585
30
0
10
-11.159989439444306
20
-6.2999268866904057
30
0
10
-11.178773205973936
20
-6.3418320582269132
30
0
10
-11.197341764190657
20
-6.3839340348874032
30
0
10
-11.215695365806546
20
-6.4262318429042189
30
0
10
-11.230206512257679
20
-6.460226248583627
30
0
10
-11.240993378552758
20
-6.4858097390510396
30
0
10
-11.248141750994741
20
-6.5029043580851731
30
0
10
-11.251705219275847
20
-6.511461407281832
30
0
0
ARC
5
184
100
AcDbEntity
8
0
100
AcDbCircle
10
2.6978419498391304e-13
20
3.0975222387041867e-13
30
0
40
13.000000000000389
100
AcDbArc
50
210.0583464391876
51
215.39619901535889
0
SPLINE
5
185
100
AcDbEntity
8
0
100
AcDbSpline
70
1064
71
5
72
81
73
75
74
0
42
0.000000001
43
0.0000000001
44
0.0000000001
40
0
40
0
40
0
40
0
40
0
40
0
40
0.014285714285714285
40
0.028571428571428571
40
0.042857142857142858
40
0.057142857142857141
40
0.071428571428571425
40
0.085714285714285715
40
0.10000000000000001
40
0.1142857142857143
40
0.12857142857142859
40
0.14285714285714288
40
0.15714285714285717
40
0.17142857142857146
40
0.18571428571428575
40
0.20000000000000004
40
0.21428571428571433
40
0.22857142857142862
40
0.24285714285714291
40
0.25714285714285717
40
0.27142857142857146
40
0.28571428571428575
40
0.30000000000000004
40
0.31428571428571433
40
0.32857142857142863
40
0.34285714285714292
40
0.35714285714285721
40
0.3714285714285715
40
0.38571428571428579
40
0.40000000000000008
40
0.41428571428571437
40
0.42857142857142866
40
0.44285714285714295
40
0.45714285714285724
40
0.47142857142857153
40
0.48571428571428582
40
0.50000000000000011
40
0.51428571428571435
40
0.52857142857142858
40
0.54285714285714282
40
0.55714285714285705
40
0.57142857142857129
40
0.58571428571428552
40
0.59999999999999976
40
0.61428571428571399
40
0.62857142857142823
40
0.64285714285714246
40
0.6571428571428567
40
0.67142857142857093
40
0.68571428571428517
40
0.6999999999999994
40
0.71428571428571364
40
0.72857142857142787
40
0.74285714285714211
40
0.75714285714285634
40
0.77142857142857058
40
0.78571428571428481
40
0.79999999999999905
40
0.81428571428571328
40
0.82857142857142752
40
0.84285714285714175
40
0.85714285714285599
40
0.87142857142857022
40
0.88571428571428445
40
0.89999999999999869
40
0.91428571428571292
40
0.92857142857142716
40
0.94285714285714139
40
0.95714285714285563
40
0.97142857142856986
40
0.9857142857142841
40
1
40
1
40
1
40
1
40
1
40
1
10
-7.7101429045794125
20
-6.8847211417501857
30
0
10
-7.7160845562818512
20
-6.8900174909245679
30
0
10
-7.7281174168135038
20
-6.9003980153740354
30
0
10
-7.7466153727134879
20
-6.9153322903919996
30
0
10
-7.7721348947860633
20
-6.9340366353782725
30
0
10
-7.8052178061621058
20
-6.9557796868745259
30
0
10
-7.8391757079143591
20
-6.9763611154904135
30
0
10
-7.873703134610146
20
-6.9962473861959493
30
0
10
-7.9085732149048233
20
-7.015776313839317
30
0
10
-7.9436950922332192
20
-7.0350667112879748
30
0
10
-7.9790673043763398
20
-7.0540945123312691
30
0
10
-8.0147424945444321
20
-7.0727508198118274
30
0
10
-8.0507898205803947
20
-7.0909034979227012
30
0
10
-8.0872536792408454
20
-7.1084650015499946
30
0
10
-8.1241290677823788
20
-7.1254325514991947
30
0
10
-8.1613824442745013
20
-7.141852859067459
30
0
10
-8.1989643764800579
20
-7.1578004438716132
30
0
10
-8.2368243733790596
20
-7.1733523872040585
30
0
10
-8.2749272896908987
20
-7.1885603497076609
30
0
10
-8.3132602602704271
20
-7.2034387141146023
30
0
10
-8.3518235562191645
20
-7.2179800491317367
30
0
10
-8.3906250339376847
20
-7.2321644690291649
30
0
10
-8.4296736533584795
20
-7.2459705776811614
30
0
10
-8.4689721582529227
20
-7.2593878279824731
30
0
10
-8.5085148409176643
20
-7.2724202740195114
30
0
10
-8.5482913328078158
20
-7.28508012001853
30
0
10
-8.5882888848834398
20
-7.2973838261326858
30
0
10
-8.6284950349580374
20
-7.3093475606652323
30
0
10
-8.6689006559452313
20
-7.3209820032946222
30
0
10
-8.7095005815852637
20
-7.3322912663275481
30
0
10
-8.7502919933545762
20
-7.3432756209025287
30
0
10
-8.7912734016035952
20
-7.3539332131845967
30
0
10
-8.8324434808603645
20
-7.3642620292812673
30
0
10
-8.8737997259825985
20
-7.374262162838038
30
0
10
-8.9153382270149422
20
-7.3839361893277964
30
0
10
-8.9570543312563284
20
-7.3932880384493957
30
0
10
-8.9989430608007375
20
-7.402322280769468
30
0
10
-9.0409995881158238
20
-7.4110433161710985
30
0
10
-9.0832197866615836
20
-7.4194544357950445
30
0
10
-9.1256003026697989
20
-7.4275576936465448
30
0
10
-9.1681382649494498
20
-7.4353543905879462
30
0
10
-9.2108310934361999
20
-7.4428453912837691
30
0
10
-9.2536762845575105
20
-7.4500314814317328
30
0
10
-9.2966711604403258
20
-7.4569137843846578
30
0
10
-9.339812827375372
20
-7.4634938322338273
30
0
10
-9.3830983003825246
20
-7.4697733618797511
30
0
10
-9.4265245816423811
20
-7.4757541886633749
30
0
10
-9.4700887487447556
20
-7.4814380622543597
30
0
10
-9.5137880576247493
20
-7.4868265031904437
30
0
10
-9.5576199570313882
20
-7.4919207690975851
30
0
10
-9.6015820213496301
20
-7.49672194239528
30
0
10
-9.64567190331943
20
-7.5012309877784293
30
0
10
-9.6898872831679697
20
-7.5054488187251227
30
0
10
-9.734225805186794
20
-7.5093763752643028
30
0
10
-9.7786850687208915
20
-7.5130146494343943
30
0
10
-9.8232626821025928
20
-7.5163646473796426
30
0
10
-9.8679563017229874
20
-7.5194273695458289
30
0
10
-9.9127636709098539
20
-7.5222037868415113
30
0
10
-9.9576826712124351
20
-7.5246948176632422
30
0
10
-10.002711322280307
20
-7.5269013169767449
30
0
10
-10.047847698894937
20
-7.5288240865772584
30
0
10
-10.093089863064627
20
-7.530463882260122
30
0
10
-10.138435797005226
20
-7.5318214238885357
30
0
10
-10.183883316442303
20
-7.5328974071321237
30
0
10
-10.229430050288347
20
-7.533692513754394
30
0
10
-10.275073601824067
20
-7.5342074138460999
30
0
10
-10.320811677293214
20
-7.5344427719663765
30
0
10
-10.366642222615445
20
-7.5343992523916477
30
0
10
-10.412563566033
20
-7.534077530041583
30
0
10
-10.458574528924078
20
-7.5334782915212948
30
0
10
-10.504674330083432
20
-7.5326021703138393
30
0
10
-10.541624877244153
20
-7.5316801869377636
30
0
10
-10.569377464928378
20
-7.5308644996242249
30
0
10
-10.58789681858115
20
-7.5302655265238343
30
0
10
-10.597160902538583
20
-7.5299522445834723
30
0
0
LINE
5
186
100
AcDbEntity
8
0
100
AcDbLine
10
-7.7101429045794125
20
-6.8847211417501857
30
0
11
-6.7384219502783962
21
-6.0185354863489451
31
0
0
ARC
5
187
100
AcDbEntity
8
0
100
AcDbCircle
10
-6.4057181632953384
20
-6.3917756103001775
30
0
40
0.49999999999999734
100
AcDbArc
50
44.937577689793478
51
131.71360095536809
0
CIRCLE
5
188
100
AcDbEntity
8
0
100
AcDbCircle
10
2.6978419498391304e-13
20
3.0975222387041867e-13
30
0
40
3.25
0
ENDSEC
0
SECTION
2
OBJECTS
0
DICTIONARY
5
C
100
AcDbDictionary
3
ACAD_GROUP
350
D
3
ACAD_MLINESTYLE
350
17
0
DICTIONARY
5
D
100
AcDbDictionary
0
DICTIONARY
5
1A
330
C
100
AcDbDictionary
0
DICTIONARY
5
17
100
AcDbDictionary
0
ENDSEC
0
EOF
