0
SECTION
2
HEADER
9
$INSUNITS
70
4
9
$ACADVER
1
AC1014
9
$HANDSEED
5
FFFF
0
ENDSEC
0
SECTION
2
TABLES
0
TABLE
2
VPORT
5
8
100
AcDbSymbolTable
0
ENDTAB
0
TABLE
2
LTYPE
5
5
100
AcDbSymbolTable
0
LTYPE
5
14
100
AcDbSymbolTableRecord
100
AcDbLinetypeTableRecord
2
BYBLOCK
70
0
0
LTYPE
5
15
100
AcDbSymbolTableRecord
100
AcDbLinetypeTableRecord
2
BYLAYER
70
0
0
ENDTAB
0
TABLE
2
LAYER
5
2
100
AcDbSymbolTable
70
2
0
LAYER
5
50
100
AcDbSymbolTableRecord
100
AcDbLayerTableRecord
2
0
70
0
6
CONTINUOUS
0
ENDTAB
0
TABLE
2
STYLE
5
3
100
AcDbSymbolTable
70
1
0
STYLE
5
11
100
AcDbSymbolTableRecord
100
AcDbTextStyleTableRecord
2
STANDARD
70
0
0
ENDTAB
0
TABLE
2
VIEW
5
6
100
AcDbSymbolTable
70
0
0
ENDTAB
0
TABLE
2
UCS
5
7
100
AcDbSymbolTable
70
0
0
ENDTAB
0
TABLE
2
APPID
5
9
100
AcDbSymbolTable
70
2
0
APPID
5
12
100
AcDbSymbolTableRecord
100
AcDbRegAppTableRecord
2
ACAD
70
0
0
ENDTAB
0
TABLE
2
DIMSTYLE
5
A
100
AcDbSymbolTable
70
1
0
ENDTAB
0
TABLE
2
BLOCK_RECORD
5
1
100
AcDbSymbolTable
70
1
0
BLOCK_RECORD
5
1F
100
AcDbSymbolTableRecord
100
AcDbBlockTableRecord
2
*MODEL_SPACE
0
BLOCK_RECORD
5
1B
100
AcDbSymbolTableRecord
100
AcDbBlockTableRecord
2
*PAPER_SPACE
0
ENDTAB
0
ENDSEC
0
SECTION
2
BLOCKS
0
BLOCK
5
20
100
AcDbEntity
100
AcDbBlockBegin
2
*MODEL_SPACE
0
ENDBLK
5
21
100
AcDbEntity
100
AcDbBlockEnd
0
BLOCK
5
1C
100
AcDbEntity
100
AcDbBlockBegin
2
*PAPER_SPACE
0
ENDBLK
5
1D
100
AcDbEntity
100
AcDbBlockEnd
0
ENDSEC
0
SECTION
2
ENTITIES
0
LINE
5
100
100
AcDbEntity
8
0
100
AcDbLine
10
-1.1791910514861508e-07
20
-17.000093655349112
30
0
11
-7.3552275381416621e-15
21
-3.9999996190334919
31
0
0
ARC
5
101
100
AcDbEntity
8
0
100
AcDbCircle
10
0
20
3.8096654386698958e-07
30
0
40
4.0000000000000355
100
AcDbArc
50
-90.000000000000099
51
90.000000000000099
0
LINE
5
102
100
AcDbEntity
8
0
100
AcDbLine
10
-6.8001160258290838e-15
20
3.9999999999999352
30
0
11
-1.1791909959395936e-07
21
17.000093655349083
31
0
0
SPLINE
5
103
100
AcDbEntity
8
0
100
AcDbSpline
70
1064
71
5
72
58
73
52
74
0
42
0.000000001
43
0.0000000001
44
0.0000000001
40
0.33306750190390944
40
0.33306750190390944
40
0.33306750190390944
40
0.33306750190390944
40
0.33306750190390944
40
0.33306750190390944
40
0.34285714285714292
40
0.35714285714285721
40
0.3714285714285715
40
0.38571428571428579
40
0.40000000000000008
40
0.41428571428571437
40
0.42857142857142866
40
0.44285714285714295
40
0.45714285714285724
40
0.47142857142857153
40
0.48571428571428582
40
0.50000000000000011
40
0.51428571428571435
40
0.52857142857142858
40
0.54285714285714282
40
0.55714285714285705
40
0.57142857142857129
40
0.58571428571428552
40
0.59999999999999976
40
0.61428571428571399
40
0.62857142857142823
40
0.64285714285714246
40
0.6571428571428567
40
0.67142857142857093
40
0.68571428571428517
40
0.6999999999999994
40
0.71428571428571364
40
0.72857142857142787
40
0.74285714285714211
40
0.75714285714285634
40
0.77142857142857058
40
0.78571428571428481
40
0.79999999999999905
40
0.81428571428571328
40
0.82857142857142752
40
0.84285714285714175
40
0.85714285714285599
40
0.87142857142857022
40
0.88571428571428445
40
0.89999999999999869
40
0.91428571428571292
40
0.92857142857142716
40
0.94285714285714139
40
0.95714285714285563
40
0.97142857142856986
40
0.9857142857142841
40
1
40
1
40
1
40
1
40
1
40
1
10
-1.1791909959615291e-07
20
17.000093655349083
30
0
10
-0.0021775275516424174
20
17.00606576666339
30
0
10
-0.0075544050176564702
20
17.020749969871936
30
0
10
-0.016207150084267909
20
17.044136412765404
30
0
10
-0.028263569850668489
20
17.07620823912621
30
0
10
-0.043896806872958383
20
17.116941630716795
30
0
10
-0.06092688995151474
20
17.160362911113147
30
0
10
-0.078301231975789198
20
17.203734599236792
30
0
10
-0.0960200123682875
20
17.247055061047604
30
0
10
-0.11408387536224029
20
17.290322641135749
30
0
10
-0.13249150140948379
20
17.333536028049846
30
0
10
-0.1512387638420426
20
17.376694379301625
30
0
10
-0.17032000495641964
20
17.419797124806067
30
0
10
-0.18972879493105027
20
17.462843848874424
30
0
10
-0.2094588275943815
20
17.505834151484272
30
0
10
-0.22950492431428354
20
17.548767493245446
30
0
10
-0.24986335692746303
20
17.591643143663681
30
0
10
-0.27053129327085534
20
17.634460262571199
30
0
10
-0.29150645614009901
20
17.677217949158639
30
0
10
-0.31278672433438293
20
17.719915300142954
30
0
10
-0.33436968288058366
20
17.762551475072851
30
0
10
-0.35625246530127108
20
17.805125719702342
30
0
10
-0.37843198830303126
20
17.847637332609921
30
0
10
-0.40090508908031813
20
17.89008564627175
30
0
10
-0.42366868779490097
20
17.932470004052835
30
0
10
-0.44671996636919498
20
17.974789736331267
30
0
10
-0.47005643348275183
20
18.017044148654275
30
0
10
-0.49367581667577498
20
18.059232528948282
30
0
10
-0.51757599273111954
20
18.10135415031472
30
0
10
-0.54175490677822336
20
18.143408276270655
30
0
10
-0.5662104796579488
20
18.185394164956968
30
0
10
-0.59094056839053666
20
18.227311075816747
30
0
10
-0.61594302598950212
20
18.269158278903557
30
0
10
-0.64121573838788049
20
18.310935064890973
30
0
10
-0.66675666531788425
20
18.352640753594404
30
0
10
-0.69256388543635272
20
18.394274707825812
30
0
10
-0.71863561225105943
20
18.435836332139822
30
0
10
-0.744970139534188
20
18.47732503644043
30
0
10
-0.77156579754031551
20
18.518740205606122
30
0
10
-0.79842090674667288
20
18.560081170153772
30
0
10
-0.82553372202213926
20
18.601347170025438
30
0
10
-0.85290240564261499
20
18.642537343004694
30
0
10
-0.88052511495155472
20
18.683650804792261
30
0
10
-0.90840007100103803
20
18.724686716171796
30
0
10
-0.93652563177761561
20
18.765644353719491
30
0
10
-0.96490036431083404
20
18.80652318464406
30
0
10
-0.99352310823151413
20
18.847322926309346
30
0
10
-1.0223929681351276
20
18.888043471390294
30
0
10
-1.0456860429953367
20
18.920556555457562
30
0
10
-1.063266598155993
20
18.944905757599241
30
0
10
-1.0750361737044487
20
18.961122737227814
30
0
10
-1.0809332628387534
20
18.96922727159145
30
0
0
ARC
5
104
100
AcDbEntity
8
0
100
AcDbCircle
10
-2.8782531913407183e-13
20
3.0597746558669314e-12
30
0
40
18.999999999996927
100
AcDbArc
50
93.261387970786558
51
97.32684732333108
0
SPLINE
5
105
100
AcDbEntity
8
0
100
AcDbSpline
70
1064
71
5
72
81
73
75
74
0
42
0.000000001
43
0.0000000001
44
0.0000000001
40
0
40
0
40
0
40
0
40
0
40
0
40
0.014285714285714285
40
0.028571428571428571
40
0.042857142857142858
40
0.057142857142857141
40
0.071428571428571425
40
0.085714285714285715
40
0.10000000000000001
40
0.1142857142857143
40
0.12857142857142859
40
0.14285714285714288
40
0.15714285714285717
40
0.17142857142857146
40
0.18571428571428575
40
0.20000000000000004
40
0.21428571428571433
40
0.22857142857142862
40
0.24285714285714291
40
0.25714285714285717
40
0.27142857142857146
40
0.28571428571428575
40
0.30000000000000004
40
0.31428571428571433
40
0.32857142857142863
40
0.34285714285714292
40
0.35714285714285721
40
0.3714285714285715
40
0.38571428571428579
40
0.40000000000000008
40
0.41428571428571437
40
0.42857142857142866
40
0.44285714285714295
40
0.45714285714285724
40
0.47142857142857153
40
0.48571428571428582
40
0.50000000000000011
40
0.51428571428571435
40
0.52857142857142858
40
0.54285714285714282
40
0.55714285714285705
40
0.57142857142857129
40
0.58571428571428552
40
0.59999999999999976
40
0.61428571428571399
40
0.62857142857142823
40
0.64285714285714246
40
0.6571428571428567
40
0.67142857142857093
40
0.68571428571428517
40
0.6999999999999994
40
0.71428571428571364
40
0.72857142857142787
40
0.74285714285714211
40
0.75714285714285634
40
0.77142857142857058
40
0.78571428571428481
40
0.79999999999999905
40
0.81428571428571328
40
0.82857142857142752
40
0.84285714285714175
40
0.85714285714285599
40
0.87142857142857022
40
0.88571428571428445
40
0.89999999999999869
40
0.91428571428571292
40
0.92857142857142716
40
0.94285714285714139
40
0.95714285714285563
40
0.97142857142856986
40
0.9857142857142841
40
1
40
1
40
1
40
1
40
1
40
1
10
-3.1690625978879399
20
15.657281509935244
30
0
10
-3.1708311485141092
20
15.66605278733547
30
0
10
-3.1741210781656806
20
15.683620516355843
30
0
10
-3.1783144665523873
20
15.710047632061011
30
0
10
-3.1824955649561137
20
15.745430028884449
30
0
10
-3.1857947512409912
20
15.789873272302364
30
0
10
-3.1877045321824204
20
15.834494407757392
30
0
10
-3.188755732370975
20
15.87925460934953
30
0
10
-3.1893416081567327
20
15.92412146041764
30
0
10
-3.1896117283472925
20
15.969075478586024
30
0
10
-3.1895532178350678
20
16.014106251889491
30
0
10
-3.1890553035122333
20
16.059209519703419
30
0
10
-3.1879772424304553
20
16.104384019920779
30
0
10
-3.1862214639106567
20
16.149628160100633
30
0
10
-3.1837838231976381
20
16.194937628191095
30
0
10
-3.1807162840419894
20
16.24030667587251
30
0
10
-3.1771028713545775
20
16.285728837199297
30
0
10
-3.1730320634710925
20
16.331197815283108
30
0
10
-3.1685669445182145
20
16.376708420489955
30
0
10
-3.1637286301032033
20
16.422257083818501
30
0
10
-3.1585129942662684
20
16.467841277078648
30
0
10
-3.1529010161680167
20
16.513459143024299
30
0
10
-3.1468708429728798
20
16.559109070080254
30
0
10
-3.1404110470814235
20
16.604789224900202
30
0
10
-3.1335267249465479
20
16.650497330330694
30
0
10
-3.1262323652358925
20
16.696230895763275
30
0
10
-3.1185476008664081
20
16.741987348734682
30
0
10
-3.1104921816057374
20
16.787764193803302
30
0
10
-3.1020803908204542
20
16.833559188950701
30
0
10
-3.093318916604658
20
16.879370409088207
30
0
10
-3.0842099325497001
20
16.925196138770971
30
0
10
-3.0747529620339957
20
16.971034804750303
30
0
10
-3.064947067612851
20
17.016884898180415
30
0
10
-3.0547933053880563
20
17.062744887473531
30
0
10
-3.0442955769564084
20
17.108613186213098
30
0
10
-3.0334593389354052
20
17.154488194420598
30
0
10
-3.0222908352840729
20
17.200368322008551
30
0
10
-3.0107961912954808
20
17.246252017009692
30
0
10
-2.9989803983130248
20
17.292137797646848
30
0
10
-2.9868469867929646
20
17.338024260815597
30
0
10
-2.9743985862949818
20
17.383910060245015
30
0
10
-2.9616372697264213
20
17.429793892028531
30
0
10
-2.948564956192794
20
17.475674478493588
30
0
10
-2.9351838651151976
20
17.521550549749008
30
0
10
-2.9214966755714999
20
17.567420837677449
30
0
10
-2.9075062894703207
20
17.613284086246747
30
0
10
-2.8932156931072504
20
17.659139058134937
30
0
10
-2.878627793224056
20
17.704984541968699
30
0
10
-2.8637452368724938
20
17.750819361707304
30
0
10
-2.8485703453481843
20
17.796642376943431
30
0
10
-2.8331052215748027
20
17.842452470164517
30
0
10
-2.8173518190504243
20
17.888248536708694
30
0
10
-2.8013120223291521
20
17.934029475051581
30
0
10
-2.7849877388522333
20
17.979794173921128
30
0
10
-2.7683809390341487
20
18.025541511598316
30
0
10
-2.7514935991775507
20
18.071270376057694
30
0
10
-2.7343276670150116
20
18.116979681591697
30
0
10
-2.7168850230912889
20
18.162668384698936
30
0
10
-2.6991674389520313
20
18.208335505994832
30
0
10
-2.6811765612582401
20
18.253980131905525
30
0
10
-2.6629139587561035
20
18.299601368863961
30
0
10
-2.6443811597321747
20
18.345198305407337
30
0
10
-2.6255796920949552
20
18.390769974840243
30
0
10
-2.6065111316011098
20
18.436315309379165
30
0
10
-2.587177126252143
20
18.48183312380764
30
0
10
-2.5675793248403025
20
18.527322210296006
30
0
10
-2.5477193218179424
20
18.572781417036349
30
0
10
-2.5275985983113363
20
18.618209731203354
30
0
10
-2.5072184649917522
20
18.663606365769883
30
0
10
-2.4865800105366191
20
18.708970829694923
30
0
10
-2.4656840953835761
20
18.75430285295068
30
0
10
-2.4487618929071573
20
18.7905424312506
30
0
10
-2.435954834259475
20
18.81770746048835
30
0
10
-2.4273655202878373
20
18.835810969053295
30
0
10
-2.423058044583823
20
18.844861095603164
30
0
0
LINE
5
106
100
AcDbEntity
8
0
100
AcDbLine
10
-3.1690625978879399
20
15.657281509935244
30
0
11
-2.984400792278862
21
14.74143556339774
31
0
0
ARC
5
107
100
AcDbEntity
8
0
100
AcDbCircle
10
-3.4745369115438818
20
14.642609531443469
30
0
40
0.49999999999999911
100
AcDbArc
50
-76.651201038194301
51
11.399691596224599
0
ARC
5
108
100
AcDbEntity
8
0
100
AcDbCircle
10
-2.8782531913407183e-13
20
3.0597746558669314e-12
30
0
40
14.549199999996956
100
AcDbArc
50
103.3487989618074
51
108.41590692055003
0
ARC
5
109
100
AcDbEntity
8
0
100
AcDbCircle
10
-4.7542297848867161
20
14.278505516772267
30
0
40
0.50000000000000011
100
AcDbArc
50
200.36501428612854
51
288.41590692054558
0
LINE
5
110
100
AcDbEntity
8
0
100
AcDbLine
10
-5.222977114076123
20
14.10450568522695
30
0
11
-5.54810524513071
21
14.980385516389269
31
0
0
SPLINE
5
111
100
AcDbEntity
8
0
100
AcDbSpline
70
1064
71
5
72
81
73
75
74
0
42
0.000000001
43
0.0000000001
44
0.0000000001
40
0
40
0
40
0
40
0
40
0
40
0
40
0.014285714285714285
40
0.028571428571428571
40
0.042857142857142858
40
0.057142857142857141
40
0.071428571428571425
40
0.085714285714285715
40
0.10000000000000001
40
0.1142857142857143
40
0.12857142857142859
40
0.14285714285714288
40
0.15714285714285717
40
0.17142857142857146
40
0.18571428571428575
40
0.20000000000000004
40
0.21428571428571433
40
0.22857142857142862
40
0.24285714285714291
40
0.25714285714285717
40
0.27142857142857146
40
0.28571428571428575
40
0.30000000000000004
40
0.31428571428571433
40
0.32857142857142863
40
0.34285714285714292
40
0.35714285714285721
40
0.3714285714285715
40
0.38571428571428579
40
0.40000000000000008
40
0.41428571428571437
40
0.42857142857142866
40
0.44285714285714295
40
0.45714285714285724
40
0.47142857142857153
40
0.48571428571428582
40
0.50000000000000011
40
0.51428571428571435
40
0.52857142857142858
40
0.54285714285714282
40
0.55714285714285705
40
0.57142857142857129
40
0.58571428571428552
40
0.59999999999999976
40
0.61428571428571399
40
0.62857142857142823
40
0.64285714285714246
40
0.6571428571428567
40
0.67142857142857093
40
0.68571428571428517
40
0.6999999999999994
40
0.71428571428571364
40
0.72857142857142787
40
0.74285714285714211
40
0.75714285714285634
40
0.77142857142857058
40
0.78571428571428481
40
0.79999999999999905
40
0.81428571428571328
40
0.82857142857142752
40
0.84285714285714175
40
0.85714285714285599
40
0.87142857142857022
40
0.88571428571428445
40
0.89999999999999869
40
0.91428571428571292
40
0.92857142857142716
40
0.94285714285714139
40
0.95714285714285563
40
0.97142857142856986
40
0.9857142857142841
40
1
40
1
40
1
40
1
40
1
40
1
10
-5.54810524513071
20
14.980385516389269
30
0
10
-5.5512190756159345
20
14.988774028668473
30
0
10
-5.5576701386358609
20
15.005442337699638
30
0
10
-5.5680169316519956
20
15.03011865883828
30
0
10
-5.5830885218305237
20
15.062402443596628
30
0
10
-5.6036798498749345
20
15.101925648489624
30
0
10
-5.6255461222406744
20
15.140868672580821
30
0
10
-5.6482155835622594
20
15.179477948562045
30
0
10
-5.67133681537908
20
15.217932938023457
30
0
10
-5.6947723955787684
20
15.25629581454627
30
0
10
-5.7185277896050675
20
15.294550947828531
30
0
10
-5.7426949357225894
20
15.332636400887438
30
0
10
-5.7673928315840106
20
15.370477009043263
30
0
10
-5.7927035951404946
20
15.40802005403182
30
0
10
-5.8186284803311406
20
15.445259687740251
30
0
10
-5.8451202805844087
20
15.482218378238306
30
0
10
-5.8721041525995323
20
15.518934861483809
30
0
10
-5.8995015556948189
20
15.555450361596021
30
0
10
-5.9272561226745246
20
15.59179367577244
30
0
10
-5.9553480218504316
20
15.627972885521771
30
0
10
-5.9837794302636809
20
15.663983669295545
30
0
10
-6.0125655420437703
20
15.699814434849667
30
0
10
-6.0417240884609535
20
15.735452307959807
30
0
10
-6.0712638203236216
20
15.770889714027621
30
0
10
-6.101179205773378
20
15.806127399914958
30
0
10
-6.1314566151603174
20
15.841170875364464
30
0
10
-6.1620780020146304
20
15.876028288622726
30
0
10
-6.1930252610647152
20
15.910707914935429
30
0
10
-6.2242850680769397
20
15.945215367323636
30
0
10
-6.2558507232904992
20
15.979552529871805
30
0
10
-6.2877194756154449
20
16.01371908832774
30
0
10
-6.3198909020748983
20
16.047713454179505
30
0
10
-6.3523650053954519
20
16.081533851079516
30
0
10
-6.385140081384205
20
16.115179532811563
30
0
10
-6.4182119776960045
20
16.148651204503135
30
0
10
-6.4515752127409955
20
16.181950378364036
30
0
10
-6.4852236407250334
20
16.215078989495503
30
0
10
-6.5191512368135012
20
16.248038942939644
30
0
10
-6.5533529772255523
20
16.280831606467821
30
0
10
-6.5878251216674837
20
16.313457645682327
30
0
10
-6.6225647257222775
20
16.345917300245357
30
0
10
-6.6575693405502356
20
16.378210552798286
30
0
10
-6.6928366618870347
20
16.410337327320878
30
0
10
-6.728364134231275
20
16.442297712504555
30
0
10
-6.7641488122072824
20
16.474092040526966
30
0
10
-6.8001875673468941
20
16.505720771146073
30
0
10
-6.8364772092843538
20
16.537184424451599
30
0
10
-6.8730146289521175
20
16.568483500715526
30
0
10
-6.909796956675768
20
16.599618393541075
30
0
10
-6.9468216185028879
20
16.630589355339055
30
0
10
-6.9840862381971869
20
16.661396543027806
30
0
10
-7.0215885733315861
20
16.692040045789092
30
0
10
-7.0593264417480324
20
16.722519919177905
30
0
10
-7.0972976366979434
20
16.752836222510123
30
0
10
-7.1354998923921915
20
16.78298903937057
30
0
10
-7.1739309431384379
20
16.812978464685436
30
0
10
-7.2125885613896878
20
16.842804600716615
30
0
10
-7.2514705989418715
20
16.872467550240586
30
0
10
-7.2905750340169817
20
16.90196741316641
30
0
10
-7.329899985660953
20
16.931304279613244
30
0
10
-7.369443649696457
20
16.960478215693517
30
0
10
-7.4092042469247446
20
16.989489251005132
30
0
10
-7.4491799693922713
20
17.018337367987264
30
0
10
-7.4893689152481322
20
17.047022488321062
30
0
10
-7.5297690593971458
20
17.075544471876174
30
0
10
-7.5703783641675031
20
17.103903159712392
30
0
10
-7.6111948675797647
20
17.132098411913898
30
0
10
-7.6522167771711649
20
17.160130147071751
30
0
10
-7.6934425642701427
20
17.187998386021516
30
0
10
-7.7348710447647004
20
17.215703284386507
30
0
10
-7.7765013449447062
20
17.243245065546532
30
0
10
-7.8099665710506301
20
17.265148184358424
30
0
10
-7.835155896867442
20
17.28150231012496
30
0
10
-7.8519889479598035
20
17.292372532191983
30
0
10
-7.8604155153090547
20
17.297799511113794
30
0
0
ARC
5
112
100
AcDbEntity
8
0
100
AcDbCircle
10
-2.8782531913407183e-13
20
3.0597746558669314e-12
30
0
40
18.99999999999709
100
AcDbArc
50
114.43785855902523
51
118.50331791156989
0
SPLINE
5
113
100
AcDbEntity
8
0
100
AcDbSpline
70
1064
71
5
72
81
73
75
74
0
42
0.000000001
43
0.0000000001
44
0.0000000001
40
0
40
0
40
0
40
0
40
0
40
0
40
0.014285714285714285
40
0.028571428571428571
40
0.042857142857142858
40
0.057142857142857141
40
0.071428571428571425
40
0.085714285714285715
40
0.10000000000000001
40
0.1142857142857143
40
0.12857142857142859
40
0.14285714285714288
40
0.15714285714285717
40
0.17142857142857146
40
0.18571428571428575
40
0.20000000000000004
40
0.21428571428571433
40
0.22857142857142862
40
0.24285714285714291
40
0.25714285714285717
40
0.27142857142857146
40
0.28571428571428575
40
0.30000000000000004
40
0.31428571428571433
40
0.32857142857142863
40
0.34285714285714292
40
0.35714285714285721
40
0.3714285714285715
40
0.38571428571428579
40
0.40000000000000008
40
0.41428571428571437
40
0.42857142857142866
40
0.44285714285714295
40
0.45714285714285724
40
0.47142857142857153
40
0.48571428571428582
40
0.50000000000000011
40
0.51428571428571435
40
0.52857142857142858
40
0.54285714285714282
40
0.55714285714285705
40
0.57142857142857129
40
0.58571428571428552
40
0.59999999999999976
40
0.61428571428571399
40
0.62857142857142823
40
0.64285714285714246
40
0.6571428571428567
40
0.67142857142857093
40
0.68571428571428517
40
0.6999999999999994
40
0.71428571428571364
40
0.72857142857142787
40
0.74285714285714211
40
0.75714285714285634
40
0.77142857142857058
40
0.78571428571428481
40
0.79999999999999905
40
0.81428571428571328
40
0.82857142857142752
40
0.84285714285714175
40
0.85714285714285599
40
0.87142857142857022
40
0.88571428571428445
40
0.89999999999999869
40
0.91428571428571292
40
0.92857142857142716
40
0.94285714285714139
40
0.95714285714285563
40
0.97142857142856986
40
0.9857142857142841
40
1
40
1
40
1
40
1
40
1
40
1
10
-8.6111253263848386
20
13.455182742868487
30
0
10
-8.615943001592683
20
13.462722841285665
30
0
10
-8.6253569653319104
20
13.47791580106189
30
0
10
-8.6388137588594773
20
13.501043525952433
30
0
10
-8.655494112991553
20
13.532526241446199
30
0
10
-8.6746252638848826
20
13.572776528167452
30
0
10
-8.6925250948959469
20
13.613694605374423
30
0
10
-8.7096745596813356
20
13.65505251303402
30
0
10
-8.7264286486178495
20
13.696677962930828
30
0
10
-8.7429197926191033
20
13.738498757805274
30
0
10
-8.7591322247691661
20
13.780509839814288
30
0
10
-8.7749611131060909
20
13.822747251905765
30
0
10
-8.7902747628134215
20
13.865260659417107
30
0
10
-8.8049816166864989
20
13.908083824036044
30
0
10
-8.819076252163395
20
13.95121422215222
30
0
10
-8.8326050474659024
20
13.994627722145342
30
0
10
-8.8456440177210229
20
14.038287941401917
30
0
10
-8.8582733918212568
20
14.082157046187024
30
0
10
-8.8705501192508169
20
14.126207408696057
30
0
10
-8.8824926004550928
20
14.170428073097231
30
0
10
-8.89409607480356
20
14.21481817239208
30
0
10
-8.9053421349770225
20
14.259382845869908
30
0
10
-8.916209821645074
20
14.304128484936328
30
0
10
-8.9266878166075152
20
14.349057508171876
30
0
10
-8.9367800495624419
20
14.394165951143075
30
0
10
-8.9464991310785145
20
14.439446257516247
30
0
10
-8.9558624390246582
20
14.484888936313215
30
0
10
-8.9648874880532521
20
14.530484526165012
30
0
10
-8.9735867870964974
20
14.576225776704563
30
0
10
-8.9819658771941633
20
14.622108476821884
30
0
10
-8.990026165469672
20
14.66813024172054
30
0
10
-8.9977666391636504
20
14.714289776565385
30
0
10
-9.0051858790769916
20
14.760586013043707
30
0
10
-9.0122843167219671
20
14.807017141484472
30
0
10
-9.0190650171494795
20
14.853580273178972
30
0
10
-9.0255324905249044
20
14.900271945034069
30
0
10
-9.0316919847607853
20
14.94708841875919
30
0
10
-9.0375486508875706
20
14.99402603447688
30
0
10
-9.0431066079147033
20
15.041081607389872
30
0
10
-9.048368641034827
20
15.088252553794357
30
0
10
-9.0533367159101665
20
15.135536668423565
30
0
10
-9.0580122944438752
20
15.182931986600323
30
0
10
-9.0623967045999816
20
15.230436623669579
30
0
10
-9.0664915571894191
20
15.27804859374571
30
0
10
-9.0702988922810839
20
15.325765746549948
30
0
10
-9.0738209620930181
20
15.373585862576874
30
0
10
-9.0770601042906822
20
15.421506709283738
30
0
10
-9.0800185917315375
20
15.4695261070623
30
0
10
-9.0826984678829223
20
15.517642003061869
30
0
10
-9.0851014853258967
20
15.56585249533558
30
0
10
-9.0872292012862914
20
15.614155782170355
30
0
10
-9.0890830382969181
20
15.662550127814781
30
0
10
-9.0906643557356368
20
15.711033824348489
30
0
10
-9.0919745308006732
20
15.759605146493907
30
0
10
-9.0930149956371658
20
15.808262336483388
30
0
10
-9.0937871913825283
20
15.857003643461223
30
0
10
-9.0942925420404812
20
15.905827351433093
30
0
10
-9.0945324242106089
20
15.954731808031806
30
0
10
-9.0945081360155182
20
16.003715460052344
30
0
10
-9.0942208828999149
20
16.052776860769892
30
0
10
-9.0936718048824066
20
16.101914610261492
30
0
10
-9.0928619977894201
20
16.151127306532619
30
0
10
-9.0917925371425419
20
16.200413496222431
30
0
10
-9.0904645065632046
20
16.249771614423494
30
0
10
-9.0888790146174774
20
16.299199960627561
30
0
10
-9.0870371624399446
20
16.348696812954554
30
0
10
-9.0849400207321356
20
16.398260521392956
30
0
10
-9.0825886047284623
20
16.447889606466759
30
0
10
-9.079983852286496
20
16.49758286082595
30
0
10
-9.0771266011832239
20
16.547339433312764
30
0
10
-9.0740175562075684
20
16.597158761307863
30
0
10
-9.0713293179849313
20
16.637064166296
30
0
10
-9.0692002318794831
20
16.667021244876004
30
0
10
-9.0677306767291306
20
16.687005081958123
30
0
10
-9.0669833580503809
20
16.697000113338845
30
0
0
LINE
5
114
100
AcDbEntity
8
0
100
AcDbLine
10
-8.6111253263848386
20
13.455182742868487
30
0
11
-8.1080916051247502
21
12.667889369649071
31
0
0
ARC
5
115
100
AcDbEntity
8
0
100
AcDbCircle
10
-8.5294298445215748
20
12.398679250927685
30
0
40
0.50000000000000089
100
AcDbArc
50
-55.474730449959168
51
32.576162184460003
0
ARC
5
116
100
AcDbEntity
8
0
100
AcDbCircle
10
-2.8782531913407183e-13
20
3.0597746558669314e-12
30
0
40
14.549199999997315
100
AcDbArc
50
124.52526955004693
51
129.59237750878935
0
ARC
5
117
100
AcDbEntity
8
0
100
AcDbCircle
10
-9.5911783701551716
20
11.596883982857964
30
0
40
0.49999999999999989
100
AcDbArc
50
221.54148487436365
51
309.59237750878191
0
LINE
5
118
100
AcDbEntity
8
0
100
AcDbLine
10
-9.9654162481680419
20
11.265302905803763
30
0
11
-10.584993490963386
21
11.964586696871526
31
0
0
SPLINE
5
119
100
AcDbEntity
8
0
100
AcDbSpline
70
1064
71
5
72
81
73
75
74
0
42
0.000000001
43
0.0000000001
44
0.0000000001
40
0
40
0
40
0
40
0
40
0
40
0
40
0.014285714285714285
40
0.028571428571428571
40
0.042857142857142858
40
0.057142857142857141
40
0.071428571428571425
40
0.085714285714285715
40
0.10000000000000001
40
0.1142857142857143
40
0.12857142857142859
40
0.14285714285714288
40
0.15714285714285717
40
0.17142857142857146
40
0.18571428571428575
40
0.20000000000000004
40
0.21428571428571433
40
0.22857142857142862
40
0.24285714285714291
40
0.25714285714285717
40
0.27142857142857146
40
0.28571428571428575
40
0.30000000000000004
40
0.31428571428571433
40
0.32857142857142863
40
0.34285714285714292
40
0.35714285714285721
40
0.3714285714285715
40
0.38571428571428579
40
0.40000000000000008
40
0.41428571428571437
40
0.42857142857142866
40
0.44285714285714295
40
0.45714285714285724
40
0.47142857142857153
40
0.48571428571428582
40
0.50000000000000011
40
0.51428571428571435
40
0.52857142857142858
40
0.54285714285714282
40
0.55714285714285705
40
0.57142857142857129
40
0.58571428571428552
40
0.59999999999999976
40
0.61428571428571399
40
0.62857142857142823
40
0.64285714285714246
40
0.6571428571428567
40
0.67142857142857093
40
0.68571428571428517
40
0.6999999999999994
40
0.71428571428571364
40
0.72857142857142787
40
0.74285714285714211
40
0.75714285714285634
40
0.77142857142857058
40
0.78571428571428481
40
0.79999999999999905
40
0.81428571428571328
40
0.82857142857142752
40
0.84285714285714175
40
0.85714285714285599
40
0.87142857142857022
40
0.88571428571428445
40
0.89999999999999869
40
0.91428571428571292
40
0.92857142857142716
40
0.94285714285714139
40
0.95714285714285563
40
0.97142857142856986
40
0.9857142857142841
40
1
40
1
40
1
40
1
40
1
40
1
10
-10.584993490963386
20
11.964586696871526
30
0
10
-10.590927331570501
20
11.971283906305194
30
0
10
-10.60296405641366
20
11.984496248833889
30
0
10
-10.621526268928093
20
12.003768540270695
30
0
10
-10.647242356419467
20
12.028427786669742
30
0
10
-10.68072062637604
20
12.057843631997752
30
0
10
-10.715178161026753
20
12.086257911829112
30
0
10
-10.750264083350423
20
12.114070835499639
30
0
10
-10.785715534395479
20
12.141576692948634
30
0
10
-10.821426831546502
20
12.168883101906827
30
0
10
-10.857397424861679
20
12.195973513205708
30
0
10
-10.893690670000717
20
12.222756960396936
30
0
10
-10.930390376355959
20
12.249120367593724
30
0
10
-10.967554072602804
20
12.274984912053213
30
0
10
-11.005180815422611
20
12.300344687597541
30
0
10
-11.043234702401321
20
12.325237698058336
30
0
10
-11.081659937281366
20
12.349727100159235
30
0
10
-11.120398174927711
20
12.373879706413343
30
0
10
-11.159407257243281
20
12.397742731587318
30
0
10
-11.198671611107224
20
12.421330875495698
30
0
10
-11.238191705426575
20
12.444639321976576
30
0
10
-11.277977520703573
20
12.467651772831607
30
0
10
-11.318040940149066
20
12.490349817930507
30
0
10
-11.358387387388342
20
12.512723233014079
30
0
10
-11.399011973914687
20
12.534774712847994
30
0
10
-11.439903980806687
20
12.556514318711701
30
0
10
-11.481049523718568
20
12.577956167755691
30
0
10
-11.522434709350902
20
12.599114516795229
30
0
10
-11.564049140882933
20
12.619999413084939
30
0
10
-11.605887251583569
20
12.640615033714015
30
0
10
-11.647946362616848
20
12.660962079459326
30
0
10
-11.690225505731881
20
12.681039221874478
30
0
10
-11.732724041780376
20
12.700844803579724
30
0
10
-11.775440112085391
20
12.720378744374642
30
0
10
-11.818370099421818
20
12.739643201771134
30
0
10
-11.861509438632531
20
12.758641566041485
30
0
10
-11.904853097974355
20
12.777377861730779
30
0
10
-11.94839614763691
20
12.795856041659178
30
0
10
-11.992134397180079
20
12.814079196034454
30
0
10
-12.036064599327132
20
12.832049296662195
30
0
10
-12.08018409506694
20
12.84976763066684
30
0
10
-12.12449059465383
20
12.867235066484897
30
0
10
-12.168981921963635
20
12.884452365625886
30
0
10
-12.213655726101303
20
12.90142053394568
30
0
10
-12.258509380582225
20
12.918140945183129
30
0
10
-12.303540134280448
20
12.934615158182813
30
0
10
-12.348745200146578
20
12.950844810406997
30
0
10
-12.39412185978056
20
12.966831491470156
30
0
10
-12.439667579476573
20
12.982576605042325
30
0
10
-12.485380050276774
20
12.998081316308443
30
0
10
-12.531257113092247
20
13.013346629986051
30
0
10
-12.577296709138189
20
13.028373439292771
30
0
10
-12.623496823681588
20
13.043162584318486
30
0
10
-12.669855420418038
20
13.057714917543155
30
0
10
-12.716370416756437
20
13.072031335404741
30
0
10
-12.763039734292878
20
13.086112744881753
30
0
10
-12.809861332842914
20
13.099960046013354
30
0
10
-12.856833246393046
20
13.113574110656579
30
0
10
-12.90395362578275
20
13.126955762324306
30
0
10
-12.951220749629384
20
13.140105764529125
30
0
10
-12.998632959470262
20
13.153024830663067
30
0
10
-13.046188606943955
20
13.165713631046076
30
0
10
-13.093885999840289
20
13.178172802411316
30
0
10
-13.141723336444075
20
13.190402958756426
30
0
10
-13.189698677789373
20
13.202404700962507
30
0
10
-13.237810066387985
20
13.214178616914181
30
0
10
-13.286055622205147
20
13.225725284892558
30
0
10
-13.334433644410804
20
13.237045276498298
30
0
10
-13.38294271508785
20
13.248139163379847
30
0
10
-13.431581786302363
20
13.259007518402214
30
0
10
-13.480350124037992
20
13.269650865481372
30
0
10
-13.519467837166809
20
13.277985881472974
30
0
10
-13.548863975609342
20
13.284136215558263
30
0
10
-13.568487105420427
20
13.288191596339598
30
0
10
-13.578305096370888
20
13.290208076244269
30
0
0
ARC
5
120
100
AcDbEntity
8
0
100
AcDbCircle
10
-2.8782531913407183e-13
20
3.0597746558669314e-12
30
0
40
18.999999999997655
100
AcDbArc
50
135.61432914726348
51
139.67978849980781
0
SPLINE
5
121
100
AcDbEntity
8
0
100
AcDbSpline
70
1064
71
5
72
81
73
75
74
0
42
0.000000001
43
0.0000000001
44
0.0000000001
40
0
40
0
40
0
40
0
40
0
40
0
40
0.014285714285714285
40
0.028571428571428571
40
0.042857142857142858
40
0.057142857142857141
40
0.071428571428571425
40
0.085714285714285715
40
0.10000000000000001
40
0.1142857142857143
40
0.12857142857142859
40
0.14285714285714288
40
0.15714285714285717
40
0.17142857142857146
40
0.18571428571428575
40
0.20000000000000004
40
0.21428571428571433
40
0.22857142857142862
40
0.24285714285714291
40
0.25714285714285717
40
0.27142857142857146
40
0.28571428571428575
40
0.30000000000000004
40
0.31428571428571433
40
0.32857142857142863
40
0.34285714285714292
40
0.35714285714285721
40
0.3714285714285715
40
0.38571428571428579
40
0.40000000000000008
40
0.41428571428571437
40
0.42857142857142866
40
0.44285714285714295
40
0.45714285714285724
40
0.47142857142857153
40
0.48571428571428582
40
0.50000000000000011
40
0.51428571428571435
40
0.52857142857142858
40
0.54285714285714282
40
0.55714285714285705
40
0.57142857142857129
40
0.58571428571428552
40
0.59999999999999976
40
0.61428571428571399
40
0.62857142857142823
40
0.64285714285714246
40
0.6571428571428567
40
0.67142857142857093
40
0.68571428571428517
40
0.6999999999999994
40
0.71428571428571364
40
0.72857142857142787
40
0.74285714285714211
40
0.75714285714285634
40
0.77142857142857058
40
0.78571428571428481
40
0.79999999999999905
40
0.81428571428571328
40
0.82857142857142752
40
0.84285714285714175
40
0.85714285714285599
40
0.87142857142857022
40
0.88571428571428445
40
0.89999999999999869
40
0.91428571428571292
40
0.92857142857142716
40
0.94285714285714139
40
0.95714285714285563
40
0.97142857142856986
40
0.9857142857142841
40
1
40
1
40
1
40
1
40
1
40
1
10
-12.890207863660821
20
9.4358869886359464
30
0
10
-12.897424009717861
20
9.4411775759977097
30
0
10
-12.911690599577188
20
9.4519438731249146
30
0
10
-12.932593383713051
20
9.4686486797992124
30
0
10
-12.959520219318906
20
9.4919797987841275
30
0
10
-12.991899566883177
20
9.522601104552475
30
0
10
-13.023371976599446
20
9.5542899104496897
30
0
10
-13.054303575733936
20
9.5866599095752463
30
0
10
-13.084963145272718
20
9.6194222106376053
30
0
10
-13.115448092706712
20
9.6524616521332991
30
0
10
-13.145741888721009
20
9.6857792134310969
30
0
10
-13.175759800636889
20
9.7194463732515839
30
0
10
-13.205396967884495
20
9.7535570167975809
30
0
10
-13.234580212041401
20
9.7881757001824692
30
0
10
-13.263303565085987
20
9.8233020290649851
30
0
10
-13.291601556075401
20
9.8588967476332332
30
0
10
-13.319531924088672
20
9.8948984702793705
30
0
10
-13.34715581321861
20
9.9312429360774441
30
0
10
-13.374516346963555
20
9.9678838103403322
30
0
10
-13.401626725524906
20
10.00480423005159
30
0
10
-13.428482196550942
20
10.042005106497342
30
0
10
-13.455067452253125
20
10.079497881412786
30
0
10
-13.48136525747991
20
10.117296085989608
30
0
10
-13.507365932015997
20
10.155406064092489
30
0
10
-13.533071708077166
20
10.193822699426613
30
0
10
-13.558491615005932
20
10.232534390457843
30
0
10
-13.583638428645697
20
10.271526009502271
30
0
10
-13.608525063082723
20
10.310782407073869
30
0
10
-13.633160563414224
20
10.350292303659188
30
0
10
-13.65754857527752
20
10.390049770860664
30
0
10
-13.681689549288292
20
10.430052076610243
30
0
10
-13.705582073328138
20
10.470298379360994
30
0
10
-13.72922443811424
20
10.510788195614825
30
0
10
-13.75261639229123
20
10.551519682023551
30
0
10
-13.775759750412007
20
10.592489037722419
30
0
10
-13.798657467067004
20
10.633691404213598
30
0
10
-13.821313085362608
20
10.675121399880272
30
0
10
-13.843730086391437
20
10.716773751221531
30
0
10
-13.865911160533944
20
10.75864400054453
30
0
10
-13.887857971563447
20
10.800728732489588
30
0
10
-13.909571555771141
20
10.843025180627585
30
0
10
-13.931052566617865
20
10.88553098485129
30
0
10
-13.952301561577267
20
10.928243908056265
30
0
10
-13.973319325301176
20
10.971161516567289
30
0
10
-13.994106983326899
20
11.01428106835124
30
0
10
-14.014665834007383
20
11.057599680185952
30
0
10
-14.034997250663281
20
11.101114425825143
30
0
10
-14.055102565305752
20
11.144822451793848
30
0
10
-14.074982941836133
20
11.188721105680251
30
0
10
-14.09463932742514
20
11.232807980866422
30
0
10
-14.11407252328878
20
11.2770808347701
30
0
10
-14.133283228873658
20
11.32153753497316
30
0
10
-14.152272094789886
20
11.36617599782338
30
0
10
-14.171039781994414
20
11.410994117045945
30
0
10
-14.189586990943901
20
11.455989736220843
30
0
10
-14.207914432976928
20
11.501160702124871
30
0
10
-14.226022816048774
20
11.546504900231495
30
0
10
-14.243912826896443
20
11.592020292469083
30
0
10
-14.261585114900852
20
11.637704961581107
30
0
10
-14.279040281488424
20
11.683557123079995
30
0
10
-14.296278883984353
20
11.729575059754252
30
0
10
-14.313301437757511
20
11.775757068424751
30
0
10
-14.330108420687422
20
11.822101405349656
30
0
10
-14.346700277911204
20
11.868606219847033
30
0
10
-14.363077428841503
20
11.915269525779911
30
0
10
-14.379240278240905
20
11.962089319767241
30
0
10
-14.395189228455951
20
12.009063676437107
30
0
10
-14.410924691716156
20
12.056190849474238
30
0
10
-14.426447106402524
20
12.103469374265055
30
0
10
-14.441756946245189
20
12.150898154488612
30
0
10
-14.456854665198691
20
12.198476410918888
30
0
10
-14.468763452697846
20
12.236658196528108
30
0
10
-14.477599884010848
20
12.265361454990238
30
0
10
-14.48344855924792
20
12.284526692657318
30
0
10
-14.486362327123036
20
12.294116744496552
30
0
0
LINE
5
122
100
AcDbEntity
8
0
100
AcDbLine
10
-12.890207863660821
20
9.4358869886359464
30
0
11
-12.136739718211969
21
8.8834745213310775
31
0
0
ARC
5
123
100
AcDbEntity
8
0
100
AcDbCircle
10
-12.432376013794277
20
8.4802386341206653
30
0
40
0.49999999999999911
100
AcDbArc
50
-34.298259861723928
51
53.752632772695272
0
ARC
5
124
100
AcDbEntity
8
0
100
AcDbCircle
10
-2.8782531913407183e-13
20
3.0597746558669314e-12
30
0
40
14.54919999999804
100
AcDbArc
50
145.70174013828563
51
150.76884809702776
0
ARC
5
125
100
AcDbEntity
8
0
100
AcDbCircle
10
-13.132785169980146
20
7.3490390065061924
30
0
40
0.50000000000000022
100
AcDbArc
50
242.71795546259895
51
330.76884809701869
0
LINE
5
126
100
AcDbEntity
8
0
100
AcDbLine
10
-13.361970697667171
20
6.9046585457534508
30
0
11
-14.192319712367738
21
7.3329041458777073
31
0
0
SPLINE
5
127
100
AcDbEntity
8
0
100
AcDbSpline
70
1064
71
5
72
81
73
75
74
0
42
0.000000001
43
0.0000000001
44
0.0000000001
40
0
40
0
40
0
40
0
40
0
40
0
40
0.014285714285714285
40
0.028571428571428571
40
0.042857142857142858
40
0.057142857142857141
40
0.071428571428571425
40
0.085714285714285715
40
0.10000000000000001
40
0.1142857142857143
40
0.12857142857142859
40
0.14285714285714288
40
0.15714285714285717
40
0.17142857142857146
40
0.18571428571428575
40
0.20000000000000004
40
0.21428571428571433
40
0.22857142857142862
40
0.24285714285714291
40
0.25714285714285717
40
0.27142857142857146
40
0.28571428571428575
40
0.30000000000000004
40
0.31428571428571433
40
0.32857142857142863
40
0.34285714285714292
40
0.35714285714285721
40
0.3714285714285715
40
0.38571428571428579
40
0.40000000000000008
40
0.41428571428571437
40
0.42857142857142866
40
0.44285714285714295
40
0.45714285714285724
40
0.47142857142857153
40
0.48571428571428582
40
0.50000000000000011
40
0.51428571428571435
40
0.52857142857142858
40
0.54285714285714282
40
0.55714285714285705
40
0.57142857142857129
40
0.58571428571428552
40
0.59999999999999976
40
0.61428571428571399
40
0.62857142857142823
40
0.64285714285714246
40
0.6571428571428567
40
0.67142857142857093
40
0.68571428571428517
40
0.6999999999999994
40
0.71428571428571364
40
0.72857142857142787
40
0.74285714285714211
40
0.75714285714285634
40
0.77142857142857058
40
0.78571428571428481
40
0.79999999999999905
40
0.81428571428571328
40
0.82857142857142752
40
0.84285714285714175
40
0.85714285714285599
40
0.87142857142857022
40
0.88571428571428445
40
0.89999999999999869
40
0.91428571428571292
40
0.92857142857142716
40
0.94285714285714139
40
0.95714285714285563
40
0.97142857142856986
40
0.9857142857142841
40
1
40
1
40
1
40
1
40
1
40
1
10
-14.192319712367738
20
7.3329041458777073
30
0
10
-14.200272165042204
20
7.3370055572213033
30
0
10
-14.216268925320733
20
7.3449775331769098
30
0
10
-14.24053962767662
20
7.3562429651618864
30
0
10
-14.273427112367372
20
7.369947305333838
30
0
10
-14.315270898368968
20
7.3852830181864846
30
0
10
-14.357666014314287
20
7.3993310478178289
30
0
10
-14.400429849412429
20
7.4125913297192216
30
0
10
-14.443423604778809
20
7.4254332366920961
30
0
10
-14.486587610317789
20
7.4379952962458296
30
0
10
-14.529915374974694
20
7.4502622754022614
30
0
10
-14.573433115271408
20
7.4621264637704376
30
0
10
-14.617178133417102
20
7.4734521457815726
30
0
10
-14.661175599245022
20
7.4841450396623577
30
0
10
-14.705422499579196
20
7.4941999788319444
30
0
10
-14.74989908498301
20
7.5036653702558258
30
0
10
-14.794576141835847
20
7.512620261757931
30
0
10
-14.839423400383126
20
7.5211480308451026
30
0
10
-14.884418605311055
20
7.5293079332373036
30
0
10
-14.929552545302414
20
7.5371193017634885
30
0
10
-14.974823917801636
20
7.5445774760976718
30
0
10
-15.020236141761568
20
7.5516636532492418
30
0
10
-15.065793647440188
20
7.5583563735720904
30
0
10
-15.111497798789028
20
7.5646441439890078
30
0
10
-15.157345010872973
20
7.570531243226462
30
0
10
-15.203328923148831
20
7.5760309252691638
30
0
10
-15.249441688552711
20
7.5811613695721007
30
0
10
-15.29567550212442
20
7.5859408890582234
30
0
10
-15.342024298604326
20
7.5903826082783077
30
0
10
-15.388484396108947
20
7.5944924331872379
30
0
10
-15.435053549847934
20
7.5982719849471465
30
0
10
-15.481730377064043
20
7.6017203745912321
30
0
10
-15.528513683054612
20
7.604836287545897
30
0
10
-15.57540170568328
20
7.6076203204580395
30
0
10
-15.62239185137128
20
7.6100757918400062
30
0
10
-15.669481087943975
20
7.6122075121515262
30
0
10
-15.716666177273964
20
7.6140210518444142
30
0
10
-15.763943950373314
20
7.6155218776666107
30
0
10
-15.811311616084785
20
7.6167143849126191
30
0
10
-15.858766858711348
20
7.6176015852880496
30
0
10
-15.90630766376194
20
7.6181856395463079
30
0
10
-15.953932209827764
20
7.6184681846318618
30
0
10
-16.001638742822429
20
7.618450716737911
30
0
10
-16.049425433958643
20
7.6181350230383664
30
0
10
-16.097290330364149
20
7.617523333302235
30
0
10
-16.145231429810018
20
7.616618094930125
30
0
10
-16.193246724969683
20
7.6154218416084865
30
0
10
-16.241334255245565
20
7.6139370376080411
30
0
10
-16.289492165091445
20
7.6121659070922254
30
0
10
-16.337718722381609
20
7.6101103706554145
30
0
10
-16.386012276771449
20
7.6077721451216984
30
0
10
-16.434371231168718
20
7.6051528071105476
30
0
10
-16.482794010366312
20
7.6022538677879687
30
0
10
-16.531279023518202
20
7.5990768576658354
30
0
10
-16.579824652496754
20
7.5956233649663396
30
0
10
-16.62842928688648
20
7.5918949862278442
30
0
10
-16.677091349403678
20
7.5878932977115019
30
0
10
-16.725809321746461
20
7.5836198226057761
30
0
10
-16.774581777111138
20
7.5790759968073846
30
0
10
-16.823407386168778
20
7.5742631541057541
30
0
10
-16.872284860155894
20
7.5691825588249584
30
0
10
-16.921212904168733
20
7.5638354314765621
30
0
10
-16.970190170282841
20
7.5582229770933873
30
0
10
-17.019215200250379
20
7.5523464190657688
30
0
10
-17.068286403102736
20
7.5462070181339342
30
0
10
-17.117402165904952
20
7.539806029610272
30
0
10
-17.16656094447605
20
7.5331446718727433
30
0
10
-17.215761359325221
20
7.5262240923337762
30
0
10
-17.265002294787358
20
7.5190453362504064
30
0
10
-17.314282980635905
20
7.5116093163607465
30
0
10
-17.363602921681277
20
7.5039167863591762
30
0
10
-17.403090057916206
20
7.4975580094348988
30
0
10
-17.432722897598168
20
7.492673915140541
30
0
10
-17.452485893711479
20
7.4893667529900343
30
0
10
-17.462369334181922
20
7.4877003970927367
30
0
0
ARC
5
128
100
AcDbEntity
8
0
100
AcDbCircle
10
-2.8782531913407183e-13
20
3.0597746558669314e-12
30
0
40
18.999999999998526
100
AcDbArc
50
156.79079973550091
51
160.85625908804491
0
SPLINE
5
129
100
AcDbEntity
8
0
100
AcDbSpline
70
1064
71
5
72
81
73
75
74
0
42
0.000000001
43
0.0000000001
44
0.0000000001
40
0
40
0
40
0
40
0
40
0
40
0
40
0.014285714285714285
40
0.028571428571428571
40
0.042857142857142858
40
0.057142857142857141
40
0.071428571428571425
40
0.085714285714285715
40
0.10000000000000001
40
0.1142857142857143
40
0.12857142857142859
40
0.14285714285714288
40
0.15714285714285717
40
0.17142857142857146
40
0.18571428571428575
40
0.20000000000000004
40
0.21428571428571433
40
0.22857142857142862
40
0.24285714285714291
40
0.25714285714285717
40
0.27142857142857146
40
0.28571428571428575
40
0.30000000000000004
40
0.31428571428571433
40
0.32857142857142863
40
0.34285714285714292
40
0.35714285714285721
40
0.3714285714285715
40
0.38571428571428579
40
0.40000000000000008
40
0.41428571428571437
40
0.42857142857142866
40
0.44285714285714295
40
0.45714285714285724
40
0.47142857142857153
40
0.48571428571428582
40
0.50000000000000011
40
0.51428571428571435
40
0.52857142857142858
40
0.54285714285714282
40
0.55714285714285705
40
0.57142857142857129
40
0.58571428571428552
40
0.59999999999999976
40
0.61428571428571399
40
0.62857142857142823
40
0.64285714285714246
40
0.6571428571428567
40
0.67142857142857093
40
0.68571428571428517
40
0.6999999999999994
40
0.71428571428571364
40
0.72857142857142787
40
0.74285714285714211
40
0.75714285714285634
40
0.77142857142857058
40
0.78571428571428481
40
0.79999999999999905
40
0.81428571428571328
40
0.82857142857142752
40
0.84285714285714175
40
0.85714285714285599
40
0.87142857142857022
40
0.88571428571428445
40
0.89999999999999869
40
0.91428571428571292
40
0.92857142857142716
40
0.94285714285714139
40
0.95714285714285563
40
0.97142857142856986
40
0.9857142857142841
40
1
40
1
40
1
40
1
40
1
40
1
10
-15.428396401841889
20
4.1422224105333383
30
0
10
-15.437036438237079
20
4.1445489637003243
30
0
10
-15.454228872202101
20
4.1494345500933658
30
0
10
-15.479754610122381
20
4.1574603618455299
30
0
10
-15.5132913088467
20
4.1694888874204841
30
0
10
-15.554545842773198
20
4.1863456352133968
30
0
10
-15.595340307867843
20
4.2045254209707048
30
0
10
-15.635876557490418
20
4.2235357638119533
30
0
10
-15.676300862874715
20
4.2430101857392177
30
0
10
-15.716662452667563
20
4.2628061142042988
30
0
10
-15.756946267530648
20
4.2829304335186347
30
0
10
-15.797099117686253
20
4.303480404578206
30
0
10
-15.83705713881213
20
4.3245814527343649
30
0
10
-15.87677541441953
20
4.3463202098653291
30
0
10
-15.916248237041541
20
4.3686984641568891
30
0
10
-15.955493623230165
20
4.3916671373204803
30
0
10
-15.994543238033881
20
4.4151481312203869
30
0
10
-16.033430882897271
20
4.4390594365337597
30
0
10
-16.07218003126539
20
4.4633422694472049
30
0
10
-16.110796900335316
20
4.4879761372034412
30
0
10
-16.149277387865553
20
4.5129636062989213
30
0
10
-16.187611352999888
20
4.5383208756450131
30
0
10
-16.225787612468366
20
4.564066788757053
30
0
10
-16.263799431407286
20
4.5902107580097899
30
0
10
-16.301647043077018
20
4.6167472062310448
30
0
10
-16.33933467613118
20
4.6436620535376791
30
0
10
-16.376868778939212
20
4.6709365786175958
30
0
10
-16.414255920902345
20
4.6985519898897463
30
0
10
-16.451500461692312
20
4.7264945020550879
30
0
10
-16.488603659180466
20
4.7547572700914307
30
0
10
-16.525564946616587
20
4.7833375836400238
30
0
10
-16.562382703237674
20
4.8122351680977262
30
0
10
-16.599055160525307
20
4.8414501900801756
30
0
10
-16.635581418203415
20
4.8709810215164042
30
0
10
-16.671961795261478
20
4.9008234627134719
30
0
10
-16.708197291681156
20
4.9309719159359053
30
0
10
-16.744289267246547
20
4.9614200830578161
30
0
10
-16.780239062971589
20
4.9921617891703596
30
0
10
-16.816047577256946
20
5.0231919057212338
30
0
10
-16.851715127754815
20
5.054506646958135
30
0
10
-16.887241681428492
20
5.0861030589111769
30
0
10
-16.92262699504299
20
5.1179787047886238
30
0
10
-16.957870780291675
20
5.1501312971700077
30
0
10
-16.992972889695693
20
5.1825582832718293
30
0
10
-17.027933382250716
20
5.2152566996333869
30
0
10
-17.062752427094821
20
5.2482233887108958
30
0
10
-17.097430247729307
20
5.2814551257603117
30
0
10
-17.131967055423534
20
5.3149487688175494
30
0
10
-17.166362977321516
20
5.3487014241325914
30
0
10
-17.200618027262962
20
5.382710505443522
30
0
10
-17.234732142245409
20
5.416973632172053
30
0
10
-17.268705204165109
20
5.4514885632282519
30
0
10
-17.302537066995917
20
5.486253120636797
30
0
10
-17.336227586187622
20
5.5212651015897283
30
0
10
-17.36977663590784
20
5.5565222422511429
30
0
10
-17.40318410162611
20
5.592022277835059
30
0
10
-17.43644987963598
20
5.6277629808612692
30
0
10
-17.469573874064245
20
5.6637422028065458
30
0
10
-17.502555997847626
20
5.6999579212989859
30
0
10
-17.535396167168305
20
5.7364082550931927
30
0
10
-17.568094281388202
20
5.7730914016080597
30
0
10
-17.600650205815217
20
5.8100055865036326
30
0
10
-17.633063756146523
20
5.8471490111590878
30
0
10
-17.665334678916697
20
5.8845197890628329
30
0
10
-17.697462647740959
20
5.9221159166879804
30
0
10
-17.729447316344469
20
5.9599353797202266
30
0
10
-17.761288364379645
20
5.9979762374593912
30
0
10
-17.792985545397219
20
6.0362367126005099
30
0
10
-17.824538739095861
20
6.0747152810705982
30
0
10
-17.855947991178954
20
6.1134107494497671
30
0
10
-17.887213443457604
20
6.1523222271440883
30
0
10
-17.912110908937919
20
6.1836237316552944
30
0
10
-17.930719448656191
20
6.2071966358939887
30
0
10
-17.943096458281293
20
6.2229549026008479
30
0
10
-17.949277792213
20
6.2308447852573909
30
0
0
LINE
5
130
100
AcDbEntity
8
0
100
AcDbLine
10
-15.428396401841889
20
4.1422224105333383
30
0
11
-14.526253880358267
21
3.8992972138756947
31
0
0
ARC
5
131
100
AcDbEntity
8
0
100
AcDbCircle
10
-14.656260912230403
20
3.4164947991512067
30
0
40
0.499999999999999
100
AcDbArc
50
-13.12178927348844
51
74.929103360930625
0
ARC
5
132
100
AcDbEntity
8
0
100
AcDbCircle
10
-2.8782531913407183e-13
20
3.0597746558669314e-12
30
0
40
14.549199999999027
100
AcDbArc
50
166.87821072652309
51
171.94531868526488
0
ARC
5
133
100
AcDbEntity
8
0
100
AcDbCircle
10
-14.900736561324525
20
2.1086655898948412
30
0
40
0.49999999999999983
100
AcDbArc
50
263.89442605083423
51
351.94531868525337
0
LINE
5
134
100
AcDbEntity
8
0
100
AcDbLine
10
-14.953916963210725
20
1.6115017890653538
30
0
11
-15.882894514258474
21
1.7108722569585324
31
0
0
SPLINE
5
135
100
AcDbEntity
8
0
100
AcDbSpline
70
1064
71
5
72
81
73
75
74
0
42
0.000000001
43
0.0000000001
44
0.0000000001
40
0
40
0
40
0
40
0
40
0
40
0
40
0.014285714285714285
40
0.028571428571428571
40
0.042857142857142858
40
0.057142857142857141
40
0.071428571428571425
40
0.085714285714285715
40
0.10000000000000001
40
0.1142857142857143
40
0.12857142857142859
40
0.14285714285714288
40
0.15714285714285717
40
0.17142857142857146
40
0.18571428571428575
40
0.20000000000000004
40
0.21428571428571433
40
0.22857142857142862
40
0.24285714285714291
40
0.25714285714285717
40
0.27142857142857146
40
0.28571428571428575
40
0.30000000000000004
40
0.31428571428571433
40
0.32857142857142863
40
0.34285714285714292
40
0.35714285714285721
40
0.3714285714285715
40
0.38571428571428579
40
0.40000000000000008
40
0.41428571428571437
40
0.42857142857142866
40
0.44285714285714295
40
0.45714285714285724
40
0.47142857142857153
40
0.48571428571428582
40
0.50000000000000011
40
0.51428571428571435
40
0.52857142857142858
40
0.54285714285714282
40
0.55714285714285705
40
0.57142857142857129
40
0.58571428571428552
40
0.59999999999999976
40
0.61428571428571399
40
0.62857142857142823
40
0.64285714285714246
40
0.6571428571428567
40
0.67142857142857093
40
0.68571428571428517
40
0.6999999999999994
40
0.71428571428571364
40
0.72857142857142787
40
0.74285714285714211
40
0.75714285714285634
40
0.77142857142857058
40
0.78571428571428481
40
0.79999999999999905
40
0.81428571428571328
40
0.82857142857142752
40
0.84285714285714175
40
0.85714285714285599
40
0.87142857142857022
40
0.88571428571428445
40
0.89999999999999869
40
0.91428571428571292
40
0.92857142857142716
40
0.94285714285714139
40
0.95714285714285563
40
0.97142857142856986
40
0.9857142857142841
40
1
40
1
40
1
40
1
40
1
40
1
10
-15.882894514258474
20
1.7108722569585324
30
0
10
-15.891791556200548
20
1.7118239518834011
30
0
10
-15.909587900797721
20
1.7134789017388707
30
0
10
-15.936289200153295
20
1.7152160152585312
30
0
10
-15.971906445000092
20
1.7161146021247955
30
0
10
-16.016464511882781
20
1.715299009503213
30
0
10
-16.06107151379484
20
1.7130835246900058
30
0
10
-16.105737768774851
20
1.7100002902737235
30
0
10
-16.15046728356371
20
1.7064438760743281
30
0
10
-16.195254459362598
20
1.7025650104720957
30
0
10
-16.240087740656882
20
1.6983518339773256
30
0
10
-16.284952664144075
20
1.6936944391415876
30
0
10
-16.329834986980135
20
1.6884527998536971
30
0
10
-16.374724120830692
20
1.6825299085858063
30
0
10
-16.419615389608566
20
1.6759220361294629
30
0
10
-16.46450786412543
20
1.6686814549550846
30
0
10
-16.509402858858962
20
1.6608924281402704
30
0
10
-16.554302267533128
20
1.6526436375912867
30
0
10
-16.599206743320863
20
1.643998377168066
30
0
10
-16.644114680748011
20
1.6349780017083071
30
0
10
-16.68902318171375
20
1.6255786361247895
30
0
10
-16.733928641873007
20
1.6157815120827195
30
0
10
-16.778827440200001
20
1.6055650186642709
30
0
10
-16.823716696763299
20
1.5949179461779919
30
0
10
-16.868594614364739
20
1.5838455794454243
30
0
10
-16.913460049865947
20
1.5723625751324635
30
0
10
-16.958312253274375
20
1.5604887197624624
30
0
10
-17.003150562072193
20
1.5482439091043401
30
0
10
-17.047974061707819
20
1.5356425724617093
30
0
10
-17.092781452404132
20
1.5226915470232139
30
0
10
-17.137571226587795
20
1.5093931553893278
30
0
10
-17.182341773744209
20
1.4957470681327272
30
0
10
-17.227091504967579
20
1.4817524910264175
30
0
10
-17.271818992648399
20
1.467410616984135
30
0
10
-17.31652301713142
20
1.4527254773352065
30
0
10
-17.361202488736488
20
1.4377026530475547
30
0
10
-17.405856400279024
20
1.4223485081593392
30
0
10
-17.450483771582913
20
1.4066692850316844
30
0
10
-17.49508358773506
20
1.3906700904369431
30
0
10
-17.539654777365836
20
1.3743545692332135
30
0
10
-17.584196242572435
20
1.3577254639811493
30
0
10
-17.628706876274283
20
1.340784959054758
30
0
10
-17.673185583321857
20
1.3235350832617367
30
0
10
-17.71763130402347
20
1.3059781637262977
30
0
10
-17.762043022865452
20
1.2881169851049437
30
0
10
-17.806419756928001
20
1.2699545528192902
30
0
10
-17.85076054970795
20
1.2514939545915837
30
0
10
-17.895064463199766
20
1.2327381965353743
30
0
10
-17.939330570618644
20
1.2136900229219096
30
0
10
-17.983557950604158
20
1.1943518503680854
30
0
10
-18.027745684444191
20
1.174725875937926
30
0
10
-18.071892852435219
20
1.1548141467215667
30
0
10
-18.115998531636492
20
1.1346186408697825
30
0
10
-18.16006179151292
20
1.1141413602222607
30
0
10
-18.204081696937454
20
1.0933843702872157
30
0
10
-18.248057322978553
20
1.0723497415415055
30
0
10
-18.291987768274179
20
1.0510395135854738
30
0
10
-18.335872167289107
20
1.0294556552239673
30
0
10
-18.379709708274262
20
1.0076000208117417
30
0
10
-18.423499633487626
20
0.98547433427939435
30
0
10
-18.467241197919591
20
0.963080240129084
30
0
10
-18.510933635007987
20
0.94041934422714191
30
0
10
-18.554576123158764
20
0.917493257159679
30
0
10
-18.598167744535864
20
0.89430364648409411
30
0
10
-18.641707471037151
20
0.87085226252978631
30
0
10
-18.685194252116698
20
0.84714085850000787
30
0
10
-18.728627087997513
20
0.82317112832088657
30
0
10
-18.772005106835895
20
0.79894464025220324
30
0
10
-18.815327645895525
20
0.774462771991835
30
0
10
-18.858594316680556
20
0.7497266528806551
30
0
10
-18.901804929706259
20
0.72473716460084803
30
0
10
-18.936328532493
20
0.70454338281951856
30
0
10
-18.962195994214113
20
0.68928448414366583
30
0
10
-18.979429754494003
20
0.67906142963536043
30
0
10
-18.988043831082862
20
0.67393728853362156
30
0
0
ARC
5
136
100
AcDbEntity
8
0
100
AcDbCircle
10
-2.8782531913407183e-13
20
3.0597746558669314e-12
30
0
40
18.999999999999602
100
AcDbArc
50
177.9672703237373
51
182.03272967628098
0
SPLINE
5
137
100
AcDbEntity
8
0
100
AcDbSpline
70
1064
71
5
72
81
73
75
74
0
42
0.000000001
43
0.0000000001
44
0.0000000001
40
0
40
0
40
0
40
0
40
0
40
0
40
0.014285714285714285
40
0.028571428571428571
40
0.042857142857142858
40
0.057142857142857141
40
0.071428571428571425
40
0.085714285714285715
40
0.10000000000000001
40
0.1142857142857143
40
0.12857142857142859
40
0.14285714285714288
40
0.15714285714285717
40
0.17142857142857146
40
0.18571428571428575
40
0.20000000000000004
40
0.21428571428571433
40
0.22857142857142862
40
0.24285714285714291
40
0.25714285714285717
40
0.27142857142857146
40
0.28571428571428575
40
0.30000000000000004
40
0.31428571428571433
40
0.32857142857142863
40
0.34285714285714292
40
0.35714285714285721
40
0.3714285714285715
40
0.38571428571428579
40
0.40000000000000008
40
0.41428571428571437
40
0.42857142857142866
40
0.44285714285714295
40
0.45714285714285724
40
0.47142857142857153
40
0.48571428571428582
40
0.50000000000000011
40
0.51428571428571435
40
0.52857142857142858
40
0.54285714285714282
40
0.55714285714285705
40
0.57142857142857129
40
0.58571428571428552
40
0.59999999999999976
40
0.61428571428571399
40
0.62857142857142823
40
0.64285714285714246
40
0.6571428571428567
40
0.67142857142857093
40
0.68571428571428517
40
0.6999999999999994
40
0.71428571428571364
40
0.72857142857142787
40
0.74285714285714211
40
0.75714285714285634
40
0.77142857142857058
40
0.78571428571428481
40
0.79999999999999905
40
0.81428571428571328
40
0.82857142857142752
40
0.84285714285714175
40
0.85714285714285599
40
0.87142857142857022
40
0.88571428571428445
40
0.89999999999999869
40
0.91428571428571292
40
0.92857142857142716
40
0.94285714285714139
40
0.95714285714285563
40
0.97142857142856986
40
0.9857142857142841
40
1
40
1
40
1
40
1
40
1
40
1
10
-15.882894514258474
20
-1.7108722569585324
30
0
10
-15.891791556200548
20
-1.7118239518834011
30
0
10
-15.909587900797721
20
-1.7134789017388707
30
0
10
-15.936289200153295
20
-1.7152160152585312
30
0
10
-15.971906445000092
20
-1.7161146021247955
30
0
10
-16.016464511882781
20
-1.715299009503213
30
0
10
-16.06107151379484
20
-1.7130835246900058
30
0
10
-16.105737768774851
20
-1.7100002902737235
30
0
10
-16.15046728356371
20
-1.7064438760743281
30
0
10
-16.195254459362598
20
-1.7025650104720957
30
0
10
-16.240087740656882
20
-1.6983518339773256
30
0
10
-16.284952664144075
20
-1.6936944391415876
30
0
10
-16.329834986980135
20
-1.6884527998536971
30
0
10
-16.374724120830692
20
-1.6825299085858063
30
0
10
-16.419615389608566
20
-1.6759220361294629
30
0
10
-16.46450786412543
20
-1.6686814549550846
30
0
10
-16.509402858858962
20
-1.6608924281402704
30
0
10
-16.554302267533128
20
-1.6526436375912867
30
0
10
-16.599206743320863
20
-1.643998377168066
30
0
10
-16.644114680748011
20
-1.6349780017083071
30
0
10
-16.68902318171375
20
-1.6255786361247895
30
0
10
-16.733928641873007
20
-1.6157815120827195
30
0
10
-16.778827440200001
20
-1.6055650186642709
30
0
10
-16.823716696763299
20
-1.5949179461779919
30
0
10
-16.868594614364739
20
-1.5838455794454243
30
0
10
-16.913460049865947
20
-1.5723625751324635
30
0
10
-16.958312253274375
20
-1.5604887197624624
30
0
10
-17.003150562072193
20
-1.5482439091043401
30
0
10
-17.047974061707819
20
-1.5356425724617093
30
0
10
-17.092781452404132
20
-1.5226915470232139
30
0
10
-17.137571226587795
20
-1.5093931553893278
30
0
10
-17.182341773744209
20
-1.4957470681327272
30
0
10
-17.227091504967579
20
-1.4817524910264175
30
0
10
-17.271818992648399
20
-1.467410616984135
30
0
10
-17.31652301713142
20
-1.4527254773352065
30
0
10
-17.361202488736488
20
-1.4377026530475547
30
0
10
-17.405856400279024
20
-1.4223485081593392
30
0
10
-17.450483771582913
20
-1.4066692850316844
30
0
10
-17.49508358773506
20
-1.3906700904369431
30
0
10
-17.539654777365836
20
-1.3743545692332135
30
0
10
-17.584196242572435
20
-1.3577254639811493
30
0
10
-17.628706876274283
20
-1.340784959054758
30
0
10
-17.673185583321857
20
-1.3235350832617367
30
0
10
-17.71763130402347
20
-1.3059781637262977
30
0
10
-17.762043022865452
20
-1.2881169851049437
30
0
10
-17.806419756928001
20
-1.2699545528192902
30
0
10
-17.85076054970795
20
-1.2514939545915837
30
0
10
-17.895064463199766
20
-1.2327381965353743
30
0
10
-17.939330570618644
20
-1.2136900229219096
30
0
10
-17.983557950604158
20
-1.1943518503680854
30
0
10
-18.027745684444191
20
-1.174725875937926
30
0
10
-18.071892852435219
20
-1.1548141467215667
30
0
10
-18.115998531636492
20
-1.1346186408697825
30
0
10
-18.16006179151292
20
-1.1141413602222607
30
0
10
-18.204081696937454
20
-1.0933843702872157
30
0
10
-18.248057322978553
20
-1.0723497415415055
30
0
10
-18.291987768274179
20
-1.0510395135854738
30
0
10
-18.335872167289107
20
-1.0294556552239673
30
0
10
-18.379709708274262
20
-1.0076000208117417
30
0
10
-18.423499633487626
20
-0.98547433427939435
30
0
10
-18.467241197919591
20
-0.963080240129084
30
0
10
-18.510933635007987
20
-0.94041934422714191
30
0
10
-18.554576123158764
20
-0.917493257159679
30
0
10
-18.598167744535864
20
-0.89430364648409411
30
0
10
-18.641707471037151
20
-0.87085226252978631
30
0
10
-18.685194252116698
20
-0.84714085850000787
30
0
10
-18.728627087997513
20
-0.82317112832088657
30
0
10
-18.772005106835895
20
-0.79894464025220324
30
0
10
-18.815327645895525
20
-0.774462771991835
30
0
10
-18.858594316680556
20
-0.7497266528806551
30
0
10
-18.901804929706259
20
-0.72473716460084803
30
0
10
-18.936328532493
20
-0.70454338281951856
30
0
10
-18.962195994214113
20
-0.68928448414366583
30
0
10
-18.979429754494003
20
-0.67906142963536043
30
0
10
-18.988043831082862
20
-0.67393728853362156
30
0
0
LINE
5
138
100
AcDbEntity
8
0
100
AcDbLine
10
-15.882894514258474
20
-1.7108722569585324
30
0
11
-14.953916963210725
21
-1.6115017890653538
31
0
0
ARC
5
139
100
AcDbEntity
8
0
100
AcDbCircle
10
-14.900736561324525
20
-2.1086655898948417
30
0
40
0.499999999999999
100
AcDbArc
50
8.0546813147469152
51
96.105573949165802
0
ARC
5
140
100
AcDbEntity
8
0
100
AcDbCircle
10
-2.8782531913407183e-13
20
3.0597746558669314e-12
30
0
40
14.549200000000145
100
AcDbArc
50
188.05468131475897
51
193.12178927350027
0
ARC
5
141
100
AcDbEntity
8
0
100
AcDbCircle
10
-14.656260912230403
20
-3.416494799151208
30
0
40
0.49999999999999989
100
AcDbArc
50
-74.929103360930682
51
13.121789273491263
0
LINE
5
142
100
AcDbEntity
8
0
100
AcDbLine
10
-14.526253880358267
20
-3.8992972138756965
30
0
11
-15.428396401841889
21
-4.1422224105333392
31
0
0
SPLINE
5
143
100
AcDbEntity
8
0
100
AcDbSpline
70
1064
71
5
72
81
73
75
74
0
42
0.000000001
43
0.0000000001
44
0.0000000001
40
0
40
0
40
0
40
0
40
0
40
0
40
0.014285714285714285
40
0.028571428571428571
40
0.042857142857142858
40
0.057142857142857141
40
0.071428571428571425
40
0.085714285714285715
40
0.10000000000000001
40
0.1142857142857143
40
0.12857142857142859
40
0.14285714285714288
40
0.15714285714285717
40
0.17142857142857146
40
0.18571428571428575
40
0.20000000000000004
40
0.21428571428571433
40
0.22857142857142862
40
0.24285714285714291
40
0.25714285714285717
40
0.27142857142857146
40
0.28571428571428575
40
0.30000000000000004
40
0.31428571428571433
40
0.32857142857142863
40
0.34285714285714292
40
0.35714285714285721
40
0.3714285714285715
40
0.38571428571428579
40
0.40000000000000008
40
0.41428571428571437
40
0.42857142857142866
40
0.44285714285714295
40
0.45714285714285724
40
0.47142857142857153
40
0.48571428571428582
40
0.50000000000000011
40
0.51428571428571435
40
0.52857142857142858
40
0.54285714285714282
40
0.55714285714285705
40
0.57142857142857129
40
0.58571428571428552
40
0.59999999999999976
40
0.61428571428571399
40
0.62857142857142823
40
0.64285714285714246
40
0.6571428571428567
40
0.67142857142857093
40
0.68571428571428517
40
0.6999999999999994
40
0.71428571428571364
40
0.72857142857142787
40
0.74285714285714211
40
0.75714285714285634
40
0.77142857142857058
40
0.78571428571428481
40
0.79999999999999905
40
0.81428571428571328
40
0.82857142857142752
40
0.84285714285714175
40
0.85714285714285599
40
0.87142857142857022
40
0.88571428571428445
40
0.89999999999999869
40
0.91428571428571292
40
0.92857142857142716
40
0.94285714285714139
40
0.95714285714285563
40
0.97142857142856986
40
0.9857142857142841
40
1
40
1
40
1
40
1
40
1
40
1
10
-15.428396401841889
20
-4.1422224105333392
30
0
10
-15.437036438237079
20
-4.1445489637003261
30
0
10
-15.454228872202101
20
-4.1494345500933676
30
0
10
-15.479754610122383
20
-4.1574603618455299
30
0
10
-15.5132913088467
20
-4.1694888874204841
30
0
10
-15.554545842773198
20
-4.1863456352133976
30
0
10
-15.595340307867843
20
-4.2045254209707057
30
0
10
-15.635876557490418
20
-4.2235357638119542
30
0
10
-15.676300862874717
20
-4.2430101857392186
30
0
10
-15.716662452667563
20
-4.2628061142042997
30
0
10
-15.756946267530648
20
-4.2829304335186356
30
0
10
-15.797099117686253
20
-4.3034804045782069
30
0
10
-15.83705713881213
20
-4.3245814527343658
30
0
10
-15.87677541441953
20
-4.34632020986533
30
0
10
-15.916248237041541
20
-4.3686984641568909
30
0
10
-15.955493623230165
20
-4.3916671373204821
30
0
10
-15.994543238033881
20
-4.4151481312203877
30
0
10
-16.033430882897271
20
-4.4390594365337606
30
0
10
-16.07218003126539
20
-4.4633422694472067
30
0
10
-16.110796900335316
20
-4.4879761372034412
30
0
10
-16.149277387865553
20
-4.5129636062989222
30
0
10
-16.187611352999888
20
-4.5383208756450149
30
0
10
-16.225787612468366
20
-4.5640667887570538
30
0
10
-16.263799431407286
20
-4.5902107580097908
30
0
10
-16.301647043077018
20
-4.6167472062310457
30
0
10
-16.33933467613118
20
-4.64366205353768
30
0
10
-16.376868778939212
20
-4.6709365786175967
30
0
10
-16.414255920902345
20
-4.6985519898897472
30
0
10
-16.451500461692312
20
-4.7264945020550888
30
0
10
-16.488603659180466
20
-4.7547572700914307
30
0
10
-16.525564946616587
20
-4.7833375836400247
30
0
10
-16.562382703237674
20
-4.812235168097728
30
0
10
-16.599055160525307
20
-4.8414501900801774
30
0
10
-16.635581418203415
20
-4.870981021516406
30
0
10
-16.671961795261478
20
-4.9008234627134728
30
0
10
-16.708197291681156
20
-4.9309719159359062
30
0
10
-16.744289267246547
20
-4.961420083057817
30
0
10
-16.780239062971589
20
-4.9921617891703605
30
0
10
-16.816047577256946
20
-5.0231919057212338
30
0
10
-16.851715127754815
20
-5.0545066469581359
30
0
10
-16.887241681428492
20
-5.0861030589111769
30
0
10
-16.92262699504299
20
-5.1179787047886265
30
0
10
-16.957870780291675
20
-5.1501312971700086
30
0
10
-16.992972889695693
20
-5.182558283271832
30
0
10
-17.027933382250716
20
-5.2152566996333878
30
0
10
-17.062752427094821
20
-5.2482233887108967
30
0
10
-17.097430247729307
20
-5.2814551257603117
30
0
10
-17.131967055423534
20
-5.3149487688175503
30
0
10
-17.166362977321516
20
-5.3487014241325923
30
0
10
-17.200618027262962
20
-5.3827105054435229
30
0
10
-17.234732142245409
20
-5.4169736321720539
30
0
10
-17.268705204165109
20
-5.4514885632282528
30
0
10
-17.302537066995917
20
-5.4862531206367979
30
0
10
-17.336227586187622
20
-5.5212651015897301
30
0
10
-17.36977663590784
20
-5.5565222422511447
30
0
10
-17.40318410162611
20
-5.5920222778350599
30
0
10
-17.43644987963598
20
-5.6277629808612701
30
0
10
-17.469573874064245
20
-5.6637422028065476
30
0
10
-17.502555997847626
20
-5.6999579212989868
30
0
10
-17.535396167168305
20
-5.7364082550931936
30
0
10
-17.568094281388202
20
-5.7730914016080606
30
0
10
-17.600650205815217
20
-5.8100055865036326
30
0
10
-17.633063756146523
20
-5.8471490111590887
30
0
10
-17.665334678916697
20
-5.8845197890628338
30
0
10
-17.697462647740959
20
-5.9221159166879813
30
0
10
-17.729447316344469
20
-5.9599353797202284
30
0
10
-17.761288364379645
20
-5.9979762374593921
30
0
10
-17.792985545397222
20
-6.0362367126005108
30
0
10
-17.824538739095861
20
-6.0747152810705991
30
0
10
-17.855947991178954
20
-6.113410749449768
30
0
10
-17.887213443457604
20
-6.1523222271440892
30
0
10
-17.912110908937919
20
-6.1836237316552944
30
0
10
-17.930719448656191
20
-6.2071966358939896
30
0
10
-17.943096458281293
20
-6.2229549026008488
30
0
10
-17.949277792213
20
-6.2308447852573927
30
0
0
ARC
5
144
100
AcDbEntity
8
0
100
AcDbCircle
10
-2.8782531913407183e-13
20
3.0597746558669314e-12
30
0
40
19.000000000000732
100
AcDbArc
50
199.14374091197237
51
203.20920026451603
0
SPLINE
5
145
100
AcDbEntity
8
0
100
AcDbSpline
70
1064
71
5
72
81
73
75
74
0
42
0.000000001
43
0.0000000001
44
0.0000000001
40
0
40
0
40
0
40
0
40
0
40
0
40
0.014285714285714285
40
0.028571428571428571
40
0.042857142857142858
40
0.057142857142857141
40
0.071428571428571425
40
0.085714285714285715
40
0.10000000000000001
40
0.1142857142857143
40
0.12857142857142859
40
0.14285714285714288
40
0.15714285714285717
40
0.17142857142857146
40
0.18571428571428575
40
0.20000000000000004
40
0.21428571428571433
40
0.22857142857142862
40
0.24285714285714291
40
0.25714285714285717
40
0.27142857142857146
40
0.28571428571428575
40
0.30000000000000004
40
0.31428571428571433
40
0.32857142857142863
40
0.34285714285714292
40
0.35714285714285721
40
0.3714285714285715
40
0.38571428571428579
40
0.40000000000000008
40
0.41428571428571437
40
0.42857142857142866
40
0.44285714285714295
40
0.45714285714285724
40
0.47142857142857153
40
0.48571428571428582
40
0.50000000000000011
40
0.51428571428571435
40
0.52857142857142858
40
0.54285714285714282
40
0.55714285714285705
40
0.57142857142857129
40
0.58571428571428552
40
0.59999999999999976
40
0.61428571428571399
40
0.62857142857142823
40
0.64285714285714246
40
0.6571428571428567
40
0.67142857142857093
40
0.68571428571428517
40
0.6999999999999994
40
0.71428571428571364
40
0.72857142857142787
40
0.74285714285714211
40
0.75714285714285634
40
0.77142857142857058
40
0.78571428571428481
40
0.79999999999999905
40
0.81428571428571328
40
0.82857142857142752
40
0.84285714285714175
40
0.85714285714285599
40
0.87142857142857022
40
0.88571428571428445
40
0.89999999999999869
40
0.91428571428571292
40
0.92857142857142716
40
0.94285714285714139
40
0.95714285714285563
40
0.97142857142856986
40
0.9857142857142841
40
1
40
1
40
1
40
1
40
1
40
1
10
-14.192319712367738
20
-7.3329041458777091
30
0
10
-14.200272165042204
20
-7.3370055572213051
30
0
10
-14.216268925320733
20
-7.3449775331769107
30
0
10
-14.240539627676618
20
-7.3562429651618864
30
0
10
-14.273427112367372
20
-7.369947305333838
30
0
10
-14.315270898368968
20
-7.3852830181864864
30
0
10
-14.357666014314287
20
-7.3993310478178298
30
0
10
-14.400429849412429
20
-7.4125913297192225
30
0
10
-14.443423604778808
20
-7.425433236692097
30
0
10
-14.486587610317789
20
-7.4379952962458304
30
0
10
-14.529915374974694
20
-7.4502622754022632
30
0
10
-14.573433115271408
20
-7.4621264637704385
30
0
10
-14.617178133417102
20
-7.4734521457815735
30
0
10
-14.661175599245022
20
-7.4841450396623577
30
0
10
-14.705422499579196
20
-7.4941999788319453
30
0
10
-14.74989908498301
20
-7.5036653702558267
30
0
10
-14.794576141835847
20
-7.5126202617579318
30
0
10
-14.839423400383126
20
-7.5211480308451044
30
0
10
-14.884418605311055
20
-7.5293079332373054
30
0
10
-14.929552545302414
20
-7.5371193017634885
30
0
10
-14.974823917801636
20
-7.5445774760976718
30
0
10
-15.020236141761568
20
-7.5516636532492427
30
0
10
-15.065793647440188
20
-7.5583563735720913
30
0
10
-15.111497798789028
20
-7.5646441439890078
30
0
10
-15.157345010872973
20
-7.5705312432264629
30
0
10
-15.203328923148831
20
-7.5760309252691638
30
0
10
-15.249441688552711
20
-7.5811613695721007
30
0
10
-15.29567550212442
20
-7.5859408890582252
30
0
10
-15.342024298604326
20
-7.5903826082783086
30
0
10
-15.388484396108947
20
-7.5944924331872379
30
0
10
-15.435053549847934
20
-7.5982719849471483
30
0
10
-15.481730377064043
20
-7.6017203745912347
30
0
10
-15.528513683054612
20
-7.6048362875458997
30
0
10
-15.57540170568328
20
-7.6076203204580413
30
0
10
-15.62239185137128
20
-7.610075791840007
30
0
10
-15.669481087943975
20
-7.612207512151528
30
0
10
-15.716666177273964
20
-7.6140210518444151
30
0
10
-15.763943950373314
20
-7.6155218776666125
30
0
10
-15.811311616084785
20
-7.6167143849126218
30
0
10
-15.858766858711348
20
-7.6176015852880505
30
0
10
-15.90630766376194
20
-7.6181856395463079
30
0
10
-15.953932209827764
20
-7.6184681846318618
30
0
10
-16.001638742822429
20
-7.6184507167379127
30
0
10
-16.049425433958643
20
-7.6181350230383664
30
0
10
-16.097290330364149
20
-7.6175233333022359
30
0
10
-16.145231429810018
20
-7.6166180949301268
30
0
10
-16.193246724969683
20
-7.6154218416084865
30
0
10
-16.241334255245565
20
-7.613937037608042
30
0
10
-16.289492165091445
20
-7.6121659070922263
30
0
10
-16.337718722381609
20
-7.6101103706554154
30
0
10
-16.386012276771449
20
-7.6077721451216993
30
0
10
-16.434371231168718
20
-7.6051528071105494
30
0
10
-16.482794010366312
20
-7.6022538677879705
30
0
10
-16.531279023518202
20
-7.5990768576658363
30
0
10
-16.579824652496754
20
-7.5956233649663396
30
0
10
-16.62842928688648
20
-7.5918949862278451
30
0
10
-16.677091349403678
20
-7.5878932977115028
30
0
10
-16.725809321746461
20
-7.5836198226057761
30
0
10
-16.774581777111138
20
-7.5790759968073864
30
0
10
-16.823407386168778
20
-7.574263154105755
30
0
10
-16.872284860155894
20
-7.5691825588249593
30
0
10
-16.921212904168733
20
-7.5638354314765639
30
0
10
-16.970190170282841
20
-7.5582229770933882
30
0
10
-17.019215200250379
20
-7.5523464190657696
30
0
10
-17.068286403102736
20
-7.546207018133936
30
0
10
-17.117402165904952
20
-7.5398060296102729
30
0
10
-17.16656094447605
20
-7.5331446718727442
30
0
10
-17.215761359325217
20
-7.5262240923337771
30
0
10
-17.265002294787358
20
-7.5190453362504073
30
0
10
-17.314282980635905
20
-7.5116093163607474
30
0
10
-17.363602921681277
20
-7.5039167863591771
30
0
10
-17.403090057916206
20
-7.4975580094349015
30
0
10
-17.432722897598168
20
-7.4926739151405419
30
0
10
-17.452485893711479
20
-7.4893667529900352
30
0
10
-17.462369334181922
20
-7.4877003970927376
30
0
0
LINE
5
146
100
AcDbEntity
8
0
100
AcDbLine
10
-14.192319712367738
20
-7.3329041458777091
30
0
11
-13.361970697667171
21
-6.9046585457534517
31
0
0
ARC
5
147
100
AcDbEntity
8
0
100
AcDbCircle
10
-13.132785169980146
20
-7.3490390065061924
30
0
40
0.50000000000000022
100
AcDbArc
50
29.231151902982234
51
117.28204453740111
0
ARC
5
148
100
AcDbEntity
8
0
100
AcDbCircle
10
-2.8782531913407183e-13
20
3.0597746558669314e-12
30
0
40
14.549200000001241
100
AcDbArc
50
209.23115190299325
51
214.29825986173412
0
ARC
5
149
100
AcDbEntity
8
0
100
AcDbCircle
10
-12.432376013794277
20
-8.4802386341206653
30
0
40
0.49999999999999967
100
AcDbArc
50
-53.752632772695293
51
34.298259861728717
0
LINE
5
150
100
AcDbEntity
8
0
100
AcDbLine
10
-12.136739718211969
20
-8.8834745213310775
30
0
11
-12.890207863660821
21
-9.4358869886359464
31
0
0
SPLINE
5
151
100
AcDbEntity
8
0
100
AcDbSpline
70
1064
71
5
72
81
73
75
74
0
42
0.000000001
43
0.0000000001
44
0.0000000001
40
0
40
0
40
0
40
0
40
0
40
0
40
0.014285714285714285
40
0.028571428571428571
40
0.042857142857142858
40
0.057142857142857141
40
0.071428571428571425
40
0.085714285714285715
40
0.10000000000000001
40
0.1142857142857143
40
0.12857142857142859
40
0.14285714285714288
40
0.15714285714285717
40
0.17142857142857146
40
0.18571428571428575
40
0.20000000000000004
40
0.21428571428571433
40
0.22857142857142862
40
0.24285714285714291
40
0.25714285714285717
40
0.27142857142857146
40
0.28571428571428575
40
0.30000000000000004
40
0.31428571428571433
40
0.32857142857142863
40
0.34285714285714292
40
0.35714285714285721
40
0.3714285714285715
40
0.38571428571428579
40
0.40000000000000008
40
0.41428571428571437
40
0.42857142857142866
40
0.44285714285714295
40
0.45714285714285724
40
0.47142857142857153
40
0.48571428571428582
40
0.50000000000000011
40
0.51428571428571435
40
0.52857142857142858
40
0.54285714285714282
40
0.55714285714285705
40
0.57142857142857129
40
0.58571428571428552
40
0.59999999999999976
40
0.61428571428571399
40
0.62857142857142823
40
0.64285714285714246
40
0.6571428571428567
40
0.67142857142857093
40
0.68571428571428517
40
0.6999999999999994
40
0.71428571428571364
40
0.72857142857142787
40
0.74285714285714211
40
0.75714285714285634
40
0.77142857142857058
40
0.78571428571428481
40
0.79999999999999905
40
0.81428571428571328
40
0.82857142857142752
40
0.84285714285714175
40
0.85714285714285599
40
0.87142857142857022
40
0.88571428571428445
40
0.89999999999999869
40
0.91428571428571292
40
0.92857142857142716
40
0.94285714285714139
40
0.95714285714285563
40
0.97142857142856986
40
0.9857142857142841
40
1
40
1
40
1
40
1
40
1
40
1
10
-12.890207863660821
20
-9.4358869886359464
30
0
10
-12.897424009717861
20
-9.4411775759977097
30
0
10
-12.911690599577188
20
-9.4519438731249146
30
0
10
-12.932593383713051
20
-9.4686486797992124
30
0
10
-12.959520219318906
20
-9.4919797987841275
30
0
10
-12.991899566883177
20
-9.522601104552475
30
0
10
-13.023371976599446
20
-9.5542899104496897
30
0
10
-13.054303575733936
20
-9.5866599095752463
30
0
10
-13.084963145272718
20
-9.6194222106376053
30
0
10
-13.115448092706712
20
-9.6524616521332991
30
0
10
-13.145741888721009
20
-9.6857792134310969
30
0
10
-13.175759800636889
20
-9.7194463732515839
30
0
10
-13.205396967884495
20
-9.7535570167975809
30
0
10
-13.234580212041401
20
-9.7881757001824692
30
0
10
-13.263303565085987
20
-9.8233020290649851
30
0
10
-13.291601556075401
20
-9.8588967476332332
30
0
10
-13.319531924088672
20
-9.8948984702793705
30
0
10
-13.34715581321861
20
-9.9312429360774441
30
0
10
-13.374516346963555
20
-9.9678838103403322
30
0
10
-13.401626725524906
20
-10.00480423005159
30
0
10
-13.428482196550942
20
-10.042005106497342
30
0
10
-13.455067452253125
20
-10.079497881412786
30
0
10
-13.48136525747991
20
-10.117296085989608
30
0
10
-13.507365932015997
20
-10.155406064092489
30
0
10
-13.533071708077166
20
-10.193822699426613
30
0
10
-13.558491615005932
20
-10.232534390457843
30
0
10
-13.583638428645697
20
-10.271526009502271
30
0
10
-13.608525063082723
20
-10.310782407073869
30
0
10
-13.633160563414224
20
-10.350292303659188
30
0
10
-13.65754857527752
20
-10.390049770860664
30
0
10
-13.681689549288292
20
-10.430052076610243
30
0
10
-13.705582073328138
20
-10.470298379360994
30
0
10
-13.72922443811424
20
-10.510788195614825
30
0
10
-13.75261639229123
20
-10.551519682023551
30
0
10
-13.775759750412007
20
-10.592489037722419
30
0
10
-13.798657467067004
20
-10.633691404213598
30
0
10
-13.821313085362608
20
-10.675121399880272
30
0
10
-13.843730086391437
20
-10.716773751221531
30
0
10
-13.865911160533944
20
-10.75864400054453
30
0
10
-13.887857971563447
20
-10.800728732489588
30
0
10
-13.909571555771141
20
-10.843025180627585
30
0
10
-13.931052566617865
20
-10.88553098485129
30
0
10
-13.952301561577267
20
-10.928243908056265
30
0
10
-13.973319325301176
20
-10.971161516567289
30
0
10
-13.994106983326899
20
-11.01428106835124
30
0
10
-14.014665834007383
20
-11.057599680185952
30
0
10
-14.034997250663281
20
-11.101114425825143
30
0
10
-14.055102565305752
20
-11.144822451793848
30
0
10
-14.074982941836133
20
-11.188721105680251
30
0
10
-14.09463932742514
20
-11.232807980866422
30
0
10
-14.11407252328878
20
-11.2770808347701
30
0
10
-14.133283228873658
20
-11.32153753497316
30
0
10
-14.152272094789886
20
-11.36617599782338
30
0
10
-14.171039781994414
20
-11.410994117045945
30
0
10
-14.189586990943901
20
-11.455989736220843
30
0
10
-14.207914432976928
20
-11.501160702124871
30
0
10
-14.226022816048774
20
-11.546504900231495
30
0
10
-14.243912826896443
20
-11.592020292469083
30
0
10
-14.261585114900852
20
-11.637704961581107
30
0
10
-14.279040281488424
20
-11.683557123079995
30
0
10
-14.296278883984353
20
-11.729575059754252
30
0
10
-14.313301437757511
20
-11.775757068424751
30
0
10
-14.330108420687422
20
-11.822101405349656
30
0
10
-14.346700277911204
20
-11.868606219847033
30
0
10
-14.363077428841503
20
-11.915269525779911
30
0
10
-14.379240278240905
20
-11.962089319767241
30
0
10
-14.395189228455951
20
-12.009063676437107
30
0
10
-14.410924691716156
20
-12.056190849474238
30
0
10
-14.426447106402524
20
-12.103469374265055
30
0
10
-14.441756946245189
20
-12.150898154488612
30
0
10
-14.456854665198691
20
-12.198476410918888
30
0
10
-14.468763452697846
20
-12.236658196528108
30
0
10
-14.477599884010848
20
-12.265361454990238
30
0
10
-14.48344855924792
20
-12.284526692657318
30
0
10
-14.486362327123036
20
-12.294116744496552
30
0
0
ARC
5
152
100
AcDbEntity
8
0
100
AcDbCircle
10
-2.8782531913407183e-13
20
3.0597746558669314e-12
30
0
40
19.000000000001762
100
AcDbArc
50
220.32021150020623
51
224.38567085274971
0
SPLINE
5
153
100
AcDbEntity
8
0
100
AcDbSpline
70
1064
71
5
72
81
73
75
74
0
42
0.000000001
43
0.0000000001
44
0.0000000001
40
0
40
0
40
0
40
0
40
0
40
0
40
0.014285714285714285
40
0.028571428571428571
40
0.042857142857142858
40
0.057142857142857141
40
0.071428571428571425
40
0.085714285714285715
40
0.10000000000000001
40
0.1142857142857143
40
0.12857142857142859
40
0.14285714285714288
40
0.15714285714285717
40
0.17142857142857146
40
0.18571428571428575
40
0.20000000000000004
40
0.21428571428571433
40
0.22857142857142862
40
0.24285714285714291
40
0.25714285714285717
40
0.27142857142857146
40
0.28571428571428575
40
0.30000000000000004
40
0.31428571428571433
40
0.32857142857142863
40
0.34285714285714292
40
0.35714285714285721
40
0.3714285714285715
40
0.38571428571428579
40
0.40000000000000008
40
0.41428571428571437
40
0.42857142857142866
40
0.44285714285714295
40
0.45714285714285724
40
0.47142857142857153
40
0.48571428571428582
40
0.50000000000000011
40
0.51428571428571435
40
0.52857142857142858
40
0.54285714285714282
40
0.55714285714285705
40
0.57142857142857129
40
0.58571428571428552
40
0.59999999999999976
40
0.61428571428571399
40
0.62857142857142823
40
0.64285714285714246
40
0.6571428571428567
40
0.67142857142857093
40
0.68571428571428517
40
0.6999999999999994
40
0.71428571428571364
40
0.72857142857142787
40
0.74285714285714211
40
0.75714285714285634
40
0.77142857142857058
40
0.78571428571428481
40
0.79999999999999905
40
0.81428571428571328
40
0.82857142857142752
40
0.84285714285714175
40
0.85714285714285599
40
0.87142857142857022
40
0.88571428571428445
40
0.89999999999999869
40
0.91428571428571292
40
0.92857142857142716
40
0.94285714285714139
40
0.95714285714285563
40
0.97142857142856986
40
0.9857142857142841
40
1
40
1
40
1
40
1
40
1
40
1
10
-10.584993490963386
20
-11.964586696871526
30
0
10
-10.590927331570501
20
-11.971283906305194
30
0
10
-10.60296405641366
20
-11.984496248833889
30
0
10
-10.621526268928093
20
-12.003768540270695
30
0
10
-10.647242356419467
20
-12.028427786669742
30
0
10
-10.68072062637604
20
-12.057843631997752
30
0
10
-10.715178161026753
20
-12.086257911829112
30
0
10
-10.750264083350423
20
-12.114070835499639
30
0
10
-10.785715534395479
20
-12.141576692948634
30
0
10
-10.821426831546502
20
-12.168883101906827
30
0
10
-10.857397424861679
20
-12.195973513205708
30
0
10
-10.893690670000717
20
-12.222756960396936
30
0
10
-10.930390376355959
20
-12.249120367593724
30
0
10
-10.967554072602804
20
-12.274984912053213
30
0
10
-11.005180815422611
20
-12.300344687597541
30
0
10
-11.043234702401321
20
-12.325237698058336
30
0
10
-11.081659937281366
20
-12.349727100159235
30
0
10
-11.120398174927711
20
-12.373879706413343
30
0
10
-11.159407257243281
20
-12.397742731587318
30
0
10
-11.198671611107224
20
-12.421330875495698
30
0
10
-11.238191705426575
20
-12.444639321976576
30
0
10
-11.277977520703573
20
-12.467651772831607
30
0
10
-11.318040940149066
20
-12.490349817930507
30
0
10
-11.358387387388342
20
-12.512723233014079
30
0
10
-11.399011973914687
20
-12.534774712847994
30
0
10
-11.439903980806687
20
-12.556514318711701
30
0
10
-11.481049523718568
20
-12.577956167755691
30
0
10
-11.522434709350902
20
-12.599114516795229
30
0
10
-11.564049140882933
20
-12.619999413084939
30
0
10
-11.605887251583569
20
-12.640615033714015
30
0
10
-11.647946362616848
20
-12.660962079459326
30
0
10
-11.690225505731881
20
-12.681039221874478
30
0
10
-11.732724041780376
20
-12.700844803579724
30
0
10
-11.775440112085391
20
-12.720378744374642
30
0
10
-11.818370099421818
20
-12.739643201771134
30
0
10
-11.861509438632531
20
-12.758641566041485
30
0
10
-11.904853097974355
20
-12.777377861730779
30
0
10
-11.94839614763691
20
-12.795856041659178
30
0
10
-11.992134397180079
20
-12.814079196034454
30
0
10
-12.036064599327132
20
-12.832049296662195
30
0
10
-12.08018409506694
20
-12.84976763066684
30
0
10
-12.12449059465383
20
-12.867235066484897
30
0
10
-12.168981921963635
20
-12.884452365625886
30
0
10
-12.213655726101303
20
-12.90142053394568
30
0
10
-12.258509380582225
20
-12.918140945183129
30
0
10
-12.303540134280448
20
-12.934615158182813
30
0
10
-12.348745200146578
20
-12.950844810406997
30
0
10
-12.39412185978056
20
-12.966831491470156
30
0
10
-12.439667579476573
20
-12.982576605042325
30
0
10
-12.485380050276774
20
-12.998081316308443
30
0
10
-12.531257113092247
20
-13.013346629986051
30
0
10
-12.577296709138189
20
-13.028373439292771
30
0
10
-12.623496823681588
20
-13.043162584318486
30
0
10
-12.669855420418038
20
-13.057714917543155
30
0
10
-12.716370416756437
20
-13.072031335404741
30
0
10
-12.763039734292878
20
-13.086112744881753
30
0
10
-12.809861332842914
20
-13.099960046013354
30
0
10
-12.856833246393046
20
-13.113574110656579
30
0
10
-12.90395362578275
20
-13.126955762324306
30
0
10
-12.951220749629384
20
-13.140105764529125
30
0
10
-12.998632959470262
20
-13.153024830663067
30
0
10
-13.046188606943955
20
-13.165713631046076
30
0
10
-13.093885999840289
20
-13.178172802411316
30
0
10
-13.141723336444075
20
-13.190402958756426
30
0
10
-13.189698677789373
20
-13.202404700962507
30
0
10
-13.237810066387985
20
-13.214178616914181
30
0
10
-13.286055622205147
20
-13.225725284892558
30
0
10
-13.334433644410804
20
-13.237045276498298
30
0
10
-13.38294271508785
20
-13.248139163379847
30
0
10
-13.431581786302363
20
-13.259007518402214
30
0
10
-13.480350124037992
20
-13.269650865481372
30
0
10
-13.519467837166809
20
-13.277985881472974
30
0
10
-13.548863975609342
20
-13.284136215558263
30
0
10
-13.568487105420427
20
-13.288191596339598
30
0
10
-13.578305096370888
20
-13.290208076244269
30
0
0
LINE
5
154
100
AcDbEntity
8
0
100
AcDbLine
10
-10.584993490963386
20
-11.964586696871526
30
0
11
-9.9654162481680437
21
-11.265302905803763
31
0
0
ARC
5
155
100
AcDbEntity
8
0
100
AcDbCircle
10
-9.5911783701551752
20
-11.596883982857962
30
0
40
0.50000000000000067
100
AcDbArc
50
50.407622491217495
51
138.45851512563638
0
ARC
5
156
100
AcDbEntity
8
0
100
AcDbCircle
10
-2.8782531913407183e-13
20
3.0597746558669314e-12
30
0
40
14.549200000002173
100
AcDbArc
50
230.40762249122602
51
235.4747304499667
0
ARC
5
157
100
AcDbEntity
8
0
100
AcDbCircle
10
-8.5294298445215748
20
-12.398679250927685
30
0
40
0.49999999999999944
100
AcDbArc
50
-32.576162184460003
51
55.47473044996017
0
LINE
5
158
100
AcDbEntity
8
0
100
AcDbLine
10
-8.1080916051247502
20
-12.667889369649071
30
0
11
-8.6111253263848386
21
-13.455182742868487
31
0
0
SPLINE
5
159
100
AcDbEntity
8
0
100
AcDbSpline
70
1064
71
5
72
81
73
75
74
0
42
0.000000001
43
0.0000000001
44
0.0000000001
40
0
40
0
40
0
40
0
40
0
40
0
40
0.014285714285714285
40
0.028571428571428571
40
0.042857142857142858
40
0.057142857142857141
40
0.071428571428571425
40
0.085714285714285715
40
0.10000000000000001
40
0.1142857142857143
40
0.12857142857142859
40
0.14285714285714288
40
0.15714285714285717
40
0.17142857142857146
40
0.18571428571428575
40
0.20000000000000004
40
0.21428571428571433
40
0.22857142857142862
40
0.24285714285714291
40
0.25714285714285717
40
0.27142857142857146
40
0.28571428571428575
40
0.30000000000000004
40
0.31428571428571433
40
0.32857142857142863
40
0.34285714285714292
40
0.35714285714285721
40
0.3714285714285715
40
0.38571428571428579
40
0.40000000000000008
40
0.41428571428571437
40
0.42857142857142866
40
0.44285714285714295
40
0.45714285714285724
40
0.47142857142857153
40
0.48571428571428582
40
0.50000000000000011
40
0.51428571428571435
40
0.52857142857142858
40
0.54285714285714282
40
0.55714285714285705
40
0.57142857142857129
40
0.58571428571428552
40
0.59999999999999976
40
0.61428571428571399
40
0.62857142857142823
40
0.64285714285714246
40
0.6571428571428567
40
0.67142857142857093
40
0.68571428571428517
40
0.6999999999999994
40
0.71428571428571364
40
0.72857142857142787
40
0.74285714285714211
40
0.75714285714285634
40
0.77142857142857058
40
0.78571428571428481
40
0.79999999999999905
40
0.81428571428571328
40
0.82857142857142752
40
0.84285714285714175
40
0.85714285714285599
40
0.87142857142857022
40
0.88571428571428445
40
0.89999999999999869
40
0.91428571428571292
40
0.92857142857142716
40
0.94285714285714139
40
0.95714285714285563
40
0.97142857142856986
40
0.9857142857142841
40
1
40
1
40
1
40
1
40
1
40
1
10
-8.6111253263848386
20
-13.455182742868487
30
0
10
-8.615943001592683
20
-13.462722841285665
30
0
10
-8.6253569653319104
20
-13.47791580106189
30
0
10
-8.6388137588594773
20
-13.501043525952433
30
0
10
-8.655494112991553
20
-13.532526241446199
30
0
10
-8.6746252638848826
20
-13.572776528167452
30
0
10
-8.6925250948959469
20
-13.613694605374423
30
0
10
-8.7096745596813356
20
-13.65505251303402
30
0
10
-8.7264286486178495
20
-13.696677962930828
30
0
10
-8.7429197926191033
20
-13.738498757805274
30
0
10
-8.7591322247691661
20
-13.780509839814288
30
0
10
-8.7749611131060909
20
-13.822747251905765
30
0
10
-8.7902747628134215
20
-13.865260659417107
30
0
10
-8.8049816166864989
20
-13.908083824036044
30
0
10
-8.819076252163395
20
-13.95121422215222
30
0
10
-8.8326050474659024
20
-13.994627722145342
30
0
10
-8.8456440177210229
20
-14.038287941401917
30
0
10
-8.8582733918212568
20
-14.082157046187024
30
0
10
-8.8705501192508169
20
-14.126207408696057
30
0
10
-8.8824926004550928
20
-14.170428073097231
30
0
10
-8.89409607480356
20
-14.21481817239208
30
0
10
-8.9053421349770225
20
-14.259382845869908
30
0
10
-8.916209821645074
20
-14.304128484936328
30
0
10
-8.9266878166075152
20
-14.349057508171876
30
0
10
-8.9367800495624419
20
-14.394165951143075
30
0
10
-8.9464991310785145
20
-14.439446257516247
30
0
10
-8.9558624390246582
20
-14.484888936313215
30
0
10
-8.9648874880532521
20
-14.530484526165012
30
0
10
-8.9735867870964974
20
-14.576225776704563
30
0
10
-8.9819658771941633
20
-14.622108476821884
30
0
10
-8.990026165469672
20
-14.66813024172054
30
0
10
-8.9977666391636504
20
-14.714289776565385
30
0
10
-9.0051858790769916
20
-14.760586013043707
30
0
10
-9.0122843167219671
20
-14.807017141484472
30
0
10
-9.0190650171494795
20
-14.853580273178972
30
0
10
-9.0255324905249044
20
-14.900271945034069
30
0
10
-9.0316919847607853
20
-14.94708841875919
30
0
10
-9.0375486508875706
20
-14.99402603447688
30
0
10
-9.0431066079147033
20
-15.041081607389872
30
0
10
-9.048368641034827
20
-15.088252553794357
30
0
10
-9.0533367159101665
20
-15.135536668423565
30
0
10
-9.0580122944438752
20
-15.182931986600323
30
0
10
-9.0623967045999816
20
-15.230436623669579
30
0
10
-9.0664915571894191
20
-15.27804859374571
30
0
10
-9.0702988922810839
20
-15.325765746549948
30
0
10
-9.0738209620930181
20
-15.373585862576874
30
0
10
-9.0770601042906822
20
-15.421506709283738
30
0
10
-9.0800185917315375
20
-15.4695261070623
30
0
10
-9.0826984678829223
20
-15.517642003061869
30
0
10
-9.0851014853258967
20
-15.56585249533558
30
0
10
-9.0872292012862914
20
-15.614155782170355
30
0
10
-9.0890830382969181
20
-15.662550127814781
30
0
10
-9.0906643557356368
20
-15.711033824348489
30
0
10
-9.0919745308006732
20
-15.759605146493907
30
0
10
-9.0930149956371658
20
-15.808262336483388
30
0
10
-9.0937871913825283
20
-15.857003643461223
30
0
10
-9.0942925420404812
20
-15.905827351433093
30
0
10
-9.0945324242106089
20
-15.954731808031806
30
0
10
-9.0945081360155182
20
-16.003715460052344
30
0
10
-9.0942208828999149
20
-16.052776860769892
30
0
10
-9.0936718048824066
20
-16.101914610261492
30
0
10
-9.0928619977894201
20
-16.151127306532619
30
0
10
-9.0917925371425419
20
-16.200413496222431
30
0
10
-9.0904645065632046
20
-16.249771614423494
30
0
10
-9.0888790146174774
20
-16.299199960627561
30
0
10
-9.0870371624399446
20
-16.348696812954554
30
0
10
-9.0849400207321356
20
-16.398260521392956
30
0
10
-9.0825886047284623
20
-16.447889606466759
30
0
10
-9.079983852286496
20
-16.49758286082595
30
0
10
-9.0771266011832239
20
-16.547339433312764
30
0
10
-9.0740175562075684
20
-16.597158761307863
30
0
10
-9.0713293179849313
20
-16.637064166296
30
0
10
-9.0692002318794831
20
-16.667021244876004
30
0
10
-9.0677306767291306
20
-16.687005081958123
30
0
10
-9.0669833580503809
20
-16.697000113338845
30
0
0
ARC
5
160
100
AcDbEntity
8
0
100
AcDbCircle
10
-2.8782531913407183e-13
20
3.0597746558669314e-12
30
0
40
19.000000000002551
100
AcDbArc
50
241.49668208843906
51
245.5621414409822
0
SPLINE
5
161
100
AcDbEntity
8
0
100
AcDbSpline
70
1064
71
5
72
81
73
75
74
0
42
0.000000001
43
0.0000000001
44
0.0000000001
40
0
40
0
40
0
40
0
40
0
40
0
40
0.014285714285714285
40
0.028571428571428571
40
0.042857142857142858
40
0.057142857142857141
40
0.071428571428571425
40
0.085714285714285715
40
0.10000000000000001
40
0.1142857142857143
40
0.12857142857142859
40
0.14285714285714288
40
0.15714285714285717
40
0.17142857142857146
40
0.18571428571428575
40
0.20000000000000004
40
0.21428571428571433
40
0.22857142857142862
40
0.24285714285714291
40
0.25714285714285717
40
0.27142857142857146
40
0.28571428571428575
40
0.30000000000000004
40
0.31428571428571433
40
0.32857142857142863
40
0.34285714285714292
40
0.35714285714285721
40
0.3714285714285715
40
0.38571428571428579
40
0.40000000000000008
40
0.41428571428571437
40
0.42857142857142866
40
0.44285714285714295
40
0.45714285714285724
40
0.47142857142857153
40
0.48571428571428582
40
0.50000000000000011
40
0.51428571428571435
40
0.52857142857142858
40
0.54285714285714282
40
0.55714285714285705
40
0.57142857142857129
40
0.58571428571428552
40
0.59999999999999976
40
0.61428571428571399
40
0.62857142857142823
40
0.64285714285714246
40
0.6571428571428567
40
0.67142857142857093
40
0.68571428571428517
40
0.6999999999999994
40
0.71428571428571364
40
0.72857142857142787
40
0.74285714285714211
40
0.75714285714285634
40
0.77142857142857058
40
0.78571428571428481
40
0.79999999999999905
40
0.81428571428571328
40
0.82857142857142752
40
0.84285714285714175
40
0.85714285714285599
40
0.87142857142857022
40
0.88571428571428445
40
0.89999999999999869
40
0.91428571428571292
40
0.92857142857142716
40
0.94285714285714139
40
0.95714285714285563
40
0.97142857142856986
40
0.9857142857142841
40
1
40
1
40
1
40
1
40
1
40
1
10
-5.54810524513071
20
-14.980385516389269
30
0
10
-5.5512190756159345
20
-14.988774028668473
30
0
10
-5.5576701386358609
20
-15.005442337699638
30
0
10
-5.5680169316519956
20
-15.03011865883828
30
0
10
-5.5830885218305237
20
-15.062402443596628
30
0
10
-5.6036798498749345
20
-15.101925648489624
30
0
10
-5.6255461222406744
20
-15.140868672580821
30
0
10
-5.6482155835622594
20
-15.179477948562045
30
0
10
-5.67133681537908
20
-15.217932938023457
30
0
10
-5.6947723955787684
20
-15.25629581454627
30
0
10
-5.7185277896050675
20
-15.294550947828531
30
0
10
-5.7426949357225894
20
-15.332636400887438
30
0
10
-5.7673928315840106
20
-15.370477009043263
30
0
10
-5.7927035951404946
20
-15.40802005403182
30
0
10
-5.8186284803311406
20
-15.445259687740251
30
0
10
-5.8451202805844087
20
-15.482218378238306
30
0
10
-5.8721041525995323
20
-15.518934861483809
30
0
10
-5.8995015556948189
20
-15.555450361596021
30
0
10
-5.9272561226745246
20
-15.59179367577244
30
0
10
-5.9553480218504316
20
-15.627972885521771
30
0
10
-5.9837794302636809
20
-15.663983669295545
30
0
10
-6.0125655420437703
20
-15.699814434849667
30
0
10
-6.0417240884609535
20
-15.735452307959807
30
0
10
-6.0712638203236216
20
-15.770889714027621
30
0
10
-6.101179205773378
20
-15.806127399914958
30
0
10
-6.1314566151603174
20
-15.841170875364464
30
0
10
-6.1620780020146304
20
-15.876028288622726
30
0
10
-6.1930252610647152
20
-15.910707914935429
30
0
10
-6.2242850680769397
20
-15.945215367323636
30
0
10
-6.2558507232904992
20
-15.979552529871805
30
0
10
-6.2877194756154449
20
-16.01371908832774
30
0
10
-6.3198909020748983
20
-16.047713454179505
30
0
10
-6.3523650053954519
20
-16.081533851079516
30
0
10
-6.385140081384205
20
-16.115179532811563
30
0
10
-6.4182119776960045
20
-16.148651204503135
30
0
10
-6.4515752127409955
20
-16.181950378364036
30
0
10
-6.4852236407250334
20
-16.215078989495503
30
0
10
-6.5191512368135012
20
-16.248038942939644
30
0
10
-6.5533529772255523
20
-16.280831606467821
30
0
10
-6.5878251216674837
20
-16.313457645682327
30
0
10
-6.6225647257222775
20
-16.345917300245357
30
0
10
-6.6575693405502356
20
-16.378210552798286
30
0
10
-6.6928366618870347
20
-16.410337327320878
30
0
10
-6.728364134231275
20
-16.442297712504555
30
0
10
-6.7641488122072824
20
-16.474092040526966
30
0
10
-6.8001875673468941
20
-16.505720771146073
30
0
10
-6.8364772092843538
20
-16.537184424451599
30
0
10
-6.8730146289521175
20
-16.568483500715526
30
0
10
-6.909796956675768
20
-16.599618393541075
30
0
10
-6.9468216185028879
20
-16.630589355339055
30
0
10
-6.9840862381971869
20
-16.661396543027806
30
0
10
-7.0215885733315861
20
-16.692040045789092
30
0
10
-7.0593264417480324
20
-16.722519919177905
30
0
10
-7.0972976366979434
20
-16.752836222510123
30
0
10
-7.1354998923921915
20
-16.78298903937057
30
0
10
-7.1739309431384379
20
-16.812978464685436
30
0
10
-7.2125885613896878
20
-16.842804600716615
30
0
10
-7.2514705989418715
20
-16.872467550240586
30
0
10
-7.2905750340169817
20
-16.90196741316641
30
0
10
-7.329899985660953
20
-16.931304279613244
30
0
10
-7.369443649696457
20
-16.960478215693517
30
0
10
-7.4092042469247446
20
-16.989489251005132
30
0
10
-7.4491799693922713
20
-17.018337367987264
30
0
10
-7.4893689152481322
20
-17.047022488321062
30
0
10
-7.5297690593971458
20
-17.075544471876174
30
0
10
-7.5703783641675031
20
-17.103903159712392
30
0
10
-7.6111948675797647
20
-17.132098411913898
30
0
10
-7.6522167771711649
20
-17.160130147071751
30
0
10
-7.6934425642701427
20
-17.187998386021516
30
0
10
-7.7348710447647004
20
-17.215703284386507
30
0
10
-7.7765013449447062
20
-17.243245065546532
30
0
10
-7.8099665710506301
20
-17.265148184358424
30
0
10
-7.835155896867442
20
-17.28150231012496
30
0
10
-7.8519889479598035
20
-17.292372532191983
30
0
10
-7.8604155153090547
20
-17.297799511113794
30
0
0
LINE
5
162
100
AcDbEntity
8
0
100
AcDbLine
10
-5.54810524513071
20
-14.980385516389269
30
0
11
-5.222977114076123
21
-14.10450568522695
31
0
0
ARC
5
163
100
AcDbEntity
8
0
100
AcDbCircle
10
-4.7542297848867161
20
-14.278505516772267
30
0
40
0.50000000000000078
100
AcDbArc
50
71.584093079452742
51
159.63498571387146
0
ARC
5
164
100
AcDbEntity
8
0
100
AcDbCircle
10
-2.8782531913407183e-13
20
3.0597746558669314e-12
30
0
40
14.549200000002813
100
AcDbArc
50
251.58409307945766
51
256.65120103819828
0
ARC
5
165
100
AcDbEntity
8
0
100
AcDbCircle
10
-3.4745369115438756
20
-14.642609531443471
30
0
40
0.49999999999999994
100
AcDbArc
50
-11.399691596224672
51
76.651201038192212
0
LINE
5
166
100
AcDbEntity
8
0
100
AcDbLine
10
-2.9844007922788562
20
-14.741435563397742
30
0
11
-3.169062597887935
21
-15.657281509935245
31
0
0
SPLINE
5
167
100
AcDbEntity
8
0
100
AcDbSpline
70
1064
71
5
72
81
73
75
74
0
42
0.000000001
43
0.0000000001
44
0.0000000001
40
0
40
0
40
0
40
0
40
0
40
0
40
0.014285714285714285
40
0.028571428571428571
40
0.042857142857142858
40
0.057142857142857141
40
0.071428571428571425
40
0.085714285714285715
40
0.10000000000000001
40
0.1142857142857143
40
0.12857142857142859
40
0.14285714285714288
40
0.15714285714285717
40
0.17142857142857146
40
0.18571428571428575
40
0.20000000000000004
40
0.21428571428571433
40
0.22857142857142862
40
0.24285714285714291
40
0.25714285714285717
40
0.27142857142857146
40
0.28571428571428575
40
0.30000000000000004
40
0.31428571428571433
40
0.32857142857142863
40
0.34285714285714292
40
0.35714285714285721
40
0.3714285714285715
40
0.38571428571428579
40
0.40000000000000008
40
0.41428571428571437
40
0.42857142857142866
40
0.44285714285714295
40
0.45714285714285724
40
0.47142857142857153
40
0.48571428571428582
40
0.50000000000000011
40
0.51428571428571435
40
0.52857142857142858
40
0.54285714285714282
40
0.55714285714285705
40
0.57142857142857129
40
0.58571428571428552
40
0.59999999999999976
40
0.61428571428571399
40
0.62857142857142823
40
0.64285714285714246
40
0.6571428571428567
40
0.67142857142857093
40
0.68571428571428517
40
0.6999999999999994
40
0.71428571428571364
40
0.72857142857142787
40
0.74285714285714211
40
0.75714285714285634
40
0.77142857142857058
40
0.78571428571428481
40
0.79999999999999905
40
0.81428571428571328
40
0.82857142857142752
40
0.84285714285714175
40
0.85714285714285599
40
0.87142857142857022
40
0.88571428571428445
40
0.89999999999999869
40
0.91428571428571292
40
0.92857142857142716
40
0.94285714285714139
40
0.95714285714285563
40
0.97142857142856986
40
0.9857142857142841
40
1
40
1
40
1
40
1
40
1
40
1
10
-3.169062597887935
20
-15.657281509935245
30
0
10
-3.1708311485141039
20
-15.66605278733547
30
0
10
-3.1741210781656748
20
-15.683620516355843
30
0
10
-3.1783144665523819
20
-15.710047632061011
30
0
10
-3.182495564956108
20
-15.745430028884449
30
0
10
-3.1857947512409854
20
-15.789873272302364
30
0
10
-3.1877045321824147
20
-15.834494407757392
30
0
10
-3.1887557323709692
20
-15.87925460934953
30
0
10
-3.1893416081567274
20
-15.92412146041764
30
0
10
-3.1896117283472876
20
-15.969075478586024
30
0
10
-3.1895532178350621
20
-16.014106251889491
30
0
10
-3.1890553035122275
20
-16.059209519703419
30
0
10
-3.18797724243045
20
-16.104384019920783
30
0
10
-3.186221463910651
20
-16.149628160100633
30
0
10
-3.1837838231976323
20
-16.194937628191095
30
0
10
-3.180716284041984
20
-16.24030667587251
30
0
10
-3.1771028713545717
20
-16.285728837199297
30
0
10
-3.1730320634710867
20
-16.331197815283108
30
0
10
-3.1685669445182092
20
-16.376708420489958
30
0
10
-3.1637286301031975
20
-16.422257083818501
30
0
10
-3.1585129942662626
20
-16.467841277078652
30
0
10
-3.1529010161680109
20
-16.513459143024299
30
0
10
-3.1468708429728744
20
-16.559109070080254
30
0
10
-3.1404110470814177
20
-16.604789224900202
30
0
10
-3.1335267249465426
20
-16.650497330330698
30
0
10
-3.1262323652358868
20
-16.696230895763275
30
0
10
-3.1185476008664024
20
-16.741987348734682
30
0
10
-3.110492181605732
20
-16.787764193803302
30
0
10
-3.1020803908204488
20
-16.833559188950701
30
0
10
-3.0933189166046526
20
-16.879370409088207
30
0
10
-3.0842099325496939
20
-16.925196138770971
30
0
10
-3.0747529620339895
20
-16.971034804750303
30
0
10
-3.0649470676128452
20
-17.016884898180415
30
0
10
-3.0547933053880505
20
-17.062744887473531
30
0
10
-3.0442955769564026
20
-17.108613186213102
30
0
10
-3.0334593389353994
20
-17.154488194420598
30
0
10
-3.0222908352840667
20
-17.200368322008551
30
0
10
-3.010796191295475
20
-17.246252017009695
30
0
10
-2.9989803983130194
20
-17.292137797646848
30
0
10
-2.9868469867929592
20
-17.338024260815597
30
0
10
-2.974398586294976
20
-17.383910060245015
30
0
10
-2.9616372697264155
20
-17.429793892028531
30
0
10
-2.9485649561927882
20
-17.475674478493588
30
0
10
-2.9351838651151914
20
-17.521550549749008
30
0
10
-2.9214966755714942
20
-17.567420837677449
30
0
10
-2.907506289470315
20
-17.613284086246747
30
0
10
-2.8932156931072446
20
-17.65913905813494
30
0
10
-2.8786277932240498
20
-17.704984541968699
30
0
10
-2.8637452368724881
20
-17.750819361707304
30
0
10
-2.8485703453481781
20
-17.796642376943431
30
0
10
-2.8331052215747965
20
-17.842452470164517
30
0
10
-2.8173518190504181
20
-17.888248536708698
30
0
10
-2.8013120223291468
20
-17.934029475051581
30
0
10
-2.7849877388522271
20
-17.979794173921128
30
0
10
-2.7683809390341425
20
-18.025541511598316
30
0
10
-2.7514935991775449
20
-18.071270376057697
30
0
10
-2.7343276670150054
20
-18.116979681591697
30
0
10
-2.7168850230912827
20
-18.162668384698936
30
0
10
-2.699167438952025
20
-18.208335505994832
30
0
10
-2.6811765612582339
20
-18.253980131905525
30
0
10
-2.6629139587560973
20
-18.299601368863961
30
0
10
-2.6443811597321689
20
-18.345198305407337
30
0
10
-2.6255796920949495
20
-18.390769974840243
30
0
10
-2.6065111316011036
20
-18.436315309379165
30
0
10
-2.5871771262521372
20
-18.48183312380764
30
0
10
-2.5675793248402963
20
-18.527322210296006
30
0
10
-2.5477193218179361
20
-18.572781417036349
30
0
10
-2.5275985983113305
20
-18.618209731203354
30
0
10
-2.5072184649917455
20
-18.663606365769883
30
0
10
-2.4865800105366125
20
-18.708970829694923
30
0
10
-2.4656840953835699
20
-18.754302852950683
30
0
10
-2.4487618929071515
20
-18.7905424312506
30
0
10
-2.4359548342594688
20
-18.81770746048835
30
0
10
-2.4273655202878306
20
-18.835810969053295
30
0
10
-2.4230580445838168
20
-18.844861095603164
30
0
0
ARC
5
168
100
AcDbEntity
8
0
100
AcDbCircle
10
-2.8782531913407183e-13
20
3.0597746558669314e-12
30
0
40
19.000000000002995
100
AcDbArc
50
262.67315267667129
51
266.73861202921438
0
SPLINE
5
169
100
AcDbEntity
8
0
100
AcDbSpline
70
1064
71
5
72
58
73
52
74
0
42
0.000000001
43
0.0000000001
44
0.0000000001
40
0.33306750190391943
40
0.33306750190391943
40
0.33306750190391943
40
0.33306750190391943
40
0.33306750190391943
40
0.33306750190391943
40
0.34285714285714292
40
0.35714285714285721
40
0.3714285714285715
40
0.38571428571428579
40
0.40000000000000008
40
0.41428571428571437
40
0.42857142857142866
40
0.44285714285714295
40
0.45714285714285724
40
0.47142857142857153
40
0.48571428571428582
40
0.50000000000000011
40
0.51428571428571435
40
0.52857142857142858
40
0.54285714285714282
40
0.55714285714285705
40
0.57142857142857129
40
0.58571428571428552
40
0.59999999999999976
40
0.61428571428571399
40
0.62857142857142823
40
0.64285714285714246
40
0.6571428571428567
40
0.67142857142857093
40
0.68571428571428517
40
0.6999999999999994
40
0.71428571428571364
40
0.72857142857142787
40
0.74285714285714211
40
0.75714285714285634
40
0.77142857142857058
40
0.78571428571428481
40
0.79999999999999905
40
0.81428571428571328
40
0.82857142857142752
40
0.84285714285714175
40
0.85714285714285599
40
0.87142857142857022
40
0.88571428571428445
40
0.89999999999999869
40
0.91428571428571292
40
0.92857142857142716
40
0.94285714285714139
40
0.95714285714285563
40
0.97142857142856986
40
0.9857142857142841
40
1
40
1
40
1
40
1
40
1
40
1
10
-1.1791910514835223e-07
20
-17.000093655349112
30
0
10
-0.0021775275516457788
20
-17.006065766663415
30
0
10
-0.0075544050176576489
20
-17.020749969871957
30
0
10
-0.016207150084266844
20
-17.044136412765415
30
0
10
-0.028263569850665009
20
-17.076208239126213
30
0
10
-0.043896806872952832
20
-17.116941630716795
30
0
10
-0.060926889951509189
20
-17.160362911113147
30
0
10
-0.07830123197578337
20
-17.203734599236792
30
0
10
-0.096020012368281671
20
-17.247055061047604
30
0
10
-0.11408387536223447
20
-17.290322641135749
30
0
10
-0.13249150140947796
20
-17.333536028049846
30
0
10
-0.15123876384203677
20
-17.376694379301622
30
0
10
-0.17032000495641381
20
-17.419797124806067
30
0
10
-0.18972879493104444
20
-17.462843848874424
30
0
10
-0.20945882759437567
20
-17.505834151484269
30
0
10
-0.22950492431427771
20
-17.548767493245446
30
0
10
-0.2498633569274572
20
-17.591643143663681
30
0
10
-0.27053129327084952
20
-17.634460262571199
30
0
10
-0.29150645614009318
20
-17.677217949158639
30
0
10
-0.3127867243343771
20
-17.719915300142954
30
0
10
-0.33436968288057756
20
-17.762551475072851
30
0
10
-0.35625246530126525
20
-17.805125719702342
30
0
10
-0.37843198830302544
20
-17.847637332609921
30
0
10
-0.4009050890803123
20
-17.890085646271746
30
0
10
-0.42366868779489486
20
-17.932470004052835
30
0
10
-0.44671996636918909
20
-17.974789736331267
30
0
10
-0.47005643348274573
20
-18.017044148654275
30
0
10
-0.49367581667576887
20
-18.059232528948282
30
0
10
-0.51757599273111343
20
-18.10135415031472
30
0
10
-0.54175490677821747
20
-18.143408276270655
30
0
10
-0.56621047965794302
20
-18.185394164956968
30
0
10
-0.59094056839053055
20
-18.227311075816747
30
0
10
-0.61594302598949602
20
-18.269158278903554
30
0
10
-0.64121573838787449
20
-18.310935064890973
30
0
10
-0.66675666531787814
20
-18.352640753594404
30
0
10
-0.69256388543634639
20
-18.394274707825812
30
0
10
-0.71863561225105332
20
-18.435836332139822
30
0
10
-0.7449701395341819
20
-18.47732503644043
30
0
10
-0.77156579754030941
20
-18.518740205606122
30
0
10
-0.79842090674666644
20
-18.560081170153772
30
0
10
-0.82553372202213315
20
-18.601347170025434
30
0
10
-0.85290240564260889
20
-18.642537343004694
30
0
10
-0.88052511495154862
20
-18.683650804792261
30
0
10
-0.90840007100103159
20
-18.724686716171796
30
0
10
-0.9365256317776095
20
-18.765644353719491
30
0
10
-0.96490036431082771
20
-18.80652318464406
30
0
10
-0.99352310823150769
20
-18.847322926309346
30
0
10
-1.0223929681351214
20
-18.888043471390294
30
0
10
-1.0456860429953303
20
-18.920556555457562
30
0
10
-1.0632665981559866
20
-18.944905757599241
30
0
10
-1.0750361737044423
20
-18.961122737227814
30
0
10
-1.0809332628387474
20
-18.96922727159145
30
0
0
LWPOLYLINE
5
170
100
AcDbEntity
8
0
100
AcDbPolyline
90
2
70
1
43
0.0
10
0.50000000000000011
20
2.8946340442273528
10
0.50000000000000078
20
-2.8946340442273533
42
0.84207535832060176
0
LWPOLYLINE
5
171
100
AcDbEntity
8
0
100
AcDbPolyline
90
2
70
1
43
0.0
10
-0.50000000000000011
20
-2.8946340442273528
10
-0.50000000000000067
20
2.8946340442273528
42
0.84207535832076674
0
ENDSEC
0
SECTION
2
OBJECTS
0
DICTIONARY
5
C
100
AcDbDictionary
3
ACAD_GROUP
350
D
3
ACAD_MLINESTYLE
350
17
0
DICTIONARY
5
D
100
AcDbDictionary
0
DICTIONARY
5
1A
330
C
100
AcDbDictionary
0
DICTIONARY
5
17
100
AcDbDictionary
0
ENDSEC
0
EOF
