0
SECTION
2
HEADER
9
$INSUNITS
70
4
9
$ACADVER
1
AC1014
9
$HANDSEED
5
FFFF
0
ENDSEC
0
SECTION
2
TABLES
0
TABLE
2
VPORT
5
8
100
AcDbSymbolTable
0
ENDTAB
0
TABLE
2
LTYPE
5
5
100
AcDbSymbolTable
0
LTYPE
5
14
100
AcDbSymbolTableRecord
100
AcDbLinetypeTableRecord
2
BYBLOCK
70
0
0
LTYPE
5
15
100
AcDbSymbolTableRecord
100
AcDbLinetypeTableRecord
2
BYLAYER
70
0
0
ENDTAB
0
TABLE
2
LAYER
5
2
100
AcDbSymbolTable
70
2
0
LAYER
5
50
100
AcDbSymbolTableRecord
100
AcDbLayerTableRecord
2
0
70
0
6
CONTINUOUS
0
ENDTAB
0
TABLE
2
STYLE
5
3
100
AcDbSymbolTable
70
1
0
STYLE
5
11
100
AcDbSymbolTableRecord
100
AcDbTextStyleTableRecord
2
STANDARD
70
0
0
ENDTAB
0
TABLE
2
VIEW
5
6
100
AcDbSymbolTable
70
0
0
ENDTAB
0
TABLE
2
UCS
5
7
100
AcDbSymbolTable
70
0
0
ENDTAB
0
TABLE
2
APPID
5
9
100
AcDbSymbolTable
70
2
0
APPID
5
12
100
AcDbSymbolTableRecord
100
AcDbRegAppTableRecord
2
ACAD
70
0
0
ENDTAB
0
TABLE
2
DIMSTYLE
5
A
100
AcDbSymbolTable
70
1
0
ENDTAB
0
TABLE
2
BLOCK_RECORD
5
1
100
AcDbSymbolTable
70
1
0
BLOCK_RECORD
5
1F
100
AcDbSymbolTableRecord
100
AcDbBlockTableRecord
2
*MODEL_SPACE
0
BLOCK_RECORD
5
1B
100
AcDbSymbolTableRecord
100
AcDbBlockTableRecord
2
*PAPER_SPACE
0
ENDTAB
0
ENDSEC
0
SECTION
2
BLOCKS
0
BLOCK
5
20
100
AcDbEntity
100
AcDbBlockBegin
2
*MODEL_SPACE
0
ENDBLK
5
21
100
AcDbEntity
100
AcDbBlockEnd
0
BLOCK
5
1C
100
AcDbEntity
100
AcDbBlockBegin
2
*PAPER_SPACE
0
ENDBLK
5
1D
100
AcDbEntity
100
AcDbBlockEnd
0
ENDSEC
0
SECTION
2
ENTITIES
0
LINE
5
100
100
AcDbEntity
8
0
100
AcDbLine
10
1.9222323708522313
20
2.6205958697303586
30
0
11
0.14294919243111964
21
5.7024047358083552
31
0
0
ARC
5
101
100
AcDbEntity
8
0
100
AcDbCircle
10
2.7755575615628914e-16
20
9.9499999999999993
30
0
40
4.2500000000000018
100
AcDbArc
50
104.42084735152508
51
271.92751306414704
0
LINE
5
102
100
AcDbEntity
8
0
100
AcDbLine
10
-1.0584297514035788
20
14.066093592393614
30
0
11
-1.940691460429659
21
17.497092921844441
31
0
0
ARC
5
103
100
AcDbEntity
8
0
100
AcDbCircle
10
-1.4564451554420872
20
17.621614069068407
30
0
40
0.50000000000008882
100
AcDbArc
50
186.40589670546839
51
194.42084735152426
0
LINE
5
104
100
AcDbEntity
8
0
100
AcDbLine
10
-1.9533233763711202
20
17.565828465491069
30
0
11
-1.9799655729384489
21
17.803128528287129
31
0
0
SPLINE
5
105
100
AcDbEntity
8
0
100
AcDbSpline
70
1064
71
5
72
81
73
75
74
0
42
0.000000001
43
0.0000000001
44
0.0000000001
40
0
40
0
40
0
40
0
40
0
40
0
40
0.014285714285714285
40
0.028571428571428571
40
0.042857142857142858
40
0.057142857142857141
40
0.071428571428571425
40
0.085714285714285715
40
0.10000000000000001
40
0.1142857142857143
40
0.12857142857142859
40
0.14285714285714288
40
0.15714285714285717
40
0.17142857142857146
40
0.18571428571428575
40
0.20000000000000004
40
0.21428571428571433
40
0.22857142857142862
40
0.24285714285714291
40
0.25714285714285717
40
0.27142857142857146
40
0.28571428571428575
40
0.30000000000000004
40
0.31428571428571433
40
0.32857142857142863
40
0.34285714285714292
40
0.35714285714285721
40
0.3714285714285715
40
0.38571428571428579
40
0.40000000000000008
40
0.41428571428571437
40
0.42857142857142866
40
0.44285714285714295
40
0.45714285714285724
40
0.47142857142857153
40
0.48571428571428582
40
0.50000000000000011
40
0.51428571428571435
40
0.52857142857142858
40
0.54285714285714282
40
0.55714285714285705
40
0.57142857142857129
40
0.58571428571428552
40
0.59999999999999976
40
0.61428571428571399
40
0.62857142857142823
40
0.64285714285714246
40
0.6571428571428567
40
0.67142857142857093
40
0.68571428571428517
40
0.6999999999999994
40
0.71428571428571364
40
0.72857142857142787
40
0.74285714285714211
40
0.75714285714285634
40
0.77142857142857058
40
0.78571428571428481
40
0.79999999999999905
40
0.81428571428571328
40
0.82857142857142752
40
0.84285714285714175
40
0.85714285714285599
40
0.87142857142857022
40
0.88571428571428445
40
0.89999999999999869
40
0.91428571428571292
40
0.92857142857142716
40
0.94285714285714139
40
0.95714285714285563
40
0.97142857142856986
40
0.9857142857142841
40
1
40
1
40
1
40
1
40
1
40
1
10
-1.9799655729384489
20
17.803128528287129
30
0
10
-1.9808409726914797
20
17.81092564876257
30
0
10
-1.9827793773827587
20
17.826482154675233
30
0
10
-1.9862497951460396
20
17.849703709617685
30
0
10
-1.9919486110965581
20
17.880452149606448
30
0
10
-2.0005441738076097
20
17.918605422117789
30
0
10
-2.0102111884366751
20
17.956569768178067
30
0
10
-2.0205524109353883
20
17.994436391561742
30
0
10
-2.0312687529292042
20
18.032271439081303
30
0
10
-2.0422409114243845
20
18.070096339810849
30
0
10
-2.0534717792991763
20
18.107902451294365
30
0
10
-2.065038617041715
20
18.145663310453685
30
0
10
-2.0770431982448589
20
18.183347359224463
30
0
10
-2.0895592031519126
20
18.220931408511575
30
0
10
-2.1025917014525262
20
18.258410953341269
30
0
10
-2.1161032294069386
20
18.295793201460292
30
0
10
-2.1300317415350052
20
18.333092206577891
30
0
10
-2.1443107842617608
20
18.370323435229672
30
0
10
-2.1588907975179112
20
18.407498017775545
30
0
10
-2.1737534686084632
20
18.44461887134851
30
0
10
-2.1888998873010705
20
18.481683858402224
30
0
10
-2.2043428210151434
20
18.518687839200222
30
0
10
-2.2200978475119566
20
18.555625031608372
30
0
10
-2.2361738850164219
20
18.592491531020961
30
0
10
-2.2525674790370958
20
18.629286826990651
30
0
10
-2.269267922309123
20
18.66601242555474
30
0
10
-2.2862604091954273
20
18.702670996600602
30
0
10
-2.303529744143562
20
18.739265373554982
30
0
10
-2.3210643270104256
20
18.775797478222106
30
0
10
-2.3388583199276214
20
18.812267734256306
30
0
10
-2.3569094011361753
20
18.848675665917042
30
0
10
-2.3752173854138814
20
18.885020264024838
30
0
10
-2.3937825992609874
20
18.921300417954544
30
0
10
-2.4126041230531814
20
18.95751538294709
30
0
10
-2.4316788802032718
20
18.9936650212784
30
0
10
-2.4510025867381566
20
19.029749546456337
30
0
10
-2.4705703168575353
20
19.065769370024586
30
0
10
-2.4903771770302563
20
19.101724919397874
30
0
10
-2.5104190331515195
20
19.137616441519771
30
0
10
-2.5306928728857994
20
19.173443904090334
30
0
10
-2.5511963906388186
20
19.209207104710941
30
0
10
-2.5719277330860124
20
19.244905737064673
30
0
10
-2.5928851977616474
20
19.280539469826518
30
0
10
-2.6140669062853683
20
19.316108032036652
30
0
10
-2.6354706338570177
20
19.3516112578383
30
0
10
-2.6570939848079416
20
19.387049040869279
30
0
10
-2.6789344954889249
20
19.422421307798857
30
0
10
-2.7009897572766315
20
19.457727986400727
30
0
10
-2.7232575467050344
20
19.492968972465249
30
0
10
-2.7457358943178201
20
19.52814411079947
30
0
10
-2.7684230039401521
20
19.5632532111389
30
0
10
-2.7913171999553912
20
19.598296057420576
30
0
10
-2.8144168656630359
20
19.63327241972873
30
0
10
-2.8377203754470908
20
19.668182066568278
30
0
10
-2.861226055465111
20
19.703024774258694
30
0
10
-2.8849322286110763
20
19.737800326157732
30
0
10
-2.9088372432517664
20
19.772508514502345
30
0
10
-2.9329395049855855
20
19.807149141185366
30
0
10
-2.9572375103790396
20
19.841722020736363
30
0
10
-2.9817298640532099
20
19.876226979071696
30
0
10
-3.0064152362879613
20
19.910663837631489
30
0
10
-3.0312923281850281
20
19.945032399763068
30
0
10
-3.0563598347178731
20
19.979332437731337
30
0
10
-3.0816164020791232
20
20.013563677502347
30
0
10
-3.1070606014631097
20
20.047725792160399
30
0
10
-3.1326909978616326
20
20.081818440114354
30
0
10
-3.1585062061257654
20
20.115841298484931
30
0
10
-3.184504949958364
20
20.149794098019132
30
0
10
-3.2106861200624643
20
20.183676659927755
30
0
10
-3.2370488267597022
20
20.217488926801739
30
0
10
-3.2635923905435882
20
20.251230920108746
30
0
10
-3.2849715473491741
20
20.278168346938529
30
0
10
-3.3010869617281244
20
20.298339853204329
30
0
10
-3.3118665801423868
20
20.311773500333516
30
0
10
-3.3172653915564232
20
20.318486817969056
30
0
0
ARC
5
106
100
AcDbEntity
8
0
100
AcDbCircle
10
0
20
0
30
0
40
20.587500000000013
100
AcDbArc
50
99.272495814138125
51
102.32750418586188
0
SPLINE
5
107
100
AcDbEntity
8
0
100
AcDbSpline
70
1064
71
5
72
81
73
75
74
0
42
0.000000001
43
0.0000000001
44
0.0000000001
40
-1
40
-1
40
-1
40
-1
40
-1
40
-1
40
-0.9857142857142841
40
-0.97142857142856986
40
-0.95714285714285563
40
-0.94285714285714139
40
-0.92857142857142716
40
-0.91428571428571292
40
-0.89999999999999869
40
-0.88571428571428445
40
-0.87142857142857022
40
-0.85714285714285599
40
-0.84285714285714175
40
-0.82857142857142752
40
-0.81428571428571328
40
-0.79999999999999905
40
-0.78571428571428481
40
-0.77142857142857058
40
-0.75714285714285634
40
-0.74285714285714211
40
-0.72857142857142787
40
-0.71428571428571364
40
-0.6999999999999994
40
-0.68571428571428517
40
-0.67142857142857093
40
-0.6571428571428567
40
-0.64285714285714246
40
-0.62857142857142823
40
-0.61428571428571399
40
-0.59999999999999976
40
-0.58571428571428552
40
-0.57142857142857129
40
-0.55714285714285705
40
-0.54285714285714282
40
-0.52857142857142858
40
-0.51428571428571435
40
-0.50000000000000011
40
-0.48571428571428582
40
-0.47142857142857153
40
-0.45714285714285724
40
-0.44285714285714295
40
-0.42857142857142866
40
-0.41428571428571437
40
-0.40000000000000008
40
-0.38571428571428579
40
-0.3714285714285715
40
-0.35714285714285721
40
-0.34285714285714292
40
-0.32857142857142863
40
-0.31428571428571433
40
-0.30000000000000004
40
-0.28571428571428575
40
-0.27142857142857146
40
-0.25714285714285717
40
-0.24285714285714291
40
-0.22857142857142862
40
-0.21428571428571433
40
-0.20000000000000004
40
-0.18571428571428575
40
-0.17142857142857146
40
-0.15714285714285717
40
-0.14285714285714288
40
-0.12857142857142859
40
-0.1142857142857143
40
-0.10000000000000001
40
-0.085714285714285715
40
-0.071428571428571425
40
-0.057142857142857141
40
-0.042857142857142858
40
-0.028571428571428571
40
-0.014285714285714285
40
-0
40
-0
40
-0
40
-0
40
-0
40
-0
10
-4.3954185125743406
20
20.112818110581102
30
0
10
-4.3979668634272411
20
20.104588790664458
30
0
10
-4.4030442438153123
20
20.08813025923715
30
0
10
-4.4106023504441332
20
20.063442787316689
30
0
10
-4.4205638595278973
20
20.030526808724186
30
0
10
-4.4328221847929958
20
19.989382959215732
30
0
10
-4.4448864839662177
20
19.948240348931247
30
0
10
-4.4567561173556278
20
19.907099208053619
30
0
10
-4.4684302788928889
20
19.865959917472903
30
0
10
-4.4799080029964653
20
19.824823051782545
30
0
10
-4.4911882021139213
20
19.783689331163956
30
0
10
-4.5022697072261462
20
19.742559565730026
30
0
10
-4.5131513098443428
20
19.701434601345927
30
0
10
-4.5238318018442971
20
19.660315267948636
30
0
10
-4.5343100253663682
20
19.6192023186982
30
0
10
-4.5445848508624485
20
19.578096445749669
30
0
10
-4.5546551430401525
20
19.536998310102422
30
0
10
-4.5645197312892414
20
19.495908567279869
30
0
10
-4.5741773823036658
20
19.454827892814109
30
0
10
-4.5836267665025385
20
19.413757012601984
30
0
10
-4.592866474376855
20
19.372696697777243
30
0
10
-4.6018950467595667
20
19.331647749519838
30
0
10
-4.6107110040682588
20
19.290610986642523
30
0
10
-4.6193128723458798
20
19.249587233300701
30
0
10
-4.6276992253519253
20
19.208577303162215
30
0
10
-4.6358686445539252
20
19.167582005144496
30
0
10
-4.6438196515410093
20
19.126602156973426
30
0
10
-4.6515506463130798
20
19.085638596768508
30
0
10
-4.6590598548463049
20
19.044692193829732
30
0
10
-4.6663452481763787
20
19.003763863561204
30
0
10
-4.6734046134102423
20
18.962854559790639
30
0
10
-4.680235686899624
20
18.921965257628987
30
0
10
-4.6868362803626766
20
18.881096937873757
30
0
10
-4.6932043862884765
20
18.840250573738249
30
0
10
-4.6993383579501007
20
18.79942710863245
30
0
10
-4.705236734403818
20
18.758627477334013
30
0
10
-4.710897905234801
20
18.717852646903481
30
0
10
-4.7163198012636123
20
18.677103654272187
30
0
10
-4.7214996335819119
20
18.636381638386545
30
0
10
-4.7264334674902742
20
18.595687891509691
30
0
10
-4.7311165957566477
20
18.555023817670438
30
0
10
-4.7355442869884046
20
18.514390847533178
30
0
10
-4.7397124794506018
20
18.473790359618999
30
0
10
-4.7436183633044227
20
18.433223614547785
30
0
10
-4.7472613576689078
20
18.39269164331531
30
0
10
-4.7506421749646988
20
18.352195358361961
30
0
10
-4.7537610144802835
20
18.311735766183915
30
0
10
-4.7566158926305384
20
18.271314163810043
30
0
10
-4.7592012255451355
20
18.230932306399183
30
0
10
-4.761505520220469
20
18.19059267740046
30
0
10
-4.7635136051352278
20
18.150298236216244
30
0
10
-4.7652107315051069
20
18.110051950766575
30
0
10
-4.7665863895577072
20
18.069856362380463
30
0
10
-4.7676375552963117
20
18.029713217342959
30
0
10
-4.7683739580579729
20
17.989622863047089
30
0
10
-4.7688122102243637
20
17.949584941028796
30
0
10
-4.7689660747050304
20
17.909599530093651
30
0
10
-4.7688373516235991
20
17.869668216511727
30
0
10
-4.7684079403985908
20
17.82979502935402
30
0
10
-4.7676276638841788
20
17.789987864151943
30
0
10
-4.7664290414974486
20
17.750256803676933
30
0
10
-4.7647492112944825
20
17.710611621585208
30
0
10
-4.7625506870224257
20
17.671059407605778
30
0
10
-4.7598398407509537
20
17.631602484080069
30
0
10
-4.7566937151130384
20
17.592235288176848
30
0
10
-4.7532185541005214
20
17.552949696483935
30
0
10
-4.7494959344073724
20
17.513741872266525
30
0
10
-4.7455317272640176
20
17.47461878613748
30
0
10
-4.7412071189838656
20
17.435604432208805
30
0
10
-4.7362196739632996
20
17.396747410503707
30
0
10
-4.7301664696783208
20
17.358109157184899
30
0
10
-4.7241458390299034
20
17.327422106632987
30
0
10
-4.7188241273365774
20
17.304553704894992
30
0
10
-4.7148996786582291
20
17.28937605713492
30
0
10
-4.7128432932770981
20
17.281804221716712
30
0
0
LINE
5
108
100
AcDbEntity
8
0
100
AcDbLine
10
-4.7128432932770989
20
17.281804221716712
30
0
11
-4.6502586017089707
21
17.051360556535244
31
0
0
ARC
5
109
100
AcDbEntity
8
0
100
AcDbCircle
10
-5.1327803382418367
20
16.920315626174293
30
0
40
0.49999999999999761
100
AcDbArc
50
-73.124817955857367
51
15.194103294532448
0
ARC
5
110
100
AcDbEntity
8
0
100
AcDbCircle
10
0
20
0
30
0
40
17.181700000000003
100
AcDbArc
50
106.87518204414266
51
109.12481795585737
0
ARC
5
111
100
AcDbEntity
8
0
100
AcDbCircle
10
-5.7930054671678946
20
16.705795477838311
30
0
40
0.50000000000000344
100
AcDbArc
50
200.80589670546831
51
289.12481795585626
0
LINE
5
112
100
AcDbEntity
8
0
100
AcDbLine
10
-6.2604000296321569
20
16.52819389288242
30
0
11
-6.3452193384437185
21
16.751413092983299
31
0
0
SPLINE
5
113
100
AcDbEntity
8
0
100
AcDbSpline
70
1064
71
5
72
81
73
75
74
0
42
0.000000001
43
0.0000000001
44
0.0000000001
40
0
40
0
40
0
40
0
40
0
40
0
40
0.014285714285714285
40
0.028571428571428571
40
0.042857142857142858
40
0.057142857142857141
40
0.071428571428571425
40
0.085714285714285715
40
0.10000000000000001
40
0.1142857142857143
40
0.12857142857142859
40
0.14285714285714288
40
0.15714285714285717
40
0.17142857142857146
40
0.18571428571428575
40
0.20000000000000004
40
0.21428571428571433
40
0.22857142857142862
40
0.24285714285714291
40
0.25714285714285717
40
0.27142857142857146
40
0.28571428571428575
40
0.30000000000000004
40
0.31428571428571433
40
0.32857142857142863
40
0.34285714285714292
40
0.35714285714285721
40
0.3714285714285715
40
0.38571428571428579
40
0.40000000000000008
40
0.41428571428571437
40
0.42857142857142866
40
0.44285714285714295
40
0.45714285714285724
40
0.47142857142857153
40
0.48571428571428582
40
0.50000000000000011
40
0.51428571428571435
40
0.52857142857142858
40
0.54285714285714282
40
0.55714285714285705
40
0.57142857142857129
40
0.58571428571428552
40
0.59999999999999976
40
0.61428571428571399
40
0.62857142857142823
40
0.64285714285714246
40
0.6571428571428567
40
0.67142857142857093
40
0.68571428571428517
40
0.6999999999999994
40
0.71428571428571364
40
0.72857142857142787
40
0.74285714285714211
40
0.75714285714285634
40
0.77142857142857058
40
0.78571428571428481
40
0.79999999999999905
40
0.81428571428571328
40
0.82857142857142752
40
0.84285714285714175
40
0.85714285714285599
40
0.87142857142857022
40
0.88571428571428445
40
0.89999999999999869
40
0.91428571428571292
40
0.92857142857142716
40
0.94285714285714139
40
0.95714285714285563
40
0.97142857142856986
40
0.9857142857142841
40
1
40
1
40
1
40
1
40
1
40
1
10
-6.3452193384437185
20
16.751413092983299
30
0
10
-6.3480063009150101
20
16.758747549515299
30
0
10
-6.3537525527585341
20
16.773333257544351
30
0
10
-6.362888906844562
20
16.794962206834867
30
0
10
-6.3760555100839058
20
16.823327390143248
30
0
10
-6.3938693604220695
20
16.858144377918954
30
0
10
-6.412674016948186
20
16.892511915458879
30
0
10
-6.4321073972225236
20
16.926617131780755
30
0
10
-6.451896259325145
20
16.960598475827439
30
0
10
-6.4719303775792643
20
16.994506372887319
30
0
10
-6.4922104046866256
20
17.028331732593458
30
0
10
-6.5128045927551348
20
17.062029709351879
30
0
10
-6.5338036698016211
20
17.095544426489532
30
0
10
-6.5552732343756066
20
17.12883509990797
30
0
10
-6.5772170765517055
20
17.161896105384923
30
0
10
-6.5996007020761569
20
17.19474374107573
30
0
10
-6.6223675097570354
20
17.227407049249987
30
0
10
-6.6454569801516268
20
17.259917536865693
30
0
10
-6.6688238782193014
20
17.292298309690079
30
0
10
-6.6924511920535252
20
17.324556747391089
30
0
10
-6.716339445598746
20
17.356690508563158
30
0
10
-6.740499726961926
20
17.388691439815979
30
0
10
-6.7649456865420445
20
17.420550066640111
30
0
10
-6.7896849913456228
20
17.45226038922786
30
0
10
-6.814714168467324
20
17.483822772265611
30
0
10
-6.8400232215669599
20
17.515241337264239
30
0
10
-6.8655984741277525
20
17.54652235224389
30
0
10
-6.8914259126380593
20
17.577672340594233
30
0
10
-6.91749477932788
20
17.608696048580754
30
0
10
-6.943799525094736
20
17.639595338366746
30
0
10
-6.9703377828101214
20
17.67037032655589
30
0
10
-6.9971091220981947
20
17.701020081736853
30
0
10
-7.0241135830003572
20
17.731543446979497
30
0
10
-7.0513500895699321
20
17.761939929623985
30
0
10
-7.0788156276257919
20
17.792210161389228
30
0
10
-7.1065061008809707
20
17.822355414456133
30
0
10
-7.1344168406349961
20
17.852377312435706
30
0
10
-7.162543213389716
20
17.882277486286355
30
0
10
-7.1908812763332053
20
17.912057203303529
30
0
10
-7.219428103735325
20
17.941717181339428
30
0
10
-7.2481814121017942
20
17.971257797732132
30
0
10
-7.2771393301557277
20
18.00067921669131
30
0
10
-7.3063001265203003
20
18.029981540687146
30
0
10
-7.3356619144429658
20
18.059164974406713
30
0
10
-7.3652224977728498
20
18.08822991048924
30
0
10
-7.3949795296544361
20
18.117176841692661
30
0
10
-7.4249306056019693
20
18.146006309674725
30
0
10
-7.4550733747014908
20
18.174718843478498
30
0
10
-7.485405657425364
20
18.203314895121803
30
0
10
-7.5159255075964495
20
18.231794804071221
30
0
10
-7.5466311381531899
20
18.260158832730294
30
0
10
-7.5775208723888561
20
18.288407188532986
30
0
10
-7.6085930872168328
20
18.316540050843816
30
0
10
-7.6398461505223567
20
18.344557599714811
30
0
10
-7.6712783854227347
20
18.372460034760458
30
0
10
-7.702888113624585
20
18.400247563224042
30
0
10
-7.7346736837152106
20
18.427920394614247
30
0
10
-7.7666335021168242
20
18.455478733559364
30
0
10
-7.7987660665044354
20
18.482922774304559
30
0
10
-7.8310699820446859
20
18.510252695251975
30
0
10
-7.8635439163870071
20
18.537468654139481
30
0
10
-7.8961865625348757
20
18.564570783515457
30
0
10
-7.9289965998261493
20
18.591559187346437
30
0
10
-7.9619726488363334
20
18.618433936885953
30
0
10
-7.9951132443476869
20
18.645195070818485
30
0
10
-8.0284169114851682
20
18.671842615156631
30
0
10
-8.0618822283200391
20
18.698376601637491
30
0
10
-8.0955078916918826
20
18.724797086869341
30
0
10
-8.1292927826912713
20
18.7511041735509
30
0
10
-8.1632360253136653
20
18.777298027330726
30
0
10
-8.1973369667393197
20
18.803378837988447
30
0
10
-8.22474352365915
20
18.824153195926243
30
0
10
-8.2453690922783966
20
18.83968323664638
30
0
10
-8.2591508613466154
20
18.850014058961136
30
0
10
-8.2660495933776446
20
18.855173835576849
30
0
0
ARC
5
114
100
AcDbEntity
8
0
100
AcDbCircle
10
0
20
0
30
0
40
20.587500000000016
100
AcDbArc
50
113.67249581413813
51
116.72750418586187
0
SPLINE
5
115
100
AcDbEntity
8
0
100
AcDbSpline
70
1064
71
5
72
81
73
75
74
0
42
0.000000001
43
0.0000000001
44
0.0000000001
40
-1
40
-1
40
-1
40
-1
40
-1
40
-1
40
-0.9857142857142841
40
-0.97142857142856986
40
-0.95714285714285563
40
-0.94285714285714139
40
-0.92857142857142716
40
-0.91428571428571292
40
-0.89999999999999869
40
-0.88571428571428445
40
-0.87142857142857022
40
-0.85714285714285599
40
-0.84285714285714175
40
-0.82857142857142752
40
-0.81428571428571328
40
-0.79999999999999905
40
-0.78571428571428481
40
-0.77142857142857058
40
-0.75714285714285634
40
-0.74285714285714211
40
-0.72857142857142787
40
-0.71428571428571364
40
-0.6999999999999994
40
-0.68571428571428517
40
-0.67142857142857093
40
-0.6571428571428567
40
-0.64285714285714246
40
-0.62857142857142823
40
-0.61428571428571399
40
-0.59999999999999976
40
-0.58571428571428552
40
-0.57142857142857129
40
-0.55714285714285705
40
-0.54285714285714282
40
-0.52857142857142858
40
-0.51428571428571435
40
-0.50000000000000011
40
-0.48571428571428582
40
-0.47142857142857153
40
-0.45714285714285724
40
-0.44285714285714295
40
-0.42857142857142866
40
-0.41428571428571437
40
-0.40000000000000008
40
-0.38571428571428579
40
-0.3714285714285715
40
-0.35714285714285721
40
-0.34285714285714292
40
-0.32857142857142863
40
-0.31428571428571433
40
-0.30000000000000004
40
-0.28571428571428575
40
-0.27142857142857146
40
-0.25714285714285717
40
-0.24285714285714291
40
-0.22857142857142862
40
-0.21428571428571433
40
-0.20000000000000004
40
-0.18571428571428575
40
-0.17142857142857146
40
-0.15714285714285717
40
-0.14285714285714288
40
-0.12857142857142859
40
-0.1142857142857143
40
-0.10000000000000001
40
-0.085714285714285715
40
-0.071428571428571425
40
-0.057142857142857141
40
-0.042857142857142858
40
-0.028571428571428571
40
-0.014285714285714285
40
-0
40
-0
40
-0
40
-0
40
-0
40
-0
10
-9.2591828238802254
20
18.387840810817401
30
0
10
-9.2596045649634782
20
18.379236281032529
30
0
10
-9.2604293597864533
20
18.362032131479335
30
0
10
-9.2616104899908578
20
18.336240637201634
30
0
10
-9.2630731689467325
20
18.301881448034841
30
0
10
-9.2647143170903572
20
18.258981686689928
30
0
10
-9.2661678430110435
20
18.216131377963389
30
0
10
-9.2674331843581061
20
18.173330903891401
30
0
10
-9.2685096551108295
20
18.130580833858691
30
0
10
-9.2693964629187846
20
18.087881964537168
30
0
10
-9.2700927334988226
20
18.045235263945717
30
0
10
-9.2705975360256048
20
18.002641807469271
30
0
10
-9.2709099103353427
20
17.960102714937523
30
0
10
-9.2710288926562008
20
17.917619090661738
30
0
10
-9.2709535488081158
20
17.875191952088041
30
0
10
-9.2706829568617692
20
17.832822250533344
30
0
10
-9.2702161815759414
20
17.790510908566247
30
0
10
-9.2695522521393023
20
17.748258852234621
30
0
10
-9.2686901419903851
20
17.706067042558228
30
0
10
-9.2676287438427316
20
17.663936513281836
30
0
10
-9.2663668842428244
20
17.621868361843251
30
0
10
-9.2649033491113801
20
17.579863727131972
30
0
10
-9.2632369089802395
20
17.537923770193427
30
0
10
-9.2613663411585314
20
17.496049655848875
30
0
10
-9.2592904665646891
20
17.45424252689488
30
0
10
-9.2570081124016319
20
17.41250351960992
30
0
10
-9.2545180500656379
20
17.370833793695343
30
0
10
-9.2518189382554095
20
17.329234558843446
30
0
10
-9.2489092748674455
20
17.287707098225336
30
0
10
-9.2457873223328271
20
17.24625280306892
30
0
10
-9.2424511744879094
20
17.204873147559788
30
0
10
-9.2388988813013242
20
17.163569639120421
30
0
10
-9.2351285671545487
20
17.122343771938343
30
0
10
-9.2311385296346078
20
17.081196987899215
30
0
10
-9.2269274083660573
20
17.040130610298416
30
0
10
-9.2224940207731496
20
16.999145907867764
30
0
10
-9.2178370475333775
20
16.958244217779693
30
0
10
-9.2129547423487157
20
16.917427058972446
30
0
10
-9.2078446871739654
20
16.876696228183626
30
0
10
-9.20250339229829
20
16.836053955597517
30
0
10
-9.1969266475437585
20
16.795502771773783
30
0
10
-9.1911102259549065
20
16.755045239079362
30
0
10
-9.1850505362279193
20
16.714683702838975
30
0
10
-9.1787451703036478
20
16.674420082846314
30
0
10
-9.1721938219488024
20
16.634255522165745
30
0
10
-9.1653974081167142
20
16.594190727399848
30
0
10
-9.1583563721402772
20
16.554226623862846
30
0
10
-9.1510691153103068
20
16.514364961132618
30
0
10
-9.1435306656742839
20
16.474608827878548
30
0
10
-9.1357305089111236
20
16.434963487721404
30
0
10
-9.1276546861142034
20
16.395435580092418
30
0
10
-9.119289649951094
20
16.356031647542462
30
0
10
-9.110625852836046
20
16.316756765234139
30
0
10
-9.1016608000601948
20
16.277613376627141
30
0
10
-9.092404001688708
20
16.238599398612777
30
0
10
-9.0828714590483592
20
16.199710352657469
30
0
10
-9.0730765222597256
20
16.160942892394537
30
0
10
-9.06302132938157
20
16.122298106585937
30
0
10
-9.0526893504846768
20
16.083784399153547
30
0
10
-9.0420339483693333
20
16.045421896124875
30
0
10
-9.0309922699625247
20
16.007237145241106
30
0
10
-9.019505858853357
20
15.969255246230817
30
0
10
-9.0075401696324437
20
15.931492388538132
30
0
10
-8.9951019517220061
20
15.89394923687456
30
0
10
-8.9822644438991581
20
15.856601243451751
30
0
10
-8.9691285320949081
20
15.819414118263103
30
0
10
-8.9557722759642306
20
15.782363857813074
30
0
10
-8.942203095802979
20
15.745455753604279
30
0
10
-8.9283118777680137
20
15.708742593691872
30
0
10
-8.9138177741606359
20
15.672346663916112
30
0
10
-8.8983457995612323
20
15.636427673066706
30
0
10
-8.8848827589566231
20
15.608201982594039
30
0
10
-8.8740410983742244
20
15.587375489629229
30
0
10
-8.8664654159587819
20
15.573650646282285
30
0
10
-8.8625905968100422
20
15.566828096245771
30
0
0
LINE
5
116
100
AcDbEntity
8
0
100
AcDbLine
10
-8.8625905968100422
20
15.566828096245773
30
0
11
-8.7446631093208858
21
15.359188422446564
31
0
0
ARC
5
117
100
AcDbEntity
8
0
100
AcDbCircle
10
-9.1794359892601758
20
15.112262233334723
30
0
40
0.49999999999999678
100
AcDbArc
50
-58.72481795585739
51
29.594103294532644
0
ARC
5
118
100
AcDbEntity
8
0
100
AcDbCircle
10
0
20
0
30
0
40
17.181700000000003
100
AcDbArc
50
121.27518204414267
51
123.52481795585736
0
ARC
5
119
100
AcDbEntity
8
0
100
AcDbCircle
10
-9.7655699402076763
20
14.740290317117646
30
0
40
0.49999999999999856
100
AcDbArc
50
215.20589670546738
51
303.52481795585715
0
LINE
5
120
100
AcDbEntity
8
0
100
AcDbLine
10
-10.174112724890666
20
14.452032111538919
30
0
11
-10.311779636830227
21
14.64714476565948
31
0
0
SPLINE
5
121
100
AcDbEntity
8
0
100
AcDbSpline
70
1064
71
5
72
81
73
75
74
0
42
0.000000001
43
0.0000000001
44
0.0000000001
40
0
40
0
40
0
40
0
40
0
40
0
40
0.014285714285714285
40
0.028571428571428571
40
0.042857142857142858
40
0.057142857142857141
40
0.071428571428571425
40
0.085714285714285715
40
0.10000000000000001
40
0.1142857142857143
40
0.12857142857142859
40
0.14285714285714288
40
0.15714285714285717
40
0.17142857142857146
40
0.18571428571428575
40
0.20000000000000004
40
0.21428571428571433
40
0.22857142857142862
40
0.24285714285714291
40
0.25714285714285717
40
0.27142857142857146
40
0.28571428571428575
40
0.30000000000000004
40
0.31428571428571433
40
0.32857142857142863
40
0.34285714285714292
40
0.35714285714285721
40
0.3714285714285715
40
0.38571428571428579
40
0.40000000000000008
40
0.41428571428571437
40
0.42857142857142866
40
0.44285714285714295
40
0.45714285714285724
40
0.47142857142857153
40
0.48571428571428582
40
0.50000000000000011
40
0.51428571428571435
40
0.52857142857142858
40
0.54285714285714282
40
0.55714285714285705
40
0.57142857142857129
40
0.58571428571428552
40
0.59999999999999976
40
0.61428571428571399
40
0.62857142857142823
40
0.64285714285714246
40
0.6571428571428567
40
0.67142857142857093
40
0.68571428571428517
40
0.6999999999999994
40
0.71428571428571364
40
0.72857142857142787
40
0.74285714285714211
40
0.75714285714285634
40
0.77142857142857058
40
0.78571428571428481
40
0.79999999999999905
40
0.81428571428571328
40
0.82857142857142752
40
0.84285714285714175
40
0.85714285714285599
40
0.87142857142857022
40
0.88571428571428445
40
0.89999999999999869
40
0.91428571428571292
40
0.92857142857142716
40
0.94285714285714139
40
0.95714285714285563
40
0.97142857142856986
40
0.9857142857142841
40
1
40
1
40
1
40
1
40
1
40
1
10
-10.311779636830227
20
14.64714476565948
30
0
10
-10.316303046917973
20
14.653555707369888
30
0
10
-10.325496087777179
20
14.666254143837374
30
0
10
-10.339724307457567
20
14.684931461046322
30
0
10
-10.359531391880829
20
14.709131098887209
30
0
10
-10.385444220114602
20
14.73842412253741
30
0
10
-10.412204952809546
20
14.767035412778384
30
0
10
-10.4395094201059
20
14.795236265866745
30
0
10
-10.467127395333076
20
14.823228733619462
30
0
10
-10.49496465601589
20
14.851089069132879
30
0
10
-10.523019573667945
20
14.878808305310338
30
0
10
-10.551347103485956
20
14.906326031855636
30
0
10
-10.580021227135749
20
14.933565564423901
30
0
10
-10.609095339674949
20
14.960471086528248
30
0
10
-10.6385717134188
20
14.987036208088467
30
0
10
-10.668420991000376
20
15.013285293595457
30
0
10
-10.698595571977014
20
15.039260549046533
30
0
10
-10.729044673697416
20
15.065007542124061
30
0
10
-10.759730228433583
20
15.090559902182248
30
0
10
-10.790637593988093
20
15.115929007732325
30
0
10
-10.821766695560829
20
15.141112460628591
30
0
10
-10.853126245239771
20
15.166099606134427
30
0
10
-10.884727108356824
20
15.190877872683346
30
0
10
-10.916575218953906
20
15.215439542255659
30
0
10
-10.948667303927206
20
15.239785831756894
30
0
10
-10.980994705968012
20
15.263923219201789
30
0
10
-11.013545737025701
20
15.287861176900536
30
0
10
-11.046308446149901
20
15.311609508317151
30
0
10
-11.079273593893973
20
15.335175485953055
30
0
10
-11.112436268591871
20
15.358562293473938
30
0
10
-11.145794206480943
20
15.381770632501091
30
0
10
-11.179346759073816
20
15.404799707915283
30
0
10
-11.213093677437092
20
15.427648389175578
30
0
10
-11.24703379690742
20
15.450316466677016
30
0
10
-11.281164355101815
20
15.472805301888258
30
0
10
-11.315481700804229
20
15.49511714572745
30
0
10
-11.349981715765637
20
15.51725473185547
30
0
10
-11.384660317660611
20
15.5392207922953
30
0
10
-11.41951400271148
20
15.561017535065425
30
0
10
-11.454540115627879
20
15.58264638306489
30
0
10
-11.48973653849586
20
15.604108269658949
30
0
10
-11.525101499665432
20
15.625403819265962
30
0
10
-11.560633347637451
20
15.646533561712721
30
0
10
-11.596330305838778
20
15.66749816447196
30
0
10
-11.63219034476006
20
15.688298554007938
30
0
10
-11.66821131382048
20
15.708935791236929
30
0
10
-11.704391018780429
20
15.729410998770794
30
0
10
-11.74072731415189
20
15.749725273680271
30
0
10
-11.77721820129336
20
15.769879595808687
30
0
10
-11.81386187959234
20
15.789874777952237
30
0
10
-11.850656683388202
20
15.809711518694701
30
0
10
-11.887601040237767
20
15.829390435933139
30
0
10
-11.924693422652823
20
15.84891210704223
30
0
10
-11.961932294571604
20
15.868277112307766
30
0
10
-11.999316081435879
20
15.88748606209675
30
0
10
-12.036843209218242
20
15.906539574516131
30
0
10
-12.074512130490856
20
15.925438263182128
30
0
10
-12.112321352630101
20
15.944182722600939
30
0
10
-12.150269468816091
20
15.962773514528184
30
0
10
-12.188355172403538
20
15.981211158642143
30
0
10
-12.226577212127925
20
15.99949613906716
30
0
10
-12.264934355017868
20
16.017628909224186
30
0
10
-12.303425347757685
20
16.035609898248769
30
0
10
-12.342048871980067
20
16.053439518204812
30
0
10
-12.380803518120224
20
16.071118170946271
30
0
10
-12.419687864108095
20
16.088646248455035
30
0
10
-12.458700540580146
20
16.106024135090408
30
0
10
-12.497840299395042
20
16.123252209765038
30
0
10
-12.537106082336088
20
16.140330850212635
30
0
10
-12.576497082115161
20
16.157260434731068
30
0
10
-12.616012713618321
20
16.174041309487357
30
0
10
-12.647724615886853
20
16.187347269221199
30
0
10
-12.671564358414516
20
16.197260034821731
30
0
10
-12.687482318900331
20
16.203838908761909
30
0
10
-12.695447498843084
20
16.207120936616697
30
0
0
ARC
5
122
100
AcDbEntity
8
0
100
AcDbCircle
10
0
20
0
30
0
40
20.587500000000013
100
AcDbArc
50
128.07249581413811
51
131.12750418586188
0
SPLINE
5
123
100
AcDbEntity
8
0
100
AcDbSpline
70
1064
71
5
72
81
73
75
74
0
42
0.000000001
43
0.0000000001
44
0.0000000001
40
-1
40
-1
40
-1
40
-1
40
-1
40
-1
40
-0.9857142857142841
40
-0.97142857142856986
40
-0.95714285714285563
40
-0.94285714285714139
40
-0.92857142857142716
40
-0.91428571428571292
40
-0.89999999999999869
40
-0.88571428571428445
40
-0.87142857142857022
40
-0.85714285714285599
40
-0.84285714285714175
40
-0.82857142857142752
40
-0.81428571428571328
40
-0.79999999999999905
40
-0.78571428571428481
40
-0.77142857142857058
40
-0.75714285714285634
40
-0.74285714285714211
40
-0.72857142857142787
40
-0.71428571428571364
40
-0.6999999999999994
40
-0.68571428571428517
40
-0.67142857142857093
40
-0.6571428571428567
40
-0.64285714285714246
40
-0.62857142857142823
40
-0.61428571428571399
40
-0.59999999999999976
40
-0.58571428571428552
40
-0.57142857142857129
40
-0.55714285714285705
40
-0.54285714285714282
40
-0.52857142857142858
40
-0.51428571428571435
40
-0.50000000000000011
40
-0.48571428571428582
40
-0.47142857142857153
40
-0.45714285714285724
40
-0.44285714285714295
40
-0.42857142857142866
40
-0.41428571428571437
40
-0.40000000000000008
40
-0.38571428571428579
40
-0.3714285714285715
40
-0.35714285714285721
40
-0.34285714285714292
40
-0.32857142857142863
40
-0.31428571428571433
40
-0.30000000000000004
40
-0.28571428571428575
40
-0.27142857142857146
40
-0.25714285714285717
40
-0.24285714285714291
40
-0.22857142857142862
40
-0.21428571428571433
40
-0.20000000000000004
40
-0.18571428571428575
40
-0.17142857142857146
40
-0.15714285714285717
40
-0.14285714285714288
40
-0.12857142857142859
40
-0.1142857142857143
40
-0.10000000000000001
40
-0.085714285714285715
40
-0.071428571428571425
40
-0.057142857142857141
40
-0.042857142857142858
40
-0.028571428571428571
40
-0.014285714285714285
40
-0
40
-0
40
-0
40
-0
40
-0
40
-0
10
-13.541158625469325
20
15.507487847162032
30
0
10
-13.539427257239616
20
15.499048761760568
30
0
10
-13.535947641605384
20
15.482179994070345
30
0
10
-13.530677580630734
20
15.456905051875358
30
0
10
-13.523549523960565
20
15.423261566353872
30
0
10
-13.514470375609136
20
15.381301442952095
30
0
10
-13.505221797897992
20
15.3394358782732
30
0
10
-13.495803341152271
20
15.297665382201922
30
0
10
-13.486214482504085
20
15.25599067684114
30
0
10
-13.476454652620388
20
15.214412730883385
30
0
10
-13.466523245421762
20
15.172932699360825
30
0
10
-13.456419626763809
20
15.131551855360046
30
0
10
-13.446143145138375
20
15.090271522312262
30
0
10
-13.435693141683331
20
15.049093009515072
30
0
10
-13.425068964596161
20
15.008017534770797
30
0
10
-13.414269957494549
20
14.967046248783474
30
0
10
-13.403295443953072
20
14.926180277722557
30
0
10
-13.39214471395897
20
14.885420759973369
30
0
10
-13.380817012197987
20
14.844768881658926
30
0
10
-13.369311523252975
20
14.80422591941795
30
0
10
-13.357627383458301
20
14.763793228036251
30
0
10
-13.345763700107515
20
14.723472212552245
30
0
10
-13.333719571098719
20
14.683264303291292
30
0
10
-13.321494101833389
20
14.643170932550497
30
0
10
-13.309086434474921
20
14.603193500449034
30
0
10
-13.296495715652783
20
14.563333399229876
30
0
10
-13.283721043768093
20
14.523592057701549
30
0
10
-13.270761420497239
20
14.483970981119693
30
0
10
-13.257615710039744
20
14.444471785900202
30
0
10
-13.244282575399922
20
14.40509625167881
30
0
10
-13.230760536914811
20
14.36584628037048
30
0
10
-13.217048080697598
20
14.326723816992322
30
0
10
-13.20314376164508
20
14.287730775236572
30
0
10
-13.189046289411106
20
14.248868975062294
30
0
10
-13.174754675449105
20
14.210140036502725
30
0
10
-13.160268089856892
20
14.171545482524765
30
0
10
-13.145585587302172
20
14.133086936393289
30
0
10
-13.13070585409465
20
14.094766303612953
30
0
10
-13.115626994986949
20
14.056585925816938
30
0
10
-13.100346184528185
20
14.018548830979977
30
0
10
-13.084859974135505
20
13.980658517188226
30
0
10
-13.069164906885772
20
13.942918517508234
30
0
10
-13.053258087561128
20
13.905331996702975
30
0
10
-13.037137661189302
20
13.867901413112243
30
0
10
-13.020803615426432
20
13.830627950046052
30
0
10
-13.004257014142997
20
13.793512063870761
30
0
10
-12.987498516860059
20
13.756554540577724
30
0
10
-12.970527010197145
20
13.719757472361422
30
0
10
-12.95333844652561
20
13.683125087329325
30
0
10
-12.93592395086036
20
13.646665098541195
30
0
10
-12.918271653998886
20
13.610387408277241
30
0
10
-12.900370061289369
20
13.57430172262664
30
0
10
-12.882211187242627
20
13.538415331694448
30
0
10
-12.863793223189383
20
13.502731222583451
30
0
10
-12.845124862370556
20
13.467245012572606
30
0
10
-12.826220489635798
20
13.431948384461563
30
0
10
-12.807092203479552
20
13.396834776975917
30
0
10
-12.787742345553619
20
13.361904712958575
30
0
10
-12.768156995217289
20
13.327170443132983
30
0
10
-12.748295985603752
20
13.292663059430428
30
0
10
-12.728105040439617
20
13.258423906469615
30
0
10
-12.707533781878302
20
13.224491832943229
30
0
10
-12.686552775969009
20
13.190891110768195
30
0
10
-12.665168725395485
20
13.157620705259843
30
0
10
-12.643446463217265
20
13.124638626100506
30
0
10
-12.621475178270448
20
13.091886571256408
30
0
10
-12.599324508395807
20
13.059321878699159
30
0
10
-12.577002956710144
20
13.026947828336564
30
0
10
-12.554417965237828
20
12.994842685299279
30
0
10
-12.531327920878875
20
12.963194737575535
30
0
10
-12.507409337031067
20
12.932251931491409
30
0
10
-12.487349818825052
20
12.908261125037209
30
0
10
-12.471669430760812
20
12.890785145993052
30
0
10
-12.460918522595851
20
12.879375489443163
30
0
10
-12.455468738817203
20
12.873730910698722
30
0
0
LINE
5
124
100
AcDbEntity
8
0
100
AcDbLine
10
-12.455468738817203
20
12.873730910698722
30
0
11
-12.289608273152936
21
12.701941992631882
31
0
0
ARC
5
125
100
AcDbEntity
8
0
100
AcDbCircle
10
-12.649313917469257
20
12.354649825362049
30
0
40
0.49999999999999772
100
AcDbArc
50
-44.324817955857419
51
43.994103294532849
0
ARC
5
126
100
AcDbEntity
8
0
100
AcDbCircle
10
0
20
0
30
0
40
17.181700000000003
100
AcDbArc
50
135.67518204414267
51
137.92481795585735
0
ARC
5
127
100
AcDbEntity
8
0
100
AcDbCircle
10
-13.124527738650276
20
11.848598504776815
30
0
40
0.49999999999999611
100
AcDbArc
50
229.60589670546722
51
317.92481795585809
0
LINE
5
128
100
AcDbEntity
8
0
100
AcDbLine
10
-13.448548499875102
20
11.46779600177128
30
0
11
-13.630412896562017
21
11.622542464278991
31
0
0
SPLINE
5
129
100
AcDbEntity
8
0
100
AcDbSpline
70
1064
71
5
72
81
73
75
74
0
42
0.000000001
43
0.0000000001
44
0.0000000001
40
0
40
0
40
0
40
0
40
0
40
0
40
0.014285714285714285
40
0.028571428571428571
40
0.042857142857142858
40
0.057142857142857141
40
0.071428571428571425
40
0.085714285714285715
40
0.10000000000000001
40
0.1142857142857143
40
0.12857142857142859
40
0.14285714285714288
40
0.15714285714285717
40
0.17142857142857146
40
0.18571428571428575
40
0.20000000000000004
40
0.21428571428571433
40
0.22857142857142862
40
0.24285714285714291
40
0.25714285714285717
40
0.27142857142857146
40
0.28571428571428575
40
0.30000000000000004
40
0.31428571428571433
40
0.32857142857142863
40
0.34285714285714292
40
0.35714285714285721
40
0.3714285714285715
40
0.38571428571428579
40
0.40000000000000008
40
0.41428571428571437
40
0.42857142857142866
40
0.44285714285714295
40
0.45714285714285724
40
0.47142857142857153
40
0.48571428571428582
40
0.50000000000000011
40
0.51428571428571435
40
0.52857142857142858
40
0.54285714285714282
40
0.55714285714285705
40
0.57142857142857129
40
0.58571428571428552
40
0.59999999999999976
40
0.61428571428571399
40
0.62857142857142823
40
0.64285714285714246
40
0.6571428571428567
40
0.67142857142857093
40
0.68571428571428517
40
0.6999999999999994
40
0.71428571428571364
40
0.72857142857142787
40
0.74285714285714211
40
0.75714285714285634
40
0.77142857142857058
40
0.78571428571428481
40
0.79999999999999905
40
0.81428571428571328
40
0.82857142857142752
40
0.84285714285714175
40
0.85714285714285599
40
0.87142857142857022
40
0.88571428571428445
40
0.89999999999999869
40
0.91428571428571292
40
0.92857142857142716
40
0.94285714285714139
40
0.95714285714285563
40
0.97142857142856986
40
0.9857142857142841
40
1
40
1
40
1
40
1
40
1
40
1
10
-13.630412896562017
20
11.622542464278991
30
0
10
-13.63638853177447
20
11.627627068122344
30
0
10
-13.648450729082535
20
11.637640343563437
30
0
10
-13.666876802987032
20
11.652192464160212
30
0
10
-13.692079816634539
20
11.670706004288022
30
0
10
-13.724463424465274
20
11.692634475404569
30
0
10
-13.757498758074728
20
11.713691765755787
30
0
10
-13.79095867229406
20
11.734216292295606
30
0
10
-13.82467042169046
20
11.754461014056357
30
0
10
-13.85856170733499
20
11.774523220679857
30
0
10
-13.892628721876889
20
11.794394631775383
30
0
10
-13.926909670564566
20
11.814003068145599
30
0
10
-13.961457140172701
20
11.833255856133221
30
0
10
-13.996308967259171
20
11.852085654018072
30
0
10
-14.031465763601933
20
11.870485707374247
30
0
10
-14.066905153352211
20
11.888486916117634
30
0
10
-14.102591527727505
20
11.906141998015231
30
0
10
-14.138487031728664
20
11.9235077182887
30
0
10
-14.174563156875671
20
11.94062611682323
30
0
10
-14.210808550703341
20
11.957511856019616
30
0
10
-14.247222544366949
20
11.974162631676348
30
0
10
-14.283810926522964
20
11.990565957186774
30
0
10
-14.320581094727467
20
12.006706953845123
30
0
10
-14.357536877200079
20
12.022576670371269
30
0
10
-14.394675406299672
20
12.038177099427232
30
0
10
-14.43198990771956
20
12.053516668494135
30
0
10
-14.46947141627847
20
12.068607458992116
30
0
10
-14.507110794509479
20
12.083461938471833
30
0
10
-14.544900901837705
20
12.098089448712663
30
0
10
-14.58283777265159
20
12.112494294841241
30
0
10
-14.620919388794867
20
12.126677719411019
30
0
10
-14.659144924415472
20
12.140639113555149
30
0
10
-14.697513857246614
20
12.154377444157944
30
0
10
-14.736025007088342
20
12.16789279783956
30
0
10
-14.774676036926506
20
12.181187180272326
30
0
10
-14.813463970035306
20
12.194263679678169
30
0
10
-14.852385497381889
20
12.207125968001865
30
0
10
-14.891437344321082
20
12.219777706667923
30
0
10
-14.930616666264697
20
12.232221905679936
30
0
10
-14.969921245203805
20
12.24446060357783
30
0
10
-15.009349261881118
20
12.256495231107243
30
0
10
-15.048899155592814
20
12.268326833660721
30
0
10
-15.0885694584872
20
12.279956335130716
30
0
10
-15.128358615799169
20
12.291384823835852
30
0
10
-15.168264892182428
20
12.302613701852254
30
0
10
-15.208286468459757
20
12.313644531593269
30
0
10
-15.248421498509838
20
12.324478946087039
30
0
10
-15.288668177079508
20
12.335118541498977
30
0
10
-15.329024811995382
20
12.345564763930765
30
0
10
-15.369489861348706
20
12.355818848437231
30
0
10
-15.410061885539372
20
12.365881885887809
30
0
10
-15.450739515190147
20
12.375754865817907
30
0
10
-15.491521414388899
20
12.385438727333788
30
0
10
-15.532406239643288
20
12.394934414493523
30
0
10
-15.573392617654822
20
12.40424291006503
30
0
10
-15.614479177564014
20
12.41336520418098
30
0
10
-15.655664573158459
20
12.422302276009368
30
0
10
-15.696947506555732
20
12.431055072579287
30
0
10
-15.738326754836729
20
12.43962448785965
30
0
10
-15.779801181645549
20
12.448011350151557
30
0
10
-15.82136969542529
20
12.456216439546527
30
0
10
-15.863031214701833
20
12.464240501847971
30
0
10
-15.90478463225638
20
12.472084264396292
30
0
10
-15.946628773616682
20
12.479748454174263
30
0
10
-15.98856237343904
20
12.487233810955376
30
0
10
-16.030584151812263
20
12.494541068061118
30
0
10
-16.07269287798016
20
12.501670938322309
30
0
10
-16.114887437245809
20
12.508624099147486
30
0
10
-16.157166898576879
20
12.515401179570949
30
0
10
-16.199530574126548
20
12.52200274677004
30
0
10
-16.241977983251545
20
12.52842928154822
30
0
10
-16.276002655421028
20
12.533430780692129
30
0
10
-16.301558633157654
20
12.537103415653778
30
0
10
-16.318612601061581
20
12.539516966374311
30
0
10
-16.327143747366367
20
12.540715023587603
30
0
0
ARC
5
130
100
AcDbEntity
8
0
100
AcDbCircle
10
0
20
0
30
0
40
20.587500000000013
100
AcDbArc
50
142.47249581413811
51
145.52750418586186
0
SPLINE
5
131
100
AcDbEntity
8
0
100
AcDbSpline
70
1064
71
5
72
81
73
75
74
0
42
0.000000001
43
0.0000000001
44
0.0000000001
40
-1
40
-1
40
-1
40
-1
40
-1
40
-1
40
-0.9857142857142841
40
-0.97142857142856986
40
-0.95714285714285563
40
-0.94285714285714139
40
-0.92857142857142716
40
-0.91428571428571292
40
-0.89999999999999869
40
-0.88571428571428445
40
-0.87142857142857022
40
-0.85714285714285599
40
-0.84285714285714175
40
-0.82857142857142752
40
-0.81428571428571328
40
-0.79999999999999905
40
-0.78571428571428481
40
-0.77142857142857058
40
-0.75714285714285634
40
-0.74285714285714211
40
-0.72857142857142787
40
-0.71428571428571364
40
-0.6999999999999994
40
-0.68571428571428517
40
-0.67142857142857093
40
-0.6571428571428567
40
-0.64285714285714246
40
-0.62857142857142823
40
-0.61428571428571399
40
-0.59999999999999976
40
-0.58571428571428552
40
-0.57142857142857129
40
-0.55714285714285705
40
-0.54285714285714282
40
-0.52857142857142858
40
-0.51428571428571435
40
-0.50000000000000011
40
-0.48571428571428582
40
-0.47142857142857153
40
-0.45714285714285724
40
-0.44285714285714295
40
-0.42857142857142866
40
-0.41428571428571437
40
-0.40000000000000008
40
-0.38571428571428579
40
-0.3714285714285715
40
-0.35714285714285721
40
-0.34285714285714292
40
-0.32857142857142863
40
-0.31428571428571433
40
-0.30000000000000004
40
-0.28571428571428575
40
-0.27142857142857146
40
-0.25714285714285717
40
-0.24285714285714291
40
-0.22857142857142862
40
-0.21428571428571433
40
-0.20000000000000004
40
-0.18571428571428575
40
-0.17142857142857146
40
-0.15714285714285717
40
-0.14285714285714288
40
-0.12857142857142859
40
-0.1142857142857143
40
-0.10000000000000001
40
-0.085714285714285715
40
-0.071428571428571425
40
-0.057142857142857141
40
-0.042857142857142858
40
-0.028571428571428571
40
-0.014285714285714285
40
-0
40
-0
40
-0
40
-0
40
-0
40
-0
10
-16.97229362972239
20
11.652742389518671
30
0
10
-16.968517940413111
20
11.644999007273174
30
0
10
-16.960952551369104
20
11.629525548158888
30
0
10
-16.949562436528371
20
11.606355275619462
30
0
10
-16.934291526247904
20
11.575541437670687
30
0
10
-16.915062557683108
20
11.537157461083915
30
0
10
-16.895692998491619
20
11.498907207852216
30
0
10
-16.876182539929111
20
11.460791283670947
30
0
10
-16.856530855134228
20
11.422810517988752
30
0
10
-16.836737633564624
20
11.384965990652278
30
0
10
-16.816802575426781
20
11.347258971132057
30
0
10
-16.796725383102885
20
11.309690850223614
30
0
10
-16.776505754677057
20
11.27226307180363
30
0
10
-16.756143377595617
20
11.234977067888058
30
0
10
-16.73563792338874
20
11.197834180116416
30
0
10
-16.714989042464023
20
11.160835686276904
30
0
10
-16.694196359714148
20
11.123982845378446
30
0
10
-16.67325947053763
20
11.087276936614899
30
0
10
-16.652177938326595
20
11.050719296684054
30
0
10
-16.63095129076887
20
11.014311364902687
30
0
10
-16.609579028253989
20
10.978054668278414
30
0
10
-16.588060635540366
20
10.94195078971487
30
0
10
-16.566395594574743
20
10.906001338944717
30
0
10
-16.544583395061863
20
10.870207925744431
30
0
10
-16.52262355431111
20
10.834572119581146
30
0
10
-16.500515591998909
20
10.79909548118259
30
0
10
-16.478258990181999
20
10.763779618687156
30
0
10
-16.455853156242785
20
10.728626238333117
30
0
10
-16.433297392050342
20
10.693637188215758
30
0
10
-16.410590845190576
20
10.658814524557602
30
0
10
-16.387732555473878
20
10.624160457498675
30
0
10
-16.364721540281042
20
10.589677247438132
30
0
10
-16.341556875825361
20
10.555367107328602
30
0
10
-16.318237764904694
20
10.521232120847831
30
0
10
-16.294763652915353
20
10.487274102974258
30
0
10
-16.271134114774533
20
10.453494735216264
30
0
10
-16.247348638538838
20
10.419895824935459
30
0
10
-16.223406425669722
20
10.386479544473055
30
0
10
-16.199306222802964
20
10.353248633224377
30
0
10
-16.175046046281125
20
10.320206726695819
30
0
10
-16.150623425803573
20
10.287358070702417
30
0
10
-16.12603589169068
20
10.254706947014757
30
0
10
-16.101281426727734
20
10.222257140980368
30
0
10
-16.076358845584075
20
10.190011495018627
30
0
10
-16.05126843058088
20
10.157971158333478
30
0
10
-16.026011325658878
20
10.126136308379865
30
0
10
-16.000588365087168
20
10.094507542439555
30
0
10
-15.974998990771779
20
10.063087163863361
30
0
10
-15.949240333735331
20
10.031880274529289
30
0
10
-15.923305715976667
20
10.000896552296197
30
0
10
-15.897186103783058
20
9.9701485400965684
30
0
10
-15.870872777434519
20
9.9396484976886175
30
0
10
-15.844359815296112
20
9.9094054720557434
30
0
10
-15.817646208383476
20
9.8794228062531602
30
0
10
-15.790739286884978
20
9.849694093329969
30
0
10
-15.763650915320158
20
9.8202077000193206
30
0
10
-15.736391180364413
20
9.7909542624080999
30
0
10
-15.70896248012799
20
9.7619337045680119
30
0
10
-15.681354377943734
20
9.7331613542660715
30
0
10
-15.653535701109707
20
9.7046773157169426
30
0
10
-15.625464160530008
20
9.676535132582412
30
0
10
-15.597100622347746
20
9.6487849615130301
30
0
10
-15.568422613514102
20
9.6214576318047182
30
0
10
-15.539436368820061
20
9.5945504743896617
30
0
10
-15.510194241908019
20
9.5680066948269857
30
0
10
-15.480768120456576
20
9.5417476423869196
30
0
10
-15.451214844890659
20
9.5157146771203909
30
0
10
-15.42154346686592
20
9.4899088612516991
30
0
10
-15.391683800032247
20
9.464429019301031
30
0
10
-15.361448647328036
20
9.4395176105777896
30
0
10
-15.330586346821381
20
9.4154952395648941
30
0
10
-15.305190764316594
20
9.397246747730696
30
0
10
-15.285656905221021
20
9.384219362642682
30
0
10
-15.272406290405616
20
9.3758418035726656
30
0
10
-15.265723971954781
20
9.37172986576212
30
0
0
LINE
5
132
100
AcDbEntity
8
0
100
AcDbLine
10
-15.265723971954781
20
9.37172986576212
30
0
11
-15.062352151165195
21
9.2465858329452306
31
0
0
ARC
5
133
100
AcDbEntity
8
0
100
AcDbCircle
10
-15.324388931321343
20
8.8207493316382148
30
0
40
0.50000000000000111
100
AcDbArc
50
-29.924817955857094
51
58.394103294532172
0
ARC
5
134
100
AcDbEntity
8
0
100
AcDbCircle
10
0
20
0
30
0
40
17.181699999999999
100
AcDbArc
50
150.07518204414265
51
152.32481795585736
0
ARC
5
135
100
AcDbEntity
8
0
100
AcDbCircle
10
-15.658823190636905
20
8.212415672283754
30
0
40
0.50000000000000067
100
AcDbArc
50
244.00589670546734
51
332.32481795585807
0
LINE
5
136
100
AcDbEntity
8
0
100
AcDbLine
10
-15.877962512310813
20
7.7629960936088818
30
0
11
-16.092597184850778
21
7.8676530751466984
31
0
0
SPLINE
5
137
100
AcDbEntity
8
0
100
AcDbSpline
70
1064
71
5
72
81
73
75
74
0
42
0.000000001
43
0.0000000001
44
0.0000000001
40
0
40
0
40
0
40
0
40
0
40
0
40
0.014285714285714285
40
0.028571428571428571
40
0.042857142857142858
40
0.057142857142857141
40
0.071428571428571425
40
0.085714285714285715
40
0.10000000000000001
40
0.1142857142857143
40
0.12857142857142859
40
0.14285714285714288
40
0.15714285714285717
40
0.17142857142857146
40
0.18571428571428575
40
0.20000000000000004
40
0.21428571428571433
40
0.22857142857142862
40
0.24285714285714291
40
0.25714285714285717
40
0.27142857142857146
40
0.28571428571428575
40
0.30000000000000004
40
0.31428571428571433
40
0.32857142857142863
40
0.34285714285714292
40
0.35714285714285721
40
0.3714285714285715
40
0.38571428571428579
40
0.40000000000000008
40
0.41428571428571437
40
0.42857142857142866
40
0.44285714285714295
40
0.45714285714285724
40
0.47142857142857153
40
0.48571428571428582
40
0.50000000000000011
40
0.51428571428571435
40
0.52857142857142858
40
0.54285714285714282
40
0.55714285714285705
40
0.57142857142857129
40
0.58571428571428552
40
0.59999999999999976
40
0.61428571428571399
40
0.62857142857142823
40
0.64285714285714246
40
0.6571428571428567
40
0.67142857142857093
40
0.68571428571428517
40
0.6999999999999994
40
0.71428571428571364
40
0.72857142857142787
40
0.74285714285714211
40
0.75714285714285634
40
0.77142857142857058
40
0.78571428571428481
40
0.79999999999999905
40
0.81428571428571328
40
0.82857142857142752
40
0.84285714285714175
40
0.85714285714285599
40
0.87142857142857022
40
0.88571428571428445
40
0.89999999999999869
40
0.91428571428571292
40
0.92857142857142716
40
0.94285714285714139
40
0.95714285714285563
40
0.97142857142856986
40
0.9857142857142841
40
1
40
1
40
1
40
1
40
1
40
1
10
-16.092597184850778
20
7.8676530751466984
30
0
10
-16.099649574050691
20
7.8710918567636599
30
0
10
-16.113823015589087
20
7.8777908002561414
30
0
10
-16.135289165727919
20
7.8873033609846903
30
0
10
-16.16430451056199
20
7.8989675295851525
30
0
10
-16.201124116811108
20
7.9121536016805187
30
0
10
-16.238358319828933
20
7.924333785145917
30
0
10
-16.275871271503888
20
7.9358923536507753
30
0
10
-16.313558561871794
20
7.9471172790964495
30
0
10
-16.351374358357564
20
7.9581207746042457
30
0
10
-16.389312913975925
20
7.9688957667767664
30
0
10
-16.427393283450712
20
7.9793628427999819
30
0
10
-16.465643354445003
20
7.9894191627308881
30
0
10
-16.504083027606846
20
7.9989900909439902
30
0
10
-16.542711215736649
20
8.0080689330730905
30
0
10
-16.581513930460666
20
8.0166911829037062
30
0
10
-16.620469792087306
20
8.0249167575213516
30
0
10
-16.659556251838403
20
8.0328100529193307
30
0
10
-16.698756151774557
20
8.0404188779932113
30
0
10
-16.738062142479954
20
8.0477602577407907
30
0
10
-16.777473003091249
20
8.0548321266862093
30
0
10
-16.816991235110827
20
8.0616209509321948
30
0
10
-16.856620303503263
20
8.0681104795174949
30
0
10
-16.896361690124799
20
8.0742910903433991
30
0
10
-16.936213112981399
20
8.080165426622143
30
0
10
-16.976170106423019
20
8.0857433357715891
30
0
10
-17.016226991453046
20
8.0910387492017684
30
0
10
-17.056378018228656
20
8.0960660151679313
30
0
10
-17.096618593715316
20
8.1008359577490303
30
0
10
-17.136945947529902
20
8.1053537330257264
30
0
10
-17.177358433930713
20
8.1096210464094245
30
0
10
-17.217855101592324
20
8.1136375135430061
30
0
10
-17.258435187730484
20
8.1174022636504795
30
0
10
-17.299097570764957
20
8.1209156741344604
30
0
10
-17.339840485893617
20
8.1241802688471836
30
0
10
-17.380661817919531
20
8.1271997792700077
30
0
10
-17.421559274944741
20
8.1299785849098143
30
0
10
-17.462530595762317
20
8.1325210465318687
30
0
10
-17.503573773709494
20
8.1348307869952858
30
0
10
-17.544687167424438
20
8.1369103323918974
30
0
10
-17.585869370617143
20
8.1387615209487265
30
0
10
-17.627119131594721
20
8.140385753346651
30
0
10
-17.668435258383454
20
8.1417842894922074
30
0
10
-17.709816515717868
20
8.1429585701668525
30
0
10
-17.751261571452929
20
8.1439103849609857
30
0
10
-17.792769052120601
20
8.1446416996128388
30
0
10
-17.834337575716454
20
8.1451545549576796
30
0
10
-17.875965790652867
20
8.1454509459626543
30
0
10
-17.917652417550059
20
8.1455326941239061
30
0
10
-17.95939627008682
20
8.145401379151858
30
0
10
-18.001196225178923
20
8.1450584156582693
30
0
10
-18.043051202558082
20
8.1445051026407391
30
0
10
-18.084960141828546
20
8.1437426819296164
30
0
10
-18.126921976483942
20
8.1427724020366128
30
0
10
-18.168935620774921
20
8.1415955563796274
30
0
10
-18.210999993146043
20
8.1402134449033916
30
0
10
-18.253114033187831
20
8.1386273508029454
30
0
10
-18.295276719309776
20
8.1368385141249515
30
0
10
-18.337487089334054
20
8.1348481048802626
30
0
10
-18.379744248595582
20
8.1326572079475934
30
0
10
-18.422047333831593
20
8.1302668503696225
30
0
10
-18.464395483018237
20
8.1276780234706472
30
0
10
-18.506787804604233
20
8.1248917070944575
30
0
10
-18.549223341808801
20
8.1219088974636904
30
0
10
-18.591701053015527
20
8.1187306257886789
30
0
10
-18.634219880893621
20
8.1153579206532331
30
0
10
-18.676778810627184
20
8.1117917785699039
30
0
10
-18.719376931004184
20
8.1080331328790454
30
0
10
-18.762013496676865
20
8.1040828243910106
30
0
10
-18.804687982459647
20
8.0999415735247737
30
0
10
-18.847400042380499
20
8.0956099655095919
30
0
10
-18.881599589164541
20
8.0919927414781316
30
0
10
-18.90726602604062
20
8.0891944806392484
30
0
10
-18.924384437839148
20
8.087291055871944
30
0
10
-18.932945507208284
20
8.0863298641028845
30
0
0
ARC
5
138
100
AcDbEntity
8
0
100
AcDbCircle
10
0
20
0
30
0
40
20.587500000000013
100
AcDbArc
50
156.87249581413815
51
159.92750418586189
0
SPLINE
5
139
100
AcDbEntity
8
0
100
AcDbSpline
70
1064
71
5
72
81
73
75
74
0
42
0.000000001
43
0.0000000001
44
0.0000000001
40
-1
40
-1
40
-1
40
-1
40
-1
40
-1
40
-0.9857142857142841
40
-0.97142857142856986
40
-0.95714285714285563
40
-0.94285714285714139
40
-0.92857142857142716
40
-0.91428571428571292
40
-0.89999999999999869
40
-0.88571428571428445
40
-0.87142857142857022
40
-0.85714285714285599
40
-0.84285714285714175
40
-0.82857142857142752
40
-0.81428571428571328
40
-0.79999999999999905
40
-0.78571428571428481
40
-0.77142857142857058
40
-0.75714285714285634
40
-0.74285714285714211
40
-0.72857142857142787
40
-0.71428571428571364
40
-0.6999999999999994
40
-0.68571428571428517
40
-0.67142857142857093
40
-0.6571428571428567
40
-0.64285714285714246
40
-0.62857142857142823
40
-0.61428571428571399
40
-0.59999999999999976
40
-0.58571428571428552
40
-0.57142857142857129
40
-0.55714285714285705
40
-0.54285714285714282
40
-0.52857142857142858
40
-0.51428571428571435
40
-0.50000000000000011
40
-0.48571428571428582
40
-0.47142857142857153
40
-0.45714285714285724
40
-0.44285714285714295
40
-0.42857142857142866
40
-0.41428571428571437
40
-0.40000000000000008
40
-0.38571428571428579
40
-0.3714285714285715
40
-0.35714285714285721
40
-0.34285714285714292
40
-0.32857142857142863
40
-0.31428571428571433
40
-0.30000000000000004
40
-0.28571428571428575
40
-0.27142857142857146
40
-0.25714285714285717
40
-0.24285714285714291
40
-0.22857142857142862
40
-0.21428571428571433
40
-0.20000000000000004
40
-0.18571428571428575
40
-0.17142857142857146
40
-0.15714285714285717
40
-0.14285714285714288
40
-0.12857142857142859
40
-0.1142857142857143
40
-0.10000000000000001
40
-0.085714285714285715
40
-0.071428571428571425
40
-0.057142857142857141
40
-0.042857142857142858
40
-0.028571428571428571
40
-0.014285714285714285
40
-0
40
-0
40
-0
40
-0
40
-0
40
-0
10
-19.33699700549036
20
7.0658122717531411
30
0
10
-19.331414235546838
20
7.059251137848265
30
0
10
-19.320238434310241
20
7.046145241653468
30
0
10
-19.303443948408777
20
7.0265355122075546
30
0
10
-19.280989711973412
20
7.0004874685951766
30
0
10
-19.252819150009376
20
6.968091445238751
30
0
10
-19.224545669977797
20
6.9358599075393856
30
0
10
-19.196169123464429
20
6.9037935189449975
30
0
10
-19.167689400152362
20
6.8718931641326906
30
0
10
-19.139106467802435
20
6.840159966252485
30
0
10
-19.110420351744196
20
6.8085952294477732
30
0
10
-19.081631109586812
20
6.77720037483423
30
0
10
-19.052738807977182
20
6.7459768760099141
30
0
10
-19.023743500308953
20
6.714926197730307
30
0
10
-18.994645202083973
20
6.6840497211719754
30
0
10
-18.965443892465924
20
6.6533487709191501
30
0
10
-18.936139521234963
20
6.622824659712073
30
0
10
-18.906732014623483
20
6.5924787271766689
30
0
10
-18.877221282163667
20
6.5623123765958731
30
0
10
-18.847607224325429
20
6.5323271195269399
30
0
10
-18.817889736945833
20
6.5025245592518033
30
0
10
-18.788068714622685
20
6.4729063570796397
30
0
10
-18.758144055902552
20
6.4434742010050119
30
0
10
-18.728115666857175
20
6.414229777135569
30
0
10
-18.697983470271154
20
6.3851747256710309
30
0
10
-18.667747389048365
20
6.3563106777576053
30
0
10
-18.637407321445437
20
6.3276393198183181
30
0
10
-18.606963117787167
20
6.2991624518648193
30
0
10
-18.576414561478284
20
6.2708820375491978
30
0
10
-18.54576133824661
20
6.2428002804807212
30
0
10
-18.515003067708125
20
6.2149195601532492
30
0
10
-18.484139360252836
20
6.1872423103188003
30
0
10
-18.453169871455415
20
6.15977090414244
30
0
10
-18.422094347348889
20
6.1325075580954556
30
0
10
-18.390912702120247
20
6.1054541680597314
30
0
10
-18.359624942215568
20
6.0786124684297693
30
0
10
-18.328231021247653
20
6.0519843371007269
30
0
10
-18.296730706004805
20
6.0255720767541865
30
0
10
-18.265123463759458
20
5.9993786524213384
30
0
10
-18.233408277288099
20
5.9734080787080099
30
0
10
-18.201583809790389
20
5.9476650823779256
30
0
10
-18.169648734009279
20
5.9221544248663269
30
0
10
-18.137602037482203
20
5.89688027425799
30
0
10
-18.105443278998813
20
5.8718456784522033
30
0
10
-18.073173017806038
20
5.8470516803381436
30
0
10
-18.04079240603685
20
5.8224981673091776
30
0
10
-18.008302400288198
20
5.7981855104080928
30
0
10
-17.975703032819702
20
5.7741160794140178
30
0
10
-17.942992793573652
20
5.7502955294057445
30
0
10
-17.91016762113621
20
5.7267348949457464
30
0
10
-17.877221884905801
20
5.7034485715002283
30
0
10
-17.844150187986369
20
5.6804506021707279
30
0
10
-17.810949044675301
20
5.6577512223637507
30
0
10
-17.777618309071364
20
5.635353921030493
30
0
10
-17.744163487727686
20
5.6132506695624773
30
0
10
-17.710593179342283
20
5.5914272495873014
30
0
10
-17.6769148249886
20
5.5698720829222328
30
0
10
-17.643130728553238
20
5.5485844996386398
30
0
10
-17.609234593116799
20
5.5275819414471261
30
0
10
-17.575206198837698
20
5.50691100495043
30
0
10
-17.541017900976964
20
5.4866340685082351
30
0
10
-17.506644268591547
20
5.4668094452021352
30
0
10
-17.472071201598901
20
5.447472584589006
30
0
10
-17.437304075142425
20
5.4286193509252385
30
0
10
-17.40237947387546
20
5.4101817142503368
30
0
10
-17.367347467351891
20
5.3920656170531531
30
0
10
-17.332248527087849
20
5.3742001260275867
30
0
10
-17.297091684529022
20
5.3565840189709846
30
0
10
-17.261833535017324
20
5.3393304702849944
30
0
10
-17.226353059809373
20
5.3227208759900924
30
0
10
-17.190486234488308
20
5.3071283539672649
30
0
10
-17.161350285531942
20
5.2957687966082663
30
0
10
-17.139190339612519
20
5.2880085639928538
30
0
10
-17.124272603007878
20
5.2831894952495819
30
0
10
-17.116777624528964
20
5.2808685665482162
30
0
0
LINE
5
140
100
AcDbEntity
8
0
100
AcDbLine
10
-17.116777624528964
20
5.2808685665482171
30
0
11
-16.888673048063517
21
5.2102326788107209
31
0
0
ARC
5
141
100
AcDbEntity
8
0
100
AcDbCircle
10
-17.036576229458404
20
4.7326087169607431
30
0
40
0.49999999999999789
100
AcDbArc
50
-15.524817955857381
51
72.794103294532491
0
ARC
5
142
100
AcDbEntity
8
0
100
AcDbCircle
10
0
20
0
30
0
40
17.181699999999999
100
AcDbArc
50
164.47518204414266
51
166.72481795585736
0
ARC
5
143
100
AcDbEntity
8
0
100
AcDbCircle
10
-17.209217192432543
20
4.0602165599490121
30
0
40
0.50000000000000211
100
AcDbArc
50
258.40589670546751
51
346.72481795585657
0
LINE
5
144
100
AcDbEntity
8
0
100
AcDbLine
10
-17.309705745036709
20
3.5704185905825367
30
0
11
-17.543624407582929
21
3.6184101080989883
31
0
0
SPLINE
5
145
100
AcDbEntity
8
0
100
AcDbSpline
70
1064
71
5
72
81
73
75
74
0
42
0.000000001
43
0.0000000001
44
0.0000000001
40
0
40
0
40
0
40
0
40
0
40
0
40
0.014285714285714285
40
0.028571428571428571
40
0.042857142857142858
40
0.057142857142857141
40
0.071428571428571425
40
0.085714285714285715
40
0.10000000000000001
40
0.1142857142857143
40
0.12857142857142859
40
0.14285714285714288
40
0.15714285714285717
40
0.17142857142857146
40
0.18571428571428575
40
0.20000000000000004
40
0.21428571428571433
40
0.22857142857142862
40
0.24285714285714291
40
0.25714285714285717
40
0.27142857142857146
40
0.28571428571428575
40
0.30000000000000004
40
0.31428571428571433
40
0.32857142857142863
40
0.34285714285714292
40
0.35714285714285721
40
0.3714285714285715
40
0.38571428571428579
40
0.40000000000000008
40
0.41428571428571437
40
0.42857142857142866
40
0.44285714285714295
40
0.45714285714285724
40
0.47142857142857153
40
0.48571428571428582
40
0.50000000000000011
40
0.51428571428571435
40
0.52857142857142858
40
0.54285714285714282
40
0.55714285714285705
40
0.57142857142857129
40
0.58571428571428552
40
0.59999999999999976
40
0.61428571428571399
40
0.62857142857142823
40
0.64285714285714246
40
0.6571428571428567
40
0.67142857142857093
40
0.68571428571428517
40
0.6999999999999994
40
0.71428571428571364
40
0.72857142857142787
40
0.74285714285714211
40
0.75714285714285634
40
0.77142857142857058
40
0.78571428571428481
40
0.79999999999999905
40
0.81428571428571328
40
0.82857142857142752
40
0.84285714285714175
40
0.85714285714285599
40
0.87142857142857022
40
0.88571428571428445
40
0.89999999999999869
40
0.91428571428571292
40
0.92857142857142716
40
0.94285714285714139
40
0.95714285714285563
40
0.97142857142856986
40
0.9857142857142841
40
1
40
1
40
1
40
1
40
1
40
1
10
-17.543624407582929
20
3.6184101080989883
30
0
10
-17.551310423219995
20
3.6199869961936053
30
0
10
-17.566704539530601
20
3.622950688480854
30
0
10
-17.589861968743559
20
3.62682598016585
30
0
10
-17.620866503937307
20
3.630907874627987
30
0
10
-17.659808597331132
20
3.6345230182974402
30
0
10
-17.6989021078439
20
3.637060769154306
30
0
10
-17.738111020257751
20
3.6389271122555975
30
0
10
-17.77740582053919
20
3.6404269380380603
30
0
10
-17.816770022296229
20
3.6416803323393698
30
0
10
-17.856196300013298
20
3.6426818732030402
30
0
10
-17.895683360611294
20
3.6433499039974979
30
0
10
-17.935232640357253
20
3.6435778803058785
30
0
10
-17.97484485355848
20
3.6432885622281868
30
0
10
-18.014517282350589
20
3.6424757360895956
30
0
10
-18.054245204775832
20
3.641177259340167
30
0
10
-18.09402281359818
20
3.6394564835730892
30
0
10
-18.133844283083103
20
3.6373813893162108
30
0
10
-18.173704883928274
20
3.6350025504667487
30
0
10
-18.213601731558061
20
3.6323382848762762
30
0
10
-18.253533129801831
20
3.6293868955760233
30
0
10
-18.293498135829278
20
3.626134651762646
30
0
10
-18.333496064297044
20
3.6225649513270652
30
0
10
-18.373525957587468
20
3.6186681059438417
30
0
10
-18.41358626273972
20
3.6144472432926724
30
0
10
-18.453675103353589
20
3.6099130119786893
30
0
10
-18.493790443449384
20
3.6050803180400819
30
0
10
-18.533930282092136
20
3.5999644888830415
30
0
10
-18.574092862384916
20
3.5945771507694184
30
0
10
-18.6142767832464
20
3.5889239867583838
30
0
10
-18.65448087475745
20
3.5830070579620239
30
0
10
-18.69470411989456
20
3.5768262286835197
30
0
10
-18.734945563284565
20
3.5703808452006358
30
0
10
-18.775204212439942
20
3.563671551984855
30
0
10
-18.815478985659603
20
3.5567012324853966
30
0
10
-18.855768762181089
20
3.5494740269803513
30
0
10
-18.896072411249705
20
3.5419947473581881
30
0
10
-18.936388827176721
20
3.5342681797220084
30
0
10
-18.976716967310793
20
3.526298332148881
30
0
10
-19.017055870069971
20
3.5180880595589081
30
0
10
-19.05740463049392
20
3.509639492157933
30
0
10
-19.097762384549156
20
3.5009542979052304
30
0
10
-19.138128291036011
20
3.4920339935568681
30
0
10
-19.178501511804932
20
3.4828802818275317
30
0
10
-19.218881201615705
20
3.4734952273753494
30
0
10
-19.259266519009536
20
3.4638810757488803
30
0
10
-19.299656632935296
20
3.4540401473573246
30
0
10
-19.340050730396136
20
3.4439747106184422
30
0
10
-19.380448025194003
20
3.4336868479715394
30
0
10
-19.420847761136166
20
3.4231783845236166
30
0
10
-19.461249202221786
20
3.4124509697434928
30
0
10
-19.501651625168765
20
3.4015061304701688
30
0
10
-19.542054311726275
20
3.390345333229309
30
0
10
-19.582456539386449
20
3.3789700525376833
30
0
10
-19.622857578170692
20
3.3673818111929732
30
0
10
-19.663256703785731
20
3.3555821372716532
30
0
10
-19.70365320825443
20
3.3435725373679452
30
0
10
-19.744046410468492
20
3.3313544666293984
30
0
10
-19.784435669448541
20
3.3189292975927138
30
0
10
-19.824820388435413
20
3.3062983035473059
30
0
10
-19.865199986702454
20
3.2934626939541376
30
0
10
-19.905573875840204
20
3.2804236433698475
30
0
10
-19.945941435984352
20
3.2671823225744139
30
0
10
-19.986301988163639
20
3.2537399344340168
30
0
10
-20.026654779937516
20
3.2400977368010864
30
0
10
-20.06699904299159
20
3.2262569888920578
30
0
10
-20.107334042214852
20
3.2122189082866566
30
0
10
-20.147659127135
20
3.1979846256118498
30
0
10
-20.187973784921759
20
3.1835551406228402
30
0
10
-20.228277686050138
20
3.1689312817136548
30
0
10
-20.268570640958053
20
3.1541137017672458
30
0
10
-20.30079617905507
20
3.1421050380495315
30
0
10
-20.324960358447136
20
3.1330117064299055
30
0
10
-20.341067601369851
20
3.1269109053532027
30
0
10
-20.349120670329455
20
3.123850859815656
30
0
0
ARC
5
146
100
AcDbEntity
8
0
100
AcDbCircle
10
0
20
0
30
0
40
20.587500000000013
100
AcDbArc
50
171.27249581413813
51
174.3275041858619
0
SPLINE
5
147
100
AcDbEntity
8
0
100
AcDbSpline
70
1064
71
5
72
81
73
75
74
0
42
0.000000001
43
0.0000000001
44
0.0000000001
40
-1
40
-1
40
-1
40
-1
40
-1
40
-1
40
-0.9857142857142841
40
-0.97142857142856986
40
-0.95714285714285563
40
-0.94285714285714139
40
-0.92857142857142716
40
-0.91428571428571292
40
-0.89999999999999869
40
-0.88571428571428445
40
-0.87142857142857022
40
-0.85714285714285599
40
-0.84285714285714175
40
-0.82857142857142752
40
-0.81428571428571328
40
-0.79999999999999905
40
-0.78571428571428481
40
-0.77142857142857058
40
-0.75714285714285634
40
-0.74285714285714211
40
-0.72857142857142787
40
-0.71428571428571364
40
-0.6999999999999994
40
-0.68571428571428517
40
-0.67142857142857093
40
-0.6571428571428567
40
-0.64285714285714246
40
-0.62857142857142823
40
-0.61428571428571399
40
-0.59999999999999976
40
-0.58571428571428552
40
-0.57142857142857129
40
-0.55714285714285705
40
-0.54285714285714282
40
-0.52857142857142858
40
-0.51428571428571435
40
-0.50000000000000011
40
-0.48571428571428582
40
-0.47142857142857153
40
-0.45714285714285724
40
-0.44285714285714295
40
-0.42857142857142866
40
-0.41428571428571437
40
-0.40000000000000008
40
-0.38571428571428579
40
-0.3714285714285715
40
-0.35714285714285721
40
-0.34285714285714292
40
-0.32857142857142863
40
-0.31428571428571433
40
-0.30000000000000004
40
-0.28571428571428575
40
-0.27142857142857146
40
-0.25714285714285717
40
-0.24285714285714291
40
-0.22857142857142862
40
-0.21428571428571433
40
-0.20000000000000004
40
-0.18571428571428575
40
-0.17142857142857146
40
-0.15714285714285717
40
-0.14285714285714288
40
-0.12857142857142859
40
-0.1142857142857143
40
-0.10000000000000001
40
-0.085714285714285715
40
-0.071428571428571425
40
-0.057142857142857141
40
-0.042857142857142858
40
-0.028571428571428571
40
-0.014285714285714285
40
-0
40
-0
40
-0
40
-0
40
-0
40
-0
10
-20.486685742903063
20
2.0349111827136008
30
0
10
-20.479646678292831
20
2.0299445573227501
30
0
10
-20.465562681557067
20
2.0200297157054745
30
0
10
-20.444419083909857
20
2.005212680773703
30
0
10
-20.416192403575732
20
1.9855671258758933
30
0
10
-20.380850308224741
20
1.9611946170415362
30
0
10
-20.345449434086046
20
1.9370070209274592
30
0
10
-20.309989802400885
20
1.9130050170472663
30
0
10
-20.274471526328423
20
1.8891894897190005
30
0
10
-20.238894853958399
20
1.8655615348244139
30
0
10
-20.203260134151854
20
1.8421224092356359
30
0
10
-20.167567776125157
20
1.8188734750945579
30
0
10
-20.131818210900313
20
1.795816143129036
30
0
10
-20.096011854463374
20
1.7729518187981086
30
0
10
-20.060149065313816
20
1.7502818360309869
30
0
10
-20.024230152680641
20
1.727807482979431
30
0
10
-19.988255394386979
20
1.7055300436307035
30
0
10
-19.952225052134175
20
1.6834508338691736
30
0
10
-19.916139387278914
20
1.6615712353894958
30
0
10
-19.879998679327024
20
1.639892737012697
30
0
10
-19.843803226108051
20
1.6184169175549346
30
0
10
-19.807553338681984
20
1.5971454123447577
30
0
10
-19.771249338569923
20
1.5760798815757204
30
0
10
-19.734891554112458
20
1.5552219817423079
30
0
10
-19.698480318421137
20
1.534573320717036
30
0
10
-19.662015962471514
20
1.5141354975736854
30
0
10
-19.625498807113033
20
1.4939101710557452
30
0
10
-19.588929155017492
20
1.4738991218469033
30
0
10
-19.552307284734795
20
1.4541043057725549
30
0
10
-19.515633439881526
20
1.4345279353678486
30
0
10
-19.478907843780199
20
1.4151724099681235
30
0
10
-19.44213072431064
20
1.3960401837566725
30
0
10
-19.405302338050443
20
1.3771336409963069
30
0
10
-19.368422990225451
20
1.358454991682817
30
0
10
-19.33149306920529
20
1.340006093476295
30
0
10
-19.294513012559889
20
1.3217886246789767
30
0
10
-19.257483242372938
20
1.3038044157245177
30
0
10
-19.22040410541312
20
1.2860557549489142
30
0
10
-19.183275823062772
20
1.2685456467154088
30
0
10
-19.146098408448179
20
1.2512782324768021
30
0
10
-19.1088717422654
20
1.2342584229455744
30
0
10
-19.071595723076388
20
1.2174911600431255
30
0
10
-19.034270406787492
20
1.200980732695385
30
0
10
-18.996896124031515
20
1.1847302027708364
30
0
10
-18.959473675841618
20
1.1687404413153142
30
0
10
-18.922004150150265
20
1.153011052736113
30
0
10
-18.88448856577574
20
1.1375421585230427
30
0
10
-18.846927543304272
20
1.1223360459816205
30
0
10
-18.809321026480298
20
1.1073985680620186
30
0
10
-18.77166782567086
20
1.0927414226881922
30
0
10
-18.733966067176947
20
1.0783799533399729
30
0
10
-18.696214016033259
20
1.06432910408251
30
0
10
-18.658410841489037
20
1.0505996556171817
30
0
10
-18.620557269893666
20
1.0371950235675287
30
0
10
-18.582656638168057
20
1.0241060621344968
30
0
10
-18.544713738900882
20
1.0113168612327594
30
0
10
-18.506732900013624
20
0.99881435590976786
30
0
10
-18.46871618640758
20
0.98659732433063196
30
0
10
-18.430661836569687
20
0.97468422622272088
30
0
10
-18.392561854005749
20
0.96312522274093315
30
0
10
-18.354404975354331
20
0.95198760748109157
30
0
10
-18.316181070505912
20
0.94133418593046136
30
0
10
-18.277885298304263
20
0.9312028004808357
30
0
10
-18.239521836505151
20
0.92158810857679607
30
0
10
-18.201109202024575
20
0.91241511931083596
30
0
10
-18.162672500237459
20
0.90358027836978017
30
0
10
-18.12423329077696
20
0.89500481609099158
30
0
10
-18.085800017399837
20
0.88668530264035483
30
0
10
-18.047358784414339
20
0.87874215113709686
30
0
10
-18.008862355448024
20
0.8714780131658989
30
0
10
-17.970244649856426
20
0.86529507563711805
30
0
10
-17.939199053275935
20
0.86153821551971732
30
0
10
-17.915805411433357
20
0.85953273933226626
30
0
10
-17.900157889293947
20
0.85857496072817563
30
0
10
-17.89232118784939
20
0.85819087362207691
30
0
0
LINE
5
148
100
AcDbEntity
8
0
100
AcDbLine
10
-17.89232118784939
20
0.8581908736220768
30
0
11
-17.653816505157351
21
0.84650144357114621
31
0
0
ARC
5
149
100
AcDbEntity
8
0
100
AcDbCircle
10
-17.678292786954092
20
0.34710089127929578
30
0
40
0.49999999999999956
100
AcDbArc
50
-1.1248179558574625
51
87.194103294532439
0
ARC
5
150
100
AcDbEntity
8
0
100
AcDbCircle
10
0
20
0
30
0
40
17.181699999999999
100
AcDbArc
50
178.87518204414289
51
181.12481795585708
0
ARC
5
151
100
AcDbEntity
8
0
100
AcDbCircle
10
-17.678292786954096
20
-0.347100891279294
30
0
40
0.50000000000000122
100
AcDbArc
50
-87.194103294532084
51
1.124817955858094
0
LINE
5
152
100
AcDbEntity
8
0
100
AcDbLine
10
-17.653816505157351
20
-0.84650144357114687
30
0
11
-17.89232118784939
21
-0.85819087362208002
31
0
0
SPLINE
5
153
100
AcDbEntity
8
0
100
AcDbSpline
70
1064
71
5
72
81
73
75
74
0
42
0.000000001
43
0.0000000001
44
0.0000000001
40
0
40
0
40
0
40
0
40
0
40
0
40
0.014285714285714285
40
0.028571428571428571
40
0.042857142857142858
40
0.057142857142857141
40
0.071428571428571425
40
0.085714285714285715
40
0.10000000000000001
40
0.1142857142857143
40
0.12857142857142859
40
0.14285714285714288
40
0.15714285714285717
40
0.17142857142857146
40
0.18571428571428575
40
0.20000000000000004
40
0.21428571428571433
40
0.22857142857142862
40
0.24285714285714291
40
0.25714285714285717
40
0.27142857142857146
40
0.28571428571428575
40
0.30000000000000004
40
0.31428571428571433
40
0.32857142857142863
40
0.34285714285714292
40
0.35714285714285721
40
0.3714285714285715
40
0.38571428571428579
40
0.40000000000000008
40
0.41428571428571437
40
0.42857142857142866
40
0.44285714285714295
40
0.45714285714285724
40
0.47142857142857153
40
0.48571428571428582
40
0.50000000000000011
40
0.51428571428571435
40
0.52857142857142858
40
0.54285714285714282
40
0.55714285714285705
40
0.57142857142857129
40
0.58571428571428552
40
0.59999999999999976
40
0.61428571428571399
40
0.62857142857142823
40
0.64285714285714246
40
0.6571428571428567
40
0.67142857142857093
40
0.68571428571428517
40
0.6999999999999994
40
0.71428571428571364
40
0.72857142857142787
40
0.74285714285714211
40
0.75714285714285634
40
0.77142857142857058
40
0.78571428571428481
40
0.79999999999999905
40
0.81428571428571328
40
0.82857142857142752
40
0.84285714285714175
40
0.85714285714285599
40
0.87142857142857022
40
0.88571428571428445
40
0.89999999999999869
40
0.91428571428571292
40
0.92857142857142716
40
0.94285714285714139
40
0.95714285714285563
40
0.97142857142856986
40
0.9857142857142841
40
1
40
1
40
1
40
1
40
1
40
1
10
-17.89232118784939
20
-0.85819087362208024
30
0
10
-17.900157889293947
20
-0.85857496072817918
30
0
10
-17.915805411433357
20
-0.85953273933226959
30
0
10
-17.939199053275935
20
-0.86153821551972065
30
0
10
-17.970244649856426
20
-0.8652950756371216
30
0
10
-18.008862355448024
20
-0.87147801316590223
30
0
10
-18.047358784414339
20
-0.87874215113710052
30
0
10
-18.085800017399837
20
-0.8866853026403585
30
0
10
-18.12423329077696
20
-0.89500481609099514
30
0
10
-18.162672500237463
20
-0.90358027836978383
30
0
10
-18.201109202024575
20
-0.9124151193108393
30
0
10
-18.239521836505155
20
-0.9215881085767994
30
0
10
-18.277885298304263
20
-0.93120280048083925
30
0
10
-18.316181070505912
20
-0.94133418593046492
30
0
10
-18.354404975354331
20
-0.95198760748109512
30
0
10
-18.392561854005749
20
-0.96312522274093681
30
0
10
-18.430661836569687
20
-0.97468422622272455
30
0
10
-18.46871618640758
20
-0.98659732433063563
30
0
10
-18.506732900013624
20
-0.99881435590977152
30
0
10
-18.544713738900882
20
-1.011316861232763
30
0
10
-18.582656638168057
20
-1.0241060621345004
30
0
10
-18.620557269893666
20
-1.0371950235675322
30
0
10
-18.658410841489037
20
-1.0505996556171855
30
0
10
-18.696214016033259
20
-1.0643291040825136
30
0
10
-18.733966067176947
20
-1.0783799533399765
30
0
10
-18.77166782567086
20
-1.0927414226881957
30
0
10
-18.809321026480301
20
-1.1073985680620222
30
0
10
-18.846927543304272
20
-1.1223360459816243
30
0
10
-18.88448856577574
20
-1.1375421585230465
30
0
10
-18.922004150150265
20
-1.1530110527361168
30
0
10
-18.959473675841618
20
-1.1687404413153177
30
0
10
-18.996896124031515
20
-1.18473020277084
30
0
10
-19.034270406787492
20
-1.2009807326953887
30
0
10
-19.071595723076388
20
-1.2174911600431291
30
0
10
-19.1088717422654
20
-1.234258422945578
30
0
10
-19.146098408448179
20
-1.2512782324768059
30
0
10
-19.183275823062772
20
-1.2685456467154121
30
0
10
-19.220404105413124
20
-1.2860557549489182
30
0
10
-19.257483242372938
20
-1.3038044157245214
30
0
10
-19.294513012559889
20
-1.3217886246789807
30
0
10
-19.33149306920529
20
-1.3400060934762985
30
0
10
-19.368422990225451
20
-1.3584549916828208
30
0
10
-19.405302338050443
20
-1.3771336409963109
30
0
10
-19.44213072431064
20
-1.396040183756676
30
0
10
-19.478907843780203
20
-1.4151724099681273
30
0
10
-19.51563343988153
20
-1.4345279353678522
30
0
10
-19.552307284734795
20
-1.4541043057725589
30
0
10
-19.588929155017492
20
-1.4738991218469071
30
0
10
-19.625498807113033
20
-1.493910171055749
30
0
10
-19.662015962471514
20
-1.5141354975736894
30
0
10
-19.698480318421137
20
-1.5345733207170398
30
0
10
-19.734891554112458
20
-1.5552219817423119
30
0
10
-19.771249338569923
20
-1.5760798815757244
30
0
10
-19.807553338681984
20
-1.5971454123447615
30
0
10
-19.843803226108051
20
-1.6184169175549385
30
0
10
-19.879998679327024
20
-1.6398927370127008
30
0
10
-19.916139387278914
20
-1.6615712353894996
30
0
10
-19.952225052134175
20
-1.6834508338691776
30
0
10
-19.988255394386979
20
-1.7055300436307075
30
0
10
-20.024230152680641
20
-1.727807482979435
30
0
10
-20.060149065313816
20
-1.7502818360309909
30
0
10
-20.096011854463374
20
-1.7729518187981124
30
0
10
-20.131818210900313
20
-1.7958161431290398
30
0
10
-20.167567776125157
20
-1.8188734750945619
30
0
10
-20.203260134151854
20
-1.8421224092356399
30
0
10
-20.238894853958399
20
-1.8655615348244179
30
0
10
-20.274471526328423
20
-1.8891894897190042
30
0
10
-20.309989802400885
20
-1.9130050170472708
30
0
10
-20.345449434086046
20
-1.9370070209274632
30
0
10
-20.380850308224741
20
-1.96119461704154
30
0
10
-20.416192403575732
20
-1.9855671258758978
30
0
10
-20.444419083909857
20
-2.005212680773707
30
0
10
-20.465562681557067
20
-2.0200297157054785
30
0
10
-20.479646678292831
20
-2.0299445573227541
30
0
10
-20.486685742903063
20
-2.0349111827136044
30
0
0
ARC
5
154
100
AcDbEntity
8
0
100
AcDbCircle
10
0
20
0
30
0
40
20.587500000000013
100
AcDbArc
50
185.67249581413807
51
188.72750418586187
0
SPLINE
5
155
100
AcDbEntity
8
0
100
AcDbSpline
70
1064
71
5
72
81
73
75
74
0
42
0.000000001
43
0.0000000001
44
0.0000000001
40
-1
40
-1
40
-1
40
-1
40
-1
40
-1
40
-0.9857142857142841
40
-0.97142857142856986
40
-0.95714285714285563
40
-0.94285714285714139
40
-0.92857142857142716
40
-0.91428571428571292
40
-0.89999999999999869
40
-0.88571428571428445
40
-0.87142857142857022
40
-0.85714285714285599
40
-0.84285714285714175
40
-0.82857142857142752
40
-0.81428571428571328
40
-0.79999999999999905
40
-0.78571428571428481
40
-0.77142857142857058
40
-0.75714285714285634
40
-0.74285714285714211
40
-0.72857142857142787
40
-0.71428571428571364
40
-0.6999999999999994
40
-0.68571428571428517
40
-0.67142857142857093
40
-0.6571428571428567
40
-0.64285714285714246
40
-0.62857142857142823
40
-0.61428571428571399
40
-0.59999999999999976
40
-0.58571428571428552
40
-0.57142857142857129
40
-0.55714285714285705
40
-0.54285714285714282
40
-0.52857142857142858
40
-0.51428571428571435
40
-0.50000000000000011
40
-0.48571428571428582
40
-0.47142857142857153
40
-0.45714285714285724
40
-0.44285714285714295
40
-0.42857142857142866
40
-0.41428571428571437
40
-0.40000000000000008
40
-0.38571428571428579
40
-0.3714285714285715
40
-0.35714285714285721
40
-0.34285714285714292
40
-0.32857142857142863
40
-0.31428571428571433
40
-0.30000000000000004
40
-0.28571428571428575
40
-0.27142857142857146
40
-0.25714285714285717
40
-0.24285714285714291
40
-0.22857142857142862
40
-0.21428571428571433
40
-0.20000000000000004
40
-0.18571428571428575
40
-0.17142857142857146
40
-0.15714285714285717
40
-0.14285714285714288
40
-0.12857142857142859
40
-0.1142857142857143
40
-0.10000000000000001
40
-0.085714285714285715
40
-0.071428571428571425
40
-0.057142857142857141
40
-0.042857142857142858
40
-0.028571428571428571
40
-0.014285714285714285
40
-0
40
-0
40
-0
40
-0
40
-0
40
-0
10
-20.349120670329455
20
-3.12385085981566
30
0
10
-20.341067601369851
20
-3.1269109053532067
30
0
10
-20.324960358447136
20
-3.1330117064299094
30
0
10
-20.30079617905507
20
-3.142105038049535
30
0
10
-20.268570640958053
20
-3.1541137017672503
30
0
10
-20.228277686050138
20
-3.1689312817136588
30
0
10
-20.187973784921759
20
-3.1835551406228442
30
0
10
-20.147659127135
20
-3.1979846256118543
30
0
10
-20.107334042214852
20
-3.2122189082866601
30
0
10
-20.06699904299159
20
-3.2262569888920609
30
0
10
-20.026654779937516
20
-3.2400977368010904
30
0
10
-19.986301988163639
20
-3.2537399344340208
30
0
10
-19.945941435984352
20
-3.2671823225744179
30
0
10
-19.905573875840204
20
-3.2804236433698515
30
0
10
-19.865199986702454
20
-3.2934626939541416
30
0
10
-19.824820388435413
20
-3.3062983035473099
30
0
10
-19.784435669448541
20
-3.3189292975927174
30
0
10
-19.744046410468492
20
-3.3313544666294015
30
0
10
-19.70365320825443
20
-3.3435725373679492
30
0
10
-19.663256703785731
20
-3.3555821372716572
30
0
10
-19.622857578170692
20
-3.3673818111929772
30
0
10
-19.582456539386449
20
-3.3789700525376869
30
0
10
-19.542054311726275
20
-3.3903453332293125
30
0
10
-19.501651625168765
20
-3.4015061304701728
30
0
10
-19.461249202221786
20
-3.4124509697434968
30
0
10
-19.420847761136166
20
-3.4231783845236201
30
0
10
-19.380448025194003
20
-3.4336868479715434
30
0
10
-19.340050730396136
20
-3.4439747106184457
30
0
10
-19.299656632935296
20
-3.4540401473573286
30
0
10
-19.259266519009536
20
-3.4638810757488834
30
0
10
-19.218881201615702
20
-3.4734952273753534
30
0
10
-19.178501511804932
20
-3.4828802818275357
30
0
10
-19.138128291036011
20
-3.4920339935568716
30
0
10
-19.097762384549156
20
-3.5009542979052344
30
0
10
-19.05740463049392
20
-3.509639492157937
30
0
10
-19.017055870069971
20
-3.5180880595589112
30
0
10
-18.976716967310793
20
-3.526298332148885
30
0
10
-18.936388827176717
20
-3.5342681797220123
30
0
10
-18.896072411249705
20
-3.5419947473581921
30
0
10
-18.855768762181089
20
-3.5494740269803557
30
0
10
-18.815478985659603
20
-3.5567012324853997
30
0
10
-18.775204212439942
20
-3.5636715519848581
30
0
10
-18.734945563284565
20
-3.5703808452006394
30
0
10
-18.69470411989456
20
-3.5768262286835228
30
0
10
-18.65448087475745
20
-3.5830070579620275
30
0
10
-18.6142767832464
20
-3.5889239867583878
30
0
10
-18.574092862384916
20
-3.5945771507694224
30
0
10
-18.533930282092136
20
-3.5999644888830451
30
0
10
-18.493790443449384
20
-3.6050803180400854
30
0
10
-18.453675103353589
20
-3.6099130119786924
30
0
10
-18.41358626273972
20
-3.6144472432926755
30
0
10
-18.373525957587468
20
-3.6186681059438457
30
0
10
-18.333496064297044
20
-3.6225649513270692
30
0
10
-18.293498135829278
20
-3.6261346517626492
30
0
10
-18.253533129801831
20
-3.6293868955760273
30
0
10
-18.213601731558061
20
-3.6323382848762797
30
0
10
-18.173704883928274
20
-3.6350025504667527
30
0
10
-18.133844283083103
20
-3.6373813893162144
30
0
10
-18.09402281359818
20
-3.6394564835730927
30
0
10
-18.054245204775832
20
-3.6411772593401706
30
0
10
-18.014517282350589
20
-3.6424757360895987
30
0
10
-17.97484485355848
20
-3.6432885622281908
30
0
10
-17.935232640357253
20
-3.643577880305882
30
0
10
-17.895683360611294
20
-3.6433499039975015
30
0
10
-17.856196300013298
20
-3.6426818732030437
30
0
10
-17.816770022296225
20
-3.6416803323393738
30
0
10
-17.77740582053919
20
-3.6404269380380638
30
0
10
-17.738111020257751
20
-3.6389271122556011
30
0
10
-17.6989021078439
20
-3.63706076915431
30
0
10
-17.659808597331132
20
-3.6345230182974437
30
0
10
-17.620866503937307
20
-3.630907874627991
30
0
10
-17.589861968743559
20
-3.6268259801658531
30
0
10
-17.566704539530601
20
-3.6229506884808571
30
0
10
-17.551310423219995
20
-3.6199869961936093
30
0
10
-17.543624407582929
20
-3.6184101080989919
30
0
0
LINE
5
156
100
AcDbEntity
8
0
100
AcDbLine
10
-17.543624407582929
20
-3.6184101080989923
30
0
11
-17.309705745036709
21
-3.5704185905825438
31
0
0
ARC
5
157
100
AcDbEntity
8
0
100
AcDbCircle
10
-17.20921719243254
20
-4.0602165599490156
30
0
40
0.49999999999999845
100
AcDbArc
50
13.27518204414258
51
101.59410329453296
0
ARC
5
158
100
AcDbEntity
8
0
100
AcDbCircle
10
0
20
0
30
0
40
17.181699999999999
100
AcDbArc
50
193.27518204414267
51
195.5248179558574
0
ARC
5
159
100
AcDbEntity
8
0
100
AcDbCircle
10
-17.036576229458401
20
-4.7326087169607503
30
0
40
0.49999999999999817
100
AcDbArc
50
-72.794103294532519
51
15.524817955856951
0
LINE
5
160
100
AcDbEntity
8
0
100
AcDbLine
10
-16.888673048063513
20
-5.2102326788107289
30
0
11
-17.116777624528957
21
-5.2808685665482269
31
0
0
SPLINE
5
161
100
AcDbEntity
8
0
100
AcDbSpline
70
1064
71
5
72
81
73
75
74
0
42
0.000000001
43
0.0000000001
44
0.0000000001
40
0
40
0
40
0
40
0
40
0
40
0
40
0.014285714285714285
40
0.028571428571428571
40
0.042857142857142858
40
0.057142857142857141
40
0.071428571428571425
40
0.085714285714285715
40
0.10000000000000001
40
0.1142857142857143
40
0.12857142857142859
40
0.14285714285714288
40
0.15714285714285717
40
0.17142857142857146
40
0.18571428571428575
40
0.20000000000000004
40
0.21428571428571433
40
0.22857142857142862
40
0.24285714285714291
40
0.25714285714285717
40
0.27142857142857146
40
0.28571428571428575
40
0.30000000000000004
40
0.31428571428571433
40
0.32857142857142863
40
0.34285714285714292
40
0.35714285714285721
40
0.3714285714285715
40
0.38571428571428579
40
0.40000000000000008
40
0.41428571428571437
40
0.42857142857142866
40
0.44285714285714295
40
0.45714285714285724
40
0.47142857142857153
40
0.48571428571428582
40
0.50000000000000011
40
0.51428571428571435
40
0.52857142857142858
40
0.54285714285714282
40
0.55714285714285705
40
0.57142857142857129
40
0.58571428571428552
40
0.59999999999999976
40
0.61428571428571399
40
0.62857142857142823
40
0.64285714285714246
40
0.6571428571428567
40
0.67142857142857093
40
0.68571428571428517
40
0.6999999999999994
40
0.71428571428571364
40
0.72857142857142787
40
0.74285714285714211
40
0.75714285714285634
40
0.77142857142857058
40
0.78571428571428481
40
0.79999999999999905
40
0.81428571428571328
40
0.82857142857142752
40
0.84285714285714175
40
0.85714285714285599
40
0.87142857142857022
40
0.88571428571428445
40
0.89999999999999869
40
0.91428571428571292
40
0.92857142857142716
40
0.94285714285714139
40
0.95714285714285563
40
0.97142857142856986
40
0.9857142857142841
40
1
40
1
40
1
40
1
40
1
40
1
10
-17.116777624528957
20
-5.2808685665482269
30
0
10
-17.124272603007874
20
-5.2831894952495944
30
0
10
-17.139190339612515
20
-5.2880085639928645
30
0
10
-17.161350285531938
20
-5.2957687966082787
30
0
10
-17.190486234488304
20
-5.3071283539672773
30
0
10
-17.226353059809369
20
-5.3227208759901039
30
0
10
-17.261833535017324
20
-5.339330470285006
30
0
10
-17.297091684529018
20
-5.3565840189709952
30
0
10
-17.332248527087845
20
-5.3742001260275973
30
0
10
-17.367347467351884
20
-5.3920656170531656
30
0
10
-17.402379473875456
20
-5.4101817142503483
30
0
10
-17.437304075142418
20
-5.4286193509252501
30
0
10
-17.472071201598894
20
-5.4474725845890166
30
0
10
-17.50664426859154
20
-5.4668094452021476
30
0
10
-17.541017900976957
20
-5.4866340685082458
30
0
10
-17.575206198837691
20
-5.5069110049504424
30
0
10
-17.609234593116792
20
-5.5275819414471368
30
0
10
-17.643130728553235
20
-5.5485844996386513
30
0
10
-17.676914824988593
20
-5.5698720829222435
30
0
10
-17.710593179342279
20
-5.591427249587313
30
0
10
-17.744163487727683
20
-5.6132506695624897
30
0
10
-17.777618309071361
20
-5.6353539210305046
30
0
10
-17.810949044675294
20
-5.6577512223637623
30
0
10
-17.844150187986362
20
-5.6804506021707386
30
0
10
-17.877221884905794
20
-5.7034485715002408
30
0
10
-17.910167621136207
20
-5.726734894945757
30
0
10
-17.942992793573648
20
-5.7502955294057561
30
0
10
-17.975703032819695
20
-5.7741160794140303
30
0
10
-18.008302400288191
20
-5.7981855104081035
30
0
10
-18.040792406036847
20
-5.8224981673091891
30
0
10
-18.073173017806031
20
-5.8470516803381543
30
0
10
-18.105443278998806
20
-5.8718456784522157
30
0
10
-18.1376020374822
20
-5.8968802742580015
30
0
10
-18.169648734009272
20
-5.9221544248663394
30
0
10
-18.201583809790382
20
-5.947665082377938
30
0
10
-18.233408277288092
20
-5.9734080787080215
30
0
10
-18.265123463759455
20
-5.9993786524213526
30
0
10
-18.296730706004801
20
-6.0255720767541989
30
0
10
-18.328231021247646
20
-6.0519843371007385
30
0
10
-18.359624942215561
20
-6.0786124684297818
30
0
10
-18.390912702120243
20
-6.1054541680597438
30
0
10
-18.422094347348885
20
-6.1325075580954689
30
0
10
-18.453169871455412
20
-6.1597709041424515
30
0
10
-18.484139360252829
20
-6.1872423103188119
30
0
10
-18.515003067708122
20
-6.2149195601532607
30
0
10
-18.545761338246606
20
-6.2428002804807337
30
0
10
-18.576414561478281
20
-6.2708820375492103
30
0
10
-18.60696311778716
20
-6.2991624518648326
30
0
10
-18.637407321445433
20
-6.3276393198183296
30
0
10
-18.667747389048358
20
-6.3563106777576177
30
0
10
-18.697983470271147
20
-6.3851747256710434
30
0
10
-18.728115666857168
20
-6.4142297771355832
30
0
10
-18.758144055902545
20
-6.4434742010050252
30
0
10
-18.788068714622678
20
-6.4729063570796521
30
0
10
-18.817889736945826
20
-6.5025245592518157
30
0
10
-18.847607224325422
20
-6.5323271195269514
30
0
10
-18.87722128216366
20
-6.5623123765958873
30
0
10
-18.906732014623476
20
-6.5924787271766814
30
0
10
-18.936139521234956
20
-6.6228246597120863
30
0
10
-18.965443892465917
20
-6.6533487709191617
30
0
10
-18.994645202083966
20
-6.6840497211719878
30
0
10
-19.023743500308946
20
-6.7149261977303185
30
0
10
-19.052738807977178
20
-6.7459768760099257
30
0
10
-19.081631109586805
20
-6.7772003748342424
30
0
10
-19.110420351744189
20
-6.8085952294477856
30
0
10
-19.139106467802428
20
-6.8401599662524966
30
0
10
-19.167689400152355
20
-6.871893164132703
30
0
10
-19.196169123464422
20
-6.9037935189450099
30
0
10
-19.22454566997779
20
-6.935859907539399
30
0
10
-19.252819150009369
20
-6.9680914452387634
30
0
10
-19.280989711973405
20
-7.000487468595189
30
0
10
-19.30344394840877
20
-7.026535512207567
30
0
10
-19.320238434310234
20
-7.0461452416534796
30
0
10
-19.331414235546831
20
-7.0592511378482765
30
0
10
-19.336997005490353
20
-7.0658122717531535
30
0
0
ARC
5
162
100
AcDbEntity
8
0
100
AcDbCircle
10
0
20
0
30
0
40
20.587500000000013
100
AcDbArc
50
200.07249581413811
51
203.12750418586185
0
SPLINE
5
163
100
AcDbEntity
8
0
100
AcDbSpline
70
1064
71
5
72
81
73
75
74
0
42
0.000000001
43
0.0000000001
44
0.0000000001
40
-1
40
-1
40
-1
40
-1
40
-1
40
-1
40
-0.9857142857142841
40
-0.97142857142856986
40
-0.95714285714285563
40
-0.94285714285714139
40
-0.92857142857142716
40
-0.91428571428571292
40
-0.89999999999999869
40
-0.88571428571428445
40
-0.87142857142857022
40
-0.85714285714285599
40
-0.84285714285714175
40
-0.82857142857142752
40
-0.81428571428571328
40
-0.79999999999999905
40
-0.78571428571428481
40
-0.77142857142857058
40
-0.75714285714285634
40
-0.74285714285714211
40
-0.72857142857142787
40
-0.71428571428571364
40
-0.6999999999999994
40
-0.68571428571428517
40
-0.67142857142857093
40
-0.6571428571428567
40
-0.64285714285714246
40
-0.62857142857142823
40
-0.61428571428571399
40
-0.59999999999999976
40
-0.58571428571428552
40
-0.57142857142857129
40
-0.55714285714285705
40
-0.54285714285714282
40
-0.52857142857142858
40
-0.51428571428571435
40
-0.50000000000000011
40
-0.48571428571428582
40
-0.47142857142857153
40
-0.45714285714285724
40
-0.44285714285714295
40
-0.42857142857142866
40
-0.41428571428571437
40
-0.40000000000000008
40
-0.38571428571428579
40
-0.3714285714285715
40
-0.35714285714285721
40
-0.34285714285714292
40
-0.32857142857142863
40
-0.31428571428571433
40
-0.30000000000000004
40
-0.28571428571428575
40
-0.27142857142857146
40
-0.25714285714285717
40
-0.24285714285714291
40
-0.22857142857142862
40
-0.21428571428571433
40
-0.20000000000000004
40
-0.18571428571428575
40
-0.17142857142857146
40
-0.15714285714285717
40
-0.14285714285714288
40
-0.12857142857142859
40
-0.1142857142857143
40
-0.10000000000000001
40
-0.085714285714285715
40
-0.071428571428571425
40
-0.057142857142857141
40
-0.042857142857142858
40
-0.028571428571428571
40
-0.014285714285714285
40
-0
40
-0
40
-0
40
-0
40
-0
40
-0
10
-18.932945507208277
20
-8.0863298641028969
30
0
10
-18.924384437839141
20
-8.0872910558719564
30
0
10
-18.907266026040613
20
-8.0891944806392608
30
0
10
-18.88159958916453
20
-8.0919927414781441
30
0
10
-18.847400042380492
20
-8.0956099655096043
30
0
10
-18.804687982459637
20
-8.0999415735247862
30
0
10
-18.762013496676857
20
-8.104082824391023
30
0
10
-18.719376931004177
20
-8.1080331328790578
30
0
10
-18.676778810627177
20
-8.1117917785699163
30
0
10
-18.634219880893614
20
-8.1153579206532456
30
0
10
-18.59170105301552
20
-8.1187306257886913
30
0
10
-18.549223341808798
20
-8.1219088974637028
30
0
10
-18.50678780460423
20
-8.12489170709447
30
0
10
-18.46439548301823
20
-8.1276780234706596
30
0
10
-18.422047333831586
20
-8.1302668503696331
30
0
10
-18.379744248595575
20
-8.1326572079476058
30
0
10
-18.337487089334047
20
-8.1348481048802732
30
0
10
-18.295276719309769
20
-8.136838514124964
30
0
10
-18.253114033187824
20
-8.1386273508029561
30
0
10
-18.210999993146039
20
-8.140213444903404
30
0
10
-18.168935620774914
20
-8.1415955563796398
30
0
10
-18.126921976483935
20
-8.1427724020366252
30
0
10
-18.084960141828539
20
-8.143742681929627
30
0
10
-18.043051202558075
20
-8.1445051026407516
30
0
10
-18.001196225178916
20
-8.1450584156582817
30
0
10
-17.959396270086813
20
-8.1454013791518705
30
0
10
-17.917652417550048
20
-8.1455326941239186
30
0
10
-17.87596579065286
20
-8.1454509459626649
30
0
10
-17.834337575716447
20
-8.1451545549576903
30
0
10
-17.792769052120597
20
-8.1446416996128512
30
0
10
-17.751261571452918
20
-8.1439103849609964
30
0
10
-17.709816515717861
20
-8.142958570166865
30
0
10
-17.668435258383447
20
-8.1417842894922199
30
0
10
-17.627119131594714
20
-8.1403857533466635
30
0
10
-17.585869370617136
20
-8.1387615209487389
30
0
10
-17.544687167424431
20
-8.1369103323919099
30
0
10
-17.503573773709491
20
-8.1348307869952983
30
0
10
-17.46253059576231
20
-8.1325210465318811
30
0
10
-17.42155927494473
20
-8.1299785849098249
30
0
10
-17.380661817919524
20
-8.1271997792700184
30
0
10
-17.33984048589361
20
-8.124180268847196
30
0
10
-17.29909757076495
20
-8.1209156741344692
30
0
10
-17.258435187730473
20
-8.1174022636504901
30
0
10
-17.217855101592313
20
-8.1136375135430168
30
0
10
-17.177358433930706
20
-8.1096210464094352
30
0
10
-17.136945947529895
20
-8.105353733025737
30
0
10
-17.096618593715309
20
-8.100835957749041
30
0
10
-17.056378018228649
20
-8.0960660151679402
30
0
10
-17.016226991453042
20
-8.091038749201779
30
0
10
-16.976170106423009
20
-8.0857433357715998
30
0
10
-16.936213112981392
20
-8.0801654266221519
30
0
10
-16.896361690124792
20
-8.0742910903434115
30
0
10
-16.856620303503259
20
-8.0681104795175056
30
0
10
-16.816991235110816
20
-8.0616209509322054
30
0
10
-16.777473003091245
20
-8.0548321266862182
30
0
10
-16.738062142479951
20
-8.0477602577408014
30
0
10
-16.698756151774546
20
-8.040418877993222
30
0
10
-16.659556251838392
20
-8.0328100529193414
30
0
10
-16.620469792087299
20
-8.024916757521364
30
0
10
-16.581513930460659
20
-8.0166911829037151
30
0
10
-16.542711215736642
20
-8.0080689330731012
30
0
10
-16.504083027606839
20
-7.9989900909439999
30
0
10
-16.465643354445
20
-7.9894191627308997
30
0
10
-16.427393283450705
20
-7.9793628427999934
30
0
10
-16.389312913975914
20
-7.9688957667767779
30
0
10
-16.351374358357557
20
-7.9581207746042555
30
0
10
-16.313558561871787
20
-7.9471172790964602
30
0
10
-16.275871271503885
20
-7.9358923536507842
30
0
10
-16.238358319828926
20
-7.9243337851459277
30
0
10
-16.201124116811101
20
-7.9121536016805294
30
0
10
-16.164304510561987
20
-7.8989675295851622
30
0
10
-16.135289165727908
20
-7.8873033609847001
30
0
10
-16.11382301558908
20
-7.8777908002561512
30
0
10
-16.09964957405068
20
-7.8710918567636696
30
0
10
-16.092597184850771
20
-7.86765307514671
30
0
0
LINE
5
164
100
AcDbEntity
8
0
100
AcDbLine
10
-16.092597184850771
20
-7.8676530751467091
30
0
11
-15.877962512310802
21
-7.7629960936088951
31
0
0
ARC
5
165
100
AcDbEntity
8
0
100
AcDbCircle
10
-15.658823190636896
20
-8.21241567228377
30
0
40
0.50000000000000056
100
AcDbArc
50
27.67518204414306
51
115.99410329453235
0
ARC
5
166
100
AcDbEntity
8
0
100
AcDbCircle
10
0
20
0
30
0
40
17.181699999999999
100
AcDbArc
50
207.67518204414267
51
209.92481795585732
0
ARC
5
167
100
AcDbEntity
8
0
100
AcDbCircle
10
-15.324388931321337
20
-8.8207493316382166
30
0
40
0.4999999999999985
100
AcDbArc
50
-58.394103294532691
51
29.924817955858199
0
LINE
5
168
100
AcDbEntity
8
0
100
AcDbLine
10
-15.062352151165195
20
-9.2465858329452324
30
0
11
-15.265723971954777
21
-9.3717298657621235
31
0
0
SPLINE
5
169
100
AcDbEntity
8
0
100
AcDbSpline
70
1064
71
5
72
81
73
75
74
0
42
0.000000001
43
0.0000000001
44
0.0000000001
40
0
40
0
40
0
40
0
40
0
40
0
40
0.014285714285714285
40
0.028571428571428571
40
0.042857142857142858
40
0.057142857142857141
40
0.071428571428571425
40
0.085714285714285715
40
0.10000000000000001
40
0.1142857142857143
40
0.12857142857142859
40
0.14285714285714288
40
0.15714285714285717
40
0.17142857142857146
40
0.18571428571428575
40
0.20000000000000004
40
0.21428571428571433
40
0.22857142857142862
40
0.24285714285714291
40
0.25714285714285717
40
0.27142857142857146
40
0.28571428571428575
40
0.30000000000000004
40
0.31428571428571433
40
0.32857142857142863
40
0.34285714285714292
40
0.35714285714285721
40
0.3714285714285715
40
0.38571428571428579
40
0.40000000000000008
40
0.41428571428571437
40
0.42857142857142866
40
0.44285714285714295
40
0.45714285714285724
40
0.47142857142857153
40
0.48571428571428582
40
0.50000000000000011
40
0.51428571428571435
40
0.52857142857142858
40
0.54285714285714282
40
0.55714285714285705
40
0.57142857142857129
40
0.58571428571428552
40
0.59999999999999976
40
0.61428571428571399
40
0.62857142857142823
40
0.64285714285714246
40
0.6571428571428567
40
0.67142857142857093
40
0.68571428571428517
40
0.6999999999999994
40
0.71428571428571364
40
0.72857142857142787
40
0.74285714285714211
40
0.75714285714285634
40
0.77142857142857058
40
0.78571428571428481
40
0.79999999999999905
40
0.81428571428571328
40
0.82857142857142752
40
0.84285714285714175
40
0.85714285714285599
40
0.87142857142857022
40
0.88571428571428445
40
0.89999999999999869
40
0.91428571428571292
40
0.92857142857142716
40
0.94285714285714139
40
0.95714285714285563
40
0.97142857142856986
40
0.9857142857142841
40
1
40
1
40
1
40
1
40
1
40
1
10
-15.265723971954777
20
-9.3717298657621235
30
0
10
-15.272406290405611
20
-9.3758418035726674
30
0
10
-15.285656905221018
20
-9.3842193626426855
30
0
10
-15.30519076431659
20
-9.397246747730696
30
0
10
-15.330586346821377
20
-9.4154952395648976
30
0
10
-15.361448647328031
20
-9.4395176105777931
30
0
10
-15.391683800032244
20
-9.4644290193010345
30
0
10
-15.421543466865915
20
-9.4899088612517009
30
0
10
-15.451214844890655
20
-9.5157146771203927
30
0
10
-15.480768120456572
20
-9.5417476423869214
30
0
10
-15.510194241908016
20
-9.5680066948269893
30
0
10
-15.539436368820056
20
-9.5945504743896635
30
0
10
-15.568422613514096
20
-9.62145763180472
30
0
10
-15.597100622347744
20
-9.6487849615130337
30
0
10
-15.625464160530003
20
-9.6765351325824138
30
0
10
-15.653535701109702
20
-9.7046773157169444
30
0
10
-15.68135437794373
20
-9.7331613542660751
30
0
10
-15.708962480127987
20
-9.7619337045680137
30
0
10
-15.736391180364409
20
-9.7909542624080999
30
0
10
-15.763650915320152
20
-9.8202077000193242
30
0
10
-15.790739286884975
20
-9.8496940933299708
30
0
10
-15.817646208383472
20
-9.8794228062531619
30
0
10
-15.844359815296107
20
-9.9094054720557452
30
0
10
-15.870872777434517
20
-9.9396484976886192
30
0
10
-15.897186103783055
20
-9.9701485400965701
30
0
10
-15.923305715976664
20
-10.000896552296199
30
0
10
-15.949240333735325
20
-10.031880274529295
30
0
10
-15.974998990771773
20
-10.063087163863365
30
0
10
-16.000588365087161
20
-10.094507542439558
30
0
10
-16.026011325658875
20
-10.126136308379865
30
0
10
-16.05126843058088
20
-10.157971158333483
30
0
10
-16.076358845584071
20
-10.190011495018629
30
0
10
-16.101281426727731
20
-10.222257140980371
30
0
10
-16.126035891690677
20
-10.25470694701476
30
0
10
-16.150623425803566
20
-10.287358070702419
30
0
10
-16.175046046281125
20
-10.320206726695822
30
0
10
-16.19930622280296
20
-10.353248633224378
30
0
10
-16.223406425669719
20
-10.386479544473058
30
0
10
-16.247348638538835
20
-10.419895824935463
30
0
10
-16.271134114774529
20
-10.453494735216267
30
0
10
-16.29476365291535
20
-10.48727410297426
30
0
10
-16.318237764904687
20
-10.521232120847833
30
0
10
-16.341556875825354
20
-10.555367107328603
30
0
10
-16.364721540281039
20
-10.589677247438134
30
0
10
-16.387732555473875
20
-10.624160457498677
30
0
10
-16.410590845190573
20
-10.658814524557608
30
0
10
-16.433297392050338
20
-10.69363718821576
30
0
10
-16.455853156242782
20
-10.728626238333119
30
0
10
-16.478258990181995
20
-10.76377961868716
30
0
10
-16.500515591998905
20
-10.799095481182592
30
0
10
-16.52262355431111
20
-10.83457211958115
30
0
10
-16.544583395061856
20
-10.870207925744433
30
0
10
-16.56639559457474
20
-10.906001338944723
30
0
10
-16.588060635540359
20
-10.941950789714872
30
0
10
-16.609579028253986
20
-10.978054668278416
30
0
10
-16.630951290768866
20
-11.014311364902689
30
0
10
-16.652177938326592
20
-11.05071929668406
30
0
10
-16.673259470537626
20
-11.0872769366149
30
0
10
-16.694196359714141
20
-11.123982845378448
30
0
10
-16.714989042464016
20
-11.160835686276906
30
0
10
-16.735637923388737
20
-11.19783418011642
30
0
10
-16.756143377595613
20
-11.234977067888064
30
0
10
-16.776505754677054
20
-11.272263071803632
30
0
10
-16.796725383102881
20
-11.309690850223618
30
0
10
-16.816802575426777
20
-11.34725897113206
30
0
10
-16.836737633564617
20
-11.38496599065228
30
0
10
-16.856530855134228
20
-11.422810517988754
30
0
10
-16.876182539929104
20
-11.460791283670948
30
0
10
-16.895692998491615
20
-11.498907207852218
30
0
10
-16.915062557683104
20
-11.537157461083918
30
0
10
-16.9342915262479
20
-11.575541437670688
30
0
10
-16.949562436528367
20
-11.606355275619464
30
0
10
-16.9609525513691
20
-11.62952554815889
30
0
10
-16.968517940413111
20
-11.644999007273178
30
0
10
-16.972293629722387
20
-11.652742389518673
30
0
0
ARC
5
170
100
AcDbEntity
8
0
100
AcDbCircle
10
0
20
0
30
0
40
20.587500000000013
100
AcDbArc
50
214.47249581413811
51
217.52750418586189
0
SPLINE
5
171
100
AcDbEntity
8
0
100
AcDbSpline
70
1064
71
5
72
81
73
75
74
0
42
0.000000001
43
0.0000000001
44
0.0000000001
40
-1
40
-1
40
-1
40
-1
40
-1
40
-1
40
-0.9857142857142841
40
-0.97142857142856986
40
-0.95714285714285563
40
-0.94285714285714139
40
-0.92857142857142716
40
-0.91428571428571292
40
-0.89999999999999869
40
-0.88571428571428445
40
-0.87142857142857022
40
-0.85714285714285599
40
-0.84285714285714175
40
-0.82857142857142752
40
-0.81428571428571328
40
-0.79999999999999905
40
-0.78571428571428481
40
-0.77142857142857058
40
-0.75714285714285634
40
-0.74285714285714211
40
-0.72857142857142787
40
-0.71428571428571364
40
-0.6999999999999994
40
-0.68571428571428517
40
-0.67142857142857093
40
-0.6571428571428567
40
-0.64285714285714246
40
-0.62857142857142823
40
-0.61428571428571399
40
-0.59999999999999976
40
-0.58571428571428552
40
-0.57142857142857129
40
-0.55714285714285705
40
-0.54285714285714282
40
-0.52857142857142858
40
-0.51428571428571435
40
-0.50000000000000011
40
-0.48571428571428582
40
-0.47142857142857153
40
-0.45714285714285724
40
-0.44285714285714295
40
-0.42857142857142866
40
-0.41428571428571437
40
-0.40000000000000008
40
-0.38571428571428579
40
-0.3714285714285715
40
-0.35714285714285721
40
-0.34285714285714292
40
-0.32857142857142863
40
-0.31428571428571433
40
-0.30000000000000004
40
-0.28571428571428575
40
-0.27142857142857146
40
-0.25714285714285717
40
-0.24285714285714291
40
-0.22857142857142862
40
-0.21428571428571433
40
-0.20000000000000004
40
-0.18571428571428575
40
-0.17142857142857146
40
-0.15714285714285717
40
-0.14285714285714288
40
-0.12857142857142859
40
-0.1142857142857143
40
-0.10000000000000001
40
-0.085714285714285715
40
-0.071428571428571425
40
-0.057142857142857141
40
-0.042857142857142858
40
-0.028571428571428571
40
-0.014285714285714285
40
-0
40
-0
40
-0
40
-0
40
-0
40
-0
10
-16.327143747366364
20
-12.540715023587605
30
0
10
-16.318612601061574
20
-12.539516966374311
30
0
10
-16.301558633157647
20
-12.537103415653782
30
0
10
-16.276002655421024
20
-12.533430780692132
30
0
10
-16.241977983251537
20
-12.528429281548224
30
0
10
-16.199530574126545
20
-12.522002746770042
30
0
10
-16.157166898576875
20
-12.515401179570951
30
0
10
-16.114887437245805
20
-12.508624099147488
30
0
10
-16.072692877980156
20
-12.501670938322311
30
0
10
-16.030584151812256
20
-12.494541068061121
30
0
10
-15.988562373439034
20
-12.487233810955377
30
0
10
-15.946628773616677
20
-12.479748454174267
30
0
10
-15.904784632256375
20
-12.472084264396294
30
0
10
-15.863031214701827
20
-12.464240501847971
30
0
10
-15.821369695425284
20
-12.456216439546528
30
0
10
-15.779801181645546
20
-12.44801135015156
30
0
10
-15.738326754836724
20
-12.439624487859653
30
0
10
-15.696947506555727
20
-12.431055072579289
30
0
10
-15.655664573158454
20
-12.422302276009368
30
0
10
-15.614479177564009
20
-12.413365204180982
30
0
10
-15.573392617654818
20
-12.404242910065031
30
0
10
-15.532406239643283
20
-12.394934414493527
30
0
10
-15.491521414388894
20
-12.385438727333788
30
0
10
-15.450739515190142
20
-12.37575486581791
30
0
10
-15.410061885539365
20
-12.365881885887811
30
0
10
-15.369489861348702
20
-12.355818848437233
30
0
10
-15.329024811995374
20
-12.345564763930767
30
0
10
-15.288668177079503
20
-12.335118541498979
30
0
10
-15.248421498509835
20
-12.324478946087041
30
0
10
-15.208286468459754
20
-12.313644531593269
30
0
10
-15.168264892182425
20
-12.302613701852255
30
0
10
-15.128358615799161
20
-12.291384823835854
30
0
10
-15.088569458487196
20
-12.27995633513072
30
0
10
-15.04889915559281
20
-12.268326833660723
30
0
10
-15.009349261881113
20
-12.256495231107245
30
0
10
-14.969921245203802
20
-12.244460603577831
30
0
10
-14.930616666264694
20
-12.232221905679936
30
0
10
-14.891437344321076
20
-12.219777706667925
30
0
10
-14.852385497381883
20
-12.207125968001867
30
0
10
-14.813463970035299
20
-12.194263679678173
30
0
10
-14.774676036926502
20
-12.181187180272328
30
0
10
-14.736025007088337
20
-12.167892797839562
30
0
10
-14.697513857246609
20
-12.154377444157946
30
0
10
-14.659144924415468
20
-12.140639113555151
30
0
10
-14.620919388794864
20
-12.126677719411019
30
0
10
-14.582837772651587
20
-12.112494294841241
30
0
10
-14.5449009018377
20
-12.098089448712663
30
0
10
-14.507110794509474
20
-12.083461938471835
30
0
10
-14.469471416278466
20
-12.068607458992116
30
0
10
-14.431989907719556
20
-12.053516668494137
30
0
10
-14.394675406299669
20
-12.038177099427234
30
0
10
-14.357536877200076
20
-12.022576670371269
30
0
10
-14.320581094727462
20
-12.006706953845125
30
0
10
-14.28381092652296
20
-11.990565957186776
30
0
10
-14.247222544366945
20
-11.974162631676348
30
0
10
-14.210808550703335
20
-11.957511856019618
30
0
10
-14.174563156875665
20
-11.94062611682323
30
0
10
-14.138487031728658
20
-11.923507718288702
30
0
10
-14.102591527727499
20
-11.906141998015231
30
0
10
-14.066905153352208
20
-11.888486916117634
30
0
10
-14.031465763601929
20
-11.87048570737425
30
0
10
-13.99630896725917
20
-11.852085654018074
30
0
10
-13.961457140172698
20
-11.833255856133221
30
0
10
-13.926909670564562
20
-11.814003068145603
30
0
10
-13.892628721876886
20
-11.794394631775384
30
0
10
-13.858561707334987
20
-11.77452322067986
30
0
10
-13.824670421690454
20
-11.754461014056359
30
0
10
-13.790958672294057
20
-11.73421629229561
30
0
10
-13.757498758074725
20
-11.71369176575579
30
0
10
-13.72446342446527
20
-11.692634475404571
30
0
10
-13.692079816634532
20
-11.670706004288023
30
0
10
-13.666876802987026
20
-11.652192464160212
30
0
10
-13.64845072908253
20
-11.637640343563438
30
0
10
-13.636388531774466
20
-11.627627068122345
30
0
10
-13.630412896562012
20
-11.622542464278993
30
0
0
LINE
5
172
100
AcDbEntity
8
0
100
AcDbLine
10
-13.630412896562012
20
-11.622542464278993
30
0
11
-13.448548499875097
21
-11.467796001771289
31
0
0
ARC
5
173
100
AcDbEntity
8
0
100
AcDbCircle
10
-13.124527738650272
20
-11.848598504776822
30
0
40
0.4999999999999965
100
AcDbArc
50
42.075182044142181
51
130.39410329453278
0
ARC
5
174
100
AcDbEntity
8
0
100
AcDbCircle
10
0
20
0
30
0
40
17.181700000000003
100
AcDbArc
50
222.07518204414265
51
224.32481795585733
0
ARC
5
175
100
AcDbEntity
8
0
100
AcDbCircle
10
-12.649313917469255
20
-12.354649825362056
30
0
40
0.50000000000000222
100
AcDbArc
50
-43.994103294532266
51
44.324817955857561
0
LINE
5
176
100
AcDbEntity
8
0
100
AcDbLine
10
-12.289608273152927
20
-12.701941992631889
30
0
11
-12.455468738817199
21
-12.873730910698731
31
0
0
SPLINE
5
177
100
AcDbEntity
8
0
100
AcDbSpline
70
1064
71
5
72
81
73
75
74
0
42
0.000000001
43
0.0000000001
44
0.0000000001
40
0
40
0
40
0
40
0
40
0
40
0
40
0.014285714285714285
40
0.028571428571428571
40
0.042857142857142858
40
0.057142857142857141
40
0.071428571428571425
40
0.085714285714285715
40
0.10000000000000001
40
0.1142857142857143
40
0.12857142857142859
40
0.14285714285714288
40
0.15714285714285717
40
0.17142857142857146
40
0.18571428571428575
40
0.20000000000000004
40
0.21428571428571433
40
0.22857142857142862
40
0.24285714285714291
40
0.25714285714285717
40
0.27142857142857146
40
0.28571428571428575
40
0.30000000000000004
40
0.31428571428571433
40
0.32857142857142863
40
0.34285714285714292
40
0.35714285714285721
40
0.3714285714285715
40
0.38571428571428579
40
0.40000000000000008
40
0.41428571428571437
40
0.42857142857142866
40
0.44285714285714295
40
0.45714285714285724
40
0.47142857142857153
40
0.48571428571428582
40
0.50000000000000011
40
0.51428571428571435
40
0.52857142857142858
40
0.54285714285714282
40
0.55714285714285705
40
0.57142857142857129
40
0.58571428571428552
40
0.59999999999999976
40
0.61428571428571399
40
0.62857142857142823
40
0.64285714285714246
40
0.6571428571428567
40
0.67142857142857093
40
0.68571428571428517
40
0.6999999999999994
40
0.71428571428571364
40
0.72857142857142787
40
0.74285714285714211
40
0.75714285714285634
40
0.77142857142857058
40
0.78571428571428481
40
0.79999999999999905
40
0.81428571428571328
40
0.82857142857142752
40
0.84285714285714175
40
0.85714285714285599
40
0.87142857142857022
40
0.88571428571428445
40
0.89999999999999869
40
0.91428571428571292
40
0.92857142857142716
40
0.94285714285714139
40
0.95714285714285563
40
0.97142857142856986
40
0.9857142857142841
40
1
40
1
40
1
40
1
40
1
40
1
10
-12.455468738817199
20
-12.873730910698729
30
0
10
-12.460918522595845
20
-12.87937548944317
30
0
10
-12.47166943076081
20
-12.890785145993055
30
0
10
-12.48734981882505
20
-12.908261125037214
30
0
10
-12.507409337031064
20
-12.932251931491416
30
0
10
-12.531327920878873
20
-12.963194737575538
30
0
10
-12.554417965237823
20
-12.994842685299286
30
0
10
-12.577002956710139
20
-13.026947828336571
30
0
10
-12.599324508395801
20
-13.059321878699169
30
0
10
-12.621475178270444
20
-13.091886571256413
30
0
10
-12.643446463217263
20
-13.124638626100513
30
0
10
-12.665168725395482
20
-13.157620705259848
30
0
10
-12.686552775969005
20
-13.190891110768202
30
0
10
-12.707533781878297
20
-13.22449183294324
30
0
10
-12.728105040439612
20
-13.25842390646962
30
0
10
-12.748295985603749
20
-13.292663059430435
30
0
10
-12.768156995217286
20
-13.327170443132989
30
0
10
-12.787742345553614
20
-13.361904712958578
30
0
10
-12.807092203479549
20
-13.396834776975924
30
0
10
-12.826220489635794
20
-13.43194838446157
30
0
10
-12.845124862370552
20
-13.467245012572615
30
0
10
-12.863793223189379
20
-13.502731222583456
30
0
10
-12.882211187242623
20
-13.538415331694456
30
0
10
-12.900370061289363
20
-13.574301722626645
30
0
10
-12.918271653998886
20
-13.610387408277248
30
0
10
-12.935923950860355
20
-13.646665098541202
30
0
10
-12.953338446525606
20
-13.68312508732933
30
0
10
-12.970527010197141
20
-13.719757472361431
30
0
10
-12.987498516860054
20
-13.75655454057773
30
0
10
-13.004257014142993
20
-13.793512063870768
30
0
10
-13.020803615426429
20
-13.830627950046059
30
0
10
-13.037137661189298
20
-13.867901413112246
30
0
10
-13.053258087561124
20
-13.90533199670298
30
0
10
-13.069164906885771
20
-13.94291851750824
30
0
10
-13.084859974135501
20
-13.980658517188234
30
0
10
-13.100346184528179
20
-14.018548830979984
30
0
10
-13.115626994986943
20
-14.056585925816947
30
0
10
-13.130705854094648
20
-14.09476630361296
30
0
10
-13.145585587302167
20
-14.133086936393294
30
0
10
-13.16026808985689
20
-14.171545482524772
30
0
10
-13.174754675449101
20
-14.210140036502732
30
0
10
-13.189046289411102
20
-14.248868975062303
30
0
10
-13.203143761645075
20
-14.287730775236581
30
0
10
-13.217048080697593
20
-14.326723816992327
30
0
10
-13.23076053691481
20
-14.365846280370487
30
0
10
-13.244282575399918
20
-14.405096251678817
30
0
10
-13.257615710039738
20
-14.444471785900209
30
0
10
-13.270761420497234
20
-14.4839709811197
30
0
10
-13.283721043768089
20
-14.523592057701556
30
0
10
-13.296495715652778
20
-14.563333399229883
30
0
10
-13.309086434474917
20
-14.603193500449043
30
0
10
-13.321494101833384
20
-14.643170932550504
30
0
10
-13.333719571098715
20
-14.683264303291299
30
0
10
-13.345763700107511
20
-14.723472212552251
30
0
10
-13.357627383458299
20
-14.763793228036256
30
0
10
-13.369311523252971
20
-14.804225919417959
30
0
10
-13.380817012197983
20
-14.844768881658933
30
0
10
-13.392144713958967
20
-14.885420759973375
30
0
10
-13.403295443953066
20
-14.926180277722562
30
0
10
-13.414269957494545
20
-14.967046248783479
30
0
10
-13.425068964596159
20
-15.008017534770804
30
0
10
-13.435693141683327
20
-15.049093009515079
30
0
10
-13.446143145138372
20
-15.090271522312268
30
0
10
-13.456419626763804
20
-15.131551855360055
30
0
10
-13.466523245421758
20
-15.17293269936083
30
0
10
-13.476454652620385
20
-15.214412730883391
30
0
10
-13.48621448250408
20
-15.255990676841147
30
0
10
-13.495803341152266
20
-15.297665382201927
30
0
10
-13.505221797897988
20
-15.339435878273209
30
0
10
-13.514470375609131
20
-15.381301442952102
30
0
10
-13.523549523960561
20
-15.423261566353879
30
0
10
-13.53067758063073
20
-15.456905051875365
30
0
10
-13.535947641605379
20
-15.48217999407035
30
0
10
-13.539427257239611
20
-15.499048761760577
30
0
10
-13.54115862546932
20
-15.507487847162038
30
0
0
ARC
5
178
100
AcDbEntity
8
0
100
AcDbCircle
10
0
20
0
30
0
40
20.587500000000013
100
AcDbArc
50
228.87249581413812
51
231.92750418586186
0
SPLINE
5
179
100
AcDbEntity
8
0
100
AcDbSpline
70
1064
71
5
72
81
73
75
74
0
42
0.000000001
43
0.0000000001
44
0.0000000001
40
-1
40
-1
40
-1
40
-1
40
-1
40
-1
40
-0.9857142857142841
40
-0.97142857142856986
40
-0.95714285714285563
40
-0.94285714285714139
40
-0.92857142857142716
40
-0.91428571428571292
40
-0.89999999999999869
40
-0.88571428571428445
40
-0.87142857142857022
40
-0.85714285714285599
40
-0.84285714285714175
40
-0.82857142857142752
40
-0.81428571428571328
40
-0.79999999999999905
40
-0.78571428571428481
40
-0.77142857142857058
40
-0.75714285714285634
40
-0.74285714285714211
40
-0.72857142857142787
40
-0.71428571428571364
40
-0.6999999999999994
40
-0.68571428571428517
40
-0.67142857142857093
40
-0.6571428571428567
40
-0.64285714285714246
40
-0.62857142857142823
40
-0.61428571428571399
40
-0.59999999999999976
40
-0.58571428571428552
40
-0.57142857142857129
40
-0.55714285714285705
40
-0.54285714285714282
40
-0.52857142857142858
40
-0.51428571428571435
40
-0.50000000000000011
40
-0.48571428571428582
40
-0.47142857142857153
40
-0.45714285714285724
40
-0.44285714285714295
40
-0.42857142857142866
40
-0.41428571428571437
40
-0.40000000000000008
40
-0.38571428571428579
40
-0.3714285714285715
40
-0.35714285714285721
40
-0.34285714285714292
40
-0.32857142857142863
40
-0.31428571428571433
40
-0.30000000000000004
40
-0.28571428571428575
40
-0.27142857142857146
40
-0.25714285714285717
40
-0.24285714285714291
40
-0.22857142857142862
40
-0.21428571428571433
40
-0.20000000000000004
40
-0.18571428571428575
40
-0.17142857142857146
40
-0.15714285714285717
40
-0.14285714285714288
40
-0.12857142857142859
40
-0.1142857142857143
40
-0.10000000000000001
40
-0.085714285714285715
40
-0.071428571428571425
40
-0.057142857142857141
40
-0.042857142857142858
40
-0.028571428571428571
40
-0.014285714285714285
40
-0
40
-0
40
-0
40
-0
40
-0
40
-0
10
-12.69544749884308
20
-16.207120936616704
30
0
10
-12.687482318900328
20
-16.203838908761913
30
0
10
-12.671564358414511
20
-16.197260034821738
30
0
10
-12.647724615886847
20
-16.187347269221203
30
0
10
-12.616012713618316
20
-16.174041309487365
30
0
10
-12.576497082115157
20
-16.157260434731072
30
0
10
-12.537106082336082
20
-16.140330850212639
30
0
10
-12.497840299395037
20
-16.123252209765045
30
0
10
-12.458700540580141
20
-16.106024135090415
30
0
10
-12.419687864108091
20
-16.088646248455042
30
0
10
-12.380803518120221
20
-16.071118170946278
30
0
10
-12.342048871980062
20
-16.053439518204815
30
0
10
-12.303425347757679
20
-16.035609898248776
30
0
10
-12.264934355017862
20
-16.017628909224189
30
0
10
-12.226577212127918
20
-15.999496139067166
30
0
10
-12.188355172403533
20
-15.98121115864215
30
0
10
-12.150269468816086
20
-15.962773514528191
30
0
10
-12.112321352630095
20
-15.944182722600946
30
0
10
-12.07451213049085
20
-15.925438263182134
30
0
10
-12.036843209218237
20
-15.906539574516136
30
0
10
-11.999316081435872
20
-15.887486062096755
30
0
10
-11.9619322945716
20
-15.868277112307771
30
0
10
-11.924693422652819
20
-15.848912107042237
30
0
10
-11.887601040237763
20
-15.829390435933146
30
0
10
-11.850656683388197
20
-15.809711518694707
30
0
10
-11.813861879592336
20
-15.789874777952244
30
0
10
-11.777218201293355
20
-15.769879595808693
30
0
10
-11.740727314151886
20
-15.749725273680276
30
0
10
-11.704391018780424
20
-15.729410998770801
30
0
10
-11.668211313820475
20
-15.708935791236936
30
0
10
-11.632190344760055
20
-15.688298554007945
30
0
10
-11.596330305838773
20
-15.667498164471967
30
0
10
-11.560633347637445
20
-15.646533561712726
30
0
10
-11.525101499665427
20
-15.625403819265966
30
0
10
-11.489736538495857
20
-15.604108269658957
30
0
10
-11.454540115627875
20
-15.582646383064898
30
0
10
-11.419514002711475
20
-15.561017535065428
30
0
10
-11.384660317660609
20
-15.539220792295303
30
0
10
-11.349981715765631
20
-15.517254731855473
30
0
10
-11.315481700804224
20
-15.495117145727457
30
0
10
-11.281164355101811
20
-15.472805301888265
30
0
10
-11.247033796907413
20
-15.450316466677023
30
0
10
-11.213093677437087
20
-15.427648389175586
30
0
10
-11.179346759073812
20
-15.404799707915286
30
0
10
-11.145794206480939
20
-15.381770632501098
30
0
10
-11.112436268591868
20
-15.358562293473945
30
0
10
-11.079273593893967
20
-15.33517548595306
30
0
10
-11.046308446149897
20
-15.311609508317154
30
0
10
-11.013545737025696
20
-15.287861176900543
30
0
10
-10.980994705968008
20
-15.263923219201796
30
0
10
-10.948667303927202
20
-15.239785831756901
30
0
10
-10.916575218953902
20
-15.215439542255664
30
0
10
-10.88472710835682
20
-15.190877872683352
30
0
10
-10.853126245239766
20
-15.166099606134434
30
0
10
-10.821766695560823
20
-15.141112460628596
30
0
10
-10.790637593988087
20
-15.115929007732332
30
0
10
-10.759730228433577
20
-15.090559902182255
30
0
10
-10.729044673697413
20
-15.065007542124064
30
0
10
-10.698595571977009
20
-15.03926054904654
30
0
10
-10.668420991000371
20
-15.013285293595464
30
0
10
-10.638571713418797
20
-14.987036208088472
30
0
10
-10.609095339674946
20
-14.960471086528253
30
0
10
-10.580021227135745
20
-14.933565564423908
30
0
10
-10.55134710348595
20
-14.906326031855638
30
0
10
-10.523019573667941
20
-14.87880830531034
30
0
10
-10.494964656015888
20
-14.851089069132883
30
0
10
-10.467127395333071
20
-14.823228733619466
30
0
10
-10.439509420105894
20
-14.795236265866752
30
0
10
-10.412204952809541
20
-14.767035412778391
30
0
10
-10.3854442201146
20
-14.738424122537415
30
0
10
-10.359531391880825
20
-14.709131098887216
30
0
10
-10.339724307457566
20
-14.684931461046329
30
0
10
-10.325496087777177
20
-14.666254143837378
30
0
10
-10.31630304691797
20
-14.65355570736989
30
0
10
-10.311779636830224
20
-14.647144765659485
30
0
0
LINE
5
180
100
AcDbEntity
8
0
100
AcDbLine
10
-10.31177963683022
20
-14.647144765659485
30
0
11
-10.17411272489066
21
-14.452032111538923
31
0
0
ARC
5
181
100
AcDbEntity
8
0
100
AcDbCircle
10
-9.765569940207671
20
-14.740290317117653
30
0
40
0.50000000000000222
100
AcDbArc
50
56.475182044142734
51
144.79410329453231
0
ARC
5
182
100
AcDbEntity
8
0
100
AcDbCircle
10
0
20
0
30
0
40
17.181699999999999
100
AcDbArc
50
236.47518204414266
51
238.72481795585739
0
ARC
5
183
100
AcDbEntity
8
0
100
AcDbCircle
10
-9.1794359892601722
20
-15.112262233334729
30
0
40
0.50000000000000167
100
AcDbArc
50
-29.594103294532346
51
58.724817955856196
0
LINE
5
184
100
AcDbEntity
8
0
100
AcDbLine
10
-8.7446631093208804
20
-15.359188422446568
30
0
11
-8.8625905968100298
21
-15.566828096245775
31
0
0
SPLINE
5
185
100
AcDbEntity
8
0
100
AcDbSpline
70
1064
71
5
72
81
73
75
74
0
42
0.000000001
43
0.0000000001
44
0.0000000001
40
0
40
0
40
0
40
0
40
0
40
0
40
0.014285714285714285
40
0.028571428571428571
40
0.042857142857142858
40
0.057142857142857141
40
0.071428571428571425
40
0.085714285714285715
40
0.10000000000000001
40
0.1142857142857143
40
0.12857142857142859
40
0.14285714285714288
40
0.15714285714285717
40
0.17142857142857146
40
0.18571428571428575
40
0.20000000000000004
40
0.21428571428571433
40
0.22857142857142862
40
0.24285714285714291
40
0.25714285714285717
40
0.27142857142857146
40
0.28571428571428575
40
0.30000000000000004
40
0.31428571428571433
40
0.32857142857142863
40
0.34285714285714292
40
0.35714285714285721
40
0.3714285714285715
40
0.38571428571428579
40
0.40000000000000008
40
0.41428571428571437
40
0.42857142857142866
40
0.44285714285714295
40
0.45714285714285724
40
0.47142857142857153
40
0.48571428571428582
40
0.50000000000000011
40
0.51428571428571435
40
0.52857142857142858
40
0.54285714285714282
40
0.55714285714285705
40
0.57142857142857129
40
0.58571428571428552
40
0.59999999999999976
40
0.61428571428571399
40
0.62857142857142823
40
0.64285714285714246
40
0.6571428571428567
40
0.67142857142857093
40
0.68571428571428517
40
0.6999999999999994
40
0.71428571428571364
40
0.72857142857142787
40
0.74285714285714211
40
0.75714285714285634
40
0.77142857142857058
40
0.78571428571428481
40
0.79999999999999905
40
0.81428571428571328
40
0.82857142857142752
40
0.84285714285714175
40
0.85714285714285599
40
0.87142857142857022
40
0.88571428571428445
40
0.89999999999999869
40
0.91428571428571292
40
0.92857142857142716
40
0.94285714285714139
40
0.95714285714285563
40
0.97142857142856986
40
0.9857142857142841
40
1
40
1
40
1
40
1
40
1
40
1
10
-8.8625905968100316
20
-15.566828096245775
30
0
10
-8.866465415958773
20
-15.573650646282289
30
0
10
-8.8740410983742137
20
-15.587375489629236
30
0
10
-8.8848827589566142
20
-15.608201982594041
30
0
10
-8.8983457995612234
20
-15.636427673066713
30
0
10
-8.913817774160627
20
-15.672346663916114
30
0
10
-8.9283118777680031
20
-15.708742593691875
30
0
10
-8.9422030958029701
20
-15.745455753604283
30
0
10
-8.9557722759642218
20
-15.782363857813078
30
0
10
-8.9691285320948992
20
-15.819414118263108
30
0
10
-8.9822644438991475
20
-15.856601243451756
30
0
10
-8.9951019517219972
20
-15.893949236874567
30
0
10
-9.0075401696324349
20
-15.931492388538135
30
0
10
-9.0195058588533463
20
-15.969255246230825
30
0
10
-9.030992269962514
20
-16.00723714524111
30
0
10
-9.0420339483693226
20
-16.045421896124882
30
0
10
-9.0526893504846644
20
-16.083784399153551
30
0
10
-9.0630213293815594
20
-16.122298106585944
30
0
10
-9.0730765222597149
20
-16.160942892394544
30
0
10
-9.0828714590483486
20
-16.199710352657473
30
0
10
-9.0924040016886991
20
-16.238599398612781
30
0
10
-9.1016608000601824
20
-16.277613376627148
30
0
10
-9.1106258528360371
20
-16.316756765234143
30
0
10
-9.1192896499510834
20
-16.356031647542466
30
0
10
-9.1276546861141945
20
-16.395435580092421
30
0
10
-9.1357305089111147
20
-16.434963487721408
30
0
10
-9.1435306656742732
20
-16.474608827878555
30
0
10
-9.1510691153102961
20
-16.514364961132625
30
0
10
-9.1583563721402665
20
-16.554226623862853
30
0
10
-9.1653974081167036
20
-16.594190727399852
30
0
10
-9.1721938219487917
20
-16.634255522165748
30
0
10
-9.1787451703036389
20
-16.674420082846321
30
0
10
-9.1850505362279087
20
-16.714683702838983
30
0
10
-9.1911102259548976
20
-16.755045239079365
30
0
10
-9.1969266475437479
20
-16.795502771773787
30
0
10
-9.2025033922982793
20
-16.836053955597521
30
0
10
-9.207844687173953
20
-16.876696228183633
30
0
10
-9.2129547423487068
20
-16.91742705897245
30
0
10
-9.2178370475333669
20
-16.958244217779701
30
0
10
-9.222494020773139
20
-16.999145907867767
30
0
10
-9.2269274083660466
20
-17.040130610298419
30
0
10
-9.2311385296345971
20
-17.081196987899222
30
0
10
-9.2351285671545398
20
-17.122343771938347
30
0
10
-9.2388988813013153
20
-17.163569639120428
30
0
10
-9.2424511744878988
20
-17.204873147559795
30
0
10
-9.2457873223328164
20
-17.246252803068923
30
0
10
-9.2489092748674331
20
-17.287707098225344
30
0
10
-9.2518189382553988
20
-17.329234558843453
30
0
10
-9.2545180500656308
20
-17.370833793695347
30
0
10
-9.2570081124016195
20
-17.412503519609924
30
0
10
-9.2592904665646785
20
-17.454242526894884
30
0
10
-9.2613663411585208
20
-17.496049655848879
30
0
10
-9.2632369089802289
20
-17.53792377019343
30
0
10
-9.2649033491113695
20
-17.579863727131976
30
0
10
-9.2663668842428137
20
-17.621868361843255
30
0
10
-9.267628743842721
20
-17.66393651328184
30
0
10
-9.2686901419903744
20
-17.706067042558232
30
0
10
-9.2695522521392917
20
-17.748258852234628
30
0
10
-9.270216181575929
20
-17.790510908566254
30
0
10
-9.2706829568617604
20
-17.832822250533347
30
0
10
-9.2709535488081052
20
-17.875191952088045
30
0
10
-9.2710288926561901
20
-17.917619090661741
30
0
10
-9.2709099103353303
20
-17.960102714937531
30
0
10
-9.2705975360255941
20
-18.002641807469274
30
0
10
-9.2700927334988119
20
-18.045235263945724
30
0
10
-9.2693964629187739
20
-18.087881964537175
30
0
10
-9.2685096551108188
20
-18.130580833858694
30
0
10
-9.2674331843580937
20
-18.173330903891404
30
0
10
-9.2661678430110328
20
-18.216131377963393
30
0
10
-9.2647143170903483
20
-18.258981686689932
30
0
10
-9.2630731689467201
20
-18.301881448034845
30
0
10
-9.2616104899908454
20
-18.336240637201637
30
0
10
-9.2604293597864427
20
-18.362032131479339
30
0
10
-9.2596045649634657
20
-18.379236281032533
30
0
10
-9.2591828238802147
20
-18.387840810817405
30
0
0
ARC
5
186
100
AcDbEntity
8
0
100
AcDbCircle
10
0
20
0
30
0
40
20.587500000000013
100
AcDbArc
50
243.27249581413815
51
246.32750418586187
0
SPLINE
5
187
100
AcDbEntity
8
0
100
AcDbSpline
70
1064
71
5
72
81
73
75
74
0
42
0.000000001
43
0.0000000001
44
0.0000000001
40
-1
40
-1
40
-1
40
-1
40
-1
40
-1
40
-0.9857142857142841
40
-0.97142857142856986
40
-0.95714285714285563
40
-0.94285714285714139
40
-0.92857142857142716
40
-0.91428571428571292
40
-0.89999999999999869
40
-0.88571428571428445
40
-0.87142857142857022
40
-0.85714285714285599
40
-0.84285714285714175
40
-0.82857142857142752
40
-0.81428571428571328
40
-0.79999999999999905
40
-0.78571428571428481
40
-0.77142857142857058
40
-0.75714285714285634
40
-0.74285714285714211
40
-0.72857142857142787
40
-0.71428571428571364
40
-0.6999999999999994
40
-0.68571428571428517
40
-0.67142857142857093
40
-0.6571428571428567
40
-0.64285714285714246
40
-0.62857142857142823
40
-0.61428571428571399
40
-0.59999999999999976
40
-0.58571428571428552
40
-0.57142857142857129
40
-0.55714285714285705
40
-0.54285714285714282
40
-0.52857142857142858
40
-0.51428571428571435
40
-0.50000000000000011
40
-0.48571428571428582
40
-0.47142857142857153
40
-0.45714285714285724
40
-0.44285714285714295
40
-0.42857142857142866
40
-0.41428571428571437
40
-0.40000000000000008
40
-0.38571428571428579
40
-0.3714285714285715
40
-0.35714285714285721
40
-0.34285714285714292
40
-0.32857142857142863
40
-0.31428571428571433
40
-0.30000000000000004
40
-0.28571428571428575
40
-0.27142857142857146
40
-0.25714285714285717
40
-0.24285714285714291
40
-0.22857142857142862
40
-0.21428571428571433
40
-0.20000000000000004
40
-0.18571428571428575
40
-0.17142857142857146
40
-0.15714285714285717
40
-0.14285714285714288
40
-0.12857142857142859
40
-0.1142857142857143
40
-0.10000000000000001
40
-0.085714285714285715
40
-0.071428571428571425
40
-0.057142857142857141
40
-0.042857142857142858
40
-0.028571428571428571
40
-0.014285714285714285
40
-0
40
-0
40
-0
40
-0
40
-0
40
-0
10
-8.2660495933776303
20
-18.855173835576856
30
0
10
-8.2591508613466029
20
-18.85001405896114
30
0
10
-8.2453690922783842
20
-18.839683236646383
30
0
10
-8.2247435236591375
20
-18.824153195926247
30
0
10
-8.1973369667393072
20
-18.803378837988451
30
0
10
-8.1632360253136547
20
-18.77729802733073
30
0
10
-8.1292927826912589
20
-18.751104173550903
30
0
10
-8.0955078916918701
20
-18.724797086869344
30
0
10
-8.0618822283200267
20
-18.698376601637495
30
0
10
-8.0284169114851558
20
-18.671842615156635
30
0
10
-7.9951132443476762
20
-18.645195070818488
30
0
10
-7.9619726488363218
20
-18.618433936885957
30
0
10
-7.9289965998261378
20
-18.591559187346441
30
0
10
-7.8961865625348633
20
-18.56457078351546
30
0
10
-7.8635439163869947
20
-18.537468654139484
30
0
10
-7.8310699820446743
20
-18.510252695251978
30
0
10
-7.7987660665044238
20
-18.482922774304559
30
0
10
-7.7666335021168118
20
-18.455478733559371
30
0
10
-7.734673683715199
20
-18.427920394614251
30
0
10
-7.7028881136245744
20
-18.400247563224045
30
0
10
-7.671278385422724
20
-18.372460034760461
30
0
10
-7.6398461505223461
20
-18.344557599714815
30
0
10
-7.6085930872168213
20
-18.31654005084382
30
0
10
-7.5775208723888454
20
-18.28840718853299
30
0
10
-7.5466311381531792
20
-18.260158832730298
30
0
10
-7.515925507596438
20
-18.231794804071228
30
0
10
-7.4854056574253525
20
-18.203314895121807
30
0
10
-7.4550733747014792
20
-18.174718843478502
30
0
10
-7.4249306056019577
20
-18.146006309674728
30
0
10
-7.3949795296544254
20
-18.117176841692665
30
0
10
-7.36522249777284
20
-18.088229910489243
30
0
10
-7.3356619144429533
20
-18.059164974406716
30
0
10
-7.3063001265202896
20
-18.02998154068715
30
0
10
-7.2771393301557152
20
-18.000679216691314
30
0
10
-7.2481814121017827
20
-17.971257797732132
30
0
10
-7.2194281037353134
20
-17.941717181339431
30
0
10
-7.1908812763331929
20
-17.912057203303533
30
0
10
-7.1625432133897053
20
-17.882277486286355
30
0
10
-7.1344168406349855
20
-17.852377312435706
30
0
10
-7.10650610088096
20
-17.822355414456137
30
0
10
-7.0788156276257812
20
-17.792210161389232
30
0
10
-7.0513500895699206
20
-17.761939929623988
30
0
10
-7.0241135830003456
20
-17.731543446979501
30
0
10
-6.9971091220981831
20
-17.701020081736857
30
0
10
-6.9703377828101099
20
-17.670370326555897
30
0
10
-6.9437995250947262
20
-17.639595338366746
30
0
10
-6.9174947793278685
20
-17.608696048580757
30
0
10
-6.8914259126380486
20
-17.577672340594237
30
0
10
-6.8655984741277409
20
-17.546522352243894
30
0
10
-6.8400232215669483
20
-17.515241337264239
30
0
10
-6.8147141684673143
20
-17.483822772265615
30
0
10
-6.7896849913456103
20
-17.452260389227863
30
0
10
-6.7649456865420348
20
-17.420550066640114
30
0
10
-6.7404997269619145
20
-17.388691439815979
30
0
10
-6.7163394455987335
20
-17.356690508563162
30
0
10
-6.6924511920535146
20
-17.324556747391092
30
0
10
-6.6688238782192899
20
-17.292298309690082
30
0
10
-6.6454569801516161
20
-17.259917536865693
30
0
10
-6.6223675097570247
20
-17.22740704924999
30
0
10
-6.5996007020761462
20
-17.194743741075737
30
0
10
-6.5772170765516957
20
-17.161896105384923
30
0
10
-6.5552732343755968
20
-17.128835099907974
30
0
10
-6.5338036698016113
20
-17.095544426489539
30
0
10
-6.512804592755125
20
-17.062029709351879
30
0
10
-6.4922104046866158
20
-17.028331732593461
30
0
10
-6.4719303775792536
20
-16.994506372887322
30
0
10
-6.4518962593251352
20
-16.960598475827446
30
0
10
-6.4321073972225129
20
-16.926617131780759
30
0
10
-6.4126740169481753
20
-16.892511915458883
30
0
10
-6.3938693604220598
20
-16.858144377918954
30
0
10
-6.376055510083896
20
-16.823327390143248
30
0
10
-6.3628889068445504
20
-16.794962206834867
30
0
10
-6.3537525527585235
20
-16.773333257544351
30
0
10
-6.3480063009149994
20
-16.758747549515306
30
0
10
-6.3452193384437088
20
-16.751413092983306
30
0
0
LINE
5
188
100
AcDbEntity
8
0
100
AcDbLine
10
-6.3452193384437088
20
-16.751413092983306
30
0
11
-6.2604000296321498
21
-16.528193892882431
31
0
0
ARC
5
189
100
AcDbEntity
8
0
100
AcDbCircle
10
-5.7930054671678874
20
-16.705795477838311
30
0
40
0.50000000000000122
100
AcDbArc
50
70.875182044143116
51
159.19410329453282
0
ARC
5
190
100
AcDbEntity
8
0
100
AcDbCircle
10
0
20
0
30
0
40
17.181699999999999
100
AcDbArc
50
250.87518204414263
51
253.12481795585734
0
ARC
5
191
100
AcDbEntity
8
0
100
AcDbCircle
10
-5.1327803382418367
20
-16.920315626174293
30
0
40
0.49999999999999956
100
AcDbArc
50
-15.194103294532887
51
73.124817955857367
0
LINE
5
192
100
AcDbEntity
8
0
100
AcDbLine
10
-4.6502586017089707
20
-17.051360556535247
30
0
11
-4.7128432932770981
21
-17.281804221716715
31
0
0
SPLINE
5
193
100
AcDbEntity
8
0
100
AcDbSpline
70
1064
71
5
72
81
73
75
74
0
42
0.000000001
43
0.0000000001
44
0.0000000001
40
0
40
0
40
0
40
0
40
0
40
0
40
0.014285714285714285
40
0.028571428571428571
40
0.042857142857142858
40
0.057142857142857141
40
0.071428571428571425
40
0.085714285714285715
40
0.10000000000000001
40
0.1142857142857143
40
0.12857142857142859
40
0.14285714285714288
40
0.15714285714285717
40
0.17142857142857146
40
0.18571428571428575
40
0.20000000000000004
40
0.21428571428571433
40
0.22857142857142862
40
0.24285714285714291
40
0.25714285714285717
40
0.27142857142857146
40
0.28571428571428575
40
0.30000000000000004
40
0.31428571428571433
40
0.32857142857142863
40
0.34285714285714292
40
0.35714285714285721
40
0.3714285714285715
40
0.38571428571428579
40
0.40000000000000008
40
0.41428571428571437
40
0.42857142857142866
40
0.44285714285714295
40
0.45714285714285724
40
0.47142857142857153
40
0.48571428571428582
40
0.50000000000000011
40
0.51428571428571435
40
0.52857142857142858
40
0.54285714285714282
40
0.55714285714285705
40
0.57142857142857129
40
0.58571428571428552
40
0.59999999999999976
40
0.61428571428571399
40
0.62857142857142823
40
0.64285714285714246
40
0.6571428571428567
40
0.67142857142857093
40
0.68571428571428517
40
0.6999999999999994
40
0.71428571428571364
40
0.72857142857142787
40
0.74285714285714211
40
0.75714285714285634
40
0.77142857142857058
40
0.78571428571428481
40
0.79999999999999905
40
0.81428571428571328
40
0.82857142857142752
40
0.84285714285714175
40
0.85714285714285599
40
0.87142857142857022
40
0.88571428571428445
40
0.89999999999999869
40
0.91428571428571292
40
0.92857142857142716
40
0.94285714285714139
40
0.95714285714285563
40
0.97142857142856986
40
0.9857142857142841
40
1
40
1
40
1
40
1
40
1
40
1
10
-4.7128432932770981
20
-17.281804221716712
30
0
10
-4.7148996786582291
20
-17.28937605713492
30
0
10
-4.7188241273365765
20
-17.304553704894992
30
0
10
-4.7241458390299034
20
-17.327422106632987
30
0
10
-4.7301664696783199
20
-17.358109157184899
30
0
10
-4.7362196739632996
20
-17.396747410503707
30
0
10
-4.7412071189838647
20
-17.435604432208805
30
0
10
-4.7455317272640176
20
-17.47461878613748
30
0
10
-4.7494959344073724
20
-17.513741872266525
30
0
10
-4.7532185541005205
20
-17.552949696483935
30
0
10
-4.7566937151130375
20
-17.592235288176848
30
0
10
-4.7598398407509537
20
-17.631602484080069
30
0
10
-4.7625506870224248
20
-17.671059407605778
30
0
10
-4.7647492112944825
20
-17.710611621585208
30
0
10
-4.7664290414974486
20
-17.750256803676933
30
0
10
-4.767627663884177
20
-17.789987864151943
30
0
10
-4.7684079403985908
20
-17.82979502935402
30
0
10
-4.7688373516235982
20
-17.869668216511727
30
0
10
-4.7689660747050304
20
-17.909599530093651
30
0
10
-4.7688122102243637
20
-17.949584941028796
30
0
10
-4.768373958057972
20
-17.989622863047089
30
0
10
-4.7676375552963108
20
-18.029713217342959
30
0
10
-4.7665863895577072
20
-18.069856362380463
30
0
10
-4.765210731505106
20
-18.110051950766575
30
0
10
-4.7635136051352278
20
-18.150298236216244
30
0
10
-4.761505520220469
20
-18.19059267740046
30
0
10
-4.7592012255451346
20
-18.230932306399183
30
0
10
-4.7566158926305384
20
-18.271314163810043
30
0
10
-4.7537610144802827
20
-18.311735766183915
30
0
10
-4.7506421749646988
20
-18.352195358361961
30
0
10
-4.7472613576689078
20
-18.39269164331531
30
0
10
-4.7436183633044218
20
-18.433223614547785
30
0
10
-4.7397124794506009
20
-18.473790359618999
30
0
10
-4.7355442869884037
20
-18.514390847533178
30
0
10
-4.7311165957566477
20
-18.555023817670438
30
0
10
-4.7264334674902733
20
-18.595687891509691
30
0
10
-4.721499633581911
20
-18.636381638386545
30
0
10
-4.7163198012636114
20
-18.677103654272187
30
0
10
-4.7108979052348001
20
-18.717852646903481
30
0
10
-4.7052367344038171
20
-18.758627477334013
30
0
10
-4.6993383579501007
20
-18.79942710863245
30
0
10
-4.6932043862884756
20
-18.840250573738249
30
0
10
-4.6868362803626757
20
-18.881096937873757
30
0
10
-4.680235686899624
20
-18.921965257628987
30
0
10
-4.6734046134102423
20
-18.962854559790639
30
0
10
-4.6663452481763779
20
-19.003763863561204
30
0
10
-4.659059854846304
20
-19.044692193829732
30
0
10
-4.651550646313078
20
-19.085638596768508
30
0
10
-4.6438196515410084
20
-19.126602156973426
30
0
10
-4.6358686445539252
20
-19.167582005144496
30
0
10
-4.6276992253519245
20
-19.208577303162215
30
0
10
-4.619312872345879
20
-19.249587233300701
30
0
10
-4.6107110040682588
20
-19.290610986642523
30
0
10
-4.6018950467595667
20
-19.331647749519838
30
0
10
-4.5928664743768541
20
-19.372696697777243
30
0
10
-4.5836267665025376
20
-19.413757012601984
30
0
10
-4.5741773823036649
20
-19.454827892814109
30
0
10
-4.5645197312892405
20
-19.495908567279869
30
0
10
-4.5546551430401525
20
-19.536998310102422
30
0
10
-4.5445848508624476
20
-19.578096445749669
30
0
10
-4.5343100253663673
20
-19.6192023186982
30
0
10
-4.5238318018442962
20
-19.660315267948636
30
0
10
-4.5131513098443428
20
-19.701434601345927
30
0
10
-4.5022697072261453
20
-19.742559565730026
30
0
10
-4.4911882021139213
20
-19.783689331163956
30
0
10
-4.4799080029964653
20
-19.824823051782545
30
0
10
-4.4684302788928871
20
-19.865959917472903
30
0
10
-4.4567561173556269
20
-19.907099208053619
30
0
10
-4.4448864839662168
20
-19.948240348931247
30
0
10
-4.4328221847929958
20
-19.989382959215732
30
0
10
-4.4205638595278964
20
-20.030526808724186
30
0
10
-4.4106023504441332
20
-20.063442787316689
30
0
10
-4.4030442438153115
20
-20.08813025923715
30
0
10
-4.3979668634272411
20
-20.104588790664458
30
0
10
-4.3954185125743406
20
-20.112818110581102
30
0
0
ARC
5
194
100
AcDbEntity
8
0
100
AcDbCircle
10
0
20
0
30
0
40
20.587500000000013
100
AcDbArc
50
257.67249581413813
51
260.72750418586185
0
SPLINE
5
195
100
AcDbEntity
8
0
100
AcDbSpline
70
1064
71
5
72
81
73
75
74
0
42
0.000000001
43
0.0000000001
44
0.0000000001
40
-1
40
-1
40
-1
40
-1
40
-1
40
-1
40
-0.9857142857142841
40
-0.97142857142856986
40
-0.95714285714285563
40
-0.94285714285714139
40
-0.92857142857142716
40
-0.91428571428571292
40
-0.89999999999999869
40
-0.88571428571428445
40
-0.87142857142857022
40
-0.85714285714285599
40
-0.84285714285714175
40
-0.82857142857142752
40
-0.81428571428571328
40
-0.79999999999999905
40
-0.78571428571428481
40
-0.77142857142857058
40
-0.75714285714285634
40
-0.74285714285714211
40
-0.72857142857142787
40
-0.71428571428571364
40
-0.6999999999999994
40
-0.68571428571428517
40
-0.67142857142857093
40
-0.6571428571428567
40
-0.64285714285714246
40
-0.62857142857142823
40
-0.61428571428571399
40
-0.59999999999999976
40
-0.58571428571428552
40
-0.57142857142857129
40
-0.55714285714285705
40
-0.54285714285714282
40
-0.52857142857142858
40
-0.51428571428571435
40
-0.50000000000000011
40
-0.48571428571428582
40
-0.47142857142857153
40
-0.45714285714285724
40
-0.44285714285714295
40
-0.42857142857142866
40
-0.41428571428571437
40
-0.40000000000000008
40
-0.38571428571428579
40
-0.3714285714285715
40
-0.35714285714285721
40
-0.34285714285714292
40
-0.32857142857142863
40
-0.31428571428571433
40
-0.30000000000000004
40
-0.28571428571428575
40
-0.27142857142857146
40
-0.25714285714285717
40
-0.24285714285714291
40
-0.22857142857142862
40
-0.21428571428571433
40
-0.20000000000000004
40
-0.18571428571428575
40
-0.17142857142857146
40
-0.15714285714285717
40
-0.14285714285714288
40
-0.12857142857142859
40
-0.1142857142857143
40
-0.10000000000000001
40
-0.085714285714285715
40
-0.071428571428571425
40
-0.057142857142857141
40
-0.042857142857142858
40
-0.028571428571428571
40
-0.014285714285714285
40
-0
40
-0
40
-0
40
-0
40
-0
40
-0
10
-3.3172653915564219
20
-20.318486817969056
30
0
10
-3.3118665801423863
20
-20.311773500333516
30
0
10
-3.3010869617281244
20
-20.298339853204329
30
0
10
-3.2849715473491736
20
-20.278168346938529
30
0
10
-3.2635923905435877
20
-20.251230920108746
30
0
10
-3.2370488267597013
20
-20.217488926801739
30
0
10
-3.2106861200624639
20
-20.183676659927755
30
0
10
-3.1845049499583631
20
-20.149794098019132
30
0
10
-3.1585062061257654
20
-20.115841298484931
30
0
10
-3.1326909978616317
20
-20.081818440114354
30
0
10
-3.1070606014631093
20
-20.047725792160399
30
0
10
-3.0816164020791224
20
-20.013563677502347
30
0
10
-3.0563598347178726
20
-19.979332437731337
30
0
10
-3.0312923281850273
20
-19.945032399763068
30
0
10
-3.0064152362879608
20
-19.910663837631489
30
0
10
-2.9817298640532099
20
-19.876226979071696
30
0
10
-2.9572375103790387
20
-19.841722020736363
30
0
10
-2.9329395049855855
20
-19.807149141185366
30
0
10
-2.9088372432517655
20
-19.772508514502345
30
0
10
-2.8849322286110759
20
-19.737800326157732
30
0
10
-2.8612260554651101
20
-19.703024774258694
30
0
10
-2.8377203754470903
20
-19.668182066568278
30
0
10
-2.8144168656630351
20
-19.63327241972873
30
0
10
-2.7913171999553912
20
-19.598296057420576
30
0
10
-2.7684230039401516
20
-19.5632532111389
30
0
10
-2.7457358943178196
20
-19.52814411079947
30
0
10
-2.7232575467050339
20
-19.492968972465249
30
0
10
-2.7009897572766315
20
-19.457727986400727
30
0
10
-2.6789344954889245
20
-19.422421307798857
30
0
10
-2.6570939848079411
20
-19.387049040869279
30
0
10
-2.6354706338570173
20
-19.3516112578383
30
0
10
-2.614066906285367
20
-19.316108032036652
30
0
10
-2.5928851977616469
20
-19.280539469826518
30
0
10
-2.5719277330860124
20
-19.244905737064673
30
0
10
-2.5511963906388182
20
-19.209207104710941
30
0
10
-2.5306928728857994
20
-19.173443904090334
30
0
10
-2.510419033151519
20
-19.137616441519771
30
0
10
-2.4903771770302559
20
-19.101724919397874
30
0
10
-2.4705703168575348
20
-19.065769370024586
30
0
10
-2.4510025867381562
20
-19.029749546456337
30
0
10
-2.4316788802032714
20
-18.9936650212784
30
0
10
-2.4126041230531809
20
-18.95751538294709
30
0
10
-2.3937825992609869
20
-18.921300417954544
30
0
10
-2.3752173854138809
20
-18.885020264024838
30
0
10
-2.3569094011361753
20
-18.848675665917042
30
0
10
-2.3388583199276214
20
-18.812267734256306
30
0
10
-2.3210643270104252
20
-18.775797478222106
30
0
10
-2.303529744143562
20
-18.739265373554982
30
0
10
-2.2862604091954268
20
-18.702670996600602
30
0
10
-2.269267922309123
20
-18.66601242555474
30
0
10
-2.2525674790370958
20
-18.629286826990651
30
0
10
-2.236173885016421
20
-18.592491531020961
30
0
10
-2.2200978475119562
20
-18.555625031608372
30
0
10
-2.2043428210151426
20
-18.518687839200222
30
0
10
-2.1888998873010701
20
-18.481683858402224
30
0
10
-2.1737534686084627
20
-18.44461887134851
30
0
10
-2.1588907975179108
20
-18.407498017775545
30
0
10
-2.1443107842617599
20
-18.370323435229672
30
0
10
-2.1300317415350047
20
-18.333092206577891
30
0
10
-2.1161032294069377
20
-18.295793201460292
30
0
10
-2.1025917014525262
20
-18.258410953341269
30
0
10
-2.0895592031519121
20
-18.220931408511575
30
0
10
-2.0770431982448585
20
-18.183347359224463
30
0
10
-2.0650386170417145
20
-18.145663310453685
30
0
10
-2.0534717792991759
20
-18.107902451294365
30
0
10
-2.042240911424384
20
-18.070096339810849
30
0
10
-2.0312687529292033
20
-18.032271439081303
30
0
10
-2.0205524109353883
20
-17.994436391561742
30
0
10
-2.0102111884366742
20
-17.956569768178067
30
0
10
-2.0005441738076093
20
-17.918605422117789
30
0
10
-1.9919486110965576
20
-17.880452149606448
30
0
10
-1.9862497951460389
20
-17.849703709617685
30
0
10
-1.9827793773827582
20
-17.826482154675233
30
0
10
-1.9808409726914791
20
-17.81092564876257
30
0
10
-1.9799655729384482
20
-17.803128528287125
30
0
0
LINE
5
196
100
AcDbEntity
8
0
100
AcDbLine
10
-1.9799655729384482
20
-17.803128528287125
30
0
11
-1.9533233763711169
21
-17.565828465491073
31
0
0
ARC
5
197
100
AcDbEntity
8
0
100
AcDbCircle
10
-1.4564451554421347
20
-17.621614069068393
30
0
40
0.50000000000003697
100
AcDbArc
50
165.57915264847549
51
173.59410329453308
0
LINE
5
198
100
AcDbEntity
8
0
100
AcDbLine
10
-1.9406914604296557
20
-17.497092921844438
30
0
11
-1.0584297514035788
21
-14.06609359239361
31
0
0
ARC
5
199
100
AcDbEntity
8
0
100
AcDbCircle
10
1.1102230246251565e-15
20
-9.9499999999999957
30
0
40
4.2500000000000009
100
AcDbArc
50
88.07248693585295
51
255.57915264847489
0
LINE
5
200
100
AcDbEntity
8
0
100
AcDbLine
10
0.14294919243112356
20
-5.7024047358083507
30
0
11
1.9222323708522282
21
-2.6205958697303542
31
0
0
ARC
5
201
100
AcDbEntity
8
0
100
AcDbCircle
10
0
20
0
30
0
40
3.2500000000000009
100
AcDbArc
50
53.739593298953082
51
306.26040670104692
0
ENDSEC
0
SECTION
2
OBJECTS
0
DICTIONARY
5
C
100
AcDbDictionary
3
ACAD_GROUP
350
D
3
ACAD_MLINESTYLE
350
17
0
DICTIONARY
5
D
100
AcDbDictionary
0
DICTIONARY
5
1A
330
C
100
AcDbDictionary
0
DICTIONARY
5
17
100
AcDbDictionary
0
ENDSEC
0
EOF
