0
SECTION
2
HEADER
9
$INSUNITS
70
4
9
$ACADVER
1
AC1014
9
$HANDSEED
5
FFFF
0
ENDSEC
0
SECTION
2
TABLES
0
TABLE
2
VPORT
5
8
100
AcDbSymbolTable
0
ENDTAB
0
TABLE
2
LTYPE
5
5
100
AcDbSymbolTable
0
LTYPE
5
14
100
AcDbSymbolTableRecord
100
AcDbLinetypeTableRecord
2
BYBLOCK
70
0
0
LTYPE
5
15
100
AcDbSymbolTableRecord
100
AcDbLinetypeTableRecord
2
BYLAYER
70
0
0
ENDTAB
0
TABLE
2
LAYER
5
2
100
AcDbSymbolTable
70
2
0
LAYER
5
50
100
AcDbSymbolTableRecord
100
AcDbLayerTableRecord
2
0
70
0
6
CONTINUOUS
0
ENDTAB
0
TABLE
2
STYLE
5
3
100
AcDbSymbolTable
70
1
0
STYLE
5
11
100
AcDbSymbolTableRecord
100
AcDbTextStyleTableRecord
2
STANDARD
70
0
0
ENDTAB
0
TABLE
2
VIEW
5
6
100
AcDbSymbolTable
70
0
0
ENDTAB
0
TABLE
2
UCS
5
7
100
AcDbSymbolTable
70
0
0
ENDTAB
0
TABLE
2
APPID
5
9
100
AcDbSymbolTable
70
2
0
APPID
5
12
100
AcDbSymbolTableRecord
100
AcDbRegAppTableRecord
2
ACAD
70
0
0
ENDTAB
0
TABLE
2
DIMSTYLE
5
A
100
AcDbSymbolTable
70
1
0
ENDTAB
0
TABLE
2
BLOCK_RECORD
5
1
100
AcDbSymbolTable
70
1
0
BLOCK_RECORD
5
1F
100
AcDbSymbolTableRecord
100
AcDbBlockTableRecord
2
*MODEL_SPACE
0
BLOCK_RECORD
5
1B
100
AcDbSymbolTableRecord
100
AcDbBlockTableRecord
2
*PAPER_SPACE
0
ENDTAB
0
ENDSEC
0
SECTION
2
BLOCKS
0
BLOCK
5
20
100
AcDbEntity
100
AcDbBlockBegin
2
*MODEL_SPACE
0
ENDBLK
5
21
100
AcDbEntity
100
AcDbBlockEnd
0
BLOCK
5
1C
100
AcDbEntity
100
AcDbBlockBegin
2
*PAPER_SPACE
0
ENDBLK
5
1D
100
AcDbEntity
100
AcDbBlockEnd
0
ENDSEC
0
SECTION
2
ENTITIES
0
LINE
5
100
100
AcDbEntity
8
0
100
AcDbLine
10
-1.0443617209760205
20
14.069685497190292
30
0
11
-3.0957462100279765
21
23.799503259587105
31
0
0
ARC
5
101
100
AcDbEntity
8
0
100
AcDbCircle
10
-4.1269916103405861e-13
20
2.8703857137746221e-12
30
0
40
23.999999999997101
100
AcDbArc
50
97.411198990099308
51
99.867318033593406
0
SPLINE
5
102
100
AcDbEntity
8
0
100
AcDbSpline
70
1064
71
5
72
81
73
75
74
0
42
0.000000001
43
0.0000000001
44
0.0000000001
40
-1
40
-1
40
-1
40
-1
40
-1
40
-1
40
-0.9857142857142841
40
-0.97142857142856986
40
-0.95714285714285563
40
-0.94285714285714139
40
-0.92857142857142716
40
-0.91428571428571292
40
-0.89999999999999869
40
-0.88571428571428445
40
-0.87142857142857022
40
-0.85714285714285599
40
-0.84285714285714175
40
-0.82857142857142752
40
-0.81428571428571328
40
-0.79999999999999905
40
-0.78571428571428481
40
-0.77142857142857058
40
-0.75714285714285634
40
-0.74285714285714211
40
-0.72857142857142787
40
-0.71428571428571364
40
-0.6999999999999994
40
-0.68571428571428517
40
-0.67142857142857093
40
-0.6571428571428567
40
-0.64285714285714246
40
-0.62857142857142823
40
-0.61428571428571399
40
-0.59999999999999976
40
-0.58571428571428552
40
-0.57142857142857129
40
-0.55714285714285705
40
-0.54285714285714282
40
-0.52857142857142858
40
-0.51428571428571435
40
-0.50000000000000011
40
-0.48571428571428582
40
-0.47142857142857153
40
-0.45714285714285724
40
-0.44285714285714295
40
-0.42857142857142866
40
-0.41428571428571437
40
-0.40000000000000008
40
-0.38571428571428579
40
-0.3714285714285715
40
-0.35714285714285721
40
-0.34285714285714292
40
-0.32857142857142863
40
-0.31428571428571433
40
-0.30000000000000004
40
-0.28571428571428575
40
-0.27142857142857146
40
-0.25714285714285717
40
-0.24285714285714291
40
-0.22857142857142862
40
-0.21428571428571433
40
-0.20000000000000004
40
-0.18571428571428575
40
-0.17142857142857146
40
-0.15714285714285717
40
-0.14285714285714288
40
-0.12857142857142859
40
-0.1142857142857143
40
-0.10000000000000001
40
-0.085714285714285715
40
-0.071428571428571425
40
-0.057142857142857141
40
-0.042857142857142858
40
-0.028571428571428571
40
-0.014285714285714285
40
-0
40
-0
40
-0
40
-0
40
-0
40
-0
10
-4.1128117962834256
20
23.644973654634342
30
0
10
-4.1166184588458554
20
23.634879585860077
30
0
10
-4.1242066484749991
20
23.614689962294122
30
0
10
-4.1355135264310583
20
23.584401068896959
30
0
10
-4.1504385006292477
20
23.544006958606758
30
0
10
-4.1688429079769413
20
23.493499486641912
30
0
10
-4.1869948915284319
20
23.442977302839886
30
0
10
-4.2048936020476635
20
23.392440675362263
30
0
10
-4.2225379627051112
20
23.341890069023371
30
0
10
-4.2399266744081796
20
23.291326207063786
30
0
10
-4.257058267653087
20
23.240750008569261
30
0
10
-4.2739311594745981
20
23.190162513503147
30
0
10
-4.2905437122120667
20
23.139564810427331
30
0
10
-4.3068942887827237
20
23.088957967843452
30
0
10
-4.3229813231609331
20
23.03834295217365
30
0
10
-4.3388032934964382
20
22.987720645231473
30
0
10
-4.3543586747043985
20
22.937091884223506
30
0
10
-4.3696458982352047
20
22.886457495186562
30
0
10
-4.3846633146232836
20
22.835818326527011
30
0
10
-4.3994091468657484
20
22.785175289407256
30
0
10
-4.4138815090631365
20
22.734529353706709
30
0
10
-4.4280784477196127
20
22.683881528171671
30
0
10
-4.4419979806084919
20
22.633232845130031
30
0
10
-4.4556381313494411
20
22.582584345002502
30
0
10
-4.4689969862173875
20
22.5319370567709
30
0
10
-4.4820726481462589
20
22.481292001961727
30
0
10
-4.4948631459974786
20
22.430650209723147
30
0
10
-4.5073663535100916
20
22.380012729085724
30
0
10
-4.519579920296783
20
22.329380640793168
30
0
10
-4.5315011641536067
20
22.278755073333677
30
0
10
-4.5431271499120154
20
22.228137198051236
30
0
10
-4.5544548676575936
20
22.177528212758656
30
0
10
-4.5654813978713422
20
22.12692932757308
30
0
10
-4.5762040496979299
20
22.076341752683184
30
0
10
-4.5866205991038687
20
22.025766678029282
30
0
10
-4.5967290964195477
20
21.975205289098984
30
0
10
-4.6065274174308177
20
21.924658804473978
30
0
10
-4.6160128580622715
20
21.874128509542132
30
0
10
-4.625181791172686
20
21.823615785646112
30
0
10
-4.6340291031134386
20
21.773122156384051
30
0
10
-4.6425485972816372
20
21.722649258599304
30
0
10
-4.6507339971456911
20
21.672198766663069
30
0
10
-4.6585798565894283
20
21.621772324047768
30
0
10
-4.6660823252272765
20
21.571371486262684
30
0
10
-4.673240443711463
20
21.520997622499539
30
0
10
-4.6800551143479128
20
21.470651998694393
30
0
10
-4.6865266782156123
20
21.420335969506805
30
0
10
-4.6926527195758636
20
21.370051152309454
30
0
10
-4.698426204370473
20
21.31979957581196
30
0
10
-4.7038324035470884
20
21.269583921869966
30
0
10
-4.7088514005967221
20
21.219407338922846
30
0
10
-4.7134635970363634
20
21.169273025768895
30
0
10
-4.7176547429530524
20
21.119183851150069
30
0
10
-4.7214201902354755
20
21.069142034508722
30
0
10
-4.7247719637783456
20
21.019148606786089
30
0
10
-4.7277318945461291
20
20.969203958599078
30
0
10
-4.7303185543579058
20
20.919308872531637
30
0
10
-4.7325352128182283
20
20.869465474524542
30
0
10
-4.7343594521942842
20
20.819678058793997
30
0
10
-4.7357267076118523
20
20.769954379438392
30
0
10
-4.7365482050984022
20
20.720304302211577
30
0
10
-4.7367403749311263
20
20.670737584655228
30
0
10
-4.736252350564226
20
20.62126178461067
30
0
10
-4.735090141368314
20
20.571880467274873
30
0
10
-4.7333531009761938
20
20.522590358913941
30
0
10
-4.7311815973056603
20
20.473386059164685
30
0
10
-4.7286848586985029
20
20.424266424461983
30
0
10
-4.7258733465572025
20
20.375240601409153
30
0
10
-4.7225942161398997
20
20.326333721564282
30
0
10
-4.718451678673139
20
20.27759408430088
30
0
10
-4.7129147511998379
20
20.229082062087713
30
0
10
-4.7069400219298538
20
20.190501954285196
30
0
10
-4.7013999694647932
20
20.161716560417474
30
0
10
-4.6972117014948589
20
20.142595419675363
30
0
10
-4.6949938413142114
20
20.133052129888664
30
0
0
LINE
5
103
100
AcDbEntity
8
0
100
AcDbLine
10
-4.6949938413142114
20
20.133052129888664
30
0
11
-4.5522321087341862
21
19.518758859126912
31
0
0
ARC
5
104
100
AcDbEntity
8
0
100
AcDbCircle
10
-5.0392531128988738
20
19.405575196425875
30
0
40
0.50000000000000056
100
AcDbArc
50
-75.442921931804122
51
13.083294844155349
0
ARC
5
105
100
AcDbEntity
8
0
100
AcDbCircle
10
-4.1269916103405861e-13
20
2.8703857137746221e-12
30
0
40
19.549199999997121
100
AcDbArc
50
104.55707806819684
51
108.17019465907829
0
ARC
5
106
100
AcDbEntity
8
0
100
AcDbCircle
10
-6.2521565533350447
20
19.049434612937723
30
0
40
0.50000000000000011
100
AcDbArc
50
199.64397788311754
51
288.17019465907617
0
LINE
5
107
100
AcDbEntity
8
0
100
AcDbLine
10
-6.7230564015768817
20
18.8813473352341
30
0
11
-6.9350696057529415
21
19.475306539260295
31
0
0
SPLINE
5
108
100
AcDbEntity
8
0
100
AcDbSpline
70
1064
71
5
72
81
73
75
74
0
42
0.000000001
43
0.0000000001
44
0.0000000001
40
0
40
0
40
0
40
0
40
0
40
0
40
0.014285714285714285
40
0.028571428571428571
40
0.042857142857142858
40
0.057142857142857141
40
0.071428571428571425
40
0.085714285714285715
40
0.10000000000000001
40
0.1142857142857143
40
0.12857142857142859
40
0.14285714285714288
40
0.15714285714285717
40
0.17142857142857146
40
0.18571428571428575
40
0.20000000000000004
40
0.21428571428571433
40
0.22857142857142862
40
0.24285714285714291
40
0.25714285714285717
40
0.27142857142857146
40
0.28571428571428575
40
0.30000000000000004
40
0.31428571428571433
40
0.32857142857142863
40
0.34285714285714292
40
0.35714285714285721
40
0.3714285714285715
40
0.38571428571428579
40
0.40000000000000008
40
0.41428571428571437
40
0.42857142857142866
40
0.44285714285714295
40
0.45714285714285724
40
0.47142857142857153
40
0.48571428571428582
40
0.50000000000000011
40
0.51428571428571435
40
0.52857142857142858
40
0.54285714285714282
40
0.55714285714285705
40
0.57142857142857129
40
0.58571428571428552
40
0.59999999999999976
40
0.61428571428571399
40
0.62857142857142823
40
0.64285714285714246
40
0.6571428571428567
40
0.67142857142857093
40
0.68571428571428517
40
0.6999999999999994
40
0.71428571428571364
40
0.72857142857142787
40
0.74285714285714211
40
0.75714285714285634
40
0.77142857142857058
40
0.78571428571428481
40
0.79999999999999905
40
0.81428571428571328
40
0.82857142857142752
40
0.84285714285714175
40
0.85714285714285599
40
0.87142857142857022
40
0.88571428571428445
40
0.89999999999999869
40
0.91428571428571292
40
0.92857142857142716
40
0.94285714285714139
40
0.95714285714285563
40
0.97142857142856986
40
0.9857142857142841
40
1
40
1
40
1
40
1
40
1
40
1
10
-6.9350696057529415
20
19.475306539260295
30
0
10
-6.9383633150321415
20
19.484533931249249
30
0
10
-6.9451775889674883
20
19.502884007069298
30
0
10
-6.9560795591306155
20
19.530094999847918
30
0
10
-6.9719112780444048
20
19.565780834350388
30
0
10
-6.9934808975922147
20
19.609585233417363
30
0
10
-7.0163466106459893
20
19.652827250296475
30
0
10
-7.0400290860963537
20
19.695743167495078
30
0
10
-7.064169252626602
20
19.738506332560586
30
0
10
-7.0886249419115641
20
19.781178237587159
30
0
10
-7.1134000096159431
20
19.823745532101253
30
0
10
-7.1385869627261282
20
19.866150124831062
30
0
10
-7.1643068059056381
20
19.908320670225397
30
0
10
-7.1906448906632363
20
19.950206207695189
30
0
10
-7.2176043449121741
20
19.991800489094857
30
0
10
-7.2451382909135855
20
20.033124656894593
30
0
10
-7.2731711500176086
20
20.074215683731232
30
0
10
-7.30162290697701
20
20.115113264837589
30
0
10
-7.3304350541811569
20
20.155845783457352
30
0
10
-7.3595864110045675
20
20.196421747007385
30
0
10
-7.3890785786432573
20
20.236837599350814
30
0
10
-7.4189267576088191
20
20.277082641452676
30
0
10
-7.449149102093787
20
20.317144741994646
30
0
10
-7.4797551707144114
20
20.357016532544854
30
0
10
-7.510739853309496
20
20.396698658948289
30
0
10
-7.5420896111304314
20
20.436196411950228
30
0
10
-7.5737862274832164
20
20.475517696290186
30
0
10
-7.6058112453594635
20
20.514670631010112
30
0
10
-7.6381508239712268
20
20.553660923116382
30
0
10
-7.6707979490889686
20
20.592490668848829
30
0
10
-7.7037497140462889
20
20.631159813633918
30
0
10
-7.7370056733928383
20
20.669667033458282
30
0
10
-7.7705659017799613
20
20.708010775525338
30
0
10
-7.8044288519120153
20
20.746190406660258
30
0
10
-7.8385904436667282
20
20.78420669996099
30
0
10
-7.8730452069513586
20
20.822061217243231
30
0
10
-7.907786956378116
20
20.859755943285471
30
0
10
-7.9428095940885974
20
20.897292851223916
30
0
10
-7.9781079944884965
20
20.934673423973422
30
0
10
-8.0136783594222099
20
20.971898460455172
30
0
10
-8.0495177191436067
20
21.00896834126565
30
0
10
-8.0856236278350284
20
21.045883189705549
30
0
10
-8.1219938044070297
20
21.082643062550215
30
0
10
-8.1586257345532882
20
21.119248161161437
30
0
10
-8.1955165003048478
20
21.15569892224995
30
0
10
-8.2326629913673237
20
21.191995906211559
30
0
10
-8.2700620280530686
20
21.228139732664598
30
0
10
-8.3077105078648099
20
21.264131003083723
30
0
10
-8.3456055642822271
20
21.299970218233192
30
0
10
-8.3837446357395216
20
21.335657739648852
30
0
10
-8.422125366363403
20
21.371193834373496
30
0
10
-8.4607455415270838
20
21.406578702310576
30
0
10
-8.4996030130381044
20
21.441812509728653
30
0
10
-8.5386956146589164
20
21.476895425631039
30
0
10
-8.5780211212586757
20
21.511827643271999
30
0
10
-8.6175773071635895
20
21.546609365874723
30
0
10
-8.6573619836189568
20
21.581240800967386
30
0
10
-8.6973730397487969
20
21.615722152229743
30
0
10
-8.7376084880315634
20
21.650053613863498
30
0
10
-8.7780664821654106
20
21.684235363912215
30
0
10
-8.8187452560132087
20
21.718267555491437
30
0
10
-8.8596430739639054
20
21.752150308821292
30
0
10
-8.9007581790111896
20
21.785883704847379
30
0
10
-8.9420887312432153
20
21.81946777722105
30
0
10
-8.9836327757827146
20
21.852902512135273
30
0
10
-9.0253883464208968
20
21.886187879219715
30
0
10
-9.0673535492360315
20
21.919323859417169
30
0
10
-9.1095266511075899
20
21.952310474017192
30
0
10
-9.1519061681559659
20
21.985147816933591
30
0
10
-9.1944909431969197
20
22.017836079317679
30
0
10
-9.2372801168285221
20
22.050375494709236
30
0
10
-9.2716745089078483
20
22.076288132445427
30
0
10
-9.2975618720197399
20
22.095655811280295
30
0
10
-9.3148607979418685
20
22.108537918387579
30
0
10
-9.323520431864381
20
22.114971552245045
30
0
0
ARC
5
109
100
AcDbEntity
8
0
100
AcDbCircle
10
-4.1269916103405861e-13
20
2.8703857137746221e-12
30
0
40
23.999999999997197
100
AcDbArc
50
112.85995469368132
51
116.2309543972317
0
SPLINE
5
110
100
AcDbEntity
8
0
100
AcDbSpline
70
1064
71
5
72
81
73
75
74
0
42
0.000000001
43
0.0000000001
44
0.0000000001
40
-1
40
-1
40
-1
40
-1
40
-1
40
-1
40
-0.9857142857142841
40
-0.97142857142856986
40
-0.95714285714285563
40
-0.94285714285714139
40
-0.92857142857142716
40
-0.91428571428571292
40
-0.89999999999999869
40
-0.88571428571428445
40
-0.87142857142857022
40
-0.85714285714285599
40
-0.84285714285714175
40
-0.82857142857142752
40
-0.81428571428571328
40
-0.79999999999999905
40
-0.78571428571428481
40
-0.77142857142857058
40
-0.75714285714285634
40
-0.74285714285714211
40
-0.72857142857142787
40
-0.71428571428571364
40
-0.6999999999999994
40
-0.68571428571428517
40
-0.67142857142857093
40
-0.6571428571428567
40
-0.64285714285714246
40
-0.62857142857142823
40
-0.61428571428571399
40
-0.59999999999999976
40
-0.58571428571428552
40
-0.57142857142857129
40
-0.55714285714285705
40
-0.54285714285714282
40
-0.52857142857142858
40
-0.51428571428571435
40
-0.50000000000000011
40
-0.48571428571428582
40
-0.47142857142857153
40
-0.45714285714285724
40
-0.44285714285714295
40
-0.42857142857142866
40
-0.41428571428571437
40
-0.40000000000000008
40
-0.38571428571428579
40
-0.3714285714285715
40
-0.35714285714285721
40
-0.34285714285714292
40
-0.32857142857142863
40
-0.31428571428571433
40
-0.30000000000000004
40
-0.28571428571428575
40
-0.27142857142857146
40
-0.25714285714285717
40
-0.24285714285714291
40
-0.22857142857142862
40
-0.21428571428571433
40
-0.20000000000000004
40
-0.18571428571428575
40
-0.17142857142857146
40
-0.15714285714285717
40
-0.14285714285714288
40
-0.12857142857142859
40
-0.1142857142857143
40
-0.10000000000000001
40
-0.085714285714285715
40
-0.071428571428571425
40
-0.057142857142857141
40
-0.042857142857142858
40
-0.028571428571428571
40
-0.014285714285714285
40
-0
40
-0
40
-0
40
-0
40
-0
40
-0
10
-10.607772904501138
20
21.528473099747035
30
0
10
-10.608581542678003
20
21.517715450906195
30
0
10
-10.610174283040719
20
21.496205808888725
30
0
10
-10.612489785612397
20
21.463958312859141
30
0
10
-10.615429857513545
20
21.420995596718633
30
0
10
-10.618859157830942
20
21.36734891151411
30
0
10
-10.622042114486003
20
21.313759226406699
30
0
10
-10.624977988192555
20
21.260227037953005
30
0
10
-10.627665876693555
20
21.206753095517033
30
0
10
-10.630104737279204
20
21.153338459039709
30
0
10
-10.632293418907333
20
21.099984424384424
30
0
10
-10.634230695725451
20
21.046692435361546
30
0
10
-10.635915303092997
20
20.993463997820875
30
0
10
-10.637345971272262
20
20.940300598201755
30
0
10
-10.638521469945225
20
20.88720360497982
30
0
10
-10.63944058734285
20
20.834174293003752
30
0
10
-10.640102096025295
20
20.781213895233435
30
0
10
-10.640504723701696
20
20.728323646156888
30
0
10
-10.640647126745122
20
20.675504824522207
30
0
10
-10.640527856837902
20
20.622758805222876
30
0
10
-10.640145377719357
20
20.570087050170667
30
0
10
-10.639498099220637
20
20.517491077613933
30
0
10
-10.638584410249539
20
20.464972436521826
30
0
10
-10.63740270760341
20
20.4125326819814
30
0
10
-10.635951444974168
20
20.360173340452128
30
0
10
-10.634229089937515
20
20.307895926546795
30
0
10
-10.632234041144384
20
20.25570198305973
30
0
10
-10.629964554008389
20
20.203593115565329
30
0
10
-10.627418677830111
20
20.151571023210234
30
0
10
-10.624594156985568
20
20.099637544435097
30
0
10
-10.6214885052069
20
20.047794630068772
30
0
10
-10.618099171965241
20
19.996044277395143
30
0
10
-10.614423696932022
20
19.94438847003665
30
0
10
-10.610459839200011
20
19.892829127262374
30
0
10
-10.606205800069626
20
19.841368017394327
30
0
10
-10.601660042837036
20
19.790006827184943
30
0
10
-10.596820872647818
20
19.738747324315081
30
0
10
-10.591686057096235
20
19.687591503931436
30
0
10
-10.58625250513497
20
19.636541713306372
30
0
10
-10.580515739501292
20
19.585600855002887
30
0
10
-10.574470275750336
20
19.534772245345458
30
0
10
-10.568110563319017
20
19.484059259184775
30
0
10
-10.561431839716825
20
19.433465007769321
30
0
10
-10.554430848763461
20
19.382992068378279
30
0
10
-10.547107055717365
20
19.332642025021006
30
0
10
-10.539461682990137
20
19.28241583814529
30
0
10
-10.531495439496364
20
19.232314711444406
30
0
10
-10.523206463018282
20
19.182340877368318
30
0
10
-10.514588575980028
20
19.132498264172852
30
0
10
-10.50562840152541
20
19.082793594733232
30
0
10
-10.496307716921866
20
19.033235501083908
30
0
10
-10.48660861876828
20
18.983832573980113
30
0
10
-10.4765182425913
20
18.934591580623994
30
0
10
-10.466032753849943
20
18.885515960079189
30
0
10
-10.455163980795909
20
18.836603313722232
30
0
10
-10.44393298013571
20
18.787847865853863
30
0
10
-10.432357791878637
20
18.739245135071812
30
0
10
-10.420442152134017
20
18.690796240047266
30
0
10
-10.408165761065238
20
18.642511616855671
30
0
10
-10.395468853711114
20
18.594416895527068
30
0
10
-10.382269031572815
20
18.546546552701194
30
0
10
-10.368488859105668
20
18.498933494982424
30
0
10
-10.354081659506347
20
18.451599304828402
30
0
10
-10.339054203155785
20
18.404545709985221
30
0
10
-10.323500896849147
20
18.357741578175222
30
0
10
-10.30755490115914
20
18.311142181575477
30
0
10
-10.291320697732711
20
18.264715649763282
30
0
10
-10.274810901107971
20
18.218467811522583
30
0
10
-10.257885938207172
20
18.172465841746703
30
0
10
-10.240179659989138
20
18.126867589928278
30
0
10
-10.221199600927429
20
18.081880578213006
30
0
10
-10.204597617759212
20
18.046546511608877
30
0
10
-10.191172193731488
20
18.020487941596084
30
0
10
-10.181766532171721
20
18.003321312850442
30
0
10
-10.176949855479647
20
17.994789436774351
30
0
0
LINE
5
111
100
AcDbEntity
8
0
100
AcDbLine
10
-10.176949855479645
20
17.994789436774351
30
0
11
-9.8669045623458853
21
17.445599987678658
31
0
0
ARC
5
112
100
AcDbEntity
8
0
100
AcDbCircle
10
-10.302310271159138
20
17.199791385850265
30
0
40
0.49999999999999939
100
AcDbArc
50
-59.079285568168117
51
29.446931207791529
0
ARC
5
113
100
AcDbEntity
8
0
100
AcDbCircle
10
-4.1269916103405861e-13
20
2.8703857137746221e-12
30
0
40
19.549199999997327
100
AcDbArc
50
120.92071443183555
51
124.53383102271698
0
ARC
5
114
100
AcDbEntity
8
0
100
AcDbCircle
10
-11.365746202749392
20
16.516362610898558
30
0
40
0.49999999999999978
100
AcDbArc
50
216.00761424675369
51
304.53383102271397
0
LINE
5
115
100
AcDbEntity
8
0
100
AcDbLine
10
-11.77021563989361
20
16.22241623072653
30
0
11
-12.140978464823833
21
16.732584891506658
31
0
0
SPLINE
5
116
100
AcDbEntity
8
0
100
AcDbSpline
70
1064
71
5
72
81
73
75
74
0
42
0.000000001
43
0.0000000001
44
0.0000000001
40
0
40
0
40
0
40
0
40
0
40
0
40
0.014285714285714285
40
0.028571428571428571
40
0.042857142857142858
40
0.057142857142857141
40
0.071428571428571425
40
0.085714285714285715
40
0.10000000000000001
40
0.1142857142857143
40
0.12857142857142859
40
0.14285714285714288
40
0.15714285714285717
40
0.17142857142857146
40
0.18571428571428575
40
0.20000000000000004
40
0.21428571428571433
40
0.22857142857142862
40
0.24285714285714291
40
0.25714285714285717
40
0.27142857142857146
40
0.28571428571428575
40
0.30000000000000004
40
0.31428571428571433
40
0.32857142857142863
40
0.34285714285714292
40
0.35714285714285721
40
0.3714285714285715
40
0.38571428571428579
40
0.40000000000000008
40
0.41428571428571437
40
0.42857142857142866
40
0.44285714285714295
40
0.45714285714285724
40
0.47142857142857153
40
0.48571428571428582
40
0.50000000000000011
40
0.51428571428571435
40
0.52857142857142858
40
0.54285714285714282
40
0.55714285714285705
40
0.57142857142857129
40
0.58571428571428552
40
0.59999999999999976
40
0.61428571428571399
40
0.62857142857142823
40
0.64285714285714246
40
0.6571428571428567
40
0.67142857142857093
40
0.68571428571428517
40
0.6999999999999994
40
0.71428571428571364
40
0.72857142857142787
40
0.74285714285714211
40
0.75714285714285634
40
0.77142857142857058
40
0.78571428571428481
40
0.79999999999999905
40
0.81428571428571328
40
0.82857142857142752
40
0.84285714285714175
40
0.85714285714285599
40
0.87142857142857022
40
0.88571428571428445
40
0.89999999999999869
40
0.91428571428571292
40
0.92857142857142716
40
0.94285714285714139
40
0.95714285714285563
40
0.97142857142856986
40
0.9857142857142841
40
1
40
1
40
1
40
1
40
1
40
1
10
-12.140978464823833
20
16.732584891506658
30
0
10
-12.146738412472383
20
16.740510564148128
30
0
10
-12.158446474212649
20
16.756197530143936
30
0
10
-12.176573060552439
20
16.779234846591432
30
0
10
-12.201817345007859
20
16.809014843405343
30
0
10
-12.23485436875756
20
16.844967992458209
30
0
10
-12.268976543747677
20
16.880016388015996
30
0
10
-12.303790523621654
20
16.914521784663311
30
0
10
-12.339000619621851
20
16.948751670234039
30
0
10
-12.374487746564103
20
16.982805099406207
30
0
10
-12.410251842668554
20
17.016668176227984
30
0
10
-12.446365301536124
20
17.050259100302444
30
0
10
-12.482924125926676
20
17.083475325121277
30
0
10
-12.519995852756093
20
17.116243908058543
30
0
10
-12.557581722929141
20
17.148557972827469
30
0
10
-12.595642714106942
20
17.180451012464864
30
0
10
-12.634116725501503
20
17.211979794922275
30
0
10
-12.672938166484759
20
17.243204950396848
30
0
10
-12.712058895899222
20
17.274170195910223
30
0
10
-12.75146098789987
20
17.304889661540859
30
0
10
-12.791144976943494
20
17.335359484091377
30
0
10
-12.831122433547685
20
17.365565115433903
30
0
10
-12.8714073587453
20
17.395489801026667
30
0
10
-12.912006848034308
20
17.425123777937671
30
0
10
-12.952916180206508
20
17.454469105549407
30
0
10
-12.994123855502941
20
17.483534674601088
30
0
10
-13.035614622156178
20
17.512333201870479
30
0
10
-13.077373058194805
20
17.540877677461467
30
0
10
-13.11938749132954
20
17.569177476607145
30
0
10
-13.161651782035431
20
17.597236586771718
30
0
10
-13.20416312601135
20
17.625055774494825
30
0
10
-13.246920722833149
20
17.652633894892819
30
0
10
-13.289924206654911
20
17.679969437036561
30
0
10
-13.333171914471379
20
17.707062229322815
30
0
10
-13.376660149240763
20
17.7339141630369
30
0
10
-13.42038410246184
20
17.760528277833238
30
0
10
-13.464338398475206
20
17.786908220717947
30
0
10
-13.508517742325278
20
17.813057602866593
30
0
10
-13.552917633825727
20
17.83897929117235
30
0
10
-13.59753465375505
20
17.864675122258578
30
0
10
-13.642366059889113
20
17.890146297979083
30
0
10
-13.687409540220886
20
17.9153936257065
30
0
10
-13.732662922056534
20
17.940417802573513
30
0
10
-13.778123849666979
20
17.965219730147307
30
0
10
-13.823789646317142
20
17.989800649535606
30
0
10
-13.869657485583156
20
18.014161974705452
30
0
10
-13.915724491143727
20
18.038305195997808
30
0
10
-13.961987855629513
20
18.062231764597854
30
0
10
-14.008444969715999
20
18.085942968577502
30
0
10
-14.05509347745522
20
18.109439876504325
30
0
10
-14.101931193637958
20
18.132723408330214
30
0
10
-14.14895604966468
20
18.155794379793587
30
0
10
-14.196166031203084
20
18.178653555643727
30
0
10
-14.243559107377195
20
18.201301708337759
30
0
10
-14.291133197635624
20
18.2237396501936
30
0
10
-14.338886223714592
20
18.245968203247234
30
0
10
-14.386816143986788
20
18.267988183263949
30
0
10
-14.434920990464754
20
18.289800380375532
30
0
10
-14.483198910848483
20
18.311405540866673
30
0
10
-14.531648183784982
20
18.332804355732254
30
0
10
-14.580267157815731
20
18.353997469463906
30
0
10
-14.629054201504037
20
18.374985486390134
30
0
10
-14.678007651819701
20
18.39576897918354
30
0
10
-14.727125752860919
20
18.416348498495438
30
0
10
-14.776406625046796
20
18.436724581830653
30
0
10
-14.825848373257502
20
18.456897753994092
30
0
10
-14.875449174919403
20
18.476868530279894
30
0
10
-14.925207373113503
20
18.496637419391739
30
0
10
-14.97512157052631
20
18.516204929496453
30
0
10
-15.025190710701233
20
18.535571570018845
30
0
10
-15.075414034843915
20
18.554737807160205
30
0
10
-15.115715646059691
20
18.569910780974382
30
0
10
-15.146010894749191
20
18.581200619732268
30
0
10
-15.166238401595391
20
18.588687240356403
30
0
10
-15.176359823614563
20
18.592420566031148
30
0
0
ARC
5
117
100
AcDbEntity
8
0
100
AcDbCircle
10
-4.1269916103405861e-13
20
2.8703857137746221e-12
30
0
40
23.999999999997517
100
AcDbArc
50
129.22359105731954
51
132.59459076086983
0
SPLINE
5
118
100
AcDbEntity
8
0
100
AcDbSpline
70
1064
71
5
72
81
73
75
74
0
42
0.000000001
43
0.0000000001
44
0.0000000001
40
-1
40
-1
40
-1
40
-1
40
-1
40
-1
40
-0.9857142857142841
40
-0.97142857142856986
40
-0.95714285714285563
40
-0.94285714285714139
40
-0.92857142857142716
40
-0.91428571428571292
40
-0.89999999999999869
40
-0.88571428571428445
40
-0.87142857142857022
40
-0.85714285714285599
40
-0.84285714285714175
40
-0.82857142857142752
40
-0.81428571428571328
40
-0.79999999999999905
40
-0.78571428571428481
40
-0.77142857142857058
40
-0.75714285714285634
40
-0.74285714285714211
40
-0.72857142857142787
40
-0.71428571428571364
40
-0.6999999999999994
40
-0.68571428571428517
40
-0.67142857142857093
40
-0.6571428571428567
40
-0.64285714285714246
40
-0.62857142857142823
40
-0.61428571428571399
40
-0.59999999999999976
40
-0.58571428571428552
40
-0.57142857142857129
40
-0.55714285714285705
40
-0.54285714285714282
40
-0.52857142857142858
40
-0.51428571428571435
40
-0.50000000000000011
40
-0.48571428571428582
40
-0.47142857142857153
40
-0.45714285714285724
40
-0.44285714285714295
40
-0.42857142857142866
40
-0.41428571428571437
40
-0.40000000000000008
40
-0.38571428571428579
40
-0.3714285714285715
40
-0.35714285714285721
40
-0.34285714285714292
40
-0.32857142857142863
40
-0.31428571428571433
40
-0.30000000000000004
40
-0.28571428571428575
40
-0.27142857142857146
40
-0.25714285714285717
40
-0.24285714285714291
40
-0.22857142857142862
40
-0.21428571428571433
40
-0.20000000000000004
40
-0.18571428571428575
40
-0.17142857142857146
40
-0.15714285714285717
40
-0.14285714285714288
40
-0.12857142857142859
40
-0.1142857142857143
40
-0.10000000000000001
40
-0.085714285714285715
40
-0.071428571428571425
40
-0.057142857142857141
40
-0.042857142857142858
40
-0.028571428571428571
40
-0.014285714285714285
40
-0
40
-0
40
-0
40
-0
40
-0
40
-0
10
-16.243355338850765
20
17.667863689077649
30
0
10
-16.241100441586134
20
17.657313980901122
30
0
10
-16.236568698330625
20
17.636226903705627
30
0
10
-16.229705237270387
20
17.604633305388685
30
0
10
-16.220422219734342
20
17.562582567150468
30
0
10
-16.208598591504565
20
17.510142804092425
30
0
10
-16.196554657044778
20
17.457827135256906
30
0
10
-16.184289846911255
20
17.405636245367464
30
0
10
-16.171803506514948
20
17.353571107628795
30
0
10
-16.15909493400299
20
17.301633032812052
30
0
10
-16.14616339004542
20
17.249823588575119
30
0
10
-16.133008105213772
20
17.19814450560645
30
0
10
-16.119628290341225
20
17.146597585048763
30
0
10
-16.106023145901723
20
17.095184610856617
30
0
10
-16.092191876957916
20
17.043907242693418
30
0
10
-16.078133679992305
20
16.992767045162303
30
0
10
-16.063847724649925
20
16.941765547089382
30
0
10
-16.049333137972098
20
16.890904291402983
30
0
10
-16.034588991023195
20
16.840184883596379
30
0
10
-16.019614281504847
20
16.789609050908453
30
0
10
-16.004407947253863
20
16.739178628847917
30
0
10
-15.9889688902544
20
16.688895522165744
30
0
10
-15.973296001069848
20
16.638761670984074
30
0
10
-15.957388179557173
20
16.588779019072387
30
0
10
-15.941244372097971
20
16.538949466703158
30
0
10
-15.924863535057625
20
16.489274898870512
30
0
10
-15.908244566608351
20
16.439757247026954
30
0
10
-15.891386245174349
20
16.390398543216612
30
0
10
-15.874287177778154
20
16.341200967334281
30
0
10
-15.856945718112996
20
16.292166918833562
30
0
10
-15.839360030234335
20
16.243298969983641
30
0
10
-15.821528229627539
20
16.194599755731382
30
0
10
-15.803448514475653
20
16.146071872503239
30
0
10
-15.78511927536452
20
16.097717793160935
30
0
10
-15.766539284648415
20
16.049539721149245
30
0
10
-15.747707543083875
20
16.001539707834784
30
0
10
-15.72862292248325
20
15.953719926790574
30
0
10
-15.709283842966695
20
15.90608292128724
30
0
10
-15.689687999999071
20
15.858631814364777
30
0
10
-15.66983191542475
20
15.811370652402669
30
0
10
-15.649711261273982
20
15.764304162537622
30
0
10
-15.629321662625809
20
15.717437146689491
30
0
10
-15.608659426444039
20
15.670773931827958
30
0
10
-15.587722154550006
20
15.624317908206297
30
0
10
-15.566509780129948
20
15.578070746324462
30
0
10
-15.545023746668615
20
15.532033023332213
30
0
10
-15.523265073484165
20
15.486205694440468
30
0
10
-15.501232602745565
20
15.440591426316653
30
0
10
-15.478921513829739
20
15.395195728518878
30
0
10
-15.456320865789991
20
15.350028820294575
30
0
10
-15.4334156059676
20
15.305104117957187
30
0
10
-15.410190976470437
20
15.260434908246969
30
0
10
-15.386636540467864
20
15.216031308587809
30
0
10
-15.362749587640952
20
15.171897699052133
30
0
10
-15.338540791343769
20
15.128028445773985
30
0
10
-15.314028728135744
20
15.084412074650743
30
0
10
-15.289229444722118
20
15.041039203350476
30
0
10
-15.264146841039622
20
14.997909852646687
30
0
10
-15.238764379719893
20
14.955039755005323
30
0
10
-15.213031937516492
20
14.912470339995433
30
0
10
-15.186880166840623
20
14.870257902050367
30
0
10
-15.160244039693055
20
14.828455830939788
30
0
10
-15.133084850489931
20
14.787097985255318
30
0
10
-15.105409582126516
20
14.74618411532045
30
0
10
-15.07730004628325
20
14.705657752465735
30
0
10
-15.048871408310088
20
14.665438464990732
30
0
10
-15.020214938677475
20
14.625466237567252
30
0
10
-14.991344383104291
20
14.58574310894646
30
0
10
-14.962144747557586
20
14.546372855246567
30
0
10
-14.932309185946215
20
14.507610088052193
30
0
10
-14.901423646802517
20
14.469792666975936
30
0
10
-14.875539403676559
20
14.440567197506667
30
0
10
-14.855316256096829
20
14.41934656171496
30
0
10
-14.841455191709178
20
14.405525183132886
30
0
10
-14.834429917005389
20
14.398695922626068
30
0
0
LINE
5
119
100
AcDbEntity
8
0
100
AcDbLine
10
-14.834429917005391
20
14.398695922626068
30
0
11
-14.382219089057234
21
13.959102358206758
31
0
0
ARC
5
120
100
AcDbEntity
8
0
100
AcDbCircle
10
-14.730735521448452
20
13.600582768291103
30
0
40
0.50000000000000155
100
AcDbArc
50
-42.71564920453126
51
45.810567571428152
0
ARC
5
121
100
AcDbEntity
8
0
100
AcDbCircle
10
-4.1269916103405861e-13
20
2.8703857137746221e-12
30
0
40
19.54919999999775
100
AcDbArc
50
137.28435079547396
51
140.89746738635534
0
ARC
5
122
100
AcDbEntity
8
0
100
AcDbCircle
10
-15.558550689512332
20
12.645233136715015
30
0
40
0.49999999999999989
100
AcDbArc
50
232.37125061039023
51
320.89746738634869
0
LINE
5
123
100
AcDbEntity
8
0
100
AcDbLine
10
-15.863822007233871
20
12.249241441629684
30
0
11
-16.363297453853839
21
12.634288728357184
31
0
0
SPLINE
5
124
100
AcDbEntity
8
0
100
AcDbSpline
70
1064
71
5
72
81
73
75
74
0
42
0.000000001
43
0.0000000001
44
0.0000000001
40
0
40
0
40
0
40
0
40
0
40
0
40
0.014285714285714285
40
0.028571428571428571
40
0.042857142857142858
40
0.057142857142857141
40
0.071428571428571425
40
0.085714285714285715
40
0.10000000000000001
40
0.1142857142857143
40
0.12857142857142859
40
0.14285714285714288
40
0.15714285714285717
40
0.17142857142857146
40
0.18571428571428575
40
0.20000000000000004
40
0.21428571428571433
40
0.22857142857142862
40
0.24285714285714291
40
0.25714285714285717
40
0.27142857142857146
40
0.28571428571428575
40
0.30000000000000004
40
0.31428571428571433
40
0.32857142857142863
40
0.34285714285714292
40
0.35714285714285721
40
0.3714285714285715
40
0.38571428571428579
40
0.40000000000000008
40
0.41428571428571437
40
0.42857142857142866
40
0.44285714285714295
40
0.45714285714285724
40
0.47142857142857153
40
0.48571428571428582
40
0.50000000000000011
40
0.51428571428571435
40
0.52857142857142858
40
0.54285714285714282
40
0.55714285714285705
40
0.57142857142857129
40
0.58571428571428552
40
0.59999999999999976
40
0.61428571428571399
40
0.62857142857142823
40
0.64285714285714246
40
0.6571428571428567
40
0.67142857142857093
40
0.68571428571428517
40
0.6999999999999994
40
0.71428571428571364
40
0.72857142857142787
40
0.74285714285714211
40
0.75714285714285634
40
0.77142857142857058
40
0.78571428571428481
40
0.79999999999999905
40
0.81428571428571328
40
0.82857142857142752
40
0.84285714285714175
40
0.85714285714285599
40
0.87142857142857022
40
0.88571428571428445
40
0.89999999999999869
40
0.91428571428571292
40
0.92857142857142716
40
0.94285714285714139
40
0.95714285714285563
40
0.97142857142856986
40
0.9857142857142841
40
1
40
1
40
1
40
1
40
1
40
1
10
-16.363297453853839
20
12.634288728357184
30
0
10
-16.371057003168975
20
12.640270590789545
30
0
10
-16.386710335182492
20
12.652023582270109
30
0
10
-16.410593029476651
20
12.669020876016097
30
0
10
-16.443204737680666
20
12.690482436908049
30
0
10
-16.485032702446809
20
12.715671625632154
30
0
10
-16.527646963687953
20
12.739686987301358
30
0
10
-16.570772026382869
20
12.762986441372515
30
0
10
-16.614199539277578
20
12.785909945692488
30
0
10
-16.65784314790233
20
12.808586092702267
30
0
10
-16.701698878037739
20
12.831001566739102
30
0
10
-16.745813145000252
20
12.853057485262616
30
0
10
-16.790249172073423
20
12.874628408515616
30
0
10
-16.835051210140993
20
12.89562532121305
30
0
10
-16.880218512568508
20
12.916041276002792
30
0
10
-16.925723073774897
20
12.935919403081646
30
0
10
-16.97152130187057
20
12.955331666714013
30
0
10
-17.017567344609215
20
12.974354720163404
30
0
10
-17.063827327396773
20
12.993044072536295
30
0
10
-17.110288031414026
20
13.011418331837842
30
0
10
-17.156948881080041
20
13.029473640783415
30
0
10
-17.203816879543879
20
13.047192780755044
30
0
10
-17.250900740398301
20
13.064555731340835
30
0
10
-17.298204521187959
20
13.081551126043349
30
0
10
-17.345724272141855
20
13.098182270943678
30
0
10
-17.393451464132749
20
13.114460936500109
30
0
10
-17.44137504592728
20
13.130403621291011
30
0
10
-17.489483879987418
20
13.146027134101214
30
0
10
-17.537769408142005
20
13.161343758864898
30
0
10
-17.586226862958469
20
13.176359051230024
30
0
10
-17.634853769688753
20
13.191074536748911
30
0
10
-17.683649037780519
20
13.205489342419277
30
0
10
-17.732611890529245
20
13.219602121585945
30
0
10
-17.781740683946861
20
13.233413178119541
30
0
10
-17.831032403584388
20
13.24692536827207
30
0
10
-17.880483292088304
20
13.260142963281933
30
0
10
-17.93008921903154
20
13.273070976924153
30
0
10
-17.979846121327146
20
13.285714365857679
30
0
10
-18.029750488775097
20
13.298077148695377
30
0
10
-18.079799558092994
20
13.310162050970469
30
0
10
-18.12999103673738
20
13.321970998427046
30
0
10
-18.180322933816914
20
13.333505417101135
30
0
10
-18.230793361052111
20
13.344766588005243
30
0
10
-18.281400312138292
20
13.35575603987232
30
0
10
-18.332141568427406
20
13.366475717659927
30
0
10
-18.383014816346176
20
13.376927774355128
30
0
10
-18.434017715962085
20
13.387114450282951
30
0
10
-18.485147982470099
20
13.397037928772736
30
0
10
-18.536403475133461
20
13.406700180852088
30
0
10
-18.587782234486937
20
13.416102895551333
30
0
10
-18.639282423018035
20
13.425247571202426
30
0
10
-18.690902285740098
20
13.434135573292485
30
0
10
-18.742640105370214
20
13.442768203096062
30
0
10
-18.794494150923477
20
13.45114677394422
30
0
10
-18.846462654981845
20
13.459272651409361
30
0
10
-18.898543855060129
20
13.467147209743793
30
0
10
-18.950736022058912
20
13.474771806861476
30
0
10
-19.003037490313901
20
13.482147755334427
30
0
10
-19.055446692808943
20
13.489276293070795
30
0
10
-19.107962172593705
20
13.496158568036492
30
0
10
-19.160582526679605
20
13.502795663886333
30
0
10
-19.213306359973615
20
13.509188620098111
30
0
10
-19.266132238150462
20
13.515338454676911
30
0
10
-19.319058631571107
20
13.521246190663502
30
0
10
-19.372083888223493
20
13.526912873329122
30
0
10
-19.425206337608092
20
13.532339540137347
30
0
10
-19.478424376153441
20
13.537527198987608
30
0
10
-19.531736557375787
20
13.542476804785542
30
0
10
-19.585141683729805
20
13.547189238782346
30
0
10
-19.638638885074368
20
13.551665287405765
30
0
10
-19.692227564695695
20
13.555905611749736
30
0
10
-19.735171398190133
20
13.559109697540624
30
0
10
-19.767420191581202
20
13.561407060628618
30
0
10
-19.78893756704441
20
13.562891673291286
30
0
10
-19.799700799742656
20
13.563622238940084
30
0
0
ARC
5
125
100
AcDbEntity
8
0
100
AcDbCircle
10
-4.1269916103405861e-13
20
2.8703857137746221e-12
30
0
40
23.999999999998035
100
AcDbArc
50
145.58722742095742
51
148.95822712450766
0
SPLINE
5
126
100
AcDbEntity
8
0
100
AcDbSpline
70
1064
71
5
72
81
73
75
74
0
42
0.000000001
43
0.0000000001
44
0.0000000001
40
-1
40
-1
40
-1
40
-1
40
-1
40
-1
40
-0.9857142857142841
40
-0.97142857142856986
40
-0.95714285714285563
40
-0.94285714285714139
40
-0.92857142857142716
40
-0.91428571428571292
40
-0.89999999999999869
40
-0.88571428571428445
40
-0.87142857142857022
40
-0.85714285714285599
40
-0.84285714285714175
40
-0.82857142857142752
40
-0.81428571428571328
40
-0.79999999999999905
40
-0.78571428571428481
40
-0.77142857142857058
40
-0.75714285714285634
40
-0.74285714285714211
40
-0.72857142857142787
40
-0.71428571428571364
40
-0.6999999999999994
40
-0.68571428571428517
40
-0.67142857142857093
40
-0.6571428571428567
40
-0.64285714285714246
40
-0.62857142857142823
40
-0.61428571428571399
40
-0.59999999999999976
40
-0.58571428571428552
40
-0.57142857142857129
40
-0.55714285714285705
40
-0.54285714285714282
40
-0.52857142857142858
40
-0.51428571428571435
40
-0.50000000000000011
40
-0.48571428571428582
40
-0.47142857142857153
40
-0.45714285714285724
40
-0.44285714285714295
40
-0.42857142857142866
40
-0.41428571428571437
40
-0.40000000000000008
40
-0.38571428571428579
40
-0.3714285714285715
40
-0.35714285714285721
40
-0.34285714285714292
40
-0.32857142857142863
40
-0.31428571428571433
40
-0.30000000000000004
40
-0.28571428571428575
40
-0.27142857142857146
40
-0.25714285714285717
40
-0.24285714285714291
40
-0.22857142857142862
40
-0.21428571428571433
40
-0.20000000000000004
40
-0.18571428571428575
40
-0.17142857142857146
40
-0.15714285714285717
40
-0.14285714285714288
40
-0.12857142857142859
40
-0.1142857142857143
40
-0.10000000000000001
40
-0.085714285714285715
40
-0.071428571428571425
40
-0.057142857142857141
40
-0.042857142857142858
40
-0.028571428571428571
40
-0.014285714285714285
40
-0
40
-0
40
-0
40
-0
40
-0
40
-0
10
-20.562997726600539
20
12.375909037150405
30
0
10
-20.557861972260405
20
12.366421944253126
30
0
10
-20.547572880273918
20
12.347465781464301
30
0
10
-20.532086492378284
20
12.319085606301281
30
0
10
-20.511332440277585
20
12.281353546692044
30
0
10
-20.485213763541985
20
12.23436906351216
30
0
10
-20.458918665909245
20
12.18756571530432
30
0
10
-20.43244679391103
20
12.140944319486808
30
0
10
-20.405797793657197
20
12.094505994261727
30
0
10
-20.378971361011764
20
12.048252195039598
30
0
10
-20.351967228253081
20
12.00218463427046
30
0
10
-20.324785144711232
20
11.956305189310779
30
0
10
-20.297424860626741
20
11.910615810678323
30
0
10
-20.269886111458057
20
11.865118435317473
30
0
10
-20.242168602049585
20
11.81981487962334
30
0
10
-20.214272002231574
20
11.77470687119868
30
0
10
-20.186195946004361
20
11.729796110879427
30
0
10
-20.157940030463376
20
11.685084325035358
30
0
10
-20.129503816621124
20
11.640573315837395
30
0
10
-20.100886829398799
20
11.596265022939193
30
0
10
-20.072088566780838
20
11.552161506744408
30
0
10
-20.043108511859124
20
11.508264904195036
30
0
10
-20.013946146732586
20
11.464577389389042
30
0
10
-19.984600963444866
20
11.421101137305701
30
0
10
-19.955072486425131
20
11.377838268081707
30
0
10
-19.925360245377508
20
11.334790884381526
30
0
10
-19.895463727259038
20
11.291961149841026
30
0
10
-19.865382332469313
20
11.249351358349941
30
0
10
-19.835115338603575
20
11.20696399394911
30
0
10
-19.804661842046244
20
11.164801822715626
30
0
10
-19.774020805913405
20
11.122867829969046
30
0
10
-19.743191164376835
20
11.081165074851496
30
0
10
-19.712171920103678
20
11.03969655624641
30
0
10
-19.680962225558027
20
10.998465100271613
30
0
10
-19.649561523604554
20
10.957473166984641
30
0
10
-19.617969433412949
20
10.916723006176765
30
0
10
-19.586185484861371
20
10.876217021223226
30
0
10
-19.554208878588341
20
10.835958097477903
30
0
10
-19.522038283270632
20
10.7959498807383
30
0
10
-19.489671501639194
20
10.756197233386784
30
0
10
-19.457105712825772
20
10.716705910407791
30
0
10
-19.424338071981609
20
10.677481751767349
30
0
10
-19.391366254712654
20
10.638529949610994
30
0
10
-19.358188915128057
20
10.599854432507934
30
0
10
-19.324806459754704
20
10.56145682211474
30
0
10
-19.291220436207947
20
10.52333726552591
30
0
10
-19.257432091630406
20
10.485496392084492
30
0
10
-19.223441066378378
20
10.447937086637843
30
0
10
-19.189244287319788
20
10.410665993694723
30
0
10
-19.154834135787862
20
10.373696000972124
30
0
10
-19.12019994867461
20
10.337044222152558
30
0
10
-19.085331309193538
20
10.300727563548623
30
0
10
-19.050221053686677
20
10.264758673152432
30
0
10
-19.014867815631067
20
10.229142517197779
30
0
10
-18.979280248791479
20
10.19387068299854
30
0
10
-18.943472944617888
20
10.158926927612285
30
0
10
-18.907458656502858
20
10.124297727878144
30
0
10
-18.87124113226086
20
10.089982004989015
30
0
10
-18.834808936750996
20
10.055999513250494
30
0
10
-18.798125649128909
20
10.022404125393367
30
0
10
-18.761140590845066
20
9.9892693930043777
30
0
10
-18.723806409627414
20
9.9566648636968864
30
0
10
-18.686095506807817
20
9.9246339291747372
30
0
10
-18.648014512083197
20
9.8931743825661496
30
0
10
-18.609626014123478
20
9.8622089935656536
30
0
10
-18.571017853044122
20
9.831628142693301
30
0
10
-18.532260693948366
20
9.8013485318003983
30
0
10
-18.493368300139473
20
9.7713682444378307
30
0
10
-18.454259572761938
20
9.7418192506247738
30
0
10
-18.414711827520065
20
9.7130322969214866
30
0
10
-18.37442297099243
20
9.6854482090309784
30
0
10
-18.341353455347274
20
9.6646990104224102
30
0
10
-18.315970943360757
20
9.6500354785596549
30
0
10
-18.298777417146987
20
9.6406790760349654
30
0
10
-18.290112690407067
20
9.6361056971684995
30
0
0
LINE
5
127
100
AcDbEntity
8
0
100
AcDbLine
10
-18.290112690407067
20
9.6361056971684995
30
0
11
-17.732371759523531
21
9.3417212736512401
31
0
0
ARC
5
128
100
AcDbEntity
8
0
100
AcDbCircle
10
-17.965764186847423
20
8.8995358206251822
30
0
40
0.49999999999999944
100
AcDbArc
50
-26.352012840894748
51
62.174203935064263
0
ARC
5
129
100
AcDbEntity
8
0
100
AcDbCircle
10
-4.1269916103405861e-13
20
2.8703857137746221e-12
30
0
40
19.549199999998358
100
AcDbArc
50
153.64798715911198
51
157.26110374999323
0
ARC
5
130
100
AcDbEntity
8
0
100
AcDbCircle
10
-18.490893929674776
20
7.7496620778919567
30
0
40
0.49999999999999961
100
AcDbArc
50
248.73488697402669
51
337.26110374998711
0
LINE
5
131
100
AcDbEntity
8
0
100
AcDbLine
10
-18.672235861330268
20
7.2837059599758449
30
0
11
-19.259959399449681
21
7.5124376314444579
31
0
0
SPLINE
5
132
100
AcDbEntity
8
0
100
AcDbSpline
70
1064
71
5
72
81
73
75
74
0
42
0.000000001
43
0.0000000001
44
0.0000000001
40
0
40
0
40
0
40
0
40
0
40
0
40
0.014285714285714285
40
0.028571428571428571
40
0.042857142857142858
40
0.057142857142857141
40
0.071428571428571425
40
0.085714285714285715
40
0.10000000000000001
40
0.1142857142857143
40
0.12857142857142859
40
0.14285714285714288
40
0.15714285714285717
40
0.17142857142857146
40
0.18571428571428575
40
0.20000000000000004
40
0.21428571428571433
40
0.22857142857142862
40
0.24285714285714291
40
0.25714285714285717
40
0.27142857142857146
40
0.28571428571428575
40
0.30000000000000004
40
0.31428571428571433
40
0.32857142857142863
40
0.34285714285714292
40
0.35714285714285721
40
0.3714285714285715
40
0.38571428571428579
40
0.40000000000000008
40
0.41428571428571437
40
0.42857142857142866
40
0.44285714285714295
40
0.45714285714285724
40
0.47142857142857153
40
0.48571428571428582
40
0.50000000000000011
40
0.51428571428571435
40
0.52857142857142858
40
0.54285714285714282
40
0.55714285714285705
40
0.57142857142857129
40
0.58571428571428552
40
0.59999999999999976
40
0.61428571428571399
40
0.62857142857142823
40
0.64285714285714246
40
0.6571428571428567
40
0.67142857142857093
40
0.68571428571428517
40
0.6999999999999994
40
0.71428571428571364
40
0.72857142857142787
40
0.74285714285714211
40
0.75714285714285634
40
0.77142857142857058
40
0.78571428571428481
40
0.79999999999999905
40
0.81428571428571328
40
0.82857142857142752
40
0.84285714285714175
40
0.85714285714285599
40
0.87142857142857022
40
0.88571428571428445
40
0.89999999999999869
40
0.91428571428571292
40
0.92857142857142716
40
0.94285714285714139
40
0.95714285714285563
40
0.97142857142856986
40
0.9857142857142841
40
1
40
1
40
1
40
1
40
1
40
1
10
-19.259959399449681
20
7.5124376314444579
30
0
10
-19.269089917893712
20
7.515991068748944
30
0
10
-19.287420380314689
20
7.5228579282422441
30
0
10
-19.315124348707364
20
7.5324381796342248
30
0
10
-19.352461474010582
20
7.5438426165775674
30
0
10
-19.399691726848289
20
7.5562271667083589
30
0
10
-19.447345720331477
20
7.5672639127113905
30
0
10
-19.495288129742406
20
7.5774698410047359
30
0
10
-19.543414820710268
20
7.5872298380852818
30
0
10
-19.591679165405274
20
7.5966916163621772
30
0
10
-19.640073599136148
20
7.6058435192175597
30
0
10
-19.688614798641947
20
7.6145775928429504
30
0
10
-19.737328085755497
20
7.622755666615384
30
0
10
-19.786230840384963
20
7.6302798640796832
30
0
10
-19.835320388844558
20
7.637143729651541
30
0
10
-19.884582011156645
20
7.6433965365356915
30
0
10
-19.93399415588566
20
7.649119615192701
30
0
10
-19.983534423843373
20
7.6543994319608952
30
0
10
-20.033185951317289
20
7.6592987910139119
30
0
10
-20.082941297424117
20
7.663839270773682
30
0
10
-20.132798823175335
20
7.6680173323625977
30
0
10
-20.182760396998006
20
7.6718144816226097
30
0
10
-20.23282873912131
20
7.6752090542064098
30
0
10
-20.283004540418453
20
7.6781890008971407
30
0
10
-20.333284942542598
20
7.6807586066354627
30
0
10
-20.383665077977394
20
7.6829315680262242
30
0
10
-20.434138991328741
20
7.684726828831673
30
0
10
-20.484700731789097
20
7.6861636547698131
30
0
10
-20.53534554863754
20
7.6872562433046294
30
0
10
-20.586070432762927
20
7.6880112681822643
30
0
10
-20.636873439459645
20
7.6884308903765479
30
0
10
-20.68775327639721
20
7.6885145794920273
30
0
10
-20.738708818936502
20
7.6882612622454696
30
0
10
-20.789738575292752
20
7.6876716933635674
30
0
10
-20.840840457822534
20
7.6867494626684696
30
0
10
-20.892012064718454
20
7.6854997269522274
30
0
10
-20.943250845408432
20
7.6839284605725222
30
0
10
-20.994554297841272
20
7.6820415641126676
30
0
10
-21.045920186178797
20
7.6798438823410926
30
0
10
-21.0973466269424
20
7.6773388088943957
30
0
10
-21.148831962997559
20
7.6745288373946305
30
0
10
-21.200374685858794
20
7.671415897012249
30
0
10
-21.251973344638127
20
7.6680017488595631
30
0
10
-21.303626444994169
20
7.664288424986438
30
0
10
-21.355332406107568
20
7.66027841663138
30
0
10
-21.407089614687564
20
7.6559744413792625
30
0
10
-21.458896456757856
20
7.6513793080413794
30
0
10
-21.510751355179018
20
7.646495755210859
30
0
10
-21.562652811231828
20
7.6413262771900703
30
0
10
-21.614599420677987
20
7.6358730466369025
30
0
10
-21.666589842566065
20
7.630138018877429
30
0
10
-21.718622777700872
20
7.6241229985238217
30
0
10
-21.770696944972933
20
7.6178297179543755
30
0
10
-21.8228110535225
20
7.6112599249758217
30
0
10
-21.874963792250597
20
7.6044154277844855
30
0
10
-21.927153857236675
20
7.597298041515268
30
0
10
-21.979379971990575
20
7.5899095562206629
30
0
10
-22.031640908113378
20
7.5822517005761645
30
0
10
-22.083935510823117
20
7.5743261038254062
30
0
10
-22.13626270560556
20
7.5661342779039593
30
0
10
-22.188621451603861
20
7.5576776578385685
30
0
10
-22.241010703090808
20
7.5489576340439903
30
0
10
-22.293429370646543
20
7.5399755873850838
30
0
10
-22.345876274817055
20
7.5307329304113937
30
0
10
-22.398350124995325
20
7.5212311314789098
30
0
10
-22.450849610636041
20
7.5114716566607438
30
0
10
-22.503373477081755
20
7.5014559248076118
30
0
10
-22.555920605469467
20
7.4911852596663255
30
0
10
-22.608490095040011
20
7.4806608441787246
30
0
10
-22.661081332461379
20
7.4698836780637903
30
0
10
-22.713693931442585
20
7.4588545637502008
30
0
10
-22.755800933222776
20
7.4498301855424565
30
0
10
-22.787390665865829
20
7.4429489542661118
30
0
10
-22.808454700154769
20
7.4383112844787131
30
0
10
-22.818987770430294
20
7.4359799040175449
30
0
0
ARC
5
133
100
AcDbEntity
8
0
100
AcDbCircle
10
-4.1269916103405861e-13
20
2.8703857137746221e-12
30
0
40
23.999999999998714
100
AcDbArc
50
161.95086378459487
51
165.32186348814503
0
SPLINE
5
134
100
AcDbEntity
8
0
100
AcDbSpline
70
1064
71
5
72
81
73
75
74
0
42
0.000000001
43
0.0000000001
44
0.0000000001
40
-1
40
-1
40
-1
40
-1
40
-1
40
-1
40
-0.9857142857142841
40
-0.97142857142856986
40
-0.95714285714285563
40
-0.94285714285714139
40
-0.92857142857142716
40
-0.91428571428571292
40
-0.89999999999999869
40
-0.88571428571428445
40
-0.87142857142857022
40
-0.85714285714285599
40
-0.84285714285714175
40
-0.82857142857142752
40
-0.81428571428571328
40
-0.79999999999999905
40
-0.78571428571428481
40
-0.77142857142857058
40
-0.75714285714285634
40
-0.74285714285714211
40
-0.72857142857142787
40
-0.71428571428571364
40
-0.6999999999999994
40
-0.68571428571428517
40
-0.67142857142857093
40
-0.6571428571428567
40
-0.64285714285714246
40
-0.62857142857142823
40
-0.61428571428571399
40
-0.59999999999999976
40
-0.58571428571428552
40
-0.57142857142857129
40
-0.55714285714285705
40
-0.54285714285714282
40
-0.52857142857142858
40
-0.51428571428571435
40
-0.50000000000000011
40
-0.48571428571428582
40
-0.47142857142857153
40
-0.45714285714285724
40
-0.44285714285714295
40
-0.42857142857142866
40
-0.41428571428571437
40
-0.40000000000000008
40
-0.38571428571428579
40
-0.3714285714285715
40
-0.35714285714285721
40
-0.34285714285714292
40
-0.32857142857142863
40
-0.31428571428571433
40
-0.30000000000000004
40
-0.28571428571428575
40
-0.27142857142857146
40
-0.25714285714285717
40
-0.24285714285714291
40
-0.22857142857142862
40
-0.21428571428571433
40
-0.20000000000000004
40
-0.18571428571428575
40
-0.17142857142857146
40
-0.15714285714285717
40
-0.14285714285714288
40
-0.12857142857142859
40
-0.1142857142857143
40
-0.10000000000000001
40
-0.085714285714285715
40
-0.071428571428571425
40
-0.057142857142857141
40
-0.042857142857142858
40
-0.028571428571428571
40
-0.014285714285714285
40
-0
40
-0
40
-0
40
-0
40
-0
40
-0
10
-23.21674833139744
20
6.0813318373982899
30
0
10
-23.209147788254928
20
6.0736759476248814
30
0
10
-23.193934908578623
20
6.0583864148152413
30
0
10
-23.171080208893812
20
6.0355188558144457
30
0
10
-23.140536492100559
20
6.0051623019025291
30
0
10
-23.102238746714498
20
5.9674395020005608
30
0
10
-23.063822758336045
20
5.9299402033419737
30
0
10
-23.025288418108151
20
5.8926652898174039
30
0
10
-22.986635701509655
20
5.8556159340362939
30
0
10
-22.947864726760734
20
5.818793618139817
30
0
10
-22.90897571943729
20
5.7822000606376616
30
0
10
-22.869968967935726
20
5.745837133462036
30
0
10
-22.830844782137945
20
5.7097067784864137
30
0
10
-22.791603453918473
20
5.6738109287252856
30
0
10
-22.752245211815229
20
5.638151410151937
30
0
10
-22.71277022575461
20
5.6027299734086426
30
0
10
-22.673178623743361
20
5.5675483535495491
30
0
10
-22.633470505571939
20
5.532608320525668
30
0
10
-22.593645957765172
20
5.4979117271843982
30
0
10
-22.553705070951843
20
5.4634605684549626
30
0
10
-22.513647943934352
20
5.4292569627143239
30
0
10
-22.47347468278911
20
5.3953031059731522
30
0
10
-22.433185403107881
20
5.3616012301727665
30
0
10
-22.392780230272557
20
5.3281535652983365
30
0
10
-22.352259305287813
20
5.2949622795899156
30
0
10
-22.311622769297095
20
5.2620295230369418
30
0
10
-22.27087073960595
20
5.2293575161737298
30
0
10
-22.230003287165424
20
5.19694862889832
30
0
10
-22.189020418668402
20
5.1648054481553851
30
0
10
-22.147922046396047
20
5.1329308825543833
30
0
10
-22.106708016527257
20
5.1013280886124122
30
0
10
-22.065378168267266
20
5.0700003018333621
30
0
10
-22.023932389565303
20
5.0389506806059448
30
0
10
-21.982370663426025
20
5.0081821753488152
30
0
10
-21.940693148360289
20
4.9776973034330609
30
0
10
-21.898900112803549
20
4.9474983308098892
30
0
10
-21.856991782786245
20
4.9175876959495879
30
0
10
-21.814968204224776
20
4.8879683925350781
30
0
10
-21.772829126863726
20
4.8586442937605536
30
0
10
-21.730573812330288
20
4.8296206840899538
30
0
10
-21.688201175387675
20
4.8009038801208304
30
0
10
-21.645710131732049
20
4.772500286746074
30
0
10
-21.603099913920101
20
4.7444155406503228
30
0
10
-21.560370337384846
20
4.7166537904493921
30
0
10
-21.517522249059443
20
4.6892164775795164
30
0
10
-21.474557175311237
20
4.6621033071631963
30
0
10
-21.431476490071262
20
4.6353145316899909
30
0
10
-21.388280661019316
20
4.6088530204740064
30
0
10
-21.344968611481214
20
4.5827260146760675
30
0
10
-21.30153666228917
20
4.5569480263965465
30
0
10
-21.257979403747534
20
4.5315384802382397
30
0
10
-21.21429160408152
20
4.5065165324371934
30
0
10
-21.170469953162812
20
4.4818963368886413
30
0
10
-21.126514538971964
20
4.4576830436530246
30
0
10
-21.082431294607904
20
4.4338661427698414
30
0
10
-21.03822964429866
20
4.4104259383634492
30
0
10
-20.993918014920084
20
4.3873458620101227
30
0
10
-20.949499698538759
20
4.3646238227206648
30
0
10
-20.90496928864836
20
4.3422819962639831
30
0
10
-20.860307017406821
20
4.320382334084333
30
0
10
-20.815484980978542
20
4.2990096862097413
30
0
10
-20.770477339018147
20
4.2782441237632209
30
0
10
-20.725269835653137
20
4.258135056223078
30
0
10
-20.679868210283502
20
4.2386784983098726
30
0
10
-20.634310758006833
20
4.2197827148221503
30
0
10
-20.588650877420367
20
4.2013177792188099
30
0
10
-20.542932903393705
20
4.1831838588512458
30
0
10
-20.497169501793529
20
4.1653752373293802
30
0
10
-20.451320039088738
20
4.1480413871472601
30
0
10
-20.405264033336362
20
4.1315623947214988
30
0
10
-20.358835822973596
20
4.1164463387687382
30
0
10
-20.321260130294835
20
4.1058543876919034
30
0
10
-20.292774594067069
20
4.0989359119022399
30
0
10
-20.273641523267184
20
4.0948024855228145
30
0
10
-20.264039309120484
20
4.0928554962535335
30
0
0
LINE
5
135
100
AcDbEntity
8
0
100
AcDbLine
10
-20.264039309120484
20
4.0928554962535335
30
0
11
-19.645953128508712
21
3.9675294888601043
31
0
0
ARC
5
136
100
AcDbEntity
8
0
100
AcDbCircle
10
-19.7453134843417
20
3.4775014083496658
30
0
40
0.49999999999999911
100
AcDbArc
50
-9.9883764772586474
51
78.537840298700843
0
ARC
5
137
100
AcDbEntity
8
0
100
AcDbCircle
10
-4.1269916103405861e-13
20
2.8703857137746221e-12
30
0
40
19.549199999999097
100
AcDbArc
50
170.01162352274946
51
173.62474011363054
0
ARC
5
138
100
AcDbEntity
8
0
100
AcDbCircle
10
-19.925214913235475
20
2.2262594865331247
30
0
40
0.49999999999999994
100
AcDbArc
50
265.09852333766315
51
353.62474011362212
0
LINE
5
139
100
AcDbEntity
8
0
100
AcDbLine
10
-19.967936214004187
20
1.7280879393120605
30
0
11
-20.596293977891087
21
1.7819735158190118
31
0
0
SPLINE
5
140
100
AcDbEntity
8
0
100
AcDbSpline
70
1064
71
5
72
81
73
75
74
0
42
0.000000001
43
0.0000000001
44
0.0000000001
40
0
40
0
40
0
40
0
40
0
40
0
40
0.014285714285714285
40
0.028571428571428571
40
0.042857142857142858
40
0.057142857142857141
40
0.071428571428571425
40
0.085714285714285715
40
0.10000000000000001
40
0.1142857142857143
40
0.12857142857142859
40
0.14285714285714288
40
0.15714285714285717
40
0.17142857142857146
40
0.18571428571428575
40
0.20000000000000004
40
0.21428571428571433
40
0.22857142857142862
40
0.24285714285714291
40
0.25714285714285717
40
0.27142857142857146
40
0.28571428571428575
40
0.30000000000000004
40
0.31428571428571433
40
0.32857142857142863
40
0.34285714285714292
40
0.35714285714285721
40
0.3714285714285715
40
0.38571428571428579
40
0.40000000000000008
40
0.41428571428571437
40
0.42857142857142866
40
0.44285714285714295
40
0.45714285714285724
40
0.47142857142857153
40
0.48571428571428582
40
0.50000000000000011
40
0.51428571428571435
40
0.52857142857142858
40
0.54285714285714282
40
0.55714285714285705
40
0.57142857142857129
40
0.58571428571428552
40
0.59999999999999976
40
0.61428571428571399
40
0.62857142857142823
40
0.64285714285714246
40
0.6571428571428567
40
0.67142857142857093
40
0.68571428571428517
40
0.6999999999999994
40
0.71428571428571364
40
0.72857142857142787
40
0.74285714285714211
40
0.75714285714285634
40
0.77142857142857058
40
0.78571428571428481
40
0.79999999999999905
40
0.81428571428571328
40
0.82857142857142752
40
0.84285714285714175
40
0.85714285714285599
40
0.87142857142857022
40
0.88571428571428445
40
0.89999999999999869
40
0.91428571428571292
40
0.92857142857142716
40
0.94285714285714139
40
0.95714285714285563
40
0.97142857142856986
40
0.9857142857142841
40
1
40
1
40
1
40
1
40
1
40
1
10
-20.596293977891087
20
1.7819735158190118
30
0
10
-20.60605576516096
20
1.7828106496383214
30
0
10
-20.625578332939511
20
1.784235065026992
30
0
10
-20.654859164673365
20
1.7856221390731355
30
0
10
-20.693896875236149
20
1.786045532411519
30
0
10
-20.742703101949648
20
1.7846221213511551
30
0
10
-20.791536184532081
20
1.7817861201649099
30
0
10
-20.840411931773044
20
1.7780716990671073
30
0
10
-20.889338862532291
20
1.7738774919896962
30
0
10
-20.938313853129472
20
1.7693583645290749
30
0
10
-20.987326361247707
20
1.7645052634621259
30
0
10
-21.036361973998467
20
1.7592099094878013
30
0
10
-21.085406060339523
20
1.7533325948795009
30
0
10
-21.134447721186689
20
1.746774511380236
30
0
10
-21.183482572408955
20
1.7395302181665537
30
0
10
-21.232510372157162
20
1.7316511396291243
30
0
10
-21.281533355418919
20
1.7232213835144434
30
0
10
-21.330554390713079
20
1.7143302242471623
30
0
10
-21.379574991406418
20
1.7050426730474375
30
0
10
-21.428594097367686
20
1.6953815305985687
30
0
10
-21.477609138981872
20
1.6853438631287831
30
0
10
-21.526616698585176
20
1.6749113992266473
30
0
10
-21.575613282666431
20
1.6640625857260187
30
0
10
-21.624596159456949
20
1.652785666846508
30
0
10
-21.673563793600309
20
1.6410855592479372
30
0
10
-21.722515373528278
20
1.6289767760642471
30
0
10
-21.771450522156641
20
1.6164791715306113
30
0
10
-21.820368957507359
20
1.603612907504316
30
0
10
-21.869270121184922
20
1.5903929447850464
30
0
10
-21.918153006179896
20
1.5768265345499106
30
0
10
-21.967016355377588
20
1.5629162981249993
30
0
10
-22.015858779366319
20
1.548662090691175
30
0
10
-22.064678896683919
20
1.5340631992881701
30
0
10
-22.113475488604468
20
1.5191207683552812
30
0
10
-22.162247563418539
20
1.5038388304587589
30
0
10
-22.210994269445031
20
1.4882230101716756
30
0
10
-22.259714842599003
20
1.4722797584274492
30
0
10
-22.308408544566344
20
1.4560154417035831
30
0
10
-22.357074595005038
20
1.439435338429754
30
0
10
-22.405712142828506
20
1.4225432354136762
30
0
10
-22.45432030056233
20
1.4053419921369328
30
0
10
-22.50289816433542
20
1.3878338846144933
30
0
10
-22.551444838193632
20
1.3700210113836202
30
0
10
-22.599959460821502
20
1.35190574318651
30
0
10
-22.648441217296966
20
1.3334909157172739
30
0
10
-22.696889325311012
20
1.3147795909960389
30
0
10
-22.745303027598304
20
1.2957749187671741
30
0
10
-22.793681582455491
20
1.2764799710230688
30
0
10
-22.84202425459819
20
1.2568975632673158
30
0
10
-22.890330308778086
20
1.2370301757695428
30
0
10
-22.938599009240718
20
1.2168800624410514
30
0
10
-22.986829617835429
20
1.1964493208201215
30
0
10
-23.035021393414045
20
1.1757399740418086
30
0
10
-23.083173589819772
20
1.1547540627916026
30
0
10
-23.131285458490126
20
1.1334936914004419
30
0
10
-23.179356259705099
20
1.1119609688343777
30
0
10
-23.227385272997413
20
1.090157972265041
30
0
10
-23.27537180675111
20
1.0680867064243886
30
0
10
-23.32331521197198
20
1.0457490598999113
30
0
10
-23.371214883632643
20
1.0231467861088137
30
0
10
-23.419070227332025
20
1.0002815551924302
30
0
10
-23.466880631427305
20
0.97715499585935528
30
0
10
-23.514645439662388
20
0.95376873996475764
30
0
10
-23.562363918320621
20
0.93012447513059859
30
0
10
-23.610035242757323
20
0.90622397384014453
30
0
10
-23.657658568554019
20
0.88206901200352683
30
0
10
-23.705233091612126
20
0.85766130447589162
30
0
10
-23.752758111333037
20
0.833002436603135
30
0
10
-23.800233096717889
20
0.80809379718282437
30
0
10
-23.84765774093232
20
0.78293651823389121
30
0
10
-23.895031899403122
20
0.75753147851176306
30
0
10
-23.932890810604817
20
0.73700973775773237
30
0
10
-23.961262270232481
20
0.7215073885508001
30
0
10
-23.980166480561707
20
0.71112315273822835
30
0
10
-23.989616061703366
20
0.70591870074680019
30
0
0
ARC
5
141
100
AcDbEntity
8
0
100
AcDbCircle
10
-4.1269916103405861e-13
20
2.8703857137746221e-12
30
0
40
23.99999999999951
100
AcDbArc
50
178.31450014823199
51
181.68549985178183
0
SPLINE
5
142
100
AcDbEntity
8
0
100
AcDbSpline
70
1064
71
5
72
81
73
75
74
0
42
0.000000001
43
0.0000000001
44
0.0000000001
40
-1
40
-1
40
-1
40
-1
40
-1
40
-1
40
-0.9857142857142841
40
-0.97142857142856986
40
-0.95714285714285563
40
-0.94285714285714139
40
-0.92857142857142716
40
-0.91428571428571292
40
-0.89999999999999869
40
-0.88571428571428445
40
-0.87142857142857022
40
-0.85714285714285599
40
-0.84285714285714175
40
-0.82857142857142752
40
-0.81428571428571328
40
-0.79999999999999905
40
-0.78571428571428481
40
-0.77142857142857058
40
-0.75714285714285634
40
-0.74285714285714211
40
-0.72857142857142787
40
-0.71428571428571364
40
-0.6999999999999994
40
-0.68571428571428517
40
-0.67142857142857093
40
-0.6571428571428567
40
-0.64285714285714246
40
-0.62857142857142823
40
-0.61428571428571399
40
-0.59999999999999976
40
-0.58571428571428552
40
-0.57142857142857129
40
-0.55714285714285705
40
-0.54285714285714282
40
-0.52857142857142858
40
-0.51428571428571435
40
-0.50000000000000011
40
-0.48571428571428582
40
-0.47142857142857153
40
-0.45714285714285724
40
-0.44285714285714295
40
-0.42857142857142866
40
-0.41428571428571437
40
-0.40000000000000008
40
-0.38571428571428579
40
-0.3714285714285715
40
-0.35714285714285721
40
-0.34285714285714292
40
-0.32857142857142863
40
-0.31428571428571433
40
-0.30000000000000004
40
-0.28571428571428575
40
-0.27142857142857146
40
-0.25714285714285717
40
-0.24285714285714291
40
-0.22857142857142862
40
-0.21428571428571433
40
-0.20000000000000004
40
-0.18571428571428575
40
-0.17142857142857146
40
-0.15714285714285717
40
-0.14285714285714288
40
-0.12857142857142859
40
-0.1142857142857143
40
-0.10000000000000001
40
-0.085714285714285715
40
-0.071428571428571425
40
-0.057142857142857141
40
-0.042857142857142858
40
-0.028571428571428571
40
-0.014285714285714285
40
-0
40
-0
40
-0
40
-0
40
-0
40
-0
10
-23.989616061703366
20
-0.7059187007467943
30
0
10
-23.980166480561707
20
-0.71112315273822246
30
0
10
-23.961262270232481
20
-0.72150738855079433
30
0
10
-23.932890810604817
20
-0.7370097377577266
30
0
10
-23.895031899403122
20
-0.75753147851175717
30
0
10
-23.84765774093232
20
-0.78293651823388544
30
0
10
-23.800233096717889
20
-0.80809379718281849
30
0
10
-23.752758111333037
20
-0.83300243660312911
30
0
10
-23.705233091612126
20
-0.85766130447588573
30
0
10
-23.657658568554019
20
-0.88206901200352106
30
0
10
-23.610035242757323
20
-0.90622397384013875
30
0
10
-23.562363918320621
20
-0.93012447513059271
30
0
10
-23.514645439662388
20
-0.95376873996475187
30
0
10
-23.466880631427305
20
-0.97715499585934951
30
0
10
-23.419070227332025
20
-1.0002815551924242
30
0
10
-23.371214883632643
20
-1.0231467861088079
30
0
10
-23.32331521197198
20
-1.0457490598999055
30
0
10
-23.27537180675111
20
-1.0680867064243829
30
0
10
-23.227385272997413
20
-1.0901579722650354
30
0
10
-23.179356259705099
20
-1.1119609688343721
30
0
10
-23.131285458490126
20
-1.1334936914004361
30
0
10
-23.083173589819772
20
-1.1547540627915971
30
0
10
-23.035021393414045
20
-1.1757399740418031
30
0
10
-22.986829617835429
20
-1.1964493208201159
30
0
10
-22.938599009240718
20
-1.2168800624410459
30
0
10
-22.890330308778086
20
-1.2370301757695372
30
0
10
-22.84202425459819
20
-1.2568975632673101
30
0
10
-22.793681582455491
20
-1.2764799710230632
30
0
10
-22.745303027598304
20
-1.2957749187671685
30
0
10
-22.696889325311012
20
-1.3147795909960334
30
0
10
-22.648441217296966
20
-1.3334909157172683
30
0
10
-22.599959460821502
20
-1.3519057431865045
30
0
10
-22.551444838193632
20
-1.3700210113836149
30
0
10
-22.50289816433542
20
-1.3878338846144878
30
0
10
-22.45432030056233
20
-1.4053419921369272
30
0
10
-22.405712142828506
20
-1.4225432354136709
30
0
10
-22.357074595005038
20
-1.4394353384297485
30
0
10
-22.308408544566344
20
-1.4560154417035776
30
0
10
-22.259714842599003
20
-1.4722797584274436
30
0
10
-22.210994269445031
20
-1.48822301017167
30
0
10
-22.162247563418539
20
-1.5038388304587533
30
0
10
-22.113475488604468
20
-1.5191207683552757
30
0
10
-22.064678896683919
20
-1.5340631992881646
30
0
10
-22.015858779366319
20
-1.5486620906911694
30
0
10
-21.967016355377588
20
-1.562916298124994
30
0
10
-21.918153006179896
20
-1.5768265345499048
30
0
10
-21.869270121184922
20
-1.5903929447850409
30
0
10
-21.820368957507359
20
-1.6036129075043104
30
0
10
-21.771450522156641
20
-1.6164791715306057
30
0
10
-21.722515373528278
20
-1.6289767760642415
30
0
10
-21.673563793600309
20
-1.6410855592479319
30
0
10
-21.624596159456949
20
-1.6527856668465024
30
0
10
-21.575613282666431
20
-1.6640625857260134
30
0
10
-21.526616698585176
20
-1.6749113992266422
30
0
10
-21.477609138981872
20
-1.6853438631287783
30
0
10
-21.428594097367686
20
-1.6953815305985636
30
0
10
-21.379574991406418
20
-1.7050426730474324
30
0
10
-21.330554390713079
20
-1.7143302242471572
30
0
10
-21.281533355418919
20
-1.7232213835144383
30
0
10
-21.232510372157162
20
-1.7316511396291192
30
0
10
-21.183482572408955
20
-1.7395302181665486
30
0
10
-21.134447721186689
20
-1.7467745113802311
30
0
10
-21.085406060339523
20
-1.7533325948794958
30
0
10
-21.036361973998467
20
-1.7592099094877964
30
0
10
-20.987326361247707
20
-1.7645052634621208
30
0
10
-20.938313853129472
20
-1.76935836452907
30
0
10
-20.889338862532291
20
-1.7738774919896914
30
0
10
-20.840411931773044
20
-1.7780716990671022
30
0
10
-20.791536184532081
20
-1.781786120164905
30
0
10
-20.742703101949648
20
-1.7846221213511502
30
0
10
-20.693896875236149
20
-1.7860455324115141
30
0
10
-20.654859164673365
20
-1.7856221390731306
30
0
10
-20.625578332939511
20
-1.7842350650269869
30
0
10
-20.60605576516096
20
-1.7828106496383165
30
0
10
-20.596293977891087
20
-1.7819735158190066
30
0
0
LINE
5
143
100
AcDbEntity
8
0
100
AcDbLine
10
-20.596293977891087
20
-1.7819735158190066
30
0
11
-19.967936214004187
21
-1.7280879393120518
31
0
0
ARC
5
144
100
AcDbEntity
8
0
100
AcDbCircle
10
-19.925214913235475
20
-2.2262594865331158
30
0
40
0.50000000000000056
100
AcDbArc
50
6.3752598863776235
51
94.901476662336847
0
ARC
5
145
100
AcDbEntity
8
0
100
AcDbCircle
10
-4.1269916103405861e-13
20
2.8703857137746221e-12
30
0
40
19.54919999999991
100
AcDbArc
50
186.37525988638617
51
189.98837647726714
0
ARC
5
146
100
AcDbEntity
8
0
100
AcDbCircle
10
-19.7453134843417
20
-3.4775014083496658
30
0
40
0.49999999999999967
100
AcDbArc
50
-78.537840298700758
51
9.988376477257928
0
LINE
5
147
100
AcDbEntity
8
0
100
AcDbLine
10
-19.645953128508712
20
-3.9675294888601007
30
0
11
-20.264039309120484
21
-4.0928554962535282
31
0
0
SPLINE
5
148
100
AcDbEntity
8
0
100
AcDbSpline
70
1064
71
5
72
81
73
75
74
0
42
0.000000001
43
0.0000000001
44
0.0000000001
40
0
40
0
40
0
40
0
40
0
40
0
40
0.014285714285714285
40
0.028571428571428571
40
0.042857142857142858
40
0.057142857142857141
40
0.071428571428571425
40
0.085714285714285715
40
0.10000000000000001
40
0.1142857142857143
40
0.12857142857142859
40
0.14285714285714288
40
0.15714285714285717
40
0.17142857142857146
40
0.18571428571428575
40
0.20000000000000004
40
0.21428571428571433
40
0.22857142857142862
40
0.24285714285714291
40
0.25714285714285717
40
0.27142857142857146
40
0.28571428571428575
40
0.30000000000000004
40
0.31428571428571433
40
0.32857142857142863
40
0.34285714285714292
40
0.35714285714285721
40
0.3714285714285715
40
0.38571428571428579
40
0.40000000000000008
40
0.41428571428571437
40
0.42857142857142866
40
0.44285714285714295
40
0.45714285714285724
40
0.47142857142857153
40
0.48571428571428582
40
0.50000000000000011
40
0.51428571428571435
40
0.52857142857142858
40
0.54285714285714282
40
0.55714285714285705
40
0.57142857142857129
40
0.58571428571428552
40
0.59999999999999976
40
0.61428571428571399
40
0.62857142857142823
40
0.64285714285714246
40
0.6571428571428567
40
0.67142857142857093
40
0.68571428571428517
40
0.6999999999999994
40
0.71428571428571364
40
0.72857142857142787
40
0.74285714285714211
40
0.75714285714285634
40
0.77142857142857058
40
0.78571428571428481
40
0.79999999999999905
40
0.81428571428571328
40
0.82857142857142752
40
0.84285714285714175
40
0.85714285714285599
40
0.87142857142857022
40
0.88571428571428445
40
0.89999999999999869
40
0.91428571428571292
40
0.92857142857142716
40
0.94285714285714139
40
0.95714285714285563
40
0.97142857142856986
40
0.9857142857142841
40
1
40
1
40
1
40
1
40
1
40
1
10
-20.264039309120484
20
-4.0928554962535282
30
0
10
-20.273641523267184
20
-4.0948024855228091
30
0
10
-20.292774594067069
20
-4.0989359119022328
30
0
10
-20.321260130294839
20
-4.105854387691898
30
0
10
-20.358835822973603
20
-4.1164463387687329
30
0
10
-20.405264033336362
20
-4.1315623947214917
30
0
10
-20.451320039088738
20
-4.1480413871472548
30
0
10
-20.497169501793529
20
-4.1653752373293749
30
0
10
-20.542932903393712
20
-4.1831838588512404
30
0
10
-20.588650877420367
20
-4.2013177792188037
30
0
10
-20.634310758006833
20
-4.219782714822145
30
0
10
-20.679868210283505
20
-4.2386784983098673
30
0
10
-20.725269835653137
20
-4.2581350562230726
30
0
10
-20.770477339018147
20
-4.2782441237632156
30
0
10
-20.815484980978542
20
-4.2990096862097342
30
0
10
-20.860307017406821
20
-4.3203823340843268
30
0
10
-20.90496928864836
20
-4.342281996263976
30
0
10
-20.949499698538766
20
-4.3646238227206577
30
0
10
-20.993918014920084
20
-4.3873458620101156
30
0
10
-21.03822964429866
20
-4.4104259383634439
30
0
10
-21.082431294607908
20
-4.4338661427698352
30
0
10
-21.126514538971968
20
-4.4576830436530193
30
0
10
-21.170469953162812
20
-4.4818963368886342
30
0
10
-21.214291604081524
20
-4.5065165324371872
30
0
10
-21.257979403747534
20
-4.5315384802382326
30
0
10
-21.30153666228917
20
-4.5569480263965403
30
0
10
-21.344968611481217
20
-4.5827260146760604
30
0
10
-21.388280661019316
20
-4.6088530204739993
30
0
10
-21.431476490071262
20
-4.6353145316899855
30
0
10
-21.47455717531124
20
-4.6621033071631901
30
0
10
-21.517522249059443
20
-4.6892164775795102
30
0
10
-21.56037033738485
20
-4.7166537904493868
30
0
10
-21.603099913920101
20
-4.7444155406503166
30
0
10
-21.645710131732052
20
-4.7725002867460677
30
0
10
-21.688201175387679
20
-4.800903880120825
30
0
10
-21.730573812330292
20
-4.8296206840899476
30
0
10
-21.772829126863726
20
-4.8586442937605483
30
0
10
-21.814968204224776
20
-4.8879683925350728
30
0
10
-21.856991782786245
20
-4.9175876959495826
30
0
10
-21.898900112803553
20
-4.9474983308098839
30
0
10
-21.940693148360296
20
-4.9776973034330538
30
0
10
-21.982370663426025
20
-5.0081821753488089
30
0
10
-22.02393238956531
20
-5.0389506806059376
30
0
10
-22.065378168267273
20
-5.070000301833355
30
0
10
-22.106708016527257
20
-5.1013280886124059
30
0
10
-22.147922046396054
20
-5.1329308825543762
30
0
10
-22.189020418668402
20
-5.1648054481553789
30
0
10
-22.230003287165424
20
-5.1969486288983138
30
0
10
-22.270870739605954
20
-5.2293575161737227
30
0
10
-22.311622769297102
20
-5.2620295230369347
30
0
10
-22.352259305287813
20
-5.2949622795899085
30
0
10
-22.392780230272564
20
-5.3281535652983303
30
0
10
-22.433185403107881
20
-5.3616012301727602
30
0
10
-22.47347468278911
20
-5.395303105973146
30
0
10
-22.513647943934352
20
-5.4292569627143177
30
0
10
-22.553705070951843
20
-5.4634605684549564
30
0
10
-22.593645957765172
20
-5.4979117271843911
30
0
10
-22.633470505571939
20
-5.5326083205256618
30
0
10
-22.673178623743361
20
-5.5675483535495429
30
0
10
-22.71277022575461
20
-5.6027299734086355
30
0
10
-22.752245211815236
20
-5.6381514101519308
30
0
10
-22.791603453918473
20
-5.6738109287252794
30
0
10
-22.830844782137945
20
-5.7097067784864075
30
0
10
-22.86996896793573
20
-5.7458371334620306
30
0
10
-22.90897571943729
20
-5.7822000606376545
30
0
10
-22.947864726760741
20
-5.8187936181398108
30
0
10
-22.986635701509655
20
-5.8556159340362868
30
0
10
-23.025288418108154
20
-5.8926652898173977
30
0
10
-23.063822758336045
20
-5.9299402033419666
30
0
10
-23.102238746714502
20
-5.9674395020005546
30
0
10
-23.140536492100562
20
-6.0051623019025229
30
0
10
-23.171080208893816
20
-6.0355188558144395
30
0
10
-23.193934908578623
20
-6.0583864148152342
30
0
10
-23.209147788254928
20
-6.0736759476248743
30
0
10
-23.216748331397447
20
-6.0813318373982828
30
0
0
ARC
5
149
100
AcDbEntity
8
0
100
AcDbCircle
10
-4.1269916103405861e-13
20
2.8703857137746221e-12
30
0
40
24.000000000000327
100
AcDbArc
50
194.67813651186822
51
198.04913621541814
0
SPLINE
5
150
100
AcDbEntity
8
0
100
AcDbSpline
70
1064
71
5
72
81
73
75
74
0
42
0.000000001
43
0.0000000001
44
0.0000000001
40
-1
40
-1
40
-1
40
-1
40
-1
40
-1
40
-0.9857142857142841
40
-0.97142857142856986
40
-0.95714285714285563
40
-0.94285714285714139
40
-0.92857142857142716
40
-0.91428571428571292
40
-0.89999999999999869
40
-0.88571428571428445
40
-0.87142857142857022
40
-0.85714285714285599
40
-0.84285714285714175
40
-0.82857142857142752
40
-0.81428571428571328
40
-0.79999999999999905
40
-0.78571428571428481
40
-0.77142857142857058
40
-0.75714285714285634
40
-0.74285714285714211
40
-0.72857142857142787
40
-0.71428571428571364
40
-0.6999999999999994
40
-0.68571428571428517
40
-0.67142857142857093
40
-0.6571428571428567
40
-0.64285714285714246
40
-0.62857142857142823
40
-0.61428571428571399
40
-0.59999999999999976
40
-0.58571428571428552
40
-0.57142857142857129
40
-0.55714285714285705
40
-0.54285714285714282
40
-0.52857142857142858
40
-0.51428571428571435
40
-0.50000000000000011
40
-0.48571428571428582
40
-0.47142857142857153
40
-0.45714285714285724
40
-0.44285714285714295
40
-0.42857142857142866
40
-0.41428571428571437
40
-0.40000000000000008
40
-0.38571428571428579
40
-0.3714285714285715
40
-0.35714285714285721
40
-0.34285714285714292
40
-0.32857142857142863
40
-0.31428571428571433
40
-0.30000000000000004
40
-0.28571428571428575
40
-0.27142857142857146
40
-0.25714285714285717
40
-0.24285714285714291
40
-0.22857142857142862
40
-0.21428571428571433
40
-0.20000000000000004
40
-0.18571428571428575
40
-0.17142857142857146
40
-0.15714285714285717
40
-0.14285714285714288
40
-0.12857142857142859
40
-0.1142857142857143
40
-0.10000000000000001
40
-0.085714285714285715
40
-0.071428571428571425
40
-0.057142857142857141
40
-0.042857142857142858
40
-0.028571428571428571
40
-0.014285714285714285
40
-0
40
-0
40
-0
40
-0
40
-0
40
-0
10
-22.818987770430297
20
-7.4359799040175378
30
0
10
-22.808454700154769
20
-7.4383112844787069
30
0
10
-22.787390665865829
20
-7.4429489542661056
30
0
10
-22.75580093322278
20
-7.4498301855424494
30
0
10
-22.713693931442588
20
-7.4588545637501946
30
0
10
-22.661081332461382
20
-7.4698836780637832
30
0
10
-22.608490095040011
20
-7.4806608441787183
30
0
10
-22.555920605469471
20
-7.4911852596663202
30
0
10
-22.503373477081755
20
-7.5014559248076047
30
0
10
-22.450849610636045
20
-7.5114716566607376
30
0
10
-22.398350124995325
20
-7.5212311314789027
30
0
10
-22.345876274817059
20
-7.5307329304113875
30
0
10
-22.29342937064655
20
-7.5399755873850776
30
0
10
-22.241010703090808
20
-7.5489576340439832
30
0
10
-22.188621451603865
20
-7.5576776578385623
30
0
10
-22.13626270560556
20
-7.5661342779039531
30
0
10
-22.083935510823117
20
-7.5743261038253991
30
0
10
-22.031640908113378
20
-7.5822517005761583
30
0
10
-21.979379971990575
20
-7.5899095562206567
30
0
10
-21.927153857236682
20
-7.5972980415152609
30
0
10
-21.874963792250597
20
-7.6044154277844793
30
0
10
-21.8228110535225
20
-7.6112599249758155
30
0
10
-21.770696944972933
20
-7.6178297179543684
30
0
10
-21.71862277770088
20
-7.6241229985238146
30
0
10
-21.666589842566065
20
-7.6301380188774228
30
0
10
-21.61459942067799
20
-7.6358730466368963
30
0
10
-21.562652811231832
20
-7.6413262771900641
30
0
10
-21.510751355179018
20
-7.6464957552108528
30
0
10
-21.458896456757856
20
-7.6513793080413723
30
0
10
-21.407089614687568
20
-7.6559744413792563
30
0
10
-21.355332406107568
20
-7.6602784166313729
30
0
10
-21.303626444994173
20
-7.6642884249864345
30
0
10
-21.251973344638131
20
-7.668001748859556
30
0
10
-21.200374685858794
20
-7.6714158970122428
30
0
10
-21.148831962997562
20
-7.6745288373946243
30
0
10
-21.097346626942404
20
-7.6773388088943921
30
0
10
-21.045920186178797
20
-7.6798438823410873
30
0
10
-20.994554297841272
20
-7.6820415641126614
30
0
10
-20.943250845408432
20
-7.6839284605725178
30
0
10
-20.892012064718458
20
-7.6854997269522212
30
0
10
-20.840840457822537
20
-7.6867494626684643
30
0
10
-20.789738575292755
20
-7.6876716933635603
30
0
10
-20.738708818936502
20
-7.6882612622454625
30
0
10
-20.687753276397217
20
-7.688514579492022
30
0
10
-20.636873439459645
20
-7.6884308903765408
30
0
10
-20.586070432762931
20
-7.6880112681822581
30
0
10
-20.53534554863754
20
-7.6872562433046241
30
0
10
-20.484700731789097
20
-7.6861636547698069
30
0
10
-20.434138991328744
20
-7.6847268288316659
30
0
10
-20.383665077977394
20
-7.682931568026218
30
0
10
-20.333284942542598
20
-7.6807586066354556
30
0
10
-20.283004540418457
20
-7.6781890008971345
30
0
10
-20.23282873912131
20
-7.6752090542064035
30
0
10
-20.18276039699801
20
-7.6718144816226044
30
0
10
-20.132798823175339
20
-7.6680173323625915
30
0
10
-20.082941297424117
20
-7.6638392707736767
30
0
10
-20.033185951317289
20
-7.6592987910139056
30
0
10
-19.983534423843377
20
-7.654399431960889
30
0
10
-19.93399415588566
20
-7.6491196151926939
30
0
10
-19.884582011156645
20
-7.6433965365356844
30
0
10
-19.835320388844558
20
-7.6371437296515339
30
0
10
-19.786230840384963
20
-7.6302798640796787
30
0
10
-19.737328085755497
20
-7.6227556666153786
30
0
10
-19.68861479864195
20
-7.614577592842946
30
0
10
-19.640073599136148
20
-7.6058435192175544
30
0
10
-19.591679165405278
20
-7.5966916163621709
30
0
10
-19.543414820710275
20
-7.5872298380852765
30
0
10
-19.495288129742413
20
-7.5774698410047314
30
0
10
-19.44734572033148
20
-7.5672639127113861
30
0
10
-19.399691726848289
20
-7.5562271667083527
30
0
10
-19.352461474010582
20
-7.5438426165775603
30
0
10
-19.315124348707368
20
-7.5324381796342177
30
0
10
-19.287420380314693
20
-7.522857928242237
30
0
10
-19.269089917893716
20
-7.5159910687489386
30
0
10
-19.259959399449684
20
-7.5124376314444516
30
0
0
LINE
5
151
100
AcDbEntity
8
0
100
AcDbLine
10
-19.259959399449684
20
-7.5124376314444525
30
0
11
-18.672235861330268
21
-7.283705959975844
31
0
0
ARC
5
152
100
AcDbEntity
8
0
100
AcDbCircle
10
-18.490893929674776
20
-7.7496620778919567
30
0
40
0.50000000000000022
100
AcDbArc
50
22.738896250013838
51
111.26511302597325
0
ARC
5
153
100
AcDbEntity
8
0
100
AcDbCircle
10
-4.1269916103405861e-13
20
2.8703857137746221e-12
30
0
40
19.549200000000731
100
AcDbArc
50
202.73889625002229
51
206.35201284090303
0
ARC
5
154
100
AcDbEntity
8
0
100
AcDbCircle
10
-17.965764186847426
20
-8.8995358206251733
30
0
40
0.49999999999999994
100
AcDbArc
50
-62.174203935064455
51
26.352012840895291
0
LINE
5
155
100
AcDbEntity
8
0
100
AcDbLine
10
-17.732371759523534
20
-9.3417212736512347
30
0
11
-18.290112690407071
21
-9.6361056971684977
31
0
0
SPLINE
5
156
100
AcDbEntity
8
0
100
AcDbSpline
70
1064
71
5
72
81
73
75
74
0
42
0.000000001
43
0.0000000001
44
0.0000000001
40
0
40
0
40
0
40
0
40
0
40
0
40
0.014285714285714285
40
0.028571428571428571
40
0.042857142857142858
40
0.057142857142857141
40
0.071428571428571425
40
0.085714285714285715
40
0.10000000000000001
40
0.1142857142857143
40
0.12857142857142859
40
0.14285714285714288
40
0.15714285714285717
40
0.17142857142857146
40
0.18571428571428575
40
0.20000000000000004
40
0.21428571428571433
40
0.22857142857142862
40
0.24285714285714291
40
0.25714285714285717
40
0.27142857142857146
40
0.28571428571428575
40
0.30000000000000004
40
0.31428571428571433
40
0.32857142857142863
40
0.34285714285714292
40
0.35714285714285721
40
0.3714285714285715
40
0.38571428571428579
40
0.40000000000000008
40
0.41428571428571437
40
0.42857142857142866
40
0.44285714285714295
40
0.45714285714285724
40
0.47142857142857153
40
0.48571428571428582
40
0.50000000000000011
40
0.51428571428571435
40
0.52857142857142858
40
0.54285714285714282
40
0.55714285714285705
40
0.57142857142857129
40
0.58571428571428552
40
0.59999999999999976
40
0.61428571428571399
40
0.62857142857142823
40
0.64285714285714246
40
0.6571428571428567
40
0.67142857142857093
40
0.68571428571428517
40
0.6999999999999994
40
0.71428571428571364
40
0.72857142857142787
40
0.74285714285714211
40
0.75714285714285634
40
0.77142857142857058
40
0.78571428571428481
40
0.79999999999999905
40
0.81428571428571328
40
0.82857142857142752
40
0.84285714285714175
40
0.85714285714285599
40
0.87142857142857022
40
0.88571428571428445
40
0.89999999999999869
40
0.91428571428571292
40
0.92857142857142716
40
0.94285714285714139
40
0.95714285714285563
40
0.97142857142856986
40
0.9857142857142841
40
1
40
1
40
1
40
1
40
1
40
1
10
-18.290112690407071
20
-9.6361056971684977
30
0
10
-18.298777417146994
20
-9.6406790760349637
30
0
10
-18.31597094336076
20
-9.6500354785596532
30
0
10
-18.341353455347278
20
-9.6646990104224084
30
0
10
-18.374422970992434
20
-9.6854482090309748
30
0
10
-18.414711827520069
20
-9.7130322969214848
30
0
10
-18.454259572761941
20
-9.7418192506247721
30
0
10
-18.493368300139476
20
-9.7713682444378271
30
0
10
-18.532260693948366
20
-9.8013485318003966
30
0
10
-18.571017853044125
20
-9.8316281426932974
30
0
10
-18.609626014123478
20
-9.8622089935656501
30
0
10
-18.648014512083201
20
-9.893174382566146
30
0
10
-18.686095506807817
20
-9.9246339291747336
30
0
10
-18.723806409627418
20
-9.9566648636968829
30
0
10
-18.761140590845066
20
-9.9892693930043759
30
0
10
-18.798125649128913
20
-10.022404125393365
30
0
10
-18.834808936750996
20
-10.055999513250493
30
0
10
-18.87124113226086
20
-10.089982004989013
30
0
10
-18.907458656502861
20
-10.124297727878142
30
0
10
-18.943472944617888
20
-10.158926927612281
30
0
10
-18.979280248791483
20
-10.193870682998538
30
0
10
-19.014867815631071
20
-10.229142517197777
30
0
10
-19.050221053686681
20
-10.26475867315243
30
0
10
-19.085331309193542
20
-10.300727563548621
30
0
10
-19.120199948674614
20
-10.337044222152556
30
0
10
-19.154834135787866
20
-10.373696000972121
30
0
10
-19.189244287319791
20
-10.410665993694721
30
0
10
-19.223441066378381
20
-10.44793708663784
30
0
10
-19.25743209163041
20
-10.485496392084491
30
0
10
-19.291220436207951
20
-10.523337265525907
30
0
10
-19.324806459754708
20
-10.561456822114739
30
0
10
-19.358188915128061
20
-10.599854432507932
30
0
10
-19.391366254712658
20
-10.638529949610993
30
0
10
-19.424338071981609
20
-10.677481751767345
30
0
10
-19.457105712825772
20
-10.716705910407786
30
0
10
-19.489671501639194
20
-10.756197233386782
30
0
10
-19.522038283270632
20
-10.795949880738299
30
0
10
-19.554208878588341
20
-10.835958097477899
30
0
10
-19.586185484861375
20
-10.876217021223225
30
0
10
-19.617969433412952
20
-10.916723006176763
30
0
10
-19.649561523604557
20
-10.957473166984638
30
0
10
-19.68096222555803
20
-10.998465100271609
30
0
10
-19.712171920103682
20
-11.039696556246408
30
0
10
-19.743191164376835
20
-11.081165074851494
30
0
10
-19.774020805913409
20
-11.122867829969042
30
0
10
-19.804661842046244
20
-11.164801822715624
30
0
10
-19.835115338603579
20
-11.206963993949108
30
0
10
-19.865382332469316
20
-11.249351358349939
30
0
10
-19.895463727259042
20
-11.291961149841024
30
0
10
-19.925360245377512
20
-11.334790884381526
30
0
10
-19.955072486425131
20
-11.377838268081703
30
0
10
-19.984600963444869
20
-11.421101137305698
30
0
10
-20.013946146732589
20
-11.464577389389039
30
0
10
-20.043108511859124
20
-11.50826490419503
30
0
10
-20.072088566780838
20
-11.552161506744405
30
0
10
-20.100886829398803
20
-11.596265022939189
30
0
10
-20.129503816621131
20
-11.640573315837393
30
0
10
-20.157940030463379
20
-11.685084325035355
30
0
10
-20.186195946004368
20
-11.729796110879425
30
0
10
-20.214272002231578
20
-11.774706871198678
30
0
10
-20.242168602049588
20
-11.819814879623339
30
0
10
-20.269886111458057
20
-11.865118435317472
30
0
10
-20.297424860626741
20
-11.910615810678319
30
0
10
-20.324785144711235
20
-11.956305189310775
30
0
10
-20.351967228253084
20
-12.002184634270458
30
0
10
-20.378971361011764
20
-12.048252195039595
30
0
10
-20.4057977936572
20
-12.094505994261723
30
0
10
-20.432446793911033
20
-12.140944319486806
30
0
10
-20.458918665909245
20
-12.187565715304318
30
0
10
-20.485213763541989
20
-12.234369063512158
30
0
10
-20.511332440277592
20
-12.28135354669204
30
0
10
-20.532086492378284
20
-12.319085606301279
30
0
10
-20.547572880273918
20
-12.347465781464299
30
0
10
-20.557861972260405
20
-12.366421944253123
30
0
10
-20.562997726600543
20
-12.375909037150404
30
0
0
ARC
5
157
100
AcDbEntity
8
0
100
AcDbCircle
10
-4.1269916103405861e-13
20
2.8703857137746221e-12
30
0
40
24.000000000001137
100
AcDbArc
50
211.04177287550411
51
214.41277257905392
0
SPLINE
5
158
100
AcDbEntity
8
0
100
AcDbSpline
70
1064
71
5
72
81
73
75
74
0
42
0.000000001
43
0.0000000001
44
0.0000000001
40
-1
40
-1
40
-1
40
-1
40
-1
40
-1
40
-0.9857142857142841
40
-0.97142857142856986
40
-0.95714285714285563
40
-0.94285714285714139
40
-0.92857142857142716
40
-0.91428571428571292
40
-0.89999999999999869
40
-0.88571428571428445
40
-0.87142857142857022
40
-0.85714285714285599
40
-0.84285714285714175
40
-0.82857142857142752
40
-0.81428571428571328
40
-0.79999999999999905
40
-0.78571428571428481
40
-0.77142857142857058
40
-0.75714285714285634
40
-0.74285714285714211
40
-0.72857142857142787
40
-0.71428571428571364
40
-0.6999999999999994
40
-0.68571428571428517
40
-0.67142857142857093
40
-0.6571428571428567
40
-0.64285714285714246
40
-0.62857142857142823
40
-0.61428571428571399
40
-0.59999999999999976
40
-0.58571428571428552
40
-0.57142857142857129
40
-0.55714285714285705
40
-0.54285714285714282
40
-0.52857142857142858
40
-0.51428571428571435
40
-0.50000000000000011
40
-0.48571428571428582
40
-0.47142857142857153
40
-0.45714285714285724
40
-0.44285714285714295
40
-0.42857142857142866
40
-0.41428571428571437
40
-0.40000000000000008
40
-0.38571428571428579
40
-0.3714285714285715
40
-0.35714285714285721
40
-0.34285714285714292
40
-0.32857142857142863
40
-0.31428571428571433
40
-0.30000000000000004
40
-0.28571428571428575
40
-0.27142857142857146
40
-0.25714285714285717
40
-0.24285714285714291
40
-0.22857142857142862
40
-0.21428571428571433
40
-0.20000000000000004
40
-0.18571428571428575
40
-0.17142857142857146
40
-0.15714285714285717
40
-0.14285714285714288
40
-0.12857142857142859
40
-0.1142857142857143
40
-0.10000000000000001
40
-0.085714285714285715
40
-0.071428571428571425
40
-0.057142857142857141
40
-0.042857142857142858
40
-0.028571428571428571
40
-0.014285714285714285
40
-0
40
-0
40
-0
40
-0
40
-0
40
-0
10
-19.799700799742659
20
-13.563622238940082
30
0
10
-19.78893756704441
20
-13.562891673291285
30
0
10
-19.767420191581202
20
-13.561407060628616
30
0
10
-19.735171398190133
20
-13.55910969754062
30
0
10
-19.692227564695699
20
-13.555905611749733
30
0
10
-19.638638885074371
20
-13.551665287405763
30
0
10
-19.585141683729809
20
-13.547189238782344
30
0
10
-19.53173655737579
20
-13.54247680478554
30
0
10
-19.478424376153445
20
-13.537527198987604
30
0
10
-19.425206337608095
20
-13.532339540137341
30
0
10
-19.372083888223493
20
-13.52691287332912
30
0
10
-19.31905863157111
20
-13.521246190663501
30
0
10
-19.266132238150465
20
-13.515338454676908
30
0
10
-19.213306359973615
20
-13.50918862009811
30
0
10
-19.160582526679605
20
-13.502795663886332
30
0
10
-19.107962172593705
20
-13.496158568036488
30
0
10
-19.05544669280895
20
-13.489276293070793
30
0
10
-19.003037490313904
20
-13.482147755334426
30
0
10
-18.950736022058916
20
-13.474771806861474
30
0
10
-18.898543855060133
20
-13.467147209743791
30
0
10
-18.846462654981849
20
-13.459272651409357
30
0
10
-18.794494150923477
20
-13.451146773944217
30
0
10
-18.742640105370217
20
-13.44276820309606
30
0
10
-18.690902285740098
20
-13.434135573292483
30
0
10
-18.639282423018035
20
-13.425247571202423
30
0
10
-18.587782234486941
20
-13.41610289555133
30
0
10
-18.536403475133465
20
-13.406700180852084
30
0
10
-18.485147982470099
20
-13.397037928772734
30
0
10
-18.434017715962089
20
-13.387114450282949
30
0
10
-18.383014816346176
20
-13.376927774355124
30
0
10
-18.33214156842741
20
-13.366475717659924
30
0
10
-18.281400312138295
20
-13.355756039872318
30
0
10
-18.230793361052115
20
-13.344766588005241
30
0
10
-18.180322933816917
20
-13.333505417101129
30
0
10
-18.12999103673738
20
-13.321970998427041
30
0
10
-18.079799558092994
20
-13.310162050970467
30
0
10
-18.0297504887751
20
-13.298077148695375
30
0
10
-17.979846121327149
20
-13.285714365857677
30
0
10
-17.930089219031544
20
-13.273070976924151
30
0
10
-17.880483292088307
20
-13.260142963281931
30
0
10
-17.831032403584391
20
-13.24692536827207
30
0
10
-17.781740683946865
20
-13.233413178119539
30
0
10
-17.732611890529249
20
-13.219602121585943
30
0
10
-17.683649037780519
20
-13.205489342419273
30
0
10
-17.634853769688757
20
-13.191074536748907
30
0
10
-17.586226862958473
20
-13.176359051230023
30
0
10
-17.537769408142005
20
-13.161343758864897
30
0
10
-17.489483879987421
20
-13.14602713410121
30
0
10
-17.44137504592728
20
-13.130403621291009
30
0
10
-17.393451464132749
20
-13.114460936500107
30
0
10
-17.345724272141855
20
-13.098182270943674
30
0
10
-17.298204521187962
20
-13.081551126043347
30
0
10
-17.250900740398304
20
-13.064555731340832
30
0
10
-17.203816879543883
20
-13.047192780755042
30
0
10
-17.156948881080044
20
-13.029473640783413
30
0
10
-17.110288031414029
20
-13.011418331837838
30
0
10
-17.063827327396773
20
-12.993044072536293
30
0
10
-17.017567344609215
20
-12.974354720163401
30
0
10
-16.97152130187057
20
-12.955331666714011
30
0
10
-16.9257230737749
20
-12.935919403081645
30
0
10
-16.880218512568511
20
-12.91604127600279
30
0
10
-16.835051210140996
20
-12.895625321213046
30
0
10
-16.790249172073423
20
-12.874628408515614
30
0
10
-16.745813145000255
20
-12.853057485262614
30
0
10
-16.701698878037746
20
-12.831001566739101
30
0
10
-16.65784314790233
20
-12.808586092702265
30
0
10
-16.614199539277582
20
-12.785909945692486
30
0
10
-16.570772026382869
20
-12.762986441372512
30
0
10
-16.527646963687953
20
-12.739686987301354
30
0
10
-16.485032702446809
20
-12.715671625632153
30
0
10
-16.44320473768067
20
-12.690482436908045
30
0
10
-16.410593029476654
20
-12.669020876016095
30
0
10
-16.386710335182492
20
-12.652023582270107
30
0
10
-16.371057003168978
20
-12.640270590789541
30
0
10
-16.363297453853839
20
-12.634288728357181
30
0
0
LINE
5
159
100
AcDbEntity
8
0
100
AcDbLine
10
-16.363297453853843
20
-12.634288728357181
30
0
11
-15.863822007233875
21
-12.249241441629678
31
0
0
ARC
5
160
100
AcDbEntity
8
0
100
AcDbCircle
10
-15.558550689512336
20
-12.645233136715008
30
0
40
0.49999999999999878
100
AcDbArc
50
39.102532613650595
51
127.62874938960989
0
ARC
5
161
100
AcDbEntity
8
0
100
AcDbCircle
10
-4.1269916103405861e-13
20
2.8703857137746221e-12
30
0
40
19.549200000001495
100
AcDbArc
50
219.1025326136577
51
222.71564920453838
0
ARC
5
162
100
AcDbEntity
8
0
100
AcDbCircle
10
-14.730735521448459
20
-13.600582768291096
30
0
40
0.49999999999999956
100
AcDbArc
50
-45.810567571428152
51
42.715649204530671
0
LINE
5
163
100
AcDbEntity
8
0
100
AcDbLine
10
-14.382219089057235
20
-13.959102358206756
30
0
11
-14.834429917005391
21
-14.398695922626059
31
0
0
SPLINE
5
164
100
AcDbEntity
8
0
100
AcDbSpline
70
1064
71
5
72
81
73
75
74
0
42
0.000000001
43
0.0000000001
44
0.0000000001
40
0
40
0
40
0
40
0
40
0
40
0
40
0.014285714285714285
40
0.028571428571428571
40
0.042857142857142858
40
0.057142857142857141
40
0.071428571428571425
40
0.085714285714285715
40
0.10000000000000001
40
0.1142857142857143
40
0.12857142857142859
40
0.14285714285714288
40
0.15714285714285717
40
0.17142857142857146
40
0.18571428571428575
40
0.20000000000000004
40
0.21428571428571433
40
0.22857142857142862
40
0.24285714285714291
40
0.25714285714285717
40
0.27142857142857146
40
0.28571428571428575
40
0.30000000000000004
40
0.31428571428571433
40
0.32857142857142863
40
0.34285714285714292
40
0.35714285714285721
40
0.3714285714285715
40
0.38571428571428579
40
0.40000000000000008
40
0.41428571428571437
40
0.42857142857142866
40
0.44285714285714295
40
0.45714285714285724
40
0.47142857142857153
40
0.48571428571428582
40
0.50000000000000011
40
0.51428571428571435
40
0.52857142857142858
40
0.54285714285714282
40
0.55714285714285705
40
0.57142857142857129
40
0.58571428571428552
40
0.59999999999999976
40
0.61428571428571399
40
0.62857142857142823
40
0.64285714285714246
40
0.6571428571428567
40
0.67142857142857093
40
0.68571428571428517
40
0.6999999999999994
40
0.71428571428571364
40
0.72857142857142787
40
0.74285714285714211
40
0.75714285714285634
40
0.77142857142857058
40
0.78571428571428481
40
0.79999999999999905
40
0.81428571428571328
40
0.82857142857142752
40
0.84285714285714175
40
0.85714285714285599
40
0.87142857142857022
40
0.88571428571428445
40
0.89999999999999869
40
0.91428571428571292
40
0.92857142857142716
40
0.94285714285714139
40
0.95714285714285563
40
0.97142857142856986
40
0.9857142857142841
40
1
40
1
40
1
40
1
40
1
40
1
10
-14.834429917005391
20
-14.398695922626059
30
0
10
-14.84145519170918
20
-14.40552518313288
30
0
10
-14.855316256096831
20
-14.419346561714956
30
0
10
-14.87553940367656
20
-14.440567197506661
30
0
10
-14.901423646802519
20
-14.469792666975929
30
0
10
-14.932309185946217
20
-14.507610088052187
30
0
10
-14.962144747557586
20
-14.546372855246563
30
0
10
-14.991344383104291
20
-14.585743108946456
30
0
10
-15.020214938677476
20
-14.625466237567249
30
0
10
-15.048871408310092
20
-14.665438464990729
30
0
10
-15.077300046283252
20
-14.705657752465731
30
0
10
-15.105409582126521
20
-14.746184115320444
30
0
10
-15.133084850489933
20
-14.787097985255311
30
0
10
-15.160244039693055
20
-14.828455830939784
30
0
10
-15.186880166840629
20
-14.870257902050364
30
0
10
-15.213031937516494
20
-14.91247033999543
30
0
10
-15.238764379719896
20
-14.95503975500532
30
0
10
-15.264146841039626
20
-14.997909852646682
30
0
10
-15.289229444722118
20
-15.04103920335047
30
0
10
-15.314028728135746
20
-15.084412074650739
30
0
10
-15.338540791343771
20
-15.128028445773978
30
0
10
-15.362749587640954
20
-15.171897699052128
30
0
10
-15.386636540467865
20
-15.216031308587805
30
0
10
-15.410190976470439
20
-15.260434908246964
30
0
10
-15.433415605967603
20
-15.305104117957182
30
0
10
-15.456320865789994
20
-15.350028820294568
30
0
10
-15.478921513829743
20
-15.395195728518873
30
0
10
-15.501232602745567
20
-15.440591426316647
30
0
10
-15.523265073484167
20
-15.486205694440462
30
0
10
-15.545023746668621
20
-15.532033023332207
30
0
10
-15.566509780129952
20
-15.578070746324457
30
0
10
-15.587722154550008
20
-15.624317908206294
30
0
10
-15.60865942644404
20
-15.670773931827952
30
0
10
-15.629321662625813
20
-15.717437146689486
30
0
10
-15.649711261273984
20
-15.764304162537616
30
0
10
-15.669831915424751
20
-15.811370652402665
30
0
10
-15.689687999999073
20
-15.858631814364772
30
0
10
-15.709283842966697
20
-15.906082921287235
30
0
10
-15.728622922483254
20
-15.953719926790571
30
0
10
-15.747707543083877
20
-16.001539707834777
30
0
10
-15.766539284648415
20
-16.049539721149241
30
0
10
-15.785119275364522
20
-16.097717793160928
30
0
10
-15.803448514475654
20
-16.146071872503232
30
0
10
-15.821528229627543
20
-16.194599755731378
30
0
10
-15.839360030234337
20
-16.243298969983634
30
0
10
-15.856945718112998
20
-16.292166918833555
30
0
10
-15.874287177778157
20
-16.341200967334277
30
0
10
-15.891386245174351
20
-16.390398543216609
30
0
10
-15.908244566608353
20
-16.43975724702695
30
0
10
-15.924863535057627
20
-16.489274898870509
30
0
10
-15.941244372097973
20
-16.538949466703148
30
0
10
-15.957388179557174
20
-16.58877901907238
30
0
10
-15.973296001069849
20
-16.638761670984067
30
0
10
-15.988968890254402
20
-16.688895522165737
30
0
10
-16.004407947253863
20
-16.739178628847913
30
0
10
-16.019614281504847
20
-16.789609050908449
30
0
10
-16.034588991023199
20
-16.840184883596372
30
0
10
-16.049333137972098
20
-16.890904291402975
30
0
10
-16.063847724649928
20
-16.941765547089375
30
0
10
-16.078133679992309
20
-16.992767045162296
30
0
10
-16.092191876957919
20
-17.043907242693411
30
0
10
-16.106023145901723
20
-17.095184610856613
30
0
10
-16.119628290341225
20
-17.146597585048756
30
0
10
-16.133008105213772
20
-17.198144505606443
30
0
10
-16.146163390045423
20
-17.249823588575111
30
0
10
-16.159094934002994
20
-17.301633032812049
30
0
10
-16.171803506514948
20
-17.353571107628788
30
0
10
-16.184289846911255
20
-17.405636245367461
30
0
10
-16.196554657044778
20
-17.457827135256899
30
0
10
-16.208598591504568
20
-17.510142804092418
30
0
10
-16.220422219734346
20
-17.562582567150461
30
0
10
-16.229705237270391
20
-17.604633305388678
30
0
10
-16.236568698330633
20
-17.636226903705619
30
0
10
-16.241100441586138
20
-17.657313980901119
30
0
10
-16.243355338850773
20
-17.667863689077645
30
0
0
ARC
5
165
100
AcDbEntity
8
0
100
AcDbCircle
10
-4.1269916103405861e-13
20
2.8703857137746221e-12
30
0
40
24.00000000000184
100
AcDbArc
50
227.40540923913949
51
230.77640894268919
0
SPLINE
5
166
100
AcDbEntity
8
0
100
AcDbSpline
70
1064
71
5
72
81
73
75
74
0
42
0.000000001
43
0.0000000001
44
0.0000000001
40
-1
40
-1
40
-1
40
-1
40
-1
40
-1
40
-0.9857142857142841
40
-0.97142857142856986
40
-0.95714285714285563
40
-0.94285714285714139
40
-0.92857142857142716
40
-0.91428571428571292
40
-0.89999999999999869
40
-0.88571428571428445
40
-0.87142857142857022
40
-0.85714285714285599
40
-0.84285714285714175
40
-0.82857142857142752
40
-0.81428571428571328
40
-0.79999999999999905
40
-0.78571428571428481
40
-0.77142857142857058
40
-0.75714285714285634
40
-0.74285714285714211
40
-0.72857142857142787
40
-0.71428571428571364
40
-0.6999999999999994
40
-0.68571428571428517
40
-0.67142857142857093
40
-0.6571428571428567
40
-0.64285714285714246
40
-0.62857142857142823
40
-0.61428571428571399
40
-0.59999999999999976
40
-0.58571428571428552
40
-0.57142857142857129
40
-0.55714285714285705
40
-0.54285714285714282
40
-0.52857142857142858
40
-0.51428571428571435
40
-0.50000000000000011
40
-0.48571428571428582
40
-0.47142857142857153
40
-0.45714285714285724
40
-0.44285714285714295
40
-0.42857142857142866
40
-0.41428571428571437
40
-0.40000000000000008
40
-0.38571428571428579
40
-0.3714285714285715
40
-0.35714285714285721
40
-0.34285714285714292
40
-0.32857142857142863
40
-0.31428571428571433
40
-0.30000000000000004
40
-0.28571428571428575
40
-0.27142857142857146
40
-0.25714285714285717
40
-0.24285714285714291
40
-0.22857142857142862
40
-0.21428571428571433
40
-0.20000000000000004
40
-0.18571428571428575
40
-0.17142857142857146
40
-0.15714285714285717
40
-0.14285714285714288
40
-0.12857142857142859
40
-0.1142857142857143
40
-0.10000000000000001
40
-0.085714285714285715
40
-0.071428571428571425
40
-0.057142857142857141
40
-0.042857142857142858
40
-0.028571428571428571
40
-0.014285714285714285
40
-0
40
-0
40
-0
40
-0
40
-0
40
-0
10
-15.176359823614566
20
-18.592420566031144
30
0
10
-15.166238401595395
20
-18.5886872403564
30
0
10
-15.146010894749196
20
-18.581200619732265
30
0
10
-15.115715646059694
20
-18.569910780974375
30
0
10
-15.075414034843917
20
-18.554737807160201
30
0
10
-15.025190710701235
20
-18.535571570018842
30
0
10
-14.975121570526312
20
-18.516204929496446
30
0
10
-14.925207373113505
20
-18.496637419391735
30
0
10
-14.875449174919408
20
-18.476868530279891
30
0
10
-14.825848373257507
20
-18.456897753994088
30
0
10
-14.776406625046798
20
-18.436724581830649
30
0
10
-14.727125752860921
20
-18.416348498495431
30
0
10
-14.678007651819705
20
-18.395768979183536
30
0
10
-14.629054201504042
20
-18.374985486390131
30
0
10
-14.580267157815733
20
-18.353997469463902
30
0
10
-14.531648183784984
20
-18.33280435573225
30
0
10
-14.483198910848484
20
-18.311405540866666
30
0
10
-14.434920990464759
20
-18.289800380375524
30
0
10
-14.386816143986792
20
-18.267988183263949
30
0
10
-14.338886223714596
20
-18.24596820324723
30
0
10
-14.291133197635626
20
-18.223739650193597
30
0
10
-14.243559107377198
20
-18.201301708337752
30
0
10
-14.196166031203086
20
-18.178653555643724
30
0
10
-14.148956049664683
20
-18.15579437979358
30
0
10
-14.101931193637965
20
-18.132723408330207
30
0
10
-14.055093477455223
20
-18.109439876504318
30
0
10
-14.008444969716001
20
-18.085942968577498
30
0
10
-13.961987855629514
20
-18.062231764597851
30
0
10
-13.915724491143731
20
-18.0383051959978
30
0
10
-13.869657485583158
20
-18.014161974705448
30
0
10
-13.823789646317143
20
-17.989800649535603
30
0
10
-13.778123849666981
20
-17.965219730147304
30
0
10
-13.732662922056535
20
-17.940417802573506
30
0
10
-13.687409540220887
20
-17.915393625706493
30
0
10
-13.642366059889117
20
-17.890146297979079
30
0
10
-13.597534653755051
20
-17.864675122258578
30
0
10
-13.552917633825729
20
-17.838979291172347
30
0
10
-13.508517742325282
20
-17.813057602866586
30
0
10
-13.464338398475208
20
-17.786908220717944
30
0
10
-13.420384102461842
20
-17.760528277833231
30
0
10
-13.376660149240765
20
-17.733914163036896
30
0
10
-13.333171914471381
20
-17.707062229322812
30
0
10
-13.289924206654913
20
-17.679969437036554
30
0
10
-13.246920722833151
20
-17.652633894892816
30
0
10
-13.204163126011352
20
-17.625055774494822
30
0
10
-13.161651782035435
20
-17.597236586771714
30
0
10
-13.119387491329542
20
-17.569177476607138
30
0
10
-13.077373058194809
20
-17.540877677461463
30
0
10
-13.03561462215618
20
-17.512333201870472
30
0
10
-12.994123855502945
20
-17.483534674601081
30
0
10
-12.952916180206513
20
-17.454469105549403
30
0
10
-12.912006848034309
20
-17.425123777937664
30
0
10
-12.871407358745302
20
-17.395489801026663
30
0
10
-12.831122433547687
20
-17.365565115433899
30
0
10
-12.791144976943496
20
-17.33535948409137
30
0
10
-12.751460987899872
20
-17.304889661540855
30
0
10
-12.712058895899228
20
-17.274170195910216
30
0
10
-12.672938166484762
20
-17.243204950396841
30
0
10
-12.634116725501505
20
-17.211979794922271
30
0
10
-12.595642714106944
20
-17.180451012464861
30
0
10
-12.557581722929145
20
-17.148557972827462
30
0
10
-12.519995852756098
20
-17.116243908058536
30
0
10
-12.482924125926678
20
-17.08347532512127
30
0
10
-12.44636530153613
20
-17.050259100302441
30
0
10
-12.410251842668556
20
-17.016668176227981
30
0
10
-12.374487746564107
20
-16.982805099406203
30
0
10
-12.339000619621853
20
-16.948751670234035
30
0
10
-12.303790523621657
20
-16.914521784663307
30
0
10
-12.26897654374768
20
-16.880016388015989
30
0
10
-12.234854368757562
20
-16.844967992458205
30
0
10
-12.201817345007861
20
-16.809014843405336
30
0
10
-12.176573060552441
20
-16.779234846591425
30
0
10
-12.158446474212653
20
-16.756197530143933
30
0
10
-12.146738412472384
20
-16.740510564148124
30
0
10
-12.140978464823835
20
-16.732584891506654
30
0
0
LINE
5
167
100
AcDbEntity
8
0
100
AcDbLine
10
-12.140978464823833
20
-16.732584891506651
30
0
11
-11.77021563989361
21
-16.22241623072653
31
0
0
ARC
5
168
100
AcDbEntity
8
0
100
AcDbCircle
10
-11.365746202749392
20
-16.516362610898558
30
0
40
0.499999999999999
100
AcDbArc
50
55.466168977286856
51
143.99238575324631
0
ARC
5
169
100
AcDbEntity
8
0
100
AcDbCircle
10
-4.1269916103405861e-13
20
2.8703857137746221e-12
30
0
40
19.549200000002134
100
AcDbArc
50
235.46616897729254
51
239.07928556817311
0
ARC
5
170
100
AcDbEntity
8
0
100
AcDbCircle
10
-10.302310271159138
20
-17.199791385850265
30
0
40
0.49999999999999989
100
AcDbArc
50
-29.446931207791643
51
59.079285568168117
0
LINE
5
171
100
AcDbEntity
8
0
100
AcDbLine
10
-9.8669045623458871
20
-17.445599987678658
30
0
11
-10.176949855479647
21
-17.994789436774351
31
0
0
SPLINE
5
172
100
AcDbEntity
8
0
100
AcDbSpline
70
1064
71
5
72
81
73
75
74
0
42
0.000000001
43
0.0000000001
44
0.0000000001
40
0
40
0
40
0
40
0
40
0
40
0
40
0.014285714285714285
40
0.028571428571428571
40
0.042857142857142858
40
0.057142857142857141
40
0.071428571428571425
40
0.085714285714285715
40
0.10000000000000001
40
0.1142857142857143
40
0.12857142857142859
40
0.14285714285714288
40
0.15714285714285717
40
0.17142857142857146
40
0.18571428571428575
40
0.20000000000000004
40
0.21428571428571433
40
0.22857142857142862
40
0.24285714285714291
40
0.25714285714285717
40
0.27142857142857146
40
0.28571428571428575
40
0.30000000000000004
40
0.31428571428571433
40
0.32857142857142863
40
0.34285714285714292
40
0.35714285714285721
40
0.3714285714285715
40
0.38571428571428579
40
0.40000000000000008
40
0.41428571428571437
40
0.42857142857142866
40
0.44285714285714295
40
0.45714285714285724
40
0.47142857142857153
40
0.48571428571428582
40
0.50000000000000011
40
0.51428571428571435
40
0.52857142857142858
40
0.54285714285714282
40
0.55714285714285705
40
0.57142857142857129
40
0.58571428571428552
40
0.59999999999999976
40
0.61428571428571399
40
0.62857142857142823
40
0.64285714285714246
40
0.6571428571428567
40
0.67142857142857093
40
0.68571428571428517
40
0.6999999999999994
40
0.71428571428571364
40
0.72857142857142787
40
0.74285714285714211
40
0.75714285714285634
40
0.77142857142857058
40
0.78571428571428481
40
0.79999999999999905
40
0.81428571428571328
40
0.82857142857142752
40
0.84285714285714175
40
0.85714285714285599
40
0.87142857142857022
40
0.88571428571428445
40
0.89999999999999869
40
0.91428571428571292
40
0.92857142857142716
40
0.94285714285714139
40
0.95714285714285563
40
0.97142857142856986
40
0.9857142857142841
40
1
40
1
40
1
40
1
40
1
40
1
10
-10.176949855479647
20
-17.994789436774351
30
0
10
-10.181766532171721
20
-18.003321312850442
30
0
10
-10.191172193731488
20
-18.020487941596084
30
0
10
-10.204597617759212
20
-18.046546511608877
30
0
10
-10.221199600927429
20
-18.081880578213006
30
0
10
-10.240179659989142
20
-18.126867589928278
30
0
10
-10.257885938207172
20
-18.172465841746703
30
0
10
-10.274810901107973
20
-18.218467811522583
30
0
10
-10.291320697732711
20
-18.264715649763282
30
0
10
-10.307554901159142
20
-18.311142181575477
30
0
10
-10.323500896849147
20
-18.357741578175222
30
0
10
-10.339054203155786
20
-18.404545709985221
30
0
10
-10.354081659506347
20
-18.451599304828402
30
0
10
-10.368488859105669
20
-18.498933494982424
30
0
10
-10.382269031572818
20
-18.546546552701194
30
0
10
-10.395468853711115
20
-18.594416895527068
30
0
10
-10.40816576106524
20
-18.642511616855671
30
0
10
-10.420442152134017
20
-18.690796240047266
30
0
10
-10.432357791878639
20
-18.739245135071812
30
0
10
-10.44393298013571
20
-18.787847865853863
30
0
10
-10.455163980795909
20
-18.836603313722232
30
0
10
-10.466032753849943
20
-18.885515960079189
30
0
10
-10.4765182425913
20
-18.934591580623994
30
0
10
-10.486608618768283
20
-18.983832573980113
30
0
10
-10.496307716921866
20
-19.033235501083908
30
0
10
-10.50562840152541
20
-19.082793594733232
30
0
10
-10.514588575980031
20
-19.132498264172852
30
0
10
-10.523206463018283
20
-19.182340877368318
30
0
10
-10.531495439496366
20
-19.232314711444406
30
0
10
-10.539461682990137
20
-19.28241583814529
30
0
10
-10.547107055717365
20
-19.332642025021006
30
0
10
-10.554430848763463
20
-19.382992068378279
30
0
10
-10.561431839716827
20
-19.433465007769321
30
0
10
-10.568110563319021
20
-19.484059259184775
30
0
10
-10.574470275750336
20
-19.534772245345458
30
0
10
-10.580515739501294
20
-19.585600855002887
30
0
10
-10.58625250513497
20
-19.636541713306372
30
0
10
-10.591686057096235
20
-19.687591503931436
30
0
10
-10.596820872647822
20
-19.738747324315081
30
0
10
-10.601660042837036
20
-19.790006827184943
30
0
10
-10.606205800069628
20
-19.841368017394327
30
0
10
-10.610459839200013
20
-19.892829127262374
30
0
10
-10.614423696932022
20
-19.94438847003665
30
0
10
-10.618099171965241
20
-19.996044277395143
30
0
10
-10.6214885052069
20
-20.047794630068772
30
0
10
-10.62459415698557
20
-20.099637544435097
30
0
10
-10.627418677830111
20
-20.151571023210234
30
0
10
-10.62996455400839
20
-20.203593115565329
30
0
10
-10.632234041144386
20
-20.25570198305973
30
0
10
-10.634229089937516
20
-20.307895926546795
30
0
10
-10.635951444974168
20
-20.360173340452128
30
0
10
-10.637402707603412
20
-20.4125326819814
30
0
10
-10.638584410249541
20
-20.464972436521826
30
0
10
-10.639498099220637
20
-20.517491077613933
30
0
10
-10.640145377719357
20
-20.570087050170667
30
0
10
-10.640527856837902
20
-20.622758805222876
30
0
10
-10.640647126745124
20
-20.675504824522207
30
0
10
-10.640504723701698
20
-20.728323646156888
30
0
10
-10.640102096025297
20
-20.781213895233435
30
0
10
-10.639440587342852
20
-20.834174293003752
30
0
10
-10.638521469945228
20
-20.88720360497982
30
0
10
-10.637345971272264
20
-20.940300598201755
30
0
10
-10.635915303093
20
-20.993463997820875
30
0
10
-10.634230695725453
20
-21.046692435361546
30
0
10
-10.632293418907334
20
-21.099984424384424
30
0
10
-10.630104737279208
20
-21.153338459039709
30
0
10
-10.627665876693557
20
-21.206753095517033
30
0
10
-10.624977988192557
20
-21.260227037953005
30
0
10
-10.622042114486005
20
-21.313759226406699
30
0
10
-10.618859157830943
20
-21.36734891151411
30
0
10
-10.615429857513545
20
-21.420995596718633
30
0
10
-10.612489785612397
20
-21.463958312859141
30
0
10
-10.61017428304072
20
-21.496205808888725
30
0
10
-10.608581542678007
20
-21.517715450906195
30
0
10
-10.60777290450114
20
-21.528473099747035
30
0
0
ARC
5
173
100
AcDbEntity
8
0
100
AcDbCircle
10
-4.1269916103405861e-13
20
2.8703857137746221e-12
30
0
40
24.000000000002398
100
AcDbArc
50
243.76904560277441
51
247.14004530632405
0
SPLINE
5
174
100
AcDbEntity
8
0
100
AcDbSpline
70
1064
71
5
72
81
73
75
74
0
42
0.000000001
43
0.0000000001
44
0.0000000001
40
-1
40
-1
40
-1
40
-1
40
-1
40
-1
40
-0.9857142857142841
40
-0.97142857142856986
40
-0.95714285714285563
40
-0.94285714285714139
40
-0.92857142857142716
40
-0.91428571428571292
40
-0.89999999999999869
40
-0.88571428571428445
40
-0.87142857142857022
40
-0.85714285714285599
40
-0.84285714285714175
40
-0.82857142857142752
40
-0.81428571428571328
40
-0.79999999999999905
40
-0.78571428571428481
40
-0.77142857142857058
40
-0.75714285714285634
40
-0.74285714285714211
40
-0.72857142857142787
40
-0.71428571428571364
40
-0.6999999999999994
40
-0.68571428571428517
40
-0.67142857142857093
40
-0.6571428571428567
40
-0.64285714285714246
40
-0.62857142857142823
40
-0.61428571428571399
40
-0.59999999999999976
40
-0.58571428571428552
40
-0.57142857142857129
40
-0.55714285714285705
40
-0.54285714285714282
40
-0.52857142857142858
40
-0.51428571428571435
40
-0.50000000000000011
40
-0.48571428571428582
40
-0.47142857142857153
40
-0.45714285714285724
40
-0.44285714285714295
40
-0.42857142857142866
40
-0.41428571428571437
40
-0.40000000000000008
40
-0.38571428571428579
40
-0.3714285714285715
40
-0.35714285714285721
40
-0.34285714285714292
40
-0.32857142857142863
40
-0.31428571428571433
40
-0.30000000000000004
40
-0.28571428571428575
40
-0.27142857142857146
40
-0.25714285714285717
40
-0.24285714285714291
40
-0.22857142857142862
40
-0.21428571428571433
40
-0.20000000000000004
40
-0.18571428571428575
40
-0.17142857142857146
40
-0.15714285714285717
40
-0.14285714285714288
40
-0.12857142857142859
40
-0.1142857142857143
40
-0.10000000000000001
40
-0.085714285714285715
40
-0.071428571428571425
40
-0.057142857142857141
40
-0.042857142857142858
40
-0.028571428571428571
40
-0.014285714285714285
40
-0
40
-0
40
-0
40
-0
40
-0
40
-0
10
-9.3235204318643827
20
-22.114971552245045
30
0
10
-9.3148607979418703
20
-22.108537918387579
30
0
10
-9.2975618720197417
20
-22.095655811280295
30
0
10
-9.2716745089078483
20
-22.076288132445427
30
0
10
-9.2372801168285239
20
-22.050375494709236
30
0
10
-9.1944909431969215
20
-22.017836079317679
30
0
10
-9.1519061681559659
20
-21.985147816933591
30
0
10
-9.1095266511075899
20
-21.952310474017192
30
0
10
-9.0673535492360315
20
-21.919323859417169
30
0
10
-9.0253883464208968
20
-21.886187879219715
30
0
10
-8.9836327757827164
20
-21.852902512135273
30
0
10
-8.9420887312432171
20
-21.81946777722105
30
0
10
-8.9007581790111896
20
-21.785883704847379
30
0
10
-8.8596430739639072
20
-21.752150308821292
30
0
10
-8.8187452560132087
20
-21.718267555491437
30
0
10
-8.7780664821654106
20
-21.684235363912215
30
0
10
-8.7376084880315652
20
-21.650053613863498
30
0
10
-8.6973730397487987
20
-21.615722152229743
30
0
10
-8.6573619836189586
20
-21.581240800967386
30
0
10
-8.6175773071635913
20
-21.546609365874723
30
0
10
-8.5780211212586757
20
-21.511827643271999
30
0
10
-8.5386956146589181
20
-21.476895425631039
30
0
10
-8.4996030130381044
20
-21.441812509728653
30
0
10
-8.4607455415270856
20
-21.406578702310576
30
0
10
-8.4221253663634048
20
-21.371193834373496
30
0
10
-8.3837446357395216
20
-21.335657739648852
30
0
10
-8.3456055642822289
20
-21.299970218233192
30
0
10
-8.3077105078648117
20
-21.264131003083723
30
0
10
-8.2700620280530703
20
-21.228139732664598
30
0
10
-8.2326629913673237
20
-21.191995906211559
30
0
10
-8.1955165003048496
20
-21.15569892224995
30
0
10
-8.15862573455329
20
-21.11924816116144
30
0
10
-8.1219938044070314
20
-21.082643062550215
30
0
10
-8.0856236278350284
20
-21.045883189705549
30
0
10
-8.0495177191436085
20
-21.00896834126565
30
0
10
-8.0136783594222116
20
-20.971898460455172
30
0
10
-7.9781079944884965
20
-20.934673423973422
30
0
10
-7.9428095940885992
20
-20.897292851223916
30
0
10
-7.9077869563781178
20
-20.859755943285471
30
0
10
-7.8730452069513603
20
-20.822061217243231
30
0
10
-7.83859044366673
20
-20.78420669996099
30
0
10
-7.8044288519120162
20
-20.746190406660258
30
0
10
-7.7705659017799622
20
-20.708010775525338
30
0
10
-7.7370056733928392
20
-20.669667033458282
30
0
10
-7.7037497140462907
20
-20.631159813633918
30
0
10
-7.6707979490889695
20
-20.592490668848829
30
0
10
-7.6381508239712295
20
-20.553660923116382
30
0
10
-7.6058112453594653
20
-20.514670631010112
30
0
10
-7.5737862274832164
20
-20.475517696290186
30
0
10
-7.5420896111304341
20
-20.436196411950228
30
0
10
-7.5107398533094987
20
-20.396698658948289
30
0
10
-7.4797551707144123
20
-20.357016532544854
30
0
10
-7.4491491020937879
20
-20.317144741994646
30
0
10
-7.4189267576088209
20
-20.277082641452676
30
0
10
-7.38907857864326
20
-20.236837599350814
30
0
10
-7.3595864110045683
20
-20.196421747007385
30
0
10
-7.3304350541811578
20
-20.155845783457352
30
0
10
-7.3016229069770127
20
-20.115113264837589
30
0
10
-7.2731711500176104
20
-20.074215683731232
30
0
10
-7.2451382909135873
20
-20.033124656894593
30
0
10
-7.2176043449121741
20
-19.991800489094857
30
0
10
-7.1906448906632363
20
-19.950206207695189
30
0
10
-7.1643068059056407
20
-19.908320670225397
30
0
10
-7.1385869627261291
20
-19.866150124831062
30
0
10
-7.113400009615944
20
-19.823745532101253
30
0
10
-7.088624941911565
20
-19.781178237587159
30
0
10
-7.0641692526266029
20
-19.738506332560586
30
0
10
-7.0400290860963537
20
-19.695743167495078
30
0
10
-7.0163466106459911
20
-19.652827250296475
30
0
10
-6.9934808975922156
20
-19.609585233417363
30
0
10
-6.9719112780444075
20
-19.565780834350388
30
0
10
-6.9560795591306164
20
-19.530094999847918
30
0
10
-6.9451775889674892
20
-19.502884007069298
30
0
10
-6.9383633150321433
20
-19.484533931249249
30
0
10
-6.9350696057529433
20
-19.475306539260295
30
0
0
LINE
5
175
100
AcDbEntity
8
0
100
AcDbLine
10
-6.9350696057529433
20
-19.475306539260291
30
0
11
-6.7230564015768826
21
-18.8813473352341
31
0
0
ARC
5
176
100
AcDbEntity
8
0
100
AcDbCircle
10
-6.2521565533350447
20
-19.049434612937723
30
0
40
0.500000000000001
100
AcDbArc
50
71.829805340923301
51
160.35602211688251
0
ARC
5
177
100
AcDbEntity
8
0
100
AcDbCircle
10
-4.1269916103405861e-13
20
2.8703857137746221e-12
30
0
40
19.549200000002603
100
AcDbArc
50
251.82980534092692
51
255.44292193180738
0
ARC
5
178
100
AcDbEntity
8
0
100
AcDbCircle
10
-5.0392531128988738
20
-19.405575196425875
30
0
40
0.50000000000000033
100
AcDbArc
50
-13.083294844155391
51
75.442921931805188
0
LINE
5
179
100
AcDbEntity
8
0
100
AcDbLine
10
-4.5522321087341879
20
-19.518758859126912
30
0
11
-4.6949938413142123
21
-20.133052129888664
31
0
0
SPLINE
5
180
100
AcDbEntity
8
0
100
AcDbSpline
70
1064
71
5
72
81
73
75
74
0
42
0.000000001
43
0.0000000001
44
0.0000000001
40
0
40
0
40
0
40
0
40
0
40
0
40
0.014285714285714285
40
0.028571428571428571
40
0.042857142857142858
40
0.057142857142857141
40
0.071428571428571425
40
0.085714285714285715
40
0.10000000000000001
40
0.1142857142857143
40
0.12857142857142859
40
0.14285714285714288
40
0.15714285714285717
40
0.17142857142857146
40
0.18571428571428575
40
0.20000000000000004
40
0.21428571428571433
40
0.22857142857142862
40
0.24285714285714291
40
0.25714285714285717
40
0.27142857142857146
40
0.28571428571428575
40
0.30000000000000004
40
0.31428571428571433
40
0.32857142857142863
40
0.34285714285714292
40
0.35714285714285721
40
0.3714285714285715
40
0.38571428571428579
40
0.40000000000000008
40
0.41428571428571437
40
0.42857142857142866
40
0.44285714285714295
40
0.45714285714285724
40
0.47142857142857153
40
0.48571428571428582
40
0.50000000000000011
40
0.51428571428571435
40
0.52857142857142858
40
0.54285714285714282
40
0.55714285714285705
40
0.57142857142857129
40
0.58571428571428552
40
0.59999999999999976
40
0.61428571428571399
40
0.62857142857142823
40
0.64285714285714246
40
0.6571428571428567
40
0.67142857142857093
40
0.68571428571428517
40
0.6999999999999994
40
0.71428571428571364
40
0.72857142857142787
40
0.74285714285714211
40
0.75714285714285634
40
0.77142857142857058
40
0.78571428571428481
40
0.79999999999999905
40
0.81428571428571328
40
0.82857142857142752
40
0.84285714285714175
40
0.85714285714285599
40
0.87142857142857022
40
0.88571428571428445
40
0.89999999999999869
40
0.91428571428571292
40
0.92857142857142716
40
0.94285714285714139
40
0.95714285714285563
40
0.97142857142856986
40
0.9857142857142841
40
1
40
1
40
1
40
1
40
1
40
1
10
-4.6949938413142123
20
-20.133052129888664
30
0
10
-4.6972117014948589
20
-20.142595419675363
30
0
10
-4.701399969464795
20
-20.161716560417474
30
0
10
-4.7069400219298538
20
-20.190501954285196
30
0
10
-4.7129147511998379
20
-20.229082062087713
30
0
10
-4.7184516786731399
20
-20.27759408430088
30
0
10
-4.7225942161398997
20
-20.326333721564282
30
0
10
-4.7258733465572034
20
-20.375240601409153
30
0
10
-4.7286848586985029
20
-20.424266424461983
30
0
10
-4.7311815973056612
20
-20.473386059164685
30
0
10
-4.7333531009761938
20
-20.522590358913941
30
0
10
-4.735090141368314
20
-20.571880467274873
30
0
10
-4.7362523505642269
20
-20.62126178461067
30
0
10
-4.7367403749311272
20
-20.670737584655225
30
0
10
-4.7365482050984031
20
-20.720304302211577
30
0
10
-4.7357267076118523
20
-20.769954379438392
30
0
10
-4.7343594521942851
20
-20.819678058793997
30
0
10
-4.7325352128182292
20
-20.869465474524542
30
0
10
-4.7303185543579067
20
-20.919308872531637
30
0
10
-4.7277318945461291
20
-20.969203958599078
30
0
10
-4.7247719637783456
20
-21.019148606786089
30
0
10
-4.7214201902354755
20
-21.069142034508722
30
0
10
-4.7176547429530533
20
-21.119183851150069
30
0
10
-4.7134635970363643
20
-21.169273025768895
30
0
10
-4.708851400596723
20
-21.219407338922846
30
0
10
-4.7038324035470893
20
-21.269583921869966
30
0
10
-4.698426204370473
20
-21.31979957581196
30
0
10
-4.6926527195758636
20
-21.370051152309454
30
0
10
-4.6865266782156132
20
-21.420335969506805
30
0
10
-4.6800551143479137
20
-21.470651998694393
30
0
10
-4.6732404437114639
20
-21.520997622499539
30
0
10
-4.6660823252272774
20
-21.571371486262684
30
0
10
-4.6585798565894283
20
-21.621772324047768
30
0
10
-4.6507339971456911
20
-21.672198766663069
30
0
10
-4.642548597281638
20
-21.722649258599304
30
0
10
-4.6340291031134386
20
-21.773122156384051
30
0
10
-4.6251817911726869
20
-21.823615785646112
30
0
10
-4.6160128580622715
20
-21.874128509542132
30
0
10
-4.6065274174308177
20
-21.924658804473978
30
0
10
-4.5967290964195486
20
-21.975205289098984
30
0
10
-4.5866205991038687
20
-22.025766678029282
30
0
10
-4.5762040496979308
20
-22.076341752683184
30
0
10
-4.5654813978713431
20
-22.12692932757308
30
0
10
-4.5544548676575944
20
-22.177528212758656
30
0
10
-4.5431271499120163
20
-22.228137198051236
30
0
10
-4.5315011641536067
20
-22.278755073333677
30
0
10
-4.5195799202967848
20
-22.329380640793168
30
0
10
-4.5073663535100925
20
-22.380012729085724
30
0
10
-4.4948631459974795
20
-22.430650209723147
30
0
10
-4.4820726481462589
20
-22.481292001961727
30
0
10
-4.4689969862173884
20
-22.5319370567709
30
0
10
-4.4556381313494411
20
-22.582584345002502
30
0
10
-4.4419979806084928
20
-22.633232845130031
30
0
10
-4.4280784477196136
20
-22.683881528171671
30
0
10
-4.4138815090631365
20
-22.734529353706709
30
0
10
-4.3994091468657492
20
-22.785175289407256
30
0
10
-4.3846633146232854
20
-22.835818326527011
30
0
10
-4.3696458982352047
20
-22.886457495186562
30
0
10
-4.3543586747044003
20
-22.937091884223506
30
0
10
-4.3388032934964382
20
-22.987720645231473
30
0
10
-4.3229813231609331
20
-23.03834295217365
30
0
10
-4.3068942887827246
20
-23.088957967843452
30
0
10
-4.2905437122120667
20
-23.139564810427331
30
0
10
-4.273931159474599
20
-23.190162513503147
30
0
10
-4.2570582676530879
20
-23.240750008569261
30
0
10
-4.2399266744081805
20
-23.291326207063786
30
0
10
-4.2225379627051112
20
-23.341890069023371
30
0
10
-4.2048936020476644
20
-23.392440675362263
30
0
10
-4.1869948915284319
20
-23.442977302839886
30
0
10
-4.1688429079769431
20
-23.493499486641912
30
0
10
-4.1504385006292486
20
-23.544006958606758
30
0
10
-4.1355135264310592
20
-23.584401068896959
30
0
10
-4.124206648475
20
-23.614689962294122
30
0
10
-4.1166184588458563
20
-23.634879585860077
30
0
10
-4.1128117962834265
20
-23.644973654634342
30
0
0
ARC
5
181
100
AcDbEntity
8
0
100
AcDbCircle
10
-4.1269916103405861e-13
20
2.8703857137746221e-12
30
0
40
24.00000000000276
100
AcDbArc
50
260.132681966409
51
262.58880082169628
0
LINE
5
182
100
AcDbEntity
8
0
100
AcDbLine
10
-3.0957462882050066
20
-23.799503249418159
30
0
11
-1.0443617209760239
21
-14.069685116223864
31
0
0
ARC
5
183
100
AcDbEntity
8
0
100
AcDbCircle
10
2.2204460492503131e-15
20
-9.9499996190335711
30
0
40
4.250000000000008
100
AcDbArc
50
89.999999792116299
51
255.77489320363989
0
ARC
5
184
100
AcDbEntity
8
0
100
AcDbCircle
10
0
20
0
30
0
40
3.9999999999999352
100
AcDbArc
50
89.999999999999915
51
269.99999999999989
0
ARC
5
185
100
AcDbEntity
8
0
100
AcDbCircle
10
0
20
9.9499999999999993
30
0
40
4.2500000000000018
100
AcDbArc
50
104.22510679636008
51
270.00000020788372
0
LINE
5
186
100
AcDbEntity
8
0
100
AcDbLine
10
1.5420086596495963e-08
20
-5.6999996190335631
30
0
11
7.3552275381416621e-15
21
-3.9999996190334914
31
0
0
LINE
5
187
100
AcDbEntity
8
0
100
AcDbLine
10
6.3488344383006495e-15
20
3.9999999999999352
30
0
11
1.5420084792383548e-08
21
5.6999999999999993
31
0
0
ENDSEC
0
SECTION
2
OBJECTS
0
DICTIONARY
5
C
100
AcDbDictionary
3
ACAD_GROUP
350
D
3
ACAD_MLINESTYLE
350
17
0
DICTIONARY
5
D
100
AcDbDictionary
0
DICTIONARY
5
1A
330
C
100
AcDbDictionary
0
DICTIONARY
5
17
100
AcDbDictionary
0
ENDSEC
0
EOF
