0
SECTION
2
HEADER
9
$INSUNITS
70
4
9
$ACADVER
1
AC1014
9
$HANDSEED
5
FFFF
0
ENDSEC
0
SECTION
2
TABLES
0
TABLE
2
VPORT
5
8
100
AcDbSymbolTable
0
ENDTAB
0
TABLE
2
LTYPE
5
5
100
AcDbSymbolTable
0
LTYPE
5
14
100
AcDbSymbolTableRecord
100
AcDbLinetypeTableRecord
2
BYBLOCK
70
0
0
LTYPE
5
15
100
AcDbSymbolTableRecord
100
AcDbLinetypeTableRecord
2
BYLAYER
70
0
0
ENDTAB
0
TABLE
2
LAYER
5
2
100
AcDbSymbolTable
70
2
0
LAYER
5
50
100
AcDbSymbolTableRecord
100
AcDbLayerTableRecord
2
0
70
0
6
CONTINUOUS
0
ENDTAB
0
TABLE
2
STYLE
5
3
100
AcDbSymbolTable
70
1
0
STYLE
5
11
100
AcDbSymbolTableRecord
100
AcDbTextStyleTableRecord
2
STANDARD
70
0
0
ENDTAB
0
TABLE
2
VIEW
5
6
100
AcDbSymbolTable
70
0
0
ENDTAB
0
TABLE
2
UCS
5
7
100
AcDbSymbolTable
70
0
0
ENDTAB
0
TABLE
2
APPID
5
9
100
AcDbSymbolTable
70
2
0
APPID
5
12
100
AcDbSymbolTableRecord
100
AcDbRegAppTableRecord
2
ACAD
70
0
0
ENDTAB
0
TABLE
2
DIMSTYLE
5
A
100
AcDbSymbolTable
70
1
0
ENDTAB
0
TABLE
2
BLOCK_RECORD
5
1
100
AcDbSymbolTable
70
1
0
BLOCK_RECORD
5
1F
100
AcDbSymbolTableRecord
100
AcDbBlockTableRecord
2
*MODEL_SPACE
0
BLOCK_RECORD
5
1B
100
AcDbSymbolTableRecord
100
AcDbBlockTableRecord
2
*PAPER_SPACE
0
ENDTAB
0
ENDSEC
0
SECTION
2
BLOCKS
0
BLOCK
5
20
100
AcDbEntity
100
AcDbBlockBegin
2
*MODEL_SPACE
0
ENDBLK
5
21
100
AcDbEntity
100
AcDbBlockEnd
0
BLOCK
5
1C
100
AcDbEntity
100
AcDbBlockBegin
2
*PAPER_SPACE
0
ENDBLK
5
1D
100
AcDbEntity
100
AcDbBlockEnd
0
ENDSEC
0
SECTION
2
ENTITIES
0
LWPOLYLINE
5
100
100
AcDbEntity
8
0
100
AcDbPolyline
90
2
70
1
43
0.0
10
0.50000000000000011
20
2.8946340442273528
10
0.50000000000000067
20
-2.8946340442273524
42
0.84207535832068392
0
LWPOLYLINE
5
101
100
AcDbEntity
8
0
100
AcDbPolyline
90
2
70
1
43
0.0
10
-0.50000000000000011
20
-2.8946340442273528
10
-0.50000000000000078
20
2.8946340442273533
42
0.84207535832068436
0
ARC
5
102
100
AcDbEntity
8
0
100
AcDbCircle
10
-5.5511151231257827e-16
20
-2.7755575615628914e-16
30
0
40
12.549200000000001
100
AcDbArc
50
213.0534041855629
51
218.94659581443716
0
ARC
5
103
100
AcDbEntity
8
0
100
AcDbCircle
10
-10.148783024652275
20
-8.2026717451407176
30
0
40
0.49999999999999944
100
AcDbArc
50
-48.810330060429216
51
38.946595814439242
0
LINE
5
104
100
AcDbEntity
8
0
100
AcDbLine
10
-9.8195061277290456
20
-8.5789385722097649
30
0
11
-10.614320022361653
21
-9.2744924558585762
31
0
0
SPLINE
5
105
100
AcDbEntity
8
0
100
AcDbSpline
70
1064
71
5
72
81
73
75
74
0
42
0.000000001
43
0.0000000001
44
0.0000000001
40
0
40
0
40
0
40
0
40
0
40
0
40
0.014285714285714285
40
0.028571428571428571
40
0.042857142857142858
40
0.057142857142857141
40
0.071428571428571425
40
0.085714285714285715
40
0.10000000000000001
40
0.1142857142857143
40
0.12857142857142859
40
0.14285714285714288
40
0.15714285714285717
40
0.17142857142857146
40
0.18571428571428575
40
0.20000000000000004
40
0.21428571428571433
40
0.22857142857142862
40
0.24285714285714291
40
0.25714285714285717
40
0.27142857142857146
40
0.28571428571428575
40
0.30000000000000004
40
0.31428571428571433
40
0.32857142857142863
40
0.34285714285714292
40
0.35714285714285721
40
0.3714285714285715
40
0.38571428571428579
40
0.40000000000000008
40
0.41428571428571437
40
0.42857142857142866
40
0.44285714285714295
40
0.45714285714285724
40
0.47142857142857153
40
0.48571428571428582
40
0.50000000000000011
40
0.51428571428571435
40
0.52857142857142858
40
0.54285714285714282
40
0.55714285714285705
40
0.57142857142857129
40
0.58571428571428552
40
0.59999999999999976
40
0.61428571428571399
40
0.62857142857142823
40
0.64285714285714246
40
0.6571428571428567
40
0.67142857142857093
40
0.68571428571428517
40
0.6999999999999994
40
0.71428571428571364
40
0.72857142857142787
40
0.74285714285714211
40
0.75714285714285634
40
0.77142857142857058
40
0.78571428571428481
40
0.79999999999999905
40
0.81428571428571328
40
0.82857142857142752
40
0.84285714285714175
40
0.85714285714285599
40
0.87142857142857022
40
0.88571428571428445
40
0.89999999999999869
40
0.91428571428571292
40
0.92857142857142716
40
0.94285714285714139
40
0.95714285714285563
40
0.97142857142856986
40
0.9857142857142841
40
1
40
1
40
1
40
1
40
1
40
1
10
-10.614320022361653
20
-9.2744924558585762
30
0
10
-10.620801434219993
20
-9.2801644392247944
30
0
10
-10.633581416906519
20
-9.2916787808388239
30
0
10
-10.652202875030737
20
-9.3094614118312879
30
0
10
-10.675990251562965
20
-9.3341456287700506
30
0
10
-10.704312157719951
20
-9.3663443512270668
30
0
10
-10.731631473474867
20
-9.3995299019224614
30
0
10
-10.758350966335088
20
-9.4333489661345578
30
0
10
-10.784765532202682
20
-9.4675376866546905
30
0
10
-10.810981626590602
20
-9.5019906269285279
30
0
10
-10.836980988281669
20
-9.5367078166196553
30
0
10
-10.862670807149236
20
-9.5717532789022535
30
0
10
-10.887936592649741
20
-9.6072112076065217
30
0
10
-10.912699453557863
20
-9.6431385841995656
30
0
10
-10.936954080090826
20
-9.679533608624892
30
0
10
-10.960739127118568
20
-9.7163596302117767
30
0
10
-10.984118334073031
20
-9.7535602517567419
30
0
10
-11.007158789541453
20
-9.7910768049137573
30
0
10
-11.029907272021726
20
-9.8288673435017024
30
0
10
-11.052377870695461
20
-9.866916569799697
30
0
10
-11.074565195710528
20
-9.9052251562377851
30
0
10
-11.096452472969245
20
-9.9438031867274788
30
0
10
-11.118021003515945
20
-9.9826625005582219
30
0
10
-11.139260635758923
20
-10.021808216549093
30
0
10
-11.160174174593633
20
-10.061235154261857
30
0
10
-11.180771766773912
20
-10.100932349747858
30
0
10
-11.20106755780739
20
-10.140885736750407
30
0
10
-11.221075743154017
20
-10.181081317911033
30
0
10
-11.240806147327163
20
-10.221508715118588
30
0
10
-11.260262727285479
20
-10.262162365952909
30
0
10
-11.279445981646861
20
-10.303039575492793
30
0
10
-11.298354414246234
20
-10.344139329425479
30
0
10
-11.316986246012883
20
-10.385460907671792
30
0
10
-11.335341350476673
20
-10.427002317027958
30
0
10
-11.353421836682088
20
-10.468759816470874
30
0
10
-11.371231040987579
20
-10.510728727499972
30
0
10
-11.388772920907289
20
-10.552903919903658
30
0
10
-11.40605134501358
20
-10.595280381518444
30
0
10
-11.423069290168668
20
-10.637853863001261
30
0
10
-11.439828619232589
20
-10.68062105366433
30
0
10
-11.456330515371997
20
-10.723579226994563
30
0
10
-11.472575751253196
20
-10.76672601952318
30
0
10
-11.488565002191047
20
-10.810059174692102
30
0
10
-11.504299202420299
20
-10.853576251055054
30
0
10
-11.519779654309602
20
-10.897274533585936
30
0
10
-11.535007845415596
20
-10.941151184649874
30
0
10
-11.549985340924753
20
-10.985203333674193
30
0
10
-11.564713656830259
20
-11.029428181959624
30
0
10
-11.579194120140833
20
-11.073823120351484
30
0
10
-11.59342782153994
20
-11.11838576427785
30
0
10
-11.607415693092772
20
-11.163113878134057
30
0
10
-11.621158557174113
20
-11.208005324825955
30
0
10
-11.63465718463055
20
-11.253058008989337
30
0
10
-11.647912360609315
20
-11.2982698098049
30
0
10
-11.660924914120264
20
-11.343638559054575
30
0
10
-11.673695685596178
20
-11.389162093291162
30
0
10
-11.686225510400439
20
-11.43483828928858
30
0
10
-11.69851519849631
20
-11.480665101133997
30
0
10
-11.710565515524774
20
-11.526640605169764
30
0
10
-11.722377171628299
20
-11.572763008978509
30
0
10
-11.733950828388016
20
-11.619030582662575
30
0
10
-11.745287103397551
20
-11.665441602944339
30
0
10
-11.756386577369353
20
-11.711994296417769
30
0
10
-11.767249802080556
20
-11.758686769489163
30
0
10
-11.777877308992037
20
-11.805516981795412
30
0
10
-11.788269615662257
20
-11.852482873263659
30
0
10
-11.798427234474202
20
-11.899582466259071
30
0
10
-11.808350681085031
20
-11.946813974048705
30
0
10
-11.818040487229824
20
-11.994175911807757
30
0
10
-11.82749720613522
20
-12.041667188366974
30
0
10
-11.836721355852982
20
-12.089287044099033
30
0
10
-11.843914967219625
20
-12.127485412009138
30
0
10
-11.849205849222047
20
-12.156191725122532
30
0
10
-11.85268675195621
20
-12.175354830800654
30
0
10
-11.854415615339224
20
-12.184942774539472
30
0
0
ARC
5
106
100
AcDbEntity
8
0
100
AcDbCircle
10
-5.5511151231257827e-16
20
-2.7755575615628914e-16
30
0
40
17.000000000000004
100
AcDbArc
50
225.78773391907686
51
230.21226608092317
0
SPLINE
5
107
100
AcDbEntity
8
0
100
AcDbSpline
70
1064
71
5
72
81
73
75
74
0
42
0.000000001
43
0.0000000001
44
0.0000000001
40
0
40
0
40
0
40
0
40
0
40
0
40
0.014285714285714285
40
0.028571428571428571
40
0.042857142857142858
40
0.057142857142857141
40
0.071428571428571425
40
0.085714285714285715
40
0.10000000000000001
40
0.1142857142857143
40
0.12857142857142859
40
0.14285714285714288
40
0.15714285714285717
40
0.17142857142857146
40
0.18571428571428575
40
0.20000000000000004
40
0.21428571428571433
40
0.22857142857142862
40
0.24285714285714291
40
0.25714285714285717
40
0.27142857142857146
40
0.28571428571428575
40
0.30000000000000004
40
0.31428571428571433
40
0.32857142857142863
40
0.34285714285714292
40
0.35714285714285721
40
0.3714285714285715
40
0.38571428571428579
40
0.40000000000000008
40
0.41428571428571437
40
0.42857142857142866
40
0.44285714285714295
40
0.45714285714285724
40
0.47142857142857153
40
0.48571428571428582
40
0.50000000000000011
40
0.51428571428571435
40
0.52857142857142858
40
0.54285714285714282
40
0.55714285714285705
40
0.57142857142857129
40
0.58571428571428552
40
0.59999999999999976
40
0.61428571428571399
40
0.62857142857142823
40
0.64285714285714246
40
0.6571428571428567
40
0.67142857142857093
40
0.68571428571428517
40
0.6999999999999994
40
0.71428571428571364
40
0.72857142857142787
40
0.74285714285714211
40
0.75714285714285634
40
0.77142857142857058
40
0.78571428571428481
40
0.79999999999999905
40
0.81428571428571328
40
0.82857142857142752
40
0.84285714285714175
40
0.85714285714285599
40
0.87142857142857022
40
0.88571428571428445
40
0.89999999999999869
40
0.91428571428571292
40
0.92857142857142716
40
0.94285714285714139
40
0.95714285714285563
40
0.97142857142856986
40
0.9857142857142841
40
1
40
1
40
1
40
1
40
1
40
1
10
-8.1141872552106609
20
-11.525622110682878
30
0
10
-8.1191506748371722
20
-11.532660900393845
30
0
10
-8.1292660677322655
20
-11.546574449432477
30
0
10
-8.1450048112099989
20
-11.56695268835119
30
0
10
-8.1670673475115372
20
-11.593189958409436
30
0
10
-8.1961292366705241
20
-11.624722397178736
30
0
10
-8.2262773473535624
20
-11.655360889480361
30
0
10
-8.2571181996653884
20
-11.68546906497423
30
0
10
-8.288358556819265
20
-11.715312623503255
30
0
10
-8.3198824322221636
20
-11.744986416284959
30
0
10
-8.351691764192136
20
-11.77447228523971
30
0
10
-8.3838599264776335
20
-11.803684620908454
30
0
10
-8.4164826192068158
20
-11.832518360590496
30
0
10
-8.4496247580749024
20
-11.860901001420093
30
0
10
-8.4832851079097296
20
-11.888827074544873
30
0
10
-8.517423178282634
20
-11.916331192041064
30
0
10
-8.5519762183550423
20
-11.943470849056324
30
0
10
-8.5868788685053428
20
-11.970306634147525
30
0
10
-8.6220845226534788
20
-11.996880684985216
30
0
10
-8.6575764941605886
20
-12.02320541452173
30
0
10
-8.6933560151660298
20
-12.049275532719195
30
0
10
-8.7294348677112481
20
-12.075075411425967
30
0
10
-8.7658267808019215
20
-12.100587691663939
30
0
10
-8.8025379063459805
20
-12.125802812515191
30
0
10
-8.8395627990927643
20
-12.150723022006408
30
0
10
-8.8768894945306904
20
-12.17535726526175
30
0
10
-8.9145025248513168
20
-12.199718139974076
30
0
10
-8.9523864855455528
20
-12.223818300716756
30
0
10
-8.9905300284133496
20
-12.247666433375429
30
0
10
-9.0289272078912504
20
-12.271265891800891
30
0
10
-9.0675752917013543
20
-12.29461689018358
30
0
10
-9.1064734274792478
20
-12.317717834530013
30
0
10
-9.1456210850539463
20
-12.340566880246646
30
0
10
-9.1850162953603967
20
-12.363163693209628
30
0
10
-9.2246551174140219
20
-12.385509979866482
30
0
10
-9.2645325495991493
20
-12.407608569262273
30
0
10
-9.3046430761351502
20
-12.429462860978319
30
0
10
-9.3449813079397686
20
-12.4510761784808
30
0
10
-9.3855427077814539
20
-12.472451038147064
30
0
10
-9.4263237883868136
20
-12.4935889465711
30
0
10
-9.4673217145043012
20
-12.51449079543983
30
0
10
-9.5085340548468427
20
-12.535157106137049
30
0
10
-9.5499584946283935
20
-12.555588314403625
30
0
10
-9.5915925081230551
20
-12.575785094155842
30
0
10
-9.6334332590433256
20
-12.595748456830339
30
0
10
-9.6754777698071912
20
-12.615479585221145
30
0
10
-9.7177230219607296
20
-12.634979735883935
30
0
10
-9.7601660736718081
20
-12.654250123963385
30
0
10
-9.8028041913687822
20
-12.673291796467792
30
0
10
-9.8456348895351926
20
-12.692105588850103
30
0
10
-9.8886558473859125
20
-12.710692194385242
30
0
10
-9.9318648535724439
20
-12.729052207555771
30
0
10
-9.9752597436337958
20
-12.747186175960302
30
0
10
-10.018838326298498
20
-12.765094658758953
30
0
10
-10.062598358571087
20
-12.782778253779687
30
0
10
-10.106537601006799
20
-12.800237570709495
30
0
10
-10.15065385469156
20
-12.817473218397984
30
0
10
-10.194945000256048
20
-12.834485788515229
30
0
10
-10.239409044549339
20
-12.851275841430979
30
0
10
-10.284044130743005
20
-12.867843896038835
30
0
10
-10.328848469261896
20
-12.884190429472168
30
0
10
-10.373820281712565
20
-12.900315875809804
30
0
10
-10.418957743702908
20
-12.91622062721158
30
0
10
-10.464258914336106
20
-12.931905034497495
30
0
10
-10.509721708873592
20
-12.947369412941011
30
0
10
-10.55534402442821
20
-12.962614061929099
30
0
10
-10.601123840640215
20
-12.977639284318725
30
0
10
-10.64705932666371
20
-12.992445406177776
30
0
10
-10.693148950226481
20
-13.00703280112198
30
0
10
-10.739391568308875
20
-13.021401905289094
30
0
10
-10.785786371293739
20
-13.035553154490261
30
0
10
-10.823023547406173
20
-13.046700175198133
30
0
10
-10.851019556567698
20
-13.054962699991176
30
0
10
-10.869713831334259
20
-13.060427623963918
30
0
10
-10.879068535881444
20
-13.063149229477343
30
0
0
LINE
5
108
100
AcDbEntity
8
0
100
AcDbLine
10
-8.1141872552106609
20
-11.525622110682878
30
0
11
-7.5055243635032065
21
-10.662457111150157
31
0
0
ARC
5
109
100
AcDbEntity
8
0
100
AcDbCircle
10
-7.0968999574573619
20
-10.950599601567108
30
0
40
0.50000000000000033
100
AcDbArc
50
57.053404185562925
51
144.81033006042935
0
ARC
5
110
100
AcDbEntity
8
0
100
AcDbCircle
10
-5.5511151231257827e-16
20
-2.7755575615628914e-16
30
0
40
12.549200000000001
100
AcDbArc
50
237.05340418556284
51
242.94659581443727
0
ARC
5
111
100
AcDbEntity
8
0
100
AcDbCircle
10
-5.935047462900175
20
-11.621395452058339
30
0
40
0.50000000000000011
100
AcDbArc
50
-24.810330060429031
51
62.946595814435817
0
LINE
5
112
100
AcDbEntity
8
0
100
AcDbLine
10
-5.48119654326646
20
-11.83120332309189
30
0
11
-5.9243879146656511
21
-12.789903349417802
31
0
0
SPLINE
5
113
100
AcDbEntity
8
0
100
AcDbSpline
70
1064
71
5
72
81
73
75
74
0
42
0.000000001
43
0.0000000001
44
0.0000000001
40
0
40
0
40
0
40
0
40
0
40
0
40
0.014285714285714285
40
0.028571428571428571
40
0.042857142857142858
40
0.057142857142857141
40
0.071428571428571425
40
0.085714285714285715
40
0.10000000000000001
40
0.1142857142857143
40
0.12857142857142859
40
0.14285714285714288
40
0.15714285714285717
40
0.17142857142857146
40
0.18571428571428575
40
0.20000000000000004
40
0.21428571428571433
40
0.22857142857142862
40
0.24285714285714291
40
0.25714285714285717
40
0.27142857142857146
40
0.28571428571428575
40
0.30000000000000004
40
0.31428571428571433
40
0.32857142857142863
40
0.34285714285714292
40
0.35714285714285721
40
0.3714285714285715
40
0.38571428571428579
40
0.40000000000000008
40
0.41428571428571437
40
0.42857142857142866
40
0.44285714285714295
40
0.45714285714285724
40
0.47142857142857153
40
0.48571428571428582
40
0.50000000000000011
40
0.51428571428571435
40
0.52857142857142858
40
0.54285714285714282
40
0.55714285714285705
40
0.57142857142857129
40
0.58571428571428552
40
0.59999999999999976
40
0.61428571428571399
40
0.62857142857142823
40
0.64285714285714246
40
0.6571428571428567
40
0.67142857142857093
40
0.68571428571428517
40
0.6999999999999994
40
0.71428571428571364
40
0.72857142857142787
40
0.74285714285714211
40
0.75714285714285634
40
0.77142857142857058
40
0.78571428571428481
40
0.79999999999999905
40
0.81428571428571328
40
0.82857142857142752
40
0.84285714285714175
40
0.85714285714285599
40
0.87142857142857022
40
0.88571428571428445
40
0.89999999999999869
40
0.91428571428571292
40
0.92857142857142716
40
0.94285714285714139
40
0.95714285714285563
40
0.97142857142856986
40
0.9857142857142841
40
1
40
1
40
1
40
1
40
1
40
1
10
-5.9243879146656511
20
-12.789903349417802
30
0
10
-5.9280019755539906
20
-12.797721191759488
30
0
10
-5.9349937660306988
20
-12.813438153495213
30
0
10
-5.9447724668798285
20
-12.837257424629932
30
0
10
-5.9564633411254526
20
-12.869482776568105
30
0
10
-5.9692402895634515
20
-12.910417330246407
30
0
10
-5.9806999468887936
20
-12.951845606124834
30
0
10
-5.9913539655721681
20
-12.993608655448174
30
0
10
-6.0015790668206934
20
-13.035585377631243
30
0
10
-6.0115153874948373
20
-13.077722750946741
30
0
10
-6.0211462330773227
20
-13.120013374987526
30
0
10
-6.0303607767275853
20
-13.162477988554198
30
0
10
-6.0390201814137505
20
-13.205146939038546
30
0
10
-6.0470291999646264
20
-13.248040193648858
30
0
10
-6.0543837138012124
20
-13.291153948268482
30
0
10
-6.0611339430751352
20
-13.334470443195691
30
0
10
-6.0673610554641408
20
-13.377964082184006
30
0
10
-6.073150202008474
20
-13.421608556419171
30
0
10
-6.078561178041304
20
-13.46538457268715
30
0
10
-6.0836130768141237
20
-13.509283886410957
30
0
10
-6.0883007009500725
20
-13.553304919635643
30
0
10
-6.0926046250520827
20
-13.597450061832578
30
0
10
-6.0965029513013018
20
-13.641722523180404
30
0
10
-6.0999843237459475
20
-13.686122850928706
30
0
10
-6.1030534118595812
20
-13.730647453365421
30
0
10
-6.1057239446027491
20
-13.775290441481662
30
0
10
-6.1080145658017209
20
-13.820044718608802
30
0
10
-6.1099439368930515
20
-13.864903271337322
30
0
10
-6.1115252541743859
20
-13.909860614780511
30
0
10
-6.1127643949474395
20
-13.954913276854775
30
0
10
-6.1136629108455249
20
-14.000058998433257
30
0
10
-6.1142198476119987
20
-14.045296244349988
30
0
10
-6.1144338728674867
20
-14.090623633166647
30
0
10
-6.1143056817847707
20
-14.136039292560953
30
0
10
-6.1138387226830435
20
-14.181540662763915
30
0
10
-6.1130379463950346
20
-14.227124826771821
30
0
10
-6.1119090549348449
20
-14.272788707569187
30
0
10
-6.1104576210497434
20
-14.318529299806977
30
0
10
-6.1086880926022129
20
-14.364343932316064
30
0
10
-6.1066035179776161
20
-14.410230338326105
30
0
10
-6.1042060870252559
20
-14.456186508280691
30
0
10
-6.1014974669202795
20
-14.502210597315351
30
0
10
-6.0984791924183712
20
-14.548300818637001
30
0
10
-6.0951531100111014
20
-14.594455321860991
30
0
10
-6.0915215137720393
20
-14.640672156408613
30
0
10
-6.0875869168218788
20
-14.686949335015209
30
0
10
-6.0833519165967083
20
-14.73328487190085
30
0
10
-6.0788190363587553
20
-14.779676826936505
30
0
10
-6.07399054962963
20
-14.826123356283835
30
0
10
-6.0688684226910317
20
-14.872622725148927
30
0
10
-6.0634544163292237
20
-14.919173270310361
30
0
10
-6.0577501510554512
20
-14.96577337392544
30
0
10
-6.0517571833345229
20
-15.012421435315268
30
0
10
-6.0454770930490405
20
-15.059115836363146
30
0
10
-6.0389115194309406
20
-15.105854933492003
30
0
10
-6.0320621102070184
20
-15.152637092129277
30
0
10
-6.0249304921135476
20
-15.199460712384322
30
0
10
-6.0175182372365024
20
-15.246324254664508
30
0
10
-6.0098268274457842
20
-15.293226273035369
30
0
10
-6.0018576405306421
20
-15.340165418883121
30
0
10
-5.9936119844882727
20
-15.387140380956904
30
0
10
-5.9850911244386937
20
-15.434149836162232
30
0
10
-5.976296312198337
20
-15.48119240060911
30
0
10
-5.9672288220346417
20
-15.528266568841589
30
0
10
-5.9578899693517204
20
-15.575370693059845
30
0
10
-5.9482810648698727
20
-15.622503101803657
30
0
10
-5.9384033810507972
20
-15.669662196818646
30
0
10
-5.9282581157005145
20
-15.716846555579707
30
0
10
-5.9178463585158472
20
-15.764055037908026
30
0
10
-5.9071690587129941
20
-15.811286871988441
30
0
10
-5.8962269985240585
20
-15.85854157457749
30
0
10
-5.8872620135773701
20
-15.896363425409989
30
0
10
-5.8804195653667808
20
-15.924739942944973
30
0
10
-5.8758051909736464
20
-15.943662121784513
30
0
10
-5.8734848182137576
20
-15.953124336323985
30
0
0
ARC
5
114
100
AcDbEntity
8
0
100
AcDbCircle
10
-5.5511151231257827e-16
20
-2.7755575615628914e-16
30
0
40
17
100
AcDbArc
50
249.78773391907683
51
254.21226608092311
0
SPLINE
5
115
100
AcDbEntity
8
0
100
AcDbSpline
70
1064
71
5
72
81
73
75
74
0
42
0.000000001
43
0.0000000001
44
0.0000000001
40
0
40
0
40
0
40
0
40
0
40
0
40
0.014285714285714285
40
0.028571428571428571
40
0.042857142857142858
40
0.057142857142857141
40
0.071428571428571425
40
0.085714285714285715
40
0.10000000000000001
40
0.1142857142857143
40
0.12857142857142859
40
0.14285714285714288
40
0.15714285714285717
40
0.17142857142857146
40
0.18571428571428575
40
0.20000000000000004
40
0.21428571428571433
40
0.22857142857142862
40
0.24285714285714291
40
0.25714285714285717
40
0.27142857142857146
40
0.28571428571428575
40
0.30000000000000004
40
0.31428571428571433
40
0.32857142857142863
40
0.34285714285714292
40
0.35714285714285721
40
0.3714285714285715
40
0.38571428571428579
40
0.40000000000000008
40
0.41428571428571437
40
0.42857142857142866
40
0.44285714285714295
40
0.45714285714285724
40
0.47142857142857153
40
0.48571428571428582
40
0.50000000000000011
40
0.51428571428571435
40
0.52857142857142858
40
0.54285714285714282
40
0.55714285714285705
40
0.57142857142857129
40
0.58571428571428552
40
0.59999999999999976
40
0.61428571428571399
40
0.62857142857142823
40
0.64285714285714246
40
0.6571428571428567
40
0.67142857142857093
40
0.68571428571428517
40
0.6999999999999994
40
0.71428571428571364
40
0.72857142857142787
40
0.74285714285714211
40
0.75714285714285634
40
0.77142857142857058
40
0.78571428571428481
40
0.79999999999999905
40
0.81428571428571328
40
0.82857142857142752
40
0.84285714285714175
40
0.85714285714285599
40
0.87142857142857022
40
0.88571428571428445
40
0.89999999999999869
40
0.91428571428571292
40
0.92857142857142716
40
0.94285714285714139
40
0.95714285714285563
40
0.97142857142856986
40
0.9857142857142841
40
1
40
1
40
1
40
1
40
1
40
1
10
-2.7247860627998142
20
-13.829517011192294
30
0
10
-2.7264574385556317
20
-13.837966070197114
30
0
10
-2.7300391595579718
20
-13.854791030670587
30
0
10
-2.7361286406814611
20
-13.879809001957897
30
0
10
-2.7456121113568428
20
-13.912751582793575
30
0
10
-2.7593360698955296
20
-13.953378434237631
30
0
10
-2.7744159419588588
20
-13.993630431043096
30
0
10
-2.7903443642686412
20
-14.033679722742331
30
0
10
-2.8067453818281662
20
-14.07364976807367
30
0
10
-2.8234744561464171
20
-14.11358004193854
30
0
10
-2.8405407435214025
20
-14.153454744490745
30
0
10
-2.8580460947117201
20
-14.193225511389983
30
0
10
-2.8761206689849397
20
-14.23283528783212
30
0
10
-2.8948532593517857
20
-14.272244242745458
30
0
10
-2.9142449618089916
20
-14.311446877694969
30
0
10
-2.9342447085096768
20
-14.350458343444645
30
0
10
-2.954771788326954
20
-14.389305641360027
30
0
10
-2.9757418486891494
20
-14.428017537688952
30
0
10
-2.9970951738888689
20
-14.466613570708386
30
0
10
-3.0188114711204084
20
-14.50509829314708
30
0
10
-3.0408940176513308
20
-14.543467373471197
30
0
10
-3.0633599334540182
20
-14.581711326841765
30
0
10
-3.0862288211317237
20
-14.61981987913288
30
0
10
-3.1095101895076596
20
-14.657786798217771
30
0
10
-3.1331981497429826
20
-14.695611922988046
30
0
10
-3.1572781334027198
20
-14.733298558815962
30
0
10
-3.1817308859974194
20
-14.770851922942125
30
0
10
-3.2065371877290856
20
-14.808277310316246
30
0
10
-3.2316831386331413
20
-14.8455780401609
30
0
10
-3.2571619430330854
20
-14.882754758092728
30
0
10
-3.282971017749754
20
-14.919806548466887
30
0
10
-3.309110232445065
20
-14.956731608410029
30
0
10
-3.3355798530475109
20
-14.993528037162145
30
0
10
-3.3623782166270666
20
-15.030194728594989
30
0
10
-3.3895010288404404
20
-15.066731638683105
30
0
10
-3.41694256980806
20
-15.1031393175474
30
0
10
-3.4446964178792938
20
-15.139418627389848
30
0
10
-3.4727562981070479
20
-15.17557041241065
30
0
10
-3.5011170420211712
20
-15.211595125976574
30
0
10
-3.5297748510519193
20
-15.247492726027847
30
0
10
-3.5587267723863714
20
-15.283262873960302
30
0
10
-3.5879703728673729
20
-15.318905057188202
30
0
10
-3.6175033606008671
20
-15.354418732272324
30
0
10
-3.6473231541149866
20
-15.389803487560563
30
0
10
-3.6774267509438281
20
-15.425059093424203
30
0
10
-3.7078109498451872
20
-15.460185419307646
30
0
10
-3.7384724822369635
20
-15.495182385415804
30
0
10
-3.7694081663779078
20
-15.530049905287653
30
0
10
-3.8006150791694164
20
-15.564787823569109
30
0
10
-3.8320906101698955
20
-15.599395892533799
30
0
10
-3.8638323572563178
20
-15.633873801571532
30
0
10
-3.8958380584634678
20
-15.668221194332673
30
0
10
-3.9281055137294141
20
-15.702437690707864
30
0
10
-3.9606324937971515
20
-15.736522910244886
30
0
10
-3.993416706429822
20
-15.77047648677831
30
0
10
-4.0264558578107987
20
-15.804298066420673
30
0
10
-4.0597476914906689
20
-15.837987311004841
30
0
10
-4.0932900306753153
20
-15.871543899023159
30
0
10
-4.1270808266078509
20
-15.90496753171135
30
0
10
-4.1611181719380639
20
-15.938257927862141
30
0
10
-4.1954002377400776
20
-15.971414795472771
30
0
10
-4.2299252228148729
20
-16.004437807756197
30
0
10
-4.2646913009915526
20
-16.037326580921135
30
0
10
-4.2996965564812966
20
-16.070080646023751
30
0
10
-4.3349389565473864
20
-16.102699443141116
30
0
10
-4.3704164583351615
20
-16.135182390455569
30
0
10
-4.4061270929711247
20
-16.167528942886378
30
0
10
-4.4420690552705757
20
-16.199738653639269
30
0
10
-4.4782407934699728
20
-16.231811240797931
30
0
10
-4.5146410859757111
20
-16.263746637886065
30
0
10
-4.5512690159053442
20
-16.295544913735984
30
0
10
-4.580752967215278
20
-16.320873947879505
30
0
10
-4.602967922619257
20
-16.339809142658723
30
0
10
-4.6178232075848342
20
-16.352405245693674
30
0
10
-4.6252621787411972
20
-16.358696457172442
30
0
0
LINE
5
116
100
AcDbEntity
8
0
100
AcDbLine
10
-2.7247860627998142
20
-13.829517011192294
30
0
11
-2.5198256771753211
21
-12.793411045335199
31
0
0
ARC
5
117
100
AcDbEntity
8
0
100
AcDbCircle
10
-2.0293305978705463
20
-12.890439789415503
30
0
40
0.50000000000000067
100
AcDbArc
50
81.053404185562854
51
168.81033006042918
0
ARC
5
118
100
AcDbEntity
8
0
100
AcDbCircle
10
-5.5511151231257827e-16
20
-2.7755575615628914e-16
30
0
40
12.549199999999999
100
AcDbArc
50
261.05340418556284
51
266.94659581443727
0
ARC
5
119
100
AcDbEntity
8
0
100
AcDbCircle
10
-0.69508827659911265
20
-13.030674308251838
30
0
40
0.50000000000000011
100
AcDbArc
50
-0.81033006042894362
51
86.946595814437131
0
LINE
5
120
100
AcDbEntity
8
0
100
AcDbLine
10
-0.19513828136574812
20
-13.03774553630352
30
0
11
-0.21007531514939004
21
-14.093823761238466
31
0
0
SPLINE
5
121
100
AcDbEntity
8
0
100
AcDbSpline
70
1064
71
5
72
81
73
75
74
0
42
0.000000001
43
0.0000000001
44
0.0000000001
40
0
40
0
40
0
40
0
40
0
40
0
40
0.014285714285714285
40
0.028571428571428571
40
0.042857142857142858
40
0.057142857142857141
40
0.071428571428571425
40
0.085714285714285715
40
0.10000000000000001
40
0.1142857142857143
40
0.12857142857142859
40
0.14285714285714288
40
0.15714285714285717
40
0.17142857142857146
40
0.18571428571428575
40
0.20000000000000004
40
0.21428571428571433
40
0.22857142857142862
40
0.24285714285714291
40
0.25714285714285717
40
0.27142857142857146
40
0.28571428571428575
40
0.30000000000000004
40
0.31428571428571433
40
0.32857142857142863
40
0.34285714285714292
40
0.35714285714285721
40
0.3714285714285715
40
0.38571428571428579
40
0.40000000000000008
40
0.41428571428571437
40
0.42857142857142866
40
0.44285714285714295
40
0.45714285714285724
40
0.47142857142857153
40
0.48571428571428582
40
0.50000000000000011
40
0.51428571428571435
40
0.52857142857142858
40
0.54285714285714282
40
0.55714285714285705
40
0.57142857142857129
40
0.58571428571428552
40
0.59999999999999976
40
0.61428571428571399
40
0.62857142857142823
40
0.64285714285714246
40
0.6571428571428567
40
0.67142857142857093
40
0.68571428571428517
40
0.6999999999999994
40
0.71428571428571364
40
0.72857142857142787
40
0.74285714285714211
40
0.75714285714285634
40
0.77142857142857058
40
0.78571428571428481
40
0.79999999999999905
40
0.81428571428571328
40
0.82857142857142752
40
0.84285714285714175
40
0.85714285714285599
40
0.87142857142857022
40
0.88571428571428445
40
0.89999999999999869
40
0.91428571428571292
40
0.92857142857142716
40
0.94285714285714139
40
0.95714285714285563
40
0.97142857142856986
40
0.9857142857142841
40
1
40
1
40
1
40
1
40
1
40
1
10
-0.21007531514939004
20
-14.093823761238466
30
0
10
-0.210197121107423
20
-14.102435686591871
30
0
10
-0.2101917752824678
20
-14.119637662981075
30
0
10
-0.20943689264298793
20
-14.145375005887573
30
0
10
-0.20700980623668097
20
-14.179569436716911
30
0
10
-0.20203254649582975
20
-14.222161865406775
30
0
10
-0.19565106653232661
20
-14.264669541204785
30
0
10
-0.18839743441978002
20
-14.307155365005968
30
0
10
-0.18066505815123896
20
-14.349661932239972
30
0
10
-0.17260352499840509
20
-14.39219780394486
30
0
10
-0.16420059377761365
20
-14.434749429240391
30
0
10
-0.15534658390194078
20
-14.477290676626559
30
0
10
-0.14590231803530473
20
-14.519792799716992
30
0
10
-0.13577266216183798
20
-14.562235298949471
30
0
10
-0.12495540104604214
20
-14.60461302391349
30
0
10
-0.11350363660077689
20
-14.646930176690109
30
0
10
-0.10150193012072428
20
-14.689196387813395
30
0
10
-0.089038771710708009
20
-14.731422257033842
30
0
10
-0.076176634382843222
20
-14.773614480076503
30
0
10
-0.062936314061871335
20
-14.815773291070526
30
0
10
-0.049313704519866053
20
-14.857895134518728
30
0
10
-0.035290087888010524
20
-14.899974292291034
30
0
10
-0.02084415381607474
20
-14.942004790386218
30
0
10
-0.0059653055394340293
20
-14.983982509859953
30
0
10
0.0093407302846451601
20
-15.025906068766002
30
0
10
0.025059016350911234
20
-15.067775671298364
30
0
10
0.041169634201387584
20
-15.109592417454969
30
0
10
0.057652683154832685
20
-15.151357490457467
30
0
10
0.074493876889066002
20
-15.193071247030316
30
0
10
0.091686433998176831
20
-15.234732905781296
30
0
10
0.10922801812492916
20
-15.27634103400146
30
0
10
0.12711887661788712
20
-15.317893841115746
30
0
10
0.14535966478459644
20
-15.359389523189959
30
0
10
0.1639489860110363
20
-15.400826652524813
30
0
10
0.18288264894902345
20
-15.442204293212749
30
0
10
0.20215494433551501
20
-15.483521794123368
30
0
10
0.22175941158647766
20
-15.524778663481227
30
0
10
0.24168973735837818
20
-15.565974422403865
30
0
10
0.2619407718642866
20
-15.607108439765531
30
0
10
0.28250880828704139
20
-15.6481798846585
30
0
10
0.30339102873953139
20
-15.689187811953593
30
0
10
0.32458515980749225
20
-15.730131214384482
30
0
10
0.3460890726676169
20
-15.771009083875827
30
0
10
0.36790032784668025
20
-15.811820481052926
30
0
10
0.3900160362323557
20
-15.852564557057246
30
0
10
0.41243309368129616
20
-15.893240518610455
30
0
10
0.43514831962809586
20
-15.933847608084745
30
0
10
0.4581586198364419
20
-15.974385079387282
30
0
10
0.48146116738437827
20
-16.014852172812461
30
0
10
0.50505346037993271
20
-16.055248103305999
30
0
10
0.52893321377172087
20
-16.095572067615819
30
0
10
0.55309828911314629
20
-16.135823246890382
30
0
10
0.57754661344809133
20
-16.176000811908018
30
0
10
0.60227608533462829
20
-16.216103927041722
30
0
10
0.62728453875684731
20
-16.256131757544811
30
0
10
0.65256980360086037
20
-16.296083480351818
30
0
10
0.67812974303498641
20
-16.335958295543161
30
0
10
0.70396229467848392
20
-16.375755436055954
30
0
10
0.73006551666130581
20
-16.415474183694126
30
0
10
0.75643760177969799
20
-16.455113866835053
30
0
10
0.7830768217849905
20
-16.494673819601861
30
0
10
0.80998148278152882
20
-16.534153347858258
30
0
10
0.83714987829932741
20
-16.573551696517438
30
0
10
0.86458023191305478
20
-16.612868008568221
30
0
10
0.89227067172068852
20
-16.652101313693606
30
0
10
0.92021932047553812
20
-16.691250618056689
30
0
10
0.94842436565737254
20
-16.730314979136235
30
0
10
0.97688413442286059
20
-16.769293584582492
30
0
10
1.0055971675319153
20
-16.808185836009919
30
0
10
1.0345622839068811
20
-16.846991414411285
30
0
10
1.0637785723903503
20
-16.88571019648418
30
0
10
1.0873520263087564
20
-16.916615788629407
30
0
10
1.1051446832750547
20
-16.939755952911607
30
0
10
1.1170564675426407
20
-16.955165388288613
30
0
10
1.1230248629153223
20
-16.962865770773348
30
0
0
ARC
5
122
100
AcDbEntity
8
0
100
AcDbCircle
10
-5.5511151231257827e-16
20
-2.7755575615628914e-16
30
0
40
17
100
AcDbArc
50
273.78773391907686
51
278.2122660809232
0
SPLINE
5
123
100
AcDbEntity
8
0
100
AcDbSpline
70
1064
71
5
72
81
73
75
74
0
42
0.000000001
43
0.0000000001
44
0.0000000001
40
0
40
0
40
0
40
0
40
0
40
0
40
0.014285714285714285
40
0.028571428571428571
40
0.042857142857142858
40
0.057142857142857141
40
0.071428571428571425
40
0.085714285714285715
40
0.10000000000000001
40
0.1142857142857143
40
0.12857142857142859
40
0.14285714285714288
40
0.15714285714285717
40
0.17142857142857146
40
0.18571428571428575
40
0.20000000000000004
40
0.21428571428571433
40
0.22857142857142862
40
0.24285714285714291
40
0.25714285714285717
40
0.27142857142857146
40
0.28571428571428575
40
0.30000000000000004
40
0.31428571428571433
40
0.32857142857142863
40
0.34285714285714292
40
0.35714285714285721
40
0.3714285714285715
40
0.38571428571428579
40
0.40000000000000008
40
0.41428571428571437
40
0.42857142857142866
40
0.44285714285714295
40
0.45714285714285724
40
0.47142857142857153
40
0.48571428571428582
40
0.50000000000000011
40
0.51428571428571435
40
0.52857142857142858
40
0.54285714285714282
40
0.55714285714285705
40
0.57142857142857129
40
0.58571428571428552
40
0.59999999999999976
40
0.61428571428571399
40
0.62857142857142823
40
0.64285714285714246
40
0.6571428571428567
40
0.67142857142857093
40
0.68571428571428517
40
0.6999999999999994
40
0.71428571428571364
40
0.72857142857142787
40
0.74285714285714211
40
0.75714285714285634
40
0.77142857142857058
40
0.78571428571428481
40
0.79999999999999905
40
0.81428571428571328
40
0.82857142857142752
40
0.84285714285714175
40
0.85714285714285599
40
0.87142857142857022
40
0.88571428571428445
40
0.89999999999999869
40
0.91428571428571292
40
0.92857142857142716
40
0.94285714285714139
40
0.95714285714285563
40
0.97142857142856986
40
0.9857142857142841
40
1
40
1
40
1
40
1
40
1
40
1
10
3.1357553937733962
20
-13.742162783248716
30
0
10
3.1376650579404242
20
-13.750561192488163
30
0
10
3.141236320931057
20
-13.76738837588065
30
0
10
3.1458490287692604
20
-13.792720245019847
30
0
10
3.1505844019544362
20
-13.826672065132517
30
0
10
3.154571371145638
20
-13.869368577553292
30
0
10
3.1571671845781046
20
-13.912274142937019
30
0
10
3.1589053611929008
20
-13.955339664470435
30
0
10
3.160179568162337
20
-13.998525012649836
30
0
10
3.1611379038572265
20
-14.041807460491484
30
0
10
3.1617655772067161
20
-14.085176298319571
30
0
10
3.1619498713635075
20
-14.12862876954634
30
0
10
3.1615486736404428
20
-14.17216569255821
30
0
10
3.1604646668295078
20
-14.215786795231654
30
0
10
3.1586946132728611
20
-14.259487500278373
30
0
10
3.1562913281409362
20
-14.303260877445371
30
0
10
3.1533395271618634
20
-14.347098765534687
30
0
10
3.1499279705314143
20
-14.390993134539523
30
0
10
3.1461191581960133
20
-14.434937544997691
30
0
10
3.1419334803177423
20
-14.478927902206189
30
0
10
3.1373661811701732
20
-14.522961582096762
30
0
10
3.1323977630487398
20
-14.567036883157948
30
0
10
3.1270061392208
20
-14.611152392605739
30
0
10
3.1211800881097798
20
-14.655306284695866
30
0
10
3.1149249239089647
20
-14.699496017041941
30
0
10
3.1082552999619706
20
-14.743718683735448
30
0
10
3.1011909281631045
20
-14.787971219456432
30
0
10
3.0937515203215904
20
-14.832250643986043
30
0
10
3.0859511247363791
20
-14.876554335960044
30
0
10
3.077796212162812
20
-14.920880121127942
30
0
10
3.0692887700261751
20
-14.965226112332932
30
0
10
3.0604281841015761
20
-15.009590609554982
30
0
10
3.0512134383425016
20
-15.053971984526271
30
0
10
3.0416456020082339
20
-15.098368550373802
30
0
10
3.0317285802698168
20
-15.142778520211541
30
0
10
3.0214678222515792
20
-15.187200070115326
30
0
10
3.0108695451124246
20
-15.231631375825231
30
0
10
2.9999398246689237
20
-15.276070656305603
30
0
10
2.988683566954383
20
-15.320516223521389
30
0
10
2.9771042250276851
20
-15.364966494031574
30
0
10
2.965204358694943
20
-15.409419957488646
30
0
10
2.9529859822684168
20
-15.453875155968051
30
0
10
2.9404509684608704
20
-15.498330660816064
30
0
10
2.9276015081302029
20
-15.542785045990577
30
0
10
2.9144402507670906
20
-15.587236880502413
30
0
10
2.9009700677500638
20
-15.631684743020593
30
0
10
2.8871939126218642
20
-15.676127231196563
30
0
10
2.8731146568808925
20
-15.720562971913496
30
0
10
2.8587349077224022
20
-15.764990634317058
30
0
10
2.8440569491440595
20
-15.809408930335692
30
0
10
2.8290828492578979
20
-15.853816599181421
30
0
10
2.8138145295315131
20
-15.898212395288514
30
0
10
2.7982538452170824
20
-15.942595076563983
30
0
10
2.7824026780983595
20
-15.986963388726924
30
0
10
2.7662629733050172
20
-16.031316064931854
30
0
10
2.7498366824038141
20
-16.075651848907199
30
0
10
2.7331257292189006
20
-16.119969513941264
30
0
10
2.7161319715817078
20
-16.164267880940255
30
0
10
2.6988571596064053
20
-16.208545843664929
30
0
10
2.6813029213668127
20
-16.252802369430427
30
0
10
2.6634708089016335
20
-16.297036447587789
30
0
10
2.6453623347717881
20
-16.341247046988553
30
0
10
2.6269790111654236
20
-16.385433074251317
30
0
10
2.6083223975060736
20
-16.42959332175305
30
0
10
2.5893941230499613
20
-16.473726451190199
30
0
10
2.5701958173911206
20
-16.517831100142036
30
0
10
2.5507290574806847
20
-16.56190596983954
30
0
10
2.5309953107093328
20
-16.605949917881059
30
0
10
2.5109958800179069
20
-16.649962055564146
30
0
10
2.4907318543493475
20
-16.693941825292779
30
0
10
2.4702040993140755
20
-16.737888917018736
30
0
10
2.4535714158414157
20
-16.773020344487435
30
0
10
2.4409786818008654
20
-16.799354142054664
30
0
10
2.4325310003628471
20
-16.816903443505073
30
0
10
2.4282940282911722
20
-16.825676453330651
30
0
0
LINE
5
124
100
AcDbEntity
8
0
100
AcDbLine
10
3.1357553937733962
20
-13.742162783248716
30
0
11
2.901573760633803
21
-12.712267985291145
31
0
0
ARC
5
125
100
AcDbEntity
8
0
100
AcDbCircle
10
3.3891284579778129
20
-12.601405831704849
30
0
40
0.49999999999999961
100
AcDbArc
50
105.05340418556283
51
192.81033006042921
0
ARC
5
126
100
AcDbEntity
8
0
100
AcDbCircle
10
-5.5511151231257827e-16
20
-2.7755575615628914e-16
30
0
40
12.549200000000001
100
AcDbArc
50
285.05340418556284
51
290.94659581443722
0
ARC
5
127
100
AcDbEntity
8
0
100
AcDbCircle
10
4.6650579874046807
20
-12.186831196588875
30
0
40
0.49999999999999944
100
AcDbArc
50
23.189669939570891
51
110.94659581443607
0
LINE
5
128
100
AcDbEntity
8
0
100
AcDbLine
10
5.1246611621587252
20
-11.989943102088464
30
0
11
5.5405612148305137
21
-12.960794006371714
31
0
0
SPLINE
5
129
100
AcDbEntity
8
0
100
AcDbSpline
70
1064
71
5
72
81
73
75
74
0
42
0.000000001
43
0.0000000001
44
0.0000000001
40
0
40
0
40
0
40
0
40
0
40
0
40
0.014285714285714285
40
0.028571428571428571
40
0.042857142857142858
40
0.057142857142857141
40
0.071428571428571425
40
0.085714285714285715
40
0.10000000000000001
40
0.1142857142857143
40
0.12857142857142859
40
0.14285714285714288
40
0.15714285714285717
40
0.17142857142857146
40
0.18571428571428575
40
0.20000000000000004
40
0.21428571428571433
40
0.22857142857142862
40
0.24285714285714291
40
0.25714285714285717
40
0.27142857142857146
40
0.28571428571428575
40
0.30000000000000004
40
0.31428571428571433
40
0.32857142857142863
40
0.34285714285714292
40
0.35714285714285721
40
0.3714285714285715
40
0.38571428571428579
40
0.40000000000000008
40
0.41428571428571437
40
0.42857142857142866
40
0.44285714285714295
40
0.45714285714285724
40
0.47142857142857153
40
0.48571428571428582
40
0.50000000000000011
40
0.51428571428571435
40
0.52857142857142858
40
0.54285714285714282
40
0.55714285714285705
40
0.57142857142857129
40
0.58571428571428552
40
0.59999999999999976
40
0.61428571428571399
40
0.62857142857142823
40
0.64285714285714246
40
0.6571428571428567
40
0.67142857142857093
40
0.68571428571428517
40
0.6999999999999994
40
0.71428571428571364
40
0.72857142857142787
40
0.74285714285714211
40
0.75714285714285634
40
0.77142857142857058
40
0.78571428571428481
40
0.79999999999999905
40
0.81428571428571328
40
0.82857142857142752
40
0.84285714285714175
40
0.85714285714285599
40
0.87142857142857022
40
0.88571428571428445
40
0.89999999999999869
40
0.91428571428571292
40
0.92857142857142716
40
0.94285714285714139
40
0.95714285714285563
40
0.97142857142856986
40
0.9857142857142841
40
1
40
1
40
1
40
1
40
1
40
1
10
5.5405612148305137
20
-12.960794006371714
30
0
10
5.5439527251595031
20
-12.968710934606353
30
0
10
5.5509542829444216
20
-12.984423547656284
30
0
10
5.5621122230062516
20
-13.007628741929611
30
0
10
5.5782376047754507
20
-13.037879723913068
30
0
10
5.6001084592689745
20
-13.074765409753951
30
0
10
5.6232276606617067
20
-13.111002522155957
30
0
10
5.647134724680738
20
-13.146864935528168
30
0
10
5.6714875803630811
20
-13.182551576178305
30
0
10
5.6961530550240367
20
-13.218131107628546
30
0
10
5.7211368199017976
20
-13.253586171595845
30
0
10
5.7465284445597486
20
-13.288848284653339
30
0
10
5.7724433816123808
20
-13.323834577147863
30
0
10
5.7989602023846327
20
-13.358487627307202
30
0
10
5.8260788357341582
20
-13.392801828979799
30
0
10
5.8537524797900105
20
-13.426802619451486
30
0
10
5.8819078010566406
20
-13.460533190830047
30
0
10
5.9104682711076739
20
-13.494039218637589
30
0
10
5.9393795414033965
20
-13.527352229786533
30
0
10
5.9686227091501305
20
-13.560480896629139
30
0
10
5.9982000794227543
20
-13.593420300903729
30
0
10
6.0281264260722711
20
-13.626157605595422
30
0
10
6.0584187872271311
20
-13.658678685482219
30
0
10
6.0890851681879345
20
-13.690975467628771
30
0
10
6.120119775304774
20
-13.723049018805719
30
0
10
6.1515090457234702
20
-13.754905601102966
30
0
10
6.1832352304366802
20
-13.786554320985342
30
0
10
6.2152806305270509
20
-13.818004353715907
30
0
10
6.2476323398827613
20
-13.849261835949394
30
0
10
6.280283845560394
20
-13.88032881209476
30
0
10
6.3132324304561793
20
-13.91120492358935
30
0
10
6.34647759224179
20
-13.941888434055738
30
0
10
6.380019195844314
20
-13.972377428980431
30
0
10
6.4138553846957436
20
-14.00267117214934
30
0
10
6.4479819491410861
20
-14.032770513343243
30
0
10
6.4823934086704282
20
-14.062677179891416
30
0
10
6.517083661223479
20
-14.092393350290894
30
0
10
6.5520467444948904
20
-14.121921154928943
30
0
10
6.5872776972182319
20
-14.151262111850539
30
0
10
6.622772795086906
20
-14.180416969682078
30
0
10
6.6585290794142722
20
-14.209386011143032
30
0
10
6.6945440636409312
20
-14.238169240730713
30
0
10
6.7308153929688421
20
-14.266766603392917
30
0
10
6.7673404567502065
20
-14.295178233191304
30
0
10
6.8041162703877092
20
-14.323404529762859
30
0
10
6.8411396754499343
20
-14.351446030980618
30
0
10
6.8784074581908117
20
-14.379303338369638
30
0
10
6.9159164884215132
20
-14.406977028879474
30
0
10
6.9536638746202231
20
-14.434467558297284
30
0
10
6.9916470118845497
20
-14.461775227051429
30
0
10
7.0298634860041282
20
-14.488900230748758
30
0
10
7.068311010353856
20
-14.515842691115745
30
0
10
7.1069873539192532
20
-14.542602693767925
30
0
10
7.1458902570574629
20
-14.569180330055469
30
0
10
7.1850174014924315
20
-14.595575718397384
30
0
10
7.2243664699555863
20
-14.621788989550787
30
0
10
7.2639351849974476
20
-14.647820281880517
30
0
10
7.303721350546871
20
-14.673669733485585
30
0
10
7.3437229005006408
20
-14.699337478090936
30
0
10
7.383937910722441
20
-14.72482363719476
30
0
10
7.4243645315420261
20
-14.750128305430319
30
0
10
7.4650009331780502
20
-14.775251537641999
30
0
10
7.505845249571137
20
-14.800193338107546
30
0
10
7.5468955092981451
20
-14.824953646445568
30
0
10
7.5881496076280026
20
-14.849532337598523
30
0
10
7.6296054253806371
20
-14.873929267196232
30
0
10
7.671260923378501
20
-14.898144311421099
30
0
10
7.7131142429907582
20
-14.922177408561383
30
0
10
7.7551638077499288
20
-14.946028605491101
30
0
10
7.7974084089359526
20
-14.969698091170208
30
0
10
7.8398471640135163
20
-14.993186123557457
30
0
10
7.8739530225630414
20
-15.011831599365006
30
0
10
7.8996193762543623
20
-15.025734265768246
30
0
10
7.91676891468137
20
-15.034966526315706
30
0
10
7.9253533428857388
20
-15.03957361065831
30
0
0
ARC
5
130
100
AcDbEntity
8
0
100
AcDbCircle
10
-5.5511151231257827e-16
20
-2.7755575615628914e-16
30
0
40
16.999999999999996
100
AcDbArc
50
297.78773391907686
51
302.21226608092314
0
SPLINE
5
131
100
AcDbEntity
8
0
100
AcDbSpline
70
1064
71
5
72
81
73
75
74
0
42
0.000000001
43
0.0000000001
44
0.0000000001
40
0
40
0
40
0
40
0
40
0
40
0
40
0.014285714285714285
40
0.028571428571428571
40
0.042857142857142858
40
0.057142857142857141
40
0.071428571428571425
40
0.085714285714285715
40
0.10000000000000001
40
0.1142857142857143
40
0.12857142857142859
40
0.14285714285714288
40
0.15714285714285717
40
0.17142857142857146
40
0.18571428571428575
40
0.20000000000000004
40
0.21428571428571433
40
0.22857142857142862
40
0.24285714285714291
40
0.25714285714285717
40
0.27142857142857146
40
0.28571428571428575
40
0.30000000000000004
40
0.31428571428571433
40
0.32857142857142863
40
0.34285714285714292
40
0.35714285714285721
40
0.3714285714285715
40
0.38571428571428579
40
0.40000000000000008
40
0.41428571428571437
40
0.42857142857142866
40
0.44285714285714295
40
0.45714285714285724
40
0.47142857142857153
40
0.48571428571428582
40
0.50000000000000011
40
0.51428571428571435
40
0.52857142857142858
40
0.54285714285714282
40
0.55714285714285705
40
0.57142857142857129
40
0.58571428571428552
40
0.59999999999999976
40
0.61428571428571399
40
0.62857142857142823
40
0.64285714285714246
40
0.6571428571428567
40
0.67142857142857093
40
0.68571428571428517
40
0.6999999999999994
40
0.71428571428571364
40
0.72857142857142787
40
0.74285714285714211
40
0.75714285714285634
40
0.77142857142857058
40
0.78571428571428481
40
0.79999999999999905
40
0.81428571428571328
40
0.82857142857142752
40
0.84285714285714175
40
0.85714285714285599
40
0.87142857142857022
40
0.88571428571428445
40
0.89999999999999869
40
0.91428571428571292
40
0.92857142857142716
40
0.94285714285714139
40
0.95714285714285563
40
0.97142857142856986
40
0.9857142857142841
40
1
40
1
40
1
40
1
40
1
40
1
10
8.4540962553197456
20
-11.278663766451846
30
0
10
8.4592567611263867
20
-11.285559364671267
30
0
10
8.4693635042950053
20
-11.299479198104038
30
0
10
8.4838808220045419
20
-11.320744854788149
30
0
10
8.502016250007042
20
-11.349835336037728
30
0
10
8.5230247637344956
20
-11.387218894552031
30
0
10
8.5428474229380598
20
-11.425359266474352
30
0
10
8.5619516519498973
20
-11.463994597930839
30
0
10
8.5806807614874714
20
-11.502928109931512
30
0
10
8.5991608022476509
20
-11.542078803309423
30
0
10
8.6173739058972547
20
-11.581442910359392
30
0
10
8.6352159792671852
20
-11.621063758885281
30
0
10
8.6525575288253602
20
-11.660999898957598
30
0
10
8.6693095401958402
20
-11.701290664453637
30
0
10
8.6854671938801271
20
-11.74193319068654
30
0
10
8.7010759201494352
20
-11.78289966469004
30
0
10
8.7162097912141174
20
-11.824148173847934
30
0
10
8.7309466274498391
20
-11.865635280359923
30
0
10
8.745340906233519
20
-11.907329680466173
30
0
10
8.7594095894393593
20
-11.949219340043275
30
0
10
8.773147265190369
20
-11.991303796213801
30
0
10
8.7865354293800468
20
-12.033589425000589
30
0
10
8.7995533301430875
20
-12.076083919244711
30
0
10
8.8121899734620914
20
-12.118790175272171
30
0
10
8.8244491800124898
20
-12.161703709020298
30
0
10
8.8363431543503044
20
-12.204815905757771
30
0
10
8.8478886574090989
20
-12.248115947625758
30
0
10
8.8591024846584343
20
-12.291593094543735
30
0
10
8.8699964036531185
20
-12.335239237818376
30
0
10
8.8805754413749547
20
-12.379049759279699
30
0
10
8.8908406458514584
20
-12.423022126565495
30
0
10
8.9007907644998312
20
-12.467155036457951
30
0
10
8.9104242068392079
20
-12.511447414723751
30
0
10
8.9197412635734885
20
-12.555897285420789
30
0
10
8.9287447754619151
20
-12.600501427771295
30
0
10
8.9374389786704711
20
-12.645255959179092
30
0
10
8.9458288108630803
20
-12.690156684353473
30
0
10
8.9539190981619079
20
-12.735199504980168
30
0
10
8.961713635865685
20
-12.780380883498911
30
0
10
8.9692149344571845
20
-12.825697968878767
30
0
10
8.9764247181219741
20
-12.871148340181682
30
0
10
8.9833442340345346
20
-12.916729846232705
30
0
10
8.989974611917285
20
-12.962440420190809
30
0
10
8.9963172731949257
20
-13.00827786819951
30
0
10
9.0023740562618944
20
-13.054239805340206
30
0
10
9.008147006145613
20
-13.100323765267575
30
0
10
9.0136382506550952
20
-13.146527265558403
30
0
10
9.0188498545377342
20
-13.192847883864429
30
0
10
9.0237836582776847
20
-13.239283343947879
30
0
10
9.0284412245047427
20
-13.285831540111291
30
0
10
9.0328239297245858
20
-13.332490479390579
30
0
10
9.0369330226679878
20
-13.379258242373558
30
0
10
9.0407696929874177
20
-13.426132939752776
30
0
10
9.0443351496158684
20
-13.473112660295204
30
0
10
9.0476306542452374
20
-13.520195455524387
30
0
10
9.0506574787487946
20
-13.567379384005434
30
0
10
9.0534168816787499
20
-13.614662542591656
30
0
10
9.0559100806679247
20
-13.662043098479167
30
0
10
9.0581382245771245
20
-13.709519329232558
30
0
10
9.0601023806950263
20
-13.757089629249998
30
0
10
9.0618035558115686
20
-13.8047524439867
30
0
10
9.0632427123140467
20
-13.852506216227724
30
0
10
9.0644207869367897
20
-13.900349332057122
30
0
10
9.065338713099548
20
-13.948280053981673
30
0
10
9.0659974348648493
20
-13.996296496722028
30
0
10
9.0663978867944888
20
-14.044396752829318
30
0
10
9.0665409812480551
20
-14.092578994415197
30
0
10
9.066427594097032
20
-14.140841581002261
30
0
10
9.0660585541692491
20
-14.189183170766642
30
0
10
9.0654346294688555
20
-14.237602811406035
30
0
10
9.0645564846623436
20
-14.286099867601813
30
0
10
9.0636510111025661
20
-14.324959145427357
30
0
10
9.062857896542452
20
-14.354138192948176
30
0
10
9.0622784994974044
20
-14.373606259162873
30
0
10
9.0619761374732928
20
-14.383344134236122
30
0
0
LINE
5
132
100
AcDbEntity
8
0
100
AcDbLine
10
8.4540962553197456
20
-11.278663766451846
30
0
11
7.8212647352592519
21
-10.433058303261166
31
0
0
ARC
5
133
100
AcDbEntity
8
0
100
AcDbCircle
10
8.2215764141763401
20
-10.133474325514392
30
0
40
0.50000000000000033
100
AcDbArc
50
129.0534041855627
51
216.81033006042898
0
ARC
5
134
100
AcDbEntity
8
0
100
AcDbCircle
10
-5.5511151231257827e-16
20
-2.7755575615628914e-16
30
0
40
12.549200000000001
100
AcDbArc
50
309.05340418556284
51
314.94659581443705
0
ARC
5
135
100
AcDbEntity
8
0
100
AcDbCircle
10
9.2185733446648719
20
-9.2357742571499859
30
0
40
0.49999999999999956
100
AcDbArc
50
47.189669939570969
51
134.94659581443986
0
LINE
5
136
100
AcDbEntity
8
0
100
AcDbLine
10
9.5583601346608589
20
-8.8689705803087886
30
0
11
10.333184376347766
21
-9.5867252226861854
31
0
0
SPLINE
5
137
100
AcDbEntity
8
0
100
AcDbSpline
70
1064
71
5
72
81
73
75
74
0
42
0.000000001
43
0.0000000001
44
0.0000000001
40
0
40
0
40
0
40
0
40
0
40
0
40
0.014285714285714285
40
0.028571428571428571
40
0.042857142857142858
40
0.057142857142857141
40
0.071428571428571425
40
0.085714285714285715
40
0.10000000000000001
40
0.1142857142857143
40
0.12857142857142859
40
0.14285714285714288
40
0.15714285714285717
40
0.17142857142857146
40
0.18571428571428575
40
0.20000000000000004
40
0.21428571428571433
40
0.22857142857142862
40
0.24285714285714291
40
0.25714285714285717
40
0.27142857142857146
40
0.28571428571428575
40
0.30000000000000004
40
0.31428571428571433
40
0.32857142857142863
40
0.34285714285714292
40
0.35714285714285721
40
0.3714285714285715
40
0.38571428571428579
40
0.40000000000000008
40
0.41428571428571437
40
0.42857142857142866
40
0.44285714285714295
40
0.45714285714285724
40
0.47142857142857153
40
0.48571428571428582
40
0.50000000000000011
40
0.51428571428571435
40
0.52857142857142858
40
0.54285714285714282
40
0.55714285714285705
40
0.57142857142857129
40
0.58571428571428552
40
0.59999999999999976
40
0.61428571428571399
40
0.62857142857142823
40
0.64285714285714246
40
0.6571428571428567
40
0.67142857142857093
40
0.68571428571428517
40
0.6999999999999994
40
0.71428571428571364
40
0.72857142857142787
40
0.74285714285714211
40
0.75714285714285634
40
0.77142857142857058
40
0.78571428571428481
40
0.79999999999999905
40
0.81428571428571328
40
0.82857142857142752
40
0.84285714285714175
40
0.85714285714285599
40
0.87142857142857022
40
0.88571428571428445
40
0.89999999999999869
40
0.91428571428571292
40
0.92857142857142716
40
0.94285714285714139
40
0.95714285714285563
40
0.97142857142856986
40
0.9857142857142841
40
1
40
1
40
1
40
1
40
1
40
1
10
10.333184376347766
20
-9.5867252226861854
30
0
10
10.339502780016991
20
-9.5925782449872514
30
0
10
10.352289916813703
20
-9.6040846411569767
30
0
10
10.371921605094492
20
-9.6207452978946968
30
0
10
10.398957057224195
20
-9.6418221614257931
30
0
10
10.433939837037983
20
-9.6666232342398661
30
0
10
10.469799239907791
20
-9.6903240573077305
30
0
10
10.506225987275556
20
-9.7133621231791167
30
0
10
10.542988492385476
20
-9.7360582928740271
30
0
10
10.579993023906873
20
-9.7585294598519781
30
0
10
10.617237702523861
20
-9.7807574598319587
30
0
10
10.654776499385061
20
-9.8026432988668954
30
0
10
10.692681179577477
20
-9.8240643129527143
30
0
10
10.731000166039239
20
-9.8449360868532914
30
0
10
10.769731113551311
20
-9.8652535280305358
30
0
10
10.808841612753334
20
-9.8850589106372517
30
0
10
10.848282237976473
20
-9.9044215200471157
30
0
10
10.888001654932975
20
-9.9234142098411144
30
0
10
10.92796303691178
20
-9.9420878868294942
30
0
10
10.968152642715028
20
-9.9604581620591031
30
0
10
11.00857057769616
20
-9.9785196049159115
30
0
10
11.049225117155309
20
-9.9962544791367201
30
0
10
11.090126080951958
20
-10.013642950657971
30
0
10
11.131277498733478
20
-10.030674388437145
30
0
10
11.172674511632021
20
-10.047352123507434
30
0
10
11.214307276385185
20
-10.063687393082398
30
0
10
11.25616328240087
20
-10.079695735503297
30
0
10
11.298230092829225
20
-10.095392731588236
30
0
10
11.340498413352755
20
-10.110789236838876
30
0
10
11.382963125637634
20
-10.125889767968474
30
0
10
11.425621601645473
20
-10.140695102559416
30
0
10
11.46847267622819
20
-10.155203858667324
30
0
10
11.511515447287749
20
-10.169414342236196
30
0
10
11.554747919319633
20
-10.183326635835231
30
0
10
11.598166592249626
20
-10.19694322799875
30
0
10
11.641767161950899
20
-10.210267925844763
30
0
10
11.685544939988565
20
-10.22330520146086
30
0
10
11.72949534603222
20
-10.236059426140711
30
0
10
11.773614465183972
20
-10.248534004616269
30
0
10
11.81789919961423
20
-10.260731135603736
30
0
10
11.862346961420627
20
-10.272652280786474
30
0
10
11.906955480847333
20
-10.284298455647804
30
0
10
11.95172258428755
20
-10.295670567677691
30
0
10
11.99664594132363
20
-10.306769801193667
30
0
10
12.041722987937257
20
-10.317597735227384
30
0
10
12.086951057530433
20
-10.328156145800103
30
0
10
12.132327458862314
20
-10.338446889580592
30
0
10
12.177849567029641
20
-10.348471766801
30
0
10
12.22351492588113
20
-10.358232369931478
30
0
10
12.269321277915257
20
-10.367730032936258
30
0
10
12.315266497201584
20
-10.376965916458898
30
0
10
12.361348544314755
20
-10.385941061756292
30
0
10
12.407565415944594
20
-10.39465645447746
30
0
10
12.453915084960101
20
-10.403113097154485
30
0
10
12.500395481676064
20
-10.411312040896332
30
0
10
12.547004542346016
20
-10.419254347673611
30
0
10
12.593740242694382
20
-10.426941070211056
30
0
10
12.64060063268027
20
-10.434373227890987
30
0
10
12.68758387921531
20
-10.441551783237111
30
0
10
12.734688273931269
20
-10.448477629860291
30
0
10
12.781912165561122
20
-10.455151606540984
30
0
10
12.829253904823643
20
-10.461574507621147
30
0
10
12.876711788728688
20
-10.467747096003425
30
0
10
12.924283991732274
20
-10.473670118376706
30
0
10
12.971968540201409
20
-10.479344316566481
30
0
10
13.019763439448113
20
-10.484770420632225
30
0
10
13.067666776229856
20
-10.489949146869167
30
0
10
13.115676827502451
20
-10.494881194874088
30
0
10
13.163792172156574
20
-10.499567248675628
30
0
10
13.212011782828441
20
-10.504007972528033
30
0
10
13.260334958203202
20
-10.508203961047801
30
0
10
13.299076008598636
20
-10.511365348361723
30
0
10
13.328178113290248
20
-10.513626619563119
30
0
10
13.34760009488398
20
-10.515085363559923
30
0
10
13.357316230296419
20
-10.515802543023515
30
0
0
ARC
5
138
100
AcDbEntity
8
0
100
AcDbCircle
10
-5.5511151231257827e-16
20
-2.7755575615628914e-16
30
0
40
17
100
AcDbArc
50
321.78773391907686
51
326.21226608092314
0
SPLINE
5
139
100
AcDbEntity
8
0
100
AcDbSpline
70
1064
71
5
72
81
73
75
74
0
42
0.000000001
43
0.0000000001
44
0.0000000001
40
0
40
0
40
0
40
0
40
0
40
0
40
0.014285714285714285
40
0.028571428571428571
40
0.042857142857142858
40
0.057142857142857141
40
0.071428571428571425
40
0.085714285714285715
40
0.10000000000000001
40
0.1142857142857143
40
0.12857142857142859
40
0.14285714285714288
40
0.15714285714285717
40
0.17142857142857146
40
0.18571428571428575
40
0.20000000000000004
40
0.21428571428571433
40
0.22857142857142862
40
0.24285714285714291
40
0.25714285714285717
40
0.27142857142857146
40
0.28571428571428575
40
0.30000000000000004
40
0.31428571428571433
40
0.32857142857142863
40
0.34285714285714292
40
0.35714285714285721
40
0.3714285714285715
40
0.38571428571428579
40
0.40000000000000008
40
0.41428571428571437
40
0.42857142857142866
40
0.44285714285714295
40
0.45714285714285724
40
0.47142857142857153
40
0.48571428571428582
40
0.50000000000000011
40
0.51428571428571435
40
0.52857142857142858
40
0.54285714285714282
40
0.55714285714285705
40
0.57142857142857129
40
0.58571428571428552
40
0.59999999999999976
40
0.61428571428571399
40
0.62857142857142823
40
0.64285714285714246
40
0.6571428571428567
40
0.67142857142857093
40
0.68571428571428517
40
0.6999999999999994
40
0.71428571428571364
40
0.72857142857142787
40
0.74285714285714211
40
0.75714285714285634
40
0.77142857142857058
40
0.78571428571428481
40
0.79999999999999905
40
0.81428571428571328
40
0.82857142857142752
40
0.84285714285714175
40
0.85714285714285599
40
0.87142857142857022
40
0.88571428571428445
40
0.89999999999999869
40
0.91428571428571292
40
0.92857142857142716
40
0.94285714285714139
40
0.95714285714285563
40
0.97142857142856986
40
0.9857142857142841
40
1
40
1
40
1
40
1
40
1
40
1
10
12.31064707126796
20
-6.8649813209918271
30
0
10
12.318166120378519
20
-6.8691817966145416
30
0
10
12.33306079601439
20
-6.8777874144293571
30
0
10
12.354972547477592
20
-6.8913098334252734
30
0
10
12.383372250040592
20
-6.910508967324982
30
0
10
12.417769745424467
20
-6.9361156150467256
30
0
10
12.451391732539625
20
-6.9628959767078662
30
0
10
12.484558719195888
20
-6.9904207182876288
30
0
10
12.517504298113934
20
-7.0183704361848065
30
0
10
12.550310677006067
20
-7.0466198645410572
30
0
10
12.582959999873914
20
-7.0751728290922795
30
0
10
12.615374795881177
20
-7.1041112502630543
30
0
10
12.647460581258954
20
-7.1335412859688745
30
0
10
12.679152035857644
20
-7.1635350749031277
30
0
10
12.710443591673179
20
-7.1940919603107876
30
0
10
12.741365438770927
20
-7.2251680556268525
30
0
10
12.771968198085379
20
-7.2566949438889843
30
0
10
12.80230529432216
20
-7.2886012902936725
30
0
10
12.832413762655309
20
-7.3208363394878964
30
0
10
12.862304203808996
20
-7.3533821987371155
30
0
10
12.891971485518365
20
-7.3862406463904282
30
0
10
12.921401296803108
20
-7.4194250335327006
30
0
10
12.950577808851286
20
-7.4529508284679844
30
0
10
12.979492156170153
20
-7.4868251487914774
30
0
10
13.008146005287806
20
-7.5210423440993885
30
0
10
13.036547001694059
20
-7.5555895804029083
30
0
10
13.064706057244045
20
-7.5904501578103858
30
0
10
13.092634146978398
20
-7.6256074334371409
30
0
10
13.120338722990647
20
-7.6610492133274661
30
0
10
13.147822499278238
20
-7.696769233915461
30
0
10
13.175085403257443
20
-7.7327647555019317
30
0
10
13.202125760570491
20
-7.7690350970094899
30
0
10
13.228941681310769
20
-7.8055799239840171
30
0
10
13.255532627361434
20
-7.8423973130726496
30
0
10
13.281899883876857
20
-7.8794831665076073
30
0
10
13.308045741593094
20
-7.9168322143568552
30
0
10
13.333973004912131
20
-7.9544386157027773
30
0
10
13.359684415781368
20
-7.9922966635882631
30
0
10
13.385182002523326
20
-8.030401582604128
30
0
10
13.410466898959392
20
-8.068749747098682
30
0
10
13.435539695527245
20
-8.1073382441455113
30
0
10
13.460400656615782
20
-8.1461646012769471
30
0
10
13.48504997361781
20
-8.1852264708402558
30
0
10
13.509488052747585
20
-8.224521270502299
30
0
10
13.53371560342821
20
-8.2640460737891406
30
0
10
13.557733490732176
20
-8.3037977957946225
30
0
10
13.581542648817264
20
-8.3437733032543999
30
0
10
13.605143978666268
20
-8.3839695434348034
30
0
10
13.628538235815821
20
-8.4243836882967997
30
0
10
13.651725991334958
20
-8.4650131786112439
30
0
10
13.674707692112669
20
-8.5058556338395519
30
0
10
13.697483698226007
20
-8.546908792606871
30
0
10
13.720054328026013
20
-8.5881704450697143
30
0
10
13.74241990855942
20
-8.6296383535124797
30
0
10
13.764580799922365
20
-8.6713102247370255
30
0
10
13.786537374376181
20
-8.7131837678368633
30
0
10
13.808290007586027
20
-8.7552567323016781
30
0
10
13.82983906644634
20
-8.7975269485259169
30
0
10
13.851184899916088
20
-8.839992375702753
30
0
10
13.8723278299549
20
-8.8826511129365091
30
0
10
13.893268144020823
20
-8.925501330581497
30
0
10
13.914006087922019
20
-8.9685412146129053
30
0
10
13.934541860969125
20
-9.0117689096409741
30
0
10
13.954875609181357
20
-9.055182448730644
30
0
10
13.975007428190551
20
-9.0987797256087113
30
0
10
13.994937395932043
20
-9.1425586176133997
30
0
10
14.014665602418621
20
-9.186517083795529
30
0
10
14.034192180556426
20
-9.2306532692554022
30
0
10
14.053517341748423
20
-9.2749656110612602
30
0
10
14.072641400265072
20
-9.3194529268662372
30
0
10
14.091564704902058
20
-9.3641143659336628
30
0
10
14.106543005859621
20
-9.3999823719545557
30
0
10
14.117686647492604
20
-9.4269613470292946
30
0
10
14.125075717853271
20
-9.444981972497926
30
0
10
14.128760247017567
20
-9.4540009457528651
30
0
0
LINE
5
140
100
AcDbEntity
8
0
100
AcDbLine
10
12.31064707126796
20
-6.8649813209918271
30
0
11
11.388587983198899
21
-6.3498780592381765
31
0
0
ARC
5
141
100
AcDbEntity
8
0
100
AcDbCircle
10
11.632439117686868
20
-5.9133730487183342
30
0
40
0.50000000000000111
100
AcDbArc
50
153.05340418556284
51
240.81033006042927
0
ARC
5
142
100
AcDbEntity
8
0
100
AcDbCircle
10
-5.5511151231257827e-16
20
-2.7755575615628914e-16
30
0
40
12.549199999999999
100
AcDbArc
50
333.05340418556284
51
338.94659581443727
0
ARC
5
143
100
AcDbEntity
8
0
100
AcDbCircle
10
12.178113622522829
20
-4.6877680442747867
30
0
40
0.49999999999999967
100
AcDbArc
50
71.189669939570848
51
158.9465958144369
0
LINE
5
144
100
AcDbEntity
8
0
100
AcDbLine
10
12.339331804904376
20
-4.2144724731254364
30
0
11
13.339106085161475
21
-4.5550245553337181
31
0
0
SPLINE
5
145
100
AcDbEntity
8
0
100
AcDbSpline
70
1064
71
5
72
81
73
75
74
0
42
0.000000001
43
0.0000000001
44
0.0000000001
40
0
40
0
40
0
40
0
40
0
40
0
40
0.014285714285714285
40
0.028571428571428571
40
0.042857142857142858
40
0.057142857142857141
40
0.071428571428571425
40
0.085714285714285715
40
0.10000000000000001
40
0.1142857142857143
40
0.12857142857142859
40
0.14285714285714288
40
0.15714285714285717
40
0.17142857142857146
40
0.18571428571428575
40
0.20000000000000004
40
0.21428571428571433
40
0.22857142857142862
40
0.24285714285714291
40
0.25714285714285717
40
0.27142857142857146
40
0.28571428571428575
40
0.30000000000000004
40
0.31428571428571433
40
0.32857142857142863
40
0.34285714285714292
40
0.35714285714285721
40
0.3714285714285715
40
0.38571428571428579
40
0.40000000000000008
40
0.41428571428571437
40
0.42857142857142866
40
0.44285714285714295
40
0.45714285714285724
40
0.47142857142857153
40
0.48571428571428582
40
0.50000000000000011
40
0.51428571428571435
40
0.52857142857142858
40
0.54285714285714282
40
0.55714285714285705
40
0.57142857142857129
40
0.58571428571428552
40
0.59999999999999976
40
0.61428571428571399
40
0.62857142857142823
40
0.64285714285714246
40
0.6571428571428567
40
0.67142857142857093
40
0.68571428571428517
40
0.6999999999999994
40
0.71428571428571364
40
0.72857142857142787
40
0.74285714285714211
40
0.75714285714285634
40
0.77142857142857058
40
0.78571428571428481
40
0.79999999999999905
40
0.81428571428571328
40
0.82857142857142752
40
0.84285714285714175
40
0.85714285714285599
40
0.87142857142857022
40
0.88571428571428445
40
0.89999999999999869
40
0.91428571428571292
40
0.92857142857142716
40
0.94285714285714139
40
0.95714285714285563
40
0.97142857142856986
40
0.9857142857142841
40
1
40
1
40
1
40
1
40
1
40
1
10
13.339106085161475
20
-4.5550245553337181
30
0
10
13.347258872775633
20
-4.5578016309723202
30
0
10
13.363620576464502
20
-4.5631122498317618
30
0
10
13.388331515712206
20
-4.5703475901266097
30
0
10
13.421602362919815
20
-4.5786059540235238
30
0
10
13.463648227615488
20
-4.5870340830105647
30
0
10
13.506047415433734
20
-4.5941005291206345
30
0
10
13.548695330603739
20
-4.6003307566077742
30
0
10
13.591510914030856
20
-4.6061120814189804
30
0
10
13.634456082737028
20
-4.6115894150100107
30
0
10
13.677521731803079
20
-4.6167469278710911
30
0
10
13.720716901860966
20
-4.6214722324877258
30
0
10
13.76405726163469
20
-4.6256240802255979
30
0
10
13.807552712909658
20
-4.6291056585458907
30
0
10
13.851199041899827
20
-4.6319132690700773
30
0
10
13.894983835628256
20
-4.6340987132328673
30
0
10
13.938890122399997
20
-4.6357453896032847
30
0
10
13.982900638230614
20
-4.6369407327751935
30
0
10
14.027002445910606
20
-4.6377462272066836
30
0
10
14.071189341815879
20
-4.6381817233473832
30
0
10
14.11545921336187
20
-4.6382422172334099
30
0
10
14.159812406423271
20
-4.6379081401142859
30
0
10
14.204249824647677
20
-4.6371573785746572
30
0
10
14.248770825266593
20
-4.6359785816686792
30
0
10
14.293372324336627
20
-4.6343767687261899
30
0
10
14.338049900176642
20
-4.6323662090681008
30
0
10
14.382798443804816
20
-4.6299661861917185
30
0
10
14.427612930883114
20
-4.6271959924052144
30
0
10
14.472489285960313
20
-4.6240693250423135
30
0
10
14.517424670318572
20
-4.6205923921398204
30
0
10
14.562416999396625
20
-4.6167669729740934
30
0
10
14.607464646691309
20
-4.6125922789845504
30
0
10
14.652566099060405
20
-4.6080671294903546
30
0
10
14.69771956710375
20
-4.6031924115670275
30
0
10
14.742922865522534
20
-4.597971822212231
30
0
10
14.788173610795649
20
-4.592410590047427
30
0
10
14.833469338786593
20
-4.5865147074861889
30
0
10
14.87880764312064
20
-4.5802900308922068
30
0
10
14.924186332189846
20
-4.5737412629753136
30
0
10
14.969603470284518
20
-4.5668716723635177
30
0
10
15.015057287758378
20
-4.559683646965742
30
0
10
15.060546124120579
20
-4.5521790376650202
30
0
10
15.106068362791925
20
-4.5443595575802229
30
0
10
15.151622356535292
20
-4.5362272365055079
30
0
10
15.197206405253439
20
-4.5277845598382669
30
0
10
15.242818795260789
20
-4.5190342346577719
30
0
10
15.288457823161728
20
-4.5099790517416132
30
0
10
15.334121823208179
20
-4.5006217233280275
30
0
10
15.379809199310262
20
-4.4909647032176245
30
0
10
15.425518431709843
20
-4.4810101282559502
30
0
10
15.4712480503491
20
-4.4707599234374733
30
0
10
15.516996615637586
20
-4.4602158695067189
30
0
10
15.562762698359975
20
-4.4493796817185265
30
0
10
15.608544854406475
20
-4.4382531004399866
30
0
10
15.654341620550094
20
-4.426837927723736
30
0
10
15.700151543406989
20
-4.4151359731295106
30
0
10
15.745973201891118
20
-4.4031490217162608
30
0
10
15.791805229171631
20
-4.3908787978891626
30
0
10
15.837646342132636
20
-4.3783269265415861
30
0
10
15.883495343566373
20
-4.3654949188836341
30
0
10
15.929351066128103
20
-4.3523842128101933
30
0
10
15.975212326212436
20
-4.3389962048118562
30
0
10
16.021077878360916
20
-4.3253322845033653
30
0
10
16.066946358561861
20
-4.3113938765345905
30
0
10
16.112816265539433
20
-4.2971824613457041
30
0
10
16.15868607399743
20
-4.2826995171919098
30
0
10
16.204554327445337
20
-4.267946476627305
30
0
10
16.250419736355614
20
-4.2529246795905635
30
0
10
16.296281280699809
20
-4.2376353289901765
30
0
10
16.342138292110942
20
-4.2220794495190903
30
0
10
16.387990371758335
20
-4.2062578696369526
30
0
10
16.424667934434915
20
-4.1933885358703638
30
0
10
16.452173771841313
20
-4.1836174175361913
30
0
10
16.470509959541054
20
-4.1770504148930181
30
0
10
16.47967779408043
20
-4.1737536826329737
30
0
0
ARC
5
146
100
AcDbEntity
8
0
100
AcDbCircle
10
-5.5511151231257827e-16
20
-2.7755575615628914e-16
30
0
40
17
100
AcDbArc
50
345.78773391907691
51
350.2122660809232
0
SPLINE
5
147
100
AcDbEntity
8
0
100
AcDbSpline
70
1064
71
5
72
81
73
75
74
0
42
0.000000001
43
0.0000000001
44
0.0000000001
40
0
40
0
40
0
40
0
40
0
40
0
40
0.014285714285714285
40
0.028571428571428571
40
0.042857142857142858
40
0.057142857142857141
40
0.071428571428571425
40
0.085714285714285715
40
0.10000000000000001
40
0.1142857142857143
40
0.12857142857142859
40
0.14285714285714288
40
0.15714285714285717
40
0.17142857142857146
40
0.18571428571428575
40
0.20000000000000004
40
0.21428571428571433
40
0.22857142857142862
40
0.24285714285714291
40
0.25714285714285717
40
0.27142857142857146
40
0.28571428571428575
40
0.30000000000000004
40
0.31428571428571433
40
0.32857142857142863
40
0.34285714285714292
40
0.35714285714285721
40
0.3714285714285715
40
0.38571428571428579
40
0.40000000000000008
40
0.41428571428571437
40
0.42857142857142866
40
0.44285714285714295
40
0.45714285714285724
40
0.47142857142857153
40
0.48571428571428582
40
0.50000000000000011
40
0.51428571428571435
40
0.52857142857142858
40
0.54285714285714282
40
0.55714285714285705
40
0.57142857142857129
40
0.58571428571428552
40
0.59999999999999976
40
0.61428571428571399
40
0.62857142857142823
40
0.64285714285714246
40
0.6571428571428567
40
0.67142857142857093
40
0.68571428571428517
40
0.6999999999999994
40
0.71428571428571364
40
0.72857142857142787
40
0.74285714285714211
40
0.75714285714285634
40
0.77142857142857058
40
0.78571428571428481
40
0.79999999999999905
40
0.81428571428571328
40
0.82857142857142752
40
0.84285714285714175
40
0.85714285714285599
40
0.87142857142857022
40
0.88571428571428445
40
0.89999999999999869
40
0.91428571428571292
40
0.92857142857142716
40
0.94285714285714139
40
0.95714285714285563
40
0.97142857142856986
40
0.9857142857142841
40
1
40
1
40
1
40
1
40
1
40
1
10
14.038575169876321
20
-1.2642812387349232
30
0
10
14.047152650391171
20
-1.2650602913656404
30
0
10
14.064259833762973
20
-1.2668637040627369
30
0
10
14.089777278089834
20
-1.2703047362787414
30
0
10
14.123530688636999
20
-1.2762928181586672
30
0
10
14.165369526233984
20
-1.2856949330676675
30
0
10
14.206977294242362
20
-1.2964847166444708
30
0
10
14.248472165237565
20
-1.3081395904739426
30
0
10
14.289937623639968
20
-1.3202727541279866
30
0
10
14.331397819717006
20
-1.3327363346617793
30
0
10
14.372837997269466
20
-1.3455410897478126
30
0
10
14.414220703205228
20
-1.3587933676457411
30
0
10
14.455502800620575
20
-1.3726285784480456
30
0
10
14.496653958039536
20
-1.3871391922287637
30
0
10
14.537668821710954
20
-1.402326873723607
30
0
10
14.578557121357779
20
-1.4181392511546254
30
0
10
14.619337273819191
20
-1.4344932331276841
30
0
10
14.660029070513826
20
-1.4513019222716428
30
0
10
14.700645700694789
20
-1.468503887701933
30
0
10
14.74118957097472
20
-1.4860784718892259
30
0
10
14.781656716116112
20
-1.5040293869164443
30
0
10
14.82203949276334
20
-1.5223746504066109
30
0
10
14.86232973210323
20
-1.5411348315164615
30
0
10
14.902522230091936
20
-1.560320038413513
30
0
10
14.942616210952353
20
-1.5799244313590117
30
0
10
14.982613439133448
20
-1.5999331762199103
30
0
10
15.022517090653045
20
-1.6203265786347234
30
0
10
15.062330422438613
20
-1.6410849706205641
30
0
10
15.102055282587745
20
-1.6621941814050794
30
0
10
15.141691602838698
20
-1.6836473850538809
30
0
10
15.181238202546886
20
-1.7054421082496773
30
0
10
15.220693275091255
20
-1.7275784098199731
30
0
10
15.260054957921444
20
-1.7500567529200006
30
0
10
15.299321977145176
20
-1.7728755993513245
30
0
10
15.338493840097074
20
-1.7960306828974268
30
0
10
15.37757049599419
20
-1.819516257509544
30
0
10
15.416552131070006
20
-1.8433258465908677
30
0
10
15.455438928989524
20
-1.8674531213261736
30
0
10
15.494230800383676
20
-1.8918928941689979
30
0
10
15.532927306364442
20
-1.9166413917550034
30
0
10
15.571527801529568
20
-1.9416957128408598
30
0
10
15.610031521767132
20
-1.967053491178302
30
0
10
15.648437687046773
20
-1.9927125042333738
30
0
10
15.686745618134164
20
-2.0186702277051447
30
0
10
15.724954772815373
20
-2.0449236995782698
30
0
10
15.763064686629079
20
-2.0714697497940611
30
0
10
15.801074938557447
20
-2.0983051360169109
30
0
10
15.838985110030578
20
-2.1254267029731189
30
0
10
15.87679474099842
20
-2.1528315598160437
30
0
10
15.914503312226234
20
-2.1805171362988229
30
0
10
15.952110263715147
20
-2.2084810759251163
30
0
10
15.989615004627904
20
-2.2367211663696684
30
0
10
16.027016926968329
20
-2.2652352593549669
30
0
10
16.064315419347547
20
-2.2940211776041934
30
0
10
16.101509878002037
20
-2.3230766797123135
30
0
10
16.138599711213828
20
-2.3523995214197817
30
0
10
16.175584346805117
20
-2.3819874939863399
30
0
10
16.212463237492564
20
-2.4118384661492787
30
0
10
16.249235871995133
20
-2.4419504316043876
30
0
10
16.285901771273657
20
-2.4723215228442825
30
0
10
16.322460453750178
20
-2.5029499514847338
30
0
10
16.358911406151272
20
-2.5338339603524247
30
0
10
16.395254055901255
20
-2.5649717733975281
30
0
10
16.431487736370759
20
-2.5963615343440938
30
0
10
16.467611678225325
20
-2.6280012801188302
30
0
10
16.503625089298094
20
-2.6598890398745563
30
0
10
16.539527221691021
20
-2.6920229124999189
30
0
10
16.575317442364238
20
-2.7244011494019285
30
0
10
16.610995308742336
20
-2.7570222367860464
30
0
10
16.646560627021881
20
-2.7898849666993462
30
0
10
16.682013369817806
20
-2.8229884200872277
30
0
10
16.710285560983554
20
-2.8496632502118544
30
0
10
16.731439121934489
20
-2.8697772429537944
30
0
10
16.745519022307917
20
-2.883234497820593
30
0
10
16.752553354095213
20
-2.8899751068466415
30
0
0
LINE
5
148
100
AcDbEntity
8
0
100
AcDbLine
10
14.038575169876321
20
-1.2642812387349232
30
0
11
12.986720906769676
21
-1.1687462119417305
31
0
0
ARC
5
149
100
AcDbEntity
8
0
100
AcDbCircle
10
13.031947420357548
20
-0.67079585049122581
30
0
40
0.49999999999999989
100
AcDbArc
50
177.05340418556295
51
264.81033006042924
0
ARC
5
150
100
AcDbEntity
8
0
100
AcDbCircle
10
-5.5511151231257827e-16
20
-2.7755575615628914e-16
30
0
40
12.549200000000001
100
AcDbArc
50
-2.9465958144370719
51
2.9465958144371762
0
ARC
5
151
100
AcDbEntity
8
0
100
AcDbCircle
10
13.031947420357548
20
0.67079585049123747
30
0
40
0.50000000000000022
100
AcDbArc
50
95.189669939570834
51
182.94659581443901
0
LINE
5
152
100
AcDbEntity
8
0
100
AcDbLine
10
12.986720906769676
20
1.16874621194174
30
0
11
14.038575169876319
21
1.2642812387349336
31
0
0
SPLINE
5
153
100
AcDbEntity
8
0
100
AcDbSpline
70
1064
71
5
72
81
73
75
74
0
42
0.000000001
43
0.0000000001
44
0.0000000001
40
0
40
0
40
0
40
0
40
0
40
0
40
0.014285714285714285
40
0.028571428571428571
40
0.042857142857142858
40
0.057142857142857141
40
0.071428571428571425
40
0.085714285714285715
40
0.10000000000000001
40
0.1142857142857143
40
0.12857142857142859
40
0.14285714285714288
40
0.15714285714285717
40
0.17142857142857146
40
0.18571428571428575
40
0.20000000000000004
40
0.21428571428571433
40
0.22857142857142862
40
0.24285714285714291
40
0.25714285714285717
40
0.27142857142857146
40
0.28571428571428575
40
0.30000000000000004
40
0.31428571428571433
40
0.32857142857142863
40
0.34285714285714292
40
0.35714285714285721
40
0.3714285714285715
40
0.38571428571428579
40
0.40000000000000008
40
0.41428571428571437
40
0.42857142857142866
40
0.44285714285714295
40
0.45714285714285724
40
0.47142857142857153
40
0.48571428571428582
40
0.50000000000000011
40
0.51428571428571435
40
0.52857142857142858
40
0.54285714285714282
40
0.55714285714285705
40
0.57142857142857129
40
0.58571428571428552
40
0.59999999999999976
40
0.61428571428571399
40
0.62857142857142823
40
0.64285714285714246
40
0.6571428571428567
40
0.67142857142857093
40
0.68571428571428517
40
0.6999999999999994
40
0.71428571428571364
40
0.72857142857142787
40
0.74285714285714211
40
0.75714285714285634
40
0.77142857142857058
40
0.78571428571428481
40
0.79999999999999905
40
0.81428571428571328
40
0.82857142857142752
40
0.84285714285714175
40
0.85714285714285599
40
0.87142857142857022
40
0.88571428571428445
40
0.89999999999999869
40
0.91428571428571292
40
0.92857142857142716
40
0.94285714285714139
40
0.95714285714285563
40
0.97142857142856986
40
0.9857142857142841
40
1
40
1
40
1
40
1
40
1
40
1
10
14.038575169876319
20
1.2642812387349336
30
0
10
14.047152650391173
20
1.2650602913656506
30
0
10
14.064259833762973
20
1.2668637040627475
30
0
10
14.089777278089837
20
1.2703047362787523
30
0
10
14.123530688636997
20
1.2762928181586779
30
0
10
14.165369526233981
20
1.2856949330676781
30
0
10
14.206977294242364
20
1.2964847166444817
30
0
10
14.248472165237565
20
1.3081395904739535
30
0
10
14.289937623639965
20
1.3202727541279971
30
0
10
14.331397819717008
20
1.33273633466179
30
0
10
14.372837997269466
20
1.3455410897478233
30
0
10
14.414220703205228
20
1.3587933676457522
30
0
10
14.455502800620572
20
1.3726285784480572
30
0
10
14.496653958039536
20
1.3871391922287744
30
0
10
14.537668821710952
20
1.4023268737236179
30
0
10
14.578557121357779
20
1.4181392511546367
30
0
10
14.619337273819193
20
1.4344932331276952
30
0
10
14.660029070513826
20
1.4513019222716541
30
0
10
14.700645700694789
20
1.4685038877019443
30
0
10
14.74118957097472
20
1.486078471889237
30
0
10
14.78165671611611
20
1.5040293869164556
30
0
10
14.82203949276334
20
1.5223746504066225
30
0
10
14.862329732103232
20
1.5411348315164728
30
0
10
14.902522230091936
20
1.5603200384135243
30
0
10
14.942616210952353
20
1.5799244313590231
30
0
10
14.982613439133448
20
1.5999331762199223
30
0
10
15.022517090653045
20
1.6203265786347354
30
0
10
15.062330422438615
20
1.6410849706205755
30
0
10
15.102055282587743
20
1.6621941814050905
30
0
10
15.141691602838698
20
1.6836473850538922
30
0
10
15.18123820254689
20
1.7054421082496893
30
0
10
15.220693275091255
20
1.7275784098199851
30
0
10
15.260054957921446
20
1.7500567529200119
30
0
10
15.299321977145176
20
1.7728755993513361
30
0
10
15.338493840097073
20
1.7960306828974382
30
0
10
15.377570495994192
20
1.8195162575095558
30
0
10
15.416552131070006
20
1.8433258465908795
30
0
10
15.455438928989523
20
1.8674531213261856
30
0
10
15.494230800383676
20
1.8918928941690096
30
0
10
15.532927306364439
20
1.9166413917550154
30
0
10
15.571527801529566
20
1.9416957128408718
30
0
10
15.610031521767132
20
1.967053491178314
30
0
10
15.648437687046773
20
1.9927125042333853
30
0
10
15.686745618134161
20
2.0186702277051567
30
0
10
15.724954772815373
20
2.0449236995782822
30
0
10
15.763064686629079
20
2.0714697497940731
30
0
10
15.801074938557447
20
2.0983051360169225
30
0
10
15.838985110030574
20
2.1254267029731304
30
0
10
15.876794740998418
20
2.1528315598160561
30
0
10
15.91450331222623
20
2.1805171362988349
30
0
10
15.952110263715145
20
2.2084810759251288
30
0
10
15.989615004627904
20
2.2367211663696809
30
0
10
16.027016926968326
20
2.2652352593549785
30
0
10
16.064315419347547
20
2.294021177604205
30
0
10
16.101509878002034
20
2.3230766797123259
30
0
10
16.138599711213828
20
2.3523995214197941
30
0
10
16.175584346805117
20
2.3819874939863523
30
0
10
16.21246323749256
20
2.4118384661492911
30
0
10
16.249235871995133
20
2.4419504316044001
30
0
10
16.285901771273657
20
2.4723215228442945
30
0
10
16.322460453750182
20
2.5029499514847457
30
0
10
16.358911406151272
20
2.5338339603524367
30
0
10
16.395254055901255
20
2.5649717733975401
30
0
10
16.431487736370759
20
2.5963615343441058
30
0
10
16.467611678225321
20
2.6280012801188435
30
0
10
16.50362508929809
20
2.6598890398745683
30
0
10
16.539527221691021
20
2.6920229124999318
30
0
10
16.575317442364234
20
2.7244011494019418
30
0
10
16.610995308742336
20
2.7570222367860584
30
0
10
16.646560627021877
20
2.789884966699359
30
0
10
16.682013369817806
20
2.8229884200872406
30
0
10
16.71028556098355
20
2.8496632502118673
30
0
10
16.731439121934486
20
2.8697772429538073
30
0
10
16.745519022307914
20
2.8832344978206059
30
0
10
16.752553354095213
20
2.8899751068466544
30
0
0
ARC
5
154
100
AcDbEntity
8
0
100
AcDbCircle
10
-5.5511151231257827e-16
20
-2.7755575615628914e-16
30
0
40
17
100
AcDbArc
50
9.787733919076846
51
14.212266080923065
0
SPLINE
5
155
100
AcDbEntity
8
0
100
AcDbSpline
70
1064
71
5
72
81
73
75
74
0
42
0.000000001
43
0.0000000001
44
0.0000000001
40
0
40
0
40
0
40
0
40
0
40
0
40
0.014285714285714285
40
0.028571428571428571
40
0.042857142857142858
40
0.057142857142857141
40
0.071428571428571425
40
0.085714285714285715
40
0.10000000000000001
40
0.1142857142857143
40
0.12857142857142859
40
0.14285714285714288
40
0.15714285714285717
40
0.17142857142857146
40
0.18571428571428575
40
0.20000000000000004
40
0.21428571428571433
40
0.22857142857142862
40
0.24285714285714291
40
0.25714285714285717
40
0.27142857142857146
40
0.28571428571428575
40
0.30000000000000004
40
0.31428571428571433
40
0.32857142857142863
40
0.34285714285714292
40
0.35714285714285721
40
0.3714285714285715
40
0.38571428571428579
40
0.40000000000000008
40
0.41428571428571437
40
0.42857142857142866
40
0.44285714285714295
40
0.45714285714285724
40
0.47142857142857153
40
0.48571428571428582
40
0.50000000000000011
40
0.51428571428571435
40
0.52857142857142858
40
0.54285714285714282
40
0.55714285714285705
40
0.57142857142857129
40
0.58571428571428552
40
0.59999999999999976
40
0.61428571428571399
40
0.62857142857142823
40
0.64285714285714246
40
0.6571428571428567
40
0.67142857142857093
40
0.68571428571428517
40
0.6999999999999994
40
0.71428571428571364
40
0.72857142857142787
40
0.74285714285714211
40
0.75714285714285634
40
0.77142857142857058
40
0.78571428571428481
40
0.79999999999999905
40
0.81428571428571328
40
0.82857142857142752
40
0.84285714285714175
40
0.85714285714285599
40
0.87142857142857022
40
0.88571428571428445
40
0.89999999999999869
40
0.91428571428571292
40
0.92857142857142716
40
0.94285714285714139
40
0.95714285714285563
40
0.97142857142856986
40
0.9857142857142841
40
1
40
1
40
1
40
1
40
1
40
1
10
13.339106085161474
20
4.5550245553337287
30
0
10
13.347258872775631
20
4.5578016309723299
30
0
10
13.363620576464497
20
4.5631122498317724
30
0
10
13.388331515712204
20
4.5703475901266195
30
0
10
13.421602362919813
20
4.5786059540235344
30
0
10
13.463648227615487
20
4.5870340830105754
30
0
10
13.506047415433732
20
4.5941005291206451
30
0
10
13.548695330603735
20
4.600330756607784
30
0
10
13.591510914030852
20
4.606112081418992
30
0
10
13.634456082737024
20
4.6115894150100214
30
0
10
13.677521731803076
20
4.6167469278711017
30
0
10
13.72071690186096
20
4.6214722324877364
30
0
10
13.764057261634688
20
4.6256240802256086
30
0
10
13.807552712909654
20
4.6291056585459014
30
0
10
13.851199041899825
20
4.6319132690700879
30
0
10
13.894983835628253
20
4.6340987132328779
30
0
10
13.938890122399993
20
4.6357453896032963
30
0
10
13.982900638230609
20
4.6369407327752041
30
0
10
14.0270024459106
20
4.6377462272066952
30
0
10
14.071189341815876
20
4.6381817233473939
30
0
10
14.115459213361866
20
4.6382422172334214
30
0
10
14.159812406423271
20
4.6379081401142965
30
0
10
14.204249824647675
20
4.6371573785746678
30
0
10
14.248770825266588
20
4.6359785816686907
30
0
10
14.293372324336621
20
4.6343767687262005
30
0
10
14.338049900176637
20
4.6323662090681132
30
0
10
14.382798443804813
20
4.6299661861917301
30
0
10
14.427612930883111
20
4.6271959924052251
30
0
10
14.472489285960311
20
4.6240693250423242
30
0
10
14.517424670318572
20
4.6205923921398302
30
0
10
14.562416999396623
20
4.616766972974105
30
0
10
14.607464646691303
20
4.6125922789845619
30
0
10
14.652566099060403
20
4.6080671294903652
30
0
10
14.697719567103746
20
4.6031924115670391
30
0
10
14.742922865522532
20
4.5979718222122425
30
0
10
14.788173610795647
20
4.5924105900474386
30
0
10
14.833469338786589
20
4.5865147074862005
30
0
10
14.878807643120638
20
4.5802900308922183
30
0
10
14.924186332189846
20
4.5737412629753251
30
0
10
14.969603470284516
20
4.5668716723635292
30
0
10
15.015057287758376
20
4.5596836469657536
30
0
10
15.060546124120576
20
4.5521790376650326
30
0
10
15.10606836279192
20
4.5443595575802345
30
0
10
15.15162235653529
20
4.5362272365055203
30
0
10
15.197206405253434
20
4.5277845598382784
30
0
10
15.242818795260789
20
4.5190342346577843
30
0
10
15.288457823161723
20
4.5099790517416247
30
0
10
15.334121823208175
20
4.500621723328039
30
0
10
15.379809199310259
20
4.4909647032176361
30
0
10
15.425518431709841
20
4.4810101282559609
30
0
10
15.471248050349098
20
4.4707599234374849
30
0
10
15.516996615637586
20
4.4602158695067304
30
0
10
15.562762698359974
20
4.449379681718538
30
0
10
15.608544854406469
20
4.4382531004399981
30
0
10
15.654341620550092
20
4.4268379277237475
30
0
10
15.700151543406983
20
4.415135973129523
30
0
10
15.745973201891115
20
4.4031490217162732
30
0
10
15.791805229171629
20
4.390878797889175
30
0
10
15.837646342132633
20
4.3783269265415985
30
0
10
15.883495343566372
20
4.3654949188836465
30
0
10
15.929351066128101
20
4.3523842128102057
30
0
10
15.975212326212432
20
4.3389962048118687
30
0
10
16.021077878360913
20
4.3253322845033777
30
0
10
16.066946358561861
20
4.3113938765346029
30
0
10
16.112816265539433
20
4.2971824613457166
30
0
10
16.158686073997426
20
4.2826995171919222
30
0
10
16.204554327445337
20
4.2679464766273174
30
0
10
16.250419736355614
20
4.252924679590576
30
0
10
16.296281280699809
20
4.2376353289901907
30
0
10
16.342138292110938
20
4.2220794495191019
30
0
10
16.387990371758331
20
4.206257869636965
30
0
10
16.424667934434911
20
4.1933885358703762
30
0
10
16.452173771841309
20
4.1836174175362038
30
0
10
16.470509959541054
20
4.1770504148930314
30
0
10
16.47967779408043
20
4.1737536826329862
30
0
0
LINE
5
156
100
AcDbEntity
8
0
100
AcDbLine
10
13.339106085161474
20
4.5550245553337287
30
0
11
12.339331804904374
21
4.2144724731254462
31
0
0
ARC
5
157
100
AcDbEntity
8
0
100
AcDbCircle
10
12.178113622522828
20
4.6877680442747982
30
0
40
0.50000000000000044
100
AcDbArc
50
201.05340418556264
51
288.81033006042901
0
ARC
5
158
100
AcDbEntity
8
0
100
AcDbCircle
10
-5.5511151231257827e-16
20
-2.7755575615628914e-16
30
0
40
12.549200000000003
100
AcDbArc
50
21.053404185562844
51
26.946595814437167
0
ARC
5
159
100
AcDbEntity
8
0
100
AcDbCircle
10
11.632439117686868
20
5.9133730487183342
30
0
40
0.49999999999999994
100
AcDbArc
50
119.18966993957093
51
206.94659581443753
0
LINE
5
160
100
AcDbEntity
8
0
100
AcDbLine
10
11.388587983198896
20
6.3498780592381792
30
0
11
12.31064707126796
21
6.8649813209918324
31
0
0
SPLINE
5
161
100
AcDbEntity
8
0
100
AcDbSpline
70
1064
71
5
72
81
73
75
74
0
42
0.000000001
43
0.0000000001
44
0.0000000001
40
0
40
0
40
0
40
0
40
0
40
0
40
0.014285714285714285
40
0.028571428571428571
40
0.042857142857142858
40
0.057142857142857141
40
0.071428571428571425
40
0.085714285714285715
40
0.10000000000000001
40
0.1142857142857143
40
0.12857142857142859
40
0.14285714285714288
40
0.15714285714285717
40
0.17142857142857146
40
0.18571428571428575
40
0.20000000000000004
40
0.21428571428571433
40
0.22857142857142862
40
0.24285714285714291
40
0.25714285714285717
40
0.27142857142857146
40
0.28571428571428575
40
0.30000000000000004
40
0.31428571428571433
40
0.32857142857142863
40
0.34285714285714292
40
0.35714285714285721
40
0.3714285714285715
40
0.38571428571428579
40
0.40000000000000008
40
0.41428571428571437
40
0.42857142857142866
40
0.44285714285714295
40
0.45714285714285724
40
0.47142857142857153
40
0.48571428571428582
40
0.50000000000000011
40
0.51428571428571435
40
0.52857142857142858
40
0.54285714285714282
40
0.55714285714285705
40
0.57142857142857129
40
0.58571428571428552
40
0.59999999999999976
40
0.61428571428571399
40
0.62857142857142823
40
0.64285714285714246
40
0.6571428571428567
40
0.67142857142857093
40
0.68571428571428517
40
0.6999999999999994
40
0.71428571428571364
40
0.72857142857142787
40
0.74285714285714211
40
0.75714285714285634
40
0.77142857142857058
40
0.78571428571428481
40
0.79999999999999905
40
0.81428571428571328
40
0.82857142857142752
40
0.84285714285714175
40
0.85714285714285599
40
0.87142857142857022
40
0.88571428571428445
40
0.89999999999999869
40
0.91428571428571292
40
0.92857142857142716
40
0.94285714285714139
40
0.95714285714285563
40
0.97142857142856986
40
0.9857142857142841
40
1
40
1
40
1
40
1
40
1
40
1
10
12.31064707126796
20
6.8649813209918324
30
0
10
12.318166120378521
20
6.8691817966145461
30
0
10
12.333060796014392
20
6.8777874144293625
30
0
10
12.354972547477592
20
6.8913098334252778
30
0
10
12.383372250040592
20
6.9105089673249873
30
0
10
12.417769745424467
20
6.9361156150467291
30
0
10
12.451391732539625
20
6.9628959767078697
30
0
10
12.484558719195888
20
6.9904207182876341
30
0
10
12.517504298113934
20
7.0183704361848118
30
0
10
12.550310677006067
20
7.0466198645410616
30
0
10
12.582959999873918
20
7.0751728290922848
30
0
10
12.615374795881181
20
7.1041112502630588
30
0
10
12.647460581258954
20
7.1335412859688798
30
0
10
12.679152035857644
20
7.1635350749031339
30
0
10
12.710443591673179
20
7.1940919603107929
30
0
10
12.741365438770927
20
7.2251680556268569
30
0
10
12.771968198085379
20
7.2566949438889896
30
0
10
12.80230529432216
20
7.288601290293677
30
0
10
12.832413762655309
20
7.3208363394879008
30
0
10
12.862304203808996
20
7.3533821987371191
30
0
10
12.891971485518368
20
7.3862406463904327
30
0
10
12.921401296803108
20
7.4194250335327059
30
0
10
12.950577808851286
20
7.4529508284679906
30
0
10
12.979492156170153
20
7.4868251487914819
30
0
10
13.008146005287806
20
7.5210423440993948
30
0
10
13.036547001694059
20
7.5555895804029136
30
0
10
13.064706057244045
20
7.5904501578103911
30
0
10
13.092634146978398
20
7.6256074334371462
30
0
10
13.120338722990647
20
7.6610492133274724
30
0
10
13.147822499278242
20
7.6967692339154672
30
0
10
13.175085403257443
20
7.7327647555019379
30
0
10
13.202125760570491
20
7.7690350970094961
30
0
10
13.228941681310769
20
7.8055799239840216
30
0
10
13.255532627361434
20
7.8423973130726559
30
0
10
13.281899883876861
20
7.8794831665076126
30
0
10
13.308045741593094
20
7.9168322143568615
30
0
10
13.333973004912135
20
7.9544386157027835
30
0
10
13.359684415781368
20
7.9922966635882684
30
0
10
13.385182002523326
20
8.0304015826041333
30
0
10
13.410466898959392
20
8.0687497470986873
30
0
10
13.435539695527245
20
8.1073382441455166
30
0
10
13.460400656615782
20
8.1461646012769524
30
0
10
13.48504997361781
20
8.1852264708402593
30
0
10
13.509488052747585
20
8.2245212705023043
30
0
10
13.53371560342821
20
8.2640460737891459
30
0
10
13.557733490732176
20
8.3037977957946278
30
0
10
13.581542648817264
20
8.343773303254407
30
0
10
13.605143978666268
20
8.3839695434348087
30
0
10
13.628538235815824
20
8.4243836882968068
30
0
10
13.65172599133496
20
8.4650131786112492
30
0
10
13.674707692112669
20
8.5058556338395572
30
0
10
13.697483698226009
20
8.5469087926068763
30
0
10
13.720054328026013
20
8.5881704450697214
30
0
10
13.742419908559423
20
8.629638353512485
30
0
10
13.764580799922365
20
8.6713102247370326
30
0
10
13.786537374376181
20
8.7131837678368669
30
0
10
13.808290007586027
20
8.7552567323016834
30
0
10
13.82983906644634
20
8.797526948525924
30
0
10
13.851184899916088
20
8.8399923757027583
30
0
10
13.872327829954902
20
8.8826511129365144
30
0
10
13.893268144020825
20
8.9255013305815041
30
0
10
13.914006087922019
20
8.9685412146129124
30
0
10
13.934541860969125
20
9.0117689096409794
30
0
10
13.954875609181357
20
9.0551824487306494
30
0
10
13.975007428190551
20
9.0987797256087184
30
0
10
13.994937395932043
20
9.142558617613405
30
0
10
14.014665602418621
20
9.1865170837955343
30
0
10
14.034192180556426
20
9.2306532692554075
30
0
10
14.053517341748423
20
9.2749656110612655
30
0
10
14.072641400265072
20
9.3194529268662425
30
0
10
14.091564704902058
20
9.3641143659336699
30
0
10
14.106543005859621
20
9.3999823719545628
30
0
10
14.117686647492604
20
9.4269613470292999
30
0
10
14.125075717853271
20
9.4449819724979314
30
0
10
14.128760247017567
20
9.4540009457528704
30
0
0
ARC
5
162
100
AcDbEntity
8
0
100
AcDbCircle
10
-5.5511151231257827e-16
20
-2.7755575615628914e-16
30
0
40
17
100
AcDbArc
50
33.787733919076821
51
38.212266080923143
0
SPLINE
5
163
100
AcDbEntity
8
0
100
AcDbSpline
70
1064
71
5
72
81
73
75
74
0
42
0.000000001
43
0.0000000001
44
0.0000000001
40
0
40
0
40
0
40
0
40
0
40
0
40
0.014285714285714285
40
0.028571428571428571
40
0.042857142857142858
40
0.057142857142857141
40
0.071428571428571425
40
0.085714285714285715
40
0.10000000000000001
40
0.1142857142857143
40
0.12857142857142859
40
0.14285714285714288
40
0.15714285714285717
40
0.17142857142857146
40
0.18571428571428575
40
0.20000000000000004
40
0.21428571428571433
40
0.22857142857142862
40
0.24285714285714291
40
0.25714285714285717
40
0.27142857142857146
40
0.28571428571428575
40
0.30000000000000004
40
0.31428571428571433
40
0.32857142857142863
40
0.34285714285714292
40
0.35714285714285721
40
0.3714285714285715
40
0.38571428571428579
40
0.40000000000000008
40
0.41428571428571437
40
0.42857142857142866
40
0.44285714285714295
40
0.45714285714285724
40
0.47142857142857153
40
0.48571428571428582
40
0.50000000000000011
40
0.51428571428571435
40
0.52857142857142858
40
0.54285714285714282
40
0.55714285714285705
40
0.57142857142857129
40
0.58571428571428552
40
0.59999999999999976
40
0.61428571428571399
40
0.62857142857142823
40
0.64285714285714246
40
0.6571428571428567
40
0.67142857142857093
40
0.68571428571428517
40
0.6999999999999994
40
0.71428571428571364
40
0.72857142857142787
40
0.74285714285714211
40
0.75714285714285634
40
0.77142857142857058
40
0.78571428571428481
40
0.79999999999999905
40
0.81428571428571328
40
0.82857142857142752
40
0.84285714285714175
40
0.85714285714285599
40
0.87142857142857022
40
0.88571428571428445
40
0.89999999999999869
40
0.91428571428571292
40
0.92857142857142716
40
0.94285714285714139
40
0.95714285714285563
40
0.97142857142856986
40
0.9857142857142841
40
1
40
1
40
1
40
1
40
1
40
1
10
10.333184376347766
20
9.5867252226861908
30
0
10
10.339502780016989
20
9.5925782449872568
30
0
10
10.352289916813701
20
9.604084641156982
30
0
10
10.371921605094492
20
9.6207452978947003
30
0
10
10.398957057224195
20
9.6418221614257966
30
0
10
10.433939837037983
20
9.6666232342398715
30
0
10
10.469799239907791
20
9.6903240573077358
30
0
10
10.506225987275556
20
9.7133621231791203
30
0
10
10.542988492385476
20
9.7360582928740307
30
0
10
10.579993023906873
20
9.7585294598519834
30
0
10
10.617237702523859
20
9.780757459831964
30
0
10
10.65477649938506
20
9.8026432988669008
30
0
10
10.692681179577477
20
9.8240643129527196
30
0
10
10.731000166039239
20
9.8449360868532985
30
0
10
10.769731113551311
20
9.8652535280305393
30
0
10
10.808841612753334
20
9.8850589106372553
30
0
10
10.848282237976473
20
9.9044215200471211
30
0
10
10.888001654932975
20
9.9234142098411198
30
0
10
10.92796303691178
20
9.9420878868294995
30
0
10
10.968152642715028
20
9.9604581620591066
30
0
10
11.008570577696158
20
9.9785196049159151
30
0
10
11.049225117155309
20
9.9962544791367254
30
0
10
11.090126080951958
20
10.013642950657974
30
0
10
11.131277498733478
20
10.030674388437149
30
0
10
11.172674511632021
20
10.047352123507437
30
0
10
11.214307276385185
20
10.063687393082406
30
0
10
11.25616328240087
20
10.0796957355033
30
0
10
11.298230092829225
20
10.095392731588241
30
0
10
11.340498413352755
20
10.11078923683888
30
0
10
11.38296312563763
20
10.125889767968479
30
0
10
11.425621601645473
20
10.14069510255942
30
0
10
11.46847267622819
20
10.155203858667328
30
0
10
11.511515447287749
20
10.169414342236198
30
0
10
11.554747919319633
20
10.183326635835236
30
0
10
11.598166592249623
20
10.196943227998755
30
0
10
11.641767161950899
20
10.210267925844768
30
0
10
11.685544939988564
20
10.223305201460864
30
0
10
11.72949534603222
20
10.236059426140718
30
0
10
11.773614465183972
20
10.248534004616275
30
0
10
11.81789919961423
20
10.26073113560374
30
0
10
11.862346961420627
20
10.272652280786481
30
0
10
11.906955480847333
20
10.284298455647809
30
0
10
11.95172258428755
20
10.295670567677693
30
0
10
11.99664594132363
20
10.306769801193671
30
0
10
12.041722987937257
20
10.317597735227391
30
0
10
12.086951057530433
20
10.32815614580011
30
0
10
12.132327458862314
20
10.338446889580597
30
0
10
12.177849567029641
20
10.348471766801005
30
0
10
12.223514925881126
20
10.358232369931484
30
0
10
12.269321277915255
20
10.367730032936262
30
0
10
12.315266497201584
20
10.376965916458904
30
0
10
12.361348544314751
20
10.385941061756297
30
0
10
12.407565415944594
20
10.394656454477467
30
0
10
12.453915084960098
20
10.40311309715449
30
0
10
12.500395481676064
20
10.411312040896338
30
0
10
12.547004542346016
20
10.419254347673617
30
0
10
12.593740242694382
20
10.426941070211061
30
0
10
12.64060063268027
20
10.434373227890994
30
0
10
12.68758387921531
20
10.441551783237115
30
0
10
12.734688273931267
20
10.448477629860296
30
0
10
12.781912165561121
20
10.455151606540989
30
0
10
12.829253904823643
20
10.461574507621151
30
0
10
12.876711788728688
20
10.467747096003432
30
0
10
12.924283991732274
20
10.47367011837671
30
0
10
12.971968540201409
20
10.479344316566488
30
0
10
13.019763439448113
20
10.484770420632231
30
0
10
13.067666776229856
20
10.48994914686917
30
0
10
13.115676827502451
20
10.494881194874095
30
0
10
13.163792172156574
20
10.499567248675634
30
0
10
13.212011782828441
20
10.50400797252804
30
0
10
13.260334958203202
20
10.508203961047808
30
0
10
13.299076008598636
20
10.511365348361728
30
0
10
13.328178113290248
20
10.513626619563123
30
0
10
13.34760009488398
20
10.515085363559926
30
0
10
13.357316230296419
20
10.51580254302352
30
0
0
LINE
5
164
100
AcDbEntity
8
0
100
AcDbLine
10
10.333184376347766
20
9.5867252226861908
30
0
11
9.5583601346608607
21
8.8689705803087886
31
0
0
ARC
5
165
100
AcDbEntity
8
0
100
AcDbCircle
10
9.2185733446648719
20
9.2357742571499859
30
0
40
0.50000000000000078
100
AcDbArc
50
225.05340418556284
51
312.81033006042918
0
ARC
5
166
100
AcDbEntity
8
0
100
AcDbCircle
10
-5.5511151231257827e-16
20
-2.7755575615628914e-16
30
0
40
12.549200000000001
100
AcDbArc
50
45.053404185562819
51
50.946595814437146
0
ARC
5
167
100
AcDbEntity
8
0
100
AcDbCircle
10
8.2215764141763348
20
10.133474325514394
30
0
40
0.49999999999999967
100
AcDbArc
50
143.18966993957071
51
230.94659581443833
0
LINE
5
168
100
AcDbEntity
8
0
100
AcDbLine
10
7.8212647352592466
20
10.433058303261172
30
0
11
8.4540962553197385
21
11.278663766451853
31
0
0
SPLINE
5
169
100
AcDbEntity
8
0
100
AcDbSpline
70
1064
71
5
72
81
73
75
74
0
42
0.000000001
43
0.0000000001
44
0.0000000001
40
0
40
0
40
0
40
0
40
0
40
0
40
0.014285714285714285
40
0.028571428571428571
40
0.042857142857142858
40
0.057142857142857141
40
0.071428571428571425
40
0.085714285714285715
40
0.10000000000000001
40
0.1142857142857143
40
0.12857142857142859
40
0.14285714285714288
40
0.15714285714285717
40
0.17142857142857146
40
0.18571428571428575
40
0.20000000000000004
40
0.21428571428571433
40
0.22857142857142862
40
0.24285714285714291
40
0.25714285714285717
40
0.27142857142857146
40
0.28571428571428575
40
0.30000000000000004
40
0.31428571428571433
40
0.32857142857142863
40
0.34285714285714292
40
0.35714285714285721
40
0.3714285714285715
40
0.38571428571428579
40
0.40000000000000008
40
0.41428571428571437
40
0.42857142857142866
40
0.44285714285714295
40
0.45714285714285724
40
0.47142857142857153
40
0.48571428571428582
40
0.50000000000000011
40
0.51428571428571435
40
0.52857142857142858
40
0.54285714285714282
40
0.55714285714285705
40
0.57142857142857129
40
0.58571428571428552
40
0.59999999999999976
40
0.61428571428571399
40
0.62857142857142823
40
0.64285714285714246
40
0.6571428571428567
40
0.67142857142857093
40
0.68571428571428517
40
0.6999999999999994
40
0.71428571428571364
40
0.72857142857142787
40
0.74285714285714211
40
0.75714285714285634
40
0.77142857142857058
40
0.78571428571428481
40
0.79999999999999905
40
0.81428571428571328
40
0.82857142857142752
40
0.84285714285714175
40
0.85714285714285599
40
0.87142857142857022
40
0.88571428571428445
40
0.89999999999999869
40
0.91428571428571292
40
0.92857142857142716
40
0.94285714285714139
40
0.95714285714285563
40
0.97142857142856986
40
0.9857142857142841
40
1
40
1
40
1
40
1
40
1
40
1
10
8.4540962553197385
20
11.278663766451853
30
0
10
8.4592567611263796
20
11.285559364671274
30
0
10
8.4693635042949982
20
11.299479198104043
30
0
10
8.4838808220045347
20
11.320744854788156
30
0
10
8.5020162500070349
20
11.349835336037735
30
0
10
8.5230247637344885
20
11.387218894552039
30
0
10
8.5428474229380527
20
11.425359266474358
30
0
10
8.5619516519498902
20
11.463994597930844
30
0
10
8.5806807614874643
20
11.502928109931519
30
0
10
8.599160802247642
20
11.542078803309428
30
0
10
8.6173739058972476
20
11.581442910359396
30
0
10
8.6352159792671799
20
11.621063758885287
30
0
10
8.6525575288253531
20
11.660999898957606
30
0
10
8.6693095401958313
20
11.701290664453643
30
0
10
8.6854671938801218
20
11.741933190686545
30
0
10
8.7010759201494263
20
11.782899664690046
30
0
10
8.7162097912141121
20
11.82414817384794
30
0
10
8.7309466274498302
20
11.86563528035993
30
0
10
8.7453409062335137
20
11.907329680466177
30
0
10
8.759409589439354
20
11.94921934004328
30
0
10
8.7731472651903619
20
11.991303796213808
30
0
10
8.7865354293800397
20
12.033589425000592
30
0
10
8.7995533301430804
20
12.076083919244716
30
0
10
8.8121899734620825
20
12.118790175272178
30
0
10
8.8244491800124809
20
12.161703709020307
30
0
10
8.8363431543502973
20
12.204815905757776
30
0
10
8.84788865740909
20
12.248115947625761
30
0
10
8.8591024846584254
20
12.291593094543742
30
0
10
8.8699964036531096
20
12.335239237818381
30
0
10
8.8805754413749458
20
12.379049759279706
30
0
10
8.8908406458514495
20
12.423022126565499
30
0
10
8.9007907644998223
20
12.467155036457955
30
0
10
8.9104242068392008
20
12.511447414723754
30
0
10
8.9197412635734796
20
12.555897285420796
30
0
10
8.9287447754619063
20
12.600501427771302
30
0
10
8.937438978670464
20
12.645255959179098
30
0
10
8.9458288108630732
20
12.690156684353477
30
0
10
8.9539190981619008
20
12.735199504980175
30
0
10
8.9617136358656762
20
12.780380883498914
30
0
10
8.9692149344571739
20
12.825697968878771
30
0
10
8.9764247181219652
20
12.871148340181689
30
0
10
8.9833442340345258
20
12.916729846232711
30
0
10
8.9899746119172761
20
12.962440420190815
30
0
10
8.996317273194915
20
13.008277868199515
30
0
10
9.0023740562618855
20
13.054239805340215
30
0
10
9.0081470061456042
20
13.100323765267582
30
0
10
9.0136382506550881
20
13.146527265558408
30
0
10
9.0188498545377254
20
13.192847883864436
30
0
10
9.0237836582776758
20
13.239283343947886
30
0
10
9.0284412245047321
20
13.285831540111294
30
0
10
9.0328239297245752
20
13.332490479390584
30
0
10
9.0369330226679789
20
13.379258242373563
30
0
10
9.0407696929874088
20
13.426132939752781
30
0
10
9.0443351496158577
20
13.473112660295211
30
0
10
9.0476306542452285
20
13.520195455524391
30
0
10
9.0506574787487857
20
13.567379384005438
30
0
10
9.0534168816787428
20
13.614662542591663
30
0
10
9.0559100806679158
20
13.66204309847917
30
0
10
9.0581382245771174
20
13.709519329232565
30
0
10
9.0601023806950192
20
13.757089629250004
30
0
10
9.0618035558115597
20
13.804752443986708
30
0
10
9.063242712314036
20
13.852506216227731
30
0
10
9.064420786936779
20
13.900349332057127
30
0
10
9.0653387130995391
20
13.948280053981676
30
0
10
9.0659974348648404
20
13.996296496722033
30
0
10
9.0663978867944799
20
14.044396752829325
30
0
10
9.066540981248048
20
14.092578994415202
30
0
10
9.0664275940970249
20
14.140841581002269
30
0
10
9.0660585541692402
20
14.189183170766649
30
0
10
9.0654346294688466
20
14.23760281140604
30
0
10
9.064556484662333
20
14.28609986760182
30
0
10
9.0636510111025572
20
14.324959145427362
30
0
10
9.0628578965424431
20
14.354138192948183
30
0
10
9.0622784994973955
20
14.373606259162877
30
0
10
9.0619761374732839
20
14.383344134236129
30
0
0
ARC
5
170
100
AcDbEntity
8
0
100
AcDbCircle
10
-5.5511151231257827e-16
20
-2.7755575615628914e-16
30
0
40
17.000000000000007
100
AcDbArc
50
57.787733919076857
51
62.212266080923158
0
SPLINE
5
171
100
AcDbEntity
8
0
100
AcDbSpline
70
1064
71
5
72
81
73
75
74
0
42
0.000000001
43
0.0000000001
44
0.0000000001
40
0
40
0
40
0
40
0
40
0
40
0
40
0.014285714285714285
40
0.028571428571428571
40
0.042857142857142858
40
0.057142857142857141
40
0.071428571428571425
40
0.085714285714285715
40
0.10000000000000001
40
0.1142857142857143
40
0.12857142857142859
40
0.14285714285714288
40
0.15714285714285717
40
0.17142857142857146
40
0.18571428571428575
40
0.20000000000000004
40
0.21428571428571433
40
0.22857142857142862
40
0.24285714285714291
40
0.25714285714285717
40
0.27142857142857146
40
0.28571428571428575
40
0.30000000000000004
40
0.31428571428571433
40
0.32857142857142863
40
0.34285714285714292
40
0.35714285714285721
40
0.3714285714285715
40
0.38571428571428579
40
0.40000000000000008
40
0.41428571428571437
40
0.42857142857142866
40
0.44285714285714295
40
0.45714285714285724
40
0.47142857142857153
40
0.48571428571428582
40
0.50000000000000011
40
0.51428571428571435
40
0.52857142857142858
40
0.54285714285714282
40
0.55714285714285705
40
0.57142857142857129
40
0.58571428571428552
40
0.59999999999999976
40
0.61428571428571399
40
0.62857142857142823
40
0.64285714285714246
40
0.6571428571428567
40
0.67142857142857093
40
0.68571428571428517
40
0.6999999999999994
40
0.71428571428571364
40
0.72857142857142787
40
0.74285714285714211
40
0.75714285714285634
40
0.77142857142857058
40
0.78571428571428481
40
0.79999999999999905
40
0.81428571428571328
40
0.82857142857142752
40
0.84285714285714175
40
0.85714285714285599
40
0.87142857142857022
40
0.88571428571428445
40
0.89999999999999869
40
0.91428571428571292
40
0.92857142857142716
40
0.94285714285714139
40
0.95714285714285563
40
0.97142857142856986
40
0.9857142857142841
40
1
40
1
40
1
40
1
40
1
40
1
10
5.5405612148305057
20
12.960794006371717
30
0
10
5.5439527251594942
20
12.968710934606356
30
0
10
5.5509542829444136
20
12.98442354765629
30
0
10
5.5621122230062436
20
13.007628741929613
30
0
10
5.5782376047754436
20
13.03787972391307
30
0
10
5.6001084592689656
20
13.074765409753953
30
0
10
5.6232276606616995
20
13.11100252215596
30
0
10
5.6471347246807291
20
13.146864935528171
30
0
10
5.6714875803630722
20
13.182551576178307
30
0
10
5.6961530550240287
20
13.218131107628551
30
0
10
5.7211368199017887
20
13.253586171595851
30
0
10
5.7465284445597398
20
13.288848284653342
30
0
10
5.7724433816123728
20
13.323834577147867
30
0
10
5.7989602023846256
20
13.358487627307206
30
0
10
5.8260788357341493
20
13.392801828979803
30
0
10
5.8537524797900033
20
13.42680261945149
30
0
10
5.8819078010566317
20
13.46053319083005
30
0
10
5.9104682711076659
20
13.494039218637591
30
0
10
5.9393795414033876
20
13.527352229786537
30
0
10
5.9686227091501216
20
13.560480896629144
30
0
10
5.9982000794227464
20
13.593420300903736
30
0
10
6.0281264260722622
20
13.626157605595425
30
0
10
6.0584187872271231
20
13.658678685482224
30
0
10
6.0890851681879266
20
13.690975467628775
30
0
10
6.1201197753047669
20
13.723049018805725
30
0
10
6.1515090457234622
20
13.754905601102969
30
0
10
6.1832352304366704
20
13.786554320985347
30
0
10
6.215280630527042
20
13.818004353715914
30
0
10
6.2476323398827525
20
13.849261835949399
30
0
10
6.2802838455603851
20
13.880328812094762
30
0
10
6.3132324304561704
20
13.911204923589356
30
0
10
6.3464775922417811
20
13.941888434055743
30
0
10
6.3800191958443042
20
13.972377428980437
30
0
10
6.4138553846957347
20
14.002671172149341
30
0
10
6.4479819491410764
20
14.032770513343248
30
0
10
6.4823934086704185
20
14.062677179891423
30
0
10
6.5170836612234702
20
14.0923933502909
30
0
10
6.5520467444948816
20
14.121921154928948
30
0
10
6.587277697218223
20
14.151262111850542
30
0
10
6.6227727950868971
20
14.180416969682081
30
0
10
6.6585290794142633
20
14.209386011143039
30
0
10
6.6945440636409224
20
14.238169240730718
30
0
10
6.7308153929688332
20
14.266766603392924
30
0
10
6.7673404567501976
20
14.29517823319131
30
0
10
6.8041162703877003
20
14.323404529762865
30
0
10
6.8411396754499245
20
14.351446030980624
30
0
10
6.8784074581908019
20
14.379303338369642
30
0
10
6.9159164884215043
20
14.406977028879481
30
0
10
6.9536638746202142
20
14.434467558297291
30
0
10
6.9916470118845409
20
14.461775227051435
30
0
10
7.0298634860041194
20
14.488900230748762
30
0
10
7.0683110103538471
20
14.515842691115747
30
0
10
7.1069873539192443
20
14.542602693767932
30
0
10
7.1458902570574541
20
14.569180330055476
30
0
10
7.1850174014924217
20
14.595575718397388
30
0
10
7.2243664699555774
20
14.62178898955079
30
0
10
7.2639351849974378
20
14.647820281880524
30
0
10
7.3037213505468621
20
14.673669733485591
30
0
10
7.343722900500631
20
14.699337478090941
30
0
10
7.3839379107224312
20
14.724823637194763
30
0
10
7.4243645315420173
20
14.750128305430326
30
0
10
7.4650009331780414
20
14.775251537642003
30
0
10
7.5058452495711281
20
14.800193338107551
30
0
10
7.5468955092981354
20
14.824953646445573
30
0
10
7.5881496076279937
20
14.84953233759853
30
0
10
7.6296054253806282
20
14.873929267196237
30
0
10
7.6712609233784912
20
14.898144311421104
30
0
10
7.7131142429907484
20
14.922177408561391
30
0
10
7.7551638077499199
20
14.946028605491108
30
0
10
7.7974084089359437
20
14.969698091170216
30
0
10
7.8398471640135075
20
14.993186123557464
30
0
10
7.8739530225630325
20
15.011831599365014
30
0
10
7.8996193762543534
20
15.025734265768254
30
0
10
7.9167689146813611
20
15.034966526315712
30
0
10
7.9253533428857299
20
15.039573610658316
30
0
0
LINE
5
172
100
AcDbEntity
8
0
100
AcDbLine
10
5.5405612148305057
20
12.960794006371717
30
0
11
5.124661162158719
21
11.989943102088468
31
0
0
ARC
5
173
100
AcDbEntity
8
0
100
AcDbCircle
10
4.6650579874046745
20
12.186831196588876
30
0
40
0.50000000000000022
100
AcDbArc
50
249.05340418556284
51
336.81033006042929
0
ARC
5
174
100
AcDbEntity
8
0
100
AcDbCircle
10
-5.5511151231257827e-16
20
-2.7755575615628914e-16
30
0
40
12.549200000000001
100
AcDbArc
50
69.053404185562812
51
74.94659581443716
0
ARC
5
175
100
AcDbEntity
8
0
100
AcDbCircle
10
3.3891284579777987
20
12.601405831704851
30
0
40
0.50000000000000033
100
AcDbArc
50
167.18966993957093
51
254.9465958144383
0
LINE
5
176
100
AcDbEntity
8
0
100
AcDbLine
10
2.9015737606337888
20
12.712267985291145
30
0
11
3.1357553937733806
21
13.742162783248721
31
0
0
SPLINE
5
177
100
AcDbEntity
8
0
100
AcDbSpline
70
1064
71
5
72
81
73
75
74
0
42
0.000000001
43
0.0000000001
44
0.0000000001
40
0
40
0
40
0
40
0
40
0
40
0
40
0.014285714285714285
40
0.028571428571428571
40
0.042857142857142858
40
0.057142857142857141
40
0.071428571428571425
40
0.085714285714285715
40
0.10000000000000001
40
0.1142857142857143
40
0.12857142857142859
40
0.14285714285714288
40
0.15714285714285717
40
0.17142857142857146
40
0.18571428571428575
40
0.20000000000000004
40
0.21428571428571433
40
0.22857142857142862
40
0.24285714285714291
40
0.25714285714285717
40
0.27142857142857146
40
0.28571428571428575
40
0.30000000000000004
40
0.31428571428571433
40
0.32857142857142863
40
0.34285714285714292
40
0.35714285714285721
40
0.3714285714285715
40
0.38571428571428579
40
0.40000000000000008
40
0.41428571428571437
40
0.42857142857142866
40
0.44285714285714295
40
0.45714285714285724
40
0.47142857142857153
40
0.48571428571428582
40
0.50000000000000011
40
0.51428571428571435
40
0.52857142857142858
40
0.54285714285714282
40
0.55714285714285705
40
0.57142857142857129
40
0.58571428571428552
40
0.59999999999999976
40
0.61428571428571399
40
0.62857142857142823
40
0.64285714285714246
40
0.6571428571428567
40
0.67142857142857093
40
0.68571428571428517
40
0.6999999999999994
40
0.71428571428571364
40
0.72857142857142787
40
0.74285714285714211
40
0.75714285714285634
40
0.77142857142857058
40
0.78571428571428481
40
0.79999999999999905
40
0.81428571428571328
40
0.82857142857142752
40
0.84285714285714175
40
0.85714285714285599
40
0.87142857142857022
40
0.88571428571428445
40
0.89999999999999869
40
0.91428571428571292
40
0.92857142857142716
40
0.94285714285714139
40
0.95714285714285563
40
0.97142857142856986
40
0.9857142857142841
40
1
40
1
40
1
40
1
40
1
40
1
10
3.1357553937733806
20
13.742162783248721
30
0
10
3.1376650579404091
20
13.750561192488169
30
0
10
3.141236320931041
20
13.767388375880651
30
0
10
3.1458490287692453
20
13.792720245019849
30
0
10
3.1505844019544202
20
13.826672065132522
30
0
10
3.1545713711456225
20
13.869368577553294
30
0
10
3.1571671845780886
20
13.912274142937022
30
0
10
3.1589053611928852
20
13.955339664470438
30
0
10
3.160179568162321
20
13.998525012649841
30
0
10
3.1611379038572105
20
14.041807460491487
30
0
10
3.1617655772067002
20
14.085176298319574
30
0
10
3.1619498713634919
20
14.128628769546342
30
0
10
3.1615486736404268
20
14.172165692558211
30
0
10
3.1604646668294918
20
14.21578679523166
30
0
10
3.1586946132728446
20
14.259487500278379
30
0
10
3.1562913281409202
20
14.303260877445375
30
0
10
3.1533395271618474
20
14.347098765534689
30
0
10
3.1499279705313983
20
14.390993134539528
30
0
10
3.1461191581959973
20
14.434937544997695
30
0
10
3.1419334803177259
20
14.478927902206193
30
0
10
3.1373661811701572
20
14.522961582096766
30
0
10
3.132397763048723
20
14.56703688315795
30
0
10
3.127006139220784
20
14.611152392605744
30
0
10
3.1211800881097629
20
14.65530628469587
30
0
10
3.1149249239089483
20
14.699496017041946
30
0
10
3.1082552999619537
20
14.743718683735452
30
0
10
3.1011909281630876
20
14.787971219456438
30
0
10
3.0937515203215744
20
14.832250643986047
30
0
10
3.0859511247363622
20
14.876554335960048
30
0
10
3.0777962121627955
20
14.920880121127947
30
0
10
3.0692887700261586
20
14.965226112332935
30
0
10
3.0604281841015588
20
15.009590609554984
30
0
10
3.0512134383424847
20
15.053971984526274
30
0
10
3.0416456020082174
20
15.098368550373804
30
0
10
3.0317285802698004
20
15.142778520211547
30
0
10
3.0214678222515619
20
15.187200070115328
30
0
10
3.0108695451124072
20
15.231631375825232
30
0
10
2.9999398246689069
20
15.276070656305606
30
0
10
2.9886835669543652
20
15.320516223521395
30
0
10
2.9771042250276682
20
15.364966494031577
30
0
10
2.9652043586949257
20
15.409419957488646
30
0
10
2.9529859822683995
20
15.453875155968051
30
0
10
2.9404509684608531
20
15.49833066081607
30
0
10
2.9276015081301852
20
15.542785045990579
30
0
10
2.9144402507670737
20
15.587236880502417
30
0
10
2.9009700677500461
20
15.631684743020596
30
0
10
2.8871939126218464
20
15.676127231196567
30
0
10
2.8731146568808748
20
15.720562971913496
30
0
10
2.8587349077223845
20
15.76499063431706
30
0
10
2.8440569491440417
20
15.809408930335698
30
0
10
2.8290828492578797
20
15.853816599181423
30
0
10
2.8138145295314954
20
15.898212395288514
30
0
10
2.7982538452170647
20
15.942595076563986
30
0
10
2.7824026780983417
20
15.986963388726927
30
0
10
2.7662629733049995
20
16.031316064931854
30
0
10
2.7498366824037963
20
16.075651848907203
30
0
10
2.733125729218882
20
16.119969513941268
30
0
10
2.7161319715816896
20
16.164267880940258
30
0
10
2.6988571596063871
20
16.208545843664929
30
0
10
2.6813029213667949
20
16.25280236943043
30
0
10
2.6634708089016152
20
16.297036447587793
30
0
10
2.6453623347717699
20
16.34124704698856
30
0
10
2.626979011165405
20
16.385433074251317
30
0
10
2.6083223975060554
20
16.429593321753053
30
0
10
2.5893941230499431
20
16.473726451190199
30
0
10
2.5701958173911024
20
16.517831100142036
30
0
10
2.550729057480666
20
16.561905969839543
30
0
10
2.5309953107093146
20
16.605949917881063
30
0
10
2.5109958800178878
20
16.649962055564146
30
0
10
2.4907318543493289
20
16.693941825292782
30
0
10
2.4702040993140573
20
16.73788891701874
30
0
10
2.453571415841397
20
16.773020344487438
30
0
10
2.4409786818008468
20
16.799354142054664
30
0
10
2.4325310003628289
20
16.816903443505073
30
0
10
2.4282940282911536
20
16.825676453330654
30
0
0
ARC
5
178
100
AcDbEntity
8
0
100
AcDbCircle
10
-5.5511151231257827e-16
20
-2.7755575615628914e-16
30
0
40
17.000000000000004
100
AcDbArc
50
81.787733919076842
51
86.212266080923257
0
SPLINE
5
179
100
AcDbEntity
8
0
100
AcDbSpline
70
1064
71
5
72
81
73
75
74
0
42
0.000000001
43
0.0000000001
44
0.0000000001
40
0
40
0
40
0
40
0
40
0
40
0
40
0.014285714285714285
40
0.028571428571428571
40
0.042857142857142858
40
0.057142857142857141
40
0.071428571428571425
40
0.085714285714285715
40
0.10000000000000001
40
0.1142857142857143
40
0.12857142857142859
40
0.14285714285714288
40
0.15714285714285717
40
0.17142857142857146
40
0.18571428571428575
40
0.20000000000000004
40
0.21428571428571433
40
0.22857142857142862
40
0.24285714285714291
40
0.25714285714285717
40
0.27142857142857146
40
0.28571428571428575
40
0.30000000000000004
40
0.31428571428571433
40
0.32857142857142863
40
0.34285714285714292
40
0.35714285714285721
40
0.3714285714285715
40
0.38571428571428579
40
0.40000000000000008
40
0.41428571428571437
40
0.42857142857142866
40
0.44285714285714295
40
0.45714285714285724
40
0.47142857142857153
40
0.48571428571428582
40
0.50000000000000011
40
0.51428571428571435
40
0.52857142857142858
40
0.54285714285714282
40
0.55714285714285705
40
0.57142857142857129
40
0.58571428571428552
40
0.59999999999999976
40
0.61428571428571399
40
0.62857142857142823
40
0.64285714285714246
40
0.6571428571428567
40
0.67142857142857093
40
0.68571428571428517
40
0.6999999999999994
40
0.71428571428571364
40
0.72857142857142787
40
0.74285714285714211
40
0.75714285714285634
40
0.77142857142857058
40
0.78571428571428481
40
0.79999999999999905
40
0.81428571428571328
40
0.82857142857142752
40
0.84285714285714175
40
0.85714285714285599
40
0.87142857142857022
40
0.88571428571428445
40
0.89999999999999869
40
0.91428571428571292
40
0.92857142857142716
40
0.94285714285714139
40
0.95714285714285563
40
0.97142857142856986
40
0.9857142857142841
40
1
40
1
40
1
40
1
40
1
40
1
10
-0.21007531514940586
20
14.093823761238466
30
0
10
-0.21019712110743882
20
14.102435686591871
30
0
10
-0.21019177528248362
20
14.119637662981074
30
0
10
-0.20943689264300375
20
14.145375005887574
30
0
10
-0.20700980623669679
20
14.179569436716911
30
0
10
-0.20203254649584557
20
14.222161865406772
30
0
10
-0.19565106653234243
20
14.264669541204785
30
0
10
-0.18839743441979612
20
14.307155365005968
30
0
10
-0.18066505815125505
20
14.349661932239972
30
0
10
-0.17260352499842091
20
14.392197803944862
30
0
10
-0.16420059377762974
20
14.434749429240391
30
0
10
-0.15534658390195688
20
14.477290676626557
30
0
10
-0.14590231803532083
20
14.519792799716996
30
0
10
-0.13577266216185435
20
14.562235298949471
30
0
10
-0.12495540104605823
20
14.60461302391349
30
0
10
-0.11350363660079327
20
14.646930176690113
30
0
10
-0.10150193012074038
20
14.689196387813393
30
0
10
-0.089038771710724385
20
14.731422257033842
30
0
10
-0.076176634382859598
20
14.773614480076503
30
0
10
-0.062936314061887988
20
14.815773291070526
30
0
10
-0.049313704519882429
20
14.857895134518731
30
0
10
-0.035290087888027177
20
14.899974292291031
30
0
10
-0.020844153816091671
20
14.942004790386218
30
0
10
-0.0059653055394509602
20
14.983982509859953
30
0
10
0.0093407302846287843
20
15.025906068766002
30
0
10
0.025059016350894303
20
15.067775671298364
30
0
10
0.04116963420137093
20
15.109592417454969
30
0
10
0.057652683154815754
20
15.151357490457467
30
0
10
0.074493876889049349
20
15.193071247030316
30
0
10
0.0916864339981599
20
15.234732905781296
30
0
10
0.10922801812491251
20
15.276341034001458
30
0
10
0.12711887661787019
20
15.317893841115747
30
0
10
0.14535966478457923
20
15.359389523189959
30
0
10
0.16394898601101909
20
15.400826652524815
30
0
10
0.18288264894900624
20
15.442204293212749
30
0
10
0.20215494433549752
20
15.483521794123369
30
0
10
0.22175941158646018
20
15.524778663481225
30
0
10
0.24168973735836069
20
15.565974422403865
30
0
10
0.26194077186426912
20
15.607108439765531
30
0
10
0.2825088082870239
20
15.6481798846585
30
0
10
0.30339102873951362
20
15.689187811953593
30
0
10
0.32458515980747449
20
15.730131214384482
30
0
10
0.3460890726675997
20
15.771009083875827
30
0
10
0.36790032784666277
20
15.81182048105293
30
0
10
0.39001603623233794
20
15.852564557057246
30
0
10
0.41243309368127856
20
15.893240518610451
30
0
10
0.43514831962807798
20
15.933847608084747
30
0
10
0.45815861983642403
20
15.974385079387282
30
0
10
0.4814611673843604
20
16.014852172812461
30
0
10
0.50505346037991483
20
16.055248103305999
30
0
10
0.52893321377170277
20
16.095572067615823
30
0
10
0.55309828911312808
20
16.135823246890382
30
0
10
0.57754661344807323
20
16.176000811908022
30
0
10
0.60227608533461041
20
16.216103927041726
30
0
10
0.62728453875682944
20
16.256131757544811
30
0
10
0.65256980360084216
20
16.296083480351818
30
0
10
0.67812974303496809
20
16.335958295543161
30
0
10
0.70396229467846561
20
16.375755436055954
30
0
10
0.73006551666128738
20
16.41547418369413
30
0
10
0.75643760177967945
20
16.455113866835056
30
0
10
0.78307682178497207
20
16.494673819601864
30
0
10
0.80998148278151039
20
16.534153347858258
30
0
10
0.83714987829930909
20
16.573551696517438
30
0
10
0.86458023191303601
20
16.612868008568221
30
0
10
0.89227067172067009
20
16.65210131369361
30
0
10
0.92021932047551935
20
16.691250618056689
30
0
10
0.94842436565735388
20
16.730314979136235
30
0
10
0.97688413442284183
20
16.769293584582496
30
0
10
1.0055971675318967
20
16.808185836009923
30
0
10
1.0345622839068622
20
16.846991414411285
30
0
10
1.0637785723903317
20
16.885710196484183
30
0
10
1.0873520263087375
20
16.916615788629407
30
0
10
1.1051446832750356
20
16.939755952911611
30
0
10
1.1170564675426216
20
16.955165388288616
30
0
10
1.1230248629153032
20
16.962865770773348
30
0
0
LINE
5
180
100
AcDbEntity
8
0
100
AcDbLine
10
-0.21007531514940586
20
14.093823761238466
30
0
11
-0.19513828136576275
21
13.037745536303522
31
0
0
ARC
5
181
100
AcDbEntity
8
0
100
AcDbCircle
10
-0.6950882765991272
20
13.030674308251838
30
0
40
0.50000000000000022
100
AcDbArc
50
-86.946595814437188
51
0.81033006042894784
0
ARC
5
182
100
AcDbEntity
8
0
100
AcDbCircle
10
-5.5511151231257827e-16
20
-2.7755575615628914e-16
30
0
40
12.549200000000003
100
AcDbArc
50
93.053404185562826
51
98.946595814436975
0
ARC
5
183
100
AcDbEntity
8
0
100
AcDbCircle
10
-2.0293305978705494
20
12.890439789415503
30
0
40
0.5
100
AcDbArc
50
191.18966993957082
51
278.94659581444256
0
LINE
5
184
100
AcDbEntity
8
0
100
AcDbLine
10
-2.5198256771753256
20
12.793411045335199
30
0
11
-2.7247860627998177
21
13.829517011192291
31
0
0
SPLINE
5
185
100
AcDbEntity
8
0
100
AcDbSpline
70
1064
71
5
72
81
73
75
74
0
42
0.000000001
43
0.0000000001
44
0.0000000001
40
0
40
0
40
0
40
0
40
0
40
0
40
0.014285714285714285
40
0.028571428571428571
40
0.042857142857142858
40
0.057142857142857141
40
0.071428571428571425
40
0.085714285714285715
40
0.10000000000000001
40
0.1142857142857143
40
0.12857142857142859
40
0.14285714285714288
40
0.15714285714285717
40
0.17142857142857146
40
0.18571428571428575
40
0.20000000000000004
40
0.21428571428571433
40
0.22857142857142862
40
0.24285714285714291
40
0.25714285714285717
40
0.27142857142857146
40
0.28571428571428575
40
0.30000000000000004
40
0.31428571428571433
40
0.32857142857142863
40
0.34285714285714292
40
0.35714285714285721
40
0.3714285714285715
40
0.38571428571428579
40
0.40000000000000008
40
0.41428571428571437
40
0.42857142857142866
40
0.44285714285714295
40
0.45714285714285724
40
0.47142857142857153
40
0.48571428571428582
40
0.50000000000000011
40
0.51428571428571435
40
0.52857142857142858
40
0.54285714285714282
40
0.55714285714285705
40
0.57142857142857129
40
0.58571428571428552
40
0.59999999999999976
40
0.61428571428571399
40
0.62857142857142823
40
0.64285714285714246
40
0.6571428571428567
40
0.67142857142857093
40
0.68571428571428517
40
0.6999999999999994
40
0.71428571428571364
40
0.72857142857142787
40
0.74285714285714211
40
0.75714285714285634
40
0.77142857142857058
40
0.78571428571428481
40
0.79999999999999905
40
0.81428571428571328
40
0.82857142857142752
40
0.84285714285714175
40
0.85714285714285599
40
0.87142857142857022
40
0.88571428571428445
40
0.89999999999999869
40
0.91428571428571292
40
0.92857142857142716
40
0.94285714285714139
40
0.95714285714285563
40
0.97142857142856986
40
0.9857142857142841
40
1
40
1
40
1
40
1
40
1
40
1
10
-2.7247860627998177
20
13.829517011192291
30
0
10
-2.7264574385556362
20
13.837966070197112
30
0
10
-2.7300391595579763
20
13.854791030670583
30
0
10
-2.7361286406814656
20
13.879809001957897
30
0
10
-2.7456121113568468
20
13.912751582793575
30
0
10
-2.759336069895534
20
13.953378434237628
30
0
10
-2.7744159419588632
20
13.993630431043094
30
0
10
-2.7903443642686456
20
14.033679722742329
30
0
10
-2.8067453818281694
20
14.073649768073668
30
0
10
-2.8234744561464211
20
14.113580041938539
30
0
10
-2.840540743521407
20
14.153454744490745
30
0
10
-2.8580460947117245
20
14.193225511389979
30
0
10
-2.8761206689849441
20
14.23283528783212
30
0
10
-2.8948532593517893
20
14.272244242745455
30
0
10
-2.9142449618089961
20
14.311446877694969
30
0
10
-2.9342447085096812
20
14.350458343444643
30
0
10
-2.9547717883269584
20
14.389305641360027
30
0
10
-2.9757418486891538
20
14.428017537688948
30
0
10
-2.9970951738888729
20
14.466613570708384
30
0
10
-3.0188114711204128
20
14.505098293147078
30
0
10
-3.0408940176513353
20
14.543467373471195
30
0
10
-3.0633599334540227
20
14.581711326841763
30
0
10
-3.0862288211317273
20
14.619819879132878
30
0
10
-3.109510189507664
20
14.657786798217771
30
0
10
-3.133198149742987
20
14.695611922988043
30
0
10
-3.1572781334027242
20
14.73329855881596
30
0
10
-3.1817308859974238
20
14.770851922942123
30
0
10
-3.2065371877290905
20
14.808277310316246
30
0
10
-3.2316831386331453
20
14.8455780401609
30
0
10
-3.2571619430330898
20
14.882754758092727
30
0
10
-3.2829710177497584
20
14.919806548466886
30
0
10
-3.3091102324450694
20
14.956731608410031
30
0
10
-3.3355798530475154
20
14.993528037162145
30
0
10
-3.362378216627071
20
15.030194728594989
30
0
10
-3.3895010288404444
20
15.066731638683105
30
0
10
-3.4169425698080653
20
15.103139317547399
30
0
10
-3.4446964178792983
20
15.139418627389844
30
0
10
-3.4727562981070523
20
15.175570412410648
30
0
10
-3.5011170420211752
20
15.211595125976574
30
0
10
-3.5297748510519247
20
15.247492726027845
30
0
10
-3.5587267723863758
20
15.2832628739603
30
0
10
-3.5879703728673777
20
15.318905057188202
30
0
10
-3.6175033606008711
20
15.354418732272324
30
0
10
-3.6473231541149911
20
15.38980348756056
30
0
10
-3.677426750943833
20
15.425059093424201
30
0
10
-3.7078109498451917
20
15.460185419307644
30
0
10
-3.7384724822369679
20
15.495182385415802
30
0
10
-3.7694081663779127
20
15.530049905287651
30
0
10
-3.8006150791694209
20
15.564787823569109
30
0
10
-3.8320906101698999
20
15.599395892533796
30
0
10
-3.8638323572563227
20
15.633873801571529
30
0
10
-3.8958380584634722
20
15.668221194332672
30
0
10
-3.9281055137294185
20
15.702437690707862
30
0
10
-3.960632493797156
20
15.736522910244883
30
0
10
-3.9934167064298269
20
15.770476486778309
30
0
10
-4.0264558578108032
20
15.804298066420673
30
0
10
-4.0597476914906734
20
15.83798731100484
30
0
10
-4.0932900306753197
20
15.871543899023157
30
0
10
-4.1270808266078554
20
15.90496753171135
30
0
10
-4.1611181719380683
20
15.938257927862139
30
0
10
-4.195400237740083
20
15.97141479547277
30
0
10
-4.2299252228148774
20
16.004437807756197
30
0
10
-4.264691300991557
20
16.037326580921135
30
0
10
-4.299696556481301
20
16.070080646023751
30
0
10
-4.3349389565473908
20
16.102699443141113
30
0
10
-4.3704164583351659
20
16.135182390455569
30
0
10
-4.4061270929711291
20
16.167528942886374
30
0
10
-4.4420690552705802
20
16.199738653639269
30
0
10
-4.4782407934699791
20
16.231811240797931
30
0
10
-4.5146410859757156
20
16.263746637886062
30
0
10
-4.5512690159053477
20
16.295544913735984
30
0
10
-4.5807529672152825
20
16.320873947879502
30
0
10
-4.6029679226192606
20
16.339809142658723
30
0
10
-4.6178232075848396
20
16.352405245693674
30
0
10
-4.6252621787412025
20
16.358696457172442
30
0
0
ARC
5
186
100
AcDbEntity
8
0
100
AcDbCircle
10
-5.5511151231257827e-16
20
-2.7755575615628914e-16
30
0
40
17
100
AcDbArc
50
105.78773391907684
51
110.2122660809232
0
SPLINE
5
187
100
AcDbEntity
8
0
100
AcDbSpline
70
1064
71
5
72
81
73
75
74
0
42
0.000000001
43
0.0000000001
44
0.0000000001
40
0
40
0
40
0
40
0
40
0
40
0
40
0.014285714285714285
40
0.028571428571428571
40
0.042857142857142858
40
0.057142857142857141
40
0.071428571428571425
40
0.085714285714285715
40
0.10000000000000001
40
0.1142857142857143
40
0.12857142857142859
40
0.14285714285714288
40
0.15714285714285717
40
0.17142857142857146
40
0.18571428571428575
40
0.20000000000000004
40
0.21428571428571433
40
0.22857142857142862
40
0.24285714285714291
40
0.25714285714285717
40
0.27142857142857146
40
0.28571428571428575
40
0.30000000000000004
40
0.31428571428571433
40
0.32857142857142863
40
0.34285714285714292
40
0.35714285714285721
40
0.3714285714285715
40
0.38571428571428579
40
0.40000000000000008
40
0.41428571428571437
40
0.42857142857142866
40
0.44285714285714295
40
0.45714285714285724
40
0.47142857142857153
40
0.48571428571428582
40
0.50000000000000011
40
0.51428571428571435
40
0.52857142857142858
40
0.54285714285714282
40
0.55714285714285705
40
0.57142857142857129
40
0.58571428571428552
40
0.59999999999999976
40
0.61428571428571399
40
0.62857142857142823
40
0.64285714285714246
40
0.6571428571428567
40
0.67142857142857093
40
0.68571428571428517
40
0.6999999999999994
40
0.71428571428571364
40
0.72857142857142787
40
0.74285714285714211
40
0.75714285714285634
40
0.77142857142857058
40
0.78571428571428481
40
0.79999999999999905
40
0.81428571428571328
40
0.82857142857142752
40
0.84285714285714175
40
0.85714285714285599
40
0.87142857142857022
40
0.88571428571428445
40
0.89999999999999869
40
0.91428571428571292
40
0.92857142857142716
40
0.94285714285714139
40
0.95714285714285563
40
0.97142857142856986
40
0.9857142857142841
40
1
40
1
40
1
40
1
40
1
40
1
10
-5.9243879146656555
20
12.789903349417798
30
0
10
-5.9280019755539932
20
12.797721191759486
30
0
10
-5.9349937660307015
20
12.813438153495211
30
0
10
-5.9447724668798321
20
12.837257424629932
30
0
10
-5.9564633411254562
20
12.869482776568102
30
0
10
-5.9692402895634542
20
12.910417330246403
30
0
10
-5.9806999468887962
20
12.951845606124833
30
0
10
-5.9913539655721726
20
12.993608655448172
30
0
10
-6.0015790668206979
20
13.035585377631239
30
0
10
-6.0115153874948399
20
13.077722750946739
30
0
10
-6.0211462330773262
20
13.12001337498752
30
0
10
-6.0303607767275889
20
13.162477988554196
30
0
10
-6.0390201814137532
20
13.205146939038542
30
0
10
-6.04702919996463
20
13.248040193648855
30
0
10
-6.054383713801216
20
13.291153948268477
30
0
10
-6.0611339430751396
20
13.33447044319569
30
0
10
-6.0673610554641444
20
13.377964082184006
30
0
10
-6.0731502020084775
20
13.421608556419169
30
0
10
-6.0785611780413076
20
13.465384572687146
30
0
10
-6.0836130768141272
20
13.509283886410955
30
0
10
-6.0883007009500769
20
13.553304919635639
30
0
10
-6.0926046250520871
20
13.597450061832577
30
0
10
-6.0965029513013054
20
13.641722523180402
30
0
10
-6.0999843237459519
20
13.686122850928701
30
0
10
-6.1030534118595856
20
13.730647453365419
30
0
10
-6.1057239446027536
20
13.77529044148166
30
0
10
-6.1080145658017235
20
13.820044718608798
30
0
10
-6.109943936893055
20
13.864903271337319
30
0
10
-6.1115252541743903
20
13.909860614780508
30
0
10
-6.1127643949474439
20
13.954913276854771
30
0
10
-6.1136629108455303
20
14.000058998433255
30
0
10
-6.114219847612004
20
14.045296244349984
30
0
10
-6.1144338728674903
20
14.090623633166647
30
0
10
-6.1143056817847752
20
14.136039292560953
30
0
10
-6.1138387226830471
20
14.18154066276391
30
0
10
-6.1130379463950391
20
14.227124826771817
30
0
10
-6.1119090549348503
20
14.272788707569186
30
0
10
-6.110457621049747
20
14.318529299806976
30
0
10
-6.1086880926022165
20
14.364343932316059
30
0
10
-6.1066035179776197
20
14.410230338326102
30
0
10
-6.1042060870252604
20
14.456186508280688
30
0
10
-6.1014974669202822
20
14.502210597315351
30
0
10
-6.0984791924183748
20
14.548300818636996
30
0
10
-6.0951531100111058
20
14.594455321860988
30
0
10
-6.0915215137720438
20
14.640672156408609
30
0
10
-6.0875869168218832
20
14.686949335015207
30
0
10
-6.0833519165967136
20
14.733284871900846
30
0
10
-6.0788190363587606
20
14.779676826936504
30
0
10
-6.0739905496296327
20
14.826123356283835
30
0
10
-6.0688684226910361
20
14.872622725148926
30
0
10
-6.063454416329229
20
14.91917327031036
30
0
10
-6.0577501510554557
20
14.965773373925437
30
0
10
-6.0517571833345274
20
15.012421435315266
30
0
10
-6.0454770930490458
20
15.059115836363144
30
0
10
-6.0389115194309451
20
15.105854933492001
30
0
10
-6.0320621102070229
20
15.152637092129273
30
0
10
-6.0249304921135511
20
15.199460712384321
30
0
10
-6.0175182372365068
20
15.246324254664504
30
0
10
-6.0098268274457887
20
15.293226273035369
30
0
10
-6.0018576405306465
20
15.340165418883117
30
0
10
-5.9936119844882789
20
15.3871403809569
30
0
10
-5.9850911244386982
20
15.434149836162231
30
0
10
-5.9762963121983406
20
15.481192400609107
30
0
10
-5.9672288220346461
20
15.528266568841589
30
0
10
-5.9578899693517249
20
15.575370693059842
30
0
10
-5.9482810648698772
20
15.622503101803655
30
0
10
-5.9384033810508017
20
15.669662196818644
30
0
10
-5.928258115700519
20
15.716846555579702
30
0
10
-5.9178463585158525
20
15.764055037908024
30
0
10
-5.9071690587129986
20
15.81128687198844
30
0
10
-5.8962269985240638
20
15.85854157457749
30
0
10
-5.8872620135773746
20
15.896363425409987
30
0
10
-5.8804195653667861
20
15.924739942944971
30
0
10
-5.8758051909736508
20
15.943662121784509
30
0
10
-5.8734848182137629
20
15.953124336323985
30
0
0
LINE
5
188
100
AcDbEntity
8
0
100
AcDbLine
10
-5.9243879146656555
20
12.789903349417798
30
0
11
-5.4811965432664644
21
11.831203323091886
31
0
0
ARC
5
189
100
AcDbEntity
8
0
100
AcDbCircle
10
-5.9350474629001795
20
11.621395452058334
30
0
40
0.49999999999999978
100
AcDbArc
50
-62.94659581443716
51
24.810330060429216
0
ARC
5
190
100
AcDbEntity
8
0
100
AcDbCircle
10
-5.5511151231257827e-16
20
-2.7755575615628914e-16
30
0
40
12.549199999999999
100
AcDbArc
50
117.05340418556283
51
122.94659581443729
0
ARC
5
191
100
AcDbEntity
8
0
100
AcDbCircle
10
-7.0968999574573699
20
10.950599601567104
30
0
40
0.50000000000000033
100
AcDbArc
50
215.18966993957099
51
302.94659581443483
0
LINE
5
192
100
AcDbEntity
8
0
100
AcDbLine
10
-7.5055243635032118
20
10.662457111150152
30
0
11
-8.114187255210668
21
11.525622110682871
31
0
0
SPLINE
5
193
100
AcDbEntity
8
0
100
AcDbSpline
70
1064
71
5
72
81
73
75
74
0
42
0.000000001
43
0.0000000001
44
0.0000000001
40
0
40
0
40
0
40
0
40
0
40
0
40
0.014285714285714285
40
0.028571428571428571
40
0.042857142857142858
40
0.057142857142857141
40
0.071428571428571425
40
0.085714285714285715
40
0.10000000000000001
40
0.1142857142857143
40
0.12857142857142859
40
0.14285714285714288
40
0.15714285714285717
40
0.17142857142857146
40
0.18571428571428575
40
0.20000000000000004
40
0.21428571428571433
40
0.22857142857142862
40
0.24285714285714291
40
0.25714285714285717
40
0.27142857142857146
40
0.28571428571428575
40
0.30000000000000004
40
0.31428571428571433
40
0.32857142857142863
40
0.34285714285714292
40
0.35714285714285721
40
0.3714285714285715
40
0.38571428571428579
40
0.40000000000000008
40
0.41428571428571437
40
0.42857142857142866
40
0.44285714285714295
40
0.45714285714285724
40
0.47142857142857153
40
0.48571428571428582
40
0.50000000000000011
40
0.51428571428571435
40
0.52857142857142858
40
0.54285714285714282
40
0.55714285714285705
40
0.57142857142857129
40
0.58571428571428552
40
0.59999999999999976
40
0.61428571428571399
40
0.62857142857142823
40
0.64285714285714246
40
0.6571428571428567
40
0.67142857142857093
40
0.68571428571428517
40
0.6999999999999994
40
0.71428571428571364
40
0.72857142857142787
40
0.74285714285714211
40
0.75714285714285634
40
0.77142857142857058
40
0.78571428571428481
40
0.79999999999999905
40
0.81428571428571328
40
0.82857142857142752
40
0.84285714285714175
40
0.85714285714285599
40
0.87142857142857022
40
0.88571428571428445
40
0.89999999999999869
40
0.91428571428571292
40
0.92857142857142716
40
0.94285714285714139
40
0.95714285714285563
40
0.97142857142856986
40
0.9857142857142841
40
1
40
1
40
1
40
1
40
1
40
1
10
-8.114187255210668
20
11.525622110682871
30
0
10
-8.1191506748371793
20
11.532660900393839
30
0
10
-8.1292660677322743
20
11.54657444943247
30
0
10
-8.145004811210006
20
11.566952688351185
30
0
10
-8.1670673475115425
20
11.593189958409431
30
0
10
-8.1961292366705312
20
11.624722397178733
30
0
10
-8.2262773473535695
20
11.655360889480356
30
0
10
-8.2571181996653955
20
11.685469064974223
30
0
10
-8.2883585568192704
20
11.715312623503248
30
0
10
-8.3198824322221689
20
11.744986416284952
30
0
10
-8.3516917641921413
20
11.774472285239703
30
0
10
-8.3838599264776388
20
11.80368462090845
30
0
10
-8.4164826192068212
20
11.832518360590491
30
0
10
-8.4496247580749095
20
11.860901001420087
30
0
10
-8.4832851079097384
20
11.888827074544865
30
0
10
-8.5174231782826411
20
11.916331192041058
30
0
10
-8.5519762183550494
20
11.943470849056316
30
0
10
-8.5868788685053516
20
11.970306634147521
30
0
10
-8.6220845226534859
20
11.996880684985209
30
0
10
-8.6575764941605939
20
12.023205414521723
30
0
10
-8.693356015166037
20
12.049275532719189
30
0
10
-8.7294348677112552
20
12.07507541142596
30
0
10
-8.7658267808019268
20
12.100587691663936
30
0
10
-8.8025379063459894
20
12.125802812515186
30
0
10
-8.8395627990927714
20
12.150723022006403
30
0
10
-8.8768894945306975
20
12.175357265261743
30
0
10
-8.9145025248513239
20
12.19971813997407
30
0
10
-8.9523864855455599
20
12.223818300716751
30
0
10
-8.9905300284133567
20
12.247666433375423
30
0
10
-9.0289272078912575
20
12.271265891800887
30
0
10
-9.0675752917013615
20
12.294616890183574
30
0
10
-9.1064734274792549
20
12.317717834530006
30
0
10
-9.1456210850539534
20
12.340566880246641
30
0
10
-9.1850162953604038
20
12.363163693209621
30
0
10
-9.2246551174140272
20
12.385509979866477
30
0
10
-9.2645325495991564
20
12.407608569262266
30
0
10
-9.3046430761351591
20
12.429462860978314
30
0
10
-9.3449813079397792
20
12.451076178480793
30
0
10
-9.385542707781461
20
12.472451038147057
30
0
10
-9.4263237883868207
20
12.493588946571094
30
0
10
-9.4673217145043083
20
12.514490795439821
30
0
10
-9.5085340548468515
20
12.535157106137042
30
0
10
-9.5499584946284006
20
12.555588314403618
30
0
10
-9.5915925081230604
20
12.575785094155838
30
0
10
-9.6334332590433327
20
12.595748456830334
30
0
10
-9.6754777698071983
20
12.615479585221138
30
0
10
-9.7177230219607367
20
12.634979735883929
30
0
10
-9.760166073671817
20
12.654250123963378
30
0
10
-9.8028041913687876
20
12.673291796467785
30
0
10
-9.8456348895351979
20
12.692105588850096
30
0
10
-9.8886558473859214
20
12.710692194385235
30
0
10
-9.9318648535724527
20
12.729052207555764
30
0
10
-9.9752597436338046
20
12.747186175960294
30
0
10
-10.018838326298507
20
12.765094658758944
30
0
10
-10.062598358571094
20
12.782778253779682
30
0
10
-10.106537601006808
20
12.800237570709488
30
0
10
-10.150653854691569
20
12.817473218397975
30
0
10
-10.194945000256059
20
12.83448578851522
30
0
10
-10.239409044549348
20
12.851275841430976
30
0
10
-10.284044130743013
20
12.867843896038831
30
0
10
-10.328848469261903
20
12.884190429472163
30
0
10
-10.373820281712574
20
12.900315875809799
30
0
10
-10.418957743702915
20
12.916220627211572
30
0
10
-10.464258914336115
20
12.931905034497488
30
0
10
-10.509721708873601
20
12.947369412941006
30
0
10
-10.555344024428218
20
12.962614061929091
30
0
10
-10.60112384064022
20
12.977639284318718
30
0
10
-10.647059326663719
20
12.992445406177769
30
0
10
-10.693148950226487
20
13.007032801121971
30
0
10
-10.739391568308882
20
13.021401905289087
30
0
10
-10.785786371293746
20
13.035553154490254
30
0
10
-10.823023547406178
20
13.046700175198128
30
0
10
-10.851019556567705
20
13.054962699991169
30
0
10
-10.869713831334266
20
13.060427623963911
30
0
10
-10.879068535881451
20
13.063149229477336
30
0
0
ARC
5
194
100
AcDbEntity
8
0
100
AcDbCircle
10
-5.5511151231257827e-16
20
-2.7755575615628914e-16
30
0
40
17.000000000000004
100
AcDbArc
50
129.78773391907683
51
134.21226608092317
0
SPLINE
5
195
100
AcDbEntity
8
0
100
AcDbSpline
70
1064
71
5
72
81
73
75
74
0
42
0.000000001
43
0.0000000001
44
0.0000000001
40
0
40
0
40
0
40
0
40
0
40
0
40
0.014285714285714285
40
0.028571428571428571
40
0.042857142857142858
40
0.057142857142857141
40
0.071428571428571425
40
0.085714285714285715
40
0.10000000000000001
40
0.1142857142857143
40
0.12857142857142859
40
0.14285714285714288
40
0.15714285714285717
40
0.17142857142857146
40
0.18571428571428575
40
0.20000000000000004
40
0.21428571428571433
40
0.22857142857142862
40
0.24285714285714291
40
0.25714285714285717
40
0.27142857142857146
40
0.28571428571428575
40
0.30000000000000004
40
0.31428571428571433
40
0.32857142857142863
40
0.34285714285714292
40
0.35714285714285721
40
0.3714285714285715
40
0.38571428571428579
40
0.40000000000000008
40
0.41428571428571437
40
0.42857142857142866
40
0.44285714285714295
40
0.45714285714285724
40
0.47142857142857153
40
0.48571428571428582
40
0.50000000000000011
40
0.51428571428571435
40
0.52857142857142858
40
0.54285714285714282
40
0.55714285714285705
40
0.57142857142857129
40
0.58571428571428552
40
0.59999999999999976
40
0.61428571428571399
40
0.62857142857142823
40
0.64285714285714246
40
0.6571428571428567
40
0.67142857142857093
40
0.68571428571428517
40
0.6999999999999994
40
0.71428571428571364
40
0.72857142857142787
40
0.74285714285714211
40
0.75714285714285634
40
0.77142857142857058
40
0.78571428571428481
40
0.79999999999999905
40
0.81428571428571328
40
0.82857142857142752
40
0.84285714285714175
40
0.85714285714285599
40
0.87142857142857022
40
0.88571428571428445
40
0.89999999999999869
40
0.91428571428571292
40
0.92857142857142716
40
0.94285714285714139
40
0.95714285714285563
40
0.97142857142856986
40
0.9857142857142841
40
1
40
1
40
1
40
1
40
1
40
1
10
-10.61432002236166
20
9.2744924558585691
30
0
10
-10.620801434219999
20
9.2801644392247855
30
0
10
-10.633581416906527
20
9.2916787808388168
30
0
10
-10.65220287503074
20
9.3094614118312808
30
0
10
-10.67599025156297
20
9.3341456287700435
30
0
10
-10.704312157719954
20
9.3663443512270597
30
0
10
-10.731631473474872
20
9.3995299019224525
30
0
10
-10.758350966335096
20
9.4333489661345489
30
0
10
-10.784765532202687
20
9.4675376866546834
30
0
10
-10.810981626590607
20
9.5019906269285208
30
0
10
-10.836980988281674
20
9.5367078166196464
30
0
10
-10.862670807149241
20
9.5717532789022481
30
0
10
-10.887936592649744
20
9.6072112076065146
30
0
10
-10.912699453557869
20
9.6431385841995603
30
0
10
-10.936954080090832
20
9.6795336086248831
30
0
10
-10.960739127118572
20
9.7163596302117696
30
0
10
-10.984118334073038
20
9.7535602517567348
30
0
10
-11.00715878954146
20
9.7910768049137502
30
0
10
-11.029907272021733
20
9.8288673435016953
30
0
10
-11.052377870695466
20
9.8669165697996917
30
0
10
-11.074565195710536
20
9.905225156237778
30
0
10
-11.096452472969251
20
9.9438031867274717
30
0
10
-11.118021003515949
20
9.982662500558213
30
0
10
-11.139260635758927
20
10.021808216549086
30
0
10
-11.16017417459364
20
10.061235154261849
30
0
10
-11.180771766773919
20
10.10093234974785
30
0
10
-11.201067557807393
20
10.1408857367504
30
0
10
-11.221075743154023
20
10.181081317911024
30
0
10
-11.240806147327167
20
10.22150871511858
30
0
10
-11.260262727285486
20
10.2621623659529
30
0
10
-11.279445981646868
20
10.303039575492788
30
0
10
-11.298354414246239
20
10.344139329425472
30
0
10
-11.31698624601289
20
10.385460907671785
30
0
10
-11.33534135047668
20
10.427002317027952
30
0
10
-11.353421836682092
20
10.468759816470868
30
0
10
-11.371231040987587
20
10.510728727499965
30
0
10
-11.388772920907295
20
10.552903919903651
30
0
10
-11.406051345013587
20
10.595280381518437
30
0
10
-11.423069290168675
20
10.637853863001254
30
0
10
-11.439828619232594
20
10.680621053664321
30
0
10
-11.456330515372002
20
10.723579226994552
30
0
10
-11.472575751253203
20
10.766726019523174
30
0
10
-11.488565002191054
20
10.810059174692094
30
0
10
-11.504299202420306
20
10.853576251055046
30
0
10
-11.519779654309605
20
10.89727453358593
30
0
10
-11.535007845415601
20
10.941151184649867
30
0
10
-11.54998534092476
20
10.985203333674185
30
0
10
-11.564713656830266
20
11.029428181959616
30
0
10
-11.579194120140841
20
11.073823120351477
30
0
10
-11.593427821539946
20
11.118385764277843
30
0
10
-11.607415693092779
20
11.16311387813405
30
0
10
-11.621158557174116
20
11.208005324825947
30
0
10
-11.634657184630559
20
11.25305800898933
30
0
10
-11.647912360609318
20
11.298269809804891
30
0
10
-11.660924914120269
20
11.343638559054568
30
0
10
-11.673695685596186
20
11.389162093291157
30
0
10
-11.686225510400448
20
11.434838289288571
30
0
10
-11.698515198496315
20
11.480665101133988
30
0
10
-11.710565515524783
20
11.526640605169757
30
0
10
-11.722377171628306
20
11.5727630089785
30
0
10
-11.733950828388021
20
11.619030582662567
30
0
10
-11.745287103397558
20
11.665441602944334
30
0
10
-11.75638657736936
20
11.711994296417762
30
0
10
-11.767249802080562
20
11.758686769489152
30
0
10
-11.777877308992046
20
11.805516981795405
30
0
10
-11.788269615662264
20
11.852482873263652
30
0
10
-11.798427234474209
20
11.899582466259064
30
0
10
-11.808350681085036
20
11.946813974048698
30
0
10
-11.81804048722983
20
11.994175911807748
30
0
10
-11.827497206135227
20
12.041667188366967
30
0
10
-11.836721355852989
20
12.089287044099027
30
0
10
-11.84391496721963
20
12.127485412009131
30
0
10
-11.849205849222052
20
12.156191725122525
30
0
10
-11.852686751956217
20
12.175354830800647
30
0
10
-11.854415615339231
20
12.184942774539465
30
0
0
LINE
5
196
100
AcDbEntity
8
0
100
AcDbLine
10
-10.61432002236166
20
9.2744924558585691
30
0
11
-9.8195061277290527
21
8.578938572209756
31
0
0
ARC
5
197
100
AcDbEntity
8
0
100
AcDbCircle
10
-10.148783024652282
20
8.2026717451407087
30
0
40
0.50000000000000056
100
AcDbArc
50
-38.94659581443738
51
48.810330060429187
0
ARC
5
198
100
AcDbEntity
8
0
100
AcDbCircle
10
-5.5511151231257827e-16
20
-2.7755575615628914e-16
30
0
40
12.549200000000001
100
AcDbArc
50
141.05340418556284
51
146.94659581443696
0
ARC
5
199
100
AcDbEntity
8
0
100
AcDbCircle
10
-10.937350841087747
20
7.1173012595335008
30
0
40
0.50000000000000067
100
AcDbArc
50
239.18966993957073
51
326.94659581444279
0
LINE
5
200
100
AcDbEntity
8
0
100
AcDbLine
10
-11.193449701833142
20
6.6878674770653399
30
0
11
-12.100571756118558
21
7.2288424402466358
31
0
0
SPLINE
5
201
100
AcDbEntity
8
0
100
AcDbSpline
70
1064
71
5
72
81
73
75
74
0
42
0.000000001
43
0.0000000001
44
0.0000000001
40
0
40
0
40
0
40
0
40
0
40
0
40
0.014285714285714285
40
0.028571428571428571
40
0.042857142857142858
40
0.057142857142857141
40
0.071428571428571425
40
0.085714285714285715
40
0.10000000000000001
40
0.1142857142857143
40
0.12857142857142859
40
0.14285714285714288
40
0.15714285714285717
40
0.17142857142857146
40
0.18571428571428575
40
0.20000000000000004
40
0.21428571428571433
40
0.22857142857142862
40
0.24285714285714291
40
0.25714285714285717
40
0.27142857142857146
40
0.28571428571428575
40
0.30000000000000004
40
0.31428571428571433
40
0.32857142857142863
40
0.34285714285714292
40
0.35714285714285721
40
0.3714285714285715
40
0.38571428571428579
40
0.40000000000000008
40
0.41428571428571437
40
0.42857142857142866
40
0.44285714285714295
40
0.45714285714285724
40
0.47142857142857153
40
0.48571428571428582
40
0.50000000000000011
40
0.51428571428571435
40
0.52857142857142858
40
0.54285714285714282
40
0.55714285714285705
40
0.57142857142857129
40
0.58571428571428552
40
0.59999999999999976
40
0.61428571428571399
40
0.62857142857142823
40
0.64285714285714246
40
0.6571428571428567
40
0.67142857142857093
40
0.68571428571428517
40
0.6999999999999994
40
0.71428571428571364
40
0.72857142857142787
40
0.74285714285714211
40
0.75714285714285634
40
0.77142857142857058
40
0.78571428571428481
40
0.79999999999999905
40
0.81428571428571328
40
0.82857142857142752
40
0.84285714285714175
40
0.85714285714285599
40
0.87142857142857022
40
0.88571428571428445
40
0.89999999999999869
40
0.91428571428571292
40
0.92857142857142716
40
0.94285714285714139
40
0.95714285714285563
40
0.97142857142856986
40
0.9857142857142841
40
1
40
1
40
1
40
1
40
1
40
1
10
-12.100571756118558
20
7.2288424402466358
30
0
10
-12.107968999271089
20
7.2332538899773287
30
0
10
-12.122869020731915
20
7.2418502485517147
30
0
10
-12.145535654834594
20
7.2540651724622984
30
0
10
-12.176362443803903
20
7.269060469391925
30
0
10
-12.215737198928629
20
7.2860462503600454
30
0
10
-12.255740666007288
20
7.3017735644969175
30
0
10
-12.296161284776097
20
7.316734646718337
30
0
10
-12.336839239962686
20
7.3312914960551616
30
0
10
-12.377707152007652
20
7.3455779394038014
30
0
10
-12.418759406096292
20
7.3595766001481078
30
0
10
-12.460028211979228
20
7.3731794263635013
30
0
10
-12.501558263223638
20
7.3862515137481175
30
0
10
-12.543379373695796
20
7.3987002240463386
30
0
10
-12.585488190627125
20
7.410521063602701
30
0
10
-12.627861802170139
20
7.4217621210632556
30
0
10
-12.670466267964645
20
7.4325014439244077
30
0
10
-12.713266522611441
20
7.4428209667401681
30
0
10
-12.756237128272456
20
7.4527781405886016
30
0
10
-12.799367889747115
20
7.4623910923334087
30
0
10
-12.842657780998492
20
7.4716544881282987
30
0
10
-12.886111208915088
20
7.4805492587583284
30
0
10
-12.929733655035198
20
7.4890539619182306
30
0
10
-12.97352685063071
20
7.4971573610684725
30
0
10
-13.01748673557244
20
7.5048637246666097
30
0
10
-13.061606018044959
20
7.5121860908954545
30
0
10
-13.105875691445421
20
7.5191422596445809
30
0
10
-13.150286830133219
20
7.5257500570203231
30
0
10
-13.194832599879705
20
7.5320220337028481
30
0
10
-13.239508933276408
20
7.5379636718658327
30
0
10
-13.284313421382361
20
7.5435762784995237
30
0
10
-13.329244637188371
20
7.548858744106254
30
0
10
-13.374301346095352
20
7.5538095992059384
30
0
10
-13.41948161337246
20
7.5584293394521618
30
0
10
-13.46478253282587
20
7.5627211267051395
30
0
10
-13.510200685928599
20
7.5666895797665106
30
0
10
-13.5557324164986
20
7.5703400477784442
30
0
10
-13.601374153139735
20
7.5736777588155988
30
0
10
-13.647122774387601
20
7.5767068571614002
30
0
10
-13.692975707246422
20
7.5794301375598145
30
0
10
-13.738930724266766
20
7.5818495678080788
30
0
10
-13.784985816423266
20
7.5839666131075321
30
0
10
-13.831139046285417
20
7.5857826130355699
30
0
10
-13.877388380594253
20
7.5872992105506265
30
0
10
-13.923731639660552
20
7.5885184832681016
30
0
10
-13.970166584413462
20
7.5894427228158277
30
0
10
-14.016690968445349
20
7.5900743048303436
30
0
10
-14.063302598502698
20
7.5904155359524763
30
0
10
-14.109999403200192
20
7.5904684845156574
30
0
10
-14.156779451714883
20
7.5902349246947516
30
0
10
-14.203640905884381
20
7.5897164337762666
30
0
10
-14.250581987339142
20
7.5889144542835076
30
0
10
-14.297600941474094
20
7.587830366838304
30
0
10
-14.344695993894039
20
7.5864655735292397
30
0
10
-14.391865338679199
20
7.5848215328077826
30
0
10
-14.43910717797703
20
7.5828997125149549
30
0
10
-14.486419750621005
20
7.5807015632414814
30
0
10
-14.533801361124812
20
7.5782284875300343
30
0
10
-14.581250416577383
20
7.5754818079913733
30
0
10
-14.628765431734587
20
7.5724627538985434
30
0
10
-14.676344965805804
20
7.569172489020362
30
0
10
-14.723987570703535
20
7.5656121332453496
30
0
10
-14.771691739268441
20
7.5617827868764609
30
0
10
-14.819455841094399
20
7.5576855598375747
30
0
10
-14.867278099911228
20
7.553321588084895
30
0
10
-14.915156716407569
20
7.5486920004432871
30
0
10
-14.963089968075982
20
7.5437978953407034
30
0
10
-15.011076314979277
20
7.538640315327088
30
0
10
-15.059114509280324
20
7.5332202249486553
30
0
10
-15.107203684171939
20
7.5275384875450468
30
0
10
-15.155343277292397
20
7.5215958305505151
30
0
10
-15.193895032168365
20
7.5166334166748463
30
0
10
-15.222831330767647
20
7.512794605882311
30
0
10
-15.242132185395899
20
7.5101834157906842
30
0
10
-15.251785109932879
20
7.5088648250204804
30
0
0
ARC
5
202
100
AcDbEntity
8
0
100
AcDbCircle
10
-5.5511151231257827e-16
20
-2.7755575615628914e-16
30
0
40
17.000000000000004
100
AcDbArc
50
153.78773391907683
51
158.21226608092311
0
SPLINE
5
203
100
AcDbEntity
8
0
100
AcDbSpline
70
1064
71
5
72
81
73
75
74
0
42
0.000000001
43
0.0000000001
44
0.0000000001
40
0
40
0
40
0
40
0
40
0
40
0
40
0.014285714285714285
40
0.028571428571428571
40
0.042857142857142858
40
0.057142857142857141
40
0.071428571428571425
40
0.085714285714285715
40
0.10000000000000001
40
0.1142857142857143
40
0.12857142857142859
40
0.14285714285714288
40
0.15714285714285717
40
0.17142857142857146
40
0.18571428571428575
40
0.20000000000000004
40
0.21428571428571433
40
0.22857142857142862
40
0.24285714285714291
40
0.25714285714285717
40
0.27142857142857146
40
0.28571428571428575
40
0.30000000000000004
40
0.31428571428571433
40
0.32857142857142863
40
0.34285714285714292
40
0.35714285714285721
40
0.3714285714285715
40
0.38571428571428579
40
0.40000000000000008
40
0.41428571428571437
40
0.42857142857142866
40
0.44285714285714295
40
0.45714285714285724
40
0.47142857142857153
40
0.48571428571428582
40
0.50000000000000011
40
0.51428571428571435
40
0.52857142857142858
40
0.54285714285714282
40
0.55714285714285705
40
0.57142857142857129
40
0.58571428571428552
40
0.59999999999999976
40
0.61428571428571399
40
0.62857142857142823
40
0.64285714285714246
40
0.6571428571428567
40
0.67142857142857093
40
0.68571428571428517
40
0.6999999999999994
40
0.71428571428571364
40
0.72857142857142787
40
0.74285714285714211
40
0.75714285714285634
40
0.77142857142857058
40
0.78571428571428481
40
0.79999999999999905
40
0.81428571428571328
40
0.82857142857142752
40
0.84285714285714175
40
0.85714285714285599
40
0.87142857142857022
40
0.88571428571428445
40
0.89999999999999869
40
0.91428571428571292
40
0.92857142857142716
40
0.94285714285714139
40
0.95714285714285563
40
0.97142857142856986
40
0.9857142857142841
40
1
40
1
40
1
40
1
40
1
40
1
10
-13.468939770121152
20
4.1554375605625324
30
0
10
-13.477167837957406
20
4.1579829475009138
30
0
10
-13.493526237744753
20
4.1633037347236721
30
0
10
-13.517770633863744
20
4.1719749471251504
30
0
10
-13.54954145917862
20
4.1848499037067235
30
0
10
-13.588511208183611
20
4.202745343313425
30
0
10
-13.626966424485886
20
4.2219500856292882
30
0
10
-13.665131348468449
20
4.2419775412913179
30
0
10
-13.703168060547807
20
4.2624667197758086
30
0
10
-13.741130927764091
20
4.2832780006395046
30
0
10
-13.779003279730567
20
4.3044188384876119
30
0
10
-13.81672637074856
20
4.3259854706794458
30
0
10
-13.854229853217909
20
4.3481013796054944
30
0
10
-13.891464832868737
20
4.370850708378363
30
0
10
-13.928425726824161
20
4.3942339722478376
30
0
10
-13.965132940894257
20
4.4182019668081196
30
0
10
-14.001621765138328
20
4.4426772454875705
30
0
10
-14.037929625464381
20
4.4675789246984063
30
0
10
-14.074082195107781
20
4.4928496581681951
30
0
10
-14.110086123032758
20
4.5184697401470864
30
0
10
-14.145936758866322
20
4.5444419771808509
30
0
10
-14.181622880204042
20
4.5707824040212275
30
0
10
-14.217132220172747
20
4.5975094419477696
30
0
10
-14.252457586843247
20
4.6246318962587232
30
0
10
-14.287599435540974
20
4.6521438935345092
30
0
10
-14.322562576347146
20
4.6800312906530479
30
0
10
-14.357354210563965
20
4.7082754839531384
30
0
10
-14.391981613150806
20
4.7368579123978058
30
0
10
-14.426449538089125
20
4.7657650991211682
30
0
10
-14.460759337800436
20
4.7949903531594673
30
0
10
-14.494910371671637
20
4.8245310097735157
30
0
10
-14.528900860329756
20
4.8543867508876568
30
0
10
-14.562728885630241
20
4.8845576422900772
30
0
10
-14.596393521327855
20
4.9150419145385698
30
0
10
-14.629895172519431
20
4.9458352922127915
30
0
10
-14.663234984202465
20
4.9769321442705632
30
0
10
-14.696414485100979
20
5.0083261743643694
30
0
10
-14.729435170701136
20
5.0400112301648905
30
0
10
-14.762298032138343
20
5.0719822189051209
30
0
10
-14.795003424641905
20
5.1042353584278395
30
0
10
-14.82755132011556
20
5.1367676767021671
30
0
10
-14.85994146311574
20
5.1695767003202429
30
0
10
-14.89217355274841
20
5.202660093138376
30
0
10
-14.924247449453823
20
5.2360152447969099
30
0
10
-14.956163238704338
20
5.2696391452750282
30
0
10
-14.987921125280486
20
5.3035285972204891
30
0
10
-15.019521371484165
20
5.337680341615969
30
0
10
-15.050964223910523
20
5.372091205112496
30
0
10
-15.08224983360352
20
5.4067582643855765
30
0
10
-15.113378227059307
20
5.4416788973994361
30
0
10
-15.144349346459471
20
5.4768506827225218
30
0
10
-15.175163073846253
20
5.512271333532218
30
0
10
-15.205819261161665
20
5.5479386220865212
30
0
10
-15.236317763058448
20
5.5838502915724391
30
0
10
-15.266658454981069
20
5.6200040240355174
30
0
10
-15.296841224749819
20
5.6563975012335881
30
0
10
-15.326865971913273
20
5.6930284437302081
30
0
10
-15.356732604261969
20
5.7298946530492678
30
0
10
-15.386441038821703
20
5.7669940604278143
30
0
10
-15.415991195298071
20
5.8043247395701369
30
0
10
-15.445382974462742
20
5.8418848410468049
30
0
10
-15.47461623959542
20
5.879672539367407
30
0
10
-15.503690799894102
20
5.9176859782478886
30
0
10
-15.532606389238337
20
5.9559232033763454
30
0
10
-15.561362663251357
20
5.9943821346237156
30
0
10
-15.589959256839222
20
6.0330606795098092
30
0
10
-15.618395833710533
20
6.0719568229703711
30
0
10
-15.646672138211775
20
6.1110687230069711
30
0
10
-15.674788052174469
20
6.1503948068885155
30
0
10
-15.702743637177779
20
6.1899338527647441
30
0
10
-15.730539057517266
20
6.2296849559709324
30
0
10
-15.752647424440038
20
6.2616549961257109
30
0
10
-15.769156795091101
20
6.2857275224915421
30
0
10
-15.780131095246816
20
6.3018180799451482
30
0
10
-15.785610258587582
20
6.3098739103071333
30
0
0
LINE
5
204
100
AcDbEntity
8
0
100
AcDbLine
10
-13.468939770121152
20
4.1554375605625324
30
0
11
-12.459933895294654
21
3.8432974049823594
31
0
0
ARC
5
205
100
AcDbEntity
8
0
100
AcDbCircle
10
-12.607701802642675
20
3.3656315745548655
30
0
40
0.49999999999999933
100
AcDbArc
50
-14.946595814437138
51
72.810330060429166
0
ARC
5
206
100
AcDbEntity
8
0
100
AcDbCircle
10
-5.5511151231257827e-16
20
-2.7755575615628914e-16
30
0
40
12.549200000000001
100
AcDbArc
50
165.05340418556287
51
170.9465958144371
0
ARC
5
207
100
AcDbEntity
8
0
100
AcDbCircle
10
-12.886634401581013
20
2.0533568710744836
30
0
40
0.50000000000000022
100
AcDbArc
50
263.18966993957093
51
350.94659581443915
0
LINE
5
208
100
AcDbEntity
8
0
100
AcDbLine
10
-12.945925897417968
20
1.5568847988272965
30
0
11
-13.994657470150251
21
1.6821302399198657
31
0
0
SPLINE
5
209
100
AcDbEntity
8
0
100
AcDbSpline
70
1064
71
5
72
81
73
75
74
0
42
0.000000001
43
0.0000000001
44
0.0000000001
40
0
40
0
40
0
40
0
40
0
40
0
40
0.014285714285714285
40
0.028571428571428571
40
0.042857142857142858
40
0.057142857142857141
40
0.071428571428571425
40
0.085714285714285715
40
0.10000000000000001
40
0.1142857142857143
40
0.12857142857142859
40
0.14285714285714288
40
0.15714285714285717
40
0.17142857142857146
40
0.18571428571428575
40
0.20000000000000004
40
0.21428571428571433
40
0.22857142857142862
40
0.24285714285714291
40
0.25714285714285717
40
0.27142857142857146
40
0.28571428571428575
40
0.30000000000000004
40
0.31428571428571433
40
0.32857142857142863
40
0.34285714285714292
40
0.35714285714285721
40
0.3714285714285715
40
0.38571428571428579
40
0.40000000000000008
40
0.41428571428571437
40
0.42857142857142866
40
0.44285714285714295
40
0.45714285714285724
40
0.47142857142857153
40
0.48571428571428582
40
0.50000000000000011
40
0.51428571428571435
40
0.52857142857142858
40
0.54285714285714282
40
0.55714285714285705
40
0.57142857142857129
40
0.58571428571428552
40
0.59999999999999976
40
0.61428571428571399
40
0.62857142857142823
40
0.64285714285714246
40
0.6571428571428567
40
0.67142857142857093
40
0.68571428571428517
40
0.6999999999999994
40
0.71428571428571364
40
0.72857142857142787
40
0.74285714285714211
40
0.75714285714285634
40
0.77142857142857058
40
0.78571428571428481
40
0.79999999999999905
40
0.81428571428571328
40
0.82857142857142752
40
0.84285714285714175
40
0.85714285714285599
40
0.87142857142857022
40
0.88571428571428445
40
0.89999999999999869
40
0.91428571428571292
40
0.92857142857142716
40
0.94285714285714139
40
0.95714285714285563
40
0.97142857142856986
40
0.9857142857142841
40
1
40
1
40
1
40
1
40
1
40
1
10
-13.994657470150251
20
1.6821302399198657
30
0
10
-14.003209486285881
20
1.6831515699350832
30
0
10
-14.020317787239417
20
1.6849443495522463
30
0
10
-14.045993045010785
20
1.6868838871414591
30
0
10
-14.080253854782486
20
1.6880443878753386
30
0
10
-14.12313322300346
20
1.6875465152019156
30
0
10
-14.166075083599758
20
1.6856432556816037
30
0
10
-14.209086376630626
20
1.6828703375973277
30
0
10
-14.252168341850544
20
1.6796234662467913
30
0
10
-14.29531385727168
20
1.6760523043191224
30
0
10
-14.338510725799043
20
1.6721432612364548
30
0
10
-14.381744423826925
20
1.6677845257680564
30
0
10
-14.425000910437733
20
1.6628346781902636
30
0
10
-14.468269742580464
20
1.6571969628535643
30
0
10
-14.511546029614276
20
1.650868638293258
30
0
10
-14.554828399939437
20
1.6439029547614445
30
0
10
-14.59811759227075
20
1.6363850169821117
30
0
10
-14.641414898557503
20
1.6284039382776618
30
0
10
-14.684720447636908
20
1.6200225493203617
30
0
10
-14.728032298589483
20
1.611261556585863
30
0
10
-14.771347344613115
20
1.6021165046899273
30
0
10
-14.814661855452309
20
1.5925681805948322
30
0
10
-14.85797211737021
20
1.5825947662375095
30
0
10
-14.901275141650016
20
1.572185292356598
30
0
10
-14.944568955317255
20
1.56134530978542
30
0
10
-14.987852200073766
20
1.5500896953451919
30
0
10
-15.031123887845768
20
1.5384383733595854
30
0
10
-15.074383115185475
20
1.5264112591721699
30
0
10
-15.117628743535869
20
1.5140225981310169
30
0
10
-15.160859286935338
20
1.5012790528150584
30
0
10
-15.204073076307626
20
1.488182797023855
30
0
10
-15.247268356741611
20
1.474733397597787
30
0
10
-15.290443402683511
20
1.4609300142566806
30
0
10
-15.333596648269221
20
1.4467738867285476
30
0
10
-15.376726724602989
20
1.4322690855719475
30
0
10
-15.419832387340888
20
1.4174212207123238
30
0
10
-15.462912472086551
20
1.4022366659374221
30
0
10
-15.505965842656789
20
1.3867216499487727
30
0
10
-15.548991333083906
20
1.3708812283516283
30
0
10
-15.59198772954408
20
1.3547190008033108
30
0
10
-15.634953797536236
20
1.3382376709613504
30
0
10
-15.677888297675455
20
1.3214393944980078
30
0
10
-15.720790004886116
20
1.3043261832021087
30
0
10
-15.76365772994512
20
1.2869003649917938
30
0
10
-15.806490326649591
20
1.2691647244226514
30
0
10
-15.849286681595537
20
1.2511222657130427
30
0
10
-15.892045708845897
20
1.2327760728112334
30
0
10
-15.934766342959236
20
1.2141291450150464
30
0
10
-15.977447532897898
20
1.195184214349406
30
0
10
-16.020088236389281
20
1.1759436869401398
30
0
10
-16.062687415728703
20
1.1564097513581775
30
0
10
-16.105244033021833
20
1.1365844487421866
30
0
10
-16.147757046906658
20
1.1164697540151489
30
0
10
-16.190225406673321
20
1.0960676697602652
30
0
10
-16.232648055737656
20
1.0753802628729967
30
0
10
-16.275023948704369
20
1.054409605545352
30
0
10
-16.317352066676186
20
1.0331577392888596
30
0
10
-16.359631431214787
20
1.0116266350064187
30
0
10
-16.401861125077755
20
0.98981814885837793
30
0
10
-16.444040291417458
20
0.96773400794475917
30
0
10
-16.486168087353583
20
0.94537586144361829
30
0
10
-16.528243645492083
20
0.92274532141427335
30
0
10
-16.570266036507913
20
0.89984400605042436
30
0
10
-16.612234222397682
20
0.87667359246389842
30
0
10
-16.654147042492841
20
0.85323584087649718
30
0
10
-16.696003312175115
20
0.82953251436691255
30
0
10
-16.737801904626547
20
0.8055653170059045
30
0
10
-16.77954183708778
20
0.78133582755912201
30
0
10
-16.821222361919165
20
0.75684543472446086
30
0
10
-16.862843038404797
20
0.73209527976417466
30
0
10
-16.904403648675846
20
0.70708625595564356
30
0
10
-16.937604033665597
20
0.68687245393765095
30
0
10
-16.962477272796804
20
0.6715960728200705
30
0
10
-16.979047414178762
20
0.66136026715283336
30
0
10
-16.987329480359023
20
0.65622947642218921
30
0
0
ARC
5
210
100
AcDbEntity
8
0
100
AcDbCircle
10
-5.5511151231257827e-16
20
-2.7755575615628914e-16
30
0
40
17
100
AcDbArc
50
177.78773391907683
51
182.212266080923
0
SPLINE
5
211
100
AcDbEntity
8
0
100
AcDbSpline
70
1064
71
5
72
81
73
75
74
0
42
0.000000001
43
0.0000000001
44
0.0000000001
40
0
40
0
40
0
40
0
40
0
40
0
40
0.014285714285714285
40
0.028571428571428571
40
0.042857142857142858
40
0.057142857142857141
40
0.071428571428571425
40
0.085714285714285715
40
0.10000000000000001
40
0.1142857142857143
40
0.12857142857142859
40
0.14285714285714288
40
0.15714285714285717
40
0.17142857142857146
40
0.18571428571428575
40
0.20000000000000004
40
0.21428571428571433
40
0.22857142857142862
40
0.24285714285714291
40
0.25714285714285717
40
0.27142857142857146
40
0.28571428571428575
40
0.30000000000000004
40
0.31428571428571433
40
0.32857142857142863
40
0.34285714285714292
40
0.35714285714285721
40
0.3714285714285715
40
0.38571428571428579
40
0.40000000000000008
40
0.41428571428571437
40
0.42857142857142866
40
0.44285714285714295
40
0.45714285714285724
40
0.47142857142857153
40
0.48571428571428582
40
0.50000000000000011
40
0.51428571428571435
40
0.52857142857142858
40
0.54285714285714282
40
0.55714285714285705
40
0.57142857142857129
40
0.58571428571428552
40
0.59999999999999976
40
0.61428571428571399
40
0.62857142857142823
40
0.64285714285714246
40
0.6571428571428567
40
0.67142857142857093
40
0.68571428571428517
40
0.6999999999999994
40
0.71428571428571364
40
0.72857142857142787
40
0.74285714285714211
40
0.75714285714285634
40
0.77142857142857058
40
0.78571428571428481
40
0.79999999999999905
40
0.81428571428571328
40
0.82857142857142752
40
0.84285714285714175
40
0.85714285714285599
40
0.87142857142857022
40
0.88571428571428445
40
0.89999999999999869
40
0.91428571428571292
40
0.92857142857142716
40
0.94285714285714139
40
0.95714285714285563
40
0.97142857142856986
40
0.9857142857142841
40
1
40
1
40
1
40
1
40
1
40
1
10
-13.994657470150251
20
-1.6821302399198657
30
0
10
-14.003209486285881
20
-1.6831515699350832
30
0
10
-14.020317787239417
20
-1.6849443495522463
30
0
10
-14.045993045010785
20
-1.6868838871414591
30
0
10
-14.080253854782486
20
-1.6880443878753386
30
0
10
-14.12313322300346
20
-1.6875465152019156
30
0
10
-14.166075083599758
20
-1.6856432556816037
30
0
10
-14.209086376630626
20
-1.6828703375973277
30
0
10
-14.252168341850544
20
-1.6796234662467913
30
0
10
-14.29531385727168
20
-1.6760523043191224
30
0
10
-14.338510725799043
20
-1.6721432612364548
30
0
10
-14.381744423826925
20
-1.6677845257680564
30
0
10
-14.425000910437733
20
-1.6628346781902636
30
0
10
-14.468269742580464
20
-1.6571969628535643
30
0
10
-14.511546029614276
20
-1.650868638293258
30
0
10
-14.554828399939437
20
-1.6439029547614445
30
0
10
-14.59811759227075
20
-1.6363850169821117
30
0
10
-14.641414898557503
20
-1.6284039382776618
30
0
10
-14.684720447636908
20
-1.6200225493203617
30
0
10
-14.728032298589483
20
-1.611261556585863
30
0
10
-14.771347344613115
20
-1.6021165046899273
30
0
10
-14.814661855452309
20
-1.5925681805948322
30
0
10
-14.85797211737021
20
-1.5825947662375095
30
0
10
-14.901275141650016
20
-1.572185292356598
30
0
10
-14.944568955317255
20
-1.56134530978542
30
0
10
-14.987852200073766
20
-1.5500896953451919
30
0
10
-15.031123887845768
20
-1.5384383733595854
30
0
10
-15.074383115185475
20
-1.5264112591721699
30
0
10
-15.117628743535869
20
-1.5140225981310169
30
0
10
-15.160859286935338
20
-1.5012790528150584
30
0
10
-15.204073076307626
20
-1.488182797023855
30
0
10
-15.247268356741611
20
-1.474733397597787
30
0
10
-15.290443402683511
20
-1.4609300142566806
30
0
10
-15.333596648269221
20
-1.4467738867285476
30
0
10
-15.376726724602989
20
-1.4322690855719475
30
0
10
-15.419832387340888
20
-1.4174212207123238
30
0
10
-15.462912472086551
20
-1.4022366659374221
30
0
10
-15.505965842656789
20
-1.3867216499487727
30
0
10
-15.548991333083906
20
-1.3708812283516283
30
0
10
-15.59198772954408
20
-1.3547190008033108
30
0
10
-15.634953797536236
20
-1.3382376709613504
30
0
10
-15.677888297675455
20
-1.3214393944980078
30
0
10
-15.720790004886116
20
-1.3043261832021087
30
0
10
-15.76365772994512
20
-1.2869003649917938
30
0
10
-15.806490326649591
20
-1.2691647244226514
30
0
10
-15.849286681595537
20
-1.2511222657130427
30
0
10
-15.892045708845897
20
-1.2327760728112334
30
0
10
-15.934766342959236
20
-1.2141291450150464
30
0
10
-15.977447532897898
20
-1.195184214349406
30
0
10
-16.020088236389281
20
-1.1759436869401398
30
0
10
-16.062687415728703
20
-1.1564097513581775
30
0
10
-16.105244033021833
20
-1.1365844487421866
30
0
10
-16.147757046906658
20
-1.1164697540151489
30
0
10
-16.190225406673321
20
-1.0960676697602652
30
0
10
-16.232648055737656
20
-1.0753802628729967
30
0
10
-16.275023948704369
20
-1.054409605545352
30
0
10
-16.317352066676186
20
-1.0331577392888596
30
0
10
-16.359631431214787
20
-1.0116266350064187
30
0
10
-16.401861125077755
20
-0.98981814885837793
30
0
10
-16.444040291417458
20
-0.96773400794475917
30
0
10
-16.486168087353583
20
-0.94537586144361829
30
0
10
-16.528243645492083
20
-0.92274532141427335
30
0
10
-16.570266036507913
20
-0.89984400605042436
30
0
10
-16.612234222397682
20
-0.87667359246389842
30
0
10
-16.654147042492841
20
-0.85323584087649718
30
0
10
-16.696003312175115
20
-0.82953251436691255
30
0
10
-16.737801904626547
20
-0.8055653170059045
30
0
10
-16.77954183708778
20
-0.78133582755912201
30
0
10
-16.821222361919165
20
-0.75684543472446086
30
0
10
-16.862843038404797
20
-0.73209527976417466
30
0
10
-16.904403648675846
20
-0.70708625595564356
30
0
10
-16.937604033665597
20
-0.68687245393765095
30
0
10
-16.962477272796804
20
-0.6715960728200705
30
0
10
-16.979047414178762
20
-0.66136026715283336
30
0
10
-16.987329480359023
20
-0.65622947642218921
30
0
0
LINE
5
212
100
AcDbEntity
8
0
100
AcDbLine
10
-13.994657470150251
20
-1.6821302399198657
30
0
11
-12.945925897417968
21
-1.5568847988272962
31
0
0
ARC
5
213
100
AcDbEntity
8
0
100
AcDbCircle
10
-12.886634401581013
20
-2.0533568710744836
30
0
40
0.50000000000000056
100
AcDbArc
50
9.0534041855628207
51
96.810330060429067
0
ARC
5
214
100
AcDbEntity
8
0
100
AcDbCircle
10
-5.5511151231257827e-16
20
-2.7755575615628914e-16
30
0
40
12.549199999999999
100
AcDbArc
50
189.05340418556284
51
194.94659581443716
0
ARC
5
215
100
AcDbEntity
8
0
100
AcDbCircle
10
-12.607701802642673
20
-3.365631574554877
30
0
40
0.50000000000000033
100
AcDbArc
50
-72.810330060429152
51
14.946595814438121
0
LINE
5
216
100
AcDbEntity
8
0
100
AcDbLine
10
-12.459933895294652
20
-3.8432974049823709
30
0
11
-13.46893977012115
21
-4.1554375605625431
31
0
0
SPLINE
5
217
100
AcDbEntity
8
0
100
AcDbSpline
70
1064
71
5
72
81
73
75
74
0
42
0.000000001
43
0.0000000001
44
0.0000000001
40
0
40
0
40
0
40
0
40
0
40
0
40
0.014285714285714285
40
0.028571428571428571
40
0.042857142857142858
40
0.057142857142857141
40
0.071428571428571425
40
0.085714285714285715
40
0.10000000000000001
40
0.1142857142857143
40
0.12857142857142859
40
0.14285714285714288
40
0.15714285714285717
40
0.17142857142857146
40
0.18571428571428575
40
0.20000000000000004
40
0.21428571428571433
40
0.22857142857142862
40
0.24285714285714291
40
0.25714285714285717
40
0.27142857142857146
40
0.28571428571428575
40
0.30000000000000004
40
0.31428571428571433
40
0.32857142857142863
40
0.34285714285714292
40
0.35714285714285721
40
0.3714285714285715
40
0.38571428571428579
40
0.40000000000000008
40
0.41428571428571437
40
0.42857142857142866
40
0.44285714285714295
40
0.45714285714285724
40
0.47142857142857153
40
0.48571428571428582
40
0.50000000000000011
40
0.51428571428571435
40
0.52857142857142858
40
0.54285714285714282
40
0.55714285714285705
40
0.57142857142857129
40
0.58571428571428552
40
0.59999999999999976
40
0.61428571428571399
40
0.62857142857142823
40
0.64285714285714246
40
0.6571428571428567
40
0.67142857142857093
40
0.68571428571428517
40
0.6999999999999994
40
0.71428571428571364
40
0.72857142857142787
40
0.74285714285714211
40
0.75714285714285634
40
0.77142857142857058
40
0.78571428571428481
40
0.79999999999999905
40
0.81428571428571328
40
0.82857142857142752
40
0.84285714285714175
40
0.85714285714285599
40
0.87142857142857022
40
0.88571428571428445
40
0.89999999999999869
40
0.91428571428571292
40
0.92857142857142716
40
0.94285714285714139
40
0.95714285714285563
40
0.97142857142856986
40
0.9857142857142841
40
1
40
1
40
1
40
1
40
1
40
1
10
-13.46893977012115
20
-4.1554375605625431
30
0
10
-13.477167837957399
20
-4.1579829475009227
30
0
10
-13.493526237744746
20
-4.1633037347236819
30
0
10
-13.517770633863737
20
-4.171974947125161
30
0
10
-13.549541459178617
20
-4.1848499037067342
30
0
10
-13.588511208183608
20
-4.2027453433134347
30
0
10
-13.626966424485881
20
-4.221950085629298
30
0
10
-13.665131348468442
20
-4.2419775412913276
30
0
10
-13.703168060547799
20
-4.2624667197758184
30
0
10
-13.741130927764084
20
-4.2832780006395135
30
0
10
-13.77900327973056
20
-4.3044188384876207
30
0
10
-13.816726370748553
20
-4.3259854706794556
30
0
10
-13.854229853217905
20
-4.3481013796055059
30
0
10
-13.89146483286873
20
-4.3708507083783736
30
0
10
-13.928425726824155
20
-4.3942339722478465
30
0
10
-13.965132940894252
20
-4.4182019668081303
30
0
10
-14.001621765138321
20
-4.4426772454875803
30
0
10
-14.037929625464374
20
-4.4675789246984179
30
0
10
-14.074082195107778
20
-4.4928496581682067
30
0
10
-14.110086123032755
20
-4.5184697401470961
30
0
10
-14.145936758866318
20
-4.5444419771808615
30
0
10
-14.181622880204037
20
-4.570782404021239
30
0
10
-14.217132220172743
20
-4.5975094419477802
30
0
10
-14.252457586843242
20
-4.6246318962587338
30
0
10
-14.287599435540969
20
-4.6521438935345198
30
0
10
-14.32256257634714
20
-4.6800312906530586
30
0
10
-14.35735421056396
20
-4.7082754839531491
30
0
10
-14.391981613150799
20
-4.7368579123978165
30
0
10
-14.426449538089122
20
-4.7657650991211788
30
0
10
-14.460759337800429
20
-4.794990353159478
30
0
10
-14.494910371671633
20
-4.8245310097735272
30
0
10
-14.528900860329749
20
-4.8543867508876692
30
0
10
-14.562728885630234
20
-4.8845576422900887
30
0
10
-14.596393521327848
20
-4.9150419145385804
30
0
10
-14.629895172519426
20
-4.9458352922128022
30
0
10
-14.663234984202461
20
-4.976932144270573
30
0
10
-14.696414485100973
20
-5.008326174364381
30
0
10
-14.729435170701127
20
-5.0400112301649003
30
0
10
-14.762298032138336
20
-5.0719822189051325
30
0
10
-14.7950034246419
20
-5.1042353584278501
30
0
10
-14.827551320115553
20
-5.1367676767021795
30
0
10
-14.859941463115735
20
-5.1695767003202544
30
0
10
-14.892173552748405
20
-5.2026600931383857
30
0
10
-14.924247449453816
20
-5.2360152447969197
30
0
10
-14.956163238704331
20
-5.2696391452750388
30
0
10
-14.987921125280481
20
-5.3035285972204989
30
0
10
-15.019521371484162
20
-5.3376803416159815
30
0
10
-15.050964223910517
20
-5.3720912051125067
30
0
10
-15.082249833603516
20
-5.406758264385588
30
0
10
-15.1133782270593
20
-5.4416788973994468
30
0
10
-15.144349346459464
20
-5.4768506827225316
30
0
10
-15.175163073846248
20
-5.5122713335322304
30
0
10
-15.205819261161659
20
-5.5479386220865319
30
0
10
-15.236317763058443
20
-5.5838502915724497
30
0
10
-15.266658454981064
20
-5.6200040240355298
30
0
10
-15.296841224749812
20
-5.6563975012335996
30
0
10
-15.326865971913266
20
-5.6930284437302188
30
0
10
-15.356732604261962
20
-5.7298946530492785
30
0
10
-15.386441038821697
20
-5.7669940604278267
30
0
10
-15.415991195298064
20
-5.8043247395701485
30
0
10
-15.445382974462738
20
-5.8418848410468165
30
0
10
-15.474616239595413
20
-5.8796725393674185
30
0
10
-15.503690799894095
20
-5.9176859782478992
30
0
10
-15.532606389238328
20
-5.9559232033763561
30
0
10
-15.56136266325135
20
-5.994382134623728
30
0
10
-15.589959256839217
20
-6.0330606795098207
30
0
10
-15.618395833710522
20
-6.0719568229703835
30
0
10
-15.646672138211768
20
-6.1110687230069827
30
0
10
-15.674788052174462
20
-6.1503948068885261
30
0
10
-15.702743637177772
20
-6.1899338527647565
30
0
10
-15.730539057517259
20
-6.2296849559709431
30
0
10
-15.752647424440035
20
-6.2616549961257215
30
0
10
-15.769156795091092
20
-6.2857275224915545
30
0
10
-15.78013109524681
20
-6.3018180799451606
30
0
10
-15.785610258587573
20
-6.3098739103071448
30
0
0
ARC
5
218
100
AcDbEntity
8
0
100
AcDbCircle
10
-5.5511151231257827e-16
20
-2.7755575615628914e-16
30
0
40
16.999999999999996
100
AcDbArc
50
201.78773391907689
51
206.21226608092323
0
SPLINE
5
219
100
AcDbEntity
8
0
100
AcDbSpline
70
1064
71
5
72
81
73
75
74
0
42
0.000000001
43
0.0000000001
44
0.0000000001
40
0
40
0
40
0
40
0
40
0
40
0
40
0.014285714285714285
40
0.028571428571428571
40
0.042857142857142858
40
0.057142857142857141
40
0.071428571428571425
40
0.085714285714285715
40
0.10000000000000001
40
0.1142857142857143
40
0.12857142857142859
40
0.14285714285714288
40
0.15714285714285717
40
0.17142857142857146
40
0.18571428571428575
40
0.20000000000000004
40
0.21428571428571433
40
0.22857142857142862
40
0.24285714285714291
40
0.25714285714285717
40
0.27142857142857146
40
0.28571428571428575
40
0.30000000000000004
40
0.31428571428571433
40
0.32857142857142863
40
0.34285714285714292
40
0.35714285714285721
40
0.3714285714285715
40
0.38571428571428579
40
0.40000000000000008
40
0.41428571428571437
40
0.42857142857142866
40
0.44285714285714295
40
0.45714285714285724
40
0.47142857142857153
40
0.48571428571428582
40
0.50000000000000011
40
0.51428571428571435
40
0.52857142857142858
40
0.54285714285714282
40
0.55714285714285705
40
0.57142857142857129
40
0.58571428571428552
40
0.59999999999999976
40
0.61428571428571399
40
0.62857142857142823
40
0.64285714285714246
40
0.6571428571428567
40
0.67142857142857093
40
0.68571428571428517
40
0.6999999999999994
40
0.71428571428571364
40
0.72857142857142787
40
0.74285714285714211
40
0.75714285714285634
40
0.77142857142857058
40
0.78571428571428481
40
0.79999999999999905
40
0.81428571428571328
40
0.82857142857142752
40
0.84285714285714175
40
0.85714285714285599
40
0.87142857142857022
40
0.88571428571428445
40
0.89999999999999869
40
0.91428571428571292
40
0.92857142857142716
40
0.94285714285714139
40
0.95714285714285563
40
0.97142857142856986
40
0.9857142857142841
40
1
40
1
40
1
40
1
40
1
40
1
10
-12.100571756118551
20
-7.2288424402466456
30
0
10
-12.107968999271082
20
-7.2332538899773375
30
0
10
-12.122869020731908
20
-7.2418502485517227
30
0
10
-12.145535654834587
20
-7.2540651724623073
30
0
10
-12.176362443803894
20
-7.2690604693919338
30
0
10
-12.21573719892862
20
-7.2860462503600543
30
0
10
-12.255740666007283
20
-7.3017735644969246
30
0
10
-12.29616128477609
20
-7.3167346467183449
30
0
10
-12.336839239962679
20
-7.3312914960551705
30
0
10
-12.377707152007645
20
-7.3455779394038085
30
0
10
-12.418759406096285
20
-7.3595766001481167
30
0
10
-12.460028211979221
20
-7.3731794263635084
30
0
10
-12.501558263223629
20
-7.3862515137481264
30
0
10
-12.543379373695789
20
-7.3987002240463484
30
0
10
-12.585488190627121
20
-7.4105210636027081
30
0
10
-12.627861802170132
20
-7.4217621210632645
30
0
10
-12.67046626796464
20
-7.4325014439244157
30
0
10
-12.713266522611434
20
-7.442820966740177
30
0
10
-12.756237128272447
20
-7.4527781405886104
30
0
10
-12.799367889747106
20
-7.4623910923334194
30
0
10
-12.842657780998483
20
-7.4716544881283076
30
0
10
-12.886111208915079
20
-7.4805492587583373
30
0
10
-12.929733655035189
20
-7.4890539619182395
30
0
10
-12.973526850630703
20
-7.4971573610684814
30
0
10
-13.017486735572433
20
-7.5048637246666194
30
0
10
-13.061606018044952
20
-7.5121860908954643
30
0
10
-13.105875691445414
20
-7.5191422596445898
30
0
10
-13.150286830133211
20
-7.5257500570203328
30
0
10
-13.194832599879696
20
-7.5320220337028569
30
0
10
-13.239508933276401
20
-7.5379636718658416
30
0
10
-13.284313421382352
20
-7.5435762784995326
30
0
10
-13.32924463718836
20
-7.5488587441062638
30
0
10
-13.374301346095345
20
-7.55380959920595
30
0
10
-13.419481613372453
20
-7.5584293394521707
30
0
10
-13.464782532825863
20
-7.5627211267051493
30
0
10
-13.510200685928591
20
-7.5666895797665203
30
0
10
-13.555732416498593
20
-7.5703400477784548
30
0
10
-13.601374153139727
20
-7.5736777588156095
30
0
10
-13.647122774387594
20
-7.5767068571614091
30
0
10
-13.692975707246415
20
-7.5794301375598252
30
0
10
-13.738930724266758
20
-7.5818495678080886
30
0
10
-13.784985816423257
20
-7.5839666131075409
30
0
10
-13.83113904628541
20
-7.5857826130355797
30
0
10
-13.877388380594248
20
-7.5872992105506363
30
0
10
-13.923731639660545
20
-7.5885184832681105
30
0
10
-13.970166584413452
20
-7.5894427228158374
30
0
10
-14.01669096844534
20
-7.5900743048303534
30
0
10
-14.063302598502691
20
-7.590415535952487
30
0
10
-14.109999403200181
20
-7.590468484515668
30
0
10
-14.156779451714872
20
-7.5902349246947605
30
0
10
-14.20364090588437
20
-7.5897164337762764
30
0
10
-14.250581987339135
20
-7.5889144542835174
30
0
10
-14.297600941474084
20
-7.5878303668383129
30
0
10
-14.344695993894032
20
-7.5864655735292512
30
0
10
-14.391865338679192
20
-7.5848215328077924
30
0
10
-14.43910717797702
20
-7.5828997125149646
30
0
10
-14.486419750620998
20
-7.5807015632414902
30
0
10
-14.533801361124805
20
-7.5782284875300459
30
0
10
-14.581250416577376
20
-7.575481807991383
30
0
10
-14.62876543173458
20
-7.5724627538985541
30
0
10
-14.676344965805795
20
-7.5691724890203727
30
0
10
-14.72398757070353
20
-7.5656121332453594
30
0
10
-14.771691739268434
20
-7.5617827868764724
30
0
10
-14.819455841094392
20
-7.5576855598375854
30
0
10
-14.867278099911221
20
-7.5533215880849047
30
0
10
-14.915156716407562
20
-7.5486920004432978
30
0
10
-14.963089968075973
20
-7.5437978953407132
30
0
10
-15.011076314979267
20
-7.5386403153270987
30
0
10
-15.059114509280318
20
-7.5332202249486668
30
0
10
-15.107203684171932
20
-7.5275384875450566
30
0
10
-15.15534327729239
20
-7.5215958305505257
30
0
10
-15.193895032168356
20
-7.516633416674857
30
0
10
-15.222831330767638
20
-7.5127946058823234
30
0
10
-15.242132185395894
20
-7.5101834157906966
30
0
10
-15.25178510993287
20
-7.5088648250204919
30
0
0
LINE
5
220
100
AcDbEntity
8
0
100
AcDbLine
10
-12.100571756118551
20
-7.2288424402466456
30
0
11
-11.193449701833135
21
-6.6878674770653515
31
0
0
ARC
5
221
100
AcDbEntity
8
0
100
AcDbCircle
10
-10.93735084108774
20
-7.1173012595335123
30
0
40
0.50000000000000089
100
AcDbArc
50
33.053404185562073
51
120.81033006042927
0
ENDSEC
0
SECTION
2
OBJECTS
0
DICTIONARY
5
C
100
AcDbDictionary
3
ACAD_GROUP
350
D
3
ACAD_MLINESTYLE
350
17
0
DICTIONARY
5
D
100
AcDbDictionary
0
DICTIONARY
5
1A
330
C
100
AcDbDictionary
0
DICTIONARY
5
17
100
AcDbDictionary
0
ENDSEC
0
EOF
