0
SECTION
2
HEADER
9
$INSUNITS
70
4
9
$ACADVER
1
AC1014
9
$HANDSEED
5
FFFF
0
ENDSEC
0
SECTION
2
TABLES
0
TABLE
2
VPORT
5
8
100
AcDbSymbolTable
0
ENDTAB
0
TABLE
2
LTYPE
5
5
100
AcDbSymbolTable
0
LTYPE
5
14
100
AcDbSymbolTableRecord
100
AcDbLinetypeTableRecord
2
BYBLOCK
70
0
0
LTYPE
5
15
100
AcDbSymbolTableRecord
100
AcDbLinetypeTableRecord
2
BYLAYER
70
0
0
ENDTAB
0
TABLE
2
LAYER
5
2
100
AcDbSymbolTable
70
2
0
LAYER
5
50
100
AcDbSymbolTableRecord
100
AcDbLayerTableRecord
2
0
70
0
6
CONTINUOUS
0
ENDTAB
0
TABLE
2
STYLE
5
3
100
AcDbSymbolTable
70
1
0
STYLE
5
11
100
AcDbSymbolTableRecord
100
AcDbTextStyleTableRecord
2
STANDARD
70
0
0
ENDTAB
0
TABLE
2
VIEW
5
6
100
AcDbSymbolTable
70
0
0
ENDTAB
0
TABLE
2
UCS
5
7
100
AcDbSymbolTable
70
0
0
ENDTAB
0
TABLE
2
APPID
5
9
100
AcDbSymbolTable
70
2
0
APPID
5
12
100
AcDbSymbolTableRecord
100
AcDbRegAppTableRecord
2
ACAD
70
0
0
ENDTAB
0
TABLE
2
DIMSTYLE
5
A
100
AcDbSymbolTable
70
1
0
ENDTAB
0
TABLE
2
BLOCK_RECORD
5
1
100
AcDbSymbolTable
70
1
0
BLOCK_RECORD
5
1F
100
AcDbSymbolTableRecord
100
AcDbBlockTableRecord
2
*MODEL_SPACE
0
BLOCK_RECORD
5
1B
100
AcDbSymbolTableRecord
100
AcDbBlockTableRecord
2
*PAPER_SPACE
0
ENDTAB
0
ENDSEC
0
SECTION
2
BLOCKS
0
BLOCK
5
20
100
AcDbEntity
100
AcDbBlockBegin
2
*MODEL_SPACE
0
ENDBLK
5
21
100
AcDbEntity
100
AcDbBlockEnd
0
BLOCK
5
1C
100
AcDbEntity
100
AcDbBlockBegin
2
*PAPER_SPACE
0
ENDBLK
5
1D
100
AcDbEntity
100
AcDbBlockEnd
0
ENDSEC
0
SECTION
2
ENTITIES
0
LINE
5
100
100
AcDbEntity
8
0
100
AcDbLine
10
-27.259405306736969
20
-29.054988429212216
30
0
11
-29.112715067464148
21
-31.030376118259436
31
0
0
ARC
5
101
100
AcDbEntity
8
0
100
AcDbCircle
10
0
20
0
30
0
40
42.549199999999992
100
AcDbArc
50
226.82625586391353
51
229.1737441360865
0
SPLINE
5
102
100
AcDbEntity
8
0
100
AcDbSpline
70
1064
71
3
72
21
73
17
74
0
42
0.000000001
43
0.0000000001
44
0.0000000001
40
0.026378154802741027
40
0.026378154802741027
40
0.026378154802741027
40
0.026378154802741027
40
0.033789267599794573
40
0.067857735880127737
40
0.10219584818056202
40
0.13680270603413885
40
0.1716780189614244
40
0.20682165625533155
40
0.24223354786483275
40
0.27791365186769568
40
0.31386194118047311
40
0.35007839729149182
40
0.38656300698750606
40
0.4233157605071553
40
0.46033665043455541
40
0.49762567100339589
40
0.49762567100339589
40
0.49762567100339589
40
0.49762567100339589
10
-27.817281103570686
20
-32.196790098469904
30
0
10
-27.831540213522654
20
-32.216955149233101
30
0
10
-27.910411451706231
20
-32.330461334716013
30
0
10
-28.042306372457343
20
-32.546364720298435
30
0
10
-28.210989276033338
20
-32.845453968980983
30
0
10
-28.36903378218728
20
-33.153436527704187
30
0
10
-28.51843229811282
20
-33.468617060789214
30
0
10
-28.659657011301572
20
-33.790481489501275
30
0
10
-28.793287549266466
20
-34.118459819989098
30
0
10
-28.919687687776619
20
-34.452158106032023
30
0
10
-29.03916040049749
20
-34.79123987457892
30
0
10
-29.151926373617925
20
-35.135430102214698
30
0
10
-29.258214803314928
20
-35.484479756111526
30
0
10
-29.358021073322377
20
-35.838216098523745
30
0
10
-29.452062672326925
20
-36.196316056276018
30
0
10
-29.509287217996519
20
-36.437322332299537
30
0
10
-29.538002731799004
20
-36.558260278851293
30
0
0
ARC
5
103
100
AcDbEntity
8
0
100
AcDbCircle
10
0
20
0
30
0
40
47.000000000000014
100
AcDbArc
50
231.06280486938684
51
232.93719513061296
0
SPLINE
5
104
100
AcDbEntity
8
0
100
AcDbSpline
70
1064
71
3
72
21
73
17
74
0
42
0.000000001
43
0.0000000001
44
0.0000000001
40
-0.49762567100339589
40
-0.49762567100339589
40
-0.49762567100339589
40
-0.49762567100339589
40
-0.46033665043455541
40
-0.4233157605071553
40
-0.38656300698750606
40
-0.35007839729149182
40
-0.31386194118047311
40
-0.27791365186769568
40
-0.24223354786483275
40
-0.20682165625533155
40
-0.1716780189614244
40
-0.13680270603413885
40
-0.10219584818056202
40
-0.067857735880127737
40
-0.033789267599794573
40
-0.026378154802740927
40
-0.026378154802740927
40
-0.026378154802740927
40
-0.026378154802740927
10
-28.326434095549928
20
-37.504841439879037
30
0
10
-28.216035434398371
20
-37.447721362278941
30
0
10
-27.99603194533028
20
-37.333891935030621
30
0
10
-27.671319808640039
20
-37.156011552830755
30
0
10
-27.352236269401899
20
-36.973593389088123
30
0
10
-27.039268380360305
20
-36.786019426071405
30
0
10
-26.732582631435776
20
-36.59333593196677
30
0
10
-26.432476105690487
20
-36.395380765196947
30
0
10
-26.139269045989852
20
-36.192006329081991
30
0
10
-25.853361226660848
20
-35.983000049767455
30
0
10
-25.57522289736141
20
-35.768104261395742
30
0
10
-25.305547345276107
20
-35.546894447861163
30
0
10
-25.044947611297303
20
-35.31903681456064
30
0
10
-24.795550679313894
20
-35.083008276130265
30
0
10
-24.617968816242829
20
-34.902799441901465
30
0
10
-24.526914929012527
20
-34.798811385011525
30
0
10
-24.510798457346006
20
-34.780097464259129
30
0
0
ARC
5
105
100
AcDbEntity
8
0
100
AcDbCircle
10
0
20
0
30
0
40
42.549199999999999
100
AcDbArc
50
234.82625586391353
51
237.17374413608641
0
SPLINE
5
106
100
AcDbEntity
8
0
100
AcDbSpline
70
1064
71
3
72
21
73
17
74
0
42
0.000000001
43
0.0000000001
44
0.0000000001
40
0.02637815480274134
40
0.02637815480274134
40
0.02637815480274134
40
0.02637815480274134
40
0.033789267599794573
40
0.067857735880127737
40
0.10219584818056202
40
0.13680270603413885
40
0.1716780189614244
40
0.20682165625533155
40
0.24223354786483275
40
0.27791365186769568
40
0.31386194118047311
40
0.35007839729149182
40
0.38656300698750606
40
0.4233157605071553
40
0.46033665043455541
40
0.49762567100339589
40
0.49762567100339589
40
0.49762567100339589
40
0.49762567100339589
10
-23.065638117109955
20
-35.754870421951246
30
0
10
-23.076952025738336
20
-35.776823712375538
30
0
10
-23.139258686641835
20
-35.900202018258504
30
0
10
-23.239822071411581
20
-36.13236047205578
30
0
10
-23.365238186362536
20
-36.452015127499635
30
0
10
-23.478881726507691
20
-36.7789959651437
30
0
10
-23.582961654194442
20
-37.111901437686932
30
0
10
-23.678017107549852
20
-37.450288185170905
30
0
10
-23.764701401003549
20
-37.79367242944371
30
0
10
-23.843429596801009
20
-38.141714685944052
30
0
10
-23.914548548086731
20
-38.494123921937927
30
0
10
-23.978315069208243
20
-38.850658504100494
30
0
10
-24.034990784492013
20
-39.21110372111692
30
0
10
-24.08459516304481
20
-39.57528787385337
30
0
10
-24.127883674098364
20
-39.942990888385864
30
0
10
-24.151009723638175
20
-40.189615825370133
30
0
10
-24.162614470988931
20
-40.313373239241066
30
0
0
ARC
5
107
100
AcDbEntity
8
0
100
AcDbCircle
10
0
20
0
30
0
40
47.000000000000021
100
AcDbArc
50
239.06280486938675
51
240.93719513061293
0
SPLINE
5
108
100
AcDbEntity
8
0
100
AcDbSpline
70
1064
71
3
72
21
73
17
74
0
42
0.000000001
43
0.0000000001
44
0.0000000001
40
-0.49762567100339589
40
-0.49762567100339589
40
-0.49762567100339589
40
-0.49762567100339589
40
-0.46033665043455541
40
-0.4233157605071553
40
-0.38656300698750606
40
-0.35007839729149182
40
-0.31386194118047311
40
-0.27791365186769568
40
-0.24223354786483275
40
-0.20682165625533155
40
-0.1716780189614244
40
-0.13680270603413885
40
-0.10219584818056202
40
-0.067857735880127737
40
-0.033789267599794573
40
-0.026378154802740843
40
-0.026378154802740843
40
-0.026378154802740843
40
-0.026378154802740843
10
-22.831098101932096
20
-41.08212457334642
30
0
10
-22.729723411288578
20
-41.010195860400707
30
0
10
-22.52770297542336
20
-40.866855645517916
30
0
10
-22.230907079316879
20
-40.645515187987293
30
0
10
-21.940316540667805
20
-40.420464459653402
30
0
10
-21.656499683700865
20
-40.191159241931793
30
0
10
-21.379614938781177
20
-39.957668523648323
30
0
10
-21.109979063525071
20
-39.719873087147441
30
0
10
-20.847929725704049
20
-39.477671341342557
30
0
10
-20.593892393631329
20
-39.230908418966145
30
0
10
-20.348368600683923
20
-38.979394607850125
30
0
10
-20.112103968245997
20
-38.722806010177734
30
0
10
-19.885752026368095
20
-38.460897398614009
30
0
10
-19.671631031791236
20
-38.1924565293006
30
0
10
-19.520857605484345
20
-37.989286856500811
30
0
10
-19.445162188765565
20
-37.873638552391917
30
0
10
-19.431807035875657
20
-37.852863774891496
30
0
0
ARC
5
109
100
AcDbEntity
8
0
100
AcDbCircle
10
0
20
0
30
0
40
42.549199999999999
100
AcDbArc
50
242.82625586391353
51
245.17374413608644
0
SPLINE
5
110
100
AcDbEntity
8
0
100
AcDbSpline
70
1064
71
3
72
21
73
17
74
0
42
0.000000001
43
0.0000000001
44
0.0000000001
40
0.02637815480274178
40
0.02637815480274178
40
0.02637815480274178
40
0.02637815480274178
40
0.033789267599794573
40
0.067857735880127737
40
0.10219584818056202
40
0.13680270603413885
40
0.1716780189614244
40
0.20682165625533155
40
0.24223354786483275
40
0.27791365186769568
40
0.31386194118047311
40
0.35007839729149182
40
0.38656300698750606
40
0.4233157605071553
40
0.46033665043455541
40
0.49762567100339589
40
0.49762567100339589
40
0.49762567100339589
40
0.49762567100339589
10
-17.865048721474142
20
-38.617022863231639
30
0
10
-17.873197216416862
20
-38.640337097490416
30
0
10
-17.917726571758578
20
-38.771186105390143
30
0
10
-17.98500106865156
20
-39.015080927175461
30
0
10
-18.064709312958673
20
-39.349079275114185
30
0
10
-18.131739944853727
20
-39.688694081609547
30
0
10
-18.188475486898433
20
-40.032844867262305
30
0
10
-18.235511534144912
20
-40.381167620387629
30
0
10
-18.273562371917254
20
-40.73327419472443
30
0
10
-18.303086270222828
20
-41.088886175051599
30
0
10
-18.324467210583229
20
-41.447763633573416
30
0
10
-18.337993136905531
20
-41.809703030173033
30
0
10
-18.343953009445741
20
-42.174528154160207
30
0
10
-18.342390003739496
20
-42.542071686941192
30
0
10
-18.334082865214345
20
-42.912220837332015
30
0
10
-18.322660296375574
20
-43.159664161410348
30
0
10
-18.316928404067621
20
-43.283832245311437
30
0
0
ARC
5
111
100
AcDbEntity
8
0
100
AcDbCircle
10
0
20
0
30
0
40
47.000000000000021
100
AcDbArc
50
247.06280486938675
51
248.93719513061293
0
SPLINE
5
112
100
AcDbEntity
8
0
100
AcDbSpline
70
1064
71
3
72
21
73
17
74
0
42
0.000000001
43
0.0000000001
44
0.0000000001
40
-0.49762567100339589
40
-0.49762567100339589
40
-0.49762567100339589
40
-0.49762567100339589
40
-0.46033665043455541
40
-0.4233157605071553
40
-0.38656300698750606
40
-0.35007839729149182
40
-0.31386194118047311
40
-0.27791365186769568
40
-0.24223354786483275
40
-0.20682165625533155
40
-0.1716780189614244
40
-0.13680270603413885
40
-0.10219584818056202
40
-0.067857735880127737
40
-0.033789267599794573
40
-0.026378154802740812
40
-0.026378154802740812
40
-0.026378154802740812
40
-0.026378154802740812
10
-16.891380753749289
20
-43.85979088221773
30
0
10
-16.801003176655183
20
-43.774453544506173
30
0
10
-16.620897891982128
20
-43.60439249622452
30
0
10
-16.357795030976799
20
-43.343900103597939
30
0
10
-16.101353507209755
20
-43.080597167108422
30
0
10
-15.852211854601441
20
-42.81402385991403
30
0
10
-15.61051736029472
20
-42.544270548691372
30
0
10
-15.376600291133393
20
-42.271263260142611
30
0
10
-15.15080916747597
20
-41.994948386129494
30
0
10
-14.933586870365151
20
-41.715231780286587
30
0
10
-14.725456455120316
20
-41.431995376666933
30
0
10
-14.527201364653132
20
-41.145022200045211
30
0
10
-14.339502897953274
20
-40.854160363425727
30
0
10
-14.164825462383384
20
-40.558532059403525
30
0
10
-14.043795106081493
20
-40.336356014611709
30
0
10
-13.984931485058405
20
-40.211298425975343
30
0
10
-13.974597593804861
20
-40.18886714913998
30
0
0
ARC
5
113
100
AcDbEntity
8
0
100
AcDbCircle
10
0
20
0
30
0
40
42.549199999999985
100
AcDbArc
50
250.8262558639135
51
253.17374413608644
0
SPLINE
5
114
100
AcDbEntity
8
0
100
AcDbSpline
70
1064
71
3
72
21
73
17
74
0
42
0.000000001
43
0.0000000001
44
0.0000000001
40
0.026378154802740965
40
0.026378154802740965
40
0.026378154802740965
40
0.026378154802740965
40
0.033789267599794573
40
0.067857735880127737
40
0.10219584818056202
40
0.13680270603413885
40
0.1716780189614244
40
0.20682165625533155
40
0.24223354786483275
40
0.27791365186769568
40
0.31386194118047311
40
0.35007839729149182
40
0.38656300698750606
40
0.4233157605071553
40
0.46033665043455541
40
0.49762567100339589
40
0.49762567100339589
40
0.49762567100339589
40
0.49762567100339589
10
-12.316736473666561
20
-40.727538880691668
30
0
10
-12.321560953738333
20
-40.751760273734632
30
0
10
-12.347446290267929
20
-40.887533156550916
30
0
10
-12.380122477725742
20
-41.138417211044455
30
0
10
-12.412571421080356
20
-41.480258353552912
30
0
10
-12.431684469721684
20
-41.82589691299728
30
0
10
-12.439971333334164
20
-42.17459450818253
30
0
10
-12.438072471314772
20
-42.52607356077089
30
0
10
-12.426749237130712
20
-42.880049111217502
30
0
10
-12.406494188846811
20
-43.236309232677073
30
0
10
-12.377720962598238
20
-43.594669772213749
30
0
10
-12.340743027350982
20
-43.954969244595581
30
0
10
-12.295871055007883
20
-44.3170733694975
30
0
10
-12.243171087170781
20
-44.680822465532032
30
0
10
-12.183429988069088
20
-45.046213219607232
30
0
10
-12.137681128161201
20
-45.289658727939056
30
0
10
-12.11472416095839
20
-45.411820691356262
30
0
0
ARC
5
115
100
AcDbEntity
8
0
100
AcDbCircle
10
0
20
0
30
0
40
47.000000000000021
100
AcDbArc
50
255.06280486938675
51
256.93719513061296
0
SPLINE
5
116
100
AcDbEntity
8
0
100
AcDbSpline
70
1064
71
3
72
21
73
17
74
0
42
0.000000001
43
0.0000000001
44
0.0000000001
40
-0.49762567100339589
40
-0.49762567100339589
40
-0.49762567100339589
40
-0.49762567100339589
40
-0.46033665043455541
40
-0.4233157605071553
40
-0.38656300698750606
40
-0.35007839729149182
40
-0.31386194118047311
40
-0.27791365186769568
40
-0.24223354786483275
40
-0.20682165625533155
40
-0.1716780189614244
40
-0.13680270603413885
40
-0.10219584818056202
40
-0.067857735880127737
40
-0.033789267599794573
40
-0.026378154802740892
40
-0.026378154802740892
40
-0.026378154802740892
40
-0.026378154802740892
10
-10.622891892855588
20
-45.783776251339333
30
0
10
-10.545270526046055
20
-45.686691283070729
30
0
10
-10.3905859370646
20
-45.493219446253462
30
0
10
-10.166297109074819
20
-45.198645306647677
30
0
10
-9.9489959427520187
20
-44.902215054158631
30
0
10
-9.739378753375922
20
-44.603562203693386
30
0
10
-9.5375788180904397
20
-44.302796740894635
30
0
10
-9.3439334846983932
20
-43.999891376628412
30
0
10
-9.1587953425929651
20
-43.694841529126201
30
0
10
-8.9826160653706051
20
-43.387615605376624
30
0
10
-8.8159300496162469
20
-43.07816948367315
30
0
10
-8.6595433109439313
20
-42.766397334557887
30
0
10
-8.5141516565725794
20
-42.452243567682011
30
0
10
-8.3823176776003923
20
-42.135181897616583
30
0
10
-8.2933861095189361
20
-41.898323884823128
30
0
10
-8.2524999976183757
20
-41.766291115371189
30
0
10
-8.2453885054398128
20
-41.74263993848929
30
0
0
ARC
5
117
100
AcDbEntity
8
0
100
AcDbCircle
10
0
20
0
30
0
40
42.549199999999999
100
AcDbArc
50
258.8262558639135
51
261.17374413608644
0
SPLINE
5
118
100
AcDbEntity
8
0
100
AcDbSpline
70
1064
71
3
72
21
73
17
74
0
42
0.000000001
43
0.0000000001
44
0.0000000001
40
0.02637815480274032
40
0.02637815480274032
40
0.02637815480274032
40
0.02637815480274032
40
0.033789267599794573
40
0.067857735880127737
40
0.10219584818056202
40
0.13680270603413885
40
0.1716780189614244
40
0.20682165625533155
40
0.24223354786483275
40
0.27791365186769568
40
0.31386194118047311
40
0.35007839729149182
40
0.38656300698750606
40
0.4233157605071553
40
0.46033665043455541
40
0.49762567100339589
40
0.49762567100339589
40
0.49762567100339589
40
0.49762567100339589
10
-6.5286929604791499
20
-42.045339680727871
30
0
10
-6.5300995226631455
20
-42.069996790690865
30
0
10
-6.5368370117492027
20
-42.208050883699038
30
0
10
-6.5342788849515898
20
-42.461040998156463
30
0
10
-6.5188369455814357
20
-42.80407138623427
30
0
10
-6.4896603972180058
20
-43.149006237226068
30
0
10
-6.4493372880242106
20
-43.495463639891184
30
0
10
-6.3985404759282307
20
-43.843257851985449
30
0
10
-6.3380635636611737
20
-44.192212647093648
30
0
10
-6.2684238102628695
20
-44.542186711661302
30
0
10
-6.1900564555251876
20
-44.893055251939835
30
0
10
-6.1032943921561822
20
-45.24470198070852
30
0
10
-6.0084639568303242
20
-45.59703716162133
30
0
10
-5.9056527717909884
20
-45.949911858513559
30
0
10
-5.7956405046522752
20
-46.303432300870867
30
0
10
-5.7164558031948252
20
-46.538141603551679
30
0
10
-5.6767205923505895
20
-46.655919702824249
30
0
0
ARC
5
119
100
AcDbEntity
8
0
100
AcDbCircle
10
0
20
0
30
0
40
47.000000000000014
100
AcDbArc
50
263.06280486938675
51
264.93719513061296
0
SPLINE
5
120
100
AcDbEntity
8
0
100
AcDbSpline
70
1064
71
3
72
21
73
17
74
0
42
0.000000001
43
0.0000000001
44
0.0000000001
40
-0.49762567100339589
40
-0.49762567100339589
40
-0.49762567100339589
40
-0.49762567100339589
40
-0.46033665043455541
40
-0.4233157605071553
40
-0.38656300698750606
40
-0.35007839729149182
40
-0.31386194118047311
40
-0.27791365186769568
40
-0.24223354786483275
40
-0.20682165625533155
40
-0.1716780189614244
40
-0.13680270603413885
40
-0.10219584818056202
40
-0.067857735880127737
40
-0.033789267599794573
40
-0.026378154802740746
40
-0.026378154802740746
40
-0.026378154802740746
40
-0.026378154802740746
10
-4.1476405246278887
20
-46.816632494002228
30
0
10
-4.0842861797148853
20
-46.7096895436514
30
0
10
-3.9580330459984348
20
-46.496572627531179
30
0
10
-3.7769237779362625
20
-46.173650291500522
30
0
10
-3.6029924890837699
20
-45.849862400692238
30
0
10
-3.436979723095078
20
-45.524942944977845
30
0
10
-3.2790021530271392
20
-45.199019388220741
30
0
10
-3.1293976415505496
20
-44.872111656602755
30
0
10
-2.9885159843416833
20
-44.544264283904027
30
0
10
-2.8568088562379601
20
-44.215508845389252
30
0
10
-2.7348115936682027
20
-43.885876022371178
30
0
10
-2.6233370967717304
20
-43.55537319100933
30
0
10
-2.5230821379006709
20
-43.224042139604705
30
0
10
-2.4366576139679492
20
-42.891718348251558
30
0
10
-2.3815557859214698
20
-42.644788539253476
30
0
10
-2.3594429848043244
20
-42.508350456658306
30
0
10
-2.3556923088067965
20
-42.483939722985056
30
0
0
ARC
5
121
100
AcDbEntity
8
0
100
AcDbCircle
10
0
20
0
30
0
40
42.549199999999992
100
AcDbArc
50
266.82625586391356
51
269.17374413608655
0
SPLINE
5
122
100
AcDbEntity
8
0
100
AcDbSpline
70
1064
71
3
72
21
73
17
74
0
42
0.000000001
43
0.0000000001
44
0.0000000001
40
0.026378154802741374
40
0.026378154802741374
40
0.026378154802741374
40
0.026378154802741374
40
0.033789267599794573
40
0.067857735880127737
40
0.10219584818056202
40
0.13680270603413885
40
0.1716780189614244
40
0.20682165625533155
40
0.24223354786483275
40
0.27791365186769568
40
0.31386194118047311
40
0.35007839729149182
40
0.38656300698750606
40
0.4233157605071553
40
0.46033665043455541
40
0.49762567100339589
40
0.49762567100339589
40
0.49762567100339589
40
0.49762567100339589
10
-0.61357586509416895
20
-42.544775769743737
30
0
10
-0.61153713225741535
20
-42.569388674028382
30
0
10
-0.59899563633865549
20
-42.707036911342236
30
0
10
-0.56125298631390619
20
-42.957208920957626
30
0
10
-0.49822072400387635
20
-43.29475185829213
30
0
10
-0.42132246696175046
20
-43.632269236314386
30
0
10
-0.3331742284152811
20
-43.969743047205938
30
0
10
-0.23446816840964557
20
-44.307083000077739
30
0
10
-0.12601469236539986
20
-44.644225031690958
30
0
10
-0.0083456924385449938
20
-44.981101192289458
30
0
10
0.11809045936982121
20
-45.317648476280382
30
0
10
0.25294792598748117
20
-45.65379805785269
30
0
10
0.39589105774050143
20
-45.989506491255227
30
0
10
0.54681235721127108
20
-46.324638484419154
30
0
10
0.70495452874424913
20
-46.659407741771659
30
0
10
0.81603383160865861
20
-46.880812489202626
30
0
10
0.87177388541336565
20
-46.991914307598833
30
0
0
ARC
5
123
100
AcDbEntity
8
0
100
AcDbCircle
10
0
20
0
30
0
40
47.000000000000014
100
AcDbArc
50
271.06280486938675
51
272.93719513061296
0
SPLINE
5
124
100
AcDbEntity
8
0
100
AcDbSpline
70
1064
71
3
72
21
73
17
74
0
42
0.000000001
43
0.0000000001
44
0.0000000001
40
-0.49762567100339589
40
-0.49762567100339589
40
-0.49762567100339589
40
-0.49762567100339589
40
-0.46033665043455541
40
-0.4233157605071553
40
-0.38656300698750606
40
-0.35007839729149182
40
-0.31386194118047311
40
-0.27791365186769568
40
-0.24223354786483275
40
-0.20682165625533155
40
-0.1716780189614244
40
-0.13680270603413885
40
-0.10219584818056202
40
-0.067857735880127737
40
-0.033789267599794573
40
-0.026378154802740941
40
-0.026378154802740941
40
-0.026378154802740941
40
-0.026378154802740941
10
2.4083399485405406
20
-46.93825623829953
30
0
10
2.456194151297785
20
-46.823536828749255
30
0
10
2.5515584561122493
20
-46.594922911681479
30
0
10
2.68596307835272
20
-46.249937695178062
30
0
10
2.813139115041301
20
-45.905094329041852
30
0
10
2.932316207989341
20
-45.560232455693395
30
0
10
3.0433965591351853
20
-45.215494536277667
30
0
10
3.1460483670530359
20
-44.870947324451805
30
0
10
3.2399314381582811
20
-44.526683602745301
30
0
10
3.3246028877094664
20
-44.182797500122248
30
0
10
3.3995368591485309
20
-43.839393903737829
30
0
10
3.4639293899874297
20
-43.496593251800476
30
0
10
3.5170963046220969
20
-43.154533897899185
30
0
10
3.5564292184634416
20
-42.813416289844326
30
0
10
3.5766288120694192
20
-42.561220892495271
30
0
10
3.579537901882345
20
-42.42303310883856
30
0
10
3.5798547590568757
20
-42.398337945538117
30
0
0
ARC
5
125
100
AcDbEntity
8
0
100
AcDbCircle
10
0
20
0
30
0
40
42.549199999999985
100
AcDbArc
50
274.82625586391356
51
277.17374413608644
0
SPLINE
5
126
100
AcDbEntity
8
0
100
AcDbSpline
70
1064
71
3
72
21
73
17
74
0
42
0.000000001
43
0.0000000001
44
0.0000000001
40
0.026378154802741312
40
0.026378154802741312
40
0.026378154802741312
40
0.026378154802741312
40
0.033789267599794573
40
0.067857735880127737
40
0.10219584818056202
40
0.13680270603413885
40
0.1716780189614244
40
0.20682165625533155
40
0.24223354786483275
40
0.27791365186769568
40
0.31386194118047311
40
0.35007839729149182
40
0.38656300698750606
40
0.4233157605071553
40
0.46033665043455541
40
0.49762567100339589
40
0.49762567100339589
40
0.49762567100339589
40
0.49762567100339589
10
5.3134837865726183
20
-42.216126192366694
30
0
10
5.3189281328144773
20
-42.240215828787846
30
0
10
5.3505045077857343
20
-42.374779044040636
30
0
10
5.4226970632865159
20
-42.61726363521327
30
0
10
5.5320927972486924
20
-42.942749232478647
30
0
10
5.6552160258666584
20
-43.266279745688493
30
0
10
5.7894736885696307
20
-43.588201420948252
30
0
10
5.9341677953033916
20
-43.908521176133448
30
0
10
6.0884869115776254
20
-44.227288358099706
30
0
10
6.2518948647959576
20
-44.544509703453969
30
0
10
6.4239388777990474
20
-44.860185221091243
30
0
10
6.6042669004757446
20
-45.174294886226335
30
0
10
6.7925405031917574
20
-45.486842389325126
30
0
10
6.9886344056701946
20
-45.797708715720802
30
0
10
7.1918284241126003
20
-46.107210885268522
30
0
10
7.3326402961045485
20
-46.311001685885074
30
0
10
7.4033002761257896
20
-46.413264752886292
30
0
0
ARC
5
127
100
AcDbEntity
8
0
100
AcDbCircle
10
0
20
0
30
0
40
47.000000000000014
100
AcDbArc
50
279.06280486938681
51
280.93719513061291
0
SPLINE
5
128
100
AcDbEntity
8
0
100
AcDbSpline
70
1064
71
3
72
21
73
17
74
0
42
0.000000001
43
0.0000000001
44
0.0000000001
40
-0.49762567100339589
40
-0.49762567100339589
40
-0.49762567100339589
40
-0.49762567100339589
40
-0.46033665043455541
40
-0.4233157605071553
40
-0.38656300698750606
40
-0.35007839729149182
40
-0.31386194118047311
40
-0.27791365186769568
40
-0.24223354786483275
40
-0.20682165625533155
40
-0.1716780189614244
40
-0.13680270603413885
40
-0.10219584818056202
40
-0.067857735880127737
40
-0.033789267599794573
40
-0.02637815480274075
40
-0.02637815480274075
40
-0.02637815480274075
40
-0.02637815480274075
10
8.9174448240566608
20
-46.146280216393464
30
0
10
8.9488674570348241
20
-46.026017230459225
30
0
10
9.011486775229379
20
-45.786356022295152
30
0
10
9.0965707185592279
20
-45.426022670143347
30
0
10
9.1745161661903509
20
-45.066835812547538
30
0
10
9.2445379395454417
20
-44.70874386565518
30
0
10
9.3065590190861656
20
-44.351901515048688
30
0
10
9.3602601227688567
20
-43.996421042576515
30
0
10
9.4053172805818281
20
-43.642441673611046
30
0
10
9.4413050181273093
20
-43.290118258702634
30
0
10
9.467717193917748
20
-42.939627849339701
30
0
10
9.4837744313317138
20
-42.591201601586818
30
0
10
9.4888184682130952
20
-42.245071741425811
30
0
10
9.480294201535667
20
-41.901799782894493
30
0
10
9.4651983985882993
20
-41.649247493735857
30
0
10
9.4488471549728388
20
-41.511999677040208
30
0
10
9.4457240260598905
20
-41.487500747375883
30
0
0
ARC
5
129
100
AcDbEntity
8
0
100
AcDbCircle
10
0
20
0
30
0
40
42.549199999999992
100
AcDbArc
50
282.8262558639135
51
285.17374413608644
0
SPLINE
5
130
100
AcDbEntity
8
0
100
AcDbSpline
70
1064
71
3
72
21
73
17
74
0
42
0.000000001
43
0.0000000001
44
0.0000000001
40
0.026378154802741086
40
0.026378154802741086
40
0.026378154802741086
40
0.026378154802741086
40
0.033789267599794573
40
0.067857735880127737
40
0.10219584818056202
40
0.13680270603413885
40
0.1716780189614244
40
0.20682165625533155
40
0.24223354786483275
40
0.27791365186769568
40
0.31386194118047311
40
0.35007839729149182
40
0.38656300698750606
40
0.4233157605071553
40
0.46033665043455541
40
0.49762567100339589
40
0.49762567100339589
40
0.49762567100339589
40
0.49762567100339589
10
11.137122520332028
20
-41.065787738787058
30
0
10
11.145866511972248
20
-41.088885229973343
30
0
10
11.195863167774782
20
-41.217744303243542
30
0
10
11.301100482776592
20
-41.447821789228378
30
0
10
11.45473042486514
20
-41.754914839508231
30
0
10
11.621682171464498
20
-42.058161334476544
30
0
10
11.799436085635286
20
-42.358265034876055
30
0
10
11.987301932896708
20
-42.655329932698287
30
0
10
12.184483043338046
20
-42.949517824412894
30
0
10
12.390449399912251
20
-43.240910001869537
30
0
10
12.604752633094126
20
-43.52956948827795
30
0
10
12.827041331988545
20
-43.815525449638429
30
0
10
13.05698087414873
20
-44.098828640803148
30
0
10
13.294430634876605
20
-44.379378640992499
30
0
10
13.538721559789227
20
-44.657589615058683
30
0
10
13.706525257991517
20
-44.839799912735423
30
0
10
13.790729848092715
20
-44.931233794064973
30
0
0
ARC
5
131
100
AcDbEntity
8
0
100
AcDbCircle
10
0
20
0
30
0
40
47.000000000000014
100
AcDbArc
50
287.06280486938675
51
288.93719513061296
0
SPLINE
5
132
100
AcDbEntity
8
0
100
AcDbSpline
70
1064
71
3
72
21
73
17
74
0
42
0.000000001
43
0.0000000001
44
0.0000000001
40
-0.49762567100339589
40
-0.49762567100339589
40
-0.49762567100339589
40
-0.49762567100339589
40
-0.46033665043455541
40
-0.4233157605071553
40
-0.38656300698750606
40
-0.35007839729149182
40
-0.31386194118047311
40
-0.27791365186769568
40
-0.24223354786483275
40
-0.20682165625533155
40
-0.1716780189614244
40
-0.13680270603413885
40
-0.10219584818056202
40
-0.067857735880127737
40
-0.033789267599794573
40
-0.026378154802741093
40
-0.026378154802741093
40
-0.026378154802741093
40
-0.026378154802741093
10
15.252981779515704
20
-44.456119340691032
30
0
10
15.267361236906581
20
-44.332653560596953
30
0
10
15.296016754680988
20
-44.086609794142895
30
0
10
15.330123956924853
20
-43.717941785169224
30
0
10
15.357321696022012
20
-43.351402599727926
30
0
10
15.376825255614381
20
-42.987050431714373
30
0
10
15.388579893784655
20
-42.625049180369501
30
0
10
15.392285062333105
20
-42.265554470294653
30
0
10
15.387639320528727
20
-41.908749259841578
30
0
10
15.374242885692624
20
-41.55484610715704
30
0
10
15.351619182876085
20
-41.204090781956914
30
0
10
15.31902859100369
20
-40.856820658972055
30
0
10
15.275851573691394
20
-40.513357316562484
30
0
10
15.219636041649862
20
-40.174612405761437
30
0
10
15.169538664782298
20
-39.926618867827727
30
0
10
15.13424534609616
20
-39.792982390728042
30
0
10
15.127743019247518
20
-39.769156538498621
30
0
0
ARC
5
133
100
AcDbEntity
8
0
100
AcDbCircle
10
0
20
0
30
0
40
42.549199999999999
100
AcDbArc
50
290.8262558639135
51
293.1737441360865
0
SPLINE
5
134
100
AcDbEntity
8
0
100
AcDbSpline
70
1064
71
3
72
21
73
17
74
0
42
0.000000001
43
0.0000000001
44
0.0000000001
40
0.026378154802740625
40
0.026378154802740625
40
0.026378154802740625
40
0.026378154802740625
40
0.033789267599794573
40
0.067857735880127737
40
0.10219584818056202
40
0.13680270603413885
40
0.1716780189614244
40
0.20682165625533155
40
0.24223354786483275
40
0.27791365186769568
40
0.31386194118047311
40
0.35007839729149182
40
0.38656300698750606
40
0.4233157605071553
40
0.46033665043455541
40
0.49762567100339589
40
0.49762567100339589
40
0.49762567100339589
40
0.49762567100339589
10
16.743989832522288
20
-39.116150438513117
30
0
10
16.755863277709736
20
-39.137806218071596
30
0
10
16.823307086308709
20
-39.258453054073044
30
0
10
16.9595408361807
20
-39.47164523831465
30
0
10
17.154414754324343
20
-39.754368524698464
30
0
10
17.361945493062329
20
-40.031428653338452
30
0
10
17.579735880953681
20
-40.303873201712328
30
0
10
17.807116873720052
20
-40.571901211841805
30
0
10
18.04332207230394
20
-40.835783780626322
30
0
10
18.287837931386562
20
-41.095675172904819
30
0
10
18.540229216079652
20
-41.351700199526718
30
0
10
18.800151994517456
20
-41.603936649594793
30
0
10
19.067281964486021
20
-41.852481354462029
30
0
10
19.341465893965861
20
-42.097254441812268
30
0
10
19.622098880372086
20
-42.338759160246994
30
0
10
19.813628296673095
20
-42.495842438800793
30
0
10
19.90973855028923
20
-42.574667477963089
30
0
0
ARC
5
135
100
AcDbEntity
8
0
100
AcDbCircle
10
0
20
0
30
0
40
47.000000000000014
100
AcDbArc
50
295.06280486938681
51
296.93719513061296
0
SPLINE
5
136
100
AcDbEntity
8
0
100
AcDbSpline
70
1064
71
3
72
21
73
17
74
0
42
0.000000001
43
0.0000000001
44
0.0000000001
40
-0.49762567100339589
40
-0.49762567100339589
40
-0.49762567100339589
40
-0.49762567100339589
40
-0.46033665043455541
40
-0.4233157605071553
40
-0.38656300698750606
40
-0.35007839729149182
40
-0.31386194118047311
40
-0.27791365186769568
40
-0.24223354786483275
40
-0.20682165625533155
40
-0.1716780189614244
40
-0.13680270603413885
40
-0.10219584818056202
40
-0.067857735880127737
40
-0.033789267599794573
40
-0.02637815480274092
40
-0.02637815480274092
40
-0.02637815480274092
40
-0.02637815480274092
10
21.291636794646106
20
-41.900670670108298
30
0
10
21.288693196667975
20
-41.776405216823647
30
0
10
21.282827166963919
20
-41.528767854123018
30
0
10
21.265293770226492
20
-41.158940891768509
30
0
10
21.24121442773513
20
-40.792183646794186
30
0
10
21.20982015896228
20
-40.428662958165368
30
0
10
21.171079565100825
20
-40.068548748669215
30
0
10
21.124716681623802
20
-39.712036956604123
30
0
10
21.070458464281849
20
-39.359350712225016
30
0
10
21.007938603430031
20
-39.010756144072495
30
0
10
20.93671936664775
20
-38.66656295646191
30
0
10
20.856115284288542
20
-38.327208176175048
30
0
10
20.765557604311429
20
-37.993096474793163
30
0
10
20.662744978292757
20
-37.665471896094516
30
0
10
20.578621115960804
20
-37.426864021513126
30
0
10
20.525072666506659
20
-37.299439966026924
30
0
10
20.515317702118139
20
-37.276750934344555
30
0
0
ARC
5
137
100
AcDbEntity
8
0
100
AcDbCircle
10
0
20
0
30
0
40
42.549199999999999
100
AcDbArc
50
298.82625586391356
51
301.17374413608644
0
SPLINE
5
138
100
AcDbEntity
8
0
100
AcDbSpline
70
1064
71
3
72
21
73
17
74
0
42
0.000000001
43
0.0000000001
44
0.0000000001
40
0.026378154802741444
40
0.026378154802741444
40
0.026378154802741444
40
0.026378154802741444
40
0.033789267599794573
40
0.067857735880127737
40
0.10219584818056202
40
0.13680270603413885
40
0.1716780189614244
40
0.20682165625533155
40
0.24223354786483275
40
0.27791365186769568
40
0.31386194118047311
40
0.35007839729149182
40
0.38656300698750606
40
0.4233157605071553
40
0.46033665043455541
40
0.49762567100339589
40
0.49762567100339589
40
0.49762567100339589
40
0.49762567100339589
10
22.024954428628639
20
-36.405161763915181
30
0
10
22.039726224258583
20
-36.424954326729832
30
0
10
22.123304468635794
20
-36.535040672033482
30
0
10
22.287883018400308
20
-36.727198011168113
30
0
10
22.520207913448175
20
-36.980048646479396
30
0
10
22.764278294557975
20
-37.2255297485383
30
0
10
23.017866114002477
20
-37.465012321653546
30
0
10
23.280336539891646
20
-37.698786583750426
30
0
10
23.550968361107081
20
-37.927227655565424
30
0
10
23.829274499633748
20
-38.150559772337175
30
0
10
24.114841326572325
20
-38.368967103253524
30
0
10
24.407339083329006
20
-38.582574546443304
30
0
10
24.706460100096351
20
-38.791523125048244
30
0
10
25.012041520020425
20
-38.995755069839348
30
0
10
25.323554366055149
20
-39.195852918005841
30
0
10
25.53508159822805
20
-39.324751730099223
30
0
10
25.641226838596282
20
-39.389433687369142
30
0
0
ARC
5
139
100
AcDbEntity
8
0
100
AcDbCircle
10
0
20
0
30
0
40
47.000000000000014
100
AcDbArc
50
303.06280486938687
51
304.93719513061296
0
SPLINE
5
140
100
AcDbEntity
8
0
100
AcDbSpline
70
1064
71
3
72
21
73
17
74
0
42
0.000000001
43
0.0000000001
44
0.0000000001
40
-0.49762567100339589
40
-0.49762567100339589
40
-0.49762567100339589
40
-0.49762567100339589
40
-0.46033665043455541
40
-0.4233157605071553
40
-0.38656300698750606
40
-0.35007839729149182
40
-0.31386194118047311
40
-0.27791365186769568
40
-0.24223354786483275
40
-0.20682165625533155
40
-0.1716780189614244
40
-0.13680270603413885
40
-0.10219584818056202
40
-0.067857735880127737
40
-0.033789267599794573
40
-0.026378154802741506
40
-0.026378154802741506
40
-0.026378154802741506
40
-0.026378154802741506
10
26.915874318446594
20
-38.52967310623837
30
0
10
26.895664958885806
20
-38.40702666546148
30
0
10
26.855391557298972
20
-38.162615686095904
30
0
10
26.786558829203805
20
-37.798828031510851
30
0
10
26.711671082135666
20
-37.438991239596753
30
0
10
26.629990038728813
20
-37.083377547058184
30
0
10
26.541508254428365
20
-36.732159592874773
30
0
10
26.445979719715751
20
-36.385569815325816
30
0
10
26.343165101318977
20
-36.043867173592844
30
0
10
26.232738692427631
20
-35.707366186720989
30
0
10
26.114310123112901
20
-35.376434465582854
30
0
10
25.987261417044216
20
-35.051600182781932
30
0
10
25.851085676635201
20
-34.733343226648692
30
0
10
25.703677087457216
20
-34.423215819809386
30
0
10
25.58716411495169
20
-34.198637839446619
30
0
10
25.516402794387712
20
-34.079906369871217
30
0
10
25.503585061745035
20
-34.058795774929209
30
0
0
ARC
5
141
100
AcDbEntity
8
0
100
AcDbCircle
10
0
20
0
30
0
40
42.549199999999999
100
AcDbArc
50
306.82625586391356
51
309.17374413608644
0
SPLINE
5
142
100
AcDbEntity
8
0
100
AcDbSpline
70
1064
71
3
72
21
73
17
74
0
42
0.000000001
43
0.0000000001
44
0.0000000001
40
0.026378154802740604
40
0.026378154802740604
40
0.026378154802740604
40
0.026378154802740604
40
0.033789267599794573
40
0.067857735880127737
40
0.10219584818056202
40
0.13680270603413885
40
0.1716780189614244
40
0.20682165625533155
40
0.24223354786483275
40
0.27791365186769568
40
0.31386194118047311
40
0.35007839729149182
40
0.38656300698750606
40
0.4233157605071553
40
0.46033665043455541
40
0.49762567100339589
40
0.49762567100339589
40
0.49762567100339589
40
0.49762567100339589
10
26.877228339796034
20
-32.985588025840386
30
0
10
26.894610969669209
20
-33.003132132189734
30
0
10
26.992696894366709
20
-33.100515281305618
30
0
10
27.182416909757912
20
-33.267897651302761
30
0
10
27.44767084189354
20
-33.485954185538503
30
0
10
27.723530313032793
20
-33.69507825059538
30
0
10
28.007979765576827
20
-33.896937592573678
30
0
10
28.300430936304547
20
-34.091907956540538
30
0
10
28.600221839590709
20
-34.28046118577101
30
0
10
28.906901345143527
20
-34.462887121419556
30
0
10
29.220085480868697
20
-34.639425706368726
30
0
10
29.53946507982025
20
-34.810246516773411
30
0
10
29.86475509304011
20
-34.975532022708975
30
0
10
30.195786208663307
20
-35.135247682445986
30
0
10
30.532115671119069
20
-35.290043983337618
30
0
10
30.759523582198284
20
-35.388249460213416
30
0
10
30.873637812953266
20
-35.437529374867317
30
0
0
ARC
5
143
100
AcDbEntity
8
0
100
AcDbCircle
10
0
20
0
30
0
40
47.000000000000021
100
AcDbArc
50
311.06280486938675
51
312.93719513061291
0
SPLINE
5
144
100
AcDbEntity
8
0
100
AcDbSpline
70
1064
71
3
72
21
73
17
74
0
42
0.000000001
43
0.0000000001
44
0.0000000001
40
-0.49762567100339589
40
-0.49762567100339589
40
-0.49762567100339589
40
-0.49762567100339589
40
-0.46033665043455541
40
-0.4233157605071553
40
-0.38656300698750606
40
-0.35007839729149182
40
-0.31386194118047311
40
-0.27791365186769568
40
-0.24223354786483275
40
-0.20682165625533155
40
-0.1716780189614244
40
-0.13680270603413885
40
-0.10219584818056202
40
-0.067857735880127737
40
-0.033789267599794573
40
-0.026378154802740819
40
-0.026378154802740819
40
-0.026378154802740819
40
-0.026378154802740819
10
32.01622496499175
20
-34.408739282209119
30
0
10
31.979143196044348
20
-34.290099027401453
30
0
10
31.905246298526304
20
-34.053671613070918
30
0
10
31.786453989829695
20
-33.7030039791495
30
0
10
31.662215442997919
20
-33.357091454141944
30
0
10
31.531837453556172
20
-33.016306373714308
30
0
10
31.395336676101596
20
-32.68082073281731
30
0
10
31.252501844419484
20
-32.35089894556446
30
0
10
31.103131994565079
20
-32.026830759717953
30
0
10
30.946948362075105
20
-31.708972963072021
30
0
10
30.783615537619138
20
-31.397743917929031
30
0
10
30.612595066388838
20
-31.093752662435254
30
0
10
30.43345177143738
20
-30.797544961189871
30
0
10
30.244316359613642
20
-30.510951003419326
30
0
10
30.097682069412819
20
-30.30477407220928
30
0
10
30.011085166353965
20
-30.197046161544911
30
0
10
29.995454148043063
20
-30.177924897060855
30
0
0
ARC
5
145
100
AcDbEntity
8
0
100
AcDbCircle
10
0
20
0
30
0
40
42.549199999999992
100
AcDbArc
50
314.8262558639135
51
317.17374413608644
0
SPLINE
5
146
100
AcDbEntity
8
0
100
AcDbSpline
70
1064
71
3
72
21
73
17
74
0
42
0.000000001
43
0.0000000001
44
0.0000000001
40
0.026378154802740823
40
0.026378154802740823
40
0.026378154802740823
40
0.026378154802740823
40
0.033789267599794573
40
0.067857735880127737
40
0.10219584818056202
40
0.13680270603413885
40
0.1716780189614244
40
0.20682165625533155
40
0.24223354786483275
40
0.27791365186769568
40
0.31386194118047311
40
0.35007839729149182
40
0.38656300698750606
40
0.4233157605071553
40
0.46033665043455541
40
0.49762567100339589
40
0.49762567100339589
40
0.49762567100339589
40
0.49762567100339589
10
31.206367573723437
20
-28.923987337392852
30
0
10
31.226022704721803
20
-28.938941511202927
30
0
10
31.336707178786455
20
-29.021726011905209
30
0
10
31.54787597550806
20
-29.161075505327467
30
0
10
31.840896078664308
20
-29.340093716084418
30
0
10
32.143175349012786
20
-29.508790382088019
30
0
10
32.452949949619047
20
-29.669097530449363
30
0
10
32.769689635805378
20
-29.821469119927091
30
0
10
33.092804532236883
20
-29.966464532442181
30
0
10
33.421888237083046
20
-30.104433573636559
30
0
10
33.756593908634585
20
-30.235667289872168
30
0
10
34.096638989176334
20
-30.360376634723018
30
0
10
34.441766598753283
20
-30.478781973625651
30
0
10
34.791804265952322
20
-30.59087266466566
30
0
10
35.146404074411521
20
-30.697354484363753
30
0
10
35.385266428080556
20
-30.762955168121646
30
0
10
35.505128545523647
20
-30.795873862675876
30
0
0
ARC
5
147
100
AcDbEntity
8
0
100
AcDbCircle
10
0
20
0
30
0
40
47.000000000000014
100
AcDbArc
50
319.06280486938675
51
320.93719513061291
0
SPLINE
5
148
100
AcDbEntity
8
0
100
AcDbSpline
70
1064
71
3
72
21
73
17
74
0
42
0.000000001
43
0.0000000001
44
0.0000000001
40
-0.49762567100339589
40
-0.49762567100339589
40
-0.49762567100339589
40
-0.49762567100339589
40
-0.46033665043455541
40
-0.4233157605071553
40
-0.38656300698750606
40
-0.35007839729149182
40
-0.31386194118047311
40
-0.27791365186769568
40
-0.24223354786483275
40
-0.20682165625533155
40
-0.1716780189614244
40
-0.13680270603413885
40
-0.10219584818056202
40
-0.067857735880127737
40
-0.033789267599794573
40
-0.02637815480274101
40
-0.02637815480274101
40
-0.02637815480274101
40
-0.02637815480274101
10
36.493416210509494
20
-29.618078487412454
30
0
10
36.440183786628154
20
-29.505753616182552
30
0
10
36.334101712232616
20
-29.281911557574801
30
0
10
36.167661980099098
20
-28.951189290932781
30
0
10
35.996490795498516
20
-28.625933826661381
30
0
10
35.81995351928358
20
-28.306610352297902
30
0
10
35.638090581040707
20
-27.993386871078123
30
0
10
35.450729569915566
20
-27.686554626429785
30
0
10
35.25771180282527
20
-27.386428515085157
30
0
10
35.058810883486828
20
-27.093400649118983
30
0
10
34.853752891529318
20
-26.807931999317049
30
0
10
34.642089374077017
20
-26.530700615133675
30
0
10
34.42346534504685
20
-26.262307514749633
30
0
10
34.196284416230178
20
-26.004825231440059
30
0
10
34.02238287799878
20
-25.821062348825944
30
0
10
33.921635902660576
20
-25.726434798315022
30
0
10
33.90349583867286
20
-25.709675037951996
30
0
0
ARC
5
149
100
AcDbEntity
8
0
100
AcDbCircle
10
0
20
0
30
0
40
42.549199999999999
100
AcDbArc
50
322.8262558639135
51
325.1737441360865
0
SPLINE
5
150
100
AcDbEntity
8
0
100
AcDbSpline
70
1064
71
3
72
21
73
17
74
0
42
0.000000001
43
0.0000000001
44
0.0000000001
40
0.026378154802740902
40
0.026378154802740902
40
0.026378154802740902
40
0.026378154802740902
40
0.033789267599794573
40
0.067857735880127737
40
0.10219584818056202
40
0.13680270603413885
40
0.1716780189614244
40
0.20682165625533155
40
0.24223354786483275
40
0.27791365186769568
40
0.31386194118047311
40
0.35007839729149182
40
0.38656300698750606
40
0.4233157605071553
40
0.46033665043455541
40
0.49762567100339589
40
0.49762567100339589
40
0.49762567100339589
40
0.49762567100339589
10
34.928110359545308
20
-24.29941413597092
30
0
10
34.949655426901366
20
-24.311487311258627
30
0
10
35.070784102947208
20
-24.378061857407101
30
0
10
35.299291520571984
20
-24.486666194872733
30
0
10
35.614374491746347
20
-24.623161696308689
30
0
10
35.937190039144291
20
-24.748147474544876
30
0
10
36.266260377575357
20
-24.863782232993088
30
0
10
36.601123601514736
20
-24.970589308312615
30
0
10
36.941273427170309
20
-25.069204733337564
30
0
10
37.286356091322148
20
-25.160031469628375
30
0
10
37.636068633525362
20
-25.243406002140041
30
0
10
37.990160604960096
20
-25.319576555894304
30
0
10
38.348408294550566
20
-25.38879710252635
30
0
10
38.710639428295359
20
-25.451081107069523
30
0
10
39.076607700837627
20
-25.507175898074941
30
0
10
39.322275313084219
20
-25.538894946025255
30
0
10
39.445552337440539
20
-25.55481169553477
30
0
0
ARC
5
151
100
AcDbEntity
8
0
100
AcDbCircle
10
0
20
0
30
0
40
47.000000000000014
100
AcDbArc
50
327.06280486938687
51
328.93719513061296
0
SPLINE
5
152
100
AcDbEntity
8
0
100
AcDbSpline
70
1064
71
3
72
21
73
17
74
0
42
0.000000001
43
0.0000000001
44
0.0000000001
40
-0.49762567100339589
40
-0.49762567100339589
40
-0.49762567100339589
40
-0.49762567100339589
40
-0.46033665043455541
40
-0.4233157605071553
40
-0.38656300698750606
40
-0.35007839729149182
40
-0.31386194118047311
40
-0.27791365186769568
40
-0.24223354786483275
40
-0.20682165625533155
40
-0.1716780189614244
40
-0.13680270603413885
40
-0.10219584818056202
40
-0.067857735880127737
40
-0.033789267599794573
40
-0.026378154802740809
40
-0.026378154802740809
40
-0.026378154802740809
40
-0.026378154802740809
10
40.260304620135344
20
-24.250935484923243
30
0
10
40.19195764989994
20
-24.147112273121948
30
0
10
40.055755165538443
20
-23.940212401291223
30
0
10
39.844907570031609
20
-23.635872634657776
30
0
10
39.630135400066123
20
-23.337604958761968
30
0
10
39.410874934351355
20
-23.045958358666073
30
0
10
39.187189590547064
20
-22.761093575899018
30
0
10
38.95894916894045
20
-22.483323014480764
30
0
10
38.726040355896217
20
-22.21298059100695
30
0
10
38.488293529857792
20
-21.950486109817295
30
0
10
38.245501590962185
20
-21.696334177909044
30
0
10
37.997314816891389
20
-21.451258658583171
30
0
10
37.743465321826456
20
-21.215904125466814
30
0
10
37.482660694381785
20
-20.992545116381081
30
0
10
37.284876703751422
20
-20.834773017845805
30
0
10
37.171940581410851
20
-20.755087645121769
30
0
10
37.151644547457813
20
-20.741015598551293
30
0
0
ARC
5
153
100
AcDbEntity
8
0
100
AcDbCircle
10
0
20
0
30
0
40
42.549199999999992
100
AcDbArc
50
330.82625586391356
51
333.17374413608644
0
SPLINE
5
154
100
AcDbEntity
8
0
100
AcDbSpline
70
1064
71
3
72
21
73
17
74
0
42
0.000000001
43
0.0000000001
44
0.0000000001
40
0.026378154802740878
40
0.026378154802740878
40
0.026378154802740878
40
0.026378154802740878
40
0.033789267599794573
40
0.067857735880127737
40
0.10219584818056202
40
0.13680270603413885
40
0.1716780189614244
40
0.20682165625533155
40
0.24223354786483275
40
0.27791365186769568
40
0.31386194118047311
40
0.35007839729149182
40
0.38656300698750606
40
0.4233157605071553
40
0.46033665043455541
40
0.49762567100339589
40
0.49762567100339589
40
0.49762567100339589
40
0.49762567100339589
10
37.970017207355291
20
-19.201880478566231
30
0
10
37.99303286084011
20
-19.210837664707633
30
0
10
38.122248106969735
20
-19.259906458488935
30
0
10
38.363646508536952
20
-19.335651780104769
30
0
10
38.694659616097084
20
-19.426967842545618
30
0
10
39.031728203111641
20
-19.505810027010234
30
0
10
39.373689299541908
20
-19.574521696504721
30
0
10
39.720158329481634
20
-19.633685379436191
30
0
10
40.070722454919583
20
-19.684001379896262
30
0
10
40.425087436845082
20
-19.725917972175495
30
0
10
40.78300009285811
20
-19.759810530525005
30
0
10
41.144246957735504
20
-19.785959719996583
30
0
10
41.50864184356233
20
-19.804648175155048
30
0
10
41.876016026866338
20
-19.815913205899967
30
0
10
42.246229607349399
20
-19.820529146912655
30
0
10
42.493920837543911
20
-19.817749183866919
30
0
10
42.618213321759903
20
-19.816354186907549
30
0
0
ARC
5
155
100
AcDbEntity
8
0
100
AcDbCircle
10
0
20
0
30
0
40
47.000000000000028
100
AcDbArc
50
335.06280486938681
51
336.93719513061291
0
SPLINE
5
156
100
AcDbEntity
8
0
100
AcDbSpline
70
1064
71
3
72
21
73
17
74
0
42
0.000000001
43
0.0000000001
44
0.0000000001
40
-0.49762567100339589
40
-0.49762567100339589
40
-0.49762567100339589
40
-0.49762567100339589
40
-0.46033665043455541
40
-0.4233157605071553
40
-0.38656300698750606
40
-0.35007839729149182
40
-0.31386194118047311
40
-0.27791365186769568
40
-0.24223354786483275
40
-0.20682165625533155
40
-0.1716780189614244
40
-0.13680270603413885
40
-0.10219584818056202
40
-0.067857735880127737
40
-0.033789267599794573
40
-0.026378154802740781
40
-0.026378154802740781
40
-0.026378154802740781
40
-0.026378154802740781
10
43.243571995748013
20
-18.41177560825027
30
0
10
43.161440775190634
20
-18.318474856598147
30
0
10
42.997768907293256
20
-18.132544242204503
30
0
10
42.746617357024057
20
-17.860510602955799
30
0
10
42.492424497682329
20
-17.595036156472442
30
0
10
42.234708498027786
20
-17.336742999971907
30
0
10
41.973554529440904
20
-17.085781484625247
30
0
10
41.708877137539766
20
-16.842479094455758
30
0
10
41.440610583657644
20
-16.607182266615723
30
0
10
41.168645322455077
20
-16.380330326695905
30
0
10
40.892845105540232
20
-16.162441890942393
30
0
10
40.612965748099967
20
-15.954292352688434
30
0
10
40.328831678672181
20
-15.756557295115057
30
0
10
40.039479618011846
20
-15.571668989297901
30
0
10
39.821662815384194
20
-15.442958529276357
30
0
10
39.698735719199675
20
-15.379766319478513
30
0
10
39.676678754495811
20
-15.368655883080358
30
0
0
ARC
5
157
100
AcDbEntity
8
0
100
AcDbCircle
10
0
20
0
30
0
40
42.549199999999992
100
AcDbArc
50
338.8262558639135
51
341.17374413608644
0
SPLINE
5
158
100
AcDbEntity
8
0
100
AcDbSpline
70
1064
71
3
72
21
73
17
74
0
42
0.000000001
43
0.0000000001
44
0.0000000001
40
0.026378154802741329
40
0.026378154802741329
40
0.026378154802741329
40
0.026378154802741329
40
0.033789267599794573
40
0.067857735880127737
40
0.10219584818056202
40
0.13680270603413885
40
0.1716780189614244
40
0.20682165625533155
40
0.24223354786483275
40
0.27791365186769568
40
0.31386194118047311
40
0.35007839729149182
40
0.38656300698750606
40
0.4233157605071553
40
0.46033665043455541
40
0.49762567100339589
40
0.49762567100339589
40
0.49762567100339589
40
0.49762567100339589
10
40.27288086047853
20
-13.730604059461553
30
0
10
40.296919126576931
20
-13.736270915017052
30
0
10
40.431705915004599
20
-13.766878888175164
30
0
10
40.681296755214369
20
-13.808290897414967
30
0
10
41.02179720554345
20
-13.852650157575786
30
0
10
41.366558175538202
20
-13.883814174829885
30
0
10
41.714754146200654
20
-13.904265360882292
30
0
10
42.066085356575613
20
-13.91463409763514
30
0
10
42.420240449855058
20
-13.915671329814982
30
0
10
42.776990438265258
20
-13.907861919293333
30
0
10
43.136136845358408
20
-13.89161282338463
30
0
10
43.497507344365857
20
-13.867231684344718
30
0
10
43.860956894469432
20
-13.835024298507747
30
0
10
44.226323606736592
20
-13.795051094444741
30
0
10
44.593576708928033
20
-13.748098341423439
30
0
10
44.838470529019354
20
-13.710873476200184
30
0
10
44.961359261270346
20
-13.692193884800965
30
0
0
ARC
5
159
100
AcDbEntity
8
0
100
AcDbCircle
10
0
20
0
30
0
40
47.000000000000014
100
AcDbArc
50
343.06280486938681
51
344.93719513061296
0
SPLINE
5
160
100
AcDbEntity
8
0
100
AcDbSpline
70
1064
71
3
72
21
73
17
74
0
42
0.000000001
43
0.0000000001
44
0.0000000001
40
-0.49762567100339589
40
-0.49762567100339589
40
-0.49762567100339589
40
-0.49762567100339589
40
-0.46033665043455541
40
-0.4233157605071553
40
-0.38656300698750606
40
-0.35007839729149182
40
-0.31386194118047311
40
-0.27791365186769568
40
-0.24223354786483275
40
-0.20682165625533155
40
-0.1716780189614244
40
-0.13680270603413885
40
-0.10219584818056202
40
-0.067857735880127737
40
-0.033789267599794573
40
-0.026378154802741288
40
-0.026378154802741288
40
-0.026378154802741288
40
-0.026378154802741288
10
45.38515243129752
20
-12.214251462447042
30
0
10
45.29083555120345
20
-12.133289163946957
30
0
10
45.102879986504817
20
-11.971946734906638
30
0
10
44.81631286071859
20
-11.737514048396973
30
0
10
44.527646886867615
20
-11.509999989454151
30
0
10
44.236491502058961
20
-11.290087659036152
30
0
10
43.942951973629796
20
-11.077914091541622
30
0
10
43.646989255801422
20
-10.873815476893178
30
0
10
43.348586464404057
20
-10.678144029794653
30
0
10
43.047696262490732
20
-10.491350046114952
30
0
10
42.744255905060825
20
-10.313966057073696
30
0
10
42.438131497585616
20
-10.146793893887169
30
0
10
42.129243200258664
20
-9.9905269998321486
30
0
10
41.816975615110351
20
-9.8477080378489781
30
0
10
41.583365556785594
20
-9.7505644190395007
30
0
10
41.452840122856855
20
-9.705095336651496
30
0
10
41.429451541130717
20
-9.6971627624322227
30
0
0
ARC
5
161
100
AcDbEntity
8
0
100
AcDbCircle
10
0
20
0
30
0
40
42.549199999999999
100
AcDbArc
50
346.82625586391362
51
349.17374413608638
0
SPLINE
5
162
100
AcDbEntity
8
0
100
AcDbSpline
70
1064
71
3
72
21
73
17
74
0
42
0.000000001
43
0.0000000001
44
0.0000000001
40
0.026378154802741426
40
0.026378154802741426
40
0.026378154802741426
40
0.026378154802741426
40
0.033789267599794573
40
0.067857735880127737
40
0.10219584818056202
40
0.13680270603413885
40
0.1716780189614244
40
0.20682165625533155
40
0.24223354786483275
40
0.27791365186769568
40
0.31386194118047311
40
0.35007839729149182
40
0.38656300698750606
40
0.4233157605071553
40
0.46033665043455541
40
0.49762567100339589
40
0.49762567100339589
40
0.49762567100339589
40
0.49762567100339589
10
41.791878697375537
20
-7.992077050670118
30
0
10
41.816471698581054
20
-7.9943432767422813
30
0
10
41.954206557787721
20
-8.0058946798957322
30
0
10
42.207131834840723
20
-8.0121673391051207
30
0
10
42.550492173986605
20
-8.0087063944447827
30
0
10
42.896235146840411
20
-7.9915856723410572
30
0
10
43.243888753233122
20
-7.9633783158777574
30
0
10
43.593243881666709
20
-7.9247502907853562
30
0
10
43.944096716742429
20
-7.8764885661404218
30
0
10
44.296287978910001
20
-7.8191051541106233
30
0
10
44.649677760792201
20
-7.7530306741124946
30
0
10
45.004138228219361
20
-7.6785937576993701
30
0
10
45.359568310524679
20
-7.5961174109969223
30
0
10
45.715816104299172
20
-7.5056840050742322
30
0
10
46.072960564309049
20
-7.4080764399485446
30
0
10
46.310290394651695
20
-7.3371312122066783
30
0
10
46.429383485548286
20
-7.3015306033664684
30
0
0
ARC
5
163
100
AcDbEntity
8
0
100
AcDbCircle
10
0
20
0
30
0
40
47.000000000000014
100
AcDbArc
50
351.06280486938681
51
352.93719513061296
0
SPLINE
5
164
100
AcDbEntity
8
0
100
AcDbSpline
70
1064
71
3
72
21
73
17
74
0
42
0.000000001
43
0.0000000001
44
0.0000000001
40
-0.49762567100339589
40
-0.49762567100339589
40
-0.49762567100339589
40
-0.49762567100339589
40
-0.46033665043455541
40
-0.4233157605071553
40
-0.38656300698750606
40
-0.35007839729149182
40
-0.31386194118047311
40
-0.27791365186769568
40
-0.24223354786483275
40
-0.20682165625533155
40
-0.1716780189614244
40
-0.13680270603413885
40
-0.10219584818056202
40
-0.067857735880127737
40
-0.033789267599794573
40
-0.026378154802741215
40
-0.026378154802741215
40
-0.026378154802741215
40
-0.026378154802741215
10
46.643362499617552
20
-5.7789908054324313
30
0
10
46.538695730773945
20
-5.711942799131446
30
0
10
46.330114810544629
20
-5.5783289023014246
30
0
10
46.013709812379531
20
-5.3860601341104832
30
0
10
45.696189278847626
20
-5.2009347650721196
30
0
10
45.377261517265836
20
-5.0236836041016701
30
0
10
45.057049842018998
20
-4.854427701606693
30
0
10
44.735562375913318
20
-4.6935054098546924
30
0
10
44.412831417907114
20
-4.541267865642479
30
0
10
44.088872760805756
20
-4.3981675706202132
30
0
10
43.76369838425984
20
-4.2647406058666029
30
0
10
43.437287290129831
20
-4.1417996337484198
30
0
10
43.109656924255972
20
-4.0300424605535738
30
0
10
42.780551747965454
20
-3.9320726510452286
30
0
10
42.535695388001415
20
-3.8683866634887156
30
0
10
42.400112145429389
20
-3.8415257124789184
30
0
10
42.375847178820145
20
-3.8369253989725327
30
0
0
ARC
5
165
100
AcDbEntity
8
0
100
AcDbCircle
10
0
20
0
30
0
40
42.549199999999992
100
AcDbArc
50
354.8262558639135
51
357.1737441360865
0
SPLINE
5
166
100
AcDbEntity
8
0
100
AcDbSpline
70
1064
71
3
72
21
73
17
74
0
42
0.000000001
43
0.0000000001
44
0.0000000001
40
0.026378154802741624
40
0.026378154802741624
40
0.026378154802741624
40
0.026378154802741624
40
0.033789267599794573
40
0.067857735880127737
40
0.10219584818056202
40
0.13680270603413885
40
0.1716780189614244
40
0.20682165625533155
40
0.24223354786483275
40
0.27791365186769568
40
0.31386194118047311
40
0.35007839729149182
40
0.38656300698750606
40
0.4233157605071553
40
0.46033665043455541
40
0.49762567100339589
40
0.49762567100339589
40
0.49762567100339589
40
0.49762567100339589
10
42.497445152985591
20
-2.0979933529402501
30
0
10
42.522114214503873
20
-2.0968148400163775
30
0
10
42.660116292126148
20
-2.0890848382423108
30
0
10
42.911453103202788
20
-2.0600960572448148
30
0
10
43.250990212730606
20
-2.0088822711143672
30
0
10
43.590985694753655
20
-1.9438100450340352
30
0
10
43.93133025487834
20
-1.8674931701631925
30
0
10
44.271909501181156
20
-1.7806202337952355
30
0
10
44.612631126707569
20
-1.6839989118988412
30
0
10
44.953408660326055
20
-1.5781584012033907
30
0
10
45.29416348686788
20
-1.4635446017103924
30
0
10
45.63481475290908
20
-1.3405007378312987
30
0
10
45.97530732515979
20
-1.2093607385364824
30
0
10
46.31550224236166
20
-1.0702273141339205
30
0
10
46.655586649521695
20
-0.92386475713205463
30
0
10
46.880733134926722
20
-0.82058003503057309
30
0
10
46.993712572920991
20
-0.76875133410535845
30
0
0
ARC
5
167
100
AcDbEntity
8
0
100
AcDbCircle
10
0
20
0
30
0
40
47.000000000000014
100
AcDbArc
50
-0.93719513061283188
51
0.93719513061282222
0
SPLINE
5
168
100
AcDbEntity
8
0
100
AcDbSpline
70
1064
71
3
72
21
73
17
74
0
42
0.000000001
43
0.0000000001
44
0.0000000001
40
-0.49762567100339589
40
-0.49762567100339589
40
-0.49762567100339589
40
-0.49762567100339589
40
-0.46033665043455541
40
-0.4233157605071553
40
-0.38656300698750606
40
-0.35007839729149182
40
-0.31386194118047311
40
-0.27791365186769568
40
-0.24223354786483275
40
-0.20682165625533155
40
-0.1716780189614244
40
-0.13680270603413885
40
-0.10219584818056202
40
-0.067857735880127737
40
-0.033789267599794573
40
-0.026378154802741624
40
-0.026378154802741624
40
-0.026378154802741624
40
-0.026378154802741624
10
46.993712572920991
20
0.76875133410535845
30
0
10
46.880733134926722
20
0.82058003503057309
30
0
10
46.655586649521695
20
0.92386475713205463
30
0
10
46.31550224236166
20
1.0702273141339205
30
0
10
45.97530732515979
20
1.2093607385364824
30
0
10
45.63481475290908
20
1.3405007378312987
30
0
10
45.29416348686788
20
1.4635446017103924
30
0
10
44.953408660326055
20
1.5781584012033907
30
0
10
44.612631126707569
20
1.6839989118988412
30
0
10
44.271909501181156
20
1.7806202337952355
30
0
10
43.93133025487834
20
1.8674931701631925
30
0
10
43.590985694753655
20
1.9438100450340352
30
0
10
43.250990212730606
20
2.0088822711143672
30
0
10
42.911453103202788
20
2.0600960572448148
30
0
10
42.660116292126148
20
2.0890848382423108
30
0
10
42.522114214503873
20
2.0968148400163775
30
0
10
42.497445152985591
20
2.0979933529402501
30
0
0
ARC
5
169
100
AcDbEntity
8
0
100
AcDbCircle
10
0
20
0
30
0
40
42.549199999999985
100
AcDbArc
50
2.8262558639135369
51
5.1737441360864533
0
SPLINE
5
170
100
AcDbEntity
8
0
100
AcDbSpline
70
1064
71
3
72
21
73
17
74
0
42
0.000000001
43
0.0000000001
44
0.0000000001
40
0.026378154802741534
40
0.026378154802741534
40
0.026378154802741534
40
0.026378154802741534
40
0.033789267599794573
40
0.067857735880127737
40
0.10219584818056202
40
0.13680270603413885
40
0.1716780189614244
40
0.20682165625533155
40
0.24223354786483275
40
0.27791365186769568
40
0.31386194118047311
40
0.35007839729149182
40
0.38656300698750606
40
0.4233157605071553
40
0.46033665043455541
40
0.49762567100339589
40
0.49762567100339589
40
0.49762567100339589
40
0.49762567100339589
10
42.375847178820152
20
3.8369253989725145
30
0
10
42.400112145429397
20
3.8415257124788997
30
0
10
42.5356953880014
20
3.8683866634886965
30
0
10
42.780551747965461
20
3.9320726510452095
30
0
10
43.10965692425598
20
4.0300424605535543
30
0
10
43.437287290129838
20
4.1417996337484011
30
0
10
43.763698384259854
20
4.2647406058665824
30
0
10
44.088872760805764
20
4.3981675706201937
30
0
10
44.412831417907114
20
4.5412678656424585
30
0
10
44.735562375913318
20
4.6935054098546729
30
0
10
45.057049842019012
20
4.8544277016066726
30
0
10
45.377261517265836
20
5.0236836041016497
30
0
10
45.69618927884764
20
5.2009347650720983
30
0
10
46.013709812379531
20
5.3860601341104619
30
0
10
46.330114810544636
20
5.5783289023014051
30
0
10
46.538695730773952
20
5.7119427991314256
30
0
10
46.643362499617552
20
5.7789908054324108
30
0
0
ARC
5
171
100
AcDbEntity
8
0
100
AcDbCircle
10
0
20
0
30
0
40
47.000000000000014
100
AcDbArc
50
7.0628048693867713
51
8.9371951306129578
0
SPLINE
5
172
100
AcDbEntity
8
0
100
AcDbSpline
70
1064
71
3
72
21
73
17
74
0
42
0.000000001
43
0.0000000001
44
0.0000000001
40
-0.49762567100339589
40
-0.49762567100339589
40
-0.49762567100339589
40
-0.49762567100339589
40
-0.46033665043455541
40
-0.4233157605071553
40
-0.38656300698750606
40
-0.35007839729149182
40
-0.31386194118047311
40
-0.27791365186769568
40
-0.24223354786483275
40
-0.20682165625533155
40
-0.1716780189614244
40
-0.13680270603413885
40
-0.10219584818056202
40
-0.067857735880127737
40
-0.033789267599794573
40
-0.026378154802741437
40
-0.026378154802741437
40
-0.026378154802741437
40
-0.026378154802741437
10
46.429383485548286
20
7.301530603366448
30
0
10
46.310290394651702
20
7.337131212206657
30
0
10
46.072960564309057
20
7.4080764399485242
30
0
10
45.715816104299172
20
7.5056840050742117
30
0
10
45.359568310524693
20
7.596117410996901
30
0
10
45.004138228219361
20
7.6785937576993497
30
0
10
44.649677760792208
20
7.7530306741124742
30
0
10
44.296287978910001
20
7.8191051541106038
30
0
10
43.944096716742429
20
7.8764885661404014
30
0
10
43.593243881666723
20
7.9247502907853367
30
0
10
43.243888753233136
20
7.9633783158777369
30
0
10
42.896235146840418
20
7.9915856723410386
30
0
10
42.550492173986612
20
8.0087063944447632
30
0
10
42.20713183484073
20
8.0121673391051011
30
0
10
41.954206557787728
20
8.0058946798957145
30
0
10
41.816471698581061
20
7.9943432767422635
30
0
10
41.791878697375545
20
7.9920770506701002
30
0
0
ARC
5
173
100
AcDbEntity
8
0
100
AcDbCircle
10
0
20
0
30
0
40
42.549199999999992
100
AcDbArc
50
10.826255863913515
51
13.17374413608646
0
SPLINE
5
174
100
AcDbEntity
8
0
100
AcDbSpline
70
1064
71
3
72
21
73
17
74
0
42
0.000000001
43
0.0000000001
44
0.0000000001
40
0.026378154802742072
40
0.026378154802742072
40
0.026378154802742072
40
0.026378154802742072
40
0.033789267599794573
40
0.067857735880127737
40
0.10219584818056202
40
0.13680270603413885
40
0.1716780189614244
40
0.20682165625533155
40
0.24223354786483275
40
0.27791365186769568
40
0.31386194118047311
40
0.35007839729149182
40
0.38656300698750606
40
0.4233157605071553
40
0.46033665043455541
40
0.49762567100339589
40
0.49762567100339589
40
0.49762567100339589
40
0.49762567100339589
10
41.429451541130717
20
9.6971627624322316
30
0
10
41.452840122856855
20
9.7050953366515049
30
0
10
41.583365556785594
20
9.7505644190395078
30
0
10
41.816975615110337
20
9.8477080378489852
30
0
10
42.129243200258664
20
9.9905269998321558
30
0
10
42.438131497585601
20
10.146793893887178
30
0
10
42.744255905060811
20
10.313966057073703
30
0
10
43.047696262490732
20
10.491350046114963
30
0
10
43.34858646440405
20
10.678144029794662
30
0
10
43.646989255801415
20
10.873815476893187
30
0
10
43.942951973629796
20
11.077914091541633
30
0
10
44.236491502058954
20
11.290087659036164
30
0
10
44.527646886867615
20
11.509999989454162
30
0
10
44.816312860718583
20
11.73751404839698
30
0
10
45.102879986504803
20
11.971946734906647
30
0
10
45.29083555120345
20
12.133289163946966
30
0
10
45.38515243129752
20
12.214251462447049
30
0
0
ARC
5
175
100
AcDbEntity
8
0
100
AcDbCircle
10
0
20
0
30
0
40
47
100
AcDbArc
50
15.06280486938679
51
16.937195130612945
0
SPLINE
5
176
100
AcDbEntity
8
0
100
AcDbSpline
70
1064
71
3
72
21
73
17
74
0
42
0.000000001
43
0.0000000001
44
0.0000000001
40
-0.49762567100339589
40
-0.49762567100339589
40
-0.49762567100339589
40
-0.49762567100339589
40
-0.46033665043455541
40
-0.4233157605071553
40
-0.38656300698750606
40
-0.35007839729149182
40
-0.31386194118047311
40
-0.27791365186769568
40
-0.24223354786483275
40
-0.20682165625533155
40
-0.1716780189614244
40
-0.13680270603413885
40
-0.10219584818056202
40
-0.067857735880127737
40
-0.033789267599794573
40
-0.026378154802740986
40
-0.026378154802740986
40
-0.026378154802740986
40
-0.026378154802740986
10
44.961359261270346
20
13.692193884800972
30
0
10
44.838470529019354
20
13.710873476200193
30
0
10
44.593576708928026
20
13.74809834142345
30
0
10
44.226323606736585
20
13.795051094444748
30
0
10
43.860956894469432
20
13.835024298507754
30
0
10
43.497507344365843
20
13.867231684344725
30
0
10
43.136136845358408
20
13.891612823384637
30
0
10
42.776990438265244
20
13.907861919293342
30
0
10
42.420240449855051
20
13.915671329814991
30
0
10
42.066085356575613
20
13.914634097635151
30
0
10
41.714754146200647
20
13.904265360882297
30
0
10
41.366558175538195
20
13.88381417482989
30
0
10
41.02179720554345
20
13.852650157575791
30
0
10
40.681296755214362
20
13.808290897414974
30
0
10
40.431705915004592
20
13.766878888175174
30
0
10
40.296919126576924
20
13.736270915017057
30
0
10
40.272880860478523
20
13.730604059461557
30
0
0
ARC
5
177
100
AcDbEntity
8
0
100
AcDbCircle
10
0
20
0
30
0
40
42.549199999999985
100
AcDbArc
50
18.826255863913534
51
21.173744136086476
0
SPLINE
5
178
100
AcDbEntity
8
0
100
AcDbSpline
70
1064
71
3
72
21
73
17
74
0
42
0.000000001
43
0.0000000001
44
0.0000000001
40
0.026378154802741034
40
0.026378154802741034
40
0.026378154802741034
40
0.026378154802741034
40
0.033789267599794573
40
0.067857735880127737
40
0.10219584818056202
40
0.13680270603413885
40
0.1716780189614244
40
0.20682165625533155
40
0.24223354786483275
40
0.27791365186769568
40
0.31386194118047311
40
0.35007839729149182
40
0.38656300698750606
40
0.4233157605071553
40
0.46033665043455541
40
0.49762567100339589
40
0.49762567100339589
40
0.49762567100339589
40
0.49762567100339589
10
39.676678754495811
20
15.368655883080358
30
0
10
39.698735719199668
20
15.379766319478511
30
0
10
39.821662815384187
20
15.442958529276357
30
0
10
40.039479618011846
20
15.571668989297901
30
0
10
40.328831678672181
20
15.756557295115057
30
0
10
40.612965748099967
20
15.954292352688434
30
0
10
40.892845105540232
20
16.162441890942393
30
0
10
41.16864532245507
20
16.380330326695905
30
0
10
41.440610583657637
20
16.607182266615723
30
0
10
41.708877137539766
20
16.842479094455758
30
0
10
41.973554529440904
20
17.085781484625247
30
0
10
42.234708498027786
20
17.336742999971907
30
0
10
42.492424497682322
20
17.595036156472442
30
0
10
42.74661735702405
20
17.860510602955799
30
0
10
42.997768907293249
20
18.132544242204503
30
0
10
43.161440775190634
20
18.318474856598147
30
0
10
43.243571995747999
20
18.41177560825027
30
0
0
ARC
5
179
100
AcDbEntity
8
0
100
AcDbCircle
10
0
20
0
30
0
40
47
100
AcDbArc
50
23.062804869386795
51
24.93719513061296
0
SPLINE
5
180
100
AcDbEntity
8
0
100
AcDbSpline
70
1064
71
3
72
21
73
17
74
0
42
0.000000001
43
0.0000000001
44
0.0000000001
40
-0.49762567100339589
40
-0.49762567100339589
40
-0.49762567100339589
40
-0.49762567100339589
40
-0.46033665043455541
40
-0.4233157605071553
40
-0.38656300698750606
40
-0.35007839729149182
40
-0.31386194118047311
40
-0.27791365186769568
40
-0.24223354786483275
40
-0.20682165625533155
40
-0.1716780189614244
40
-0.13680270603413885
40
-0.10219584818056202
40
-0.067857735880127737
40
-0.033789267599794573
40
-0.026378154802741489
40
-0.026378154802741489
40
-0.026378154802741489
40
-0.026378154802741489
10
42.618213321759896
20
19.816354186907549
30
0
10
42.493920837543911
20
19.817749183866919
30
0
10
42.246229607349392
20
19.820529146912655
30
0
10
41.876016026866331
20
19.815913205899967
30
0
10
41.508641843562316
20
19.804648175155048
30
0
10
41.144246957735504
20
19.785959719996583
30
0
10
40.78300009285811
20
19.759810530525005
30
0
10
40.425087436845082
20
19.725917972175495
30
0
10
40.070722454919576
20
19.684001379896262
30
0
10
39.72015832948162
20
19.633685379436191
30
0
10
39.373689299541908
20
19.574521696504721
30
0
10
39.031728203111633
20
19.505810027010234
30
0
10
38.694659616097084
20
19.426967842545618
30
0
10
38.363646508536952
20
19.335651780104769
30
0
10
38.122248106969735
20
19.259906458488935
30
0
10
37.99303286084011
20
19.210837664707636
30
0
10
37.970017207355291
20
19.201880478566235
30
0
0
ARC
5
181
100
AcDbEntity
8
0
100
AcDbCircle
10
0
20
0
30
0
40
42.549199999999992
100
AcDbArc
50
26.826255863913541
51
29.173744136086476
0
SPLINE
5
182
100
AcDbEntity
8
0
100
AcDbSpline
70
1064
71
3
72
21
73
17
74
0
42
0.000000001
43
0.0000000001
44
0.0000000001
40
0.026378154802741118
40
0.026378154802741118
40
0.026378154802741118
40
0.026378154802741118
40
0.033789267599794573
40
0.067857735880127737
40
0.10219584818056202
40
0.13680270603413885
40
0.1716780189614244
40
0.20682165625533155
40
0.24223354786483275
40
0.27791365186769568
40
0.31386194118047311
40
0.35007839729149182
40
0.38656300698750606
40
0.4233157605071553
40
0.46033665043455541
40
0.49762567100339589
40
0.49762567100339589
40
0.49762567100339589
40
0.49762567100339589
10
37.151644547457813
20
20.741015598551293
30
0
10
37.171940581410851
20
20.755087645121773
30
0
10
37.284876703751422
20
20.834773017845805
30
0
10
37.482660694381785
20
20.992545116381073
30
0
10
37.743465321826456
20
21.21590412546681
30
0
10
37.997314816891389
20
21.451258658583168
30
0
10
38.245501590962185
20
21.696334177909037
30
0
10
38.488293529857792
20
21.950486109817291
30
0
10
38.726040355896217
20
22.212980591006946
30
0
10
38.95894916894045
20
22.48332301448076
30
0
10
39.187189590547064
20
22.761093575899007
30
0
10
39.410874934351355
20
23.04595835866607
30
0
10
39.630135400066123
20
23.337604958761965
30
0
10
39.844907570031609
20
23.635872634657773
30
0
10
40.055755165538443
20
23.940212401291213
30
0
10
40.19195764989994
20
24.147112273121945
30
0
10
40.260304620135344
20
24.250935484923239
30
0
0
ARC
5
183
100
AcDbEntity
8
0
100
AcDbCircle
10
0
20
0
30
0
40
46.999999999999993
100
AcDbArc
50
31.062804869386792
51
32.937195130612949
0
SPLINE
5
184
100
AcDbEntity
8
0
100
AcDbSpline
70
1064
71
3
72
21
73
17
74
0
42
0.000000001
43
0.0000000001
44
0.0000000001
40
-0.49762567100339589
40
-0.49762567100339589
40
-0.49762567100339589
40
-0.49762567100339589
40
-0.46033665043455541
40
-0.4233157605071553
40
-0.38656300698750606
40
-0.35007839729149182
40
-0.31386194118047311
40
-0.27791365186769568
40
-0.24223354786483275
40
-0.20682165625533155
40
-0.1716780189614244
40
-0.13680270603413885
40
-0.10219584818056202
40
-0.067857735880127737
40
-0.033789267599794573
40
-0.026378154802741076
40
-0.026378154802741076
40
-0.026378154802741076
40
-0.026378154802741076
10
39.445552337440539
20
25.554811695534767
30
0
10
39.322275313084219
20
25.538894946025252
30
0
10
39.076607700837627
20
25.507175898074934
30
0
10
38.710639428295359
20
25.45108110706952
30
0
10
38.348408294550566
20
25.388797102526347
30
0
10
37.990160604960096
20
25.319576555894301
30
0
10
37.636068633525362
20
25.243406002140034
30
0
10
37.286356091322148
20
25.160031469628372
30
0
10
36.941273427170309
20
25.069204733337557
30
0
10
36.601123601514736
20
24.970589308312611
30
0
10
36.266260377575357
20
24.863782232993085
30
0
10
35.937190039144291
20
24.748147474544872
30
0
10
35.614374491746347
20
24.623161696308685
30
0
10
35.299291520571984
20
24.486666194872726
30
0
10
35.070784102947208
20
24.378061857407097
30
0
10
34.949655426901373
20
24.311487311258627
30
0
10
34.928110359545308
20
24.29941413597092
30
0
0
ARC
5
185
100
AcDbEntity
8
0
100
AcDbCircle
10
0
20
0
30
0
40
42.549199999999992
100
AcDbArc
50
34.826255863913531
51
37.173744136086448
0
SPLINE
5
186
100
AcDbEntity
8
0
100
AcDbSpline
70
1064
71
3
72
21
73
17
74
0
42
0.000000001
43
0.0000000001
44
0.0000000001
40
0.026378154802740802
40
0.026378154802740802
40
0.026378154802740802
40
0.026378154802740802
40
0.033789267599794573
40
0.067857735880127737
40
0.10219584818056202
40
0.13680270603413885
40
0.1716780189614244
40
0.20682165625533155
40
0.24223354786483275
40
0.27791365186769568
40
0.31386194118047311
40
0.35007839729149182
40
0.38656300698750606
40
0.4233157605071553
40
0.46033665043455541
40
0.49762567100339589
40
0.49762567100339589
40
0.49762567100339589
40
0.49762567100339589
10
33.903495838672868
20
25.709675037951982
30
0
10
33.92163590266059
20
25.726434798315005
30
0
10
34.022382877998794
20
25.821062348825929
30
0
10
34.196284416230185
20
26.004825231440051
30
0
10
34.423465345046857
20
26.262307514749619
30
0
10
34.642089374077024
20
26.530700615133664
30
0
10
34.853752891529325
20
26.807931999317034
30
0
10
35.058810883486842
20
27.093400649118969
30
0
10
35.257711802825284
20
27.38642851508515
30
0
10
35.450729569915573
20
27.686554626429775
30
0
10
35.638090581040721
20
27.993386871078112
30
0
10
35.819953519283587
20
28.306610352297895
30
0
10
35.996490795498516
20
28.625933826661374
30
0
10
36.167661980099112
20
28.951189290932767
30
0
10
36.334101712232624
20
29.281911557574794
30
0
10
36.440183786628168
20
29.505753616182542
30
0
10
36.493416210509501
20
29.618078487412443
30
0
0
ARC
5
187
100
AcDbEntity
8
0
100
AcDbCircle
10
0
20
0
30
0
40
47.000000000000021
100
AcDbArc
50
39.062804869386802
51
40.937195130612963
0
SPLINE
5
188
100
AcDbEntity
8
0
100
AcDbSpline
70
1064
71
3
72
21
73
17
74
0
42
0.000000001
43
0.0000000001
44
0.0000000001
40
-0.49762567100339589
40
-0.49762567100339589
40
-0.49762567100339589
40
-0.49762567100339589
40
-0.46033665043455541
40
-0.4233157605071553
40
-0.38656300698750606
40
-0.35007839729149182
40
-0.31386194118047311
40
-0.27791365186769568
40
-0.24223354786483275
40
-0.20682165625533155
40
-0.1716780189614244
40
-0.13680270603413885
40
-0.10219584818056202
40
-0.067857735880127737
40
-0.033789267599794573
40
-0.026378154802740535
40
-0.026378154802740535
40
-0.026378154802740535
40
-0.026378154802740535
10
35.505128545523654
20
30.795873862675865
30
0
10
35.38526642808057
20
30.762955168121636
30
0
10
35.146404074411528
20
30.697354484363743
30
0
10
34.791804265952337
20
30.590872664665646
30
0
10
34.441766598753297
20
30.478781973625644
30
0
10
34.096638989176341
20
30.360376634723011
30
0
10
33.756593908634599
20
30.235667289872161
30
0
10
33.42188823708306
20
30.104433573636552
30
0
10
33.092804532236897
20
29.966464532442174
30
0
10
32.769689635805385
20
29.821469119927077
30
0
10
32.452949949619054
20
29.669097530449349
30
0
10
32.143175349012793
20
29.508790382088009
30
0
10
31.840896078664315
20
29.340093716084404
30
0
10
31.54787597550807
20
29.16107550532746
30
0
10
31.336707178786462
20
29.021726011905187
30
0
10
31.226022704721814
20
28.938941511202909
30
0
10
31.206367573723448
20
28.923987337392838
30
0
0
ARC
5
189
100
AcDbEntity
8
0
100
AcDbCircle
10
0
20
0
30
0
40
42.549199999999985
100
AcDbArc
50
42.826255863913516
51
45.173744136086455
0
SPLINE
5
190
100
AcDbEntity
8
0
100
AcDbSpline
70
1064
71
3
72
21
73
17
74
0
42
0.000000001
43
0.0000000001
44
0.0000000001
40
0.026378154802741041
40
0.026378154802741041
40
0.026378154802741041
40
0.026378154802741041
40
0.033789267599794573
40
0.067857735880127737
40
0.10219584818056202
40
0.13680270603413885
40
0.1716780189614244
40
0.20682165625533155
40
0.24223354786483275
40
0.27791365186769568
40
0.31386194118047311
40
0.35007839729149182
40
0.38656300698750606
40
0.4233157605071553
40
0.46033665043455541
40
0.49762567100339589
40
0.49762567100339589
40
0.49762567100339589
40
0.49762567100339589
10
29.995454148043088
20
30.177924897060848
30
0
10
30.011085166353983
20
30.197046161544897
30
0
10
30.097682069412834
20
30.304774072209263
30
0
10
30.244316359613656
20
30.510951003419308
30
0
10
30.43345177143739
20
30.797544961189853
30
0
10
30.612595066388852
20
31.093752662435232
30
0
10
30.783615537619148
20
31.397743917929009
30
0
10
30.946948362075123
20
31.708972963072
30
0
10
31.103131994565093
20
32.026830759717932
30
0
10
31.252501844419498
20
32.350898945564438
30
0
10
31.395336676101614
20
32.680820732817288
30
0
10
31.531837453556186
20
33.016306373714286
30
0
10
31.662215442997933
20
33.35709145414193
30
0
10
31.78645398982971
20
33.703003979149472
30
0
10
31.905246298526322
20
34.053671613070897
30
0
10
31.979143196044362
20
34.290099027401432
30
0
10
32.016224964991764
20
34.408739282209098
30
0
0
ARC
5
191
100
AcDbEntity
8
0
100
AcDbCircle
10
0
20
0
30
0
40
47.000000000000014
100
AcDbArc
50
47.062804869386802
51
48.937195130612942
0
SPLINE
5
192
100
AcDbEntity
8
0
100
AcDbSpline
70
1064
71
3
72
21
73
17
74
0
42
0.000000001
43
0.0000000001
44
0.0000000001
40
-0.49762567100339589
40
-0.49762567100339589
40
-0.49762567100339589
40
-0.49762567100339589
40
-0.46033665043455541
40
-0.4233157605071553
40
-0.38656300698750606
40
-0.35007839729149182
40
-0.31386194118047311
40
-0.27791365186769568
40
-0.24223354786483275
40
-0.20682165625533155
40
-0.1716780189614244
40
-0.13680270603413885
40
-0.10219584818056202
40
-0.067857735880127737
40
-0.033789267599794573
40
-0.026378154802741246
40
-0.026378154802741246
40
-0.026378154802741246
40
-0.026378154802741246
10
30.873637812953277
20
35.437529374867296
30
0
10
30.759523582198305
20
35.388249460213387
30
0
10
30.532115671119087
20
35.290043983337597
30
0
10
30.195786208663321
20
35.135247682445964
30
0
10
29.864755093040124
20
34.975532022708954
30
0
10
29.539465079820264
20
34.81024651677339
30
0
10
29.220085480868715
20
34.639425706368705
30
0
10
28.906901345143545
20
34.462887121419541
30
0
10
28.600221839590724
20
34.280461185770989
30
0
10
28.300430936304565
20
34.091907956540517
30
0
10
28.007979765576849
20
33.89693759257365
30
0
10
27.723530313032807
20
33.695078250595358
30
0
10
27.447670841893554
20
33.485954185538489
30
0
10
27.182416909757926
20
33.267897651302739
30
0
10
26.992696894366727
20
33.100515281305611
30
0
10
26.894610969669223
20
33.00313213218972
30
0
10
26.877228339796055
20
32.985588025840372
30
0
0
ARC
5
193
100
AcDbEntity
8
0
100
AcDbCircle
10
0
20
0
30
0
40
42.549199999999999
100
AcDbArc
50
50.826255863913531
51
53.173744136086455
0
SPLINE
5
194
100
AcDbEntity
8
0
100
AcDbSpline
70
1064
71
3
72
21
73
17
74
0
42
0.000000001
43
0.0000000001
44
0.0000000001
40
0.026378154802741818
40
0.026378154802741818
40
0.026378154802741818
40
0.026378154802741818
40
0.033789267599794573
40
0.067857735880127737
40
0.10219584818056202
40
0.13680270603413885
40
0.1716780189614244
40
0.20682165625533155
40
0.24223354786483275
40
0.27791365186769568
40
0.31386194118047311
40
0.35007839729149182
40
0.38656300698750606
40
0.4233157605071553
40
0.46033665043455541
40
0.49762567100339589
40
0.49762567100339589
40
0.49762567100339589
40
0.49762567100339589
10
25.503585061745024
20
34.058795774929209
30
0
10
25.516402794387698
20
34.079906369871217
30
0
10
25.587164114951687
20
34.198637839446626
30
0
10
25.703677087457208
20
34.423215819809386
30
0
10
25.851085676635194
20
34.733343226648692
30
0
10
25.987261417044209
20
35.051600182781939
30
0
10
26.114310123112894
20
35.376434465582854
30
0
10
26.232738692427624
20
35.707366186720996
30
0
10
26.343165101318966
20
36.043867173592844
30
0
10
26.445979719715744
20
36.385569815325823
30
0
10
26.541508254428354
20
36.73215959287478
30
0
10
26.629990038728803
20
37.083377547058191
30
0
10
26.711671082135659
20
37.43899123959676
30
0
10
26.786558829203791
20
37.798828031510858
30
0
10
26.855391557298958
20
38.162615686095911
30
0
10
26.895664958885796
20
38.407026665461487
30
0
10
26.91587431844658
20
38.529673106238377
30
0
0
ARC
5
195
100
AcDbEntity
8
0
100
AcDbCircle
10
0
20
0
30
0
40
47
100
AcDbArc
50
55.062804869386802
51
56.937195130612963
0
SPLINE
5
196
100
AcDbEntity
8
0
100
AcDbSpline
70
1064
71
3
72
21
73
17
74
0
42
0.000000001
43
0.0000000001
44
0.0000000001
40
-0.49762567100339589
40
-0.49762567100339589
40
-0.49762567100339589
40
-0.49762567100339589
40
-0.46033665043455541
40
-0.4233157605071553
40
-0.38656300698750606
40
-0.35007839729149182
40
-0.31386194118047311
40
-0.27791365186769568
40
-0.24223354786483275
40
-0.20682165625533155
40
-0.1716780189614244
40
-0.13680270603413885
40
-0.10219584818056202
40
-0.067857735880127737
40
-0.033789267599794573
40
-0.026378154802741624
40
-0.026378154802741624
40
-0.026378154802741624
40
-0.026378154802741624
10
25.641226838596268
20
39.389433687369149
30
0
10
25.535081598228043
20
39.324751730099237
30
0
10
25.323554366055134
20
39.195852918005848
30
0
10
25.012041520020411
20
38.995755069839355
30
0
10
24.706460100096344
20
38.791523125048244
30
0
10
24.407339083328999
20
38.582574546443318
30
0
10
24.114841326572318
20
38.368967103253524
30
0
10
23.829274499633737
20
38.150559772337182
30
0
10
23.550968361107074
20
37.927227655565432
30
0
10
23.280336539891636
20
37.698786583750426
30
0
10
23.017866114002466
20
37.465012321653546
30
0
10
22.764278294557965
20
37.225529748538307
30
0
10
22.520207913448168
20
36.980048646479403
30
0
10
22.287883018400301
20
36.72719801116812
30
0
10
22.123304468635787
20
36.535040672033489
30
0
10
22.039726224258573
20
36.424954326729832
30
0
10
22.024954428628632
20
36.405161763915181
30
0
0
ARC
5
197
100
AcDbEntity
8
0
100
AcDbCircle
10
0
20
0
30
0
40
42.549199999999999
100
AcDbArc
50
58.826255863913524
51
61.173744136086476
0
SPLINE
5
198
100
AcDbEntity
8
0
100
AcDbSpline
70
1064
71
3
72
21
73
17
74
0
42
0.000000001
43
0.0000000001
44
0.0000000001
40
0.02637815480274092
40
0.02637815480274092
40
0.02637815480274092
40
0.02637815480274092
40
0.033789267599794573
40
0.067857735880127737
40
0.10219584818056202
40
0.13680270603413885
40
0.1716780189614244
40
0.20682165625533155
40
0.24223354786483275
40
0.27791365186769568
40
0.31386194118047311
40
0.35007839729149182
40
0.38656300698750606
40
0.4233157605071553
40
0.46033665043455541
40
0.49762567100339589
40
0.49762567100339589
40
0.49762567100339589
40
0.49762567100339589
10
20.515317702118139
20
37.276750934344555
30
0
10
20.525072666506659
20
37.299439966026924
30
0
10
20.578621115960804
20
37.426864021513126
30
0
10
20.662744978292757
20
37.665471896094516
30
0
10
20.765557604311429
20
37.993096474793163
30
0
10
20.856115284288542
20
38.327208176175048
30
0
10
20.93671936664775
20
38.66656295646191
30
0
10
21.007938603430031
20
39.010756144072495
30
0
10
21.070458464281849
20
39.359350712225016
30
0
10
21.124716681623802
20
39.712036956604123
30
0
10
21.171079565100825
20
40.068548748669215
30
0
10
21.20982015896228
20
40.428662958165368
30
0
10
21.24121442773513
20
40.792183646794186
30
0
10
21.265293770226492
20
41.158940891768509
30
0
10
21.282827166963919
20
41.528767854123018
30
0
10
21.288693196667975
20
41.776405216823647
30
0
10
21.291636794646106
20
41.900670670108298
30
0
0
ARC
5
199
100
AcDbEntity
8
0
100
AcDbCircle
10
0
20
0
30
0
40
47.000000000000021
100
AcDbArc
50
63.062804869386788
51
64.937195130612949
0
SPLINE
5
200
100
AcDbEntity
8
0
100
AcDbSpline
70
1064
71
3
72
21
73
17
74
0
42
0.000000001
43
0.0000000001
44
0.0000000001
40
-0.49762567100339589
40
-0.49762567100339589
40
-0.49762567100339589
40
-0.49762567100339589
40
-0.46033665043455541
40
-0.4233157605071553
40
-0.38656300698750606
40
-0.35007839729149182
40
-0.31386194118047311
40
-0.27791365186769568
40
-0.24223354786483275
40
-0.20682165625533155
40
-0.1716780189614244
40
-0.13680270603413885
40
-0.10219584818056202
40
-0.067857735880127737
40
-0.033789267599794573
40
-0.026378154802740625
40
-0.026378154802740625
40
-0.026378154802740625
40
-0.026378154802740625
10
19.90973855028923
20
42.574667477963089
30
0
10
19.813628296673095
20
42.495842438800793
30
0
10
19.622098880372086
20
42.338759160246994
30
0
10
19.341465893965861
20
42.097254441812268
30
0
10
19.067281964486021
20
41.852481354462029
30
0
10
18.800151994517456
20
41.603936649594793
30
0
10
18.540229216079652
20
41.351700199526718
30
0
10
18.287837931386562
20
41.095675172904819
30
0
10
18.04332207230394
20
40.835783780626322
30
0
10
17.807116873720052
20
40.571901211841805
30
0
10
17.579735880953681
20
40.303873201712328
30
0
10
17.361945493062329
20
40.031428653338452
30
0
10
17.154414754324343
20
39.754368524698464
30
0
10
16.9595408361807
20
39.47164523831465
30
0
10
16.823307086308709
20
39.258453054073044
30
0
10
16.755863277709736
20
39.137806218071596
30
0
10
16.743989832522288
20
39.116150438513117
30
0
0
ARC
5
201
100
AcDbEntity
8
0
100
AcDbCircle
10
0
20
0
30
0
40
42.549199999999992
100
AcDbArc
50
66.826255863913516
51
69.173744136086484
0
SPLINE
5
202
100
AcDbEntity
8
0
100
AcDbSpline
70
1064
71
3
72
21
73
17
74
0
42
0.000000001
43
0.0000000001
44
0.0000000001
40
0.026378154802741201
40
0.026378154802741201
40
0.026378154802741201
40
0.026378154802741201
40
0.033789267599794573
40
0.067857735880127737
40
0.10219584818056202
40
0.13680270603413885
40
0.1716780189614244
40
0.20682165625533155
40
0.24223354786483275
40
0.27791365186769568
40
0.31386194118047311
40
0.35007839729149182
40
0.38656300698750606
40
0.4233157605071553
40
0.46033665043455541
40
0.49762567100339589
40
0.49762567100339589
40
0.49762567100339589
40
0.49762567100339589
10
15.127743019247529
20
39.769156538498621
30
0
10
15.134245346096174
20
39.792982390728035
30
0
10
15.169538664782309
20
39.926618867827713
30
0
10
15.219636041649874
20
40.174612405761437
30
0
10
15.275851573691408
20
40.513357316562463
30
0
10
15.319028591003702
20
40.85682065897204
30
0
10
15.351619182876096
20
41.204090781956907
30
0
10
15.374242885692638
20
41.55484610715704
30
0
10
15.387639320528738
20
41.908749259841578
30
0
10
15.392285062333118
20
42.265554470294646
30
0
10
15.388579893784669
20
42.625049180369494
30
0
10
15.376825255614392
20
42.987050431714366
30
0
10
15.357321696022026
20
43.351402599727926
30
0
10
15.330123956924863
20
43.717941785169224
30
0
10
15.296016754681002
20
44.086609794142895
30
0
10
15.267361236906593
20
44.332653560596953
30
0
10
15.252981779515718
20
44.456119340691025
30
0
0
ARC
5
203
100
AcDbEntity
8
0
100
AcDbCircle
10
0
20
0
30
0
40
47.000000000000014
100
AcDbArc
50
71.062804869386795
51
72.937195130612963
0
SPLINE
5
204
100
AcDbEntity
8
0
100
AcDbSpline
70
1064
71
3
72
21
73
17
74
0
42
0.000000001
43
0.0000000001
44
0.0000000001
40
-0.49762567100339589
40
-0.49762567100339589
40
-0.49762567100339589
40
-0.49762567100339589
40
-0.46033665043455541
40
-0.4233157605071553
40
-0.38656300698750606
40
-0.35007839729149182
40
-0.31386194118047311
40
-0.27791365186769568
40
-0.24223354786483275
40
-0.20682165625533155
40
-0.1716780189614244
40
-0.13680270603413885
40
-0.10219584818056202
40
-0.067857735880127737
40
-0.033789267599794573
40
-0.026378154802740632
40
-0.026378154802740632
40
-0.026378154802740632
40
-0.026378154802740632
10
13.790729848092729
20
44.931233794064966
30
0
10
13.706525257991531
20
44.839799912735423
30
0
10
13.53872155978924
20
44.657589615058683
30
0
10
13.294430634876615
20
44.379378640992499
30
0
10
13.056980874148742
20
44.098828640803148
30
0
10
12.827041331988555
20
43.815525449638422
30
0
10
12.604752633094138
20
43.529569488277943
30
0
10
12.390449399912264
20
43.24091000186953
30
0
10
12.184483043338057
20
42.949517824412894
30
0
10
11.98730193289672
20
42.655329932698287
30
0
10
11.7994360856353
20
42.358265034876048
30
0
10
11.621682171464512
20
42.058161334476537
30
0
10
11.454730424865154
20
41.754914839508231
30
0
10
11.301100482776603
20
41.447821789228378
30
0
10
11.195863167774796
20
41.217744303243535
30
0
10
11.14586651197226
20
41.088885229973329
30
0
10
11.137122520332039
20
41.065787738787037
30
0
0
ARC
5
205
100
AcDbEntity
8
0
100
AcDbCircle
10
0
20
0
30
0
40
42.549199999999978
100
AcDbArc
50
74.826255863913545
51
77.173744136086455
0
SPLINE
5
206
100
AcDbEntity
8
0
100
AcDbSpline
70
1064
71
3
72
21
73
17
74
0
42
0.000000001
43
0.0000000001
44
0.0000000001
40
0.026378154802740403
40
0.026378154802740403
40
0.026378154802740403
40
0.026378154802740403
40
0.033789267599794573
40
0.067857735880127737
40
0.10219584818056202
40
0.13680270603413885
40
0.1716780189614244
40
0.20682165625533155
40
0.24223354786483275
40
0.27791365186769568
40
0.31386194118047311
40
0.35007839729149182
40
0.38656300698750606
40
0.4233157605071553
40
0.46033665043455541
40
0.49762567100339589
40
0.49762567100339589
40
0.49762567100339589
40
0.49762567100339589
10
9.4457240260599136
20
41.487500747375876
30
0
10
9.4488471549728619
20
41.511999677040208
30
0
10
9.4651983985883241
20
41.649247493735857
30
0
10
9.4802942015356919
20
41.901799782894493
30
0
10
9.48881846821312
20
42.245071741425811
30
0
10
9.4837744313317387
20
42.591201601586818
30
0
10
9.4677171939177747
20
42.939627849339686
30
0
10
9.4413050181273341
20
43.29011825870262
30
0
10
9.405317280581853
20
43.642441673611039
30
0
10
9.3602601227688815
20
43.996421042576507
30
0
10
9.3065590190861904
20
44.351901515048681
30
0
10
9.2445379395454683
20
44.70874386565518
30
0
10
9.1745161661903794
20
45.066835812547524
30
0
10
9.0965707185592564
20
45.426022670143347
30
0
10
9.0114867752294039
20
45.786356022295145
30
0
10
8.9488674570348508
20
46.026017230459225
30
0
10
8.9174448240566875
20
46.14628021639345
30
0
0
ARC
5
207
100
AcDbEntity
8
0
100
AcDbCircle
10
0
20
0
30
0
40
47.000000000000021
100
AcDbArc
50
79.062804869386795
51
80.937195130612935
0
SPLINE
5
208
100
AcDbEntity
8
0
100
AcDbSpline
70
1064
71
3
72
21
73
17
74
0
42
0.000000001
43
0.0000000001
44
0.0000000001
40
-0.49762567100339589
40
-0.49762567100339589
40
-0.49762567100339589
40
-0.49762567100339589
40
-0.46033665043455541
40
-0.4233157605071553
40
-0.38656300698750606
40
-0.35007839729149182
40
-0.31386194118047311
40
-0.27791365186769568
40
-0.24223354786483275
40
-0.20682165625533155
40
-0.1716780189614244
40
-0.13680270603413885
40
-0.10219584818056202
40
-0.067857735880127737
40
-0.033789267599794573
40
-0.026378154802741322
40
-0.026378154802741322
40
-0.026378154802741322
40
-0.026378154802741322
10
7.4033002761258162
20
46.413264752886285
30
0
10
7.3326402961045751
20
46.311001685885074
30
0
10
7.1918284241126296
20
46.107210885268515
30
0
10
6.9886344056702221
20
45.797708715720802
30
0
10
6.792540503191784
20
45.486842389325119
30
0
10
6.6042669004757713
20
45.174294886226335
30
0
10
6.423938877799074
20
44.860185221091236
30
0
10
6.2518948647959842
20
44.544509703453954
30
0
10
6.0884869115776503
20
44.227288358099699
30
0
10
5.9341677953034164
20
43.908521176133434
30
0
10
5.7894736885696565
20
43.588201420948245
30
0
10
5.6552160258666841
20
43.266279745688493
30
0
10
5.5320927972487164
20
42.942749232478647
30
0
10
5.4226970632865417
20
42.61726363521327
30
0
10
5.3505045077857583
20
42.374779044040636
30
0
10
5.3189281328145004
20
42.240215828787846
30
0
10
5.3134837865726414
20
42.216126192366694
30
0
0
ARC
5
209
100
AcDbEntity
8
0
100
AcDbCircle
10
0
20
0
30
0
40
42.549199999999992
100
AcDbArc
50
82.826255863913516
51
85.173744136086469
0
SPLINE
5
210
100
AcDbEntity
8
0
100
AcDbSpline
70
1064
71
3
72
21
73
17
74
0
42
0.000000001
43
0.0000000001
44
0.0000000001
40
0.026378154802740941
40
0.026378154802740941
40
0.026378154802740941
40
0.026378154802740941
40
0.033789267599794573
40
0.067857735880127737
40
0.10219584818056202
40
0.13680270603413885
40
0.1716780189614244
40
0.20682165625533155
40
0.24223354786483275
40
0.27791365186769568
40
0.31386194118047311
40
0.35007839729149182
40
0.38656300698750606
40
0.4233157605071553
40
0.46033665043455541
40
0.49762567100339589
40
0.49762567100339589
40
0.49762567100339589
40
0.49762567100339589
10
3.579854759056861
20
42.398337945538117
30
0
10
3.5795379018823299
20
42.42303310883856
30
0
10
3.5766288120694041
20
42.561220892495271
30
0
10
3.5564292184634274
20
42.813416289844326
30
0
10
3.5170963046220827
20
43.154533897899185
30
0
10
3.4639293899874146
20
43.496593251800483
30
0
10
3.3995368591485162
20
43.839393903737829
30
0
10
3.3246028877094513
20
44.182797500122248
30
0
10
3.239931438158266
20
44.526683602745301
30
0
10
3.1460483670530208
20
44.870947324451805
30
0
10
3.0433965591351702
20
45.215494536277667
30
0
10
2.9323162079893264
20
45.560232455693395
30
0
10
2.8131391150412854
20
45.905094329041852
30
0
10
2.6859630783527044
20
46.249937695178069
30
0
10
2.5515584561122342
20
46.594922911681486
30
0
10
2.4561941512977685
20
46.823536828749255
30
0
10
2.408339948540525
20
46.93825623829953
30
0
0
ARC
5
211
100
AcDbEntity
8
0
100
AcDbCircle
10
0
20
0
30
0
40
47.000000000000014
100
AcDbArc
50
87.06280486938681
51
88.937195130612963
0
SPLINE
5
212
100
AcDbEntity
8
0
100
AcDbSpline
70
1064
71
3
72
21
73
17
74
0
42
0.000000001
43
0.0000000001
44
0.0000000001
40
-0.49762567100339589
40
-0.49762567100339589
40
-0.49762567100339589
40
-0.49762567100339589
40
-0.46033665043455541
40
-0.4233157605071553
40
-0.38656300698750606
40
-0.35007839729149182
40
-0.31386194118047311
40
-0.27791365186769568
40
-0.24223354786483275
40
-0.20682165625533155
40
-0.1716780189614244
40
-0.13680270603413885
40
-0.10219584818056202
40
-0.067857735880127737
40
-0.033789267599794573
40
-0.026378154802741374
40
-0.026378154802741374
40
-0.026378154802741374
40
-0.026378154802741374
10
0.8717738854133501
20
46.991914307598833
30
0
10
0.81603383160864285
20
46.880812489202626
30
0
10
0.70495452874423359
20
46.659407741771652
30
0
10
0.54681235721125554
20
46.324638484419147
30
0
10
0.39589105774048616
20
45.989506491255227
30
0
10
0.2529479259874659
20
45.65379805785269
30
0
10
0.11809045936980622
20
45.317648476280382
30
0
10
-0.0083456924385599818
20
44.981101192289458
30
0
10
-0.12601469236541485
20
44.644225031690958
30
0
10
-0.23446816840966028
20
44.307083000077739
30
0
10
-0.33317422841529554
20
43.969743047205938
30
0
10
-0.42132246696176517
20
43.632269236314379
30
0
10
-0.49822072400389078
20
43.29475185829213
30
0
10
-0.56125298631392062
20
42.957208920957626
30
0
10
-0.5989956363386697
20
42.707036911342236
30
0
10
-0.61153713225742956
20
42.569388674028382
30
0
10
-0.61357586509418316
20
42.544775769743737
30
0
0
ARC
5
213
100
AcDbEntity
8
0
100
AcDbCircle
10
0
20
0
30
0
40
42.549199999999992
100
AcDbArc
50
90.826255863913531
51
93.173744136086484
0
SPLINE
5
214
100
AcDbEntity
8
0
100
AcDbSpline
70
1064
71
3
72
21
73
17
74
0
42
0.000000001
43
0.0000000001
44
0.0000000001
40
0.026378154802740746
40
0.026378154802740746
40
0.026378154802740746
40
0.026378154802740746
40
0.033789267599794573
40
0.067857735880127737
40
0.10219584818056202
40
0.13680270603413885
40
0.1716780189614244
40
0.20682165625533155
40
0.24223354786483275
40
0.27791365186769568
40
0.31386194118047311
40
0.35007839729149182
40
0.38656300698750606
40
0.4233157605071553
40
0.46033665043455541
40
0.49762567100339589
40
0.49762567100339589
40
0.49762567100339589
40
0.49762567100339589
10
-2.3556923088067965
20
42.483939722985056
30
0
10
-2.3594429848043244
20
42.508350456658306
30
0
10
-2.3815557859214698
20
42.644788539253476
30
0
10
-2.4366576139679492
20
42.891718348251558
30
0
10
-2.5230821379006709
20
43.224042139604705
30
0
10
-2.6233370967717304
20
43.55537319100933
30
0
10
-2.7348115936682027
20
43.885876022371178
30
0
10
-2.8568088562379601
20
44.215508845389252
30
0
10
-2.9885159843416833
20
44.544264283904027
30
0
10
-3.1293976415505496
20
44.872111656602755
30
0
10
-3.2790021530271392
20
45.199019388220741
30
0
10
-3.436979723095078
20
45.524942944977845
30
0
10
-3.6029924890837699
20
45.849862400692238
30
0
10
-3.7769237779362625
20
46.173650291500522
30
0
10
-3.9580330459984348
20
46.496572627531179
30
0
10
-4.0842861797148853
20
46.7096895436514
30
0
10
-4.1476405246278887
20
46.816632494002228
30
0
0
ARC
5
215
100
AcDbEntity
8
0
100
AcDbCircle
10
0
20
0
30
0
40
47
100
AcDbArc
50
95.06280486938681
51
96.937195130612949
0
SPLINE
5
216
100
AcDbEntity
8
0
100
AcDbSpline
70
1064
71
3
72
21
73
17
74
0
42
0.000000001
43
0.0000000001
44
0.0000000001
40
-0.49762567100339589
40
-0.49762567100339589
40
-0.49762567100339589
40
-0.49762567100339589
40
-0.46033665043455541
40
-0.4233157605071553
40
-0.38656300698750606
40
-0.35007839729149182
40
-0.31386194118047311
40
-0.27791365186769568
40
-0.24223354786483275
40
-0.20682165625533155
40
-0.1716780189614244
40
-0.13680270603413885
40
-0.10219584818056202
40
-0.067857735880127737
40
-0.033789267599794573
40
-0.02637815480274032
40
-0.02637815480274032
40
-0.02637815480274032
40
-0.02637815480274032
10
-5.6767205923505895
20
46.655919702824249
30
0
10
-5.7164558031948252
20
46.538141603551679
30
0
10
-5.7956405046522752
20
46.303432300870867
30
0
10
-5.9056527717909884
20
45.949911858513559
30
0
10
-6.0084639568303242
20
45.59703716162133
30
0
10
-6.1032943921561822
20
45.24470198070852
30
0
10
-6.1900564555251876
20
44.893055251939835
30
0
10
-6.2684238102628695
20
44.542186711661302
30
0
10
-6.3380635636611737
20
44.192212647093648
30
0
10
-6.3985404759282307
20
43.843257851985449
30
0
10
-6.4493372880242106
20
43.495463639891184
30
0
10
-6.4896603972180058
20
43.149006237226068
30
0
10
-6.5188369455814357
20
42.80407138623427
30
0
10
-6.5342788849515898
20
42.461040998156463
30
0
10
-6.5368370117492027
20
42.208050883699038
30
0
10
-6.5300995226631455
20
42.069996790690865
30
0
10
-6.5286929604791499
20
42.045339680727871
30
0
0
ARC
5
217
100
AcDbEntity
8
0
100
AcDbCircle
10
0
20
0
30
0
40
42.549199999999992
100
AcDbArc
50
98.826255863913545
51
101.17374413608648
0
SPLINE
5
218
100
AcDbEntity
8
0
100
AcDbSpline
70
1064
71
3
72
21
73
17
74
0
42
0.000000001
43
0.0000000001
44
0.0000000001
40
0.026378154802740892
40
0.026378154802740892
40
0.026378154802740892
40
0.026378154802740892
40
0.033789267599794573
40
0.067857735880127737
40
0.10219584818056202
40
0.13680270603413885
40
0.1716780189614244
40
0.20682165625533155
40
0.24223354786483275
40
0.27791365186769568
40
0.31386194118047311
40
0.35007839729149182
40
0.38656300698750606
40
0.4233157605071553
40
0.46033665043455541
40
0.49762567100339589
40
0.49762567100339589
40
0.49762567100339589
40
0.49762567100339589
10
-8.2453885054398128
20
41.74263993848929
30
0
10
-8.2524999976183757
20
41.766291115371189
30
0
10
-8.2933861095189361
20
41.898323884823128
30
0
10
-8.3823176776003923
20
42.135181897616583
30
0
10
-8.5141516565725794
20
42.452243567682011
30
0
10
-8.6595433109439313
20
42.766397334557887
30
0
10
-8.8159300496162469
20
43.07816948367315
30
0
10
-8.9826160653706051
20
43.387615605376624
30
0
10
-9.1587953425929651
20
43.694841529126201
30
0
10
-9.3439334846983932
20
43.999891376628412
30
0
10
-9.5375788180904397
20
44.302796740894635
30
0
10
-9.739378753375922
20
44.603562203693386
30
0
10
-9.9489959427520187
20
44.902215054158631
30
0
10
-10.166297109074819
20
45.198645306647677
30
0
10
-10.3905859370646
20
45.493219446253462
30
0
10
-10.545270526046055
20
45.686691283070729
30
0
10
-10.622891892855588
20
45.783776251339333
30
0
0
ARC
5
219
100
AcDbEntity
8
0
100
AcDbCircle
10
0
20
0
30
0
40
47.000000000000014
100
AcDbArc
50
103.06280486938681
51
104.93719513061296
0
SPLINE
5
220
100
AcDbEntity
8
0
100
AcDbSpline
70
1064
71
3
72
21
73
17
74
0
42
0.000000001
43
0.0000000001
44
0.0000000001
40
-0.49762567100339589
40
-0.49762567100339589
40
-0.49762567100339589
40
-0.49762567100339589
40
-0.46033665043455541
40
-0.4233157605071553
40
-0.38656300698750606
40
-0.35007839729149182
40
-0.31386194118047311
40
-0.27791365186769568
40
-0.24223354786483275
40
-0.20682165625533155
40
-0.1716780189614244
40
-0.13680270603413885
40
-0.10219584818056202
40
-0.067857735880127737
40
-0.033789267599794573
40
-0.026378154802740965
40
-0.026378154802740965
40
-0.026378154802740965
40
-0.026378154802740965
10
-12.11472416095839
20
45.411820691356262
30
0
10
-12.137681128161201
20
45.289658727939056
30
0
10
-12.183429988069088
20
45.046213219607232
30
0
10
-12.243171087170781
20
44.680822465532032
30
0
10
-12.295871055007883
20
44.3170733694975
30
0
10
-12.340743027350982
20
43.954969244595581
30
0
10
-12.377720962598238
20
43.594669772213749
30
0
10
-12.406494188846811
20
43.236309232677073
30
0
10
-12.426749237130712
20
42.880049111217502
30
0
10
-12.438072471314772
20
42.52607356077089
30
0
10
-12.439971333334164
20
42.17459450818253
30
0
10
-12.431684469721684
20
41.82589691299728
30
0
10
-12.412571421080356
20
41.480258353552912
30
0
10
-12.380122477725742
20
41.138417211044455
30
0
10
-12.347446290267929
20
40.887533156550916
30
0
10
-12.321560953738333
20
40.751760273734632
30
0
10
-12.316736473666561
20
40.727538880691668
30
0
0
ARC
5
221
100
AcDbEntity
8
0
100
AcDbCircle
10
0
20
0
30
0
40
42.549199999999999
100
AcDbArc
50
106.82625586391354
51
109.1737441360865
0
SPLINE
5
222
100
AcDbEntity
8
0
100
AcDbSpline
70
1064
71
3
72
21
73
17
74
0
42
0.000000001
43
0.0000000001
44
0.0000000001
40
0.026378154802740809
40
0.026378154802740809
40
0.026378154802740809
40
0.026378154802740809
40
0.033789267599794573
40
0.067857735880127737
40
0.10219584818056202
40
0.13680270603413885
40
0.1716780189614244
40
0.20682165625533155
40
0.24223354786483275
40
0.27791365186769568
40
0.31386194118047311
40
0.35007839729149182
40
0.38656300698750606
40
0.4233157605071553
40
0.46033665043455541
40
0.49762567100339589
40
0.49762567100339589
40
0.49762567100339589
40
0.49762567100339589
10
-13.974597593804861
20
40.18886714913998
30
0
10
-13.984931485058409
20
40.21129842597535
30
0
10
-14.043795106081491
20
40.336356014611709
30
0
10
-14.164825462383382
20
40.558532059403525
30
0
10
-14.33950289795327
20
40.854160363425727
30
0
10
-14.527201364653131
20
41.145022200045219
30
0
10
-14.725456455120314
20
41.431995376666933
30
0
10
-14.933586870365147
20
41.715231780286601
30
0
10
-15.150809167475966
20
41.994948386129494
30
0
10
-15.376600291133389
20
42.271263260142618
30
0
10
-15.610517360294715
20
42.544270548691387
30
0
10
-15.852211854601439
20
42.814023859914045
30
0
10
-16.101353507209751
20
43.080597167108422
30
0
10
-16.357795030976796
20
43.343900103597946
30
0
10
-16.620897891982128
20
43.604392496224527
30
0
10
-16.801003176655179
20
43.77445354450618
30
0
10
-16.891380753749289
20
43.85979088221773
30
0
0
ARC
5
223
100
AcDbEntity
8
0
100
AcDbCircle
10
0
20
0
30
0
40
47.000000000000014
100
AcDbArc
50
111.06280486938681
51
112.93719513061296
0
SPLINE
5
224
100
AcDbEntity
8
0
100
AcDbSpline
70
1064
71
3
72
21
73
17
74
0
42
0.000000001
43
0.0000000001
44
0.0000000001
40
-0.49762567100339589
40
-0.49762567100339589
40
-0.49762567100339589
40
-0.49762567100339589
40
-0.46033665043455541
40
-0.4233157605071553
40
-0.38656300698750606
40
-0.35007839729149182
40
-0.31386194118047311
40
-0.27791365186769568
40
-0.24223354786483275
40
-0.20682165625533155
40
-0.1716780189614244
40
-0.13680270603413885
40
-0.10219584818056202
40
-0.067857735880127737
40
-0.033789267599794573
40
-0.026378154802741086
40
-0.026378154802741086
40
-0.026378154802741086
40
-0.026378154802741086
10
-18.316928404067617
20
43.283832245311437
30
0
10
-18.322660296375574
20
43.159664161410362
30
0
10
-18.334082865214341
20
42.912220837332022
30
0
10
-18.342390003739492
20
42.542071686941199
30
0
10
-18.343953009445737
20
42.174528154160207
30
0
10
-18.337993136905531
20
41.80970303017304
30
0
10
-18.324467210583229
20
41.44776363357343
30
0
10
-18.303086270222824
20
41.088886175051613
30
0
10
-18.273562371917254
20
40.73327419472443
30
0
10
-18.235511534144909
20
40.381167620387643
30
0
10
-18.18847548689843
20
40.032844867262305
30
0
10
-18.131739944853727
20
39.688694081609562
30
0
10
-18.064709312958669
20
39.349079275114185
30
0
10
-17.98500106865156
20
39.015080927175461
30
0
10
-17.917726571758571
20
38.77118610539015
30
0
10
-17.873197216416855
20
38.640337097490416
30
0
10
-17.865048721474139
20
38.617022863231639
30
0
0
ARC
5
225
100
AcDbEntity
8
0
100
AcDbCircle
10
0
20
0
30
0
40
42.549199999999992
100
AcDbArc
50
114.82625586391354
51
117.17374413608646
0
SPLINE
5
226
100
AcDbEntity
8
0
100
AcDbSpline
70
1064
71
3
72
21
73
17
74
0
42
0.000000001
43
0.0000000001
44
0.0000000001
40
0.026378154802741024
40
0.026378154802741024
40
0.026378154802741024
40
0.026378154802741024
40
0.033789267599794573
40
0.067857735880127737
40
0.10219584818056202
40
0.13680270603413885
40
0.1716780189614244
40
0.20682165625533155
40
0.24223354786483275
40
0.27791365186769568
40
0.31386194118047311
40
0.35007839729149182
40
0.38656300698750606
40
0.4233157605071553
40
0.46033665043455541
40
0.49762567100339589
40
0.49762567100339589
40
0.49762567100339589
40
0.49762567100339589
10
-19.431807035875636
20
37.85286377489151
30
0
10
-19.44516218876554
20
37.873638552391931
30
0
10
-19.520857605484323
20
37.989286856500826
30
0
10
-19.671631031791215
20
38.192456529300614
30
0
10
-19.885752026368074
20
38.460897398614016
30
0
10
-20.112103968245975
20
38.722806010177756
30
0
10
-20.348368600683902
20
38.979394607850139
30
0
10
-20.593892393631307
20
39.230908418966159
30
0
10
-20.847929725704027
20
39.477671341342564
30
0
10
-21.109979063525049
20
39.719873087147455
30
0
10
-21.379614938781156
20
39.957668523648337
30
0
10
-21.656499683700844
20
40.1911592419318
30
0
10
-21.940316540667784
20
40.420464459653417
30
0
10
-22.230907079316857
20
40.645515187987307
30
0
10
-22.527702975423338
20
40.86685564551793
30
0
10
-22.729723411288553
20
41.010195860400714
30
0
10
-22.831098101932067
20
41.082124573346441
30
0
0
ARC
5
227
100
AcDbEntity
8
0
100
AcDbCircle
10
0
20
0
30
0
40
47.000000000000014
100
AcDbArc
50
119.06280486938678
51
120.93719513061293
0
SPLINE
5
228
100
AcDbEntity
8
0
100
AcDbSpline
70
1064
71
3
72
21
73
17
74
0
42
0.000000001
43
0.0000000001
44
0.0000000001
40
-0.49762567100339589
40
-0.49762567100339589
40
-0.49762567100339589
40
-0.49762567100339589
40
-0.46033665043455541
40
-0.4233157605071553
40
-0.38656300698750606
40
-0.35007839729149182
40
-0.31386194118047311
40
-0.27791365186769568
40
-0.24223354786483275
40
-0.20682165625533155
40
-0.1716780189614244
40
-0.13680270603413885
40
-0.10219584818056202
40
-0.067857735880127737
40
-0.033789267599794573
40
-0.026378154802740871
40
-0.026378154802740871
40
-0.026378154802740871
40
-0.026378154802740871
10
-24.162614470988903
20
40.313373239241088
30
0
10
-24.15100972363815
20
40.18961582537014
30
0
10
-24.127883674098342
20
39.942990888385879
30
0
10
-24.084595163044789
20
39.575287873853384
30
0
10
-24.034990784491992
20
39.211103721116935
30
0
10
-23.978315069208222
20
38.850658504100501
30
0
10
-23.91454854808671
20
38.494123921937941
30
0
10
-23.843429596800988
20
38.141714685944066
30
0
10
-23.764701401003524
20
37.793672429443731
30
0
10
-23.678017107549827
20
37.450288185170926
30
0
10
-23.58296165419442
20
37.111901437686953
30
0
10
-23.478881726507666
20
36.778995965143714
30
0
10
-23.365238186362514
20
36.452015127499649
30
0
10
-23.23982207141156
20
36.132360472055801
30
0
10
-23.139258686641817
20
35.900202018258511
30
0
10
-23.076952025738315
20
35.77682371237556
30
0
10
-23.065638117109934
20
35.75487042195126
30
0
0
ARC
5
229
100
AcDbEntity
8
0
100
AcDbCircle
10
0
20
0
30
0
40
42.549199999999999
100
AcDbArc
50
122.82625586391353
51
125.1737441360865
0
SPLINE
5
230
100
AcDbEntity
8
0
100
AcDbSpline
70
1064
71
3
72
21
73
17
74
0
42
0.000000001
43
0.0000000001
44
0.0000000001
40
0.026378154802741451
40
0.026378154802741451
40
0.026378154802741451
40
0.026378154802741451
40
0.033789267599794573
40
0.067857735880127737
40
0.10219584818056202
40
0.13680270603413885
40
0.1716780189614244
40
0.20682165625533155
40
0.24223354786483275
40
0.27791365186769568
40
0.31386194118047311
40
0.35007839729149182
40
0.38656300698750606
40
0.4233157605071553
40
0.46033665043455541
40
0.49762567100339589
40
0.49762567100339589
40
0.49762567100339589
40
0.49762567100339589
10
-24.510798457346013
20
34.780097464259121
30
0
10
-24.526914929012538
20
34.798811385011511
30
0
10
-24.617968816242843
20
34.90279944190145
30
0
10
-24.795550679313905
20
35.083008276130251
30
0
10
-25.044947611297317
20
35.319036814560626
30
0
10
-25.305547345276118
20
35.546894447861149
30
0
10
-25.575222897361421
20
35.76810426139572
30
0
10
-25.853361226660855
20
35.98300004976744
30
0
10
-26.139269045989863
20
36.192006329081977
30
0
10
-26.432476105690501
20
36.395380765196933
30
0
10
-26.732582631435786
20
36.593335931966749
30
0
10
-27.039268380360312
20
36.786019426071384
30
0
10
-27.352236269401907
20
36.973593389088109
30
0
10
-27.671319808640046
20
37.156011552830741
30
0
10
-27.996031945330291
20
37.333891935030607
30
0
10
-28.216035434398385
20
37.447721362278926
30
0
10
-28.326434095549935
20
37.504841439879023
30
0
0
ARC
5
231
100
AcDbEntity
8
0
100
AcDbCircle
10
0
20
0
30
0
40
47
100
AcDbArc
50
127.06280486938681
51
128.93719513061296
0
SPLINE
5
232
100
AcDbEntity
8
0
100
AcDbSpline
70
1064
71
3
72
21
73
17
74
0
42
0.000000001
43
0.0000000001
44
0.0000000001
40
-0.49762567100339589
40
-0.49762567100339589
40
-0.49762567100339589
40
-0.49762567100339589
40
-0.46033665043455541
40
-0.4233157605071553
40
-0.38656300698750606
40
-0.35007839729149182
40
-0.31386194118047311
40
-0.27791365186769568
40
-0.24223354786483275
40
-0.20682165625533155
40
-0.1716780189614244
40
-0.13680270603413885
40
-0.10219584818056202
40
-0.067857735880127737
40
-0.033789267599794573
40
-0.026378154802741707
40
-0.026378154802741707
40
-0.026378154802741707
40
-0.026378154802741707
10
-29.538002731799011
20
36.558260278851279
30
0
10
-29.50928721799653
20
36.437322332299523
30
0
10
-29.452062672326935
20
36.196316056276004
30
0
10
-29.358021073322384
20
35.838216098523723
30
0
10
-29.258214803314935
20
35.484479756111512
30
0
10
-29.151926373617933
20
35.135430102214684
30
0
10
-29.039160400497501
20
34.791239874578899
30
0
10
-28.919687687776623
20
34.452158106032009
30
0
10
-28.793287549266473
20
34.118459819989091
30
0
10
-28.659657011301579
20
33.790481489501261
30
0
10
-28.518432298112828
20
33.4686170607892
30
0
10
-28.369033782187287
20
33.153436527704173
30
0
10
-28.210989276033345
20
32.845453968980969
30
0
10
-28.042306372457347
20
32.546364720298421
30
0
10
-27.910411451706242
20
32.330461334716006
30
0
10
-27.831540213522668
20
32.21695514923308
30
0
10
-27.817281103570693
20
32.196790098469883
30
0
0
ARC
5
233
100
AcDbEntity
8
0
100
AcDbCircle
10
0
20
0
30
0
40
42.549199999999985
100
AcDbArc
50
130.82625586391353
51
133.1737441360865
0
LINE
5
234
100
AcDbEntity
8
0
100
AcDbLine
10
-29.112715067464162
20
31.030376118259447
30
0
11
-27.25940530673693
21
29.054988429212241
31
0
0
ARC
5
235
100
AcDbEntity
8
0
100
AcDbCircle
10
-24.790309211868159
20
24.707165471190166
30
0
40
5.0000000000000009
100
AcDbArc
50
20.74947785114578
51
119.59191840146845
0
LINE
5
236
100
AcDbEntity
8
0
100
AcDbLine
10
-20.114617019977253
20
26.478578050656179
30
0
11
-19.934571995794201
21
26.29853302647313
31
0
0
ARC
5
237
100
AcDbEntity
8
0
100
AcDbCircle
10
0
20
0
30
0
40
33
100
AcDbArc
50
52.837479763084275
51
127.16252023691573
0
LINE
5
238
100
AcDbEntity
8
0
100
AcDbLine
10
19.934571995794204
20
26.298533026473123
30
0
11
20.114617019977253
21
26.478578050656179
31
0
0
ARC
5
239
100
AcDbEntity
8
0
100
AcDbCircle
10
24.790309211868156
20
24.707165471190162
30
0
40
4.9999999999999991
100
AcDbArc
50
-72.346875510101441
51
159.25052214885417
0
LINE
5
240
100
AcDbEntity
8
0
100
AcDbLine
10
26.306576994010264
20
19.942615963331328
30
0
11
26.29853302647313
21
19.934571995794201
31
0
0
ARC
5
241
100
AcDbEntity
8
0
100
AcDbCircle
10
0
20
0
30
0
40
33
100
AcDbArc
50
-37.162520236915718
51
37.162520236915711
0
LINE
5
242
100
AcDbEntity
8
0
100
AcDbLine
10
26.298533026473123
20
-19.934571995794204
30
0
11
26.306576994010264
21
-19.942615963331328
31
0
0
ARC
5
243
100
AcDbEntity
8
0
100
AcDbCircle
10
24.790309211868156
20
-24.707165471190162
30
0
40
4.9999999999999982
100
AcDbArc
50
-159.25052214885417
51
72.346875510101441
0
LINE
5
244
100
AcDbEntity
8
0
100
AcDbLine
10
20.114617019977253
20
-26.478578050656179
30
0
11
19.934571995794201
21
-26.298533026473123
31
0
0
ARC
5
245
100
AcDbEntity
8
0
100
AcDbCircle
10
0
20
0
30
0
40
33
100
AcDbArc
50
232.83747976308427
51
307.16252023691573
0
LINE
5
246
100
AcDbEntity
8
0
100
AcDbLine
10
-19.934571995794201
20
-26.298533026473123
30
0
11
-20.114617019977246
21
-26.478578050656182
31
0
0
ARC
5
247
100
AcDbEntity
8
0
100
AcDbCircle
10
-24.790309211868156
20
-24.707165471190176
30
0
40
4.9999999999999938
100
AcDbArc
50
240.40808159853091
51
339.25052214885432
0
ENDSEC
0
SECTION
2
OBJECTS
0
DICTIONARY
5
C
100
AcDbDictionary
3
ACAD_GROUP
350
D
3
ACAD_MLINESTYLE
350
17
0
DICTIONARY
5
D
100
AcDbDictionary
0
DICTIONARY
5
1A
330
C
100
AcDbDictionary
0
DICTIONARY
5
17
100
AcDbDictionary
0
ENDSEC
0
EOF
