0
SECTION
2
HEADER
9
$INSUNITS
70
4
9
$ACADVER
1
AC1014
9
$HANDSEED
5
FFFF
0
ENDSEC
0
SECTION
2
TABLES
0
TABLE
2
VPORT
5
8
100
AcDbSymbolTable
0
ENDTAB
0
TABLE
2
LTYPE
5
5
100
AcDbSymbolTable
0
LTYPE
5
14
100
AcDbSymbolTableRecord
100
AcDbLinetypeTableRecord
2
BYBLOCK
70
0
0
LTYPE
5
15
100
AcDbSymbolTableRecord
100
AcDbLinetypeTableRecord
2
BYLAYER
70
0
0
ENDTAB
0
TABLE
2
LAYER
5
2
100
AcDbSymbolTable
70
2
0
LAYER
5
50
100
AcDbSymbolTableRecord
100
AcDbLayerTableRecord
2
0
70
0
6
CONTINUOUS
0
ENDTAB
0
TABLE
2
STYLE
5
3
100
AcDbSymbolTable
70
1
0
STYLE
5
11
100
AcDbSymbolTableRecord
100
AcDbTextStyleTableRecord
2
STANDARD
70
0
0
ENDTAB
0
TABLE
2
VIEW
5
6
100
AcDbSymbolTable
70
0
0
ENDTAB
0
TABLE
2
UCS
5
7
100
AcDbSymbolTable
70
0
0
ENDTAB
0
TABLE
2
APPID
5
9
100
AcDbSymbolTable
70
2
0
APPID
5
12
100
AcDbSymbolTableRecord
100
AcDbRegAppTableRecord
2
ACAD
70
0
0
ENDTAB
0
TABLE
2
DIMSTYLE
5
A
100
AcDbSymbolTable
70
1
0
ENDTAB
0
TABLE
2
BLOCK_RECORD
5
1
100
AcDbSymbolTable
70
1
0
BLOCK_RECORD
5
1F
100
AcDbSymbolTableRecord
100
AcDbBlockTableRecord
2
*MODEL_SPACE
0
BLOCK_RECORD
5
1B
100
AcDbSymbolTableRecord
100
AcDbBlockTableRecord
2
*PAPER_SPACE
0
ENDTAB
0
ENDSEC
0
SECTION
2
BLOCKS
0
BLOCK
5
20
100
AcDbEntity
100
AcDbBlockBegin
2
*MODEL_SPACE
0
ENDBLK
5
21
100
AcDbEntity
100
AcDbBlockEnd
0
BLOCK
5
1C
100
AcDbEntity
100
AcDbBlockBegin
2
*PAPER_SPACE
0
ENDBLK
5
1D
100
AcDbEntity
100
AcDbBlockEnd
0
ENDSEC
0
SECTION
2
ENTITIES
0
ARC
5
100
100
AcDbEntity
8
0
100
AcDbCircle
10
0
20
0
30
0
40
5.5492000000000008
100
AcDbArc
50
331.85985568249413
51
343.14014431750587
0
ARC
5
101
100
AcDbEntity
8
0
100
AcDbCircle
10
5.789187416834336
20
-1.7544599433349877
30
0
40
0.5
100
AcDbArc
50
77.955433125200415
51
163.14014431750576
0
LINE
5
102
100
AcDbEntity
8
0
100
AcDbLine
10
5.893523651286837
20
-1.2654671517927476
30
0
11
7.3504166553279173
21
-1.5763239428763618
31
0
0
SPLINE
5
103
100
AcDbEntity
8
0
100
AcDbSpline
70
1064
71
5
72
81
73
75
74
0
42
0.000000001
43
0.0000000001
44
0.0000000001
40
0
40
0
40
0
40
0
40
0
40
0
40
0.014285714285714285
40
0.028571428571428571
40
0.042857142857142858
40
0.057142857142857141
40
0.071428571428571425
40
0.085714285714285715
40
0.10000000000000001
40
0.1142857142857143
40
0.12857142857142859
40
0.14285714285714288
40
0.15714285714285717
40
0.17142857142857146
40
0.18571428571428575
40
0.20000000000000004
40
0.21428571428571433
40
0.22857142857142862
40
0.24285714285714291
40
0.25714285714285717
40
0.27142857142857146
40
0.28571428571428575
40
0.30000000000000004
40
0.31428571428571433
40
0.32857142857142863
40
0.34285714285714292
40
0.35714285714285721
40
0.3714285714285715
40
0.38571428571428579
40
0.40000000000000008
40
0.41428571428571437
40
0.42857142857142866
40
0.44285714285714295
40
0.45714285714285724
40
0.47142857142857153
40
0.48571428571428582
40
0.50000000000000011
40
0.51428571428571435
40
0.52857142857142858
40
0.54285714285714282
40
0.55714285714285705
40
0.57142857142857129
40
0.58571428571428552
40
0.59999999999999976
40
0.61428571428571399
40
0.62857142857142823
40
0.64285714285714246
40
0.6571428571428567
40
0.67142857142857093
40
0.68571428571428517
40
0.6999999999999994
40
0.71428571428571364
40
0.72857142857142787
40
0.74285714285714211
40
0.75714285714285634
40
0.77142857142857058
40
0.78571428571428481
40
0.79999999999999905
40
0.81428571428571328
40
0.82857142857142752
40
0.84285714285714175
40
0.85714285714285599
40
0.87142857142857022
40
0.88571428571428445
40
0.89999999999999869
40
0.91428571428571292
40
0.92857142857142716
40
0.94285714285714139
40
0.95714285714285563
40
0.97142857142856986
40
0.9857142857142841
40
1
40
1
40
1
40
1
40
1
40
1
10
7.3504166553279173
20
-1.5763239428763618
30
0
10
7.3577522663391211
20
-1.5778891398354078
30
0
10
7.3724460366200883
20
-1.5807416183153575
30
0
10
7.3945543365401987
20
-1.5841866056360758
30
0
10
7.4241647089155514
20
-1.5871964022231178
30
0
10
7.4613823905055376
20
-1.5888046987521629
30
0
10
7.4987822941445614
20
-1.5888718198470246
30
0
10
7.5363392297792018
20
-1.5879975839323224
30
0
10
7.5740290364192955
20
-1.5866119183449887
30
0
10
7.611831500542678
20
-1.5848650894241905
30
0
10
7.6497296304730984
20
-1.5827280754675184
30
0
10
7.6877094408067581
20
-1.5800661052852516
30
0
10
7.7257595357949391
20
-1.5767174143161116
30
0
10
7.7638707958922906
20
-1.57258174976065
30
0
10
7.8020359756549595
20
-1.5676641587268856
30
0
10
7.8402492280526923
20
-1.5620293956771902
30
0
10
7.8785056269946256
20
-1.5557748039285757
30
0
10
7.916800725785162
20
-1.5489984086976127
30
0
10
7.9551300183511557
20
-1.5417628507456564
30
0
10
7.9934887590075245
20
-1.5340850093125844
30
0
10
8.031872169381403
20
-1.525955392447933
30
0
10
8.0702755484990831
20
-1.5173500405009641
30
0
10
8.1086944091806643
20
-1.5082443113551378
30
0
10
8.1471246355409406
20
-1.498628713840704
30
0
10
8.1855624889753038
20
-1.4885112359209831
30
0
10
8.2240044993409391
20
-1.4779095121086439
30
0
10
8.2624473878743707
20
-1.4668458188882649
30
0
10
8.3008879834484279
20
-1.4553413864748697
30
0
10
8.3393231263406058
20
-1.4434098240295565
30
0
10
8.377749655761793
20
-1.4310568944453812
30
0
10
8.4161644428325904
20
-1.4182837531519028
30
0
10
8.4545644103118871
20
-1.4050891779787489
30
0
10
8.492946555812658
20
-1.3914720233953024
30
0
10
8.5313079791951445
20
-1.3774340712849031
30
0
10
8.5696458780451934
20
-1.36297999534181
30
0
10
8.6079575289419097
20
-1.3481160474261644
30
0
10
8.6462402732578063
20
-1.3328491281942134
30
0
10
8.6844915021362894
20
-1.3171857811858847
30
0
10
8.7227086401195013
20
-1.3011310211641556
30
0
10
8.7608891410911625
20
-1.2846883900920223
30
0
10
8.7990304895910949
20
-1.2678605213942118
30
0
10
8.8371302006234824
20
-1.2506495553690888
30
0
10
8.8751858205051697
20
-1.2330575830103856
30
0
10
8.9131949274051276
20
-1.2150871706249375
30
0
10
8.9511551334219455
20
-1.1967413551149755
30
0
10
8.9890640870648433
20
-1.1780234048183738
30
0
10
9.0269194765178948
20
-1.1589366521932589
30
0
10
9.0647190318295028
20
-1.1394843148115457
30
0
10
9.1024605309612472
20
-1.1196692855223469
30
0
10
9.1401417901734447
20
-1.0994941301128722
30
0
10
9.1777606470025521
20
-1.0789611996295567
30
0
10
9.2153149446913272
20
-1.0580727128358682
30
0
10
9.2528025193437031
20
-1.0368308448451646
30
0
10
9.290221179310107
20
-1.0152378370888475
30
0
10
9.3275687189271661
20
-0.99329600716100697
30
0
10
9.3648429559199986
20
-0.97100768385544545
30
0
10
9.402041765353049
20
-0.94837516429082058
30
0
10
9.439163109058935
20
-0.9254006695306104
30
0
10
9.4762050836298446
20
-0.90208629094272719
30
0
10
9.5131659008006348
20
-0.87843398989111099
30
0
10
9.550043794370497
20
-0.85444565794850436
30
0
10
9.5868369419239379
20
-0.8301231661104711
30
0
10
9.6235433920605669
20
-0.80546841471217867
30
0
10
9.6601609633940164
20
-0.78048340043568198
30
0
10
9.6966872442901266
20
-0.75517022861581373
30
0
10
9.7331197927033148
20
-0.7295310130488285
30
0
10
9.7694562971487695
20
-0.70356780130439656
30
0
10
9.8056947465038959
20
-0.67728249375341854
30
0
10
9.841833614855986
20
-0.65067676372578465
30
0
10
9.8778719877006225
20
-0.62375199072719922
30
0
10
9.9138093927406814
20
-0.59650925886094841
30
0
10
9.942478416303727
20
-0.57446132997050769
30
0
10
9.963934683737012
20
-0.55778286454654147
30
0
10
9.9782186464592169
20
-0.54660056695916215
30
0
10
9.9853555739260518
20
-0.54099358800630748
30
0
0
ARC
5
104
100
AcDbEntity
8
0
100
AcDbCircle
10
0
20
0
30
0
40
10.000000000000002
100
AcDbArc
50
-3.1011789143314958
51
3.1011789143313608
0
SPLINE
5
105
100
AcDbEntity
8
0
100
AcDbSpline
70
1064
71
5
72
81
73
75
74
0
42
0.000000001
43
0.0000000001
44
0.0000000001
40
-1
40
-1
40
-1
40
-1
40
-1
40
-1
40
-0.9857142857142841
40
-0.97142857142856986
40
-0.95714285714285563
40
-0.94285714285714139
40
-0.92857142857142716
40
-0.91428571428571292
40
-0.89999999999999869
40
-0.88571428571428445
40
-0.87142857142857022
40
-0.85714285714285599
40
-0.84285714285714175
40
-0.82857142857142752
40
-0.81428571428571328
40
-0.79999999999999905
40
-0.78571428571428481
40
-0.77142857142857058
40
-0.75714285714285634
40
-0.74285714285714211
40
-0.72857142857142787
40
-0.71428571428571364
40
-0.6999999999999994
40
-0.68571428571428517
40
-0.67142857142857093
40
-0.6571428571428567
40
-0.64285714285714246
40
-0.62857142857142823
40
-0.61428571428571399
40
-0.59999999999999976
40
-0.58571428571428552
40
-0.57142857142857129
40
-0.55714285714285705
40
-0.54285714285714282
40
-0.52857142857142858
40
-0.51428571428571435
40
-0.50000000000000011
40
-0.48571428571428582
40
-0.47142857142857153
40
-0.45714285714285724
40
-0.44285714285714295
40
-0.42857142857142866
40
-0.41428571428571437
40
-0.40000000000000008
40
-0.38571428571428579
40
-0.3714285714285715
40
-0.35714285714285721
40
-0.34285714285714292
40
-0.32857142857142863
40
-0.31428571428571433
40
-0.30000000000000004
40
-0.28571428571428575
40
-0.27142857142857146
40
-0.25714285714285717
40
-0.24285714285714291
40
-0.22857142857142862
40
-0.21428571428571433
40
-0.20000000000000004
40
-0.18571428571428575
40
-0.17142857142857146
40
-0.15714285714285717
40
-0.14285714285714288
40
-0.12857142857142859
40
-0.1142857142857143
40
-0.10000000000000001
40
-0.085714285714285715
40
-0.071428571428571425
40
-0.057142857142857141
40
-0.042857142857142858
40
-0.028571428571428571
40
-0.014285714285714285
40
-0
40
-0
40
-0
40
-0
40
-0
40
-0
10
9.9853555739260518
20
0.54099358800630748
30
0
10
9.9782186464592169
20
0.54660056695916215
30
0
10
9.963934683737012
20
0.55778286454654147
30
0
10
9.942478416303727
20
0.57446132997050769
30
0
10
9.9138093927406814
20
0.59650925886094841
30
0
10
9.8778719877006225
20
0.62375199072719922
30
0
10
9.841833614855986
20
0.65067676372578465
30
0
10
9.8056947465038959
20
0.67728249375341854
30
0
10
9.7694562971487695
20
0.70356780130439656
30
0
10
9.7331197927033148
20
0.7295310130488285
30
0
10
9.6966872442901266
20
0.75517022861581373
30
0
10
9.6601609633940164
20
0.78048340043568198
30
0
10
9.6235433920605669
20
0.80546841471217867
30
0
10
9.5868369419239379
20
0.8301231661104711
30
0
10
9.550043794370497
20
0.85444565794850436
30
0
10
9.5131659008006348
20
0.87843398989111099
30
0
10
9.4762050836298446
20
0.90208629094272719
30
0
10
9.439163109058935
20
0.9254006695306104
30
0
10
9.402041765353049
20
0.94837516429082058
30
0
10
9.3648429559199986
20
0.97100768385544545
30
0
10
9.3275687189271661
20
0.99329600716100697
30
0
10
9.290221179310107
20
1.0152378370888475
30
0
10
9.2528025193437031
20
1.0368308448451646
30
0
10
9.2153149446913272
20
1.0580727128358682
30
0
10
9.1777606470025521
20
1.0789611996295567
30
0
10
9.1401417901734447
20
1.0994941301128722
30
0
10
9.1024605309612472
20
1.1196692855223469
30
0
10
9.0647190318295028
20
1.1394843148115457
30
0
10
9.0269194765178948
20
1.1589366521932589
30
0
10
8.9890640870648433
20
1.1780234048183738
30
0
10
8.9511551334219455
20
1.1967413551149755
30
0
10
8.9131949274051276
20
1.2150871706249375
30
0
10
8.8751858205051697
20
1.2330575830103856
30
0
10
8.8371302006234824
20
1.2506495553690888
30
0
10
8.7990304895910949
20
1.2678605213942118
30
0
10
8.7608891410911625
20
1.2846883900920223
30
0
10
8.7227086401195013
20
1.3011310211641556
30
0
10
8.6844915021362894
20
1.3171857811858847
30
0
10
8.6462402732578063
20
1.3328491281942134
30
0
10
8.6079575289419097
20
1.3481160474261644
30
0
10
8.5696458780451934
20
1.36297999534181
30
0
10
8.5313079791951445
20
1.3774340712849031
30
0
10
8.492946555812658
20
1.3914720233953024
30
0
10
8.4545644103118871
20
1.4050891779787489
30
0
10
8.4161644428325904
20
1.4182837531519028
30
0
10
8.377749655761793
20
1.4310568944453812
30
0
10
8.3393231263406058
20
1.4434098240295565
30
0
10
8.3008879834484279
20
1.4553413864748697
30
0
10
8.2624473878743707
20
1.4668458188882649
30
0
10
8.2240044993409391
20
1.4779095121086439
30
0
10
8.1855624889753038
20
1.4885112359209831
30
0
10
8.1471246355409406
20
1.498628713840704
30
0
10
8.1086944091806643
20
1.5082443113551378
30
0
10
8.0702755484990831
20
1.5173500405009641
30
0
10
8.031872169381403
20
1.525955392447933
30
0
10
7.9934887590075245
20
1.5340850093125844
30
0
10
7.9551300183511557
20
1.5417628507456564
30
0
10
7.916800725785162
20
1.5489984086976127
30
0
10
7.8785056269946256
20
1.5557748039285757
30
0
10
7.8402492280526923
20
1.5620293956771902
30
0
10
7.8020359756549595
20
1.5676641587268856
30
0
10
7.7638707958922906
20
1.57258174976065
30
0
10
7.7257595357949391
20
1.5767174143161116
30
0
10
7.6877094408067581
20
1.5800661052852516
30
0
10
7.6497296304730984
20
1.5827280754675184
30
0
10
7.611831500542678
20
1.5848650894241905
30
0
10
7.5740290364192955
20
1.5866119183449887
30
0
10
7.5363392297792018
20
1.5879975839323224
30
0
10
7.4987822941445614
20
1.5888718198470246
30
0
10
7.4613823905055376
20
1.5888046987521629
30
0
10
7.4241647089155514
20
1.5871964022231178
30
0
10
7.3945543365401987
20
1.5841866056360758
30
0
10
7.3724460366200883
20
1.5807416183153575
30
0
10
7.3577522663391211
20
1.5778891398354078
30
0
10
7.3504166553279173
20
1.5763239428763618
30
0
0
LINE
5
106
100
AcDbEntity
8
0
100
AcDbLine
10
7.3504166553279155
20
1.5763239428763618
30
0
11
5.893523651286837
21
1.2654671517927476
31
0
0
ARC
5
107
100
AcDbEntity
8
0
100
AcDbCircle
10
5.789187416834336
20
1.7544599433349877
30
0
40
0.49999999999999956
100
AcDbArc
50
196.85985568249416
51
282.04456687479961
0
ARC
5
108
100
AcDbEntity
8
0
100
AcDbCircle
10
0
20
0
30
0
40
5.5492000000000017
100
AcDbArc
50
16.859855682494182
51
28.140144317505804
0
ARC
5
109
100
AcDbEntity
8
0
100
AcDbCircle
10
5.3341642032557264
20
2.8529831567510557
30
0
40
0.49999999999999978
100
AcDbArc
50
122.95543312520044
51
208.14014431750587
0
LINE
5
110
100
AcDbEntity
8
0
100
AcDbLine
10
5.0621709433097015
20
3.2725301345067459
30
0
11
6.3121588108835027
21
4.0829001121743218
31
0
0
SPLINE
5
111
100
AcDbEntity
8
0
100
AcDbSpline
70
1064
71
5
72
81
73
75
74
0
42
0.000000001
43
0.0000000001
44
0.0000000001
40
0
40
0
40
0
40
0
40
0
40
0
40
0.014285714285714285
40
0.028571428571428571
40
0.042857142857142858
40
0.057142857142857141
40
0.071428571428571425
40
0.085714285714285715
40
0.10000000000000001
40
0.1142857142857143
40
0.12857142857142859
40
0.14285714285714288
40
0.15714285714285717
40
0.17142857142857146
40
0.18571428571428575
40
0.20000000000000004
40
0.21428571428571433
40
0.22857142857142862
40
0.24285714285714291
40
0.25714285714285717
40
0.27142857142857146
40
0.28571428571428575
40
0.30000000000000004
40
0.31428571428571433
40
0.32857142857142863
40
0.34285714285714292
40
0.35714285714285721
40
0.3714285714285715
40
0.38571428571428579
40
0.40000000000000008
40
0.41428571428571437
40
0.42857142857142866
40
0.44285714285714295
40
0.45714285714285724
40
0.47142857142857153
40
0.48571428571428582
40
0.50000000000000011
40
0.51428571428571435
40
0.52857142857142858
40
0.54285714285714282
40
0.55714285714285705
40
0.57142857142857129
40
0.58571428571428552
40
0.59999999999999976
40
0.61428571428571399
40
0.62857142857142823
40
0.64285714285714246
40
0.6571428571428567
40
0.67142857142857093
40
0.68571428571428517
40
0.6999999999999994
40
0.71428571428571364
40
0.72857142857142787
40
0.74285714285714211
40
0.75714285714285634
40
0.77142857142857058
40
0.78571428571428481
40
0.79999999999999905
40
0.81428571428571328
40
0.82857142857142752
40
0.84285714285714175
40
0.85714285714285599
40
0.87142857142857022
40
0.88571428571428445
40
0.89999999999999869
40
0.91428571428571292
40
0.92857142857142716
40
0.94285714285714139
40
0.95714285714285563
40
0.97142857142856986
40
0.9857142857142841
40
1
40
1
40
1
40
1
40
1
40
1
10
6.3121588108835027
20
4.0829001121743218
30
0
10
6.3184526325573067
20
4.086980411080857
30
0
10
6.3308597040405363
20
4.0953534688113642
30
0
10
6.3489286067301345
20
4.1085504237097989
30
0
10
6.371994549406895
20
4.12735987123318
30
0
10
6.3994486618210624
20
4.1525395088836534
30
0
10
6.4259418490812763
20
4.178937772581194
30
0
10
6.4518804348054744
20
4.2061127145926775
30
0
10
6.4775513391290325
20
4.2337432459827582
30
0
10
6.5030465232807702
20
4.2617088192854329
30
0
10
6.5283334508886064
20
4.2900179410137742
30
0
10
6.5533069351565185
20
4.3187560196160817
30
0
10
6.5778445332550763
20
4.3480293818993943
30
0
10
6.6018689072575976
20
4.3779024688056749
30
0
10
6.6253785027059076
20
4.4083665881881382
30
0
10
6.6484149734447184
20
4.4393718172525878
30
0
10
6.6710436683213379
20
4.4708458406072049
30
0
10
6.6933307573425216
20
4.5027161996680167
30
0
10
6.7153173479405224
20
4.5349354144530105
30
0
10
6.737012019834216
20
4.5674881938311049
30
0
10
6.7584046823812098
20
4.6003778708049845
30
0
10
6.7794750694595995
20
4.6336180633157724
30
0
10
6.8002025835463442
20
4.6672230230558407
30
0
10
6.8205776030006131
20
4.7011965509253431
30
0
10
6.8406031325727668
20
4.7355303549885752
30
0
10
6.8602891879847805
20
4.770209512000533
30
0
10
6.8796492026540692
20
4.8052159516720172
30
0
10
6.8986959462841213
20
4.8405324196484969
30
0
10
6.9174368077438224
20
4.8761470585386615
30
0
10
6.9358736269985179
20
4.9120535583463374
30
0
10
6.9540050086084442
20
4.9482488896076084
30
0
10
6.9718279124305838
20
4.9847317405893756
30
0
10
6.9893394054442481
20
5.0215007982958788
30
0
10
7.0065386969227372
20
5.0585527520368387
30
0
10
7.0234271100609043
20
5.0958823154052997
30
0
10
7.0400071398420669
20
5.1334831419191751
30
0
10
7.0562817858335283
20
5.1713484721441176
30
0
10
7.0722538302765559
20
5.2094718343584763
30
0
10
7.0879249980203394
20
5.2478478614656376
30
0
10
7.1032959932348465
20
5.2864722485434514
30
0
10
7.1183668993336093
20
5.3253413547804929
30
0
10
7.1331374725787233
20
5.3644519095998771
30
0
10
7.1476074565100358
20
5.4038006994297616
30
0
10
7.1617769532873705
20
5.4433841971240335
30
0
10
7.1756464218236093
20
5.4831985667672569
30
0
10
7.1892165104275492
20
5.5232398345404752
30
0
10
7.2024879408022127
20
5.5635040093392352
30
0
10
7.2154613830163488
20
5.6039872108984472
30
0
10
7.2281373114047476
20
5.6446858224464522
30
0
10
7.2405159961158088
20
5.685596485560577
30
0
10
7.2525975704977705
20
5.7267160087073083
30
0
10
7.2643820783956601
20
5.768041297926283
30
0
10
7.2758695277412953
20
5.8095692850745095
30
0
10
7.2870599537357474
20
5.8512968354903734
30
0
10
7.2979534355259856
20
5.8932207507478482
30
0
10
7.3085500767165312
20
5.9353378410396749
30
0
10
7.3188499990592248
20
5.9776449795013349
30
0
10
7.3288533318811329
20
6.0201391544018037
30
0
10
7.3385602080901204
20
6.0628175410080747
30
0
10
7.3479707500855191
20
6.1056774879320006
30
0
10
7.3570850465186748
20
6.1487164087370969
30
0
10
7.3659031317408816
20
6.1919316917873601
30
0
10
7.3744249696435746
20
6.2353206134944568
30
0
10
7.3826504296210862
20
6.278880219517875
30
0
10
7.3905792950870817
20
6.3226073158782086
30
0
10
7.3982113339342348
20
6.3664986811087996
30
0
10
7.4055463595463618
20
6.4105512328926659
30
0
10
7.4125842936101858
20
6.4547622053862312
30
0
10
7.4193252403653984
20
6.4991293363833602
30
0
10
7.425769528617562
20
6.5436510037739399
30
0
10
7.4319175909789621
20
6.5883261070166874
30
0
10
7.436599411920839
20
6.6241884080176625
30
0
10
7.4399778281207958
20
6.6511537362197624
30
0
10
7.4421710365706009
20
6.6691611015761314
30
0
10
7.4432528735397021
20
6.6781724042243003
30
0
0
ARC
5
112
100
AcDbEntity
8
0
100
AcDbCircle
10
0
20
0
30
0
40
10
100
AcDbArc
50
41.898821085668523
51
48.101178914331413
0
SPLINE
5
113
100
AcDbEntity
8
0
100
AcDbSpline
70
1064
71
5
72
81
73
75
74
0
42
0.000000001
43
0.0000000001
44
0.0000000001
40
-1
40
-1
40
-1
40
-1
40
-1
40
-1
40
-0.9857142857142841
40
-0.97142857142856986
40
-0.95714285714285563
40
-0.94285714285714139
40
-0.92857142857142716
40
-0.91428571428571292
40
-0.89999999999999869
40
-0.88571428571428445
40
-0.87142857142857022
40
-0.85714285714285599
40
-0.84285714285714175
40
-0.82857142857142752
40
-0.81428571428571328
40
-0.79999999999999905
40
-0.78571428571428481
40
-0.77142857142857058
40
-0.75714285714285634
40
-0.74285714285714211
40
-0.72857142857142787
40
-0.71428571428571364
40
-0.6999999999999994
40
-0.68571428571428517
40
-0.67142857142857093
40
-0.6571428571428567
40
-0.64285714285714246
40
-0.62857142857142823
40
-0.61428571428571399
40
-0.59999999999999976
40
-0.58571428571428552
40
-0.57142857142857129
40
-0.55714285714285705
40
-0.54285714285714282
40
-0.52857142857142858
40
-0.51428571428571435
40
-0.50000000000000011
40
-0.48571428571428582
40
-0.47142857142857153
40
-0.45714285714285724
40
-0.44285714285714295
40
-0.42857142857142866
40
-0.41428571428571437
40
-0.40000000000000008
40
-0.38571428571428579
40
-0.3714285714285715
40
-0.35714285714285721
40
-0.34285714285714292
40
-0.32857142857142863
40
-0.31428571428571433
40
-0.30000000000000004
40
-0.28571428571428575
40
-0.27142857142857146
40
-0.25714285714285717
40
-0.24285714285714291
40
-0.22857142857142862
40
-0.21428571428571433
40
-0.20000000000000004
40
-0.18571428571428575
40
-0.17142857142857146
40
-0.15714285714285717
40
-0.14285714285714288
40
-0.12857142857142859
40
-0.1142857142857143
40
-0.10000000000000001
40
-0.085714285714285715
40
-0.071428571428571425
40
-0.057142857142857141
40
-0.042857142857142858
40
-0.028571428571428571
40
-0.014285714285714285
40
-0
40
-0
40
-0
40
-0
40
-0
40
-0
10
6.6781724042242994
20
7.443252873539703
30
0
10
6.6691611015761296
20
7.4421710365706017
30
0
10
6.6511537362197615
20
7.4399778281207976
30
0
10
6.6241884080176616
20
7.4365994119208398
30
0
10
6.5883261070166865
20
7.4319175909789639
30
0
10
6.543651003773939
20
7.4257695286175629
30
0
10
6.4991293363833593
20
7.4193252403653993
30
0
10
6.4547622053862295
20
7.4125842936101876
30
0
10
6.410551232892665
20
7.4055463595463635
30
0
10
6.3664986811087987
20
7.3982113339342357
30
0
10
6.3226073158782068
20
7.3905792950870826
30
0
10
6.2788802195178741
20
7.3826504296210871
30
0
10
6.2353206134944559
20
7.3744249696435755
30
0
10
6.1919316917873592
20
7.3659031317408825
30
0
10
6.148716408737096
20
7.3570850465186757
30
0
10
6.1056774879319997
20
7.3479707500855209
30
0
10
6.0628175410080729
20
7.3385602080901213
30
0
10
6.0201391544018019
20
7.3288533318811346
30
0
10
5.9776449795013331
20
7.3188499990592248
30
0
10
5.935337841039674
20
7.3085500767165321
30
0
10
5.8932207507478473
20
7.2979534355259865
30
0
10
5.8512968354903725
20
7.2870599537357483
30
0
10
5.8095692850745086
20
7.2758695277412961
30
0
10
5.7680412979262821
20
7.264382078395661
30
0
10
5.7267160087073075
20
7.2525975704977714
30
0
10
5.6855964855605752
20
7.2405159961158096
30
0
10
5.6446858224464513
20
7.2281373114047485
30
0
10
5.6039872108984472
20
7.2154613830163488
30
0
10
5.5635040093392343
20
7.2024879408022109
30
0
10
5.5232398345404743
20
7.1892165104275509
30
0
10
5.4831985667672551
20
7.1756464218236102
30
0
10
5.4433841971240327
20
7.1617769532873723
30
0
10
5.4038006994297607
20
7.1476074565100367
30
0
10
5.3644519095998771
20
7.1331374725787233
30
0
10
5.325341354780492
20
7.1183668993336102
30
0
10
5.2864722485434505
20
7.1032959932348474
30
0
10
5.2478478614656368
20
7.0879249980203411
30
0
10
5.2094718343584763
20
7.0722538302765559
30
0
10
5.1713484721441159
20
7.0562817858335292
30
0
10
5.1334831419191742
20
7.0400071398420678
30
0
10
5.0958823154052979
20
7.0234271100609043
30
0
10
5.0585527520368379
20
7.0065386969227381
30
0
10
5.0215007982958788
20
6.9893394054442481
30
0
10
4.9847317405893738
20
6.9718279124305846
30
0
10
4.9482488896076076
20
6.9540050086084442
30
0
10
4.9120535583463374
20
6.9358736269985179
30
0
10
4.8761470585386597
20
6.9174368077438233
30
0
10
4.840532419648496
20
6.8986959462841213
30
0
10
4.8052159516720163
20
6.8796492026540701
30
0
10
4.7702095120005321
20
6.8602891879847814
30
0
10
4.7355303549885743
20
6.8406031325727668
30
0
10
4.7011965509253413
20
6.820577603000614
30
0
10
4.6672230230558398
20
6.8002025835463451
30
0
10
4.6336180633157715
20
6.7794750694595995
30
0
10
4.6003778708049836
20
6.7584046823812107
30
0
10
4.567488193831104
20
6.7370120198342178
30
0
10
4.5349354144530087
20
6.7153173479405233
30
0
10
4.502716199668015
20
6.6933307573425225
30
0
10
4.470845840607204
20
6.6710436683213388
30
0
10
4.4393718172525869
20
6.6484149734447193
30
0
10
4.4083665881881373
20
6.6253785027059084
30
0
10
4.377902468805674
20
6.6018689072575985
30
0
10
4.3480293818993925
20
6.5778445332550772
30
0
10
4.3187560196160808
20
6.5533069351565185
30
0
10
4.2900179410137742
20
6.5283334508886064
30
0
10
4.2617088192854311
20
6.503046523280771
30
0
10
4.2337432459827564
20
6.4775513391290342
30
0
10
4.2061127145926767
20
6.4518804348054744
30
0
10
4.1789377725811931
20
6.4259418490812772
30
0
10
4.1525395088836534
20
6.3994486618210624
30
0
10
4.1273598712331792
20
6.371994549406895
30
0
10
4.1085504237097972
20
6.3489286067301354
30
0
10
4.0953534688113633
20
6.3308597040405363
30
0
10
4.0869804110808552
20
6.3184526325573076
30
0
10
4.08290011217432
20
6.3121588108835036
30
0
0
LINE
5
114
100
AcDbEntity
8
0
100
AcDbLine
10
4.08290011217432
20
6.3121588108835027
30
0
11
3.2725301345067459
21
5.0621709433097024
31
0
0
ARC
5
115
100
AcDbEntity
8
0
100
AcDbCircle
10
2.8529831567510548
20
5.3341642032557264
30
0
40
0.50000000000000022
100
AcDbArc
50
241.85985568249419
51
327.04456687479973
0
ARC
5
116
100
AcDbEntity
8
0
100
AcDbCircle
10
0
20
0
30
0
40
5.5492000000000008
100
AcDbArc
50
61.859855682494192
51
73.140144317505857
0
ARC
5
117
100
AcDbEntity
8
0
100
AcDbCircle
10
1.7544599433349859
20
5.789187416834336
30
0
40
0.5
100
AcDbArc
50
167.95543312520041
51
253.1401443175055
0
LINE
5
118
100
AcDbEntity
8
0
100
AcDbLine
10
1.2654671517927456
20
5.893523651286837
30
0
11
1.57632394287636
21
7.3504166553279173
31
0
0
SPLINE
5
119
100
AcDbEntity
8
0
100
AcDbSpline
70
1064
71
5
72
81
73
75
74
0
42
0.000000001
43
0.0000000001
44
0.0000000001
40
0
40
0
40
0
40
0
40
0
40
0
40
0.014285714285714285
40
0.028571428571428571
40
0.042857142857142858
40
0.057142857142857141
40
0.071428571428571425
40
0.085714285714285715
40
0.10000000000000001
40
0.1142857142857143
40
0.12857142857142859
40
0.14285714285714288
40
0.15714285714285717
40
0.17142857142857146
40
0.18571428571428575
40
0.20000000000000004
40
0.21428571428571433
40
0.22857142857142862
40
0.24285714285714291
40
0.25714285714285717
40
0.27142857142857146
40
0.28571428571428575
40
0.30000000000000004
40
0.31428571428571433
40
0.32857142857142863
40
0.34285714285714292
40
0.35714285714285721
40
0.3714285714285715
40
0.38571428571428579
40
0.40000000000000008
40
0.41428571428571437
40
0.42857142857142866
40
0.44285714285714295
40
0.45714285714285724
40
0.47142857142857153
40
0.48571428571428582
40
0.50000000000000011
40
0.51428571428571435
40
0.52857142857142858
40
0.54285714285714282
40
0.55714285714285705
40
0.57142857142857129
40
0.58571428571428552
40
0.59999999999999976
40
0.61428571428571399
40
0.62857142857142823
40
0.64285714285714246
40
0.6571428571428567
40
0.67142857142857093
40
0.68571428571428517
40
0.6999999999999994
40
0.71428571428571364
40
0.72857142857142787
40
0.74285714285714211
40
0.75714285714285634
40
0.77142857142857058
40
0.78571428571428481
40
0.79999999999999905
40
0.81428571428571328
40
0.82857142857142752
40
0.84285714285714175
40
0.85714285714285599
40
0.87142857142857022
40
0.88571428571428445
40
0.89999999999999869
40
0.91428571428571292
40
0.92857142857142716
40
0.94285714285714139
40
0.95714285714285563
40
0.97142857142856986
40
0.9857142857142841
40
1
40
1
40
1
40
1
40
1
40
1
10
1.57632394287636
20
7.3504166553279173
30
0
10
1.5778891398354062
20
7.3577522663391211
30
0
10
1.5807416183153558
20
7.3724460366200883
30
0
10
1.5841866056360743
20
7.3945543365401987
30
0
10
1.5871964022231162
20
7.4241647089155514
30
0
10
1.5888046987521611
20
7.4613823905055376
30
0
10
1.5888718198470231
20
7.4987822941445614
30
0
10
1.5879975839323208
20
7.5363392297792018
30
0
10
1.5866119183449869
20
7.5740290364192955
30
0
10
1.5848650894241889
20
7.611831500542678
30
0
10
1.5827280754675166
20
7.6497296304730984
30
0
10
1.5800661052852498
20
7.6877094408067581
30
0
10
1.57671741431611
20
7.7257595357949391
30
0
10
1.5725817497606485
20
7.7638707958922906
30
0
10
1.5676641587268838
20
7.8020359756549595
30
0
10
1.5620293956771887
20
7.8402492280526923
30
0
10
1.5557748039285739
20
7.8785056269946256
30
0
10
1.548998408697611
20
7.916800725785162
30
0
10
1.5417628507456549
20
7.9551300183511557
30
0
10
1.5340850093125826
20
7.9934887590075245
30
0
10
1.5259553924479312
20
8.031872169381403
30
0
10
1.5173500405009623
20
8.0702755484990831
30
0
10
1.508244311355136
20
8.1086944091806643
30
0
10
1.498628713840702
20
8.1471246355409406
30
0
10
1.4885112359209813
20
8.1855624889753038
30
0
10
1.4779095121086419
20
8.2240044993409391
30
0
10
1.4668458188882629
20
8.2624473878743707
30
0
10
1.4553413864748677
20
8.3008879834484279
30
0
10
1.4434098240295545
20
8.3393231263406058
30
0
10
1.4310568944453792
20
8.377749655761793
30
0
10
1.4182837531519008
20
8.4161644428325904
30
0
10
1.4050891779787469
20
8.4545644103118871
30
0
10
1.3914720233953004
20
8.492946555812658
30
0
10
1.3774340712849011
20
8.5313079791951445
30
0
10
1.3629799953418082
20
8.5696458780451934
30
0
10
1.3481160474261624
20
8.6079575289419097
30
0
10
1.3328491281942114
20
8.6462402732578063
30
0
10
1.3171857811858829
20
8.6844915021362894
30
0
10
1.3011310211641536
20
8.7227086401195013
30
0
10
1.2846883900920203
20
8.7608891410911625
30
0
10
1.2678605213942098
20
8.7990304895910949
30
0
10
1.2506495553690868
20
8.8371302006234824
30
0
10
1.2330575830103836
20
8.8751858205051697
30
0
10
1.2150871706249355
20
8.9131949274051276
30
0
10
1.1967413551149735
20
8.9511551334219455
30
0
10
1.1780234048183718
20
8.9890640870648433
30
0
10
1.1589366521932569
20
9.0269194765178948
30
0
10
1.1394843148115437
20
9.0647190318295028
30
0
10
1.1196692855223449
20
9.1024605309612472
30
0
10
1.0994941301128702
20
9.1401417901734447
30
0
10
1.0789611996295547
20
9.1777606470025521
30
0
10
1.058072712835866
20
9.2153149446913272
30
0
10
1.0368308448451626
20
9.2528025193437031
30
0
10
1.0152378370888455
20
9.290221179310107
30
0
10
0.99329600716100486
20
9.3275687189271661
30
0
10
0.97100768385544334
20
9.3648429559199986
30
0
10
0.94837516429081847
20
9.402041765353049
30
0
10
0.92540066953060829
20
9.439163109058935
30
0
10
0.90208629094272508
20
9.4762050836298446
30
0
10
0.87843398989110888
20
9.5131659008006348
30
0
10
0.85444565794850225
20
9.550043794370497
30
0
10
0.83012316611046899
20
9.5868369419239379
30
0
10
0.80546841471217656
20
9.6235433920605669
30
0
10
0.78048340043567987
20
9.6601609633940164
30
0
10
0.75517022861581151
20
9.6966872442901266
30
0
10
0.72953101304882628
20
9.7331197927033148
30
0
10
0.70356780130439434
20
9.7694562971487695
30
0
10
0.67728249375341631
20
9.8056947465038959
30
0
10
0.65067676372578243
20
9.841833614855986
30
0
10
0.623751990727197
20
9.8778719877006225
30
0
10
0.59650925886094619
20
9.9138093927406814
30
0
10
0.57446132997050547
20
9.942478416303727
30
0
10
0.55778286454653925
20
9.963934683737012
30
0
10
0.54660056695915993
20
9.9782186464592169
30
0
10
0.54099358800630526
20
9.9853555739260518
30
0
0
ARC
5
120
100
AcDbEntity
8
0
100
AcDbCircle
10
0
20
0
30
0
40
10.000000000000002
100
AcDbArc
50
86.898821085668544
51
93.101178914331413
0
SPLINE
5
121
100
AcDbEntity
8
0
100
AcDbSpline
70
1064
71
5
72
81
73
75
74
0
42
0.000000001
43
0.0000000001
44
0.0000000001
40
-1
40
-1
40
-1
40
-1
40
-1
40
-1
40
-0.9857142857142841
40
-0.97142857142856986
40
-0.95714285714285563
40
-0.94285714285714139
40
-0.92857142857142716
40
-0.91428571428571292
40
-0.89999999999999869
40
-0.88571428571428445
40
-0.87142857142857022
40
-0.85714285714285599
40
-0.84285714285714175
40
-0.82857142857142752
40
-0.81428571428571328
40
-0.79999999999999905
40
-0.78571428571428481
40
-0.77142857142857058
40
-0.75714285714285634
40
-0.74285714285714211
40
-0.72857142857142787
40
-0.71428571428571364
40
-0.6999999999999994
40
-0.68571428571428517
40
-0.67142857142857093
40
-0.6571428571428567
40
-0.64285714285714246
40
-0.62857142857142823
40
-0.61428571428571399
40
-0.59999999999999976
40
-0.58571428571428552
40
-0.57142857142857129
40
-0.55714285714285705
40
-0.54285714285714282
40
-0.52857142857142858
40
-0.51428571428571435
40
-0.50000000000000011
40
-0.48571428571428582
40
-0.47142857142857153
40
-0.45714285714285724
40
-0.44285714285714295
40
-0.42857142857142866
40
-0.41428571428571437
40
-0.40000000000000008
40
-0.38571428571428579
40
-0.3714285714285715
40
-0.35714285714285721
40
-0.34285714285714292
40
-0.32857142857142863
40
-0.31428571428571433
40
-0.30000000000000004
40
-0.28571428571428575
40
-0.27142857142857146
40
-0.25714285714285717
40
-0.24285714285714291
40
-0.22857142857142862
40
-0.21428571428571433
40
-0.20000000000000004
40
-0.18571428571428575
40
-0.17142857142857146
40
-0.15714285714285717
40
-0.14285714285714288
40
-0.12857142857142859
40
-0.1142857142857143
40
-0.10000000000000001
40
-0.085714285714285715
40
-0.071428571428571425
40
-0.057142857142857141
40
-0.042857142857142858
40
-0.028571428571428571
40
-0.014285714285714285
40
-0
40
-0
40
-0
40
-0
40
-0
40
-0
10
-0.5409935880063097
20
9.9853555739260518
30
0
10
-0.54660056695916437
20
9.9782186464592169
30
0
10
-0.55778286454654369
20
9.963934683737012
30
0
10
-0.57446132997050992
20
9.942478416303727
30
0
10
-0.59650925886095063
20
9.9138093927406814
30
0
10
-0.62375199072720144
20
9.8778719877006225
30
0
10
-0.65067676372578687
20
9.841833614855986
30
0
10
-0.67728249375342076
20
9.8056947465038959
30
0
10
-0.70356780130439878
20
9.7694562971487695
30
0
10
-0.72953101304883072
20
9.7331197927033148
30
0
10
-0.75517022861581595
20
9.6966872442901266
30
0
10
-0.78048340043568409
20
9.6601609633940164
30
0
10
-0.80546841471218067
20
9.6235433920605669
30
0
10
-0.8301231661104731
20
9.5868369419239379
30
0
10
-0.85444565794850647
20
9.550043794370497
30
0
10
-0.8784339898911131
20
9.5131659008006348
30
0
10
-0.90208629094272919
20
9.4762050836298446
30
0
10
-0.92540066953061251
20
9.439163109058935
30
0
10
-0.94837516429082269
20
9.402041765353049
30
0
10
-0.97100768385544756
20
9.3648429559199986
30
0
10
-0.99329600716100908
20
9.3275687189271661
30
0
10
-1.0152378370888497
20
9.290221179310107
30
0
10
-1.0368308448451666
20
9.2528025193437031
30
0
10
-1.0580727128358702
20
9.2153149446913272
30
0
10
-1.0789611996295587
20
9.1777606470025521
30
0
10
-1.0994941301128744
20
9.1401417901734447
30
0
10
-1.1196692855223491
20
9.1024605309612472
30
0
10
-1.1394843148115479
20
9.0647190318295028
30
0
10
-1.1589366521932609
20
9.0269194765178948
30
0
10
-1.1780234048183758
20
8.9890640870648433
30
0
10
-1.1967413551149773
20
8.9511551334219455
30
0
10
-1.2150871706249395
20
8.9131949274051276
30
0
10
-1.2330575830103876
20
8.8751858205051697
30
0
10
-1.2506495553690908
20
8.8371302006234824
30
0
10
-1.2678605213942138
20
8.7990304895910949
30
0
10
-1.2846883900920241
20
8.7608891410911625
30
0
10
-1.3011310211641574
20
8.7227086401195013
30
0
10
-1.3171857811858867
20
8.6844915021362894
30
0
10
-1.3328491281942154
20
8.6462402732578063
30
0
10
-1.3481160474261664
20
8.6079575289419097
30
0
10
-1.362979995341812
20
8.5696458780451934
30
0
10
-1.3774340712849051
20
8.5313079791951445
30
0
10
-1.3914720233953042
20
8.492946555812658
30
0
10
-1.4050891779787509
20
8.4545644103118871
30
0
10
-1.4182837531519046
20
8.4161644428325904
30
0
10
-1.431056894445383
20
8.377749655761793
30
0
10
-1.4434098240295583
20
8.3393231263406058
30
0
10
-1.4553413864748714
20
8.3008879834484279
30
0
10
-1.4668458188882669
20
8.2624473878743707
30
0
10
-1.4779095121086459
20
8.2240044993409391
30
0
10
-1.4885112359209851
20
8.1855624889753038
30
0
10
-1.498628713840706
20
8.1471246355409406
30
0
10
-1.5082443113551394
20
8.1086944091806643
30
0
10
-1.5173500405009657
20
8.0702755484990831
30
0
10
-1.5259553924479348
20
8.031872169381403
30
0
10
-1.534085009312586
20
7.9934887590075245
30
0
10
-1.5417628507456582
20
7.9551300183511557
30
0
10
-1.5489984086976145
20
7.916800725785162
30
0
10
-1.5557748039285775
20
7.8785056269946256
30
0
10
-1.5620293956771918
20
7.8402492280526923
30
0
10
-1.5676641587268871
20
7.8020359756549595
30
0
10
-1.5725817497606518
20
7.7638707958922906
30
0
10
-1.5767174143161133
20
7.7257595357949391
30
0
10
-1.5800661052852534
20
7.6877094408067581
30
0
10
-1.5827280754675199
20
7.6497296304730984
30
0
10
-1.5848650894241922
20
7.611831500542678
30
0
10
-1.5866119183449903
20
7.5740290364192955
30
0
10
-1.5879975839323239
20
7.5363392297792018
30
0
10
-1.5888718198470264
20
7.4987822941445614
30
0
10
-1.5888046987521645
20
7.4613823905055376
30
0
10
-1.5871964022231193
20
7.4241647089155514
30
0
10
-1.5841866056360776
20
7.3945543365401987
30
0
10
-1.5807416183153591
20
7.3724460366200883
30
0
10
-1.5778891398354093
20
7.3577522663391211
30
0
10
-1.5763239428763633
20
7.3504166553279173
30
0
0
LINE
5
122
100
AcDbEntity
8
0
100
AcDbLine
10
-1.5763239428763633
20
7.3504166553279155
30
0
11
-1.2654671517927487
21
5.8935236512868361
31
0
0
ARC
5
123
100
AcDbEntity
8
0
100
AcDbCircle
10
-1.7544599433349892
20
5.7891874168343351
30
0
40
0.49999999999999956
100
AcDbArc
50
-73.140144317505815
51
12.044566874799594
0
ARC
5
124
100
AcDbEntity
8
0
100
AcDbCircle
10
0
20
0
30
0
40
5.5492000000000008
100
AcDbArc
50
106.8598556824942
51
118.14014431750581
0
ARC
5
125
100
AcDbEntity
8
0
100
AcDbCircle
10
-2.8529831567510544
20
5.3341642032557264
30
0
40
0.50000000000000056
100
AcDbArc
50
212.95543312520024
51
298.14014431750576
0
LINE
5
126
100
AcDbEntity
8
0
100
AcDbLine
10
-3.2725301345067463
20
5.0621709433097024
30
0
11
-4.08290011217432
21
6.3121588108835045
31
0
0
SPLINE
5
127
100
AcDbEntity
8
0
100
AcDbSpline
70
1064
71
5
72
81
73
75
74
0
42
0.000000001
43
0.0000000001
44
0.0000000001
40
0
40
0
40
0
40
0
40
0
40
0
40
0.014285714285714285
40
0.028571428571428571
40
0.042857142857142858
40
0.057142857142857141
40
0.071428571428571425
40
0.085714285714285715
40
0.10000000000000001
40
0.1142857142857143
40
0.12857142857142859
40
0.14285714285714288
40
0.15714285714285717
40
0.17142857142857146
40
0.18571428571428575
40
0.20000000000000004
40
0.21428571428571433
40
0.22857142857142862
40
0.24285714285714291
40
0.25714285714285717
40
0.27142857142857146
40
0.28571428571428575
40
0.30000000000000004
40
0.31428571428571433
40
0.32857142857142863
40
0.34285714285714292
40
0.35714285714285721
40
0.3714285714285715
40
0.38571428571428579
40
0.40000000000000008
40
0.41428571428571437
40
0.42857142857142866
40
0.44285714285714295
40
0.45714285714285724
40
0.47142857142857153
40
0.48571428571428582
40
0.50000000000000011
40
0.51428571428571435
40
0.52857142857142858
40
0.54285714285714282
40
0.55714285714285705
40
0.57142857142857129
40
0.58571428571428552
40
0.59999999999999976
40
0.61428571428571399
40
0.62857142857142823
40
0.64285714285714246
40
0.6571428571428567
40
0.67142857142857093
40
0.68571428571428517
40
0.6999999999999994
40
0.71428571428571364
40
0.72857142857142787
40
0.74285714285714211
40
0.75714285714285634
40
0.77142857142857058
40
0.78571428571428481
40
0.79999999999999905
40
0.81428571428571328
40
0.82857142857142752
40
0.84285714285714175
40
0.85714285714285599
40
0.87142857142857022
40
0.88571428571428445
40
0.89999999999999869
40
0.91428571428571292
40
0.92857142857142716
40
0.94285714285714139
40
0.95714285714285563
40
0.97142857142856986
40
0.9857142857142841
40
1
40
1
40
1
40
1
40
1
40
1
10
-4.08290011217432
20
6.3121588108835045
30
0
10
-4.0869804110808552
20
6.3184526325573085
30
0
10
-4.0953534688113633
20
6.3308597040405381
30
0
10
-4.1085504237097972
20
6.3489286067301354
30
0
10
-4.1273598712331792
20
6.3719945494068959
30
0
10
-4.1525395088836534
20
6.3994486618210633
30
0
10
-4.1789377725811923
20
6.4259418490812781
30
0
10
-4.2061127145926767
20
6.4518804348054761
30
0
10
-4.2337432459827564
20
6.4775513391290351
30
0
10
-4.2617088192854311
20
6.5030465232807719
30
0
10
-4.2900179410137742
20
6.5283334508886073
30
0
10
-4.3187560196160799
20
6.5533069351565203
30
0
10
-4.3480293818993925
20
6.5778445332550781
30
0
10
-4.377902468805674
20
6.6018689072575985
30
0
10
-4.4083665881881373
20
6.6253785027059102
30
0
10
-4.4393718172525869
20
6.6484149734447211
30
0
10
-4.4708458406072031
20
6.6710436683213405
30
0
10
-4.502716199668015
20
6.6933307573425243
30
0
10
-4.5349354144530087
20
6.715317347940525
30
0
10
-4.567488193831104
20
6.7370120198342187
30
0
10
-4.6003778708049836
20
6.7584046823812107
30
0
10
-4.6336180633157715
20
6.7794750694596004
30
0
10
-4.6672230230558389
20
6.800202583546346
30
0
10
-4.7011965509253413
20
6.8205776030006149
30
0
10
-4.7355303549885743
20
6.8406031325727676
30
0
10
-4.7702095120005321
20
6.8602891879847814
30
0
10
-4.8052159516720163
20
6.879649202654071
30
0
10
-4.8405324196484951
20
6.8986959462841222
30
0
10
-4.8761470585386597
20
6.9174368077438242
30
0
10
-4.9120535583463374
20
6.9358736269985188
30
0
10
-4.9482488896076067
20
6.9540050086084459
30
0
10
-4.9847317405893738
20
6.9718279124305855
30
0
10
-5.0215007982958788
20
6.989339405444249
30
0
10
-5.0585527520368379
20
7.006538696922739
30
0
10
-5.0958823154052979
20
7.0234271100609043
30
0
10
-5.1334831419191742
20
7.0400071398420678
30
0
10
-5.171348472144115
20
7.0562817858335301
30
0
10
-5.2094718343584763
20
7.0722538302765559
30
0
10
-5.2478478614656368
20
7.0879249980203411
30
0
10
-5.2864722485434505
20
7.1032959932348483
30
0
10
-5.3253413547804911
20
7.1183668993336111
30
0
10
-5.3644519095998771
20
7.1331374725787242
30
0
10
-5.4038006994297589
20
7.1476074565100376
30
0
10
-5.4433841971240327
20
7.1617769532873732
30
0
10
-5.4831985667672551
20
7.1756464218236111
30
0
10
-5.5232398345404743
20
7.1892165104275518
30
0
10
-5.5635040093392343
20
7.2024879408022136
30
0
10
-5.6039872108984472
20
7.2154613830163497
30
0
10
-5.6446858224464513
20
7.2281373114047494
30
0
10
-5.6855964855605752
20
7.2405159961158105
30
0
10
-5.7267160087073075
20
7.2525975704977732
30
0
10
-5.7680412979262821
20
7.2643820783956627
30
0
10
-5.8095692850745086
20
7.2758695277412961
30
0
10
-5.8512968354903725
20
7.2870599537357492
30
0
10
-5.8932207507478473
20
7.2979534355259883
30
0
10
-5.935337841039674
20
7.3085500767165339
30
0
10
-5.9776449795013331
20
7.3188499990592248
30
0
10
-6.0201391544018019
20
7.3288533318811355
30
0
10
-6.0628175410080729
20
7.3385602080901222
30
0
10
-6.1056774879319997
20
7.3479707500855218
30
0
10
-6.148716408737096
20
7.3570850465186766
30
0
10
-6.1919316917873592
20
7.3659031317408825
30
0
10
-6.235320613494455
20
7.3744249696435773
30
0
10
-6.2788802195178741
20
7.382650429621088
30
0
10
-6.3226073158782068
20
7.3905792950870843
30
0
10
-6.3664986811087987
20
7.3982113339342366
30
0
10
-6.410551232892665
20
7.4055463595463644
30
0
10
-6.4547622053862295
20
7.4125842936101884
30
0
10
-6.4991293363833593
20
7.4193252403653993
30
0
10
-6.543651003773939
20
7.4257695286175638
30
0
10
-6.5883261070166865
20
7.4319175909789648
30
0
10
-6.6241884080176616
20
7.4365994119208416
30
0
10
-6.6511537362197615
20
7.4399778281207984
30
0
10
-6.6691611015761296
20
7.4421710365706026
30
0
10
-6.6781724042242994
20
7.4432528735397039
30
0
0
ARC
5
128
100
AcDbEntity
8
0
100
AcDbCircle
10
0
20
0
30
0
40
10
100
AcDbArc
50
131.89882108566852
51
138.1011789143314
0
SPLINE
5
129
100
AcDbEntity
8
0
100
AcDbSpline
70
1064
71
5
72
81
73
75
74
0
42
0.000000001
43
0.0000000001
44
0.0000000001
40
-1
40
-1
40
-1
40
-1
40
-1
40
-1
40
-0.9857142857142841
40
-0.97142857142856986
40
-0.95714285714285563
40
-0.94285714285714139
40
-0.92857142857142716
40
-0.91428571428571292
40
-0.89999999999999869
40
-0.88571428571428445
40
-0.87142857142857022
40
-0.85714285714285599
40
-0.84285714285714175
40
-0.82857142857142752
40
-0.81428571428571328
40
-0.79999999999999905
40
-0.78571428571428481
40
-0.77142857142857058
40
-0.75714285714285634
40
-0.74285714285714211
40
-0.72857142857142787
40
-0.71428571428571364
40
-0.6999999999999994
40
-0.68571428571428517
40
-0.67142857142857093
40
-0.6571428571428567
40
-0.64285714285714246
40
-0.62857142857142823
40
-0.61428571428571399
40
-0.59999999999999976
40
-0.58571428571428552
40
-0.57142857142857129
40
-0.55714285714285705
40
-0.54285714285714282
40
-0.52857142857142858
40
-0.51428571428571435
40
-0.50000000000000011
40
-0.48571428571428582
40
-0.47142857142857153
40
-0.45714285714285724
40
-0.44285714285714295
40
-0.42857142857142866
40
-0.41428571428571437
40
-0.40000000000000008
40
-0.38571428571428579
40
-0.3714285714285715
40
-0.35714285714285721
40
-0.34285714285714292
40
-0.32857142857142863
40
-0.31428571428571433
40
-0.30000000000000004
40
-0.28571428571428575
40
-0.27142857142857146
40
-0.25714285714285717
40
-0.24285714285714291
40
-0.22857142857142862
40
-0.21428571428571433
40
-0.20000000000000004
40
-0.18571428571428575
40
-0.17142857142857146
40
-0.15714285714285717
40
-0.14285714285714288
40
-0.12857142857142859
40
-0.1142857142857143
40
-0.10000000000000001
40
-0.085714285714285715
40
-0.071428571428571425
40
-0.057142857142857141
40
-0.042857142857142858
40
-0.028571428571428571
40
-0.014285714285714285
40
-0
40
-0
40
-0
40
-0
40
-0
40
-0
10
-7.4432528735397021
20
6.678172404224302
30
0
10
-7.4421710365706009
20
6.6691611015761323
30
0
10
-7.4399778281207958
20
6.6511537362197632
30
0
10
-7.436599411920839
20
6.6241884080176643
30
0
10
-7.4319175909789621
20
6.5883261070166892
30
0
10
-7.425769528617562
20
6.5436510037739417
30
0
10
-7.4193252403653984
20
6.499129336383362
30
0
10
-7.4125842936101858
20
6.4547622053862321
30
0
10
-7.4055463595463618
20
6.4105512328926668
30
0
10
-7.3982113339342348
20
6.3664986811088013
30
0
10
-7.3905792950870817
20
6.3226073158782095
30
0
10
-7.3826504296210862
20
6.2788802195178759
30
0
10
-7.3744249696435755
20
6.2353206134944585
30
0
10
-7.3659031317408816
20
6.1919316917873619
30
0
10
-7.3570850465186748
20
6.1487164087370978
30
0
10
-7.3479707500855191
20
6.1056774879320024
30
0
10
-7.3385602080901204
20
6.0628175410080756
30
0
10
-7.3288533318811329
20
6.0201391544018046
30
0
10
-7.3188499990592248
20
5.9776449795013349
30
0
10
-7.3085500767165312
20
5.9353378410396758
30
0
10
-7.2979534355259856
20
5.8932207507478491
30
0
10
-7.2870599537357474
20
5.8512968354903752
30
0
10
-7.2758695277412953
20
5.8095692850745113
30
0
10
-7.2643820783956601
20
5.7680412979262838
30
0
10
-7.2525975704977705
20
5.7267160087073101
30
0
10
-7.2405159961158088
20
5.6855964855605778
30
0
10
-7.2281373114047476
20
5.6446858224464531
30
0
10
-7.2154613830163488
20
5.6039872108984481
30
0
10
-7.2024879408022127
20
5.5635040093392352
30
0
10
-7.1892165104275492
20
5.5232398345404761
30
0
10
-7.1756464218236093
20
5.4831985667672578
30
0
10
-7.1617769532873705
20
5.4433841971240344
30
0
10
-7.1476074565100367
20
5.4038006994297625
30
0
10
-7.1331374725787233
20
5.3644519095998779
30
0
10
-7.1183668993336102
20
5.3253413547804938
30
0
10
-7.1032959932348465
20
5.2864722485434523
30
0
10
-7.0879249980203394
20
5.2478478614656376
30
0
10
-7.0722538302765559
20
5.2094718343584789
30
0
10
-7.0562817858335292
20
5.1713484721441185
30
0
10
-7.0400071398420669
20
5.1334831419191769
30
0
10
-7.0234271100609043
20
5.0958823154052997
30
0
10
-7.0065386969227372
20
5.0585527520368405
30
0
10
-6.9893394054442481
20
5.0215007982958806
30
0
10
-6.9718279124305838
20
4.9847317405893765
30
0
10
-6.9540050086084442
20
4.9482488896076102
30
0
10
-6.9358736269985188
20
4.9120535583463383
30
0
10
-6.9174368077438224
20
4.8761470585386624
30
0
10
-6.8986959462841213
20
4.8405324196484987
30
0
10
-6.8796492026540692
20
4.8052159516720181
30
0
10
-6.8602891879847805
20
4.770209512000533
30
0
10
-6.8406031325727668
20
4.7355303549885761
30
0
10
-6.8205776030006131
20
4.7011965509253439
30
0
10
-6.8002025835463442
20
4.6672230230558416
30
0
10
-6.7794750694596004
20
4.6336180633157733
30
0
10
-6.7584046823812098
20
4.6003778708049845
30
0
10
-6.737012019834216
20
4.5674881938311067
30
0
10
-6.7153173479405224
20
4.5349354144530114
30
0
10
-6.6933307573425216
20
4.5027161996680176
30
0
10
-6.6710436683213379
20
4.4708458406072058
30
0
10
-6.6484149734447184
20
4.4393718172525887
30
0
10
-6.6253785027059076
20
4.4083665881881391
30
0
10
-6.6018689072575985
20
4.3779024688056749
30
0
10
-6.5778445332550772
20
4.3480293818993951
30
0
10
-6.5533069351565185
20
4.3187560196160826
30
0
10
-6.5283334508886073
20
4.290017941013776
30
0
10
-6.5030465232807702
20
4.2617088192854338
30
0
10
-6.4775513391290342
20
4.2337432459827591
30
0
10
-6.4518804348054744
20
4.2061127145926793
30
0
10
-6.4259418490812763
20
4.1789377725811949
30
0
10
-6.3994486618210624
20
4.1525395088836543
30
0
10
-6.371994549406895
20
4.1273598712331809
30
0
10
-6.3489286067301345
20
4.1085504237097998
30
0
10
-6.3308597040405363
20
4.095353468811366
30
0
10
-6.3184526325573067
20
4.0869804110808579
30
0
10
-6.3121588108835027
20
4.0829001121743227
30
0
0
LINE
5
130
100
AcDbEntity
8
0
100
AcDbLine
10
-6.3121588108835027
20
4.0829001121743227
30
0
11
-5.0621709433097015
21
3.2725301345067477
31
0
0
ARC
5
131
100
AcDbEntity
8
0
100
AcDbCircle
10
-5.3341642032557264
20
2.8529831567510557
30
0
40
0.49999999999999967
100
AcDbArc
50
-28.140144317505857
51
57.044566874799678
0
ARC
5
132
100
AcDbEntity
8
0
100
AcDbCircle
10
0
20
0
30
0
40
5.5492000000000017
100
AcDbArc
50
151.85985568249419
51
163.14014431750581
0
ARC
5
133
100
AcDbEntity
8
0
100
AcDbCircle
10
-5.7891874168343351
20
1.754459943334989
30
0
40
0.5
100
AcDbArc
50
257.95543312520039
51
343.1401443175057
0
LINE
5
134
100
AcDbEntity
8
0
100
AcDbLine
10
-5.8935236512868361
20
1.2654671517927487
30
0
11
-7.3504166553279173
21
1.5763239428763627
31
0
0
SPLINE
5
135
100
AcDbEntity
8
0
100
AcDbSpline
70
1064
71
5
72
81
73
75
74
0
42
0.000000001
43
0.0000000001
44
0.0000000001
40
0
40
0
40
0
40
0
40
0
40
0
40
0.014285714285714285
40
0.028571428571428571
40
0.042857142857142858
40
0.057142857142857141
40
0.071428571428571425
40
0.085714285714285715
40
0.10000000000000001
40
0.1142857142857143
40
0.12857142857142859
40
0.14285714285714288
40
0.15714285714285717
40
0.17142857142857146
40
0.18571428571428575
40
0.20000000000000004
40
0.21428571428571433
40
0.22857142857142862
40
0.24285714285714291
40
0.25714285714285717
40
0.27142857142857146
40
0.28571428571428575
40
0.30000000000000004
40
0.31428571428571433
40
0.32857142857142863
40
0.34285714285714292
40
0.35714285714285721
40
0.3714285714285715
40
0.38571428571428579
40
0.40000000000000008
40
0.41428571428571437
40
0.42857142857142866
40
0.44285714285714295
40
0.45714285714285724
40
0.47142857142857153
40
0.48571428571428582
40
0.50000000000000011
40
0.51428571428571435
40
0.52857142857142858
40
0.54285714285714282
40
0.55714285714285705
40
0.57142857142857129
40
0.58571428571428552
40
0.59999999999999976
40
0.61428571428571399
40
0.62857142857142823
40
0.64285714285714246
40
0.6571428571428567
40
0.67142857142857093
40
0.68571428571428517
40
0.6999999999999994
40
0.71428571428571364
40
0.72857142857142787
40
0.74285714285714211
40
0.75714285714285634
40
0.77142857142857058
40
0.78571428571428481
40
0.79999999999999905
40
0.81428571428571328
40
0.82857142857142752
40
0.84285714285714175
40
0.85714285714285599
40
0.87142857142857022
40
0.88571428571428445
40
0.89999999999999869
40
0.91428571428571292
40
0.92857142857142716
40
0.94285714285714139
40
0.95714285714285563
40
0.97142857142856986
40
0.9857142857142841
40
1
40
1
40
1
40
1
40
1
40
1
10
-7.3504166553279173
20
1.5763239428763627
30
0
10
-7.3577522663391211
20
1.5778891398354087
30
0
10
-7.3724460366200883
20
1.5807416183153582
30
0
10
-7.3945543365401987
20
1.5841866056360767
30
0
10
-7.4241647089155514
20
1.5871964022231186
30
0
10
-7.4613823905055376
20
1.5888046987521638
30
0
10
-7.4987822941445614
20
1.5888718198470255
30
0
10
-7.5363392297792018
20
1.5879975839323233
30
0
10
-7.5740290364192955
20
1.5866119183449894
30
0
10
-7.611831500542678
20
1.5848650894241914
30
0
10
-7.6497296304730984
20
1.582728075467519
30
0
10
-7.6877094408067581
20
1.5800661052852525
30
0
10
-7.7257595357949391
20
1.5767174143161125
30
0
10
-7.7638707958922906
20
1.5725817497606509
30
0
10
-7.8020359756549595
20
1.5676641587268865
30
0
10
-7.8402492280526923
20
1.5620293956771911
30
0
10
-7.8785056269946256
20
1.5557748039285766
30
0
10
-7.916800725785162
20
1.5489984086976136
30
0
10
-7.9551300183511557
20
1.5417628507456578
30
0
10
-7.9934887590075245
20
1.5340850093125855
30
0
10
-8.031872169381403
20
1.5259553924479341
30
0
10
-8.0702755484990831
20
1.5173500405009652
30
0
10
-8.1086944091806643
20
1.5082443113551389
30
0
10
-8.1471246355409406
20
1.4986287138407051
30
0
10
-8.1855624889753038
20
1.4885112359209842
30
0
10
-8.2240044993409391
20
1.477909512108645
30
0
10
-8.2624473878743707
20
1.466845818888266
30
0
10
-8.3008879834484279
20
1.4553413864748708
30
0
10
-8.3393231263406058
20
1.4434098240295576
30
0
10
-8.377749655761793
20
1.4310568944453821
30
0
10
-8.4161644428325904
20
1.4182837531519037
30
0
10
-8.4545644103118871
20
1.40508917797875
30
0
10
-8.492946555812658
20
1.3914720233953035
30
0
10
-8.5313079791951445
20
1.3774340712849042
30
0
10
-8.5696458780451934
20
1.3629799953418111
30
0
10
-8.6079575289419097
20
1.3481160474261655
30
0
10
-8.6462402732578063
20
1.3328491281942145
30
0
10
-8.6844915021362894
20
1.3171857811858858
30
0
10
-8.7227086401195013
20
1.3011310211641567
30
0
10
-8.7608891410911625
20
1.2846883900920234
30
0
10
-8.7990304895910949
20
1.2678605213942129
30
0
10
-8.8371302006234824
20
1.2506495553690899
30
0
10
-8.8751858205051697
20
1.2330575830103867
30
0
10
-8.9131949274051276
20
1.2150871706249387
30
0
10
-8.9511551334219455
20
1.1967413551149766
30
0
10
-8.9890640870648433
20
1.1780234048183749
30
0
10
-9.0269194765178948
20
1.15893665219326
30
0
10
-9.0647190318295028
20
1.139484314811547
30
0
10
-9.1024605309612472
20
1.119669285522348
30
0
10
-9.1401417901734447
20
1.0994941301128733
30
0
10
-9.1777606470025521
20
1.0789611996295578
30
0
10
-9.2153149446913272
20
1.0580727128358693
30
0
10
-9.2528025193437031
20
1.0368308448451657
30
0
10
-9.290221179310107
20
1.0152378370888488
30
0
10
-9.3275687189271661
20
0.99329600716100808
30
0
10
-9.3648429559199986
20
0.97100768385544656
30
0
10
-9.402041765353049
20
0.94837516429082169
30
0
10
-9.439163109058935
20
0.92540066953061151
30
0
10
-9.4762050836298446
20
0.9020862909427283
30
0
10
-9.5131659008006348
20
0.8784339898911121
30
0
10
-9.550043794370497
20
0.85444565794850547
30
0
10
-9.5868369419239379
20
0.83012316611047221
30
0
10
-9.6235433920605669
20
0.80546841471217978
30
0
10
-9.6601609633940164
20
0.78048340043568321
30
0
10
-9.6966872442901266
20
0.75517022861581506
30
0
10
-9.7331197927033148
20
0.72953101304882972
30
0
10
-9.7694562971487695
20
0.70356780130439778
30
0
10
-9.8056947465038959
20
0.67728249375341987
30
0
10
-9.841833614855986
20
0.65067676372578587
30
0
10
-9.8778719877006225
20
0.62375199072720033
30
0
10
-9.9138093927406814
20
0.59650925886094963
30
0
10
-9.942478416303727
20
0.57446132997050892
30
0
10
-9.963934683737012
20
0.55778286454654269
30
0
10
-9.9782186464592169
20
0.54660056695916348
30
0
10
-9.9853555739260518
20
0.5409935880063087
30
0
0
ARC
5
136
100
AcDbEntity
8
0
100
AcDbCircle
10
0
20
0
30
0
40
10.000000000000002
100
AcDbArc
50
176.89882108566852
51
183.10117891433134
0
SPLINE
5
137
100
AcDbEntity
8
0
100
AcDbSpline
70
1064
71
5
72
81
73
75
74
0
42
0.000000001
43
0.0000000001
44
0.0000000001
40
-1
40
-1
40
-1
40
-1
40
-1
40
-1
40
-0.9857142857142841
40
-0.97142857142856986
40
-0.95714285714285563
40
-0.94285714285714139
40
-0.92857142857142716
40
-0.91428571428571292
40
-0.89999999999999869
40
-0.88571428571428445
40
-0.87142857142857022
40
-0.85714285714285599
40
-0.84285714285714175
40
-0.82857142857142752
40
-0.81428571428571328
40
-0.79999999999999905
40
-0.78571428571428481
40
-0.77142857142857058
40
-0.75714285714285634
40
-0.74285714285714211
40
-0.72857142857142787
40
-0.71428571428571364
40
-0.6999999999999994
40
-0.68571428571428517
40
-0.67142857142857093
40
-0.6571428571428567
40
-0.64285714285714246
40
-0.62857142857142823
40
-0.61428571428571399
40
-0.59999999999999976
40
-0.58571428571428552
40
-0.57142857142857129
40
-0.55714285714285705
40
-0.54285714285714282
40
-0.52857142857142858
40
-0.51428571428571435
40
-0.50000000000000011
40
-0.48571428571428582
40
-0.47142857142857153
40
-0.45714285714285724
40
-0.44285714285714295
40
-0.42857142857142866
40
-0.41428571428571437
40
-0.40000000000000008
40
-0.38571428571428579
40
-0.3714285714285715
40
-0.35714285714285721
40
-0.34285714285714292
40
-0.32857142857142863
40
-0.31428571428571433
40
-0.30000000000000004
40
-0.28571428571428575
40
-0.27142857142857146
40
-0.25714285714285717
40
-0.24285714285714291
40
-0.22857142857142862
40
-0.21428571428571433
40
-0.20000000000000004
40
-0.18571428571428575
40
-0.17142857142857146
40
-0.15714285714285717
40
-0.14285714285714288
40
-0.12857142857142859
40
-0.1142857142857143
40
-0.10000000000000001
40
-0.085714285714285715
40
-0.071428571428571425
40
-0.057142857142857141
40
-0.042857142857142858
40
-0.028571428571428571
40
-0.014285714285714285
40
-0
40
-0
40
-0
40
-0
40
-0
40
-0
10
-9.9853555739260518
20
-0.54099358800630626
30
0
10
-9.9782186464592169
20
-0.54660056695916093
30
0
10
-9.963934683737012
20
-0.55778286454654014
30
0
10
-9.942478416303727
20
-0.57446132997050636
30
0
10
-9.9138093927406814
20
-0.5965092588609473
30
0
10
-9.8778719877006225
20
-0.623751990727198
30
0
10
-9.841833614855986
20
-0.65067676372578331
30
0
10
-9.8056947465038959
20
-0.67728249375341731
30
0
10
-9.7694562971487695
20
-0.70356780130439533
30
0
10
-9.7331197927033148
20
-0.72953101304882728
30
0
10
-9.6966872442901266
20
-0.75517022861581251
30
0
10
-9.6601609633940164
20
-0.78048340043568076
30
0
10
-9.6235433920605669
20
-0.80546841471217756
30
0
10
-9.5868369419239379
20
-0.83012316611046999
30
0
10
-9.550043794370497
20
-0.85444565794850325
30
0
10
-9.5131659008006348
20
-0.87843398989110988
30
0
10
-9.4762050836298446
20
-0.90208629094272608
30
0
10
-9.439163109058935
20
-0.92540066953060929
30
0
10
-9.402041765353049
20
-0.94837516429081947
30
0
10
-9.3648429559199986
20
-0.97100768385544434
30
0
10
-9.3275687189271661
20
-0.99329600716100586
30
0
10
-9.290221179310107
20
-1.0152378370888466
30
0
10
-9.2528025193437031
20
-1.0368308448451635
30
0
10
-9.2153149446913272
20
-1.0580727128358671
30
0
10
-9.1777606470025521
20
-1.0789611996295556
30
0
10
-9.1401417901734447
20
-1.0994941301128711
30
0
10
-9.1024605309612472
20
-1.1196692855223458
30
0
10
-9.0647190318295028
20
-1.1394843148115448
30
0
10
-9.0269194765178948
20
-1.1589366521932578
30
0
10
-8.9890640870648433
20
-1.1780234048183726
30
0
10
-8.9511551334219455
20
-1.1967413551149744
30
0
10
-8.9131949274051276
20
-1.2150871706249364
30
0
10
-8.8751858205051697
20
-1.2330575830103845
30
0
10
-8.8371302006234824
20
-1.2506495553690877
30
0
10
-8.7990304895910949
20
-1.2678605213942107
30
0
10
-8.7608891410911625
20
-1.2846883900920212
30
0
10
-8.7227086401195013
20
-1.3011310211641545
30
0
10
-8.6844915021362894
20
-1.3171857811858836
30
0
10
-8.6462402732578063
20
-1.3328491281942123
30
0
10
-8.6079575289419097
20
-1.3481160474261633
30
0
10
-8.5696458780451934
20
-1.3629799953418089
30
0
10
-8.5313079791951445
20
-1.377434071284902
30
0
10
-8.492946555812658
20
-1.3914720233953013
30
0
10
-8.4545644103118871
20
-1.4050891779787478
30
0
10
-8.4161644428325904
20
-1.4182837531519015
30
0
10
-8.377749655761793
20
-1.4310568944453799
30
0
10
-8.3393231263406058
20
-1.4434098240295554
30
0
10
-8.3008879834484279
20
-1.4553413864748685
30
0
10
-8.2624473878743707
20
-1.4668458188882638
30
0
10
-8.2240044993409391
20
-1.4779095121086427
30
0
10
-8.1855624889753038
20
-1.488511235920982
30
0
10
-8.1471246355409406
20
-1.4986287138407028
30
0
10
-8.1086944091806643
20
-1.5082443113551367
30
0
10
-8.0702755484990831
20
-1.517350040500963
30
0
10
-8.031872169381403
20
-1.5259553924479319
30
0
10
-7.9934887590075245
20
-1.5340850093125833
30
0
10
-7.9551300183511557
20
-1.5417628507456556
30
0
10
-7.916800725785162
20
-1.5489984086976119
30
0
10
-7.8785056269946256
20
-1.5557748039285748
30
0
10
-7.8402492280526923
20
-1.5620293956771893
30
0
10
-7.8020359756549595
20
-1.5676641587268847
30
0
10
-7.7638707958922906
20
-1.5725817497606491
30
0
10
-7.7257595357949391
20
-1.5767174143161109
30
0
10
-7.6877094408067581
20
-1.5800661052852507
30
0
10
-7.6497296304730984
20
-1.5827280754675175
30
0
10
-7.611831500542678
20
-1.5848650894241898
30
0
10
-7.5740290364192955
20
-1.5866119183449878
30
0
10
-7.5363392297792018
20
-1.5879975839323215
30
0
10
-7.4987822941445614
20
-1.588871819847024
30
0
10
-7.4613823905055376
20
-1.588804698752162
30
0
10
-7.4241647089155514
20
-1.5871964022231169
30
0
10
-7.3945543365401987
20
-1.5841866056360752
30
0
10
-7.3724460366200883
20
-1.5807416183153566
30
0
10
-7.3577522663391211
20
-1.5778891398354069
30
0
10
-7.3504166553279173
20
-1.5763239428763609
30
0
0
LINE
5
138
100
AcDbEntity
8
0
100
AcDbLine
10
-7.3504166553279155
20
-1.5763239428763609
30
0
11
-5.893523651286837
21
-1.2654671517927469
31
0
0
ARC
5
139
100
AcDbEntity
8
0
100
AcDbCircle
10
-5.789187416834336
20
-1.7544599433349861
30
0
40
0.49999999999999967
100
AcDbArc
50
16.859855682494249
51
102.04456687479961
0
ARC
5
140
100
AcDbEntity
8
0
100
AcDbCircle
10
0
20
0
30
0
40
5.5492000000000008
100
AcDbArc
50
196.85985568249416
51
208.14014431750581
0
ARC
5
141
100
AcDbEntity
8
0
100
AcDbCircle
10
-5.3341642032557264
20
-2.8529831567510557
30
0
40
0.49999999999999978
100
AcDbArc
50
-57.044566874799557
51
28.140144317505722
0
LINE
5
142
100
AcDbEntity
8
0
100
AcDbLine
10
-5.0621709433097015
20
-3.2725301345067459
30
0
11
-6.3121588108835036
21
-4.0829001121743218
31
0
0
SPLINE
5
143
100
AcDbEntity
8
0
100
AcDbSpline
70
1064
71
5
72
81
73
75
74
0
42
0.000000001
43
0.0000000001
44
0.0000000001
40
0
40
0
40
0
40
0
40
0
40
0
40
0.014285714285714285
40
0.028571428571428571
40
0.042857142857142858
40
0.057142857142857141
40
0.071428571428571425
40
0.085714285714285715
40
0.10000000000000001
40
0.1142857142857143
40
0.12857142857142859
40
0.14285714285714288
40
0.15714285714285717
40
0.17142857142857146
40
0.18571428571428575
40
0.20000000000000004
40
0.21428571428571433
40
0.22857142857142862
40
0.24285714285714291
40
0.25714285714285717
40
0.27142857142857146
40
0.28571428571428575
40
0.30000000000000004
40
0.31428571428571433
40
0.32857142857142863
40
0.34285714285714292
40
0.35714285714285721
40
0.3714285714285715
40
0.38571428571428579
40
0.40000000000000008
40
0.41428571428571437
40
0.42857142857142866
40
0.44285714285714295
40
0.45714285714285724
40
0.47142857142857153
40
0.48571428571428582
40
0.50000000000000011
40
0.51428571428571435
40
0.52857142857142858
40
0.54285714285714282
40
0.55714285714285705
40
0.57142857142857129
40
0.58571428571428552
40
0.59999999999999976
40
0.61428571428571399
40
0.62857142857142823
40
0.64285714285714246
40
0.6571428571428567
40
0.67142857142857093
40
0.68571428571428517
40
0.6999999999999994
40
0.71428571428571364
40
0.72857142857142787
40
0.74285714285714211
40
0.75714285714285634
40
0.77142857142857058
40
0.78571428571428481
40
0.79999999999999905
40
0.81428571428571328
40
0.82857142857142752
40
0.84285714285714175
40
0.85714285714285599
40
0.87142857142857022
40
0.88571428571428445
40
0.89999999999999869
40
0.91428571428571292
40
0.92857142857142716
40
0.94285714285714139
40
0.95714285714285563
40
0.97142857142856986
40
0.9857142857142841
40
1
40
1
40
1
40
1
40
1
40
1
10
-6.3121588108835036
20
-4.0829001121743218
30
0
10
-6.3184526325573076
20
-4.0869804110808561
30
0
10
-6.3308597040405363
20
-4.0953534688113642
30
0
10
-6.3489286067301354
20
-4.1085504237097989
30
0
10
-6.371994549406895
20
-4.1273598712331792
30
0
10
-6.3994486618210624
20
-4.1525395088836534
30
0
10
-6.4259418490812772
20
-4.178937772581194
30
0
10
-6.4518804348054744
20
-4.2061127145926775
30
0
10
-6.4775513391290351
20
-4.2337432459827582
30
0
10
-6.503046523280771
20
-4.2617088192854329
30
0
10
-6.5283334508886064
20
-4.2900179410137742
30
0
10
-6.5533069351565203
20
-4.3187560196160817
30
0
10
-6.5778445332550772
20
-4.3480293818993934
30
0
10
-6.6018689072576002
20
-4.3779024688056749
30
0
10
-6.6253785027059084
20
-4.4083665881881382
30
0
10
-6.6484149734447193
20
-4.4393718172525878
30
0
10
-6.6710436683213388
20
-4.4708458406072049
30
0
10
-6.6933307573425225
20
-4.5027161996680167
30
0
10
-6.7153173479405233
20
-4.5349354144530096
30
0
10
-6.7370120198342178
20
-4.5674881938311049
30
0
10
-6.7584046823812107
20
-4.6003778708049845
30
0
10
-6.7794750694595995
20
-4.6336180633157715
30
0
10
-6.8002025835463451
20
-4.6672230230558407
30
0
10
-6.820577603000614
20
-4.7011965509253422
30
0
10
-6.8406031325727668
20
-4.7355303549885743
30
0
10
-6.8602891879847814
20
-4.770209512000533
30
0
10
-6.8796492026540701
20
-4.8052159516720172
30
0
10
-6.8986959462841222
20
-4.8405324196484969
30
0
10
-6.9174368077438233
20
-4.8761470585386615
30
0
10
-6.9358736269985179
20
-4.9120535583463374
30
0
10
-6.9540050086084451
20
-4.9482488896076084
30
0
10
-6.9718279124305846
20
-4.9847317405893747
30
0
10
-6.9893394054442481
20
-5.0215007982958788
30
0
10
-7.0065386969227381
20
-5.0585527520368387
30
0
10
-7.023427110060906
20
-5.0958823154052988
30
0
10
-7.0400071398420678
20
-5.1334831419191751
30
0
10
-7.0562817858335292
20
-5.1713484721441176
30
0
10
-7.0722538302765559
20
-5.2094718343584763
30
0
10
-7.0879249980203411
20
-5.2478478614656376
30
0
10
-7.1032959932348474
20
-5.2864722485434514
30
0
10
-7.1183668993336102
20
-5.3253413547804929
30
0
10
-7.1331374725787233
20
-5.3644519095998771
30
0
10
-7.1476074565100367
20
-5.4038006994297616
30
0
10
-7.1617769532873723
20
-5.4433841971240335
30
0
10
-7.1756464218236102
20
-5.4831985667672569
30
0
10
-7.1892165104275509
20
-5.5232398345404752
30
0
10
-7.2024879408022127
20
-5.5635040093392343
30
0
10
-7.2154613830163488
20
-5.6039872108984472
30
0
10
-7.2281373114047485
20
-5.6446858224464522
30
0
10
-7.2405159961158096
20
-5.685596485560577
30
0
10
-7.2525975704977714
20
-5.7267160087073083
30
0
10
-7.264382078395661
20
-5.768041297926283
30
0
10
-7.2758695277412961
20
-5.8095692850745095
30
0
10
-7.2870599537357483
20
-5.8512968354903734
30
0
10
-7.2979534355259865
20
-5.8932207507478482
30
0
10
-7.3085500767165321
20
-5.9353378410396749
30
0
10
-7.3188499990592248
20
-5.9776449795013349
30
0
10
-7.3288533318811346
20
-6.0201391544018037
30
0
10
-7.3385602080901213
20
-6.0628175410080747
30
0
10
-7.3479707500855209
20
-6.1056774879320006
30
0
10
-7.3570850465186757
20
-6.1487164087370969
30
0
10
-7.3659031317408825
20
-6.1919316917873601
30
0
10
-7.3744249696435755
20
-6.2353206134944568
30
0
10
-7.3826504296210871
20
-6.278880219517875
30
0
10
-7.3905792950870826
20
-6.3226073158782086
30
0
10
-7.3982113339342357
20
-6.3664986811087996
30
0
10
-7.4055463595463635
20
-6.4105512328926659
30
0
10
-7.4125842936101876
20
-6.4547622053862312
30
0
10
-7.4193252403653993
20
-6.4991293363833602
30
0
10
-7.4257695286175629
20
-6.5436510037739399
30
0
10
-7.4319175909789639
20
-6.5883261070166874
30
0
10
-7.4365994119208398
20
-6.6241884080176625
30
0
10
-7.4399778281207976
20
-6.6511537362197624
30
0
10
-7.4421710365706017
20
-6.6691611015761314
30
0
10
-7.443252873539703
20
-6.6781724042243003
30
0
0
ARC
5
144
100
AcDbEntity
8
0
100
AcDbCircle
10
0
20
0
30
0
40
10
100
AcDbArc
50
221.89882108566852
51
228.10117891433137
0
SPLINE
5
145
100
AcDbEntity
8
0
100
AcDbSpline
70
1064
71
5
72
81
73
75
74
0
42
0.000000001
43
0.0000000001
44
0.0000000001
40
-1
40
-1
40
-1
40
-1
40
-1
40
-1
40
-0.9857142857142841
40
-0.97142857142856986
40
-0.95714285714285563
40
-0.94285714285714139
40
-0.92857142857142716
40
-0.91428571428571292
40
-0.89999999999999869
40
-0.88571428571428445
40
-0.87142857142857022
40
-0.85714285714285599
40
-0.84285714285714175
40
-0.82857142857142752
40
-0.81428571428571328
40
-0.79999999999999905
40
-0.78571428571428481
40
-0.77142857142857058
40
-0.75714285714285634
40
-0.74285714285714211
40
-0.72857142857142787
40
-0.71428571428571364
40
-0.6999999999999994
40
-0.68571428571428517
40
-0.67142857142857093
40
-0.6571428571428567
40
-0.64285714285714246
40
-0.62857142857142823
40
-0.61428571428571399
40
-0.59999999999999976
40
-0.58571428571428552
40
-0.57142857142857129
40
-0.55714285714285705
40
-0.54285714285714282
40
-0.52857142857142858
40
-0.51428571428571435
40
-0.50000000000000011
40
-0.48571428571428582
40
-0.47142857142857153
40
-0.45714285714285724
40
-0.44285714285714295
40
-0.42857142857142866
40
-0.41428571428571437
40
-0.40000000000000008
40
-0.38571428571428579
40
-0.3714285714285715
40
-0.35714285714285721
40
-0.34285714285714292
40
-0.32857142857142863
40
-0.31428571428571433
40
-0.30000000000000004
40
-0.28571428571428575
40
-0.27142857142857146
40
-0.25714285714285717
40
-0.24285714285714291
40
-0.22857142857142862
40
-0.21428571428571433
40
-0.20000000000000004
40
-0.18571428571428575
40
-0.17142857142857146
40
-0.15714285714285717
40
-0.14285714285714288
40
-0.12857142857142859
40
-0.1142857142857143
40
-0.10000000000000001
40
-0.085714285714285715
40
-0.071428571428571425
40
-0.057142857142857141
40
-0.042857142857142858
40
-0.028571428571428571
40
-0.014285714285714285
40
-0
40
-0
40
-0
40
-0
40
-0
40
-0
10
-6.6781724042243003
20
-7.443252873539703
30
0
10
-6.6691611015761314
20
-7.4421710365706017
30
0
10
-6.6511537362197624
20
-7.4399778281207976
30
0
10
-6.6241884080176625
20
-7.4365994119208398
30
0
10
-6.5883261070166874
20
-7.4319175909789639
30
0
10
-6.5436510037739399
20
-7.4257695286175629
30
0
10
-6.4991293363833602
20
-7.4193252403653993
30
0
10
-6.4547622053862312
20
-7.4125842936101876
30
0
10
-6.4105512328926659
20
-7.4055463595463635
30
0
10
-6.3664986811087996
20
-7.3982113339342357
30
0
10
-6.3226073158782086
20
-7.3905792950870826
30
0
10
-6.278880219517875
20
-7.3826504296210871
30
0
10
-6.2353206134944568
20
-7.3744249696435755
30
0
10
-6.1919316917873601
20
-7.3659031317408825
30
0
10
-6.1487164087370969
20
-7.3570850465186757
30
0
10
-6.1056774879320006
20
-7.3479707500855209
30
0
10
-6.0628175410080747
20
-7.3385602080901213
30
0
10
-6.0201391544018037
20
-7.3288533318811346
30
0
10
-5.9776449795013349
20
-7.3188499990592248
30
0
10
-5.9353378410396749
20
-7.3085500767165321
30
0
10
-5.8932207507478482
20
-7.2979534355259865
30
0
10
-5.8512968354903734
20
-7.2870599537357483
30
0
10
-5.8095692850745095
20
-7.2758695277412961
30
0
10
-5.768041297926283
20
-7.264382078395661
30
0
10
-5.7267160087073083
20
-7.2525975704977714
30
0
10
-5.685596485560577
20
-7.2405159961158096
30
0
10
-5.6446858224464522
20
-7.2281373114047485
30
0
10
-5.6039872108984472
20
-7.2154613830163488
30
0
10
-5.5635040093392343
20
-7.2024879408022127
30
0
10
-5.5232398345404752
20
-7.1892165104275509
30
0
10
-5.4831985667672569
20
-7.1756464218236102
30
0
10
-5.4433841971240335
20
-7.1617769532873723
30
0
10
-5.4038006994297616
20
-7.1476074565100367
30
0
10
-5.3644519095998771
20
-7.1331374725787233
30
0
10
-5.3253413547804929
20
-7.1183668993336102
30
0
10
-5.2864722485434514
20
-7.1032959932348474
30
0
10
-5.2478478614656376
20
-7.0879249980203411
30
0
10
-5.2094718343584763
20
-7.0722538302765559
30
0
10
-5.1713484721441176
20
-7.0562817858335292
30
0
10
-5.1334831419191751
20
-7.0400071398420678
30
0
10
-5.0958823154052988
20
-7.023427110060906
30
0
10
-5.0585527520368387
20
-7.0065386969227381
30
0
10
-5.0215007982958788
20
-6.9893394054442481
30
0
10
-4.9847317405893747
20
-6.9718279124305846
30
0
10
-4.9482488896076084
20
-6.9540050086084451
30
0
10
-4.9120535583463374
20
-6.9358736269985179
30
0
10
-4.8761470585386615
20
-6.9174368077438233
30
0
10
-4.8405324196484969
20
-6.8986959462841222
30
0
10
-4.8052159516720172
20
-6.8796492026540701
30
0
10
-4.770209512000533
20
-6.8602891879847814
30
0
10
-4.7355303549885743
20
-6.8406031325727668
30
0
10
-4.7011965509253422
20
-6.820577603000614
30
0
10
-4.6672230230558407
20
-6.8002025835463451
30
0
10
-4.6336180633157715
20
-6.7794750694595995
30
0
10
-4.6003778708049845
20
-6.7584046823812107
30
0
10
-4.5674881938311049
20
-6.7370120198342178
30
0
10
-4.5349354144530096
20
-6.7153173479405233
30
0
10
-4.5027161996680167
20
-6.6933307573425225
30
0
10
-4.4708458406072049
20
-6.6710436683213388
30
0
10
-4.4393718172525878
20
-6.6484149734447193
30
0
10
-4.4083665881881382
20
-6.6253785027059084
30
0
10
-4.3779024688056749
20
-6.6018689072576002
30
0
10
-4.3480293818993934
20
-6.5778445332550772
30
0
10
-4.3187560196160817
20
-6.5533069351565203
30
0
10
-4.2900179410137742
20
-6.5283334508886064
30
0
10
-4.2617088192854329
20
-6.503046523280771
30
0
10
-4.2337432459827582
20
-6.4775513391290351
30
0
10
-4.2061127145926775
20
-6.4518804348054744
30
0
10
-4.178937772581194
20
-6.4259418490812772
30
0
10
-4.1525395088836534
20
-6.3994486618210624
30
0
10
-4.1273598712331792
20
-6.371994549406895
30
0
10
-4.1085504237097989
20
-6.3489286067301354
30
0
10
-4.0953534688113642
20
-6.3308597040405363
30
0
10
-4.0869804110808561
20
-6.3184526325573076
30
0
10
-4.0829001121743218
20
-6.3121588108835036
30
0
0
LINE
5
146
100
AcDbEntity
8
0
100
AcDbLine
10
-4.0829001121743218
20
-6.3121588108835027
30
0
11
-3.2725301345067463
21
-5.0621709433097015
31
0
0
ARC
5
147
100
AcDbEntity
8
0
100
AcDbCircle
10
-2.8529831567510566
20
-5.3341642032557255
30
0
40
0.50000000000000022
100
AcDbArc
50
61.859855682494235
51
147.04456687479964
0
ARC
5
148
100
AcDbEntity
8
0
100
AcDbCircle
10
0
20
0
30
0
40
5.5492000000000008
100
AcDbArc
50
241.85985568249419
51
253.14014431750576
0
ARC
5
149
100
AcDbEntity
8
0
100
AcDbCircle
10
-1.7544599433349892
20
-5.7891874168343351
30
0
40
0.5
100
AcDbArc
50
-12.044566874799608
51
73.140144317505985
0
LINE
5
150
100
AcDbEntity
8
0
100
AcDbLine
10
-1.2654671517927492
20
-5.8935236512868361
30
0
11
-1.5763239428763633
21
-7.3504166553279173
31
0
0
SPLINE
5
151
100
AcDbEntity
8
0
100
AcDbSpline
70
1064
71
5
72
81
73
75
74
0
42
0.000000001
43
0.0000000001
44
0.0000000001
40
0
40
0
40
0
40
0
40
0
40
0
40
0.014285714285714285
40
0.028571428571428571
40
0.042857142857142858
40
0.057142857142857141
40
0.071428571428571425
40
0.085714285714285715
40
0.10000000000000001
40
0.1142857142857143
40
0.12857142857142859
40
0.14285714285714288
40
0.15714285714285717
40
0.17142857142857146
40
0.18571428571428575
40
0.20000000000000004
40
0.21428571428571433
40
0.22857142857142862
40
0.24285714285714291
40
0.25714285714285717
40
0.27142857142857146
40
0.28571428571428575
40
0.30000000000000004
40
0.31428571428571433
40
0.32857142857142863
40
0.34285714285714292
40
0.35714285714285721
40
0.3714285714285715
40
0.38571428571428579
40
0.40000000000000008
40
0.41428571428571437
40
0.42857142857142866
40
0.44285714285714295
40
0.45714285714285724
40
0.47142857142857153
40
0.48571428571428582
40
0.50000000000000011
40
0.51428571428571435
40
0.52857142857142858
40
0.54285714285714282
40
0.55714285714285705
40
0.57142857142857129
40
0.58571428571428552
40
0.59999999999999976
40
0.61428571428571399
40
0.62857142857142823
40
0.64285714285714246
40
0.6571428571428567
40
0.67142857142857093
40
0.68571428571428517
40
0.6999999999999994
40
0.71428571428571364
40
0.72857142857142787
40
0.74285714285714211
40
0.75714285714285634
40
0.77142857142857058
40
0.78571428571428481
40
0.79999999999999905
40
0.81428571428571328
40
0.82857142857142752
40
0.84285714285714175
40
0.85714285714285599
40
0.87142857142857022
40
0.88571428571428445
40
0.89999999999999869
40
0.91428571428571292
40
0.92857142857142716
40
0.94285714285714139
40
0.95714285714285563
40
0.97142857142856986
40
0.9857142857142841
40
1
40
1
40
1
40
1
40
1
40
1
10
-1.5763239428763633
20
-7.3504166553279173
30
0
10
-1.5778891398354093
20
-7.3577522663391211
30
0
10
-1.5807416183153591
20
-7.3724460366200883
30
0
10
-1.5841866056360776
20
-7.3945543365401987
30
0
10
-1.5871964022231193
20
-7.4241647089155514
30
0
10
-1.5888046987521645
20
-7.4613823905055376
30
0
10
-1.5888718198470264
20
-7.4987822941445614
30
0
10
-1.5879975839323239
20
-7.5363392297792018
30
0
10
-1.5866119183449903
20
-7.5740290364192955
30
0
10
-1.5848650894241922
20
-7.611831500542678
30
0
10
-1.5827280754675199
20
-7.6497296304730984
30
0
10
-1.5800661052852534
20
-7.6877094408067581
30
0
10
-1.5767174143161133
20
-7.7257595357949391
30
0
10
-1.5725817497606518
20
-7.7638707958922906
30
0
10
-1.5676641587268871
20
-7.8020359756549595
30
0
10
-1.5620293956771918
20
-7.8402492280526923
30
0
10
-1.5557748039285775
20
-7.8785056269946256
30
0
10
-1.5489984086976145
20
-7.916800725785162
30
0
10
-1.5417628507456582
20
-7.9551300183511557
30
0
10
-1.534085009312586
20
-7.9934887590075245
30
0
10
-1.5259553924479348
20
-8.031872169381403
30
0
10
-1.5173500405009657
20
-8.0702755484990831
30
0
10
-1.5082443113551394
20
-8.1086944091806643
30
0
10
-1.498628713840706
20
-8.1471246355409406
30
0
10
-1.4885112359209851
20
-8.1855624889753038
30
0
10
-1.4779095121086459
20
-8.2240044993409391
30
0
10
-1.4668458188882669
20
-8.2624473878743707
30
0
10
-1.4553413864748714
20
-8.3008879834484279
30
0
10
-1.4434098240295583
20
-8.3393231263406058
30
0
10
-1.431056894445383
20
-8.377749655761793
30
0
10
-1.4182837531519046
20
-8.4161644428325904
30
0
10
-1.4050891779787509
20
-8.4545644103118871
30
0
10
-1.3914720233953042
20
-8.492946555812658
30
0
10
-1.3774340712849051
20
-8.5313079791951445
30
0
10
-1.362979995341812
20
-8.5696458780451934
30
0
10
-1.3481160474261664
20
-8.6079575289419097
30
0
10
-1.3328491281942154
20
-8.6462402732578063
30
0
10
-1.3171857811858867
20
-8.6844915021362894
30
0
10
-1.3011310211641574
20
-8.7227086401195013
30
0
10
-1.2846883900920241
20
-8.7608891410911625
30
0
10
-1.2678605213942138
20
-8.7990304895910949
30
0
10
-1.2506495553690908
20
-8.8371302006234824
30
0
10
-1.2330575830103876
20
-8.8751858205051697
30
0
10
-1.2150871706249395
20
-8.9131949274051276
30
0
10
-1.1967413551149773
20
-8.9511551334219455
30
0
10
-1.1780234048183758
20
-8.9890640870648433
30
0
10
-1.1589366521932609
20
-9.0269194765178948
30
0
10
-1.1394843148115479
20
-9.0647190318295028
30
0
10
-1.1196692855223491
20
-9.1024605309612472
30
0
10
-1.0994941301128744
20
-9.1401417901734447
30
0
10
-1.0789611996295587
20
-9.1777606470025521
30
0
10
-1.0580727128358702
20
-9.2153149446913272
30
0
10
-1.0368308448451666
20
-9.2528025193437031
30
0
10
-1.0152378370888497
20
-9.290221179310107
30
0
10
-0.99329600716100908
20
-9.3275687189271661
30
0
10
-0.97100768385544756
20
-9.3648429559199986
30
0
10
-0.94837516429082269
20
-9.402041765353049
30
0
10
-0.92540066953061251
20
-9.439163109058935
30
0
10
-0.90208629094272919
20
-9.4762050836298446
30
0
10
-0.8784339898911131
20
-9.5131659008006348
30
0
10
-0.85444565794850647
20
-9.550043794370497
30
0
10
-0.8301231661104731
20
-9.5868369419239379
30
0
10
-0.80546841471218067
20
-9.6235433920605669
30
0
10
-0.78048340043568409
20
-9.6601609633940164
30
0
10
-0.75517022861581595
20
-9.6966872442901266
30
0
10
-0.72953101304883072
20
-9.7331197927033148
30
0
10
-0.70356780130439878
20
-9.7694562971487695
30
0
10
-0.67728249375342076
20
-9.8056947465038959
30
0
10
-0.65067676372578687
20
-9.841833614855986
30
0
10
-0.62375199072720144
20
-9.8778719877006225
30
0
10
-0.59650925886095063
20
-9.9138093927406814
30
0
10
-0.57446132997050992
20
-9.942478416303727
30
0
10
-0.55778286454654369
20
-9.963934683737012
30
0
10
-0.54660056695916437
20
-9.9782186464592169
30
0
10
-0.5409935880063097
20
-9.9853555739260518
30
0
0
ARC
5
152
100
AcDbEntity
8
0
100
AcDbCircle
10
0
20
0
30
0
40
10.000000000000002
100
AcDbArc
50
266.89882108566849
51
273.1011789143314
0
SPLINE
5
153
100
AcDbEntity
8
0
100
AcDbSpline
70
1064
71
5
72
81
73
75
74
0
42
0.000000001
43
0.0000000001
44
0.0000000001
40
-1
40
-1
40
-1
40
-1
40
-1
40
-1
40
-0.9857142857142841
40
-0.97142857142856986
40
-0.95714285714285563
40
-0.94285714285714139
40
-0.92857142857142716
40
-0.91428571428571292
40
-0.89999999999999869
40
-0.88571428571428445
40
-0.87142857142857022
40
-0.85714285714285599
40
-0.84285714285714175
40
-0.82857142857142752
40
-0.81428571428571328
40
-0.79999999999999905
40
-0.78571428571428481
40
-0.77142857142857058
40
-0.75714285714285634
40
-0.74285714285714211
40
-0.72857142857142787
40
-0.71428571428571364
40
-0.6999999999999994
40
-0.68571428571428517
40
-0.67142857142857093
40
-0.6571428571428567
40
-0.64285714285714246
40
-0.62857142857142823
40
-0.61428571428571399
40
-0.59999999999999976
40
-0.58571428571428552
40
-0.57142857142857129
40
-0.55714285714285705
40
-0.54285714285714282
40
-0.52857142857142858
40
-0.51428571428571435
40
-0.50000000000000011
40
-0.48571428571428582
40
-0.47142857142857153
40
-0.45714285714285724
40
-0.44285714285714295
40
-0.42857142857142866
40
-0.41428571428571437
40
-0.40000000000000008
40
-0.38571428571428579
40
-0.3714285714285715
40
-0.35714285714285721
40
-0.34285714285714292
40
-0.32857142857142863
40
-0.31428571428571433
40
-0.30000000000000004
40
-0.28571428571428575
40
-0.27142857142857146
40
-0.25714285714285717
40
-0.24285714285714291
40
-0.22857142857142862
40
-0.21428571428571433
40
-0.20000000000000004
40
-0.18571428571428575
40
-0.17142857142857146
40
-0.15714285714285717
40
-0.14285714285714288
40
-0.12857142857142859
40
-0.1142857142857143
40
-0.10000000000000001
40
-0.085714285714285715
40
-0.071428571428571425
40
-0.057142857142857141
40
-0.042857142857142858
40
-0.028571428571428571
40
-0.014285714285714285
40
-0
40
-0
40
-0
40
-0
40
-0
40
-0
10
0.54099358800630526
20
-9.9853555739260518
30
0
10
0.54660056695915993
20
-9.9782186464592169
30
0
10
0.55778286454653925
20
-9.963934683737012
30
0
10
0.57446132997050547
20
-9.942478416303727
30
0
10
0.59650925886094619
20
-9.9138093927406814
30
0
10
0.623751990727197
20
-9.8778719877006225
30
0
10
0.65067676372578243
20
-9.841833614855986
30
0
10
0.67728249375341631
20
-9.8056947465038959
30
0
10
0.70356780130439434
20
-9.7694562971487695
30
0
10
0.72953101304882628
20
-9.7331197927033148
30
0
10
0.75517022861581151
20
-9.6966872442901266
30
0
10
0.78048340043567987
20
-9.6601609633940164
30
0
10
0.80546841471217656
20
-9.6235433920605669
30
0
10
0.83012316611046899
20
-9.5868369419239379
30
0
10
0.85444565794850225
20
-9.550043794370497
30
0
10
0.87843398989110888
20
-9.5131659008006348
30
0
10
0.90208629094272508
20
-9.4762050836298446
30
0
10
0.92540066953060829
20
-9.439163109058935
30
0
10
0.94837516429081847
20
-9.402041765353049
30
0
10
0.97100768385544334
20
-9.3648429559199986
30
0
10
0.99329600716100486
20
-9.3275687189271661
30
0
10
1.0152378370888455
20
-9.290221179310107
30
0
10
1.0368308448451626
20
-9.2528025193437031
30
0
10
1.058072712835866
20
-9.2153149446913272
30
0
10
1.0789611996295547
20
-9.1777606470025521
30
0
10
1.0994941301128702
20
-9.1401417901734447
30
0
10
1.1196692855223449
20
-9.1024605309612472
30
0
10
1.1394843148115437
20
-9.0647190318295028
30
0
10
1.1589366521932569
20
-9.0269194765178948
30
0
10
1.1780234048183718
20
-8.9890640870648433
30
0
10
1.1967413551149735
20
-8.9511551334219455
30
0
10
1.2150871706249355
20
-8.9131949274051276
30
0
10
1.2330575830103836
20
-8.8751858205051697
30
0
10
1.2506495553690868
20
-8.8371302006234824
30
0
10
1.2678605213942098
20
-8.7990304895910949
30
0
10
1.2846883900920203
20
-8.7608891410911625
30
0
10
1.3011310211641536
20
-8.7227086401195013
30
0
10
1.3171857811858829
20
-8.6844915021362894
30
0
10
1.3328491281942114
20
-8.6462402732578063
30
0
10
1.3481160474261624
20
-8.6079575289419097
30
0
10
1.3629799953418082
20
-8.5696458780451934
30
0
10
1.3774340712849011
20
-8.5313079791951445
30
0
10
1.3914720233953004
20
-8.492946555812658
30
0
10
1.4050891779787469
20
-8.4545644103118871
30
0
10
1.4182837531519008
20
-8.4161644428325904
30
0
10
1.4310568944453792
20
-8.377749655761793
30
0
10
1.4434098240295545
20
-8.3393231263406058
30
0
10
1.4553413864748677
20
-8.3008879834484279
30
0
10
1.4668458188882629
20
-8.2624473878743707
30
0
10
1.4779095121086419
20
-8.2240044993409391
30
0
10
1.4885112359209813
20
-8.1855624889753038
30
0
10
1.498628713840702
20
-8.1471246355409406
30
0
10
1.508244311355136
20
-8.1086944091806643
30
0
10
1.5173500405009623
20
-8.0702755484990831
30
0
10
1.5259553924479312
20
-8.031872169381403
30
0
10
1.5340850093125826
20
-7.9934887590075245
30
0
10
1.5417628507456549
20
-7.9551300183511557
30
0
10
1.548998408697611
20
-7.916800725785162
30
0
10
1.5557748039285739
20
-7.8785056269946256
30
0
10
1.5620293956771887
20
-7.8402492280526923
30
0
10
1.5676641587268838
20
-7.8020359756549595
30
0
10
1.5725817497606485
20
-7.7638707958922906
30
0
10
1.57671741431611
20
-7.7257595357949391
30
0
10
1.5800661052852498
20
-7.6877094408067581
30
0
10
1.5827280754675166
20
-7.6497296304730984
30
0
10
1.5848650894241889
20
-7.611831500542678
30
0
10
1.5866119183449869
20
-7.5740290364192955
30
0
10
1.5879975839323208
20
-7.5363392297792018
30
0
10
1.5888718198470231
20
-7.4987822941445614
30
0
10
1.5888046987521611
20
-7.4613823905055376
30
0
10
1.5871964022231162
20
-7.4241647089155514
30
0
10
1.5841866056360743
20
-7.3945543365401987
30
0
10
1.5807416183153558
20
-7.3724460366200883
30
0
10
1.5778891398354062
20
-7.3577522663391211
30
0
10
1.57632394287636
20
-7.3504166553279173
30
0
0
LINE
5
154
100
AcDbEntity
8
0
100
AcDbLine
10
1.57632394287636
20
-7.3504166553279155
30
0
11
1.2654671517927463
21
-5.893523651286837
31
0
0
ARC
5
155
100
AcDbEntity
8
0
100
AcDbCircle
10
1.7544599433349859
20
-5.789187416834336
30
0
40
0.50000000000000067
100
AcDbArc
50
106.85985568249417
51
192.04456687479959
0
ARC
5
156
100
AcDbEntity
8
0
100
AcDbCircle
10
0
20
0
30
0
40
5.5491999999999999
100
AcDbArc
50
286.85985568249413
51
298.14014431750576
0
ARC
5
157
100
AcDbEntity
8
0
100
AcDbCircle
10
2.8529831567510526
20
-5.3341642032557282
30
0
40
0.50000000000000056
100
AcDbArc
50
32.955433125200209
51
118.14014431750594
0
LINE
5
158
100
AcDbEntity
8
0
100
AcDbLine
10
3.272530134506745
20
-5.0621709433097042
30
0
11
4.0829001121743183
21
-6.3121588108835045
31
0
0
SPLINE
5
159
100
AcDbEntity
8
0
100
AcDbSpline
70
1064
71
5
72
81
73
75
74
0
42
0.000000001
43
0.0000000001
44
0.0000000001
40
0
40
0
40
0
40
0
40
0
40
0
40
0.014285714285714285
40
0.028571428571428571
40
0.042857142857142858
40
0.057142857142857141
40
0.071428571428571425
40
0.085714285714285715
40
0.10000000000000001
40
0.1142857142857143
40
0.12857142857142859
40
0.14285714285714288
40
0.15714285714285717
40
0.17142857142857146
40
0.18571428571428575
40
0.20000000000000004
40
0.21428571428571433
40
0.22857142857142862
40
0.24285714285714291
40
0.25714285714285717
40
0.27142857142857146
40
0.28571428571428575
40
0.30000000000000004
40
0.31428571428571433
40
0.32857142857142863
40
0.34285714285714292
40
0.35714285714285721
40
0.3714285714285715
40
0.38571428571428579
40
0.40000000000000008
40
0.41428571428571437
40
0.42857142857142866
40
0.44285714285714295
40
0.45714285714285724
40
0.47142857142857153
40
0.48571428571428582
40
0.50000000000000011
40
0.51428571428571435
40
0.52857142857142858
40
0.54285714285714282
40
0.55714285714285705
40
0.57142857142857129
40
0.58571428571428552
40
0.59999999999999976
40
0.61428571428571399
40
0.62857142857142823
40
0.64285714285714246
40
0.6571428571428567
40
0.67142857142857093
40
0.68571428571428517
40
0.6999999999999994
40
0.71428571428571364
40
0.72857142857142787
40
0.74285714285714211
40
0.75714285714285634
40
0.77142857142857058
40
0.78571428571428481
40
0.79999999999999905
40
0.81428571428571328
40
0.82857142857142752
40
0.84285714285714175
40
0.85714285714285599
40
0.87142857142857022
40
0.88571428571428445
40
0.89999999999999869
40
0.91428571428571292
40
0.92857142857142716
40
0.94285714285714139
40
0.95714285714285563
40
0.97142857142856986
40
0.9857142857142841
40
1
40
1
40
1
40
1
40
1
40
1
10
4.0829001121743183
20
-6.3121588108835045
30
0
10
4.0869804110808534
20
-6.3184526325573076
30
0
10
4.0953534688113633
20
-6.3308597040405381
30
0
10
4.1085504237097972
20
-6.3489286067301354
30
0
10
4.1273598712331783
20
-6.3719945494068959
30
0
10
4.1525395088836525
20
-6.3994486618210633
30
0
10
4.1789377725811923
20
-6.4259418490812781
30
0
10
4.2061127145926767
20
-6.4518804348054761
30
0
10
4.2337432459827564
20
-6.4775513391290351
30
0
10
4.2617088192854311
20
-6.5030465232807719
30
0
10
4.2900179410137733
20
-6.5283334508886073
30
0
10
4.318756019616079
20
-6.5533069351565203
30
0
10
4.3480293818993916
20
-6.5778445332550781
30
0
10
4.3779024688056731
20
-6.6018689072575985
30
0
10
4.4083665881881373
20
-6.6253785027059102
30
0
10
4.4393718172525869
20
-6.6484149734447211
30
0
10
4.4708458406072031
20
-6.6710436683213405
30
0
10
4.502716199668015
20
-6.6933307573425243
30
0
10
4.5349354144530079
20
-6.7153173479405233
30
0
10
4.5674881938311032
20
-6.7370120198342187
30
0
10
4.6003778708049827
20
-6.7584046823812107
30
0
10
4.6336180633157706
20
-6.7794750694596004
30
0
10
4.667223023055838
20
-6.800202583546346
30
0
10
4.7011965509253413
20
-6.8205776030006149
30
0
10
4.7355303549885734
20
-6.8406031325727676
30
0
10
4.7702095120005303
20
-6.8602891879847805
30
0
10
4.8052159516720145
20
-6.879649202654071
30
0
10
4.8405324196484942
20
-6.8986959462841222
30
0
10
4.8761470585386588
20
-6.9174368077438242
30
0
10
4.9120535583463356
20
-6.9358736269985188
30
0
10
4.9482488896076058
20
-6.9540050086084451
30
0
10
4.984731740589373
20
-6.9718279124305855
30
0
10
5.0215007982958779
20
-6.989339405444249
30
0
10
5.058552752036837
20
-7.006538696922739
30
0
10
5.095882315405297
20
-7.0234271100609043
30
0
10
5.1334831419191733
20
-7.0400071398420678
30
0
10
5.171348472144115
20
-7.0562817858335301
30
0
10
5.2094718343584754
20
-7.0722538302765559
30
0
10
5.247847861465635
20
-7.0879249980203411
30
0
10
5.2864722485434505
20
-7.1032959932348474
30
0
10
5.3253413547804911
20
-7.1183668993336111
30
0
10
5.3644519095998753
20
-7.1331374725787242
30
0
10
5.4038006994297589
20
-7.1476074565100376
30
0
10
5.4433841971240318
20
-7.1617769532873732
30
0
10
5.4831985667672534
20
-7.1756464218236111
30
0
10
5.5232398345404734
20
-7.1892165104275518
30
0
10
5.5635040093392334
20
-7.2024879408022127
30
0
10
5.6039872108984454
20
-7.2154613830163497
30
0
10
5.6446858224464505
20
-7.2281373114047494
30
0
10
5.6855964855605743
20
-7.2405159961158105
30
0
10
5.7267160087073075
20
-7.2525975704977732
30
0
10
5.7680412979262812
20
-7.2643820783956627
30
0
10
5.8095692850745086
20
-7.2758695277412961
30
0
10
5.8512968354903716
20
-7.2870599537357492
30
0
10
5.8932207507478456
20
-7.2979534355259883
30
0
10
5.9353378410396731
20
-7.3085500767165339
30
0
10
5.9776449795013322
20
-7.3188499990592248
30
0
10
6.0201391544018001
20
-7.3288533318811355
30
0
10
6.062817541008072
20
-7.3385602080901213
30
0
10
6.1056774879319988
20
-7.3479707500855218
30
0
10
6.1487164087370951
20
-7.3570850465186757
30
0
10
6.1919316917873584
20
-7.3659031317408825
30
0
10
6.235320613494455
20
-7.3744249696435773
30
0
10
6.2788802195178732
20
-7.382650429621088
30
0
10
6.3226073158782059
20
-7.3905792950870843
30
0
10
6.3664986811087978
20
-7.3982113339342366
30
0
10
6.4105512328926642
20
-7.4055463595463644
30
0
10
6.4547622053862286
20
-7.4125842936101884
30
0
10
6.4991293363833584
20
-7.4193252403653993
30
0
10
6.5436510037739382
20
-7.4257695286175638
30
0
10
6.5883261070166856
20
-7.4319175909789648
30
0
10
6.6241884080176607
20
-7.4365994119208416
30
0
10
6.6511537362197606
20
-7.4399778281207984
30
0
10
6.6691611015761287
20
-7.4421710365706026
30
0
10
6.6781724042242985
20
-7.4432528735397039
30
0
0
ARC
5
160
100
AcDbEntity
8
0
100
AcDbCircle
10
0
20
0
30
0
40
10
100
AcDbArc
50
311.89882108566849
51
318.1011789143314
0
SPLINE
5
161
100
AcDbEntity
8
0
100
AcDbSpline
70
1064
71
5
72
81
73
75
74
0
42
0.000000001
43
0.0000000001
44
0.0000000001
40
-1
40
-1
40
-1
40
-1
40
-1
40
-1
40
-0.9857142857142841
40
-0.97142857142856986
40
-0.95714285714285563
40
-0.94285714285714139
40
-0.92857142857142716
40
-0.91428571428571292
40
-0.89999999999999869
40
-0.88571428571428445
40
-0.87142857142857022
40
-0.85714285714285599
40
-0.84285714285714175
40
-0.82857142857142752
40
-0.81428571428571328
40
-0.79999999999999905
40
-0.78571428571428481
40
-0.77142857142857058
40
-0.75714285714285634
40
-0.74285714285714211
40
-0.72857142857142787
40
-0.71428571428571364
40
-0.6999999999999994
40
-0.68571428571428517
40
-0.67142857142857093
40
-0.6571428571428567
40
-0.64285714285714246
40
-0.62857142857142823
40
-0.61428571428571399
40
-0.59999999999999976
40
-0.58571428571428552
40
-0.57142857142857129
40
-0.55714285714285705
40
-0.54285714285714282
40
-0.52857142857142858
40
-0.51428571428571435
40
-0.50000000000000011
40
-0.48571428571428582
40
-0.47142857142857153
40
-0.45714285714285724
40
-0.44285714285714295
40
-0.42857142857142866
40
-0.41428571428571437
40
-0.40000000000000008
40
-0.38571428571428579
40
-0.3714285714285715
40
-0.35714285714285721
40
-0.34285714285714292
40
-0.32857142857142863
40
-0.31428571428571433
40
-0.30000000000000004
40
-0.28571428571428575
40
-0.27142857142857146
40
-0.25714285714285717
40
-0.24285714285714291
40
-0.22857142857142862
40
-0.21428571428571433
40
-0.20000000000000004
40
-0.18571428571428575
40
-0.17142857142857146
40
-0.15714285714285717
40
-0.14285714285714288
40
-0.12857142857142859
40
-0.1142857142857143
40
-0.10000000000000001
40
-0.085714285714285715
40
-0.071428571428571425
40
-0.057142857142857141
40
-0.042857142857142858
40
-0.028571428571428571
40
-0.014285714285714285
40
-0
40
-0
40
-0
40
-0
40
-0
40
-0
10
7.4432528735397003
20
-6.678172404224302
30
0
10
7.4421710365705991
20
-6.6691611015761323
30
0
10
7.4399778281207949
20
-6.6511537362197632
30
0
10
7.4365994119208381
20
-6.6241884080176643
30
0
10
7.4319175909789612
20
-6.5883261070166892
30
0
10
7.4257695286175611
20
-6.5436510037739417
30
0
10
7.4193252403653975
20
-6.499129336383362
30
0
10
7.4125842936101849
20
-6.4547622053862321
30
0
10
7.4055463595463609
20
-6.4105512328926668
30
0
10
7.3982113339342339
20
-6.3664986811088013
30
0
10
7.3905792950870808
20
-6.3226073158782095
30
0
10
7.3826504296210853
20
-6.2788802195178759
30
0
10
7.3744249696435737
20
-6.2353206134944585
30
0
10
7.3659031317408807
20
-6.1919316917873619
30
0
10
7.357085046518673
20
-6.1487164087370996
30
0
10
7.3479707500855183
20
-6.1056774879320024
30
0
10
7.3385602080901187
20
-6.0628175410080765
30
0
10
7.3288533318811329
20
-6.0201391544018046
30
0
10
7.318849999059224
20
-5.9776449795013349
30
0
10
7.3085500767165303
20
-5.9353378410396758
30
0
10
7.2979534355259856
20
-5.8932207507478491
30
0
10
7.2870599537357457
20
-5.8512968354903752
30
0
10
7.2758695277412953
20
-5.8095692850745113
30
0
10
7.2643820783956592
20
-5.7680412979262838
30
0
10
7.2525975704977705
20
-5.7267160087073101
30
0
10
7.240515996115807
20
-5.6855964855605778
30
0
10
7.2281373114047467
20
-5.6446858224464531
30
0
10
7.215461383016347
20
-5.6039872108984481
30
0
10
7.2024879408022109
20
-5.5635040093392361
30
0
10
7.1892165104275483
20
-5.5232398345404761
30
0
10
7.1756464218236093
20
-5.4831985667672578
30
0
10
7.1617769532873696
20
-5.4433841971240344
30
0
10
7.147607456510034
20
-5.4038006994297625
30
0
10
7.1331374725787224
20
-5.3644519095998779
30
0
10
7.1183668993336084
20
-5.3253413547804938
30
0
10
7.1032959932348465
20
-5.2864722485434532
30
0
10
7.0879249980203385
20
-5.2478478614656376
30
0
10
7.072253830276555
20
-5.2094718343584789
30
0
10
7.0562817858335265
20
-5.1713484721441185
30
0
10
7.0400071398420661
20
-5.1334831419191769
30
0
10
7.0234271100609034
20
-5.0958823154052997
30
0
10
7.0065386969227363
20
-5.0585527520368405
30
0
10
6.9893394054442473
20
-5.0215007982958806
30
0
10
6.9718279124305838
20
-4.9847317405893765
30
0
10
6.9540050086084424
20
-4.9482488896076102
30
0
10
6.9358736269985162
20
-4.9120535583463383
30
0
10
6.9174368077438206
20
-4.8761470585386633
30
0
10
6.8986959462841204
20
-4.8405324196484987
30
0
10
6.8796492026540683
20
-4.8052159516720181
30
0
10
6.8602891879847796
20
-4.770209512000533
30
0
10
6.8406031325727668
20
-4.7355303549885761
30
0
10
6.8205776030006131
20
-4.7011965509253439
30
0
10
6.8002025835463433
20
-4.6672230230558416
30
0
10
6.7794750694595995
20
-4.6336180633157733
30
0
10
6.7584046823812081
20
-4.6003778708049845
30
0
10
6.7370120198342152
20
-4.5674881938311067
30
0
10
6.7153173479405215
20
-4.5349354144530114
30
0
10
6.6933307573425216
20
-4.5027161996680176
30
0
10
6.6710436683213379
20
-4.4708458406072058
30
0
10
6.6484149734447184
20
-4.4393718172525887
30
0
10
6.6253785027059076
20
-4.40836658818814
30
0
10
6.6018689072575976
20
-4.3779024688056758
30
0
10
6.5778445332550746
20
-4.3480293818993951
30
0
10
6.5533069351565176
20
-4.3187560196160835
30
0
10
6.5283334508886064
20
-4.290017941013776
30
0
10
6.5030465232807702
20
-4.2617088192854338
30
0
10
6.4775513391290342
20
-4.23374324598276
30
0
10
6.4518804348054744
20
-4.2061127145926793
30
0
10
6.4259418490812763
20
-4.1789377725811949
30
0
10
6.3994486618210615
20
-4.1525395088836552
30
0
10
6.3719945494068941
20
-4.1273598712331809
30
0
10
6.3489286067301345
20
-4.1085504237097998
30
0
10
6.3308597040405363
20
-4.095353468811366
30
0
10
6.3184526325573049
20
-4.0869804110808579
30
0
10
6.3121588108835009
20
-4.0829001121743227
30
0
0
LINE
5
162
100
AcDbEntity
8
0
100
AcDbLine
10
6.3121588108835001
20
-4.0829001121743227
30
0
11
5.0621709433097006
21
-3.2725301345067477
31
0
0
ARC
5
163
100
AcDbEntity
8
0
100
AcDbCircle
10
5.3341642032557255
20
-2.8529831567510571
30
0
40
0.50000000000000044
100
AcDbArc
50
151.85985568249433
51
237.04456687479961
0
CIRCLE
5
164
100
AcDbEntity
8
0
100
AcDbCircle
10
0
20
0
30
0
40
3.0000000000000004
0
ENDSEC
0
SECTION
2
OBJECTS
0
DICTIONARY
5
C
100
AcDbDictionary
3
ACAD_GROUP
350
D
3
ACAD_MLINESTYLE
350
17
0
DICTIONARY
5
D
100
AcDbDictionary
0
DICTIONARY
5
1A
330
C
100
AcDbDictionary
0
DICTIONARY
5
17
100
AcDbDictionary
0
ENDSEC
0
EOF
